<svg xmlns="http://www.w3.org/2000/svg" width="119.26863pt" height="172.8176pt" viewBox="-72 -72 119.26863 172.8176" style="position: absolute; top: 0pt; left: 0pt; overflow: visible;">
<g transform="translate(-55.41915893554686,92.29461669921874)">
<g stroke-miterlimit="10" transform="scale(1,-1)"><g stroke="#000" fill="#000">
 <g stroke-width="0.4">
 <g stroke-width="1.2">
 <path d=" M 0.0 147.85867 L 0.0 0.0 L 85.36864 0.0 Z  " fill="none"/>
 </g>
 <g stroke-width="1.2">
 <path d=" M 0.0 14.93794 L 14.93794 14.93794 L 14.93794 0.0  " fill="none"/>
 </g>
 <g stroke-width="0.8">
 <path d=" M 64.01866 0.0 C 64.01866 7.62297 68.08691 14.6693 74.68843 18.48062  " fill="none"/>
 </g>
 <g transform="translate(47.81715,12.23634)">
 <g stroke="none" transform="scale(-1.00375,1.00375)translate(-52.08583068847655,92.29461669921874)scale(-1,-1)"><g fill="#000">
 <g stroke="none"> <text alignment-baseline="baseline" y="92.29461669921874" x="-52.08583068847655" style="font-family: cmr12;" font-size="14.399993896484375">60</text>
<text alignment-baseline="baseline" y="87.06898498535155" x="-37.98598314914852" style="font-family: cmsy10;" font-size="10">◦</text>
</g> </g>
 </g></g>
 <g transform="translate(46.21208,77.45297)">
 <g stroke="none" transform="scale(-1.00375,1.00375)translate(-52.08583068847655,92.29461669921874)scale(-1,-1)"><g fill="#000">
 <g stroke="none"> <text alignment-baseline="baseline" y="92.29461669921874" x="-52.08583068847655" style="font-family: cmr12;" font-size="14.399993896484375">4</text>
<text alignment-baseline="baseline" y="92.29461669921874" x="-40.3359710057266" style="font-family: cmr12;" font-size="14.399993896484375">m</text>
</g> </g>
 </g></g>
 <g transform="translate(-5.28494,151.39165)">
 <g stroke="none" transform="scale(-1.00375,1.00375)translate(-52.08583068847655,92.29461669921874)scale(-1,-1)"><g fill="#000">
 <g stroke="none"> <text alignment-baseline="baseline" y="92.29461669921874" x="-52.08583068847655" style="font-family: cmr12;" font-size="14.399993896484375">A</text>
</g> </g>
 </g></g>
 <g transform="translate(-13.51787,-4.92)">
 <g stroke="none" transform="scale(-1.00375,1.00375)translate(-52.08583068847655,92.29461669921874)scale(-1,-1)"><g fill="#000">
 <g stroke="none"> <text alignment-baseline="baseline" y="92.29461669921874" x="-52.08583068847655" style="font-family: cmr12;" font-size="14.399993896484375">B</text>
</g> </g>
 </g></g>
 <g transform="translate(88.90161,-4.92)">
 <g stroke="none" transform="scale(-1.00375,1.00375)translate(-52.08583068847655,92.29461669921874)scale(-1,-1)"><g fill="#000">
 <g stroke="none"> <text alignment-baseline="baseline" y="92.29461669921874" x="-52.08583068847655" style="font-family: cmr12;" font-size="14.399993896484375">C</text>
</g> </g>
 </g></g>
 </g>
 </g>
 </g></g></svg>