<svg xmlns="http://www.w3.org/2000/svg" width="126.95175pt" height="88.02127pt" viewBox="-72 -72 126.95175 88.02127" style="position: absolute; top: 0pt; left: 0pt; overflow: visible;">
<g transform="translate(-33.99346923828124,-28.259368896484368)">
<g stroke-miterlimit="10" transform="scale(1,-1)"><g stroke="#000" fill="#000">
 <g stroke-width="0.4">
 <g stroke-width="1.6">
 <path d=" M 0.0 0.0 M 34.1432 0.0 C 34.1432 18.85701 18.85701 34.1432 0.0 34.1432 C -18.85701 34.1432 -34.1432 18.85701 -34.1432 0.0 C -34.1432 -18.85701 -18.85701 -34.1432 0.0 -34.1432 C 18.85701 -34.1432 34.1432 -18.85701 34.1432 0.0 Z M 0.0 0.0  " fill="none"/>
 </g>
 <g stroke-width="1.6">
 <path d=" M 73.94821 0.0 L 15.76414 30.28357  " fill="none"/>
 </g>
 <g stroke-width="1.6">
 <path d=" M 73.94821 0.0 L 15.76414 -30.28357  " fill="none"/>
 </g>
 <g stroke-width="1.6">
 <path d=" M 15.76414 30.28357 L 0.0 0.0  " fill="none"/>
 </g>
 <g stroke-width="1.6">
 <path d=" M 15.76414 -30.28357 L 0.0 0.0  " fill="none"/>
 </g>
 <g stroke-width="0.8">
 </g>
 <g stroke-width="0.8">
 <path d=" M 61.32953 6.56766 C 59.18745 2.452 59.18745 -2.452 61.32953 -6.56766  " fill="none"/>
 <g transform="translate(45.31004,-3.44293)">
 <g stroke="none" transform="scale(-1.00375,1.00375)translate(-30.66014099121093,-28.259368896484368)scale(-1,-1)"><g fill="#000">
 <g stroke="none"> <text alignment-baseline="baseline" y="-28.259368896484368" x="-30.66014099121093" style="font-family: cmr10;" font-size="10">55</text>
<text alignment-baseline="baseline" y="-31.88829040527343" x="-20.660102844238278" style="font-family: cmsy7;" font-size="7">◦</text>
</g> </g>
 </g></g>
 </g>
 <g transform="translate(11.67389,33.81654)">
 <g stroke="none" transform="scale(-1.00375,1.00375)translate(-30.66014099121093,-28.259368896484368)scale(-1,-1)"><g fill="#000">
 <g stroke="none"> <text alignment-baseline="baseline" y="-28.259368896484368" x="-30.66014099121093" style="font-family: cmbx10;" font-size="10">B</text>
</g> </g>
 </g></g>
 <g transform="translate(11.41695,-40.67766)">
 <g stroke="none" transform="scale(-1.00375,1.00375)translate(-30.66014099121093,-28.259368896484368)scale(-1,-1)"><g fill="#000">
 <g stroke="none"> <text alignment-baseline="baseline" y="-28.259368896484368" x="-30.66014099121093" style="font-family: cmbx10;" font-size="10">A</text>
</g> </g>
 </g></g>
 <g transform="translate(77.48119,-3.43056)">
 <g stroke="none" transform="scale(-1.00375,1.00375)translate(-30.66014099121093,-28.259368896484368)scale(-1,-1)"><g fill="#000">
 <g stroke="none"> <text alignment-baseline="baseline" y="-28.259368896484368" x="-30.66014099121093" style="font-family: cmbx10;" font-size="10">P</text>
</g> </g>
 </g></g>
 <g transform="translate(-12.1718,3.53297)">
 <g stroke="none" transform="scale(-1.00375,1.00375)translate(-30.66014099121093,-28.259368896484368)scale(-1,-1)"><g fill="#000">
 <g stroke="none"> <text alignment-baseline="baseline" y="-28.259368896484368" x="-30.66014099121093" style="font-family: cmbx10;" font-size="10">O</text>
</g> </g>
 </g></g>
 <path d=" M 0.0 0.0 M 1.5 0.0 C 1.5 0.82843 0.82843 1.5 0.0 1.5 C -0.82843 1.5 -1.5 0.82843 -1.5 0.0 C -1.5 -0.82843 -0.82843 -1.5 0.0 -1.5 C 0.82843 -1.5 1.5 -0.82843 1.5 0.0 Z M 0.0 0.0  " stroke="none"/>
 </g>
 </g>
 </g></g></svg>