<svg xmlns="http://www.w3.org/2000/svg" width="148.13997pt" height="128.98315pt" viewBox="-72 -72 148.13997 128.98315" style="position: absolute; top: 0pt; left: 0pt; overflow: visible;">
<g transform="translate(-53.43190002441405,41.04165649414062)">
<g stroke-miterlimit="10" transform="scale(1,-1)"><g stroke="#000" fill="#000">
 <g stroke-width="0.4">
 <g stroke-width="1.6">
 <path d=" M 56.90549 99.5846 L 0.0 0.0 L 113.81097 0.0 Z  " fill="none"/>
 </g>
 <g stroke-width="1.6">
 <path d=" M 17.07181 29.87567 L 96.73914 29.87567  " fill="none"/>
 </g>
 <g transform="translate(52.97496,103.11757)">
 <g stroke="none" transform="scale(-1.00375,1.00375)translate(-50.098571777343736,41.04165649414062)scale(-1,-1)"><g fill="#000">
 <g stroke="none"> <text alignment-baseline="baseline" y="41.04165649414062" x="-50.098571777343736" style="font-family: cmbx10;" font-size="10">P</text>
</g> </g>
 </g></g>
 <g transform="translate(-12.1718,-10.39409)">
 <g stroke="none" transform="scale(-1.00375,1.00375)translate(-50.098571777343736,41.04165649414062)scale(-1,-1)"><g fill="#000">
 <g stroke="none"> <text alignment-baseline="baseline" y="41.04165649414062" x="-50.098571777343736" style="font-family: cmbx10;" font-size="10">Q</text>
</g> </g>
 </g></g>
 <g transform="translate(117.34395,-10.39409)">
 <g stroke="none" transform="scale(-1.00375,1.00375)translate(-50.098571777343736,41.04165649414062)scale(-1,-1)"><g fill="#000">
 <g stroke="none"> <text alignment-baseline="baseline" y="41.04165649414062" x="-50.098571777343736" style="font-family: cmbx10;" font-size="10">R</text>
</g> </g>
 </g></g>
 <g transform="translate(7.14998,26.44511)">
 <g stroke="none" transform="scale(-1.00375,1.00375)translate(-50.098571777343736,41.04165649414062)scale(-1,-1)"><g fill="#000">
 <g stroke="none"> <text alignment-baseline="baseline" y="41.04165649414062" x="-50.098571777343736" style="font-family: cmbx10;" font-size="10">S</text>
</g> </g>
 </g></g>
 <g transform="translate(100.27211,26.44511)">
 <g stroke="none" transform="scale(-1.00375,1.00375)translate(-50.098571777343736,41.04165649414062)scale(-1,-1)"><g fill="#000">
 <g stroke="none"> <text alignment-baseline="baseline" y="41.04165649414062" x="-50.098571777343736" style="font-family: cmbx10;" font-size="10">T</text>
</g> </g>
 </g></g>
 </g>
 </g>
 </g></g></svg>