<svg xmlns="http://www.w3.org/2000/svg" width="221.56898pt" height="169.47101pt" viewBox="-72 -72 221.56898 169.47101" style="position: absolute; top: 0pt; left: 0pt; overflow: visible;">
<g transform="translate(-13.681564331054684,-37.326797485351555)">
<g stroke-miterlimit="10" transform="scale(1,-1)"><g stroke="#000" fill="#000">
 <g stroke-width="0.4">
 <g stroke-width="1.6">
 <path d=" M 0.0 0.0 M 34.1432 0.0 C 34.1432 18.85701 18.85701 34.1432 0.0 34.1432 C -18.85701 34.1432 -34.1432 18.85701 -34.1432 0.0 C -34.1432 -18.85701 -18.85701 -34.1432 0.0 -34.1432 C 18.85701 -34.1432 34.1432 -18.85701 34.1432 0.0 Z M 0.0 0.0  " fill="none"/>
 </g>
 <path d=" M 0.0 0.0 M 3.0 0.0 C 3.0 1.65688 1.65688 3.0 0.0 3.0 C -1.65688 3.0 -3.0 1.65688 -3.0 0.0 C -3.0 -1.65688 -1.65688 -3.0 0.0 -3.0 C 1.65688 -3.0 3.0 -1.65688 3.0 0.0 Z M 0.0 0.0  " stroke="none"/>
 <g stroke-width="1.6">
 <path d=" M 0.0 0.0 L 34.1432 0.0  " fill="none"/>
 </g>
 <g stroke-width="1.6">
 <path d=" M 0.0 0.0 L 0.0 34.1432  " fill="none"/>
 </g>
 <g stroke-width="1.6">
 <path d=" M 0.0 0.0 L -26.15475 -21.94693  " fill="none"/>
 </g>
 <g transform="translate(-55.25546,-3.43056)">
 <g stroke="none" transform="scale(-1.00375,1.00375)translate(-10.348236083984373,-37.326797485351555)scale(-1,-1)"><g fill="#000">
 <g stroke="none"> <text alignment-baseline="baseline" y="-37.326797485351555" x="-10.348236083984373" style="font-family: cmbx10;" font-size="10">A.</text>
</g> </g>
 </g></g>
 <g stroke-width="1.6">
 <path d=" M 128.03734 0.0 M 162.18054 0.0 C 162.18054 18.85701 146.89435 34.1432 128.03734 34.1432 C 109.18033 34.1432 93.89413 18.85701 93.89413 0.0 C 93.89413 -18.85701 109.18033 -34.1432 128.03734 -34.1432 C 146.89435 -34.1432 162.18054 -18.85701 162.18054 0.0 Z M 128.03734 0.0  " fill="none"/>
 </g>
 <path d=" M 128.03734 0.0 M 131.03734 0.0 C 131.03734 1.65688 129.69421 3.0 128.03734 3.0 C 126.38046 3.0 125.03734 1.65688 125.03734 0.0 C 125.03734 -1.65688 126.38046 -3.0 128.03734 -3.0 C 129.69421 -3.0 131.03734 -1.65688 131.03734 0.0 Z M 128.03734 0.0  " stroke="none"/>
 <g stroke-width="1.6">
 <path d=" M 128.03734 34.1432 L 128.03734 -34.1432  " fill="none"/>
 </g>
 <g stroke-width="1.6">
 <path d=" M 93.89413 0.0 L 162.18054 0.0  " fill="none"/>
 </g>
 <g transform="translate(74.66483,-3.43056)">
 <g stroke="none" transform="scale(-1.00375,1.00375)translate(-10.348236083984373,-37.326797485351555)scale(-1,-1)"><g fill="#000">
 <g stroke="none"> <text alignment-baseline="baseline" y="-37.326797485351555" x="-10.348236083984373" style="font-family: cmbx10;" font-size="10">B.</text>
</g> </g>
 </g></g>
 <g stroke-width="1.6">
 <path d=" M 0.0 -99.5846 M 34.1432 -99.5846 C 34.1432 -80.72758 18.85701 -65.44139 0.0 -65.44139 C -18.85701 -65.44139 -34.1432 -80.72758 -34.1432 -99.5846 C -34.1432 -118.4416 -18.85701 -133.7278 0.0 -133.7278 C 18.85701 -133.7278 34.1432 -118.4416 34.1432 -99.5846 Z M 0.0 -99.5846  " fill="none"/>
 </g>
 <path d=" M 0.0 -99.5846 M 3.0 -99.5846 C 3.0 -97.92772 1.65688 -96.5846 0.0 -96.5846 C -1.65688 -96.5846 -3.0 -97.92772 -3.0 -99.5846 C -3.0 -101.24147 -1.65688 -102.5846 0.0 -102.5846 C 1.65688 -102.5846 3.0 -101.24147 3.0 -99.5846 Z M 0.0 -99.5846  " stroke="none"/>
 <g transform="translate(7.8007,-103.70126)">
 <g stroke="none" transform="scale(-1.00375,1.00375)translate(-10.348236083984373,-37.326797485351555)scale(-1,-1)"><g fill="#000">
 <g stroke="none"> <text alignment-baseline="baseline" y="-37.326797485351555" x="-10.348236083984373" style="font-family: cmbx12;" font-size="12">P</text>
</g> </g>
 </g></g>
 <g transform="translate(-54.86658,-103.01515)">
 <g stroke="none" transform="scale(-1.00375,1.00375)translate(-10.348236083984373,-37.326797485351555)scale(-1,-1)"><g fill="#000">
 <g stroke="none"> <text alignment-baseline="baseline" y="-37.326797485351555" x="-10.348236083984373" style="font-family: cmbx10;" font-size="10">C.</text>
</g> </g>
 </g></g>
 <g stroke-width="1.6">
 <path d=" M 128.03734 -99.5846 M 162.18054 -99.5846 C 162.18054 -80.72758 146.89435 -65.44139 128.03734 -65.44139 C 109.18033 -65.44139 93.89413 -80.72758 93.89413 -99.5846 C 93.89413 -118.4416 109.18033 -133.7278 128.03734 -133.7278 C 146.89435 -133.7278 162.18054 -118.4416 162.18054 -99.5846 Z M 128.03734 -99.5846  " fill="none"/>
 </g>
 <path d=" M 128.03734 -99.5846 M 131.03734 -99.5846 C 131.03734 -97.92772 129.69421 -96.5846 128.03734 -96.5846 C 126.38046 -96.5846 125.03734 -97.92772 125.03734 -99.5846 C 125.03734 -101.24147 126.38046 -102.5846 128.03734 -102.5846 C 129.69421 -102.5846 131.03734 -101.24147 131.03734 -99.5846 Z M 128.03734 -99.5846  " stroke="none"/>
 <g transform="translate(74.66483,-103.01515)">
 <g stroke="none" transform="scale(-1.00375,1.00375)translate(-10.348236083984373,-37.326797485351555)scale(-1,-1)"><g fill="#000">
 <g stroke="none"> <text alignment-baseline="baseline" y="-37.326797485351555" x="-10.348236083984373" style="font-family: cmbx10;" font-size="10">D.</text>
</g> </g>
 </g></g>
 </g>
 </g>
 </g></g></svg>