<svg xmlns="http://www.w3.org/2000/svg" width="176.14828pt" height="128.98315pt" viewBox="-72 -72 176.14828 128.98315" style="position: absolute; top: 0pt; left: 0pt; overflow: visible;">
<g transform="translate(-53.8902130126953,42.98608398437499)">
<g stroke-miterlimit="10" transform="scale(1,-1)"><g stroke="#000" fill="#000">
 <g stroke-width="0.4">
 <g stroke-width="1.6">
 <path d=" M 0.0 0.0 L 142.26372 0.0  " fill="none"/>
 </g>
 <g stroke-width="1.6">
 <path d=" M 0.0 0.0 L 142.26372 99.5846  " fill="none"/>
 </g>
 <g stroke-width="1.6">
 <path d=" M 71.13185 49.7923 L 142.26372 0.0  " fill="none"/>
 </g>
 <g stroke-width="1.6">
 <path d=" M 142.26372 0.0 L 142.26372 99.5846  " fill="none"/>
 </g>
 <g stroke-width="1.6">
 <path d=" M 71.13185 49.7923 L 71.13185 0.0  " fill="none"/>
 </g>
 <g stroke-width="1.2">
 </g>
 <g stroke-width="1.2">
 <path d=" M 57.14638 40.00237 C 60.64355 35.00644 66.5421 32.25528 72.61719 32.78587 C 77.64468 33.22498 82.2232 35.86794 85.11732 40.00237  " fill="none"/>
 <g transform="translate(56.88638,20.74203)">
 <g stroke="none" transform="scale(-1.00375,1.00375)translate(-50.556884765624986,42.98608398437499)scale(-1,-1)"><g fill="#000">
 <g stroke="none"> <text alignment-baseline="baseline" y="42.98608398437499" x="-50.556884765624986" style="font-family: cmmi10;" font-size="10">x</text>
<text alignment-baseline="baseline" y="39.35716247558593" x="-44.84160041809081" style="font-family: cmsy7;" font-size="7">◦</text>
</g> </g>
 </g></g>
 </g>
 <g stroke-width="1.2">
 </g>
 <g stroke-width="1.2">
 <path d=" M 57.14638 40.00237 C 60.64355 35.00644 66.5421 32.25528 72.61719 32.78587 C 77.64468 33.22498 82.2232 35.86794 85.11732 40.00237  " fill="none"/>
 <g transform="translate(75.06482,20.74203)">
 <g stroke="none" transform="scale(-1.00375,1.00375)translate(-50.556884765624986,42.98608398437499)scale(-1,-1)"><g fill="#000">
 <g stroke="none"> <text alignment-baseline="baseline" y="42.98608398437499" x="-50.556884765624986" style="font-family: cmmi10;" font-size="10">x</text>
<text alignment-baseline="baseline" y="39.35716247558593" x="-44.84160041809081" style="font-family: cmsy7;" font-size="7">◦</text>
</g> </g>
 </g></g>
 </g>
 <g transform="translate(-11.71349,-10.39409)">
 <g stroke="none" transform="scale(-1.00375,1.00375)translate(-50.556884765624986,42.98608398437499)scale(-1,-1)"><g fill="#000">
 <g stroke="none"> <text alignment-baseline="baseline" y="42.98608398437499" x="-50.556884765624986" style="font-family: cmbx10;" font-size="10">B</text>
</g> </g>
 </g></g>
 <g transform="translate(145.79669,-10.39409)">
 <g stroke="none" transform="scale(-1.00375,1.00375)translate(-50.556884765624986,42.98608398437499)scale(-1,-1)"><g fill="#000">
 <g stroke="none"> <text alignment-baseline="baseline" y="42.98608398437499" x="-50.556884765624986" style="font-family: cmbx10;" font-size="10">C</text>
</g> </g>
 </g></g>
 <g transform="translate(145.79669,105.062)">
 <g stroke="none" transform="scale(-1.00375,1.00375)translate(-50.556884765624986,42.98608398437499)scale(-1,-1)"><g fill="#000">
 <g stroke="none"> <text alignment-baseline="baseline" y="42.98608398437499" x="-50.556884765624986" style="font-family: cmbx10;" font-size="10">Q</text>
</g> </g>
 </g></g>
 <g transform="translate(67.20132,-10.39409)">
 <g stroke="none" transform="scale(-1.00375,1.00375)translate(-50.556884765624986,42.98608398437499)scale(-1,-1)"><g fill="#000">
 <g stroke="none"> <text alignment-baseline="baseline" y="42.98608398437499" x="-50.556884765624986" style="font-family: cmbx10;" font-size="10">P</text>
</g> </g>
 </g></g>
 <g transform="translate(58.90448,53.32527)">
 <g stroke="none" transform="scale(-1.00375,1.00375)translate(-50.556884765624986,42.98608398437499)scale(-1,-1)"><g fill="#000">
 <g stroke="none"> <text alignment-baseline="baseline" y="42.98608398437499" x="-50.556884765624986" style="font-family: cmbx10;" font-size="10">A</text>
</g> </g>
 </g></g>
 </g>
 </g>
 </g></g></svg>