<svg xmlns="http://www.w3.org/2000/svg" width="148.13997pt" height="127.03873pt" viewBox="-72 -72 148.13997 127.03873" style="position: absolute; top: 0pt; left: 0pt; overflow: visible;">
<g transform="translate(-53.43190002441405,41.04165649414062)">
<g stroke-miterlimit="10" transform="scale(1,-1)"><g stroke="#000" fill="#000">
 <g stroke-width="0.4">
 <g stroke-width="1.6">
 <path d=" M 56.90549 99.5846 L 0.0 0.0 L 113.81097 0.0 Z  " fill="none"/>
 </g>
 <g stroke-width="1.6">
 <path d=" M 56.90549 99.5846 L 56.90549 0.0  " fill="none"/>
 </g>
 <g stroke-width="1.6">
 <path d=" M 29.59108 4.26773 L 29.59108 -4.26773  " fill="none"/>
 </g>
 <g stroke-width="1.6">
 <path d=" M 33.00528 4.26773 L 33.00528 -4.26773  " fill="none"/>
 </g>
 <g stroke-width="1.6">
 <path d=" M 86.49657 4.26773 L 86.49657 -4.26773  " fill="none"/>
 </g>
 <g stroke-width="1.6">
 <path d=" M 89.91075 4.26773 L 89.91075 -4.26773  " fill="none"/>
 </g>
 <g transform="translate(52.97496,103.11757)">
 <g stroke="none" transform="scale(-1.00375,1.00375)translate(-50.098571777343736,41.04165649414062)scale(-1,-1)"><g fill="#000">
 <g stroke="none"> <text alignment-baseline="baseline" y="41.04165649414062" x="-50.098571777343736" style="font-family: cmbx10;" font-size="10">P</text>
</g> </g>
 </g></g>
 <g transform="translate(-12.1718,-2.45834)">
 <g stroke="none" transform="scale(-1.00375,1.00375)translate(-50.098571777343736,41.04165649414062)scale(-1,-1)"><g fill="#000">
 <g stroke="none"> <text alignment-baseline="baseline" y="41.04165649414062" x="-50.098571777343736" style="font-family: cmbx10;" font-size="10">Q</text>
</g> </g>
 </g></g>
 <g transform="translate(117.34395,-3.43056)">
 <g stroke="none" transform="scale(-1.00375,1.00375)translate(-50.098571777343736,41.04165649414062)scale(-1,-1)"><g fill="#000">
 <g stroke="none"> <text alignment-baseline="baseline" y="41.04165649414062" x="-50.098571777343736" style="font-family: cmbx10;" font-size="10">R</text>
</g> </g>
 </g></g>
 <g transform="translate(53.71106,-10.39409)">
 <g stroke="none" transform="scale(-1.00375,1.00375)translate(-50.098571777343736,41.04165649414062)scale(-1,-1)"><g fill="#000">
 <g stroke="none"> <text alignment-baseline="baseline" y="41.04165649414062" x="-50.098571777343736" style="font-family: cmbx10;" font-size="10">S</text>
</g> </g>
 </g></g>
 </g>
 </g>
 </g></g></svg>