<svg xmlns="http://www.w3.org/2000/svg" width="144.66779pt" height="98.58598pt" viewBox="-72 -72 144.66779 98.58598" style="position: absolute; top: 0pt; left: 0pt; overflow: visible;">
<g transform="translate(-56.584655761718736,12.588912963867184)">
<g stroke-miterlimit="10" transform="scale(1,-1)"><g stroke="#000" fill="#000">
 <g stroke-width="0.4">
 <g stroke-width="1.6">
 <path d=" M 0.0 71.13185 L 113.81097 71.13185 L 113.81097 0.0 L 0.0 0.0 Z  " fill="none"/>
 </g>
 <g stroke-width="1.6">
 <path d=" M 0.0 71.13185 L 113.81097 0.0  " fill="none"/>
 </g>
 <g stroke-width="1.6">
 <path d=" M 0.0 0.0 L 113.81097 71.13185  " fill="none"/>
 </g>
 <g stroke-width="1.6">
 <path d=" M 56.90549 35.56592 L 113.81097 35.56592  " fill="none"/>
 </g>
 <g stroke-width="0.8">
 <path d=" M 113.81097 35.56592 M 106.6978 35.56592 L 106.6978 28.45274 L 113.81097 28.45274  " fill="none"/>
 </g>
 <g transform="translate(-12.22737,74.66483)">
 <g stroke="none" transform="scale(-1.00375,1.00375)translate(-53.25132751464842,12.588912963867184)scale(-1,-1)"><g fill="#000">
 <g stroke="none"> <text alignment-baseline="baseline" y="12.588912963867184" x="-53.25132751464842" style="font-family: cmbx10;" font-size="10">A</text>
</g> </g>
 </g></g>
 <g transform="translate(117.34395,74.66483)">
 <g stroke="none" transform="scale(-1.00375,1.00375)translate(-53.25132751464842,12.588912963867184)scale(-1,-1)"><g fill="#000">
 <g stroke="none"> <text alignment-baseline="baseline" y="12.588912963867184" x="-53.25132751464842" style="font-family: cmbx10;" font-size="10">B</text>
</g> </g>
 </g></g>
 <g transform="translate(117.34395,-10.39409)">
 <g stroke="none" transform="scale(-1.00375,1.00375)translate(-53.25132751464842,12.588912963867184)scale(-1,-1)"><g fill="#000">
 <g stroke="none"> <text alignment-baseline="baseline" y="12.588912963867184" x="-53.25132751464842" style="font-family: cmbx10;" font-size="10">C</text>
</g> </g>
 </g></g>
 <g transform="translate(-12.35237,-10.39409)">
 <g stroke="none" transform="scale(-1.00375,1.00375)translate(-53.25132751464842,12.588912963867184)scale(-1,-1)"><g fill="#000">
 <g stroke="none"> <text alignment-baseline="baseline" y="12.588912963867184" x="-53.25132751464842" style="font-family: cmbx10;" font-size="10">D</text>
</g> </g>
 </g></g>
 <g transform="translate(52.58607,25.17183)">
 <g stroke="none" transform="scale(-1.00375,1.00375)translate(-53.25132751464842,12.588912963867184)scale(-1,-1)"><g fill="#000">
 <g stroke="none"> <text alignment-baseline="baseline" y="12.588912963867184" x="-53.25132751464842" style="font-family: cmbx10;" font-size="10">O</text>
</g> </g>
 </g></g>
 <g transform="translate(117.34395,32.13536)">
 <g stroke="none" transform="scale(-1.00375,1.00375)translate(-53.25132751464842,12.588912963867184)scale(-1,-1)"><g fill="#000">
 <g stroke="none"> <text alignment-baseline="baseline" y="12.588912963867184" x="-53.25132751464842" style="font-family: cmbx10;" font-size="10">P</text>
</g> </g>
 </g></g>
 </g>
 </g>
 </g></g></svg>