<svg xmlns="http://www.w3.org/2000/svg" width="145.18173pt" height="122.1497pt" viewBox="-72 -72 145.18173 122.1497" style="position: absolute; top: 0pt; left: 0pt; overflow: visible;">
<g transform="translate(-53.26249694824217,9.388519287109373)">
<g stroke-miterlimit="10" transform="scale(1,-1)"><g stroke="#000" fill="#000">
 <g stroke-width="0.4">
 <g stroke-width="1.2">
 <path d=" M 0.0 0.0 L 27.74686 66.59259 L 110.98753 0.0 Z  " fill="none"/>
 </g>
 <g stroke-width="1.2">
 <path d=" M 27.74686 66.59259 L 27.74686 0.0  " fill="none"/>
 </g>
 <g stroke-width="1.2">
 <path d=" M 27.74686 0.0 M 35.88438 0.0 L 35.88438 8.13753 L 27.74686 8.13753  " fill="none"/>
 </g>
 <g stroke-width="1.2">
 <path d=" M 22.20186 53.28462 L 27.75221 47.95605 L 35.24503 60.61128  " fill="none"/>
 </g>
 <g stroke-width="1.2">
 <path d=" M 1.19998 -25.89192 L 109.76598 -25.89192  " fill="none"/>
 <g transform="matrix(-1.0,0.0,0.0,-1.0,0.59999,-25.89192)">
 <g stroke-dasharray="none" stroke-dashoffset="0.0">
 <g stroke-linecap="round">
 <g stroke-linejoin="round">
 <path d=" M -3.04 3.84514 C -2.4846 1.53802 -1.24696 0.4486 0.0 0.0 C -1.24696 -0.4486 -2.4846 -1.53802 -3.04 -3.84514  " fill="none"/>
 </g>
 </g>
 </g>
  </g>
 <g transform="translate(110.36597,-25.89192)">
 <g stroke-dasharray="none" stroke-dashoffset="0.0">
 <g stroke-linecap="round">
 <g stroke-linejoin="round">
 <path d=" M -3.04 3.84514 C -2.4846 1.53802 -1.24696 0.4486 0.0 0.0 C -1.24696 -0.4486 -2.4846 -1.53802 -3.04 -3.84514  " fill="none"/>
 </g>
 </g>
 </g>
  </g>
 </g>
 <g transform="translate(49.60802,-37.1582)">
 <g stroke="none" transform="scale(-1.00375,1.00375)translate(-49.92916870117186,9.388519287109373)scale(-1,-1)"><g fill="#000">
 <g stroke="none"> <text alignment-baseline="baseline" y="9.388519287109373" x="-49.92916870117186" style="font-family: cmr12;" font-size="12">13</text>
</g> </g>
 </g></g>
 <g transform="translate(23.50385,70.12556)">
 <g stroke="none" transform="scale(-1.00375,1.00375)translate(-49.92916870117186,9.388519287109373)scale(-1,-1)"><g fill="#000">
 <g stroke="none"> <text alignment-baseline="baseline" y="9.388519287109373" x="-49.92916870117186" style="font-family: cmr12;" font-size="12">C</text>
</g> </g>
 </g></g>
 <g transform="translate(-12.3412,-11.73296)">
 <g stroke="none" transform="scale(-1.00375,1.00375)translate(-49.92916870117186,9.388519287109373)scale(-1,-1)"><g fill="#000">
 <g stroke="none"> <text alignment-baseline="baseline" y="9.388519287109373" x="-49.92916870117186" style="font-family: cmr12;" font-size="12">A</text>
</g> </g>
 </g></g>
 <g transform="translate(114.52051,-11.73296)">
 <g stroke="none" transform="scale(-1.00375,1.00375)translate(-49.92916870117186,9.388519287109373)scale(-1,-1)"><g fill="#000">
 <g stroke="none"> <text alignment-baseline="baseline" y="9.388519287109373" x="-49.92916870117186" style="font-family: cmr12;" font-size="12">B</text>
</g> </g>
 </g></g>
 <g transform="translate(23.2601,-11.73296)">
 <g stroke="none" transform="scale(-1.00375,1.00375)translate(-49.92916870117186,9.388519287109373)scale(-1,-1)"><g fill="#000">
 <g stroke="none"> <text alignment-baseline="baseline" y="9.388519287109373" x="-49.92916870117186" style="font-family: cmr12;" font-size="12">D</text>
</g> </g>
 </g></g>
 <g transform="translate(4.46552,36.82925)">
 <g stroke="none" transform="scale(-1.00375,1.00375)translate(-49.92916870117186,9.388519287109373)scale(-1,-1)"><g fill="#000">
 <g stroke="none"> <text alignment-baseline="baseline" y="9.388519287109373" x="-49.92916870117186" style="font-family: cmr12;" font-size="12">5</text>
</g> </g>
 </g></g>
 <g transform="translate(72.90016,36.82925)">
 <g stroke="none" transform="scale(-1.00375,1.00375)translate(-49.92916870117186,9.388519287109373)scale(-1,-1)"><g fill="#000">
 <g stroke="none"> <text alignment-baseline="baseline" y="9.388519287109373" x="-49.92916870117186" style="font-family: cmr12;" font-size="12">12</text>
</g> </g>
 </g></g>
 </g>
 </g>
 </g></g></svg>