<svg xmlns="http://www.w3.org/2000/svg" width="144.2637pt" height="144.2637pt" viewBox="-72 -72 144.2637 144.2637" style="position: absolute; top: 0pt; left: 0pt; overflow: visible;">
<g transform="translate(-0.13815307617187497,-0.13815307617187497)">
<g stroke-miterlimit="10" transform="scale(1,-1)"><g stroke="#000" fill="#000">
 <g stroke-width="0.4">
 <g stroke-width="2.0">
 <path d=" M -71.13185 -48.36957 M -71.13185 -36.98848 L -71.13185 36.98848 C -71.13185 43.27415 -66.03644 48.36957 -59.75076 48.36957 L 59.75076 48.36957 C 66.03644 48.36957 71.13185 43.27415 71.13185 36.98848 L 71.13185 -36.98848 C 71.13185 -43.27415 66.03644 -48.36957 59.75076 -48.36957 L -59.75076 -48.36957 C -66.03644 -48.36957 -71.13185 -43.27415 -71.13185 -36.98848 Z M 71.13185 48.36957  " fill="none"/>
 </g>
 <g stroke-width="2.0">
 <path d=" M -34.1432 -71.13185 M -34.1432 -59.75076 L -34.1432 59.75076 C -34.1432 66.03644 -29.04779 71.13185 -22.76212 71.13185 L 22.76212 71.13185 C 29.04779 71.13185 34.1432 66.03644 34.1432 59.75076 L 34.1432 -59.75076 C 34.1432 -66.03644 29.04779 -71.13185 22.76212 -71.13185 L -22.76212 -71.13185 C -29.04779 -71.13185 -34.1432 -66.03644 -34.1432 -59.75076 Z M 34.1432 71.13185  " fill="none"/>
 </g>
 </g>
 </g>
 </g></g></svg>