<svg xmlns="http://www.w3.org/2000/svg" width="198.77477pt" height="169.84401pt" viewBox="-72 -72 198.77477 169.84401" style="position: absolute; top: 0pt; left: 0pt; overflow: visible;">
<g transform="translate(-58.32070922851561,90.82437133789061)">
<g stroke-miterlimit="10" transform="scale(1,-1)"><g stroke="#000" fill="#000">
 <g stroke-width="0.4">
 <g stroke-width="0.8">
 <path d=" M 85.36864 149.39511 L 0.0 0.0 L 170.73729 0.0 Z  " fill="none"/>
 </g>
 <g stroke-width="0.8">
 <path d=" M 38.42029 67.23552 L 132.33778 67.23552  " fill="none"/>
 </g>
 <g stroke-width="0.8">
 <path d=" M 0.0 0.0 L 132.33778 67.23552  " fill="none"/>
 </g>
 <g stroke-width="0.8">
 <path d=" M 170.73729 0.0 L 38.42029 67.23552  " fill="none"/>
 </g>
 <g transform="translate(81.61864,152.92809)">
 <g stroke="none" transform="scale(-1.00375,1.00375)translate(-54.9873809814453,90.82437133789061)scale(-1,-1)"><g fill="#000">
 <g stroke="none"> <text alignment-baseline="baseline" y="90.82437133789061" x="-54.9873809814453" style="font-family: cmr10;" font-size="10">A</text>
</g> </g>
 </g></g>
 <g transform="translate(-10.61632,-3.41666)">
 <g stroke="none" transform="scale(-1.00375,1.00375)translate(-54.9873809814453,90.82437133789061)scale(-1,-1)"><g fill="#000">
 <g stroke="none"> <text alignment-baseline="baseline" y="90.82437133789061" x="-54.9873809814453" style="font-family: cmr10;" font-size="10">B</text>
</g> </g>
 </g></g>
 <g transform="translate(174.27026,-3.41666)">
 <g stroke="none" transform="scale(-1.00375,1.00375)translate(-54.9873809814453,90.82437133789061)scale(-1,-1)"><g fill="#000">
 <g stroke="none"> <text alignment-baseline="baseline" y="90.82437133789061" x="-54.9873809814453" style="font-family: cmr10;" font-size="10">C</text>
</g> </g>
 </g></g>
 <g transform="translate(28.08174,63.81886)">
 <g stroke="none" transform="scale(-1.00375,1.00375)translate(-54.9873809814453,90.82437133789061)scale(-1,-1)"><g fill="#000">
 <g stroke="none"> <text alignment-baseline="baseline" y="90.82437133789061" x="-54.9873809814453" style="font-family: cmr10;" font-size="10">P</text>
</g> </g>
 </g></g>
 <g transform="translate(135.87076,64.79108)">
 <g stroke="none" transform="scale(-1.00375,1.00375)translate(-54.9873809814453,90.82437133789061)scale(-1,-1)"><g fill="#000">
 <g stroke="none"> <text alignment-baseline="baseline" y="90.82437133789061" x="-54.9873809814453" style="font-family: cmr10;" font-size="10">Q</text>
</g> </g>
 </g></g>
 <g transform="translate(81.49818,33.01389)">
 <g stroke="none" transform="scale(-1.00375,1.00375)translate(-54.9873809814453,90.82437133789061)scale(-1,-1)"><g fill="#000">
 <g stroke="none"> <text alignment-baseline="baseline" y="90.82437133789061" x="-54.9873809814453" style="font-family: cmr10;" font-size="10">O</text>
</g> </g>
 </g></g>
 </g>
 </g>
 </g></g></svg>