<svg xmlns="http://www.w3.org/2000/svg" width="171.51648pt" height="171.51648pt" viewBox="-72 -72 171.51648 171.51648" style="position: absolute; top: 0pt; left: 0pt; overflow: visible;">
<g transform="translate(13.488235473632809,13.488235473632809)">
<g stroke-miterlimit="10" transform="scale(1,-1)"><g stroke="#000" fill="#000">
 <g stroke-width="0.4">
 <g stroke-width="0.8">
 <path d=" M 0.0 0.0 M 85.35825 0.0 C 85.35825 47.14265 47.14265 85.35825 0.0 85.35825 C -47.14265 85.35825 -85.35825 47.14265 -85.35825 0.0 C -85.35825 -47.14265 -47.14265 -85.35825 0.0 -85.35825 C 47.14265 -85.35825 85.35825 -47.14265 85.35825 0.0 Z M 0.0 0.0  " fill="none"/>
 </g>
 <g stroke-width="0.8">
 <path d=" M -51.22102 68.29514 L -51.22102 -68.29514  " fill="none"/>
 </g>
 <g stroke-width="0.8">
 <path d=" M 51.22102 68.29514 L 51.22102 -68.29514  " fill="none"/>
 </g>
 <g stroke-width="0.8">
 <path d=" M -51.22102 0.0 L 51.22102 0.0  " fill="none"/>
 </g>
 <path d=" M 0.0 0.0 M 1.5 0.0 C 1.5 0.82843 0.82843 1.5 0.0 1.5 C -0.82843 1.5 -1.5 0.82843 -1.5 0.0 C -1.5 -0.82843 -0.82843 -1.5 0.0 -1.5 C 0.82843 -1.5 1.5 -0.82843 1.5 0.0 Z M 0.0 0.0  " stroke="none"/>
 <g stroke-width="0.8">
 <path d=" M -51.2148 10.66975 L -40.54501 10.66975 L -40.54501 0.0  " fill="none"/>
 </g>
 <g stroke-width="0.8">
 <path d=" M 51.2148 10.66975 L 40.54501 10.66975 L 40.54501 0.0  " fill="none"/>
 </g>
 <g transform="translate(-62.254,71.82811)">
 <g stroke="none" transform="scale(-1.00375,1.00375)translate(16.82156372070312,13.488235473632809)scale(-1,-1)"><g fill="#000">
 <g stroke="none"> <text alignment-baseline="baseline" y="13.488235473632809" x="16.82156372070312" style="font-family: cmr10;" font-size="10">A</text>
</g> </g>
 </g></g>
 <g transform="translate(-61.83734,-78.66142)">
 <g stroke="none" transform="scale(-1.00375,1.00375)translate(16.82156372070312,13.488235473632809)scale(-1,-1)"><g fill="#000">
 <g stroke="none"> <text alignment-baseline="baseline" y="13.488235473632809" x="16.82156372070312" style="font-family: cmr10;" font-size="10">B</text>
</g> </g>
 </g></g>
 <g transform="translate(54.754,71.82811)">
 <g stroke="none" transform="scale(-1.00375,1.00375)translate(16.82156372070312,13.488235473632809)scale(-1,-1)"><g fill="#000">
 <g stroke="none"> <text alignment-baseline="baseline" y="13.488235473632809" x="16.82156372070312" style="font-family: cmr10;" font-size="10">C</text>
</g> </g>
 </g></g>
 <g transform="translate(54.754,-78.66142)">
 <g stroke="none" transform="scale(-1.00375,1.00375)translate(16.82156372070312,13.488235473632809)scale(-1,-1)"><g fill="#000">
 <g stroke="none"> <text alignment-baseline="baseline" y="13.488235473632809" x="16.82156372070312" style="font-family: cmr10;" font-size="10">D</text>
</g> </g>
 </g></g>
 <g transform="translate(-61.55957,-3.41666)">
 <g stroke="none" transform="scale(-1.00375,1.00375)translate(16.82156372070312,13.488235473632809)scale(-1,-1)"><g fill="#000">
 <g stroke="none"> <text alignment-baseline="baseline" y="13.488235473632809" x="16.82156372070312" style="font-family: cmr10;" font-size="10">E</text>
</g> </g>
 </g></g>
 <g transform="translate(54.754,-3.41666)">
 <g stroke="none" transform="scale(-1.00375,1.00375)translate(16.82156372070312,13.488235473632809)scale(-1,-1)"><g fill="#000">
 <g stroke="none"> <text alignment-baseline="baseline" y="13.488235473632809" x="16.82156372070312" style="font-family: cmr10;" font-size="10">F</text>
</g> </g>
 </g></g>
 <g transform="translate(-3.8889,-10.36629)">
 <g stroke="none" transform="scale(-1.00375,1.00375)translate(16.82156372070312,13.488235473632809)scale(-1,-1)"><g fill="#000">
 <g stroke="none"> <text alignment-baseline="baseline" y="13.488235473632809" x="16.82156372070312" style="font-family: cmr10;" font-size="10">O</text>
</g> </g>
 </g></g>
 </g>
 </g>
 </g></g></svg>