<?xml version="1.0" encoding="UTF-8" standalone="no"?>
<!-- Created with Inkscape (http://www.inkscape.org/) -->

<svg
   version="1.1"
   id="svg1"
   width="326.53333"
   height="215.05333"
   viewBox="0 0 326.53333 215.05333"
   sodipodi:docname="upload_2efyyxhzswjdyjvhteqc7ntp4g.pdf"
   xmlns:inkscape="http://www.inkscape.org/namespaces/inkscape"
   xmlns:sodipodi="http://sodipodi.sourceforge.net/DTD/sodipodi-0.dtd"
   xmlns="http://www.w3.org/2000/svg"
   xmlns:svg="http://www.w3.org/2000/svg">
  <defs
     id="defs1" />
  <sodipodi:namedview
     id="namedview1"
     pagecolor="#ffffff"
     bordercolor="#000000"
     borderopacity="0.25"
     inkscape:showpageshadow="2"
     inkscape:pageopacity="0.0"
     inkscape:pagecheckerboard="0"
     inkscape:deskcolor="#d1d1d1">
    <inkscape:page
       x="0"
       y="0"
       inkscape:label="1"
       id="page1"
       width="326.53333"
       height="215.05333"
       margin="0"
       bleed="0" />
  </sodipodi:namedview>
  <g
     id="g1"
     inkscape:groupmode="layer"
     inkscape:label="1">
    <path
       id="path1"
       d="M 0,102.06314 V 0 h 178.61052 z"
       style="fill:none;stroke:#000000;stroke-width:1.19553;stroke-linecap:butt;stroke-linejoin:miter;stroke-miterlimit:10;stroke-dasharray:none;stroke-opacity:1"
       transform="matrix(1.3333333,0,0,-1.3333333,49.105333,175.47867)" />
    <path
       id="path2"
       d="M 15.30743,0 V 15.30743 H 0"
       style="fill:none;stroke:#000000;stroke-width:1.19553;stroke-linecap:butt;stroke-linejoin:miter;stroke-miterlimit:10;stroke-dasharray:none;stroke-opacity:1"
       transform="matrix(1.3333333,0,0,-1.3333333,49.105333,175.47867)" />
    <path
       id="path3"
       d="M 161.3578,9.84416 C 159.64513,6.84694 158.74242,3.45224 158.74242,0"
       style="fill:none;stroke:#000000;stroke-width:1.19553;stroke-linecap:butt;stroke-linejoin:miter;stroke-miterlimit:10;stroke-dasharray:none;stroke-opacity:1"
       transform="matrix(1.3333333,0,0,-1.3333333,49.105333,175.47867)" />
    <path
       id="path4"
       d="m 5.2966094,-6.0127891 c 0,-1.21875 -0.3867188,-2.4023437 -1.359375,-2.4023437 -1.6757813,0 -3.45703127,3.5039062 -3.45703127,6.1289062 0,0.5507813 0.1171875,2.40234379 1.37109377,2.40234379 1.6289062,0 3.4453125,-3.42187499 3.4453125,-6.12890629 z m -3.6210938,1.6875 c 0.1757813,-0.703125 0.4335938,-1.7109375 0.9023438,-2.5664062 0.3984375,-0.7148438 0.8203125,-1.2890625 1.3476562,-1.2890625 0.3867188,0 0.65625,0.3398437 0.65625,1.4882812 0,0.4335938 -0.035156,1.03125 -0.3867187,2.3671875 z m 2.4375,0.3515625 c -0.3046875,1.171875 -0.5507812,1.9335938 -0.984375,2.6835938 -0.3398437,0.60937499 -0.7617187,1.17187499 -1.265625,1.17187499 -0.3632812,0 -0.6679687,-0.29296875 -0.6679687,-1.47656249 0,-0.7734375 0.1875,-1.5820313 0.3867187,-2.3789063 z m 0,0"
       style="fill:#000000;fill-opacity:1;fill-rule:nonzero;stroke:none"
       aria-label="θ"
       transform="matrix(1.3333333,0,0,1.3333333,225.57067,164.00533)" />
    <path
       id="path5"
       d="m 8.3900547,0.00134375 v -0.3515625 c -0.7734375,0 -0.9960938,0 -1.1601563,-0.48046875 L 4.6283359,-8.3189687 c -0.046875,-0.140625 -0.070312,-0.2109375 -0.2460937,-0.2109375 -0.1640625,0 -0.1875,0.035156 -0.2460938,0.2226562 l -2.4960937,7.1484375 c -0.1757813,0.4921875 -0.5039063,0.796875 -1.26562501,0.80859375 v 0.3515625 l 1.14843751,-0.0234375 c 0.328125,0 0.9023437,0 1.21875,0.0234375 v -0.3515625 C 2.2377109,-0.3619375 1.9330234,-0.60803125 1.9330234,-0.947875 c 0,-0.0703125 0,-0.09375 0.058594,-0.2460937 l 0.5507812,-1.59375 h 3.0117188 l 0.65625,1.87499995 c 0.070312,0.15234375 0.070312,0.17578125 0.070312,0.2109375 0,0.3515625 -0.6210938,0.3515625 -0.9140625,0.3515625 v 0.3515625 c 0.2695312,-0.0234375 1.21875,-0.0234375 1.5585937,-0.0234375 0.328125,0 1.1953125,0 1.4648441,0.0234375 z M 5.4369297,-3.1275625 H 2.6595859 l 1.3945313,-3.984375 z m 0,0"
       style="fill:#000000;fill-opacity:1;fill-rule:nonzero;stroke:none"
       aria-label="A"
       transform="matrix(1.3333333,0,0,1.3333333,43.254667,34.701333)" />
    <path
       id="path6"
       d="m 7.6302969,-2.1914609 c 0,-0.9609375 -0.8789063,-1.921875 -2.296875,-2.0742188 1.1367187,-0.2226562 1.9570312,-0.984375 1.9570312,-1.875 0,-1.03125 -1.0429687,-2.0273437 -2.6015625,-2.0273437 H 0.51701563 v 0.3515625 h 0.234375 c 0.86718747,0 0.90234377,0.1171875 0.90234377,0.5625 v 6.33984371 c 0,0.4453125 -0.035156,0.5625 -0.90234377,0.5625 h -0.234375 V -5.46875e-5 H 5.0052969 c 1.546875,0 2.625,-1.0429687125 2.625,-2.1914062125 z M 6.2357656,-6.1406797 c 0,0.7851563 -0.6210937,1.78125 -1.9453125,1.78125 h -1.734375 v -2.9765625 c 0,-0.3984375 0.023437,-0.4804687 0.5507813,-0.4804687 h 1.5117187 c 1.1953125,0 1.6171875,1.03125 1.6171875,1.6757812 z m 0.3046875,3.9375 c 0,0.9726563 -0.7265625,1.85156251 -1.8984375,1.85156251 H 3.1068594 c -0.5273438,0 -0.5507813,-0.0820313 -0.5507813,-0.46875 V -4.1250547 h 2.2382813 c 1.1484375,0 1.7460937,1.0078125 1.7460937,1.921875 z m 0,0"
       style="fill:#000000;fill-opacity:1;fill-rule:nonzero;stroke:none"
       aria-label="B"
       transform="matrix(1.3333333,0,0,1.3333333,33.365333,191.05867)" />
    <path
       id="path7"
       d="m 7.7929531,-2.7764453 c 0,-0.1289063 0,-0.1992188 -0.1289062,-0.1992188 -0.1171875,0 -0.1289063,0.058594 -0.1289063,0.140625 -0.1171875,1.89843754 -1.5,2.74218754 -2.6601562,2.74218754 -0.8320313,0 -3.1171875,-0.50390625 -3.1171875,-3.99609374 0,-3.4570313 2.25,-3.984375 3.1054687,-3.984375 1.2539063,0 2.3554688,1.0664062 2.5898438,2.859375 0.035156,0.1523437 0.035156,0.1875 0.1757812,0.1875 0.1640625,0 0.1640625,-0.035156 0.1640625,-0.28125 v -2.8359375 c 0,-0.2109375 0,-0.2695313 -0.1171875,-0.2695313 -0.070312,0 -0.082031,0.023437 -0.1523437,0.140625 l -0.5859375,0.9492188 c -0.5390625,-0.6679688 -1.359375,-1.0898438 -2.2148438,-1.0898438 -2.1914062,0 -4.07812498,1.8867188 -4.07812498,4.3242188 0,2.4726562 1.91015628,4.33593749 4.07812498,4.33593749 1.9570313,0 3.0703125,-1.69921879 3.0703125,-3.02343749 z m 0,0"
       style="fill:#000000;fill-opacity:1;fill-rule:nonzero;stroke:none"
       aria-label="C"
       transform="matrix(1.3333333,0,0,1.3333333,291.94533,191.39333)" />
    <path
       id="path8"
       d="M 4.6525078,10.220086 2.5431328,5.5677422 c -0.082031,-0.1875 -0.140625,-0.1875 -0.1757812,-0.1875 -0.011719,0 -0.070312,0 -0.1992188,0.09375 L 1.0314141,6.3411797 c -0.16406254,0.1171875 -0.16406254,0.1523437 -0.16406254,0.1875 0,0.058594 0.046875,0.1289062 0.12890625,0.1289062 0.0703125,0 0.26953129,-0.1640625 0.39843749,-0.2578125 0.070312,-0.058594 0.2578125,-0.1992187 0.3867188,-0.2929687 l 2.3554687,5.1796873 c 0.082031,0.1875 0.140625,0.1875 0.2460938,0.1875 0.1875,0 0.2226562,-0.07031 0.3046875,-0.234375 L 10.113445,0.00133594 c 0.08203,-0.1640625 0.08203,-0.2109375 0.08203,-0.234375 0,-0.12890625 -0.09375,-0.24609375 -0.2343754,-0.24609375 -0.09375,0 -0.1875,0.0585938 -0.28125,0.2578125 z m 0,0"
       style="fill:#000000;fill-opacity:1;fill-rule:nonzero;stroke:none"
       aria-label="√"
       transform="matrix(1.3333333,0,0,1.3333333,23.324,100.424)" />
    <path
       id="path9"
       d="m -25.208,-49.532 h 5.853"
       style="fill:none;stroke:#000000;stroke-width:0.4782;stroke-linecap:butt;stroke-linejoin:miter;stroke-miterlimit:10;stroke-dasharray:none;stroke-opacity:1"
       transform="matrix(1.3333333,0,0,-1.3333333,70.218667,34.061333)" />
    <path
       id="path10"
       d="m 2.2041562,-4.2888359 c -0.2109375,0.011719 -0.2578125,0.023437 -0.2578125,0.1289062 0,0.1171875 0.058594,0.1171875 0.28125,0.1171875 H 2.778375 c 1.0078125,0 1.4648437,0.84375 1.4648437,1.9921875 0,1.55859376 -0.8085937,1.98046876 -1.3945312,1.98046876 -0.5742188,0 -1.5585938,-0.28125 -1.8984375,-1.06640626 0.375,0.058594 0.7265625,-0.1523437 0.7265625,-0.5859375 0,-0.3398437 -0.2578125,-0.5859375 -0.5859375,-0.5859375 -0.29296875,0 -0.59765625,0.1640625 -0.59765625,0.6210938 0,1.06640621 1.06640625,1.93359371 2.39062495,1.93359371 1.4179688,0 2.4726563,-1.078125 2.4726563,-2.28515621 0,-1.1015625 -0.890625,-1.96875 -2.0273438,-2.1679688 1.03125,-0.3046875 1.6992188,-1.171875 1.6992188,-2.109375 0,-0.9375 -0.9726563,-1.6289062 -2.1328125,-1.6289062 -1.1953125,0 -2.0859375,0.7265625 -2.0859375,1.59375 0,0.4804687 0.375,0.5742187 0.5507812,0.5742187 0.2578125,0 0.5390625,-0.1757812 0.5390625,-0.5390625 0,-0.375 -0.28125,-0.5390625 -0.5507812,-0.5390625 -0.070312,0 -0.09375,0 -0.1289063,0.011719 0.4570313,-0.8203125 1.5820313,-0.8203125 1.640625,-0.8203125 0.3867188,0 1.171875,0.1757812 1.171875,1.3476562 0,0.234375 -0.035156,0.9023438 -0.3867187,1.4179688 C 3.294,-4.370867 2.8838437,-4.3357107 2.5557187,-4.323992 Z m 0,0"
       style="fill:#000000;fill-opacity:1;fill-rule:nonzero;stroke:none"
       aria-label="3"
       transform="matrix(1.3333333,0,0,1.3333333,36.608,113.54267)" />
    <path
       id="path11"
       d="M 5.2610391,-2.0052656 H 4.9915078 c -0.035156,0.1992187 -0.1289062,0.8554687 -0.2460937,1.04296873 -0.082031,0.1171875 -0.7617188,0.1171875 -1.125,0.1171875 H 1.4055703 c 0.328125,-0.28125003 1.0546875,-1.04296873 1.3710938,-1.33593753 1.8164062,-1.6640625 2.484375,-2.2851562 2.484375,-3.46875 0,-1.3828125 -1.0898438,-2.296875 -2.4726563,-2.296875 -1.3945312,0 -2.20312499,1.1835938 -2.20312499,2.203125 0,0.609375 0.52734379,0.609375 0.56249999,0.609375 0.2460938,0 0.5625,-0.1757812 0.5625,-0.5625 0,-0.328125 -0.234375,-0.5507812 -0.5625,-0.5507812 -0.1054687,0 -0.1289062,0 -0.16406249,0.011719 0.22265629,-0.8203125 0.86718749,-1.3710937 1.64062499,-1.3710937 1.0195313,0 1.640625,0.8554687 1.640625,1.9570312 0,1.0078125 -0.5859375,1.8984375 -1.265625,2.6601563 l -2.41406249,2.70703123 v 0.28125 H 4.9446328 Z m 0,0"
       style="fill:#000000;fill-opacity:1;fill-rule:nonzero;stroke:none"
       aria-label="2"
       transform="matrix(1.3333333,0,0,1.3333333,172.872,102.744)" />
  </g>
</svg>
