<svg xmlns="http://www.w3.org/2000/svg" width="184.94421pt" height="84.30402pt" viewBox="-72 -72 184.94421 84.30402" style="position: absolute; top: 0pt; left: 0pt; overflow: visible;">
<g transform="translate(-57.904052734374986,-1.6652526855468746)">
<g stroke-miterlimit="10" transform="scale(1,-1)"><g stroke="#000" fill="#000">
 <g stroke-width="0.4">
 <g stroke="#ccc" fill="#ccc">
 <path d=" M 0.0 0.0 L 78.24504 28.45274 L 113.81097 0.0 Z  " stroke="none"/>
 </g>
 <g stroke-width="0.8">
 <path d=" M 0.0 0.0 L 113.81097 0.0  " fill="none"/>
 </g>
 <g stroke-width="0.8">
 <path d=" M 113.81097 0.0 L 156.49008 56.90549  " fill="none"/>
 </g>
 <g stroke-width="0.8">
 <path d=" M 156.49008 56.90549 L 42.67911 56.90549  " fill="none"/>
 </g>
 <g stroke-width="0.8">
 <path d=" M 42.67911 56.90549 L 0.0 0.0  " fill="none"/>
 </g>
 <g stroke-width="0.8">
 <path d=" M 0.0 0.0 L 156.49008 56.90549  " fill="none"/>
 </g>
 <g stroke-width="0.8">
 <path d=" M 42.67911 56.90549 L 113.81097 0.0  " fill="none"/>
 </g>
 <g transform="translate(-11.03297,-10.36629)">
 <g stroke="none" transform="scale(-1.00375,1.00375)translate(-54.57072448730467,-1.6652526855468746)scale(-1,-1)"><g fill="#000">
 <g stroke="none"> <text alignment-baseline="baseline" y="-1.6652526855468746" x="-54.57072448730467" style="font-family: cmr10;" font-size="10">A</text>
</g> </g>
 </g></g>
 <g transform="translate(117.34395,-10.36629)">
 <g stroke="none" transform="scale(-1.00375,1.00375)translate(-54.57072448730467,-1.6652526855468746)scale(-1,-1)"><g fill="#000">
 <g stroke="none"> <text alignment-baseline="baseline" y="-1.6652526855468746" x="-54.57072448730467" style="font-family: cmr10;" font-size="10">B</text>
</g> </g>
 </g></g>
 <g transform="translate(160.02306,60.43846)">
 <g stroke="none" transform="scale(-1.00375,1.00375)translate(-54.57072448730467,-1.6652526855468746)scale(-1,-1)"><g fill="#000">
 <g stroke="none"> <text alignment-baseline="baseline" y="-1.6652526855468746" x="-54.57072448730467" style="font-family: cmr10;" font-size="10">C</text>
</g> </g>
 </g></g>
 <g transform="translate(31.50725,60.43846)">
 <g stroke="none" transform="scale(-1.00375,1.00375)translate(-54.57072448730467,-1.6652526855468746)scale(-1,-1)"><g fill="#000">
 <g stroke="none"> <text alignment-baseline="baseline" y="-1.6652526855468746" x="-54.57072448730467" style="font-family: cmr10;" font-size="10">D</text>
</g> </g>
 </g></g>
 <g transform="translate(74.35614,31.98572)">
 <g stroke="none" transform="scale(-1.00375,1.00375)translate(-54.57072448730467,-1.6652526855468746)scale(-1,-1)"><g fill="#000">
 <g stroke="none"> <text alignment-baseline="baseline" y="-1.6652526855468746" x="-54.57072448730467" style="font-family: cmr10;" font-size="10">O</text>
</g> </g>
 </g></g>
 <g transform="translate(32.26137,22.38507)">
 <g stroke="none" transform="scale(-1.00375,1.00375)translate(-54.57072448730467,-1.6652526855468746)scale(-1,-1)"><g fill="#000">
 <g stroke="none"> <text alignment-baseline="baseline" y="-1.6652526855468746" x="-54.57072448730467" style="font-family: cmr10;" font-size="10">4</text>
<text alignment-baseline="baseline" y="-1.6652526855468746" x="-46.23737716674804" style="font-family: cmr10;" font-size="10">cm</text>
</g> </g>
 </g></g>
 <g transform="translate(94.58167,17.75934)">
 <g stroke="none" transform="scale(-1.00375,1.00375)translate(-54.57072448730467,-1.6652526855468746)scale(-1,-1)"><g fill="#000">
 <g stroke="none"> <text alignment-baseline="baseline" y="-1.6652526855468746" x="-54.57072448730467" style="font-family: cmr10;" font-size="10">3cm</text>
</g> </g>
 </g></g>
 </g>
 </g>
 </g></g></svg>