<svg xmlns="http://www.w3.org/2000/svg" width="126.90036pt" height="141.20949pt" viewBox="-72 -72 126.90036 141.20949" style="position: absolute; top: 0pt; left: 0pt; overflow: visible;">
<g transform="translate(-8.680938720703123,12.561111450195309)">
<g stroke-miterlimit="10" transform="scale(1,-1)"><g stroke="#000" fill="#000">
 <g stroke-width="0.4">
 <g stroke-width="0.8">
 <path d=" M 0.0 14.22636 M 56.90549 14.22636 C 56.90549 45.6548 31.42844 71.13185 0.0 71.13185 C -31.42844 71.13185 -56.90549 45.6548 -56.90549 14.22636 C -56.90549 -17.20207 -31.42844 -42.67912 0.0 -42.67912 C 31.42844 -42.67912 56.90549 -17.20207 56.90549 14.22636 Z M 0.0 14.22636  " fill="none"/>
 </g>
 <g stroke-width="0.8">
 <path d=" M -49.22311 -14.22636 L 0.0 71.13185  " fill="none"/>
 </g>
 <g stroke-width="0.8">
 <path d=" M 0.0 71.13185 L 49.22311 -14.22636  " fill="none"/>
 </g>
 <g stroke-width="0.8">
 <path d=" M 49.22311 -14.22636 L 0.0 -42.67911  " fill="none"/>
 </g>
 <g stroke-width="0.8">
 <path d=" M 0.0 -42.67911 L -49.22311 -14.22636  " fill="none"/>
 </g>
 <g stroke-width="0.8">
 <path d=" M -49.22311 -14.22636 L 49.22311 -14.22636  " fill="none"/>
 </g>
 <g stroke-width="0.8">
 <path d=" M 0.0 14.22636 L -49.22311 -14.22636  " fill="none"/>
 </g>
 <g stroke-width="0.8">
 <path d=" M 0.0 14.22636 L 49.22311 -14.22636  " fill="none"/>
 </g>
 <path d=" M 0.0 14.22636 M 2.0 14.22636 C 2.0 15.33095 1.10458 16.22636 0.0 16.22636 C -1.10458 16.22636 -2.0 15.33095 -2.0 14.22636 C -2.0 13.12178 -1.10458 12.22636 0.0 12.22636 C 1.10458 12.22636 2.0 13.12178 2.0 14.22636 Z M 0.0 14.22636  " stroke="none"/>
 <path d=" M 0.0 14.22636 M -14.78426 5.69046 C -10.07008 -2.47475 0.3711 -5.27246 8.5363 -0.55829 C 11.13083 0.93954 13.28722 3.09593 14.78505 5.69046  " fill="none"/>
 <g transform="translate(-3.81944,74.66483)">
 <g stroke="none" transform="scale(-1.00375,1.00375)translate(-5.347610473632812,12.561111450195309)scale(-1,-1)"><g fill="#000">
 <g stroke="none"> <text alignment-baseline="baseline" y="12.561111450195309" x="-5.347610473632812" style="font-family: cmr10;" font-size="10">D</text>
</g> </g>
 </g></g>
 <g transform="translate(-60.25609,-24.59265)">
 <g stroke="none" transform="scale(-1.00375,1.00375)translate(-5.347610473632812,12.561111450195309)scale(-1,-1)"><g fill="#000">
 <g stroke="none"> <text alignment-baseline="baseline" y="12.561111450195309" x="-5.347610473632812" style="font-family: cmr10;" font-size="10">A</text>
</g> </g>
 </g></g>
 <g transform="translate(-3.54167,-53.0454)">
 <g stroke="none" transform="scale(-1.00375,1.00375)translate(-5.347610473632812,12.561111450195309)scale(-1,-1)"><g fill="#000">
 <g stroke="none"> <text alignment-baseline="baseline" y="12.561111450195309" x="-5.347610473632812" style="font-family: cmr10;" font-size="10">B</text>
</g> </g>
 </g></g>
 <g transform="translate(52.75609,-24.59265)">
 <g stroke="none" transform="scale(-1.00375,1.00375)translate(-5.347610473632812,12.561111450195309)scale(-1,-1)"><g fill="#000">
 <g stroke="none"> <text alignment-baseline="baseline" y="12.561111450195309" x="-5.347610473632812" style="font-family: cmr10;" font-size="10">C</text>
</g> </g>
 </g></g>
 <g transform="translate(-3.8889,26.29524)">
 <g stroke="none" transform="scale(-1.00375,1.00375)translate(-5.347610473632812,12.561111450195309)scale(-1,-1)"><g fill="#000">
 <g stroke="none"> <text alignment-baseline="baseline" y="12.561111450195309" x="-5.347610473632812" style="font-family: cmr10;" font-size="10">O</text>
</g> </g>
 </g></g>
 <g transform="translate(-7.29863,2.24753)">
 <g stroke="none" transform="scale(-1.00375,1.00375)translate(-5.347610473632812,12.561111450195309)scale(-1,-1)"><g fill="#000">
 <g stroke="none"> <text alignment-baseline="baseline" y="12.561111450195309" x="-5.347610473632812" style="font-family: cmr10;" font-size="10">86</text>
<text alignment-baseline="baseline" y="8.932189941406248" x="4.652427673339843" style="font-family: cmsy7;" font-size="7">◦</text>
</g> </g>
 </g></g>
 </g>
 </g>
 </g></g></svg>