<svg xmlns="http://www.w3.org/2000/svg" width="142.6818pt" height="114.70119pt" viewBox="-72 -72 142.6818 114.70119" style="position: absolute; top: 0pt; left: 0pt; overflow: visible;">
<g transform="translate(-57.62625122070311,26.787490844726555)">
<g stroke-miterlimit="10" transform="scale(1,-1)"><g stroke="#000" fill="#000">
 <g stroke-width="0.4">
 <g stroke-width="0.8">
 <path d=" M 56.90549 85.35823 L 0.0 0.0  " fill="none"/>
 </g>
 <g stroke-width="0.8">
 <path d=" M 0.0 0.0 L 113.81097 0.0  " fill="none"/>
 </g>
 <g stroke-width="0.8">
 <path d=" M 113.81097 0.0 L 56.90549 85.35823  " fill="none"/>
 </g>
 <g stroke-width="0.8">
 <path d=" M 56.90549 85.35823 L 56.90549 0.0  " fill="none"/>
 </g>
 <g transform="translate(53.5027,88.8912)">
 <g stroke="none" transform="scale(-1.00375,1.00375)translate(-54.2929229736328,26.787490844726555)scale(-1,-1)"><g fill="#000">
 <g stroke="none"> <text alignment-baseline="baseline" y="26.787490844726555" x="-54.2929229736328" style="font-family: cmr10;" font-size="10">P</text>
</g> </g>
 </g></g>
 <g transform="translate(-11.31078,-10.36629)">
 <g stroke="none" transform="scale(-1.00375,1.00375)translate(-54.2929229736328,26.787490844726555)scale(-1,-1)"><g fill="#000">
 <g stroke="none"> <text alignment-baseline="baseline" y="26.787490844726555" x="-54.2929229736328" style="font-family: cmr10;" font-size="10">Q</text>
</g> </g>
 </g></g>
 <g transform="translate(117.34395,-10.36629)">
 <g stroke="none" transform="scale(-1.00375,1.00375)translate(-54.2929229736328,26.787490844726555)scale(-1,-1)"><g fill="#000">
 <g stroke="none"> <text alignment-baseline="baseline" y="26.787490844726555" x="-54.2929229736328" style="font-family: cmr10;" font-size="10">R</text>
</g> </g>
 </g></g>
 <g transform="translate(54.1277,-10.36629)">
 <g stroke="none" transform="scale(-1.00375,1.00375)translate(-54.2929229736328,26.787490844726555)scale(-1,-1)"><g fill="#000">
 <g stroke="none"> <text alignment-baseline="baseline" y="26.787490844726555" x="-54.2929229736328" style="font-family: cmr10;" font-size="10">S</text>
</g> </g>
 </g></g>
 <g transform="translate(3.80862,51.90254)">
 <g stroke="none" transform="scale(-1.00375,1.00375)translate(-54.2929229736328,26.787490844726555)scale(-1,-1)"><g fill="#000">
 <g stroke="none"> <text alignment-baseline="baseline" y="26.787490844726555" x="-54.2929229736328" style="font-family: cmr10;" font-size="10">4</text>
<text alignment-baseline="baseline" y="26.787490844726555" x="-45.959575653076165" style="font-family: cmr10;" font-size="10">cm</text>
</g> </g>
 </g></g>
 </g>
 </g>
 </g></g></svg>