<?xml version="1.0" encoding="UTF-8" standalone="no"?>
<!-- Created with Inkscape (http://www.inkscape.org/) -->

<svg
   version="1.1"
   id="svg1"
   width="545.4267"
   height="85.546669"
   viewBox="0 0 545.4267 85.546669"
   sodipodi:docname="upload_qeaa6kwqxhyrrf2asheuim6sod.pdf"
   xmlns:inkscape="http://www.inkscape.org/namespaces/inkscape"
   xmlns:sodipodi="http://sodipodi.sourceforge.net/DTD/sodipodi-0.dtd"
   xmlns="http://www.w3.org/2000/svg"
   xmlns:svg="http://www.w3.org/2000/svg">
  <defs
     id="defs1" />
  <sodipodi:namedview
     id="namedview1"
     pagecolor="#ffffff"
     bordercolor="#000000"
     borderopacity="0.25"
     inkscape:showpageshadow="2"
     inkscape:pageopacity="0.0"
     inkscape:pagecheckerboard="0"
     inkscape:deskcolor="#d1d1d1">
    <inkscape:page
       x="0"
       y="0"
       inkscape:label="1"
       id="page1"
       width="545.4267"
       height="85.546669"
       margin="0"
       bleed="0" />
  </sodipodi:namedview>
  <g
     id="g1"
     inkscape:groupmode="layer"
     inkscape:label="1">
    <path
       id="path1"
       d="M -59.467,61.838 H 327.104"
       style="fill:none;stroke:#000000;stroke-width:0.3985;stroke-linecap:butt;stroke-linejoin:miter;stroke-miterlimit:10;stroke-dasharray:none;stroke-opacity:1"
       transform="matrix(1.3333333,0,0,-1.3333333,96,96.001333)" />
    <path
       id="path2"
       d="M -59.268,40.12 V 61.639"
       style="fill:none;stroke:#000000;stroke-width:0.3985;stroke-linecap:butt;stroke-linejoin:miter;stroke-miterlimit:10;stroke-dasharray:none;stroke-opacity:1"
       transform="matrix(1.3333333,0,0,-1.3333333,96,96.001333)" />
    <path
       id="path3"
       d="m 5.6945156,0.12966406 -0.46875,-0.36328125 C 5.0617031,-0.49142969 4.9005703,-0.65842187 4.7452969,-0.73752344 4.5870937,-0.82248437 4.387875,-0.86642969 4.1476406,-0.86642969 c -0.234375,0 -0.4511719,0.0117188 -0.6445312,0.0351563 -0.1875,0.0234375 -0.3808594,0.046875 -0.5742188,0.0703125 -0.1875,0.0234375 -0.4072265,0.0351563 -0.65625,0.0351563 -0.3134765,0 -0.6064453,-0.0585938 -0.8789062,-0.17578125 C 1.1183437,-1.0187734 0.90154687,-1.2121328 0.73748437,-1.4875234 c -0.15820312,-0.28125 -0.234375,-0.6591797 -0.234375,-1.1367188 0,-0.1933594 0.0117188,-0.3808594 0.0351563,-0.5625 0.0234375,-0.1875 0.0527344,-0.3544922 0.09375,-0.5039062 l 0.43359373,0.1054687 c -0.023437,0.1113281 -0.046875,0.2314453 -0.0703125,0.3632813 -0.0234375,0.1347656 -0.0351563,0.28125 -0.0351563,0.4453125 0,0.4160156 0.12890625,0.711914 0.38671875,0.890625 0.2636718,0.1728515 0.5888672,0.2578125 0.9726562,0.2578125 0.2578125,0 0.4716797,-0.00586 0.6445313,-0.023437 0.1699218,-0.023437 0.328125,-0.041016 0.46875,-0.058594 0.1464843,-0.014648 0.3046875,-0.023437 0.46875,-0.023437 0.3105468,0 0.5654297,0.070312 0.7617187,0.2109375 0.1933594,0.1347656 0.3896485,0.3720703 0.5859375,0.71484376 -0.017578,-0.16992187 -0.029297,-0.34277346 -0.035156,-0.51562496 0,-0.1699219 0,-0.3427735 0,-0.515625 v -1.640625 c -0.079102,-0.1552743 -0.152344,-0.3046883 -0.2226565,-0.4453133 -0.070312,-0.1464844 -0.140625,-0.28125 -0.2109375,-0.3984375 l -2.0976562,2.1445312 -0.65625,-0.5976562 c 0.1552734,-0.1083985 0.2871093,-0.2285157 0.3984375,-0.3632813 0.1083984,-0.140625 0.1640625,-0.3164062 0.1640625,-0.5273437 0,-0.1699219 -0.052734,-0.2958985 -0.1523438,-0.375 -0.09375,-0.076172 -0.2080078,-0.1171875 -0.3398437,-0.1171875 -0.140625,0 -0.2578125,0.023437 -0.3515625,0.070312 -0.087891,0.041016 -0.1757813,0.09082 -0.2695313,0.1523437 l -0.65624998,-0.679687 c 0.31933598,-0.5302734 0.66796878,-0.9375 1.04296878,-1.21875 0.3808593,-0.2871094 0.7763672,-0.4335937 1.1835937,-0.4335937 0.46875,0 0.8701172,0.1699218 1.2070313,0.5039062 0.3339843,0.3369141 0.6679687,0.8525391 0.9960937,1.546875 -0.017578,-0.2167969 -0.029297,-0.4130859 -0.035156,-0.5859375 0,-0.1699219 0,-0.3662109 0,-0.5859375 v -1.546875 l 0.035156,-0.011719 0.4570313,0.328125 0.035156,0.421875 h 0.7382813 l 0.3515625,0.515625 H 5.7413906 V 0.11794531 Z M 2.9640469,-3.7492422 c 0,0.046875 -0.00586,0.09375 -0.011719,0.140625 l 1.3359375,-1.40625 c -0.290039,-0.3105469 -0.6298828,-0.46875 -1.0195312,-0.46875 -0.2109375,0 -0.4072266,0.064453 -0.5859375,0.1875 -0.1728516,0.1171875 -0.3515625,0.3134766 -0.5390625,0.5859375 0.2490234,0 0.4482422,0.09082 0.5976562,0.2695313 0.1464844,0.1816406 0.2226563,0.4101562 0.2226565,0.6914062 z M 7.8449062,0.24685156 7.341,-0.03439844 V -4.6984609 C 7.2853359,-4.9709219 7.2033047,-5.2023672 7.0949062,-5.3898672 6.9923672,-5.5832266 6.8429531,-5.6828359 6.6495937,-5.6828359 h -0.070312 l -0.328125,-0.515625 H 6.637875 c 0.1318359,0 0.2636719,0.058594 0.3984375,0.1757812 0.140625,0.1113281 0.2519531,0.2900391 0.3398437,0.5390625 -0.00879,-0.140625 -0.017578,-0.2724609 -0.023437,-0.3984375 C 7.3439297,-6.0051016 7.341,-6.0959219 7.341,-6.1515859 v -0.7851563 l 0.035156,-0.011719 0.46875,0.328125 0.035156,0.421875 h 0.7382812 l 0.3515625,0.515625 H 7.8800625 V 0.23513281 Z M 11.712094,-2.1789297 11.067562,-2.7765859 c 0.155274,-0.1083985 0.28711,-0.2285157 0.398438,-0.3632813 0.108398,-0.140625 0.164062,-0.3164062 0.164062,-0.5273437 0,-0.1699219 -0.05273,-0.2958985 -0.152343,-0.375 -0.102539,-0.076172 -0.216797,-0.1171875 -0.339844,-0.1171875 -0.149414,0 -0.269531,0.023437 -0.363281,0.070312 -0.08789,0.041016 -0.175782,0.09082 -0.269532,0.1523437 l -0.6562495,-0.679687 c 0.3193355,-0.5302734 0.6708985,-0.9375 1.0546875,-1.21875 0.380859,-0.2871094 0.776367,-0.4335937 1.183594,-0.4335937 0.459961,0 0.881836,0.1757812 1.265625,0.5273437 0.389648,0.3457031 0.703125,0.8994141 0.9375,1.6640625 -0.01758,-0.2871094 -0.0293,-0.5097656 -0.03516,-0.6679687 -0.0088,-0.1640625 -0.01172,-0.3105469 -0.01172,-0.4453125 v -1.7460938 l 0.04687,-0.011719 0.457031,0.328125 0.03516,0.421875 h 0.984375 l 0.351563,0.515625 H 14.7824 v 3.0234375 c 0.333985,0.1113281 0.580078,0.3017578 0.738281,0.5742187 0.164063,0.2753906 0.246094,0.5917969 0.246094,0.9492188 0,0.53906246 -0.161133,0.95507809 -0.480469,1.24218746 -0.322265,0.29589844 -0.785156,0.4453125 -1.394531,0.4453125 -0.75,0 -1.450195,-0.23144531 -2.097656,-0.69140625 C 11.152517,-0.59982842 10.578299,-1.2472894 10.071463,-2.08518 9.5616971,-2.92893 9.1339627,-3.9074456 8.7824002,-5.0265862 l 0.3984375,-0.1171875 c 0.3515625,1.0078125 0.7675782,1.875 1.2539063,2.6015625 0.492187,0.7207031 1.03125,1.274414 1.617187,1.66406246 0.585938,0.38378907 1.198243,0.57421875 1.839844,0.57421875 0.451172,0 0.796875,-0.0820313 1.03125,-0.24609375 0.240235,-0.1640625 0.363281,-0.40429687 0.363281,-0.72656246 0,-0.28125 -0.07031,-0.4863282 -0.210937,-0.6210938 -0.134766,-0.1318359 -0.292969,-0.2050781 -0.480469,-0.2226562 0.01465,0.070312 0.02344,0.1464843 0.02344,0.2226562 0,0.1962891 -0.06445,0.3691406 -0.1875,0.515625 -0.125977,0.1494141 -0.313477,0.2226563 -0.5625,0.2226563 -0.257813,0 -0.462891,-0.070312 -0.609375,-0.2109375 -0.140625,-0.1464844 -0.210938,-0.3339844 -0.210938,-0.5625 0,-0.2636719 0.105469,-0.46875 0.316406,-0.609375 0.210938,-0.140625 0.459961,-0.2109375 0.75,-0.2109375 0.0293,0 0.06152,0 0.09375,0 -0.05566,-0.3105469 -0.123046,-0.5888672 -0.199218,-0.8320313 -0.0791,-0.2402344 -0.164063,-0.4628906 -0.257813,-0.6679687 z m 0.292968,-1.5703125 c 0,0.046875 -0.0059,0.09375 -0.01172,0.140625 l 1.289062,-1.3476562 c -0.164062,-0.1875 -0.328125,-0.319336 -0.492187,-0.3984375 -0.164063,-0.084961 -0.313477,-0.1289063 -0.445313,-0.1289063 -0.219726,0 -0.421875,0.064453 -0.609375,0.1875 -0.1875,0.1171875 -0.375,0.3134766 -0.5625,0.5859375 0.257813,0 0.459961,0.09082 0.609375,0.2695313 0.146485,0.1816406 0.222656,0.4101562 0.222656,0.6914062 z m 10.766602,3.87890626 -0.421875,-0.33984375 c -0.01758,-0.328125 -0.06738,-0.66796875 -0.152344,-1.01953121 -0.0791,-0.3515625 -0.196289,-0.6738282 -0.351562,-0.9726563 -0.149414,-0.3046875 -0.325196,-0.5537109 -0.527344,-0.75 -0.196289,-0.1933594 -0.416016,-0.3046875 -0.65625,-0.328125 0.03809,0.1113281 0.05859,0.2314453 0.05859,0.3632813 0,0.2578125 -0.0791,0.46875 -0.234375,0.6328125 -0.158203,0.1640625 -0.38086,0.2460937 -0.667969,0.2460937 -0.351562,0 -0.615234,-0.099609 -0.785156,-0.3046875 -0.172852,-0.2109375 -0.257813,-0.4628906 -0.257813,-0.7617187 0,-0.3339844 0.108399,-0.600586 0.328125,-0.796875 0.225586,-0.1933594 0.521485,-0.2929688 0.890625,-0.2929688 0.404297,0 0.764649,0.1025391 1.078125,0.3046875 0.310547,0.1962891 0.574219,0.4570313 0.785157,0.7851563 0.210937,0.328125 0.36621,0.6855468 0.46875,1.0664062 -0.0088,-0.1875 -0.01758,-0.3867187 -0.02344,-0.5976562 -0.0088,-0.2109375 -0.01172,-0.4101563 -0.01172,-0.5976563 v -2.4492187 h -3.84375 l -0.339843,-0.515625 h 5.460937 l 0.339844,0.515625 h -1.089844 v 5.80078121 z m 5.337891,-0.0234375 -0.46875,-0.375 C 27.303891,-0.62619531 26.952328,-0.88400781 26.586117,-1.0422109 26.216977,-1.2062734 25.803891,-1.3117422 25.34393,-1.3586172 l -0.480469,-1.03125 c 0.310547,-0.1875 0.632812,-0.3691406 0.960937,-0.5507812 0.333985,-0.1875 0.673829,-0.3574219 1.019532,-0.515625 -0.205078,-0.140625 -0.38086,-0.2958985 -0.527344,-0.46875 -0.140625,-0.178711 -0.313477,-0.3076172 -0.515625,-0.3867188 0.0059,0.055664 0.01172,0.1113281 0.01172,0.1640625 0,0.28125 -0.07617,0.5097656 -0.222657,0.6796875 -0.149414,0.1640625 -0.360351,0.2460938 -0.632812,0.2460938 -0.28125,0 -0.500977,-0.084961 -0.65625,-0.2578125 -0.149414,-0.1699219 -0.222656,-0.3808594 -0.222656,-0.6328125 0,-0.272461 0.08203,-0.4951172 0.246093,-0.6679688 0.169922,-0.1699219 0.421875,-0.2578125 0.75,-0.2578125 -0.08789,-0.140625 -0.199218,-0.2607422 -0.339843,-0.3632812 -0.134766,-0.1083985 -0.275391,-0.2021485 -0.421875,-0.28125 h -0.644532 l -0.339843,-0.515625 h 5.882812 l 0.339844,0.515625 h -1.242188 c 0.123047,0.1816406 0.222657,0.3720703 0.292969,0.5742187 0.07031,0.1962891 0.105469,0.4101563 0.105469,0.6445313 0,0.2753906 -0.05273,0.5097656 -0.152344,0.703125 -0.09375,0.1875 -0.222656,0.328125 -0.386719,0.421875 v 3.43359371 z m -0.03516,-4.92187496 c 0,-0.178711 -0.03223,-0.3427735 -0.09375,-0.4921875 -0.06445,-0.1552735 -0.134765,-0.28125 -0.210937,-0.375 h -2.660156 c 0.08496,0.087891 0.175781,0.1933593 0.269531,0.3164062 0.09375,0.1171875 0.175781,0.2578125 0.246094,0.421875 0.234375,0.079102 0.439453,0.1875 0.621093,0.328125 0.178711,0.1347656 0.357422,0.2578125 0.539063,0.375 0.178711,0.1113281 0.386719,0.1640625 0.621094,0.1640625 0.202148,0 0.363281,-0.052734 0.480468,-0.1640625 0.123047,-0.1171875 0.1875,-0.3076172 0.1875,-0.5742187 z m -2.144531,2.8359375 c 0.28125,0.070312 0.56836,0.1933593 0.867188,0.3632812 0.295898,0.1728516 0.574218,0.4160156 0.832031,0.72656251 V -2.9523672 c -0.275391,0.1259766 -0.568359,0.2783203 -0.878906,0.4570313 -0.304688,0.1816406 -0.580078,0.3515625 -0.820313,0.515625 z m 7.573242,2.10937496 -0.46875,-0.36328125 c -0.360351,-0.60058593 -0.796875,-1.08105471 -1.3125,-1.44140621 -0.515625,-0.3574219 -1.11914,-0.5800782 -1.804687,-0.6679688 l -0.410156,-1.125 c 0.591796,-0.3808594 1.163086,-0.7060547 1.710937,-0.9726562 0.544922,-0.272461 1.142578,-0.5273438 1.792969,-0.7617188 v -0.4804687 h -3.703125 l -0.339844,-0.515625 h 5.332031 l 0.339844,0.515625 H 33.549984 V 0.11794531 Z M 30.514828,-3.0343984 c 0.427734,0.140625 0.867188,0.3691406 1.3125,0.6796875 0.445313,0.3134765 0.837891,0.7675781 1.183594,1.35937496 V -4.2883047 c -0.430664,0.1640625 -0.861328,0.3515625 -1.289063,0.5625 -0.430664,0.2050781 -0.832031,0.4335938 -1.207031,0.6914063 z m 0.773438,2.96484371 c -0.172852,0 -0.322266,-0.05273437 -0.445313,-0.1640625 -0.125976,-0.1171875 -0.1875,-0.26367187 -0.1875,-0.4453125 0,-0.1875 0.05859,-0.33398441 0.175781,-0.44531251 0.123047,-0.1083984 0.275391,-0.1640625 0.457032,-0.1640625 0.169921,0 0.316406,0.055664 0.433593,0.1640625 0.123047,0.1113281 0.1875,0.25781251 0.1875,0.44531251 0,0.1875 -0.06445,0.33691407 -0.1875,0.4453125 -0.125976,0.11132813 -0.269531,0.1640625 -0.433593,0.1640625 z m 0,0"
       style="fill:#000000;fill-opacity:1;fill-rule:nonzero;stroke:none"
       aria-label="পাপনমর"
       transform="matrix(1.3333333,0,0,1.3333333,25.212,33.901333)" />
    <path
       id="path4"
       d="M -12.563,40.12 V 61.639"
       style="fill:none;stroke:#000000;stroke-width:0.3985;stroke-linecap:butt;stroke-linejoin:miter;stroke-miterlimit:10;stroke-dasharray:none;stroke-opacity:1"
       transform="matrix(1.3333333,0,0,-1.3333333,96,96.001333)" />
    <path
       id="path5"
       d="m 2.4250625,0.10622656 c -0.4863281,0 -0.8642578,-0.05566406 -1.1367188,-0.1640625 -0.2753906,-0.10839843 -0.46582026,-0.24023437 -0.5742187,-0.3984375 -0.11132813,-0.15527343 -0.1640625,-0.3046875 -0.1640625,-0.4453125 0,-0.18749996 0.0498047,-0.33105466 0.15234375,-0.43359376 0.0996094,-0.1083984 0.2578125,-0.1640625 0.46874995,-0.1640625 0,0.2900391 0.09668,0.53320314 0.2929688,0.72656251 0.2021484,0.1875 0.5068359,0.28125 0.9140625,0.28125 0.2724609,0 0.515625,-0.0498047 0.7265625,-0.15234375 0.2167969,-0.10839843 0.3896484,-0.28417968 0.515625,-0.52734376 0.1230469,-0.2490234 0.1875,-0.5800781 0.1875,-0.9960937 0,-0.5214844 -0.140625,-0.9140625 -0.421875,-1.171875 -0.2753906,-0.2578125 -0.6386719,-0.3867188 -1.0898438,-0.3867188 -0.3515625,0 -0.6152343,0.023437 -0.7851562,0.070312 -0.1728516,0.046875 -0.3222656,0.099609 -0.4453125,0.1523438 l -0.234375,-0.070312 0.3164062,-3.5390625 h 3.328125 l 0.046875,1.5 H 4.1008437 L 4.0656875,-5.9054922 C 4.04225,-6.0461172 3.9983047,-6.1457266 3.9367812,-6.2101797 3.8723281,-6.2804922 3.7375625,-6.3156484 3.526625,-6.3156484 H 1.5930312 l -0.1875,2.203125 c 0.099609,-0.029297 0.2460938,-0.064453 0.4335938,-0.1054688 0.1933594,-0.038086 0.4365234,-0.058594 0.7265625,-0.058594 0.4365234,0 0.8232422,0.079102 1.1601562,0.234375 0.3427735,0.1582031 0.6123047,0.3925781 0.8085938,0.703125 0.2021484,0.3046875 0.3046875,0.6972656 0.3046875,1.171875 0,0.4453125 -0.09375,0.8408203 -0.28125,1.18359371 -0.1875,0.34570313 -0.4628906,0.61523438 -0.8203125,0.80859375 -0.3603516,0.18457032 -0.796875,0.28125 -1.3125,0.2812503 z m 5.9326172,0 c -0.5478516,0 -0.9931641,-0.15234375 -1.3359375,-0.45703125 C 6.6760391,-0.66135156 6.4240859,-1.0920156 6.2600234,-1.6398672 6.0959609,-2.1935781 6.0139297,-2.8381094 6.0139297,-3.5734609 c 0,-0.741211 0.082031,-1.3828125 0.2460937,-1.921875 0.1640625,-0.5449219 0.4160157,-0.9667969 0.7617188,-1.265625 0.3427734,-0.2958985 0.7910156,-0.4453125 1.3476562,-0.4453125 0.515625,0 0.9433594,0.149414 1.2890625,0.4453125 0.3515621,0.2988281 0.6093751,0.7207031 0.7734371,1.265625 0.169922,0.5478515 0.257813,1.1923828 0.257813,1.9335937 0,0.7353516 -0.08789,1.3769531 -0.257813,1.921875 -0.172851,0.5478516 -0.430664,0.97851564 -0.7734371,1.28906251 -0.3457031,0.3046875 -0.7792968,0.45703125 -1.3007812,0.45703125 z m 0,-0.5390625 c 0.4833984,0 0.8203125,-0.27539062 1.0078125,-0.83203126 0.1933594,-0.5537109 0.2929687,-1.3183594 0.2929687,-2.296875 0,-0.9902344 -0.099609,-1.7578125 -0.2929687,-2.296875 -0.1875,-0.5449219 -0.5214844,-0.8203125 -0.9960938,-0.8203125 -0.4863281,0 -0.8261718,0.2753906 -1.0195312,0.8203125 -0.1962891,0.5390625 -0.2929688,1.3066406 -0.2929688,2.296875 0,0.9785156 0.09375,1.7431641 0.28125,2.296875 0.1933594,0.55664064 0.5332032,0.83203126 1.0195313,0.83203126 z M 11.372328,-2.3547109 v -0.7148438 h 2.601563 v 0.7148438 z m 5.279297,2.46093746 c -0.486328,0 -0.864258,-0.05566406 -1.136719,-0.1640625 -0.27539,-0.10839843 -0.46582,-0.24023437 -0.574219,-0.3984375 -0.111328,-0.15527343 -0.164062,-0.3046875 -0.164062,-0.4453125 0,-0.18749996 0.04981,-0.33105466 0.152344,-0.43359376 0.09961,-0.1083984 0.257812,-0.1640625 0.46875,-0.1640625 0,0.2900391 0.09668,0.53320314 0.292968,0.72656251 0.202149,0.1875 0.506836,0.28125 0.914063,0.28125 0.272461,0 0.515625,-0.0498047 0.726562,-0.15234375 0.216797,-0.10839843 0.389649,-0.28417968 0.515625,-0.52734376 0.123047,-0.2490234 0.1875,-0.5800781 0.1875,-0.9960937 0,-0.5214844 -0.140625,-0.9140625 -0.421875,-1.171875 -0.27539,-0.2578125 -0.638671,-0.3867188 -1.089843,-0.3867188 -0.351563,0 -0.615235,0.023437 -0.785157,0.070312 -0.172851,0.046875 -0.322265,0.099609 -0.445312,0.1523438 l -0.234375,-0.070312 0.316406,-3.5390625 h 3.328125 l 0.04687,1.5 h -0.421875 l -0.03516,-0.2929688 c -0.02344,-0.140625 -0.06738,-0.2402344 -0.128906,-0.3046875 -0.06445,-0.070312 -0.199219,-0.1054687 -0.410157,-0.1054687 h -1.933593 l -0.1875,2.203125 c 0.09961,-0.029297 0.246093,-0.064453 0.433593,-0.1054688 0.19336,-0.038086 0.436524,-0.058594 0.726563,-0.058594 0.436523,0 0.823242,0.079102 1.160156,0.234375 0.342774,0.1582031 0.612305,0.3925781 0.808594,0.703125 0.202148,0.3046875 0.304687,0.6972656 0.304687,1.171875 0,0.4453125 -0.09375,0.8408203 -0.28125,1.18359371 -0.1875,0.34570313 -0.46289,0.61523438 -0.820312,0.80859375 -0.360352,0.18457032 -0.796875,0.28125 -1.3125,0.28125 z M 21.939711,7.578125e-4 V -0.42111719 h 0.28125 c 0.216797,0 0.404297,-0.0380859 0.5625,-0.1171875 0.164062,-0.0849609 0.246094,-0.28417968 0.246094,-0.59765621 v -0.8203125 h -3.070313 v -0.3984375 l 3.082031,-4.7578125 h 0.949219 v 4.6054687 h 1.230469 v 0.5507813 h -1.230469 v 0.8203125 c 0,0.31347653 0.07617,0.51269528 0.234375,0.59765621 0.164063,0.0791016 0.357422,0.1171875 0.585938,0.1171875 h 0.128906 V 7.578125e-4 Z M 20.685805,-2.5070547 h 2.34375 v -1.8398437 c 0,-0.1933594 0,-0.413086 0,-0.65625 0.0059,-0.2402344 0.01758,-0.4833985 0.03516,-0.7265625 0.01465,-0.2490235 0.02637,-0.4746094 0.03516,-0.6796875 -0.03223,0.064453 -0.08789,0.1611328 -0.164062,0.2929687 -0.07031,0.1347656 -0.152344,0.2783203 -0.246094,0.4335938 -0.09375,0.1582031 -0.18457,0.3105468 -0.269531,0.4570312 -0.08789,0.140625 -0.158203,0.2548828 -0.210938,0.3398438 z m 0,0"
       style="fill:#000000;fill-opacity:1;fill-rule:nonzero;stroke:none"
       aria-label="50-54"
       transform="matrix(1.3333333,0,0,1.3333333,87.485333,33.901333)" />
    <path
       id="path6"
       d="M 25.156,40.12 V 61.639"
       style="fill:none;stroke:#000000;stroke-width:0.3985;stroke-linecap:butt;stroke-linejoin:miter;stroke-miterlimit:10;stroke-dasharray:none;stroke-opacity:1"
       transform="matrix(1.3333333,0,0,-1.3333333,96,96.001333)" />
    <path
       id="path7"
       d="m 2.4257891,0.10622656 c -0.4863282,0 -0.8642578,-0.05566406 -1.1367188,-0.1640625 -0.2753906,-0.10839843 -0.4658203,-0.24023437 -0.57421874,-0.3984375 -0.11132812,-0.15527343 -0.1640625,-0.3046875 -0.1640625,-0.4453125 0,-0.18749996 0.0498047,-0.33105466 0.15234375,-0.43359376 0.0996094,-0.1083984 0.2578125,-0.1640625 0.46874999,-0.1640625 0,0.2900391 0.09668,0.53320314 0.2929688,0.72656251 0.2021484,0.1875 0.5068359,0.28125 0.9140625,0.28125 0.2724609,0 0.515625,-0.0498047 0.7265625,-0.15234375 0.2167968,-0.10839843 0.3896484,-0.28417968 0.515625,-0.52734376 0.1230468,-0.2490234 0.1875,-0.5800781 0.1875,-0.9960937 0,-0.5214844 -0.140625,-0.9140625 -0.421875,-1.171875 -0.2753907,-0.2578125 -0.6386719,-0.3867188 -1.0898438,-0.3867188 -0.3515625,0 -0.6152344,0.023437 -0.7851562,0.070312 -0.1728516,0.046875 -0.3222657,0.099609 -0.4453125,0.1523438 L 0.83203906,-3.5734609 1.1484453,-7.1125234 h 3.328125 l 0.046875,1.5 H 4.1015703 L 4.0664141,-5.9054922 C 4.0429766,-6.0461172 3.9990313,-6.1457266 3.9375078,-6.2101797 3.8730547,-6.2804922 3.7382891,-6.3156484 3.5273516,-6.3156484 H 1.5937578 l -0.1875,2.203125 c 0.099609,-0.029297 0.2460938,-0.064453 0.4335938,-0.1054688 0.1933593,-0.038086 0.4365234,-0.058594 0.7265625,-0.058594 0.4365234,0 0.8232422,0.079102 1.1601562,0.234375 0.3427735,0.1582031 0.6123047,0.3925781 0.8085938,0.703125 0.2021484,0.3046875 0.3046875,0.6972656 0.3046875,1.171875 0,0.4453125 -0.09375,0.8408203 -0.28125,1.18359371 -0.1875,0.34570313 -0.4628907,0.61523438 -0.8203125,0.80859375 -0.3603516,0.18457032 -0.796875,0.28125 -1.3125,0.2812503 z m 5.5693359,0 c -0.4863281,0 -0.8642578,-0.05566406 -1.1367187,-0.1640625 C 6.5830156,-0.16623437 6.3925859,-0.29807031 6.2841875,-0.45627344 6.1728594,-0.61154687 6.120125,-0.76096094 6.120125,-0.90158594 c 0,-0.18749996 0.049805,-0.33105466 0.1523438,-0.43359376 0.099609,-0.1083984 0.2578125,-0.1640625 0.46875,-0.1640625 0,0.2900391 0.09668,0.53320314 0.2929687,0.72656251 0.2021484,0.1875 0.5068359,0.28125 0.9140625,0.28125 0.2724609,0 0.515625,-0.0498047 0.7265625,-0.15234375 0.2167969,-0.10839843 0.3896484,-0.28417968 0.515625,-0.52734376 0.1230469,-0.2490234 0.1875,-0.5800781 0.1875,-0.9960937 0,-0.5214844 -0.140625,-0.9140625 -0.421875,-1.171875 -0.2753906,-0.2578125 -0.6386719,-0.3867188 -1.0898437,-0.3867188 -0.3515625,0 -0.6152344,0.023437 -0.7851563,0.070312 -0.1728516,0.046875 -0.3222656,0.099609 -0.4453125,0.1523438 l -0.234375,-0.070312 0.3164063,-3.5390625 h 3.3281247 l 0.04687,1.5 H 9.6709063 L 9.63575,-5.9054922 C 9.6123125,-6.0461172 9.5683672,-6.1457266 9.5068438,-6.2101797 9.4423906,-6.2804922 9.307625,-6.3156484 9.0966875,-6.3156484 H 7.1630938 l -0.1875,2.203125 c 0.099609,-0.029297 0.2460937,-0.064453 0.4335937,-0.1054688 0.1933594,-0.038086 0.4365234,-0.058594 0.7265625,-0.058594 0.4365234,0 0.8232422,0.079102 1.1601563,0.234375 0.3427734,0.1582031 0.6123046,0.3925781 0.8085937,0.703125 0.202148,0.3046875 0.304688,0.6972656 0.304688,1.171875 0,0.4453125 -0.09375,0.8408203 -0.28125,1.18359371 -0.1875005,0.34570313 -0.4628911,0.61523438 -0.820313,0.80859375 -0.3603516,0.18457032 -0.796875,0.28125 -1.3125,0.2812503 z m 3.37793,-2.46093746 v -0.7148438 h 2.601562 v 0.7148438 z m 5.279297,2.46093746 c -0.486329,0 -0.864258,-0.05566406 -1.136719,-0.1640625 -0.275391,-0.10839843 -0.46582,-0.24023437 -0.574219,-0.3984375 -0.111328,-0.15527343 -0.164062,-0.3046875 -0.164062,-0.4453125 0,-0.18749996 0.0498,-0.33105466 0.152343,-0.43359376 0.09961,-0.1083984 0.257813,-0.1640625 0.46875,-0.1640625 0,0.2900391 0.09668,0.53320314 0.292969,0.72656251 0.202149,0.1875 0.506836,0.28125 0.914063,0.28125 0.272461,0 0.515625,-0.0498047 0.726562,-0.15234375 0.216797,-0.10839843 0.389649,-0.28417968 0.515625,-0.52734376 0.123047,-0.2490234 0.1875,-0.5800781 0.1875,-0.9960937 0,-0.5214844 -0.140625,-0.9140625 -0.421875,-1.171875 -0.275391,-0.2578125 -0.638672,-0.3867188 -1.089844,-0.3867188 -0.351562,0 -0.615234,0.023437 -0.785156,0.070312 -0.172851,0.046875 -0.322266,0.099609 -0.445312,0.1523438 l -0.234375,-0.070312 0.316406,-3.5390625 h 3.328125 l 0.04687,1.5 h -0.421875 l -0.03516,-0.2929688 c -0.02344,-0.140625 -0.06738,-0.2402344 -0.128907,-0.3046875 -0.06445,-0.070312 -0.199218,-0.1054687 -0.410156,-0.1054687 H 15.82032 l -0.1875,2.203125 c 0.09961,-0.029297 0.246094,-0.064453 0.433594,-0.1054688 0.193359,-0.038086 0.436524,-0.058594 0.726563,-0.058594 0.436523,0 0.823242,0.079102 1.160156,0.234375 0.342773,0.1582031 0.612305,0.3925781 0.808594,0.703125 0.202148,0.3046875 0.304687,0.6972656 0.304687,1.171875 0,0.4453125 -0.09375,0.8408203 -0.28125,1.18359371 -0.1875,0.34570313 -0.462891,0.61523438 -0.820312,0.80859375 -0.360352,0.18457032 -0.796875,0.28125 -1.3125,0.2812503 z m 5.405273,0 c -0.375,0 -0.667969,-0.04394531 -0.878906,-0.12890625 -0.210938,-0.08496093 -0.360352,-0.19042968 -0.445313,-0.31640625 -0.0791,-0.13183593 -0.117187,-0.26953125 -0.117187,-0.41015625 0,-0.12304687 0.0293,-0.22558593 0.09375,-0.30468751 0.06152,-0.084961 0.128906,-0.1435547 0.199219,-0.1757812 0.09375,0.2109375 0.228515,0.39843746 0.410156,0.56249996 0.1875,0.15820313 0.436523,0.234375 0.75,0.234375 0.544922,0 0.952148,-0.24609375 1.21875,-0.73828126 0.263672,-0.4921875 0.413086,-1.2421875 0.445312,-2.25 -0.149414,0.1816406 -0.345703,0.3398438 -0.585937,0.4804688 -0.234375,0.1347656 -0.527344,0.1992187 -0.878906,0.1992187 -0.580079,0 -1.051758,-0.1669922 -1.417969,-0.5039062 -0.369141,-0.3339844 -0.550781,-0.8378907 -0.550781,-1.5117188 0,-0.4833984 0.08496,-0.9082031 0.257812,-1.2773437 0.169922,-0.366211 0.413086,-0.6503907 0.726563,-0.8554688 0.319335,-0.2109375 0.703125,-0.3164062 1.148437,-0.3164062 0.451172,0 0.849609,0.1171875 1.195313,0.3515625 0.351562,0.2285156 0.624023,0.5859375 0.820312,1.078125 0.202148,0.4921875 0.304688,1.1308593 0.304688,1.9101562 0,0.5244141 -0.05274,1.0253906 -0.152344,1.5 -0.09375,0.4775391 -0.251953,0.9023438 -0.46875,1.2773438 -0.210938,0.36914059 -0.489258,0.66210934 -0.832031,0.87890621 -0.345704,0.2109375025 -0.75879,0.31640625 -1.242188,0.31640625 z m 0.433594,-3.43359376 c 0.319336,0 0.585937,-0.082031 0.796875,-0.2460937 0.216797,-0.1640625 0.36914,-0.3515625 0.457031,-0.5625 -0.01758,-0.890625 -0.140625,-1.5351563 -0.375,-1.9335938 -0.234375,-0.3984375 -0.547852,-0.5976562 -0.9375,-0.5976562 -0.345703,0 -0.615234,0.1582031 -0.808594,0.46875 -0.196289,0.3046875 -0.292968,0.75 -0.292968,1.3359375 0,0.5478515 0.09375,0.9433593 0.28125,1.1835937 0.193359,0.234375 0.486328,0.3515625 0.878906,0.3515625 z m 0,0"
       style="fill:#000000;fill-opacity:1;fill-rule:nonzero;stroke:none"
       aria-label="55-59"
       transform="matrix(1.3333333,0,0,1.3333333,137.77733,33.901333)" />
    <path
       id="path8"
       d="M 62.874,40.12 V 61.639"
       style="fill:none;stroke:#000000;stroke-width:0.3985;stroke-linecap:butt;stroke-linejoin:miter;stroke-miterlimit:10;stroke-dasharray:none;stroke-opacity:1"
       transform="matrix(1.3333333,0,0,-1.3333333,96,96.001333)" />
    <path
       id="path9"
       d="m 2.9167734,0.10622656 c -0.4394531,0 -0.8320312,-0.12304687 -1.1835937,-0.375 C 1.3874766,-0.51779687 1.1150156,-0.91330469 0.91286719,-1.4523672 0.70778906,-1.9972891 0.60817969,-2.7092031 0.60817969,-3.5851797 c 0,-0.46875 0.0498047,-0.9199219 0.15234375,-1.359375 0.10839844,-0.4365234 0.26953126,-0.8232422 0.48046876,-1.1601562 0.2109375,-0.3427735 0.4804687,-0.6123047 0.8085937,-0.8085938 0.3339844,-0.1933594 0.7207032,-0.2929687 1.1601563,-0.2929687 0.5449219,0 0.9550781,0.1054687 1.2304687,0.3164062 0.272461,0.2109375 0.4101563,0.4541016 0.4101563,0.7265625 0,0.3984375 -0.2548828,0.5976563 -0.7617188,0.5976563 0,-0.328125 -0.067383,-0.6035157 -0.1992187,-0.8320313 -0.1347656,-0.2255859 -0.3603516,-0.3398437 -0.6796875,-0.3398437 -0.5009766,0 -0.8789063,0.2519531 -1.1367188,0.75 -0.2578125,0.4921875 -0.4072265,1.21875 -0.4453125,2.1796875 0.1699219,-0.131836 0.3691407,-0.2490235 0.5976563,-0.3515625 0.2255859,-0.1083985 0.5039062,-0.1640625 0.8320312,-0.1640625 0.609375,0 1.0927735,0.1845703 1.453125,0.5507812 0.366211,0.3603516 0.5507813,0.8554688 0.5507813,1.4882813 0,0.46875 -0.087891,0.8847656 -0.2578125,1.2421875 -0.1728516,0.36035153 -0.4189453,0.64160153 -0.7382813,0.84374996 -0.3134765,0.20214844 -0.6972656,0.3046875 -1.1484375,0.3046875 z m 0.035156,-0.55078125 c 0.3515625,0 0.6210937,-0.13476562 0.8085937,-0.41015625 0.1875,-0.28124996 0.28125,-0.72070316 0.28125,-1.32421876 0,-0.5683594 -0.102539,-0.984375 -0.3046875,-1.2421875 -0.2050781,-0.2636719 -0.4980468,-0.3984375 -0.8789062,-0.3984375 -0.2578125,0 -0.4980469,0.064453 -0.7148438,0.1875 -0.2109375,0.1259766 -0.383789,0.2578125 -0.515625,0.3984375 0.00586,0.9931641 0.1289063,1.7080078 0.3632813,2.1445313 0.2402344,0.43066403 0.5625,0.64453121 0.9609375,0.64453121 z m 5.4052734,0.55078125 c -0.5478515,0 -0.993164,-0.15234375 -1.3359375,-0.45703125 C 6.6755625,-0.66135156 6.4236094,-1.0920156 6.2595469,-1.6398672 6.0954844,-2.1935781 6.0134531,-2.8381094 6.0134531,-3.5734609 c 0,-0.741211 0.082031,-1.3828125 0.2460938,-1.921875 0.1640625,-0.5449219 0.4160156,-0.9667969 0.7617187,-1.265625 0.3427735,-0.2958985 0.7910157,-0.4453125 1.3476563,-0.4453125 0.515625,0 0.9433594,0.149414 1.2890625,0.4453125 0.3515626,0.2988281 0.6093746,0.7207031 0.7734376,1.265625 0.169922,0.5478515 0.257812,1.1923828 0.257812,1.9335937 0,0.7353516 -0.08789,1.3769531 -0.257812,1.921875 -0.172852,0.5478516 -0.430664,0.97851564 -0.7734376,1.28906251 -0.3457031,0.3046875 -0.7792969,0.45703125 -1.3007816,0.45703125 z m 0,-0.5390625 c 0.4833985,0 0.8203125,-0.27539062 1.0078125,-0.83203126 0.1933594,-0.5537109 0.2929688,-1.3183594 0.2929688,-2.296875 0,-0.9902344 -0.099609,-1.7578125 -0.2929688,-2.296875 -0.1875,-0.5449219 -0.5214843,-0.8203125 -0.9960937,-0.8203125 -0.4863281,0 -0.8261719,0.2753906 -1.0195313,0.8203125 -0.196289,0.5390625 -0.2929687,1.3066406 -0.2929687,2.296875 0,0.9785156 0.09375,1.7431641 0.28125,2.296875 0.1933594,0.55664064 0.5332031,0.83203126 1.0195312,0.83203126 z M 11.371852,-2.3547109 v -0.7148438 h 2.601562 v 0.7148438 z m 5.771484,2.46093746 c -0.439453,0 -0.832031,-0.12304687 -1.183594,-0.375 -0.345703,-0.24902343 -0.618164,-0.64453125 -0.820312,-1.18359376 -0.205078,-0.5449219 -0.304688,-1.2568359 -0.304688,-2.1328125 0,-0.46875 0.0498,-0.9199219 0.152344,-1.359375 0.108398,-0.4365234 0.269531,-0.8232422 0.480469,-1.1601562 0.210937,-0.3427735 0.480468,-0.6123047 0.808593,-0.8085938 0.333985,-0.1933594 0.720704,-0.2929687 1.160157,-0.2929687 0.544922,0 0.955078,0.1054687 1.230468,0.3164062 0.272461,0.2109375 0.410157,0.4541016 0.410157,0.7265625 0,0.3984375 -0.254883,0.5976563 -0.761719,0.5976563 0,-0.328125 -0.06738,-0.6035157 -0.199219,-0.8320313 -0.134765,-0.2255859 -0.360351,-0.3398437 -0.679687,-0.3398437 -0.500977,0 -0.878907,0.2519531 -1.136719,0.75 -0.257813,0.4921875 -0.407227,1.21875 -0.445313,2.1796875 0.169922,-0.131836 0.369141,-0.2490235 0.597657,-0.3515625 0.225586,-0.1083985 0.503906,-0.1640625 0.832031,-0.1640625 0.609375,0 1.092773,0.1845703 1.453125,0.5507812 0.366211,0.3603516 0.550781,0.8554688 0.550781,1.4882813 0,0.46875 -0.08789,0.8847656 -0.257812,1.2421875 -0.172852,0.36035153 -0.418946,0.64160153 -0.738282,0.84374996 -0.313476,0.20214844 -0.697265,0.3046875 -1.148437,0.3046875 z m 0.03516,-0.55078125 c 0.351563,0 0.621094,-0.13476562 0.808594,-0.41015625 0.1875,-0.28124996 0.28125,-0.72070316 0.28125,-1.32421876 0,-0.5683594 -0.102539,-0.984375 -0.304688,-1.2421875 -0.205078,-0.2636719 -0.498046,-0.3984375 -0.878906,-0.3984375 -0.257812,0 -0.498047,0.064453 -0.714844,0.1875 -0.210937,0.1259766 -0.383789,0.2578125 -0.515625,0.3984375 0.0059,0.9931641 0.128907,1.7080078 0.363282,2.1445313 0.240234,0.43066403 0.5625,0.64453121 0.960937,0.64453121 z M 21.939234,7.578125e-4 V -0.42111719 h 0.28125 c 0.216797,0 0.404297,-0.0380859 0.5625,-0.1171875 0.164063,-0.0849609 0.246094,-0.28417968 0.246094,-0.59765621 v -0.8203125 h -3.070312 v -0.3984375 l 3.082031,-4.7578125 h 0.949219 v 4.6054687 h 1.230468 v 0.5507813 h -1.230468 v 0.8203125 c 0,0.31347653 0.07617,0.51269528 0.234375,0.59765621 0.164062,0.0791016 0.357422,0.1171875 0.585937,0.1171875 h 0.128906 V 7.578125e-4 Z M 20.685328,-2.5070547 h 2.34375 v -1.8398437 c 0,-0.1933594 0,-0.413086 0,-0.65625 0.0059,-0.2402344 0.01758,-0.4833985 0.03516,-0.7265625 0.01465,-0.2490235 0.02637,-0.4746094 0.03516,-0.6796875 -0.03223,0.064453 -0.08789,0.1611328 -0.164063,0.2929687 -0.07031,0.1347656 -0.152344,0.2783203 -0.246094,0.4335938 -0.09375,0.1582031 -0.18457,0.3105468 -0.269531,0.4570312 -0.08789,0.140625 -0.158203,0.2548828 -0.210937,0.3398438 z m 0,0"
       style="fill:#000000;fill-opacity:1;fill-rule:nonzero;stroke:none"
       aria-label="60-64"
       transform="matrix(1.3333333,0,0,1.3333333,188.068,33.901333)" />
    <path
       id="path10"
       d="M 100.593,40.12 V 61.639"
       style="fill:none;stroke:#000000;stroke-width:0.3985;stroke-linecap:butt;stroke-linejoin:miter;stroke-miterlimit:10;stroke-dasharray:none;stroke-opacity:1"
       transform="matrix(1.3333333,0,0,-1.3333333,96,96.001333)" />
    <path
       id="path11"
       d="m 2.9175,0.10622656 c -0.4394531,0 -0.8320312,-0.12304687 -1.1835937,-0.375 C 1.3882031,-0.51779687 1.1157422,-0.91330469 0.91359375,-1.4523672 0.70851563,-1.9972891 0.60890625,-2.7092031 0.60890625,-3.5851797 c 0,-0.46875 0.0498047,-0.9199219 0.15234375,-1.359375 0.10839844,-0.4365234 0.2695313,-0.8232422 0.4804688,-1.1601562 0.2109375,-0.3427735 0.4804687,-0.6123047 0.8085937,-0.8085938 0.3339844,-0.1933594 0.7207031,-0.2929687 1.1601563,-0.2929687 0.5449218,0 0.9550781,0.1054687 1.2304687,0.3164062 0.2724609,0.2109375 0.4101563,0.4541016 0.4101563,0.7265625 0,0.3984375 -0.2548829,0.5976563 -0.7617188,0.5976563 0,-0.328125 -0.067383,-0.6035157 -0.1992187,-0.8320313 -0.1347657,-0.2255859 -0.3603516,-0.3398437 -0.6796875,-0.3398437 -0.5009766,0 -0.8789063,0.2519531 -1.1367188,0.75 -0.2578125,0.4921875 -0.4072266,1.21875 -0.4453125,2.1796875 0.1699219,-0.131836 0.3691406,-0.2490235 0.5976563,-0.3515625 C 2.4516797,-4.2677969 2.73,-4.3234609 3.058125,-4.3234609 c 0.609375,0 1.0927734,0.1845703 1.453125,0.5507812 0.3662109,0.3603516 0.5507813,0.8554688 0.5507813,1.4882813 0,0.46875 -0.087891,0.8847656 -0.2578125,1.2421875 C 4.6313672,-0.68185937 4.3852734,-0.40060937 4.0659375,-0.19846094 3.7524609,0.0036875 3.3686719,0.10622656 2.9175,0.10622656 Z m 0.035156,-0.55078125 c 0.3515625,0 0.6210937,-0.13476562 0.8085937,-0.41015625 0.1875,-0.28124996 0.28125,-0.72070316 0.28125,-1.32421876 0,-0.5683594 -0.1025391,-0.984375 -0.3046875,-1.2421875 -0.2050781,-0.2636719 -0.4980469,-0.3984375 -0.8789062,-0.3984375 -0.2578125,0 -0.4980469,0.064453 -0.7148438,0.1875 -0.2109375,0.1259766 -0.3837891,0.2578125 -0.515625,0.3984375 0.00586,0.9931641 0.1289063,1.7080078 0.3632813,2.1445313 0.2402343,0.43066403 0.5625,0.64453121 0.9609375,0.64453121 z m 5.0419921,0.55078125 c -0.4863281,0 -0.8642578,-0.05566406 -1.1367187,-0.1640625 -0.2753906,-0.10839843 -0.4658203,-0.24023437 -0.5742188,-0.3984375 -0.1113281,-0.15527343 -0.1640625,-0.3046875 -0.1640625,-0.4453125 0,-0.18749996 0.049805,-0.33105466 0.1523438,-0.43359376 0.099609,-0.1083984 0.2578125,-0.1640625 0.46875,-0.1640625 0,0.2900391 0.09668,0.53320314 0.2929687,0.72656251 0.2021485,0.1875 0.506836,0.28125 0.9140625,0.28125 0.272461,0 0.515625,-0.0498047 0.7265625,-0.15234375 0.2167969,-0.10839843 0.3896485,-0.28417968 0.515625,-0.52734376 0.1230469,-0.2490234 0.1875,-0.5800781 0.1875,-0.9960937 0,-0.5214844 -0.140625,-0.9140625 -0.421875,-1.171875 -0.2753906,-0.2578125 -0.6386718,-0.3867188 -1.0898437,-0.3867188 -0.3515625,0 -0.6152344,0.023437 -0.7851563,0.070312 -0.1728515,0.046875 -0.3222656,0.099609 -0.4453125,0.1523438 l -0.234375,-0.070312 0.3164063,-3.5390625 H 10.04543 l 0.04687,1.5 H 9.6704297 L 9.6352734,-5.9054922 C 9.6118359,-6.0461172 9.5678906,-6.1457266 9.5063672,-6.2101797 9.4419141,-6.2804922 9.3071484,-6.3156484 9.0962109,-6.3156484 H 7.1626172 l -0.1875,2.203125 c 0.099609,-0.029297 0.2460937,-0.064453 0.4335937,-0.1054688 0.1933594,-0.038086 0.4365235,-0.058594 0.7265625,-0.058594 0.4365235,0 0.8232422,0.079102 1.1601563,0.234375 0.3427734,0.1582031 0.6123047,0.3925781 0.8085933,0.703125 0.202149,0.3046875 0.304688,0.6972656 0.304688,1.171875 0,0.4453125 -0.09375,0.8408203 -0.28125,1.18359371 -0.1875001,0.34570313 -0.4628907,0.61523438 -0.8203126,0.80859375 -0.3603515,0.18457032 -0.796875,0.28125 -1.3125003,0.2812503 z M 11.372578,-2.3547109 v -0.7148438 h 2.601563 v 0.7148438 z m 5.771485,2.46093746 c -0.439454,0 -0.832032,-0.12304687 -1.183594,-0.375 -0.345703,-0.24902343 -0.618164,-0.64453125 -0.820313,-1.18359376 -0.205078,-0.5449219 -0.304687,-1.2568359 -0.304687,-2.1328125 0,-0.46875 0.0498,-0.9199219 0.152344,-1.359375 0.108398,-0.4365234 0.269531,-0.8232422 0.480468,-1.1601562 0.210938,-0.3427735 0.480469,-0.6123047 0.808594,-0.8085938 0.333984,-0.1933594 0.720703,-0.2929687 1.160156,-0.2929687 0.544922,0 0.955078,0.1054687 1.230469,0.3164062 0.272461,0.2109375 0.410156,0.4541016 0.410156,0.7265625 0,0.3984375 -0.254883,0.5976563 -0.761718,0.5976563 0,-0.328125 -0.06738,-0.6035157 -0.199219,-0.8320313 -0.134766,-0.2255859 -0.360352,-0.3398437 -0.679688,-0.3398437 -0.500976,0 -0.878906,0.2519531 -1.136718,0.75 -0.257813,0.4921875 -0.407227,1.21875 -0.445313,2.1796875 0.169922,-0.131836 0.369141,-0.2490235 0.597656,-0.3515625 0.225586,-0.1083985 0.503907,-0.1640625 0.832032,-0.1640625 0.609375,0 1.092773,0.1845703 1.453125,0.5507812 0.36621,0.3603516 0.550781,0.8554688 0.550781,1.4882813 0,0.46875 -0.08789,0.8847656 -0.257813,1.2421875 -0.172851,0.36035153 -0.418945,0.64160153 -0.738281,0.84374996 -0.313477,0.20214844 -0.697266,0.3046875 -1.148437,0.3046875 z m 0.03516,-0.55078125 c 0.351562,0 0.621094,-0.13476562 0.808594,-0.41015625 0.1875,-0.28124996 0.28125,-0.72070316 0.28125,-1.32421876 0,-0.5683594 -0.10254,-0.984375 -0.304688,-1.2421875 -0.205078,-0.2636719 -0.498047,-0.3984375 -0.878906,-0.3984375 -0.257813,0 -0.498047,0.064453 -0.714844,0.1875 -0.210937,0.1259766 -0.383789,0.2578125 -0.515625,0.3984375 0.0059,0.9931641 0.128906,1.7080078 0.363281,2.1445313 0.240235,0.43066403 0.5625,0.64453121 0.960938,0.64453121 z m 4.877929,0.55078125 c -0.375,0 -0.667968,-0.04394531 -0.878906,-0.12890625 -0.210937,-0.08496093 -0.360351,-0.19042968 -0.445312,-0.31640625 -0.0791,-0.13183593 -0.117188,-0.26953125 -0.117188,-0.41015625 0,-0.12304687 0.0293,-0.22558593 0.09375,-0.30468751 0.06152,-0.084961 0.128906,-0.1435547 0.199219,-0.1757812 0.09375,0.2109375 0.228516,0.39843746 0.410156,0.56249996 0.1875,0.15820313 0.436524,0.234375 0.75,0.234375 0.544922,0 0.952149,-0.24609375 1.21875,-0.73828126 0.263672,-0.4921875 0.413086,-1.2421875 0.445313,-2.25 -0.149414,0.1816406 -0.345703,0.3398438 -0.585938,0.4804688 -0.234375,0.1347656 -0.527344,0.1992187 -0.878906,0.1992187 -0.580078,0 -1.051758,-0.1669922 -1.417969,-0.5039062 -0.36914,-0.3339844 -0.550781,-0.8378907 -0.550781,-1.5117188 0,-0.4833984 0.08496,-0.9082031 0.257812,-1.2773437 0.169922,-0.366211 0.413086,-0.6503907 0.726563,-0.8554688 0.319336,-0.2109375 0.703125,-0.3164062 1.148437,-0.3164062 0.451172,0 0.84961,0.1171875 1.195313,0.3515625 0.351562,0.2285156 0.624023,0.5859375 0.820312,1.078125 0.202149,0.4921875 0.304688,1.1308593 0.304688,1.9101562 0,0.5244141 -0.05273,1.0253906 -0.152344,1.5 -0.09375,0.4775391 -0.251953,0.9023438 -0.46875,1.2773438 -0.210937,0.36914059 -0.489258,0.66210934 -0.832031,0.87890621 -0.345703,0.2109375025 -0.758789,0.31640625 -1.242188,0.31640625 z m 0.433594,-3.43359376 c 0.319336,0 0.585938,-0.082031 0.796875,-0.2460937 0.216797,-0.1640625 0.369141,-0.3515625 0.457031,-0.5625 -0.01758,-0.890625 -0.140625,-1.5351563 -0.375,-1.9335938 -0.234375,-0.3984375 -0.547851,-0.5976562 -0.9375,-0.5976562 -0.345703,0 -0.615234,0.1582031 -0.808593,0.46875 -0.196289,0.3046875 -0.292969,0.75 -0.292969,1.3359375 0,0.5478515 0.09375,0.9433593 0.28125,1.1835937 0.193359,0.234375 0.486328,0.3515625 0.878906,0.3515625 z m 0,0"
       style="fill:#000000;fill-opacity:1;fill-rule:nonzero;stroke:none"
       aria-label="65-69"
       transform="matrix(1.3333333,0,0,1.3333333,238.36,33.901333)" />
    <path
       id="path12"
       d="M 138.311,40.12 V 61.639"
       style="fill:none;stroke:#000000;stroke-width:0.3985;stroke-linecap:butt;stroke-linejoin:miter;stroke-miterlimit:10;stroke-dasharray:none;stroke-opacity:1"
       transform="matrix(1.3333333,0,0,-1.3333333,96,96.001333)" />
    <path
       id="path13"
       d="M 1.8996953,7.578125e-4 4.2434453,-6.3156484 H 1.6301641 c -0.3515625,0 -0.5478516,0.1699218 -0.5859375,0.5039062 l -0.035156,0.5039063 H 0.58719531 l 0.046875,-1.8046875 H 5.0871953 v 0.2929687 L 2.6379766,7.578125e-4 Z M 8.3567266,0.10622656 c -0.5478516,0 -0.9931641,-0.15234375 -1.3359375,-0.45703125 C 6.6750859,-0.66135156 6.4231328,-1.0920156 6.2590703,-1.6398672 6.0950078,-2.1935781 6.0129766,-2.8381094 6.0129766,-3.5734609 c 0,-0.741211 0.082031,-1.3828125 0.2460937,-1.921875 0.1640625,-0.5449219 0.4160156,-0.9667969 0.7617188,-1.265625 0.3427734,-0.2958985 0.7910156,-0.4453125 1.3476562,-0.4453125 0.515625,0 0.9433594,0.149414 1.2890625,0.4453125 0.3515622,0.2988281 0.6093752,0.7207031 0.7734372,1.265625 0.169922,0.5478515 0.257813,1.1923828 0.257813,1.9335937 0,0.7353516 -0.08789,1.3769531 -0.257813,1.921875 -0.172851,0.5478516 -0.430664,0.97851564 -0.7734372,1.28906251 -0.3457031,0.3046875 -0.7792969,0.45703125 -1.3007812,0.45703125 z m 0,-0.5390625 c 0.4833984,0 0.8203125,-0.27539062 1.0078125,-0.83203126 0.1933593,-0.5537109 0.2929687,-1.3183594 0.2929687,-2.296875 0,-0.9902344 -0.099609,-1.7578125 -0.2929687,-2.296875 -0.1875,-0.5449219 -0.5214844,-0.8203125 -0.9960938,-0.8203125 -0.4863281,0 -0.8261719,0.2753906 -1.0195312,0.8203125 -0.1962891,0.5390625 -0.2929688,1.3066406 -0.2929688,2.296875 0,0.9785156 0.09375,1.7431641 0.28125,2.296875 0.1933594,0.55664064 0.5332031,0.83203126 1.0195313,0.83203126 z M 11.371375,-2.3547109 v -0.7148438 h 2.601563 v 0.7148438 z M 16.126258,7.578125e-4 18.470008,-6.3156484 h -2.613281 c -0.351563,0 -0.547852,0.1699218 -0.585938,0.5039062 l -0.03516,0.5039063 h -0.421875 l 0.04687,-1.8046875 h 4.453125 v 0.2929687 l -2.44921,6.8203125125 z m 5.8125,0 V -0.42111719 h 0.28125 c 0.216797,0 0.404297,-0.0380859 0.5625,-0.1171875 0.164062,-0.0849609 0.246094,-0.28417968 0.246094,-0.59765621 v -0.8203125 h -3.070313 v -0.3984375 l 3.082031,-4.7578125 h 0.949219 v 4.6054687 h 1.230469 v 0.5507813 h -1.230469 v 0.8203125 c 0,0.31347653 0.07617,0.51269528 0.234375,0.59765621 0.164063,0.0791016 0.357422,0.1171875 0.585938,0.1171875 h 0.128906 V 7.578125e-4 Z M 20.684852,-2.5070547 h 2.34375 v -1.8398437 c 0,-0.1933594 0,-0.413086 0,-0.65625 0.0059,-0.2402344 0.01758,-0.4833985 0.03516,-0.7265625 0.01465,-0.2490235 0.02637,-0.4746094 0.03516,-0.6796875 -0.03223,0.064453 -0.08789,0.1611328 -0.164062,0.2929687 -0.07031,0.1347656 -0.152344,0.2783203 -0.246094,0.4335938 -0.09375,0.1582031 -0.184571,0.3105468 -0.269531,0.4570312 -0.08789,0.140625 -0.158204,0.2548828 -0.210938,0.3398438 z m 0,0"
       style="fill:#000000;fill-opacity:1;fill-rule:nonzero;stroke:none"
       aria-label="70-74"
       transform="matrix(1.3333333,0,0,1.3333333,288.65067,33.901333)" />
    <path
       id="path14"
       d="M 176.03,40.12 V 61.639"
       style="fill:none;stroke:#000000;stroke-width:0.3985;stroke-linecap:butt;stroke-linejoin:miter;stroke-miterlimit:10;stroke-dasharray:none;stroke-opacity:1"
       transform="matrix(1.3333333,0,0,-1.3333333,96,96.001333)" />
    <path
       id="path15"
       d="M 1.8974922,7.578125e-4 4.2412422,-6.3156484 H 1.6279609 c -0.3515625,0 -0.5478515,0.1699218 -0.5859375,0.5039062 l -0.035156,0.5039063 H 0.58499219 l 0.046875,-1.8046875 H 5.0849922 v 0.2929687 L 2.6357734,7.578125e-4 Z M 7.9941719,0.10622656 c -0.4863281,0 -0.8642578,-0.05566406 -1.1367188,-0.1640625 -0.2753906,-0.10839843 -0.4658203,-0.24023437 -0.5742187,-0.3984375 -0.1113281,-0.15527343 -0.1640625,-0.3046875 -0.1640625,-0.4453125 0,-0.18749996 0.049805,-0.33105466 0.1523437,-0.43359376 0.099609,-0.1083984 0.2578125,-0.1640625 0.46875,-0.1640625 0,0.2900391 0.09668,0.53320314 0.2929688,0.72656251 0.2021484,0.1875 0.5068359,0.28125 0.9140625,0.28125 0.2724609,0 0.515625,-0.0498047 0.7265625,-0.15234375 0.2167969,-0.10839843 0.3896484,-0.28417968 0.515625,-0.52734376 0.1230469,-0.2490234 0.1875,-0.5800781 0.1875,-0.9960937 0,-0.5214844 -0.140625,-0.9140625 -0.421875,-1.171875 -0.2753906,-0.2578125 -0.6386719,-0.3867188 -1.0898438,-0.3867188 -0.3515625,0 -0.6152343,0.023437 -0.7851562,0.070312 -0.1728516,0.046875 -0.3222656,0.099609 -0.4453125,0.1523438 l -0.234375,-0.070312 0.3164062,-3.5390625 h 3.3281249 l 0.04687,1.5 H 9.6699531 L 9.6347969,-5.9054922 C 9.6113594,-6.0461172 9.5674141,-6.1457266 9.5058906,-6.2101797 9.4414375,-6.2804922 9.3066719,-6.3156484 9.0957344,-6.3156484 H 7.1621406 l -0.1875,2.203125 c 0.099609,-0.029297 0.2460938,-0.064453 0.4335938,-0.1054688 0.1933594,-0.038086 0.4365234,-0.058594 0.7265625,-0.058594 0.4365234,0 0.8232422,0.079102 1.1601562,0.234375 0.3427735,0.1582031 0.6123047,0.3925781 0.8085939,0.703125 0.202148,0.3046875 0.304687,0.6972656 0.304687,1.171875 0,0.4453125 -0.09375,0.8408203 -0.28125,1.18359371 -0.1874996,0.34570313 -0.4628902,0.61523438 -0.8203121,0.80859375 -0.3603516,0.18457032 -0.796875,0.28125 -1.3125,0.2812503 z M 11.372102,-2.3547109 v -0.7148438 h 2.601562 v 0.7148438 z M 16.124055,7.578125e-4 18.467805,-6.3156484 h -2.613282 c -0.351562,0 -0.547851,0.1699218 -0.585937,0.5039062 l -0.03516,0.5039063 h -0.421875 l 0.04687,-1.8046875 h 4.453125 v 0.2929687 L 16.862336,7.578125e-4 Z M 22.056672,0.10622656 c -0.375,0 -0.667969,-0.04394531 -0.878906,-0.12890625 -0.210938,-0.08496093 -0.360352,-0.19042968 -0.445313,-0.31640625 -0.0791,-0.13183593 -0.117187,-0.26953125 -0.117187,-0.41015625 0,-0.12304687 0.0293,-0.22558593 0.09375,-0.30468751 0.06152,-0.084961 0.128906,-0.1435547 0.199218,-0.1757812 0.09375,0.2109375 0.228516,0.39843746 0.410157,0.56249996 0.1875,0.15820313 0.436523,0.234375 0.75,0.234375 0.544922,0 0.952148,-0.24609375 1.21875,-0.73828126 0.263672,-0.4921875 0.413086,-1.2421875 0.445312,-2.25 -0.149414,0.1816406 -0.345703,0.3398438 -0.585937,0.4804688 -0.234375,0.1347656 -0.527344,0.1992187 -0.878907,0.1992187 -0.580078,0 -1.051757,-0.1669922 -1.417968,-0.5039062 -0.369141,-0.3339844 -0.550782,-0.8378907 -0.550782,-1.5117188 0,-0.4833984 0.08496,-0.9082031 0.257813,-1.2773437 0.169922,-0.366211 0.413086,-0.6503907 0.726562,-0.8554688 0.319336,-0.2109375 0.703125,-0.3164062 1.148438,-0.3164062 0.451172,0 0.849609,0.1171875 1.195312,0.3515625 0.351563,0.2285156 0.624024,0.5859375 0.820313,1.078125 0.202148,0.4921875 0.304687,1.1308593 0.304687,1.9101562 0,0.5244141 -0.05273,1.0253906 -0.152343,1.5 -0.09375,0.4775391 -0.251953,0.9023438 -0.46875,1.2773438 -0.210938,0.36914059 -0.489258,0.66210934 -0.832032,0.87890621 -0.345703,0.2109375025 -0.758789,0.31640625 -1.242187,0.31640625 z m 0.433594,-3.43359376 c 0.319336,0 0.585937,-0.082031 0.796875,-0.2460937 0.216797,-0.1640625 0.36914,-0.3515625 0.457031,-0.5625 -0.01758,-0.890625 -0.140625,-1.5351563 -0.375,-1.9335938 -0.234375,-0.3984375 -0.547852,-0.5976562 -0.9375,-0.5976562 -0.345703,0 -0.615234,0.1582031 -0.808594,0.46875 -0.196289,0.3046875 -0.292969,0.75 -0.292969,1.3359375 0,0.5478515 0.09375,0.9433593 0.28125,1.1835937 0.19336,0.234375 0.486329,0.3515625 0.878907,0.3515625 z m 0,0"
       style="fill:#000000;fill-opacity:1;fill-rule:nonzero;stroke:none"
       aria-label="75-79"
       transform="matrix(1.3333333,0,0,1.3333333,338.94267,33.901333)" />
    <path
       id="path16"
       d="M 213.749,40.12 V 61.639"
       style="fill:none;stroke:#000000;stroke-width:0.3985;stroke-linecap:butt;stroke-linejoin:miter;stroke-miterlimit:10;stroke-dasharray:none;stroke-opacity:1"
       transform="matrix(1.3333333,0,0,-1.3333333,96,96.001333)" />
    <path
       id="path17"
       d="m 2.7195312,0.10622656 c -0.5009765,0 -0.9199218,-0.08789062 -1.2539062,-0.2578125 C 1.1287109,-0.32150781 0.87382812,-0.55002344 0.70390625,-0.83127344 0.53984375,-1.1183828 0.4578125,-1.4347891 0.4578125,-1.7804922 c 0,-0.3193359 0.0644531,-0.5888672 0.19921875,-0.8085937 0.13183594,-0.2167969 0.31054687,-0.4042969 0.53906245,-0.5625 0.234375,-0.1640625 0.4921875,-0.3164063 0.7734375,-0.4570313 -0.375,-0.2109375 -0.6855468,-0.4599609 -0.9257812,-0.75 -0.234375,-0.2958984 -0.3515625,-0.6503906 -0.3515625,-1.0664062 0,-0.3046875 0.0703125,-0.5917969 0.2109375,-0.8671875 0.1464844,-0.272461 0.3779297,-0.4921875 0.6914062,-0.65625 0.319336,-0.1699219 0.7324219,-0.2578125 1.2421875,-0.2578125 0.6240235,0 1.1074219,0.1611328 1.453125,0.4804687 0.3427735,0.3222656 0.515625,0.7324219 0.515625,1.2304688 0,0.4394531 -0.1259765,0.7792968 -0.375,1.0195312 -0.243164,0.2431641 -0.5683593,0.4628906 -0.9726562,0.65625 0.4921875,0.234375 0.890625,0.5039063 1.1953125,0.8085938 0.3046875,0.3046875 0.4570312,0.6767578 0.4570312,1.1132812 0,0.6269531 -0.2167968,1.11914064 -0.6445312,1.47656251 -0.4306641,0.3515625 -1.0136719,0.52734375 -1.7460938,0.52734375 z M 2.965625,-4.0422109 c 0.375,-0.1875 0.6240234,-0.3925782 0.75,-0.6210938 0.1318359,-0.2255859 0.1992187,-0.5097656 0.1992187,-0.8554687 0,-0.2021485 -0.041016,-0.3984375 -0.1171875,-0.5859375 -0.070312,-0.1875 -0.1875,-0.3398438 -0.3515625,-0.4570313 C 3.2820312,-6.6789297 3.059375,-6.7375234 2.778125,-6.7375234 c -0.3691406,0 -0.6533203,0.1142578 -0.8554688,0.3398437 -0.196289,0.2197266 -0.2929687,0.5039063 -0.2929687,0.8554688 0,0.3515625 0.1083984,0.6416015 0.328125,0.8671875 0.2255859,0.2197265 0.5625,0.430664 1.0078125,0.6328125 z m -0.1992188,3.67968746 c 0.4365235,0 0.7851563,-0.12011718 1.0429688,-0.36328125 0.2636719,-0.24902343 0.3984375,-0.56835941 0.3984375,-0.96093751 0,-0.3339844 -0.1347656,-0.6269531 -0.3984375,-0.8789062 C 3.5515625,-2.8234609 3.0974609,-3.0871328 2.45,-3.3625234 c -0.3134766,0.1640625 -0.5625,0.383789 -0.75,0.65625 -0.1816406,0.2753906 -0.2695313,0.5947265 -0.2695313,0.9609375 0,0.4160156 0.1083985,0.74999996 0.328125,1.00781246 0.225586,0.25195313 0.5625,0.375 1.0078125,0.375 z m 5.5927735,0.46875 c -0.5478516,0 -0.9931641,-0.15234375 -1.3359375,-0.45703125 C 6.6775391,-0.66135156 6.4255859,-1.0920156 6.2615234,-1.6398672 6.0974609,-2.1935781 6.0154297,-2.8381094 6.0154297,-3.5734609 c 0,-0.741211 0.082031,-1.3828125 0.2460937,-1.921875 0.1640625,-0.5449219 0.4160157,-0.9667969 0.7617188,-1.265625 0.3427734,-0.2958985 0.7910156,-0.4453125 1.3476562,-0.4453125 0.515625,0 0.9433594,0.149414 1.2890625,0.4453125 0.3515621,0.2988281 0.6093751,0.7207031 0.7734371,1.265625 0.169922,0.5478515 0.257813,1.1923828 0.257813,1.9335937 0,0.7353516 -0.08789,1.3769531 -0.257813,1.921875 -0.172851,0.5478516 -0.430664,0.97851564 -0.7734371,1.28906251 -0.3457031,0.3046875 -0.7792968,0.45703125 -1.3007812,0.45703125 z m 0,-0.5390625 c 0.4833984,0 0.8203125,-0.27539062 1.0078125,-0.83203126 0.1933594,-0.5537109 0.2929687,-1.3183594 0.2929687,-2.296875 0,-0.9902344 -0.099609,-1.7578125 -0.2929687,-2.296875 -0.1875,-0.5449219 -0.5214844,-0.8203125 -0.9960938,-0.8203125 -0.4863281,0 -0.8261718,0.2753906 -1.0195312,0.8203125 -0.1962891,0.5390625 -0.2929688,1.3066406 -0.2929688,2.296875 0,0.9785156 0.09375,1.7431641 0.28125,2.296875 0.1933594,0.55664064 0.5332032,0.83203126 1.0195313,0.83203126 z M 11.373828,-2.3547109 v -0.7148438 h 2.601563 v 0.7148438 z m 5.572266,2.46093746 c -0.500977,0 -0.919922,-0.08789062 -1.253907,-0.2578125 -0.336914,-0.16992187 -0.591796,-0.3984375 -0.761718,-0.6796875 -0.164063,-0.28710936 -0.246094,-0.60351566 -0.246094,-0.94921876 0,-0.3193359 0.06445,-0.5888672 0.199219,-0.8085937 0.131836,-0.2167969 0.310547,-0.4042969 0.539062,-0.5625 0.234375,-0.1640625 0.492188,-0.3164063 0.773438,-0.4570313 -0.375,-0.2109375 -0.685547,-0.4599609 -0.925782,-0.75 -0.234375,-0.2958984 -0.351562,-0.6503906 -0.351562,-1.0664062 0,-0.3046875 0.07031,-0.5917969 0.210937,-0.8671875 0.146485,-0.272461 0.37793,-0.4921875 0.691407,-0.65625 0.319336,-0.1699219 0.732422,-0.2578125 1.242187,-0.2578125 0.624024,0 1.107422,0.1611328 1.453125,0.4804687 0.342774,0.3222656 0.515625,0.7324219 0.515625,1.2304688 0,0.4394531 -0.125976,0.7792968 -0.375,1.0195312 -0.243164,0.2431641 -0.568359,0.4628906 -0.972656,0.65625 0.492187,0.234375 0.890625,0.5039063 1.195312,0.8085938 0.304688,0.3046875 0.457032,0.6767578 0.457032,1.1132812 0,0.6269531 -0.216797,1.11914064 -0.644532,1.47656251 -0.430664,0.3515625 -1.013671,0.52734375 -1.746093,0.52734375 z m 0.246093,-4.14843746 c 0.375,-0.1875 0.624024,-0.3925782 0.75,-0.6210938 0.131836,-0.2255859 0.199219,-0.5097656 0.199219,-0.8554687 0,-0.2021485 -0.04102,-0.3984375 -0.117187,-0.5859375 -0.07031,-0.1875 -0.1875,-0.3398438 -0.351563,-0.4570313 -0.164062,-0.1171875 -0.386719,-0.1757812 -0.667969,-0.1757812 -0.36914,0 -0.65332,0.1142578 -0.855468,0.3398437 -0.196289,0.2197266 -0.292969,0.5039063 -0.292969,0.8554688 0,0.3515625 0.108398,0.6416015 0.328125,0.8671875 0.225586,0.2197265 0.5625,0.430664 1.007812,0.6328125 z m -0.199218,3.67968746 c 0.436523,0 0.785156,-0.12011718 1.042968,-0.36328125 0.263672,-0.24902343 0.398438,-0.56835941 0.398438,-0.96093751 0,-0.3339844 -0.134766,-0.6269531 -0.398438,-0.8789062 -0.257812,-0.2578125 -0.711914,-0.5214844 -1.359375,-0.796875 -0.313476,0.1640625 -0.5625,0.383789 -0.75,0.65625 -0.18164,0.2753906 -0.269531,0.5947265 -0.269531,0.9609375 0,0.4160156 0.108399,0.74999996 0.328125,1.00781246 0.225586,0.25195313 0.5625,0.375 1.007813,0.375 z M 21.941211,7.578125e-4 V -0.42111719 h 0.28125 c 0.216797,0 0.404297,-0.0380859 0.5625,-0.1171875 0.164062,-0.0849609 0.246094,-0.28417968 0.246094,-0.59765621 v -0.8203125 h -3.070313 v -0.3984375 l 3.082031,-4.7578125 h 0.949219 v 4.6054687 h 1.230469 v 0.5507813 h -1.230469 v 0.8203125 c 0,0.31347653 0.07617,0.51269528 0.234375,0.59765621 0.164063,0.0791016 0.357422,0.1171875 0.585938,0.1171875 h 0.128906 V 7.578125e-4 Z M 20.687305,-2.5070547 h 2.34375 v -1.8398437 c 0,-0.1933594 0,-0.413086 0,-0.65625 0.0059,-0.2402344 0.01758,-0.4833985 0.03516,-0.7265625 0.01465,-0.2490235 0.02637,-0.4746094 0.03516,-0.6796875 -0.03223,0.064453 -0.08789,0.1611328 -0.164062,0.2929687 -0.07031,0.1347656 -0.152344,0.2783203 -0.246094,0.4335938 -0.09375,0.1582031 -0.18457,0.3105468 -0.269531,0.4570312 -0.08789,0.140625 -0.158203,0.2548828 -0.210938,0.3398438 z m 0,0"
       style="fill:#000000;fill-opacity:1;fill-rule:nonzero;stroke:none"
       aria-label="80-84"
       transform="matrix(1.3333333,0,0,1.3333333,389.23333,33.901333)" />
    <path
       id="path18"
       d="M 251.467,40.12 V 61.639"
       style="fill:none;stroke:#000000;stroke-width:0.3985;stroke-linecap:butt;stroke-linejoin:miter;stroke-miterlimit:10;stroke-dasharray:none;stroke-opacity:1"
       transform="matrix(1.3333333,0,0,-1.3333333,96,96.001333)" />
    <path
       id="path19"
       d="m 2.7173281,0.10622656 c -0.5009765,0 -0.9199219,-0.08789062 -1.2539062,-0.2578125 C 1.1265078,-0.32150781 0.871625,-0.55002344 0.70170312,-0.83127344 0.53764062,-1.1183828 0.45560937,-1.4347891 0.45560937,-1.7804922 c 0,-0.3193359 0.0644531,-0.5888672 0.19921875,-0.8085937 0.13183594,-0.2167969 0.31054688,-0.4042969 0.53906248,-0.5625 0.234375,-0.1640625 0.4921875,-0.3164063 0.7734375,-0.4570313 -0.375,-0.2109375 -0.6855469,-0.4599609 -0.9257812,-0.75 -0.23437503,-0.2958984 -0.35156253,-0.6503906 -0.35156253,-1.0664062 0,-0.3046875 0.0703125,-0.5917969 0.2109375,-0.8671875 0.14648433,-0.272461 0.37792973,-0.4921875 0.69140623,-0.65625 0.319336,-0.1699219 0.7324219,-0.2578125 1.2421875,-0.2578125 0.6240235,0 1.1074219,0.1611328 1.453125,0.4804687 0.3427735,0.3222656 0.515625,0.7324219 0.515625,1.2304688 0,0.4394531 -0.1259765,0.7792968 -0.375,1.0195312 -0.243164,0.2431641 -0.5683594,0.4628906 -0.9726562,0.65625 0.4921875,0.234375 0.890625,0.5039063 1.1953125,0.8085938 0.3046875,0.3046875 0.4570312,0.6767578 0.4570312,1.1132812 0,0.6269531 -0.2167969,1.11914064 -0.6445312,1.47656251 C 4.0327578,-0.06955469 3.44975,0.10622656 2.7173281,0.10622656 Z M 2.9634219,-4.0422109 c 0.375,-0.1875 0.6240234,-0.3925782 0.75,-0.6210938 0.1318359,-0.2255859 0.1992187,-0.5097656 0.1992187,-0.8554687 0,-0.2021485 -0.041016,-0.3984375 -0.1171875,-0.5859375 -0.070312,-0.1875 -0.1875,-0.3398438 -0.3515625,-0.4570313 -0.1640625,-0.1171875 -0.3867187,-0.1757812 -0.6679687,-0.1757812 -0.3691407,0 -0.6533203,0.1142578 -0.8554688,0.3398437 -0.196289,0.2197266 -0.2929687,0.5039063 -0.2929687,0.8554688 0,0.3515625 0.1083984,0.6416015 0.328125,0.8671875 0.2255859,0.2197265 0.5625,0.430664 1.0078125,0.6328125 z m -0.1992188,3.67968746 c 0.4365235,0 0.7851563,-0.12011718 1.0429688,-0.36328125 0.2636718,-0.24902343 0.3984375,-0.56835941 0.3984375,-0.96093751 0,-0.3339844 -0.1347657,-0.6269531 -0.3984375,-0.8789062 -0.2578125,-0.2578125 -0.7119141,-0.5214844 -1.359375,-0.796875 -0.3134766,0.1640625 -0.5625,0.383789 -0.75,0.65625 -0.1816407,0.2753906 -0.2695313,0.5947265 -0.2695313,0.9609375 0,0.4160156 0.1083985,0.74999996 0.328125,1.00781246 0.225586,0.25195313 0.5625,0.375 1.0078125,0.375 z m 5.2294922,0.46875 c -0.4863281,0 -0.8642578,-0.05566406 -1.1367187,-0.1640625 -0.2753907,-0.10839843 -0.4658204,-0.24023437 -0.5742188,-0.3984375 -0.1113281,-0.15527343 -0.1640625,-0.3046875 -0.1640625,-0.4453125 0,-0.18749996 0.049805,-0.33105466 0.1523438,-0.43359376 0.099609,-0.1083984 0.2578125,-0.1640625 0.46875,-0.1640625 0,0.2900391 0.09668,0.53320314 0.2929687,0.72656251 0.2021484,0.1875 0.5068359,0.28125 0.9140625,0.28125 0.2724609,0 0.515625,-0.0498047 0.7265625,-0.15234375 0.2167969,-0.10839843 0.3896484,-0.28417968 0.515625,-0.52734376 0.1230469,-0.2490234 0.1875,-0.5800781 0.1875,-0.9960937 0,-0.5214844 -0.140625,-0.9140625 -0.421875,-1.171875 -0.2753906,-0.2578125 -0.6386719,-0.3867188 -1.0898437,-0.3867188 -0.3515625,0 -0.6152344,0.023437 -0.7851563,0.070312 -0.1728516,0.046875 -0.3222656,0.099609 -0.4453125,0.1523438 l -0.234375,-0.070312 0.3164063,-3.5390625 h 3.3281254 l 0.04687,1.5 H 9.6694766 L 9.6343203,-5.9054922 C 9.6108828,-6.0461172 9.5669375,-6.1457266 9.5054141,-6.2101797 9.4409609,-6.2804922 9.3061953,-6.3156484 9.0952578,-6.3156484 H 7.1616641 l -0.1875,2.203125 c 0.099609,-0.029297 0.2460937,-0.064453 0.4335937,-0.1054688 0.1933594,-0.038086 0.4365234,-0.058594 0.7265625,-0.058594 0.4365234,0 0.8232422,0.079102 1.1601563,0.234375 0.3427734,0.1582031 0.6123046,0.3925781 0.8085934,0.703125 0.202149,0.3046875 0.304688,0.6972656 0.304688,1.171875 0,0.4453125 -0.09375,0.8408203 -0.28125,1.18359371 -0.1875002,0.34570313 -0.4628908,0.61523438 -0.8203127,0.80859375 -0.3603516,0.18457032 -0.796875,0.28125 -1.3125,0.2812503 z M 11.371625,-2.3547109 v -0.7148438 h 2.601562 v 0.7148438 z m 5.572266,2.46093746 c -0.500977,0 -0.919922,-0.08789062 -1.253907,-0.2578125 -0.336914,-0.16992187 -0.591797,-0.3984375 -0.761718,-0.6796875 -0.164063,-0.28710936 -0.246094,-0.60351566 -0.246094,-0.94921876 0,-0.3193359 0.06445,-0.5888672 0.199219,-0.8085937 0.131836,-0.2167969 0.310546,-0.4042969 0.539062,-0.5625 0.234375,-0.1640625 0.492188,-0.3164063 0.773438,-0.4570313 -0.375,-0.2109375 -0.685547,-0.4599609 -0.925782,-0.75 -0.234375,-0.2958984 -0.351562,-0.6503906 -0.351562,-1.0664062 0,-0.3046875 0.07031,-0.5917969 0.210937,-0.8671875 0.146485,-0.272461 0.37793,-0.4921875 0.691407,-0.65625 0.319336,-0.1699219 0.732421,-0.2578125 1.242187,-0.2578125 0.624024,0 1.107422,0.1611328 1.453125,0.4804687 0.342774,0.3222656 0.515625,0.7324219 0.515625,1.2304688 0,0.4394531 -0.125976,0.7792968 -0.375,1.0195312 -0.243164,0.2431641 -0.568359,0.4628906 -0.972656,0.65625 0.492187,0.234375 0.890625,0.5039063 1.195312,0.8085938 0.304688,0.3046875 0.457032,0.6767578 0.457032,1.1132812 0,0.6269531 -0.216797,1.11914064 -0.644532,1.47656251 -0.430664,0.3515625 -1.013672,0.52734375 -1.746093,0.52734375 z m 0.246093,-4.14843746 c 0.375,-0.1875 0.624024,-0.3925782 0.75,-0.6210938 0.131836,-0.2255859 0.199219,-0.5097656 0.199219,-0.8554687 0,-0.2021485 -0.04102,-0.3984375 -0.117187,-0.5859375 -0.07031,-0.1875 -0.1875,-0.3398438 -0.351563,-0.4570313 -0.164062,-0.1171875 -0.386719,-0.1757812 -0.667969,-0.1757812 -0.36914,0 -0.65332,0.1142578 -0.855468,0.3398437 -0.196289,0.2197266 -0.292969,0.5039063 -0.292969,0.8554688 0,0.3515625 0.108398,0.6416015 0.328125,0.8671875 0.225586,0.2197265 0.5625,0.430664 1.007812,0.6328125 z m -0.199218,3.67968746 c 0.436523,0 0.785156,-0.12011718 1.042968,-0.36328125 0.263672,-0.24902343 0.398438,-0.56835941 0.398438,-0.96093751 0,-0.3339844 -0.134766,-0.6269531 -0.398438,-0.8789062 -0.257812,-0.2578125 -0.711914,-0.5214844 -1.359375,-0.796875 -0.313476,0.1640625 -0.5625,0.383789 -0.75,0.65625 -0.18164,0.2753906 -0.269531,0.5947265 -0.269531,0.9609375 0,0.4160156 0.108399,0.74999996 0.328125,1.00781246 0.225586,0.25195313 0.5625,0.375 1.007813,0.375 z m 5.065429,0.46875 c -0.375,0 -0.667968,-0.04394531 -0.878906,-0.12890625 -0.210937,-0.08496093 -0.360352,-0.19042968 -0.445312,-0.31640625 -0.0791,-0.13183593 -0.117188,-0.26953125 -0.117188,-0.41015625 0,-0.12304687 0.0293,-0.22558593 0.09375,-0.30468751 0.06152,-0.084961 0.128906,-0.1435547 0.199219,-0.1757812 0.09375,0.2109375 0.228515,0.39843746 0.410156,0.56249996 0.1875,0.15820313 0.436523,0.234375 0.75,0.234375 0.544922,0 0.952148,-0.24609375 1.21875,-0.73828126 0.263672,-0.4921875 0.413086,-1.2421875 0.445313,-2.25 -0.149415,0.1816406 -0.345704,0.3398438 -0.585938,0.4804688 -0.234375,0.1347656 -0.527344,0.1992187 -0.878906,0.1992187 -0.580078,0 -1.051758,-0.1669922 -1.417969,-0.5039062 -0.369141,-0.3339844 -0.550781,-0.8378907 -0.550781,-1.5117188 0,-0.4833984 0.08496,-0.9082031 0.257812,-1.2773437 0.169922,-0.366211 0.413086,-0.6503907 0.726563,-0.8554688 0.319336,-0.2109375 0.703125,-0.3164062 1.148437,-0.3164062 0.451172,0 0.84961,0.1171875 1.195313,0.3515625 0.351562,0.2285156 0.624023,0.5859375 0.820312,1.078125 0.202149,0.4921875 0.304688,1.1308593 0.304688,1.9101562 0,0.5244141 -0.05274,1.0253906 -0.152344,1.5 -0.09375,0.4775391 -0.251953,0.9023438 -0.46875,1.2773438 -0.210937,0.36914059 -0.489258,0.66210934 -0.832031,0.87890621 -0.345703,0.2109375025 -0.758789,0.31640625 -1.242188,0.31640625 z m 0.433594,-3.43359376 c 0.319336,0 0.585938,-0.082031 0.796875,-0.2460937 0.216797,-0.1640625 0.369141,-0.3515625 0.457031,-0.5625 -0.01758,-0.890625 -0.140625,-1.5351563 -0.375,-1.9335938 -0.234375,-0.3984375 -0.547851,-0.5976562 -0.9375,-0.5976562 -0.345703,0 -0.615234,0.1582031 -0.808593,0.46875 -0.19629,0.3046875 -0.292969,0.75 -0.292969,1.3359375 0,0.5478515 0.09375,0.9433593 0.28125,1.1835937 0.193359,0.234375 0.486328,0.3515625 0.878906,0.3515625 z m 0,0"
       style="fill:#000000;fill-opacity:1;fill-rule:nonzero;stroke:none"
       aria-label="85-89"
       transform="matrix(1.3333333,0,0,1.3333333,439.52533,33.901333)" />
    <path
       id="path20"
       d="M 289.186,40.12 V 61.639"
       style="fill:none;stroke:#000000;stroke-width:0.3985;stroke-linecap:butt;stroke-linejoin:miter;stroke-miterlimit:10;stroke-dasharray:none;stroke-opacity:1"
       transform="matrix(1.3333333,0,0,-1.3333333,96,96.001333)" />
    <path
       id="path21"
       d="m 2.2610234,0.10622656 c -0.375,0 -0.6679687,-0.04394531 -0.8789062,-0.12890625 -0.2109375,-0.08496093 -0.3603516,-0.19042968 -0.44531251,-0.31640625 -0.0791016,-0.13183593 -0.1171875,-0.26953125 -0.1171875,-0.41015625 0,-0.12304687 0.0292969,-0.22558593 0.09375,-0.30468751 0.0615234,-0.084961 0.12890621,-0.1435547 0.19921871,-0.1757812 0.09375,0.2109375 0.2285157,0.39843746 0.4101563,0.56249996 0.1875,0.15820313 0.4365234,0.234375 0.75,0.234375 0.5449219,0 0.9521484,-0.24609375 1.21875,-0.73828126 0.2636719,-0.4921875 0.4130859,-1.2421875 0.4453125,-2.25 -0.1494141,0.1816406 -0.3457031,0.3398438 -0.5859375,0.4804688 -0.234375,0.1347656 -0.5273438,0.1992187 -0.8789063,0.1992187 -0.5800781,0 -1.0517578,-0.1669922 -1.4179687,-0.5039062 -0.36914064,-0.3339844 -0.55078126,-0.8378907 -0.55078126,-1.5117188 0,-0.4833984 0.0849609,-0.9082031 0.2578125,-1.2773437 0.16992187,-0.366211 0.41308596,-0.6503907 0.72656246,-0.8554688 0.319336,-0.2109375 0.703125,-0.3164062 1.1484375,-0.3164062 0.4511719,0 0.8496094,0.1171875 1.1953125,0.3515625 0.3515625,0.2285156 0.6240235,0.5859375 0.8203125,1.078125 0.2021485,0.4921875 0.3046875,1.1308593 0.3046875,1.9101562 0,0.5244141 -0.052734,1.0253906 -0.1523437,1.5 -0.09375,0.4775391 -0.2519531,0.9023438 -0.46875,1.2773438 C 4.1243047,-0.71994531 3.8459844,-0.42697656 3.5032109,-0.21017969 3.1575078,7.578125e-4 2.7444219,0.10622656 2.2610234,0.10622656 Z M 2.6946172,-3.3273672 c 0.3193359,0 0.5859375,-0.082031 0.796875,-0.2460937 0.2167969,-0.1640625 0.3691406,-0.3515625 0.4570312,-0.5625 -0.017578,-0.890625 -0.140625,-1.5351563 -0.375,-1.9335938 -0.234375,-0.3984375 -0.5478515,-0.5976562 -0.9375,-0.5976562 -0.3457031,0 -0.6152343,0.1582031 -0.8085937,0.46875 -0.1962891,0.3046875 -0.2929688,0.75 -0.2929688,1.3359375 0,0.5478515 0.09375,0.9433593 0.28125,1.1835937 0.1933594,0.234375 0.4863282,0.3515625 0.8789063,0.3515625 z m 5.6630859,3.43359376 c -0.5478515,0 -0.993164,-0.15234375 -1.3359375,-0.45703125 C 6.6760625,-0.66135156 6.4241094,-1.0920156 6.2600469,-1.6398672 6.0959844,-2.1935781 6.0139531,-2.8381094 6.0139531,-3.5734609 c 0,-0.741211 0.082031,-1.3828125 0.2460938,-1.921875 0.1640625,-0.5449219 0.4160156,-0.9667969 0.7617187,-1.265625 0.3427735,-0.2958985 0.7910157,-0.4453125 1.3476563,-0.4453125 0.515625,0 0.9433594,0.149414 1.2890625,0.4453125 0.3515626,0.2988281 0.6093746,0.7207031 0.7734376,1.265625 0.169922,0.5478515 0.257812,1.1923828 0.257812,1.9335937 0,0.7353516 -0.08789,1.3769531 -0.257812,1.921875 -0.172852,0.5478516 -0.430664,0.97851564 -0.7734376,1.28906251 -0.3457031,0.3046875 -0.7792969,0.45703125 -1.3007813,0.45703125 z m 0,-0.5390625 c 0.4833985,0 0.8203125,-0.27539062 1.0078125,-0.83203126 0.1933594,-0.5537109 0.2929688,-1.3183594 0.2929688,-2.296875 0,-0.9902344 -0.099609,-1.7578125 -0.2929688,-2.296875 -0.1875,-0.5449219 -0.5214843,-0.8203125 -0.9960937,-0.8203125 -0.4863281,0 -0.8261719,0.2753906 -1.0195313,0.8203125 -0.196289,0.5390625 -0.2929687,1.3066406 -0.2929687,2.296875 0,0.9785156 0.09375,1.7431641 0.28125,2.296875 0.1933594,0.55664064 0.5332031,0.83203126 1.0195312,0.83203126 z M 11.372352,-2.3547109 v -0.7148438 h 2.601562 v 0.7148438 z m 5.115234,2.46093746 c -0.375,0 -0.667969,-0.04394531 -0.878906,-0.12890625 -0.210938,-0.08496093 -0.360352,-0.19042968 -0.445313,-0.31640625 -0.0791,-0.13183593 -0.117187,-0.26953125 -0.117187,-0.41015625 0,-0.12304687 0.0293,-0.22558593 0.09375,-0.30468751 0.06152,-0.084961 0.128906,-0.1435547 0.199218,-0.1757812 0.09375,0.2109375 0.228516,0.39843746 0.410157,0.56249996 0.1875,0.15820313 0.436523,0.234375 0.75,0.234375 0.544922,0 0.952148,-0.24609375 1.21875,-0.73828126 0.263672,-0.4921875 0.413086,-1.2421875 0.445312,-2.25 -0.149414,0.1816406 -0.345703,0.3398438 -0.585937,0.4804688 -0.234375,0.1347656 -0.527344,0.1992187 -0.878907,0.1992187 -0.580078,0 -1.051757,-0.1669922 -1.417968,-0.5039062 -0.369141,-0.3339844 -0.550782,-0.8378907 -0.550782,-1.5117188 0,-0.4833984 0.08496,-0.9082031 0.257813,-1.2773437 0.169922,-0.366211 0.413086,-0.6503907 0.726562,-0.8554688 0.319336,-0.2109375 0.703125,-0.3164062 1.148438,-0.3164062 0.451172,0 0.849609,0.1171875 1.195312,0.3515625 0.351563,0.2285156 0.624024,0.5859375 0.820313,1.078125 0.202148,0.4921875 0.304687,1.1308593 0.304687,1.9101562 0,0.5244141 -0.05273,1.0253906 -0.152343,1.5 -0.09375,0.4775391 -0.251953,0.9023438 -0.46875,1.2773438 -0.210938,0.36914059 -0.489258,0.66210934 -0.832032,0.87890621 C 17.38407,7.578125e-4 16.970984,0.10622656 16.487586,0.10622656 Z M 16.92118,-3.3273672 c 0.319336,0 0.585937,-0.082031 0.796875,-0.2460937 0.216797,-0.1640625 0.36914,-0.3515625 0.457031,-0.5625 -0.01758,-0.890625 -0.140625,-1.5351563 -0.375,-1.9335938 -0.234375,-0.3984375 -0.547852,-0.5976562 -0.9375,-0.5976562 -0.345703,0 -0.615234,0.1582031 -0.808594,0.46875 -0.196289,0.3046875 -0.292969,0.75 -0.292969,1.3359375 0,0.5478515 0.09375,0.9433593 0.28125,1.1835937 0.19336,0.234375 0.486329,0.3515625 0.878907,0.3515625 z M 21.939734,7.578125e-4 V -0.42111719 h 0.28125 c 0.216797,0 0.404297,-0.0380859 0.5625,-0.1171875 0.164063,-0.0849609 0.246094,-0.28417968 0.246094,-0.59765621 v -0.8203125 h -3.070312 v -0.3984375 l 3.082031,-4.7578125 h 0.949219 v 4.6054687 h 1.230468 v 0.5507813 h -1.230468 v 0.8203125 c 0,0.31347653 0.07617,0.51269528 0.234375,0.59765621 0.164062,0.0791016 0.357422,0.1171875 0.585937,0.1171875 h 0.128906 V 7.578125e-4 Z M 20.685828,-2.5070547 h 2.34375 v -1.8398437 c 0,-0.1933594 0,-0.413086 0,-0.65625 0.0059,-0.2402344 0.01758,-0.4833985 0.03516,-0.7265625 0.01465,-0.2490235 0.02637,-0.4746094 0.03516,-0.6796875 -0.03223,0.064453 -0.08789,0.1611328 -0.164063,0.2929687 -0.07031,0.1347656 -0.152344,0.2783203 -0.246094,0.4335938 -0.09375,0.1582031 -0.18457,0.3105468 -0.269531,0.4570312 -0.08789,0.140625 -0.158203,0.2548828 -0.210937,0.3398438 z m 0,0"
       style="fill:#000000;fill-opacity:1;fill-rule:nonzero;stroke:none"
       aria-label="90-94"
       transform="matrix(1.3333333,0,0,1.3333333,489.81733,33.901333)" />
    <path
       id="path22"
       d="M 326.904,40.12 V 61.639"
       style="fill:none;stroke:#000000;stroke-width:0.3985;stroke-linecap:butt;stroke-linejoin:miter;stroke-miterlimit:10;stroke-dasharray:none;stroke-opacity:1"
       transform="matrix(1.3333333,0,0,-1.3333333,96,96.001333)" />
    <path
       id="path23"
       d="M -59.467,39.92 H 327.104"
       style="fill:none;stroke:#000000;stroke-width:0.3985;stroke-linecap:butt;stroke-linejoin:miter;stroke-miterlimit:10;stroke-dasharray:none;stroke-opacity:1"
       transform="matrix(1.3333333,0,0,-1.3333333,96,96.001333)" />
    <path
       id="path24"
       d="M -59.268,18.202 V 39.721"
       style="fill:none;stroke:#000000;stroke-width:0.3985;stroke-linecap:butt;stroke-linejoin:miter;stroke-miterlimit:10;stroke-dasharray:none;stroke-opacity:1"
       transform="matrix(1.3333333,0,0,-1.3333333,96,96.001333)" />
    <path
       id="path25"
       d="m 5.0967578,0.24684375 -0.5039062,-0.28125 V -3.8664375 C 4.3408984,-4.2941719 4.1035937,-4.6281562 3.8780078,-4.8625312 3.6494922,-5.0969062 3.4268359,-5.2551094 3.2100391,-5.343 2.9903125,-5.43675 2.7647266,-5.483625 2.5303516,-5.483625 c -0.1728516,0 -0.3574219,0.043945 -0.5507813,0.1289063 -0.1875,0.087891 -0.3720703,0.28125 -0.5507812,0.5859375 0.084961,-0.029297 0.1816406,-0.058594 0.2929687,-0.082031 0.1171875,-0.023437 0.2402344,-0.035156 0.375,-0.035156 0.3662109,0 0.6503906,0.1230468 0.8554688,0.3632812 0.2109375,0.234375 0.3164062,0.5214844 0.3164062,0.8554688 0,0.383789 -0.1113281,0.7265625 -0.328125,1.03125 -0.2109375,0.3046875 -0.5712891,0.6152343 -1.078125,0.9257812 L 1.2647266,-2.62425 c 0.4277343,-0.1640625 0.7675781,-0.3427734 1.0195312,-0.5390625 0.2578125,-0.2021484 0.3867188,-0.421875 0.3867188,-0.65625 0,-0.1552734 -0.052734,-0.2841797 -0.1523438,-0.3867187 -0.09375,-0.099609 -0.2431641,-0.1523438 -0.4453125,-0.1523438 -0.2109375,0 -0.4189453,0.041016 -0.6210937,0.1171875 -0.2050782,0.079102 -0.4160157,0.2050781 -0.63281254,0.375 L 0.15144531,-4.5344062 C 0.48542969,-5.1730781 0.84871094,-5.62425 1.2412891,-5.8820625 1.6309375,-6.139875 2.0147266,-6.2687812 2.3897266,-6.2687812 c 0.4130859,0 0.7998046,0.1347656 1.1601562,0.3984375 0.3662109,0.2666015 0.7294922,0.703125 1.0898438,1.3125 C 4.6221484,-4.7043281 4.6104297,-4.87425 4.6045703,-5.06175 4.5957812,-5.2551094 4.5928516,-5.4279609 4.5928516,-5.577375 V -6.93675 l 0.035156,-0.011719 0.4570313,0.328125 0.046875,0.421875 h 0.7382812 l 0.3398438,0.515625 H 5.1319141 v 5.917969 z m 5.6132812,0 -0.503906,-0.28125 V -3.5265937 C 9.9160937,-4.0099922 9.6553516,-4.3820625 9.4209766,-4.639875 9.1924609,-4.8976875 8.9698047,-5.0763984 8.7530078,-5.1789375 8.5332812,-5.2785469 8.2901172,-5.3312812 8.0264453,-5.3312812 c -0.3222656,0 -0.5947266,0.09082 -0.8203125,0.2695312 -0.2285156,0.1728516 -0.3398437,0.4277344 -0.3398437,0.7617188 0,0.4160156 0.1435546,0.6738281 0.4335937,0.7734375 -0.00879,-0.038086 -0.011719,-0.076172 -0.011719,-0.1171875 0,-0.2109375 0.064453,-0.3808594 0.1992187,-0.515625 0.140625,-0.131836 0.3164063,-0.1992188 0.5273438,-0.1992188 0.2402343,0 0.4335937,0.076172 0.5742187,0.2226563 0.140625,0.140625 0.2109375,0.328125 0.2109375,0.5625 0,0.243164 -0.082031,0.4423828 -0.2460937,0.5976562 -0.1582032,0.1494141 -0.3808594,0.2226563 -0.6679688,0.2226563 -0.28125,0 -0.5390625,-0.064453 -0.7734375,-0.1992188 -0.234375,-0.1318359 -0.4277344,-0.3310547 -0.5742187,-0.5976562 -0.140625,-0.2636719 -0.2109375,-0.5888672 -0.2109375,-0.9726563 0,-0.3339844 0.064453,-0.6328125 0.1992187,-0.890625 0.1318359,-0.2636719 0.3164063,-0.46875 0.5507813,-0.609375 0.234375,-0.1464844 0.5039062,-0.2226562 0.8085937,-0.2226562 0.2724609,0 0.5302734,0.064453 0.7734375,0.1875 0.2402344,0.1171875 0.4863281,0.3251953 0.7382813,0.6210937 0.2490234,0.2900391 0.5302734,0.703125 0.8437502,1.2421875 -0.0088,-0.1640625 -0.01758,-0.3515625 -0.02344,-0.5625 -0.0088,-0.2167969 -0.01172,-0.4248047 -0.01172,-0.6210937 V -6.93675 l 0.03516,-0.011719 0.457031,0.328125 0.04687,0.421875 h 0.726563 l 0.351562,0.515625 h -1.07812 v 5.917969 z m 6.041016,0 -0.503907,-0.28125 V -3.0344062 c -0.149414,-0.234375 -0.28125,-0.3925782 -0.398437,-0.4804688 -0.111328,-0.09375 -0.208008,-0.140625 -0.292969,-0.140625 -0.0791,0 -0.158203,0.029297 -0.234375,0.082031 -0.07031,0.046875 -0.152344,0.149414 -0.246094,0.3046875 -0.08789,0.149414 -0.196289,0.375 -0.328125,0.6796875 -0.210937,0.4863281 -0.416015,0.8320312 -0.609375,1.0429687 -0.1875,0.2050781 -0.427734,0.3046875 -0.714843,0.3046875 -0.251953,0 -0.489258,-0.099609 -0.714844,-0.3046875 -0.228516,-0.2021484 -0.451172,-0.5625 -0.667969,-1.078125 l 0.351563,-0.1757812 c 0.164062,0.3046875 0.307617,0.5009765 0.433593,0.5859375 0.123047,0.079101 0.249024,0.1171875 0.375,0.1171875 0.169922,0 0.331055,-0.082031 0.480469,-0.2460938 0.146485,-0.1640625 0.307617,-0.4482422 0.480469,-0.8554687 -0.03223,-0.6328125 -0.196289,-1.0927735 -0.492188,-1.3828125 -0.290039,-0.2871094 -0.676757,-0.4335938 -1.160156,-0.4335938 -0.09375,0 -0.18457,0.00586 -0.269531,0.011719 -0.0791,0 -0.149414,0.00879 -0.210938,0.023437 l -0.785156,-1.21875 h 6.28125 l 0.351563,0.515625 H 16.786211 V 0.235125 Z M 15.262773,-4.5109687 c 0.19336,0 0.375,0.082031 0.539063,0.2460937 0.169922,0.1640625 0.333984,0.3955078 0.492187,0.6914063 -0.01758,-0.178711 -0.0293,-0.3896485 -0.03516,-0.6328125 -0.0088,-0.2490235 -0.01172,-0.4453125 -0.01172,-0.5859375 v -0.890625 h -3.210937 c 0.389648,0.1347656 0.714844,0.3457031 0.972656,0.6328125 0.257813,0.290039 0.404297,0.6796875 0.445313,1.171875 0.09961,-0.1933594 0.199218,-0.3339844 0.292968,-0.421875 0.09961,-0.09375 0.19336,-0.1523438 0.28125,-0.1757813 0.08496,-0.023437 0.164063,-0.035156 0.234375,-0.035156 z m 4.171875,0.8789062 c -0.383789,0 -0.685546,-0.1230469 -0.902343,-0.375 -0.210938,-0.2578125 -0.316407,-0.5537109 -0.316407,-0.890625 0,-0.3808594 0.120118,-0.6943359 0.363282,-0.9375 0.240234,-0.2490234 0.55664,-0.375 0.949218,-0.375 0.38086,0 0.682618,0.1230469 0.902344,0.3632813 0.225586,0.243164 0.339844,0.5449218 0.339844,0.9023437 0,0.3837891 -0.125977,0.7001953 -0.375,0.9492188 -0.251953,0.243164 -0.571289,0.3632812 -0.960938,0.3632812 z M 19.14168,-4.12425 c 0.178711,0 0.354492,-0.058594 0.527343,-0.1757812 0.178711,-0.1230469 0.322266,-0.2753907 0.433594,-0.4570313 0.108399,-0.1875 0.164063,-0.3632812 0.164063,-0.5273437 0,-0.099609 -0.03516,-0.1904297 -0.105469,-0.2695313 -0.06445,-0.076172 -0.158203,-0.1171875 -0.28125,-0.1171875 -0.196289,0 -0.380859,0.058594 -0.550781,0.1757813 -0.172852,0.1113281 -0.313477,0.2548828 -0.421875,0.4335937 -0.111328,0.1728516 -0.164063,0.3603516 -0.164063,0.5625 0,0.1025391 0.03809,0.1933594 0.117188,0.2695313 0.07617,0.070312 0.169922,0.1054687 0.28125,0.1054687 z m 1.78125,4.5 c -0.322266,-0.45996094 -0.629883,-0.84960937 -0.925782,-1.171875 -0.290039,-0.328125 -0.583007,-0.609375 -0.878906,-0.84375 -0.290039,-0.2402344 -0.603515,-0.46875 -0.9375,-0.6796875 L 18.813555,-3.18675 c 0.328125,0.2666016 0.635742,0.5917969 0.925781,0.9726563 0.295898,0.383789 0.56543,0.7910156 0.808594,1.21874995 0.249023,0.421875 0.46289,0.83496094 0.644531,1.23046875 z M 26.63582,0.12965625 26.16707,-0.233625 C 25.815508,-0.83421094 25.393633,-1.31175 24.901445,-1.6633125 24.415117,-2.0207344 23.805742,-2.2433906 23.07332,-2.3312812 l -0.398437,-1.0546875 c 0.257812,0 0.515625,-0.023437 0.773437,-0.070312 0.263672,-0.046875 0.506836,-0.1171875 0.726563,-0.2109375 0.225586,-0.099609 0.404297,-0.2285157 0.539062,-0.3867188 0.131836,-0.1640625 0.199219,-0.3544922 0.199219,-0.5742187 0,-0.225586 -0.05273,-0.421875 -0.152344,-0.5859375 -0.27539,0.3222656 -0.574218,0.5800781 -0.902343,0.7734375 -0.328125,0.196289 -0.667969,0.2929687 -1.019532,0.2929687 -0.172851,0 -0.339843,-0.035156 -0.503906,-0.1054687 -0.164062,-0.070312 -0.301758,-0.178711 -0.410156,-0.328125 -0.102539,-0.1552735 -0.152344,-0.3515625 -0.152344,-0.5859375 0,-0.234375 0.05859,-0.413086 0.175781,-0.5390625 0.117188,-0.1230469 0.28418,-0.1875 0.503907,-0.1875 0.202148,0 0.357421,0.058594 0.46875,0.1757812 0.117187,0.1113281 0.175781,0.2519531 0.175781,0.421875 0,0.140625 -0.02051,0.2519531 -0.05859,0.328125 0.1875,-0.029297 0.413086,-0.1435547 0.679688,-0.3398437 0.27246,-0.2021485 0.55371,-0.506836 0.84375,-0.9140625 0.140625,0.1259765 0.27539,0.2753906 0.410156,0.4453125 0.131836,0.1640625 0.240234,0.3574218 0.328125,0.5742187 0.09375,0.2109375 0.140625,0.4511719 0.140625,0.7148438 0,0.4541015 -0.111328,0.8144531 -0.328125,1.078125 -0.219727,0.2666015 -0.536133,0.4628906 -0.949219,0.5859375 0.404297,0.196289 0.773438,0.4423828 1.101563,0.7382812 0.333984,0.2988281 0.632812,0.6650391 0.890625,1.1015625 V -6.93675 l 0.03516,-0.011719 0.457031,0.328125 0.04687,0.421875 h 0.738281 l 0.339844,0.515625 H 26.694414 V 0.1179375 Z M 28.317461,0.422625 28.059648,0.08278125 c 0.295899,-0.1875 0.509766,-0.40429687 0.644532,-0.65625 0.131836,-0.24902344 0.199218,-0.51855465 0.199218,-0.80859375 0,-0.2167969 -0.04395,-0.4335937 -0.128906,-0.6445312 -0.0791,-0.2167969 -0.172851,-0.4335938 -0.28125,-0.6445313 -0.111328,-0.2167969 -0.205078,-0.4394531 -0.28125,-0.6679687 -0.0791,-0.225586 -0.117187,-0.4570313 -0.117187,-0.6914063 0,-0.3574219 0.09375,-0.6738281 0.28125,-0.9492187 0.1875,-0.272461 0.401367,-0.506836 0.644531,-0.703125 h -1.488281 l -0.339844,-0.515625 h 3.082031 l 0.339844,0.515625 H 29.64168 c -0.172852,0.140625 -0.345703,0.3398437 -0.515625,0.5976562 -0.164063,0.2578125 -0.246094,0.5566406 -0.246094,0.890625 0,0.234375 0.03809,0.4541016 0.117187,0.65625 0.07617,0.2050781 0.169922,0.4072266 0.28125,0.609375 0.108399,0.1962891 0.202149,0.4042969 0.28125,0.6210938 0.07617,0.2197265 0.117188,0.4570312 0.117188,0.7148437 0,0.421875 -0.128906,0.81445313 -0.386719,1.171875 -0.257812,0.3515625 -0.583008,0.6328125 -0.972656,0.84375 z m 3.310547,-0.17578125 -0.503906,-0.28125 V -4.6984687 c -0.05567,-0.272461 -0.137696,-0.5039063 -0.246094,-0.6914063 -0.102539,-0.1933594 -0.251953,-0.2929687 -0.445313,-0.2929687 h -0.07031 l -0.328125,-0.515625 h 0.386719 c 0.131835,0 0.263671,0.058594 0.398437,0.1757812 0.140625,0.1113281 0.251953,0.2900391 0.339844,0.5390625 -0.0088,-0.140625 -0.01758,-0.2724609 -0.02344,-0.3984375 -0.0088,-0.1230469 -0.01172,-0.2138672 -0.01172,-0.2695312 V -6.93675 l 0.03516,-0.011719 0.503906,0.328125 v 6.855469 z m 0,0"
       style="fill:#000000;fill-opacity:1;fill-rule:nonzero;stroke:none"
       aria-label="গণসংখযা"
       transform="matrix(1.3333333,0,0,1.3333333,26.606667,63.124)" />
    <path
       id="path26"
       d="M -12.563,18.202 V 39.721"
       style="fill:none;stroke:#000000;stroke-width:0.3985;stroke-linecap:butt;stroke-linejoin:miter;stroke-miterlimit:10;stroke-dasharray:none;stroke-opacity:1"
       transform="matrix(1.3333333,0,0,-1.3333333,96,96.001333)" />
    <path
       id="path27"
       d="m 0.61007031,7.5e-4 v -0.7265625 l 1.66406249,-1.921875 c 0.3515625,-0.4130859 0.6269531,-0.7675781 0.8320313,-1.0664062 0.2109375,-0.3046875 0.3574218,-0.5917969 0.4453125,-0.8671875 0.09375,-0.272461 0.140625,-0.5625 0.140625,-0.8671875 0,-0.375 -0.082031,-0.6796875 -0.2460938,-0.9140625 -0.1640625,-0.234375 -0.421875,-0.3515625 -0.7734375,-0.3515625 -0.2988281,0 -0.5273437,0.070312 -0.6914062,0.2109375 -0.1582032,0.140625 -0.2666016,0.3251953 -0.328125,0.5507812 -0.055664,0.2197266 -0.082031,0.4628906 -0.082031,0.7265625 -0.234375,0 -0.4394531,-0.041016 -0.60937499,-0.1289062 -0.1640625,-0.09375 -0.24609375,-0.2695313 -0.24609375,-0.5273438 0,-0.3808594 0.1640625,-0.6972656 0.49218754,-0.9492187 0.328125,-0.2490235 0.8144531,-0.375 1.4648437,-0.375 0.6328125,0 1.125,0.1523437 1.4765625,0.4570312 0.3574219,0.2988281 0.5390625,0.7001953 0.5390625,1.2070313 0,0.4628906 -0.1464844,0.9140625 -0.4335937,1.359375 -0.2900391,0.4394531 -0.7001954,0.946289 -1.2304688,1.5234375 L 1.3483516,-0.796125 h 2.296875 c 0.2958984,0 0.4980468,-0.0732422 0.609375,-0.2226562 0.1083984,-0.1552735 0.1875,-0.3310547 0.234375,-0.5273438 l 0.035156,-0.1757812 h 0.421875 L 4.8874141,7.5e-4 Z m 0,0"
       style="fill:#000000;fill-opacity:1;fill-rule:nonzero;stroke:none"
       aria-label="2"
       transform="matrix(1.3333333,0,0,1.3333333,100.68267,63.124)" />
    <path
       id="path28"
       d="M 25.156,18.202 V 39.721"
       style="fill:none;stroke:#000000;stroke-width:0.3985;stroke-linecap:butt;stroke-linejoin:miter;stroke-miterlimit:10;stroke-dasharray:none;stroke-opacity:1"
       transform="matrix(1.3333333,0,0,-1.3333333,96,96.001333)" />
    <path
       id="path29"
       d="m 2.1440234,7.5e-4 v -0.421875 h 0.28125 c 0.2167969,0 0.4042969,-0.0380859 0.5625,-0.1171875 0.1640625,-0.0849609 0.2460938,-0.28417969 0.2460938,-0.5976562 V -1.9562812 H 0.16355469 V -2.3547187 L 3.2455859,-7.1125312 h 0.9492188 v 4.6054687 h 1.2304687 v 0.5507813 H 4.1948047 v 0.8203125 c 0,0.31347651 0.076172,0.51269526 0.234375,0.5976562 0.1640625,0.0791016 0.3574219,0.1171875 0.5859375,0.1171875 H 5.1440234 V 7.5e-4 Z M 0.89011719,-2.5070625 H 3.2338672 v -1.8398437 c 0,-0.1933594 0,-0.413086 0,-0.65625 0.00586,-0.2402344 0.017578,-0.4833985 0.035156,-0.7265625 0.014648,-0.2490235 0.026367,-0.4746094 0.035156,-0.6796875 -0.032227,0.064453 -0.087891,0.1611328 -0.1640625,0.2929687 -0.070312,0.1347656 -0.1523438,0.2783203 -0.2460938,0.4335938 -0.09375,0.1582031 -0.1845703,0.3105468 -0.2695312,0.4570312 -0.087891,0.140625 -0.1582031,0.2548828 -0.2109375,0.3398438 z m 0,0"
       style="fill:#000000;fill-opacity:1;fill-rule:nonzero;stroke:none"
       aria-label="4"
       transform="matrix(1.3333333,0,0,1.3333333,150.97333,63.124)" />
    <path
       id="path30"
       d="M 62.874,18.202 V 39.721"
       style="fill:none;stroke:#000000;stroke-width:0.3985;stroke-linecap:butt;stroke-linejoin:miter;stroke-miterlimit:10;stroke-dasharray:none;stroke-opacity:1"
       transform="matrix(1.3333333,0,0,-1.3333333,96,96.001333)" />
    <path
       id="path31"
       d="m 2.426,0.10621875 c -0.4863281,0 -0.8642578,-0.05566406 -1.1367188,-0.1640625 C 1.0138906,-0.16624219 0.82346094,-0.29807812 0.7150625,-0.45628125 0.60373437,-0.61155469 0.551,-0.76096875 0.551,-0.90159375 0.551,-1.0890937 0.60080469,-1.2326484 0.70334375,-1.3351875 0.80295312,-1.4435859 0.96115625,-1.49925 1.1720937,-1.49925 c 0,0.2900391 0.09668,0.53320313 0.2929688,0.7265625 0.2021484,0.1875 0.5068359,0.28125 0.9140625,0.28125 0.2724609,0 0.515625,-0.0498047 0.7265625,-0.15234375 0.2167969,-0.10839844 0.3896484,-0.28417969 0.515625,-0.52734375 0.1230469,-0.2490234 0.1875,-0.5800781 0.1875,-0.9960937 0,-0.5214844 -0.140625,-0.9140625 -0.421875,-1.171875 -0.2753906,-0.2578125 -0.6386719,-0.3867188 -1.0898438,-0.3867188 -0.3515625,0 -0.6152343,0.023437 -0.7851562,0.070312 -0.1728516,0.046875 -0.3222656,0.099609 -0.4453125,0.1523438 L 0.83225,-3.5734687 1.1486562,-7.1125312 h 3.328125 l 0.046875,1.5 H 4.1017812 L 4.066625,-5.9055 C 4.0431875,-6.046125 3.9992422,-6.1457344 3.9377187,-6.2101875 3.8732656,-6.2805 3.7385,-6.3156562 3.5275625,-6.3156562 H 1.5939687 l -0.1875,2.203125 c 0.099609,-0.029297 0.2460938,-0.064453 0.4335938,-0.1054688 0.1933594,-0.038086 0.4365234,-0.058594 0.7265625,-0.058594 0.4365234,0 0.8232422,0.079102 1.1601562,0.234375 0.3427735,0.1582031 0.6123047,0.3925781 0.8085938,0.703125 0.2021484,0.3046875 0.3046875,0.6972656 0.3046875,1.171875 0,0.4453125 -0.09375,0.8408203 -0.28125,1.1835937 -0.1875,0.34570313 -0.4628906,0.61523438 -0.8203125,0.80859375 -0.3603516,0.18457031 -0.796875,0.28125 -1.3125,0.2812503 z m 0,0"
       style="fill:#000000;fill-opacity:1;fill-rule:nonzero;stroke:none"
       aria-label="5"
       transform="matrix(1.3333333,0,0,1.3333333,201.26533,63.124)" />
    <path
       id="path32"
       d="M 100.593,18.202 V 39.721"
       style="fill:none;stroke:#000000;stroke-width:0.3985;stroke-linecap:butt;stroke-linejoin:miter;stroke-miterlimit:10;stroke-dasharray:none;stroke-opacity:1"
       transform="matrix(1.3333333,0,0,-1.3333333,96,96.001333)" />
    <path
       id="path33"
       d="m 2.9189141,0.10621875 c -0.4394532,0 -0.8320313,-0.12304687 -1.1835938,-0.375 C 1.3896172,-0.51780469 1.1171563,-0.9133125 0.91500781,-1.452375 0.70992969,-1.9972969 0.61032031,-2.7092109 0.61032031,-3.5851875 c 0,-0.46875 0.0498047,-0.9199219 0.15234375,-1.359375 0.10839844,-0.4365234 0.26953124,-0.8232422 0.48046874,-1.1601562 0.2109375,-0.3427735 0.4804688,-0.6123047 0.8085938,-0.8085938 0.3339843,-0.1933594 0.7207031,-0.2929687 1.1601562,-0.2929687 0.5449219,0 0.9550781,0.1054687 1.2304688,0.3164062 0.2724609,0.2109375 0.4101562,0.4541016 0.4101562,0.7265625 0,0.3984375 -0.2548828,0.5976563 -0.7617187,0.5976563 0,-0.328125 -0.067383,-0.6035157 -0.1992188,-0.8320313 -0.1347656,-0.2255859 -0.3603515,-0.3398437 -0.6796875,-0.3398437 -0.5009765,0 -0.8789062,0.2519531 -1.1367187,0.75 -0.2578125,0.4921875 -0.4072266,1.21875 -0.4453125,2.1796875 0.1699218,-0.131836 0.3691406,-0.2490235 0.5976562,-0.3515625 0.225586,-0.1083985 0.5039063,-0.1640625 0.8320313,-0.1640625 0.609375,0 1.0927734,0.1845703 1.453125,0.5507812 0.3662109,0.3603516 0.5507812,0.8554688 0.5507812,1.4882813 0,0.46875 -0.087891,0.8847656 -0.2578125,1.2421875 -0.1728515,0.36035151 -0.4189453,0.64160151 -0.7382812,0.84374995 -0.3134766,0.20214844 -0.6972657,0.3046875 -1.1484375,0.3046875 z m 0.035156,-0.55078125 c 0.3515625,0 0.6210938,-0.13476562 0.8085938,-0.41015625 0.1875,-0.28124995 0.28125,-0.72070315 0.28125,-1.32421875 0,-0.5683594 -0.1025391,-0.984375 -0.3046875,-1.2421875 -0.2050782,-0.2636719 -0.4980469,-0.3984375 -0.8789063,-0.3984375 -0.2578125,0 -0.4980469,0.064453 -0.7148437,0.1875 -0.2109375,0.1259766 -0.3837891,0.2578125 -0.515625,0.3984375 0.00586,0.9931641 0.1289062,1.7080078 0.3632812,2.1445313 0.2402344,0.43066401 0.5625,0.6445312 0.9609375,0.6445312 z m 0,0"
       style="fill:#000000;fill-opacity:1;fill-rule:nonzero;stroke:none"
       aria-label="6"
       transform="matrix(1.3333333,0,0,1.3333333,251.55733,63.124)" />
    <path
       id="path34"
       d="M 138.311,18.202 V 39.721"
       style="fill:none;stroke:#000000;stroke-width:0.3985;stroke-linecap:butt;stroke-linejoin:miter;stroke-miterlimit:10;stroke-dasharray:none;stroke-opacity:1"
       transform="matrix(1.3333333,0,0,-1.3333333,96,96.001333)" />
    <path
       id="path35"
       d="m 2.4255234,0.10621875 c -0.4863281,0 -0.8642578,-0.05566406 -1.1367187,-0.1640625 -0.2753906,-0.10839844 -0.46582033,-0.24023437 -0.57421876,-0.3984375 -0.11132813,-0.15527344 -0.1640625,-0.3046875 -0.1640625,-0.4453125 0,-0.18749995 0.0498047,-0.33105465 0.15234375,-0.43359375 0.0996094,-0.1083984 0.2578125,-0.1640625 0.46875001,-0.1640625 0,0.2900391 0.09668,0.53320313 0.2929687,0.7265625 0.2021485,0.1875 0.506836,0.28125 0.9140625,0.28125 0.272461,0 0.515625,-0.0498047 0.7265625,-0.15234375 0.2167969,-0.10839844 0.3896485,-0.28417969 0.515625,-0.52734375 0.1230469,-0.2490234 0.1875,-0.5800781 0.1875,-0.9960937 0,-0.5214844 -0.140625,-0.9140625 -0.421875,-1.171875 -0.2753906,-0.2578125 -0.6386718,-0.3867188 -1.0898437,-0.3867188 -0.3515625,0 -0.6152344,0.023437 -0.7851563,0.070312 -0.1728515,0.046875 -0.3222656,0.099609 -0.4453125,0.1523438 L 0.83177344,-3.5734687 1.1481797,-7.1125312 h 3.328125 l 0.046875,1.5 H 4.1013047 L 4.0661484,-5.9055 C 4.0427109,-6.046125 3.9987656,-6.1457344 3.9372422,-6.2101875 3.8727891,-6.2805 3.7380234,-6.3156562 3.5270859,-6.3156562 H 1.5934922 l -0.1875,2.203125 c 0.099609,-0.029297 0.2460937,-0.064453 0.4335937,-0.1054688 0.1933594,-0.038086 0.4365235,-0.058594 0.7265625,-0.058594 0.4365235,0 0.8232422,0.079102 1.1601563,0.234375 0.3427734,0.1582031 0.6123047,0.3925781 0.8085937,0.703125 0.2021485,0.3046875 0.3046875,0.6972656 0.3046875,1.171875 0,0.4453125 -0.09375,0.8408203 -0.28125,1.1835937 -0.1875,0.34570313 -0.4628906,0.61523438 -0.8203125,0.80859375 -0.3603515,0.18457031 -0.796875,0.28125 -1.3125,0.2812503 z m 0,0"
       style="fill:#000000;fill-opacity:1;fill-rule:nonzero;stroke:none"
       aria-label="5"
       transform="matrix(1.3333333,0,0,1.3333333,301.848,63.124)" />
    <path
       id="path36"
       d="M 176.03,18.202 V 39.721"
       style="fill:none;stroke:#000000;stroke-width:0.3985;stroke-linecap:butt;stroke-linejoin:miter;stroke-miterlimit:10;stroke-dasharray:none;stroke-opacity:1"
       transform="matrix(1.3333333,0,0,-1.3333333,96,96.001333)" />
    <path
       id="path37"
       d="m 2.2621875,0.10621875 c -0.375,0 -0.6679688,-0.04394531 -0.8789063,-0.12890625 C 1.1723437,-0.10764844 1.0229297,-0.21311719 0.93796875,-0.33909375 0.85886719,-0.47092969 0.82078125,-0.608625 0.82078125,-0.74925 c 0,-0.12304687 0.0292969,-0.22558594 0.09375,-0.3046875 0.0615234,-0.084961 0.12890625,-0.1435547 0.19921875,-0.1757812 0.09375,0.2109375 0.2285156,0.39843745 0.4101562,0.56249995 0.1875,0.15820313 0.4365235,0.234375 0.75,0.234375 0.5449219,0 0.9521485,-0.24609375 1.21875,-0.73828125 0.2636719,-0.4921875 0.413086,-1.2421875 0.4453125,-2.25 -0.149414,0.1816406 -0.3457031,0.3398438 -0.5859375,0.4804688 -0.234375,0.1347656 -0.5273437,0.1992187 -0.8789062,0.1992187 -0.5800781,0 -1.0517578,-0.1669922 -1.4179688,-0.5039062 C 0.68601562,-3.5793281 0.504375,-4.0832344 0.504375,-4.7570625 c 0,-0.4833984 0.0849609,-0.9082031 0.2578125,-1.2773437 0.16992187,-0.366211 0.4130859,-0.6503907 0.7265625,-0.8554688 0.3193359,-0.2109375 0.703125,-0.3164062 1.1484375,-0.3164062 0.4511719,0 0.8496094,0.1171875 1.1953125,0.3515625 0.3515625,0.2285156 0.6240234,0.5859375 0.8203125,1.078125 0.2021484,0.4921875 0.3046875,1.1308593 0.3046875,1.9101562 0,0.5244141 -0.052734,1.0253906 -0.1523438,1.5 -0.09375,0.4775391 -0.2519531,0.9023438 -0.46875,1.2773438 C 4.1254687,-0.71995312 3.8471484,-0.42698437 3.504375,-0.2101875 3.1586719,7.5e-4 2.7455859,0.10621875 2.2621875,0.10621875 Z M 2.6957812,-3.327375 c 0.319336,0 0.5859375,-0.082031 0.796875,-0.2460937 0.2167969,-0.1640625 0.3691407,-0.3515625 0.4570313,-0.5625 -0.017578,-0.890625 -0.140625,-1.5351563 -0.375,-1.9335938 -0.234375,-0.3984375 -0.5478516,-0.5976562 -0.9375,-0.5976562 -0.3457031,0 -0.6152344,0.1582031 -0.8085938,0.46875 -0.196289,0.3046875 -0.2929687,0.75 -0.2929687,1.3359375 0,0.5478515 0.09375,0.9433593 0.28125,1.1835937 0.1933594,0.234375 0.4863281,0.3515625 0.8789062,0.3515625 z m 0,0"
       style="fill:#000000;fill-opacity:1;fill-rule:nonzero;stroke:none"
       aria-label="9"
       transform="matrix(1.3333333,0,0,1.3333333,352.14,63.124)" />
    <path
       id="path38"
       d="M 213.749,18.202 V 39.721"
       style="fill:none;stroke:#000000;stroke-width:0.3985;stroke-linecap:butt;stroke-linejoin:miter;stroke-miterlimit:10;stroke-dasharray:none;stroke-opacity:1"
       transform="matrix(1.3333333,0,0,-1.3333333,96,96.001333)" />
    <path
       id="path39"
       d="m 0.961,7.5e-4 v -0.421875 h 0.6679688 c 0.2167968,0 0.4042968,-0.0380859 0.5625,-0.1171875 0.1640625,-0.0849609 0.2460937,-0.28417969 0.2460937,-0.5976562 v -5.2265625 c -0.2519531,0.3046875 -0.4775391,0.5566406 -0.6796875,0.75 -0.2050781,0.1875 -0.4042969,0.28125 -0.5976562,0.28125 -0.1494141,0 -0.2695313,-0.046875 -0.3632813,-0.140625 -0.09375,-0.099609 -0.140625,-0.234375 -0.140625,-0.3984375 0.20214844,-0.046875 0.4130859,-0.1230469 0.6328125,-0.234375 0.2255859,-0.1083985 0.4980469,-0.2841797 0.8203125,-0.5273438 l 0.703125,-0.515625 H 3.445375 v 6.0117188 c 0,0.31347651 0.076172,0.51269526 0.234375,0.5976562 0.1640625,0.0791016 0.3574219,0.1171875 0.5859375,0.1171875 H 4.7461563 V 7.5e-4 Z m 7.5263672,0.10546875 c -0.4394531,0 -0.8320313,-0.12304687 -1.1835938,-0.375 C 6.9580703,-0.51780469 6.6856094,-0.9133125 6.4834609,-1.452375 6.2783828,-1.9972969 6.1787734,-2.7092109 6.1787734,-3.5851875 c 0,-0.46875 0.049805,-0.9199219 0.1523438,-1.359375 0.1083984,-0.4365234 0.2695312,-0.8232422 0.4804687,-1.1601562 0.2109375,-0.3427735 0.4804688,-0.6123047 0.8085938,-0.8085938 0.3339844,-0.1933594 0.7207031,-0.2929687 1.1601562,-0.2929687 0.5449219,0 0.9550782,0.1054687 1.2304691,0.3164062 0.272461,0.2109375 0.410156,0.4541016 0.410156,0.7265625 0,0.3984375 -0.254883,0.5976563 -0.7617188,0.5976563 0,-0.328125 -0.067383,-0.6035157 -0.1992188,-0.8320313 -0.1347656,-0.2255859 -0.3603515,-0.3398437 -0.6796875,-0.3398437 -0.5009765,0 -0.8789062,0.2519531 -1.1367187,0.75 -0.2578125,0.4921875 -0.4072266,1.21875 -0.4453125,2.1796875 0.1699219,-0.131836 0.3691406,-0.2490235 0.5976562,-0.3515625 0.225586,-0.1083985 0.5039063,-0.1640625 0.8320313,-0.1640625 0.609375,0 1.0927734,0.1845703 1.4531248,0.5507812 0.366211,0.3603516 0.550781,0.8554688 0.550781,1.4882813 0,0.46875 -0.08789,0.8847656 -0.257812,1.2421875 -0.172852,0.36035151 -0.4189454,0.64160151 -0.7382813,0.84374995 -0.3134766,0.20214844 -0.6972656,0.3046875 -1.1484375,0.3046875 z m 0.035156,-0.55078125 c 0.3515625,0 0.6210938,-0.13476562 0.8085938,-0.41015625 0.1875,-0.28124995 0.28125,-0.72070315 0.28125,-1.32421875 0,-0.5683594 -0.1025391,-0.984375 -0.3046875,-1.2421875 -0.2050781,-0.2636719 -0.4980469,-0.3984375 -0.8789063,-0.3984375 -0.2578125,0 -0.4980468,0.064453 -0.7148437,0.1875 -0.2109375,0.1259766 -0.3837891,0.2578125 -0.515625,0.3984375 0.00586,0.9931641 0.1289062,1.7080078 0.3632812,2.1445313 0.2402344,0.43066401 0.5625,0.6445312 0.9609375,0.6445312 z m 0,0"
       style="fill:#000000;fill-opacity:1;fill-rule:nonzero;stroke:none"
       aria-label="16"
       transform="matrix(1.3333333,0,0,1.3333333,398.71867,63.124)" />
    <path
       id="path40"
       d="M 251.467,18.202 V 39.721"
       style="fill:none;stroke:#000000;stroke-width:0.3985;stroke-linecap:butt;stroke-linejoin:miter;stroke-miterlimit:10;stroke-dasharray:none;stroke-opacity:1"
       transform="matrix(1.3333333,0,0,-1.3333333,96,96.001333)" />
    <path
       id="path41"
       d="m 2.2617109,0.10621875 c -0.375,0 -0.6679687,-0.04394531 -0.8789062,-0.12890625 C 1.1718672,-0.10764844 1.0224531,-0.21311719 0.93749219,-0.33909375 0.85839062,-0.47092969 0.82030469,-0.608625 0.82030469,-0.74925 c 0,-0.12304687 0.0292969,-0.22558594 0.09375,-0.3046875 0.0615234,-0.084961 0.12890621,-0.1435547 0.19921871,-0.1757812 0.09375,0.2109375 0.2285157,0.39843745 0.4101563,0.56249995 0.1875,0.15820313 0.4365234,0.234375 0.75,0.234375 0.5449219,0 0.9521484,-0.24609375 1.21875,-0.73828125 0.2636719,-0.4921875 0.4130859,-1.2421875 0.4453125,-2.25 -0.1494141,0.1816406 -0.3457031,0.3398438 -0.5859375,0.4804688 -0.234375,0.1347656 -0.5273438,0.1992187 -0.8789063,0.1992187 -0.5800781,0 -1.0517578,-0.1669922 -1.4179687,-0.5039062 -0.36914064,-0.3339844 -0.55078126,-0.8378907 -0.55078126,-1.5117188 0,-0.4833984 0.0849609,-0.9082031 0.2578125,-1.2773437 0.16992187,-0.366211 0.41308596,-0.6503907 0.72656246,-0.8554688 0.319336,-0.2109375 0.703125,-0.3164062 1.1484375,-0.3164062 0.4511719,0 0.8496094,0.1171875 1.1953125,0.3515625 0.3515625,0.2285156 0.6240235,0.5859375 0.8203125,1.078125 0.2021485,0.4921875 0.3046875,1.1308593 0.3046875,1.9101562 0,0.5244141 -0.052734,1.0253906 -0.1523437,1.5 -0.09375,0.4775391 -0.2519531,0.9023438 -0.46875,1.2773438 C 4.1249922,-0.71995312 3.8466719,-0.42698437 3.5038984,-0.2101875 3.1581953,7.5e-4 2.7451094,0.10621875 2.2617109,0.10621875 Z M 2.6953047,-3.327375 c 0.3193359,0 0.5859375,-0.082031 0.796875,-0.2460937 0.2167969,-0.1640625 0.3691406,-0.3515625 0.4570312,-0.5625 -0.017578,-0.890625 -0.140625,-1.5351563 -0.375,-1.9335938 -0.234375,-0.3984375 -0.5478515,-0.5976562 -0.9375,-0.5976562 -0.3457031,0 -0.6152343,0.1582031 -0.8085937,0.46875 -0.1962891,0.3046875 -0.2929688,0.75 -0.2929688,1.3359375 0,0.5478515 0.09375,0.9433593 0.28125,1.1835937 0.1933594,0.234375 0.4863282,0.3515625 0.8789063,0.3515625 z m 0,0"
       style="fill:#000000;fill-opacity:1;fill-rule:nonzero;stroke:none"
       aria-label="9"
       transform="matrix(1.3333333,0,0,1.3333333,452.72267,63.124)" />
    <path
       id="path42"
       d="M 289.186,18.202 V 39.721"
       style="fill:none;stroke:#000000;stroke-width:0.3985;stroke-linecap:butt;stroke-linejoin:miter;stroke-miterlimit:10;stroke-dasharray:none;stroke-opacity:1"
       transform="matrix(1.3333333,0,0,-1.3333333,96,96.001333)" />
    <path
       id="path43"
       d="m 2.1433203,7.5e-4 v -0.421875 h 0.28125 c 0.2167969,0 0.4042969,-0.0380859 0.5625,-0.1171875 0.1640625,-0.0849609 0.2460938,-0.28417969 0.2460938,-0.5976562 V -1.9562812 H 0.16285156 V -2.3547187 L 3.2448828,-7.1125312 h 0.9492188 v 4.6054687 h 1.2304687 v 0.5507813 H 4.1941016 v 0.8203125 c 0,0.31347651 0.076172,0.51269526 0.234375,0.5976562 0.1640625,0.0791016 0.3574218,0.1171875 0.5859375,0.1171875 H 5.1433203 V 7.5e-4 Z M 0.88941406,-2.5070625 H 3.2331641 v -1.8398437 c 0,-0.1933594 0,-0.413086 0,-0.65625 0.00586,-0.2402344 0.017578,-0.4833985 0.035156,-0.7265625 0.014648,-0.2490235 0.026367,-0.4746094 0.035156,-0.6796875 -0.032227,0.064453 -0.087891,0.1611328 -0.1640625,0.2929687 -0.070312,0.1347656 -0.1523438,0.2783203 -0.2460938,0.4335938 -0.09375,0.1582031 -0.1845703,0.3105468 -0.2695312,0.4570312 -0.087891,0.140625 -0.1582032,0.2548828 -0.2109375,0.3398438 z m 0,0"
       style="fill:#000000;fill-opacity:1;fill-rule:nonzero;stroke:none"
       aria-label="4"
       transform="matrix(1.3333333,0,0,1.3333333,503.01333,63.124)" />
    <path
       id="path44"
       d="M 326.904,18.202 V 39.721"
       style="fill:none;stroke:#000000;stroke-width:0.3985;stroke-linecap:butt;stroke-linejoin:miter;stroke-miterlimit:10;stroke-dasharray:none;stroke-opacity:1"
       transform="matrix(1.3333333,0,0,-1.3333333,96,96.001333)" />
    <path
       id="path45"
       d="M -59.467,18.002 H 327.104"
       style="fill:none;stroke:#000000;stroke-width:0.3985;stroke-linecap:butt;stroke-linejoin:miter;stroke-miterlimit:10;stroke-dasharray:none;stroke-opacity:1"
       transform="matrix(1.3333333,0,0,-1.3333333,96,96.001333)" />
  </g>
</svg>
