<svg xmlns="http://www.w3.org/2000/svg" width="175.88266pt" height="184.61572pt" viewBox="-72 -72 175.88266 184.61572" style="position: absolute; top: 0pt; left: 0pt; overflow: visible;">
<g transform="translate(15.601882934570309,26.787490844726555)">
<g stroke-miterlimit="10" transform="scale(1,-1)"><g stroke="#000" fill="#000">
 <g stroke-width="0.4">
 <path d=" M 0.0 0.0 M 85.35823 0.0 C 85.35823 47.14265 47.14265 85.35823 0.0 85.35823 C -47.14265 85.35823 -85.35823 47.14265 -85.35823 0.0 C -85.35823 -47.14265 -47.14265 -85.35823 0.0 -85.35823 C 47.14265 -85.35823 85.35823 -47.14265 85.35823 0.0 Z M 0.0 0.0  " fill="none"/>
 <path d=" M 0.0 85.35823 L -73.92259 -42.67911  " fill="none"/>
 <path d=" M -73.92259 -42.67911 L 73.92259 -42.67911  " fill="none"/>
 <path d=" M 73.92259 -42.67911 L 0.0 85.35823  " fill="none"/>
 <path d=" M 0.0 0.0 L -73.92259 -42.67911  " fill="none"/>
 <path d=" M 0.0 0.0 L 73.92259 -42.67911  " fill="none"/>
 <path d=" M 0.0 85.35823 M 8.5359 70.57397 C 3.25464 67.52489 -3.25464 67.52489 -8.5359 70.57397  " fill="none"/>
 <path d=" M 0.0 0.0 M 17.24852 -9.95819 C 11.74873 -19.48413 -0.43246 -22.7481 -9.9584 -17.2483 C -12.9853 -15.50085 -15.50107 -12.98509 -17.24852 -9.95819  " fill="none"/>
 <g transform="translate(-3.75,88.8912)">
 <g stroke="none" transform="scale(-1.00375,1.00375)translate(18.93521118164062,26.787490844726555)scale(-1,-1)"><g fill="#000">
 <g stroke="none"> <text alignment-baseline="baseline" y="26.787490844726555" x="18.93521118164062" style="font-family: cmr10;" font-size="10">A</text>
</g> </g>
 </g></g>
 <g transform="translate(-84.53891,-53.0454)">
 <g stroke="none" transform="scale(-1.00375,1.00375)translate(18.93521118164062,26.787490844726555)scale(-1,-1)"><g fill="#000">
 <g stroke="none"> <text alignment-baseline="baseline" y="26.787490844726555" x="18.93521118164062" style="font-family: cmr10;" font-size="10">B</text>
</g> </g>
 </g></g>
 <g transform="translate(77.45557,-53.0454)">
 <g stroke="none" transform="scale(-1.00375,1.00375)translate(18.93521118164062,26.787490844726555)scale(-1,-1)"><g fill="#000">
 <g stroke="none"> <text alignment-baseline="baseline" y="26.787490844726555" x="18.93521118164062" style="font-family: cmr10;" font-size="10">C</text>
</g> </g>
 </g></g>
 <g transform="translate(-3.8889,6.37842)">
 <g stroke="none" transform="scale(-1.00375,1.00375)translate(18.93521118164062,26.787490844726555)scale(-1,-1)"><g fill="#000">
 <g stroke="none"> <text alignment-baseline="baseline" y="26.787490844726555" x="18.93521118164062" style="font-family: cmr10;" font-size="10">O</text>
</g> </g>
 </g></g>
 <g transform="translate(-5.15625,71.1031)">
 <g stroke="none" transform="scale(-1.00375,1.00375)translate(18.93521118164062,26.787490844726555)scale(-1,-1)"><g fill="#000">
 <g stroke="none"> <text alignment-baseline="baseline" y="26.787490844726555" x="18.93521118164062" style="font-family: cmmi10;" font-size="10">x</text>
<text alignment-baseline="baseline" y="23.158569335937496" x="24.650495529174798" style="font-family: cmsy7;" font-size="7">◦</text>
</g> </g>
 </g></g>
 <g transform="translate(-20.15623,-33.79819)">
 <g stroke="none" transform="scale(-1.00375,1.00375)translate(18.93521118164062,26.787490844726555)scale(-1,-1)"><g fill="#000">
 <g stroke="none"> <text alignment-baseline="baseline" y="26.787490844726555" x="18.93521118164062" style="font-family: cmr10;" font-size="10">(</text>
<text alignment-baseline="baseline" y="26.787490844726555" x="22.82411384582519" style="font-family: cmmi10;" font-size="10">x</text>
<text alignment-baseline="baseline" y="26.787490844726555" x="30.761566162109368" style="font-family: cmr10;" font-size="10">+</text>
<text alignment-baseline="baseline" y="26.787490844726555" x="40.76153945922851" style="font-family: cmr10;" font-size="10">20)</text>
<text alignment-baseline="baseline" y="23.158569335937496" x="54.65048027038573" style="font-family: cmsy7;" font-size="7">◦</text>
</g> </g>
 </g></g>
 </g>
 </g>
 </g></g></svg>