<svg xmlns="http://www.w3.org/2000/svg" width="171.1345pt" height="154.53485pt" viewBox="-72 -72 171.1345 154.53485" style="position: absolute; top: 0pt; left: 0pt; overflow: visible;">
<g transform="translate(-57.904052734374986,32.47795104980468)">
<g stroke-miterlimit="10" transform="scale(1,-1)"><g stroke="#000" fill="#000">
 <g stroke-width="0.4">
 <path d=" M 0.0 56.90549 L 142.26372 56.90549  " fill="none"/>
 <path d=" M 0.0 0.0 L 142.26372 0.0  " fill="none"/>
 <path d=" M 14.22636 -34.1432 L 128.03734 91.04869  " fill="none"/>
 <path d=" M 42.67911 0.0 M 28.45274 0.0 C 28.45274 7.8571 34.822 14.22636 42.67911 14.22636 C 46.88388 14.22636 50.87442 12.36555 53.57703 9.14458  " fill="none"/>
 <path d=" M 99.5846 56.90549 M 115.23369 56.90549 C 115.23369 61.98747 112.52151 66.68503 108.1205 69.2259  " fill="none"/>
 <g transform="translate(-11.03297,53.48883)">
 <g stroke="none" transform="scale(-1.00375,1.00375)translate(-54.57072448730467,32.47795104980468)scale(-1,-1)"><g fill="#000">
 <g stroke="none"> <text alignment-baseline="baseline" y="32.47795104980468" x="-54.57072448730467" style="font-family: cmr10;" font-size="10">A</text>
</g> </g>
 </g></g>
 <g transform="translate(145.79669,53.48883)">
 <g stroke="none" transform="scale(-1.00375,1.00375)translate(-54.57072448730467,32.47795104980468)scale(-1,-1)"><g fill="#000">
 <g stroke="none"> <text alignment-baseline="baseline" y="32.47795104980468" x="-54.57072448730467" style="font-family: cmr10;" font-size="10">B</text>
</g> </g>
 </g></g>
 <g transform="translate(-10.7552,-3.41666)">
 <g stroke="none" transform="scale(-1.00375,1.00375)translate(-54.57072448730467,32.47795104980468)scale(-1,-1)"><g fill="#000">
 <g stroke="none"> <text alignment-baseline="baseline" y="32.47795104980468" x="-54.57072448730467" style="font-family: cmr10;" font-size="10">C</text>
</g> </g>
 </g></g>
 <g transform="translate(145.79669,-3.41666)">
 <g stroke="none" transform="scale(-1.00375,1.00375)translate(-54.57072448730467,32.47795104980468)scale(-1,-1)"><g fill="#000">
 <g stroke="none"> <text alignment-baseline="baseline" y="32.47795104980468" x="-54.57072448730467" style="font-family: cmr10;" font-size="10">D</text>
</g> </g>
 </g></g>
 <g transform="translate(96.18181,46.5392)">
 <g stroke="none" transform="scale(-1.00375,1.00375)translate(-54.57072448730467,32.47795104980468)scale(-1,-1)"><g fill="#000">
 <g stroke="none"> <text alignment-baseline="baseline" y="32.47795104980468" x="-54.57072448730467" style="font-family: cmr10;" font-size="10">E</text>
</g> </g>
 </g></g>
 <g transform="translate(46.21208,-10.36629)">
 <g stroke="none" transform="scale(-1.00375,1.00375)translate(-54.57072448730467,32.47795104980468)scale(-1,-1)"><g fill="#000">
 <g stroke="none"> <text alignment-baseline="baseline" y="32.47795104980468" x="-54.57072448730467" style="font-family: cmr10;" font-size="10">F</text>
</g> </g>
 </g></g>
 <g transform="translate(131.57031,94.58167)">
 <g stroke="none" transform="scale(-1.00375,1.00375)translate(-54.57072448730467,32.47795104980468)scale(-1,-1)"><g fill="#000">
 <g stroke="none"> <text alignment-baseline="baseline" y="32.47795104980468" x="-54.57072448730467" style="font-family: cmr10;" font-size="10">P</text>
</g> </g>
 </g></g>
 <g transform="translate(10.33746,-44.50949)">
 <g stroke="none" transform="scale(-1.00375,1.00375)translate(-54.57072448730467,32.47795104980468)scale(-1,-1)"><g fill="#000">
 <g stroke="none"> <text alignment-baseline="baseline" y="32.47795104980468" x="-54.57072448730467" style="font-family: cmr10;" font-size="10">Q</text>
</g> </g>
 </g></g>
 <g transform="translate(32.88048,3.67024)">
 <g stroke="none" transform="scale(-1.00375,1.00375)translate(-54.57072448730467,32.47795104980468)scale(-1,-1)"><g fill="#000">
 <g stroke="none"> <text alignment-baseline="baseline" y="32.47795104980468" x="-54.57072448730467" style="font-family: cmr10;" font-size="10">120</text>
<text alignment-baseline="baseline" y="28.849029541015618" x="-39.570667266845696" style="font-family: cmsy7;" font-size="7">◦</text>
</g> </g>
 </g></g>
 </g>
 </g>
 </g></g></svg>