<svg xmlns="http://www.w3.org/2000/svg" width="142.2651pt" height="98.53038pt" viewBox="-72 -72 142.2651 98.53038" style="position: absolute; top: 0pt; left: 0pt; overflow: visible;">
<g transform="translate(-58.181823730468736,12.561111450195309)">
<g stroke-miterlimit="10" transform="scale(1,-1)"><g stroke="#000" fill="#000">
 <g stroke-width="0.4">
 <path d=" M 0.0 0.0 L 113.81097 0.0  " fill="none"/>
 <path d=" M 113.81097 0.0 L 113.81097 71.13185  " fill="none"/>
 <path d=" M 113.81097 71.13185 L 0.0 0.0  " fill="none"/>
 <path d=" M 113.81097 0.0 M 105.27507 0.0 L 105.27507 8.5359 L 113.81097 8.5359  " fill="none"/>
 <path d=" M 0.0 0.0 M 17.07181 0.0 C 17.07181 3.19861 16.17256 6.3342 14.47778 9.04672  " fill="none"/>
 <g transform="translate(117.34395,74.66483)">
 <g stroke="none" transform="scale(-1.00375,1.00375)translate(-54.84849548339842,12.561111450195309)scale(-1,-1)"><g fill="#000">
 <g stroke="none"> <text alignment-baseline="baseline" y="12.561111450195309" x="-54.84849548339842" style="font-family: cmr10;" font-size="10">A</text>
</g> </g>
 </g></g>
 <g transform="translate(117.34395,-10.36629)">
 <g stroke="none" transform="scale(-1.00375,1.00375)translate(-54.84849548339842,12.561111450195309)scale(-1,-1)"><g fill="#000">
 <g stroke="none"> <text alignment-baseline="baseline" y="12.561111450195309" x="-54.84849548339842" style="font-family: cmr10;" font-size="10">B</text>
</g> </g>
 </g></g>
 <g transform="translate(-10.7552,-3.41666)">
 <g stroke="none" transform="scale(-1.00375,1.00375)translate(-54.84849548339842,12.561111450195309)scale(-1,-1)"><g fill="#000">
 <g stroke="none"> <text alignment-baseline="baseline" y="12.561111450195309" x="-54.84849548339842" style="font-family: cmr10;" font-size="10">C</text>
</g> </g>
 </g></g>
 </g>
 </g>
 </g></g></svg>