<?xml version="1.0" encoding="UTF-8" standalone="no"?>
<!-- Created with Inkscape (http://www.inkscape.org/) -->

<svg
   version="1.1"
   id="svg1"
   width="223.96001"
   height="163.49333"
   viewBox="0 0 223.96001 163.49333"
   sodipodi:docname="upload_iq3lsx5isosmhel2b2die5c3lx.pdf"
   xmlns:inkscape="http://www.inkscape.org/namespaces/inkscape"
   xmlns:sodipodi="http://sodipodi.sourceforge.net/DTD/sodipodi-0.dtd"
   xmlns="http://www.w3.org/2000/svg"
   xmlns:svg="http://www.w3.org/2000/svg">
  <defs
     id="defs1" />
  <sodipodi:namedview
     id="namedview1"
     pagecolor="#ffffff"
     bordercolor="#000000"
     borderopacity="0.25"
     inkscape:showpageshadow="2"
     inkscape:pageopacity="0.0"
     inkscape:pagecheckerboard="0"
     inkscape:deskcolor="#d1d1d1">
    <inkscape:page
       x="0"
       y="0"
       inkscape:label="1"
       id="page1"
       width="223.96001"
       height="163.49333"
       margin="0"
       bleed="0" />
  </sodipodi:namedview>
  <g
     id="g1"
     inkscape:groupmode="layer"
     inkscape:label="1">
    <path
       id="path1"
       d="M 0,85.04042 V 0"
       style="fill:none;stroke:#000000;stroke-width:0.3985;stroke-linecap:butt;stroke-linejoin:miter;stroke-miterlimit:10;stroke-dasharray:none;stroke-opacity:1"
       transform="matrix(1.3333333,0,0,-1.3333333,28.532,138.65867)" />
    <path
       id="path2"
       d="M 0,0 H 127.56062"
       style="fill:none;stroke:#000000;stroke-width:0.3985;stroke-linecap:butt;stroke-linejoin:miter;stroke-miterlimit:10;stroke-dasharray:none;stroke-opacity:1"
       transform="matrix(1.3333333,0,0,-1.3333333,28.532,138.65867)" />
    <path
       id="path3"
       d="M 127.56062,0 0,85.04042"
       style="fill:none;stroke:#000000;stroke-width:0.3985;stroke-linecap:butt;stroke-linejoin:miter;stroke-miterlimit:10;stroke-dasharray:none;stroke-opacity:1"
       transform="matrix(1.3333333,0,0,-1.3333333,28.532,138.65867)" />
    <path
       id="path4"
       d="M 8.50412,0 V 8.50412 H 0"
       style="fill:none;stroke:#000000;stroke-width:0.3985;stroke-linecap:butt;stroke-linejoin:miter;stroke-miterlimit:10;stroke-dasharray:none;stroke-opacity:1"
       transform="matrix(1.3333333,0,0,-1.3333333,28.532,138.65867)" />
    <path
       id="path5"
       d="m 0,68.03218 c 5.68541,0 10.99763,2.84415 14.15112,7.57425"
       style="fill:none;stroke:#000000;stroke-width:0.3985;stroke-linecap:butt;stroke-linejoin:miter;stroke-miterlimit:10;stroke-dasharray:none;stroke-opacity:1"
       transform="matrix(1.3333333,0,0,-1.3333333,28.532,138.65867)" />
    <path
       id="path6"
       d="m 107.71796,0 c 0,3.91638 1.16116,7.74771 3.33326,11.00616"
       style="fill:none;stroke:#000000;stroke-width:0.3985;stroke-linecap:butt;stroke-linejoin:miter;stroke-miterlimit:10;stroke-dasharray:none;stroke-opacity:1"
       transform="matrix(1.3333333,0,0,-1.3333333,28.532,138.65867)" />
    <path
       id="path7"
       d="m 7.1359687,-4.0625e-4 v -0.3046875 H 6.9601875 c -0.5976563,0 -0.7382813,-0.0703125 -0.84375,-0.3984375 L 3.9601875,-6.9379062 C 3.9133125,-7.0668125 3.889875,-7.137125 3.7375312,-7.137125 c -0.1640625,0 -0.1875,0.058594 -0.2460937,0.1992188 l -2.0625,5.9648437 c -0.1757813,0.50390625 -0.57421875,0.65625 -1.11328125,0.66796875 v 0.3046875 L 1.3351875,-0.0355625 2.483625,-4.0625e-4 v -0.3046875 c -0.5039063,0 -0.75,-0.2578125 -0.75,-0.515625 0,-0.0234375 0.011719,-0.12890625 0.023437,-0.140625 L 2.2140937,-2.2738437 h 2.4609375 l 0.5273438,1.52343745 c 0.011719,0.046875 0.023437,0.10546875 0.023437,0.140625 0,0.3046875 -0.5507813,0.3046875 -0.8203125,0.3046875 v 0.3046875 C 4.7570625,-0.0355625 5.4601875,-0.0355625 5.8351875,-0.0355625 Z M 4.5578437,-2.5785312 H 2.3195625 l 1.1132812,-3.234375 z m 0,0"
       style="fill:#000000;fill-opacity:1;fill-rule:nonzero;stroke:none"
       aria-label="A"
       transform="matrix(1.3333333,0,0,1.3333333,13.876,20.578667)" />
    <path
       id="path8"
       d="m 6.4796641,-1.8267891 c 0,-0.8671875 -0.8085938,-1.6054687 -1.921875,-1.7226562 0.9726562,-0.1992188 1.6523437,-0.8320313 1.6523437,-1.5703125 0,-0.8671875 -0.9140625,-1.6875 -2.203125,-1.6875 H 0.36247656 v 0.3164062 h 0.234375 c 0.76171874,0 0.78515624,0.1054688 0.78515624,0.46875 v 5.25000004 c 0,0.3515625 -0.023437,0.46875 -0.78515624,0.46875 h -0.234375 v 0.3046875 H 4.2648203 c 1.3242188,0 2.2148438,-0.890625 2.2148438,-1.82812504 z M 5.2491953,-5.1197578 c 0,0.6328125 -0.4921875,1.4765625 -1.59375,1.4765625 H 2.2140391 v -2.4492188 c 0,-0.328125 0.011719,-0.3984375 0.4804687,-0.3984375 h 1.2421875 c 0.9609375,0 1.3125,0.84375 1.3125,1.3710938 z m 0.234375,3.2929687 c 0,0.703125 -0.515625,1.52343754 -1.5351562,1.52343754 H 2.6945078 c -0.46875,0 -0.4804687,-0.0703125 -0.4804687,-0.3984375 V -3.4205391 h 1.875 c 0.984375,0 1.3945312,0.9257813 1.3945312,1.59375 z m 0,0"
       style="fill:#000000;fill-opacity:1;fill-rule:nonzero;stroke:none"
       aria-label="B"
       transform="matrix(1.3333333,0,0,1.3333333,14.434667,152.424)" />
    <path
       id="path9"
       d="m 6.6206094,-2.3198281 c 0,-0.1054688 0,-0.1757813 -0.1289063,-0.1757813 -0.1054687,0 -0.1054687,0.070312 -0.1171875,0.1640625 -0.082031,1.42968753 -1.1484375,2.23828128 -2.2265625,2.23828128 -0.609375,0 -2.5664062,-0.33984375 -2.5664062,-3.30468748 0,-2.9765625 1.9453125,-3.3164063 2.5546875,-3.3164063 1.078125,0 1.96875,0.9023438 2.1679687,2.3671875 0.023437,0.1289063 0.023437,0.1640625 0.1640625,0.1640625 0.1523438,0 0.1523438,-0.035156 0.1523438,-0.234375 v -2.3671875 c 0,-0.1640625 0,-0.234375 -0.1054688,-0.234375 -0.035156,0 -0.082031,0 -0.1640625,0.1171875 l -0.4921875,0.7382813 c -0.375,-0.3632813 -0.8789062,-0.8554688 -1.8398437,-0.8554688 -1.8632813,0 -3.45703127,1.5820313 -3.45703127,3.609375 0,2.0625 1.60546877,3.63281253 3.45703127,3.63281253 1.6289062,0 2.6015625,-1.38281253 2.6015625,-2.54296873 z m 0,0"
       style="fill:#000000;fill-opacity:1;fill-rule:nonzero;stroke:none"
       aria-label="C"
       transform="matrix(1.3333333,0,0,1.3333333,203.30533,143.19467)" />
    <g
       id="g9"
       aria-label="2x"
       transform="matrix(1.3333333,0,0,1.3333333,40.313333,54.118667)">
      <path
         id="path10"
         d="M 1.265,-0.76282812 2.3196875,-1.7940781 c 1.5585937,-1.3710938 2.15625,-1.9101563 2.15625,-2.90625 0,-1.1367188 -0.9023438,-1.9335938 -2.1210938,-1.9335938 -1.125,0 -1.85156245,0.9140625 -1.85156245,1.8046875 0,0.5507813 0.4921875,0.5507813 0.52734375,0.5507813 0.1640625,0 0.515625,-0.1171875 0.515625,-0.5273438 0,-0.2578125 -0.1875,-0.515625 -0.5273438,-0.515625 -0.0820312,0 -0.1054687,0 -0.1289062,0.011719 0.2226562,-0.6445313 0.7617187,-1.0195313 1.3359375,-1.0195313 0.9140625,0 1.3359375,0.8085938 1.3359375,1.6289063 0,0.796875 -0.4921875,1.5820312 -1.0429688,2.203125 L 0.60875,-0.36439062 C 0.50328125,-0.25892187 0.50328125,-0.23548437 0.50328125,-0.00110937 H 4.1946875 l 0.28125,-1.73437503 H 4.218125 c -0.046875,0.3046875 -0.1171875,0.73828128 -0.2109375,0.89062503 -0.070312,0.0820313 -0.7265625,0.0820313 -0.9492188,0.0820313 z m 0,0"
         style="fill:#000000;fill-opacity:1;fill-rule:nonzero;stroke:none" />
      <path
         id="path11"
         d="m 8.3079687,-3.0128281 c 0.058594,-0.2578125 0.2929688,-1.171875 0.984375,-1.171875 0.046875,0 0.2929688,0 0.5039063,0.1289062 -0.28125,0.046875 -0.4804688,0.3046875 -0.4804688,0.5390625 0,0.1640625 0.1054688,0.3515625 0.375,0.3515625 0.2226563,0 0.5390628,-0.1875 0.5390628,-0.5859375 0,-0.515625 -0.5859378,-0.65625 -0.9257815,-0.65625 -0.5742188,0 -0.9257813,0.5273438 -1.0429688,0.7617188 -0.2578125,-0.65625 -0.7851562,-0.7617188 -1.078125,-0.7617188 -1.0429687,0 -1.6054687,1.2890625 -1.6054687,1.5351563 0,0.1054687 0.1054687,0.1054687 0.1171875,0.1054687 0.082031,0 0.1171875,-0.023437 0.1289062,-0.1171875 0.3398438,-1.0546875 0.9960938,-1.3007812 1.3359375,-1.3007812 0.1875,0 0.5390625,0.09375 0.5390625,0.6679687 0,0.3046875 -0.1640625,0.9726563 -0.5390625,2.3671875 -0.1523437,0.62109378 -0.5039062,1.04296878 -0.9492187,1.04296878 -0.058594,0 -0.28125,0 -0.4921875,-0.12890625 0.2460937,-0.0585938 0.46875,-0.26953125 0.46875,-0.5390625 0,-0.26953123 -0.2226563,-0.35156253 -0.375,-0.35156253 -0.2929688,0 -0.5390625,0.25781253 -0.5390625,0.57421878 0,0.45703125 0.4921875,0.65625 0.9375,0.65625 0.65625,0 1.0078125,-0.69140625 1.0429687,-0.75 0.1171875,0.36328125 0.4804688,0.75 1.078125,0.75 1.0195313,0 1.59375,-1.27734378 1.59375,-1.53515628 0,-0.09375 -0.09375,-0.09375 -0.1289062,-0.09375 -0.082031,0 -0.1054688,0.035156 -0.1289063,0.1054688 -0.328125,1.06640623 -0.9960937,1.31249998 -1.3242187,1.31249998 -0.3867188,0 -0.5390625,-0.328125 -0.5390625,-0.65625 0,-0.22265625 0.058594,-0.44531248 0.1640625,-0.87890628 z m 0,0"
         style="fill:#000000;fill-opacity:1;fill-rule:nonzero;stroke:none" />
    </g>
    <path
       id="path12"
       d="m 3.3287656,-3.0119219 c 0.058594,-0.2578125 0.2929688,-1.171875 0.984375,-1.171875 0.046875,0 0.2929688,0 0.5039063,0.1289063 -0.28125,0.046875 -0.4804688,0.3046875 -0.4804688,0.5390625 0,0.1640625 0.1054688,0.3515625 0.375,0.3515625 0.2226563,0 0.5390625,-0.1875 0.5390625,-0.5859375 0,-0.515625 -0.5859375,-0.65625 -0.9257812,-0.65625 -0.5742188,0 -0.9257813,0.5273437 -1.0429688,0.7617187 -0.2578125,-0.65625 -0.7851562,-0.7617187 -1.078125,-0.7617187 -1.0429687,0 -1.60546872,1.2890625 -1.60546872,1.5351562 0,0.1054688 0.10546875,0.1054688 0.1171875,0.1054688 0.0820313,0 0.1171875,-0.023437 0.12890625,-0.1171875 0.33984377,-1.0546875 0.99609377,-1.3007813 1.33593747,-1.3007813 0.1875,0 0.5390625,0.09375 0.5390625,0.6679688 0,0.3046875 -0.1640625,0.9726562 -0.5390625,2.3671875 -0.1523437,0.62109373 -0.5039062,1.04296873 -0.9492187,1.04296873 -0.058594,0 -0.28125002,0 -0.49218752,-0.12890625 0.24609375,-0.0585938 0.46875002,-0.26953125 0.46875002,-0.5390625 0,-0.26953128 -0.22265627,-0.35156248 -0.37500002,-0.35156248 -0.29296875,0 -0.5390625,0.25781248 -0.5390625,0.57421873 0,0.45703125 0.4921875,0.65625 0.93750002,0.65625 0.65625,0 1.0078125,-0.69140625 1.0429687,-0.75 0.1171875,0.36328125 0.4804688,0.75 1.078125,0.75 1.0195313,0 1.59375,-1.27734373 1.59375,-1.53515623 0,-0.09375 -0.09375,-0.09375 -0.1289062,-0.09375 -0.082031,0 -0.1054688,0.035156 -0.1289063,0.1054687 -0.328125,1.06640628 -0.9960937,1.31250003 -1.3242187,1.31250003 -0.3867188,0 -0.5390625,-0.328125 -0.5390625,-0.65625 0,-0.22265625 0.058594,-0.44531253 0.1640625,-0.87890623 z m 0,0"
       style="fill:#000000;fill-opacity:1;fill-rule:nonzero;stroke:none"
       aria-label="x"
       transform="matrix(1.3333333,0,0,1.3333333,153.24133,128.28933)" />
    <path
       id="path13"
       d="M 3.3983281,-1.59325 H 0.10535937 v -0.7734375 l 3.23437503,-4.78125 h 0.9140625 v 4.7460938 h 1.03125 V -1.59325 h -1.03125 V 5e-4 H 3.3983281 Z m 0,-0.8085937 v -1.734375 c 0,-0.2402344 0.00293,-0.4951172 0.011719,-0.7617188 0.00586,-0.2724609 0.014648,-0.5273437 0.023437,-0.7617187 0.014648,-0.234375 0.023437,-0.4248047 0.023437,-0.5742188 h -0.035156 c -0.046875,0.1259766 -0.1142578,0.2753906 -0.1992187,0.4453125 -0.087891,0.1728516 -0.1699219,0.3164063 -0.2460938,0.4335938 l -2.00390623,2.953125 z m 8.2207029,-3.796875 v 0.7148437 h -0.199219 c -0.210937,0.046875 -0.439453,0.1494141 -0.679687,0.3046875 -0.234375,0.1582031 -0.457031,0.3603516 -0.667969,0.609375 -0.2109373,0.2431641 -0.3867185,0.5332031 -0.5273435,0.8671875 -0.1347656,0.328125 -0.1992188,0.6914063 -0.1992188,1.0898438 0,0.477539 0.070312,0.8613281 0.2109375,1.1484375 0.140625,0.28125 0.3164063,0.4804687 0.5273438,0.5976562 0.216797,0.1171875 0.433594,0.17578125 0.644531,0.17578125 0.164063,0 0.298828,-0.0146484 0.410156,-0.046875 0.117188,-0.0292969 0.249024,-0.0878906 0.398438,-0.17578125 l 0.351562,0.609375 c -0.18164,0.13476563 -0.37207,0.22851563 -0.574218,0.28125 -0.205078,0.04394531 -0.410157,0.0703125 -0.621094,0.0703125 -0.421875,0 -0.7939453,-0.10839844 -1.1132813,-0.328125 -0.3222656,-0.21679687 -0.571289,-0.52148437 -0.75,-0.9140625 C 8.6483281,-1.59325 8.5604375,-2.0561406 8.5604375,-2.5893437 c 0,-0.506836 0.076172,-0.9609375 0.234375,-1.359375 0.1640625,-0.4042969 0.375,-0.7558594 0.6328125,-1.0546875 0.2636719,-0.3046875 0.5507812,-0.553711 0.855469,-0.75 0.310547,-0.1933594 0.609375,-0.3427735 0.890625,-0.4453125 z m 6.788086,0 V -5.483875 H 17.364148 V 5e-4 H 16.60243 v -3.1757812 c -0.149414,-0.178711 -0.28125,-0.3164063 -0.398438,-0.4101563 -0.117187,-0.099609 -0.231445,-0.1523437 -0.339844,-0.1523437 -0.09375,0 -0.18457,0.029297 -0.269531,0.082031 -0.0791,0.055664 -0.169922,0.1582031 -0.269531,0.3046875 -0.09375,0.1494141 -0.222656,0.375 -0.386719,0.6796875 -0.18164,0.328125 -0.345703,0.5976563 -0.492187,0.8085938 -0.149414,0.2050781 -0.304688,0.3574218 -0.46875,0.4570312 -0.158203,0.09375 -0.351563,0.140625 -0.585938,0.140625 -0.266601,0 -0.521484,-0.082031 -0.761719,-0.2460937 -0.234375,-0.1699219 -0.489257,-0.4746094 -0.761718,-0.9140625 l 0.609375,-0.375 c 0.178711,0.3222656 0.328125,0.5332031 0.445312,0.6328125 0.117188,0.09375 0.246094,0.140625 0.386719,0.140625 0.140625,0 0.275391,-0.052734 0.410156,-0.1640625 0.131836,-0.1171875 0.292969,-0.3310547 0.480469,-0.6445313 -0.06445,-0.4130859 -0.134766,-0.7412109 -0.210938,-0.984375 -0.07031,-0.2402344 -0.18457,-0.4335937 -0.339843,-0.5742187 -0.164063,-0.1464844 -0.392578,-0.2607422 -0.679688,-0.3398438 -0.28125,-0.076172 -0.641601,-0.1435547 -1.078125,-0.1992187 L 12.00868,-5.483875 h -0.597657 v -0.7148437 z m -5.824219,0.7148437 c 0.506836,0.070312 0.905274,0.1816406 1.195313,0.328125 0.287109,0.140625 0.498047,0.3398438 0.632812,0.5976563 0.131836,0.2519531 0.213868,0.5800781 0.246094,0.984375 0.164063,-0.3427735 0.322266,-0.5771485 0.480469,-0.703125 0.155273,-0.131836 0.328125,-0.1992188 0.515625,-0.1992188 0.178711,0 0.342773,0.043945 0.492187,0.1289063 0.146485,0.087891 0.307618,0.2167968 0.480469,0.3867187 -0.01758,-0.099609 -0.02344,-0.2021484 -0.02344,-0.3046875 0,-0.099609 0,-0.1992187 0,-0.2929687 V -5.483875 Z m 8.481446,-0.7148437 V -5.483875 H 20.009656 V 5e-4 h -0.761719 v -5.484375 h -1.042968 v -0.7148437 h 0.925781 c -0.111328,-0.1230469 -0.219727,-0.2578125 -0.328125,-0.3984375 -0.111328,-0.140625 -0.208008,-0.2753907 -0.292969,-0.4101563 0.225586,-0.3984375 0.46875,-0.7558594 0.726563,-1.078125 0.257812,-0.3193359 0.5625,-0.5742187 0.914062,-0.7617187 0.351563,-0.1875 0.776367,-0.28125 1.277344,-0.28125 0.46875,0 0.914062,0.079102 1.335937,0.234375 0.421875,0.149414 0.837891,0.3603515 1.253907,0.6328125 0.421875,0.2753906 0.858398,0.6035156 1.3125,0.984375 l -0.410157,0.5390625 c -0.46289,-0.375 -0.875976,-0.6826172 -1.242187,-0.9257813 -0.369141,-0.2490234 -0.720703,-0.4335937 -1.054688,-0.5507812 -0.336914,-0.1230469 -0.697265,-0.1875 -1.078125,-0.1875 -0.547851,0 -0.990234,0.140625 -1.324218,0.421875 -0.328125,0.2753906 -0.615235,0.6328125 -0.855469,1.078125 0.05273,0.102539 0.128906,0.2109375 0.222656,0.328125 0.09375,0.1171875 0.199219,0.243164 0.316406,0.375 z m 6.190429,0 V -5.483875 H 26.211805 V 5e-4 H 25.450086 V -1.0893437 C 25.230359,-1.3998906 25.010633,-1.687 24.793836,-1.9448125 24.574109,-2.202625 24.342664,-2.4077031 24.10243,-2.5659062 c -0.243164,-0.1552735 -0.503907,-0.234375 -0.785157,-0.234375 -0.251953,0 -0.46289,0.064453 -0.632812,0.1875 -0.164063,0.1259765 -0.246094,0.3164062 -0.246094,0.5742187 0,0.2197266 0.07617,0.4042969 0.234375,0.5507813 0.164063,0.149414 0.401367,0.2783203 0.714844,0.3867187 l -0.257813,0.76171875 c -0.539062,-0.19335937 -0.925781,-0.43945312 -1.160156,-0.73828125 -0.234375,-0.3046875 -0.351562,-0.6357422 -0.351562,-0.9960937 0,-0.319336 0.07617,-0.5859375 0.234375,-0.796875 0.155273,-0.2109375 0.351562,-0.3691407 0.585937,-0.4804688 0.234375,-0.1083984 0.462891,-0.1640625 0.691406,-0.1640625 -0.04687,-0.4599609 -0.208007,-0.7910156 -0.480468,-0.9960937 -0.266602,-0.2109375 -0.703125,-0.3457032 -1.3125,-0.4101563 l 0.105468,-0.5625 h -0.585937 v -0.7148437 z m -1.804687,0.7148437 h -3.328125 c 0.544922,0.070312 0.975586,0.2753906 1.289062,0.609375 0.319336,0.3369141 0.495118,0.8261719 0.527344,1.4648438 0.328125,0.102539 0.612305,0.2636718 0.855469,0.4804687 0.249023,0.2197266 0.47168,0.46875 0.667969,0.75 -0.0088,-0.099609 -0.01172,-0.2021484 -0.01172,-0.3046875 0,-0.099609 0,-0.2050781 0,-0.3164062 z m 0,0"
       style="fill:#000000;fill-opacity:1;fill-rule:nonzero;stroke:none"
       aria-label="4েসিম"
       transform="matrix(0,-1.3333333,1.3333333,0,23.249333,122.88267)" />
  </g>
</svg>
