<?xml version="1.0" encoding="UTF-8" standalone="no"?>
<!-- Created with Inkscape (http://www.inkscape.org/) -->

<svg
   version="1.1"
   id="svg1"
   width="293.23999"
   height="85.546669"
   viewBox="0 0 293.23999 85.546669"
   sodipodi:docname="upload_6rsowi366jcwxjhz7z3hfbxw62.pdf"
   xmlns:inkscape="http://www.inkscape.org/namespaces/inkscape"
   xmlns:sodipodi="http://sodipodi.sourceforge.net/DTD/sodipodi-0.dtd"
   xmlns="http://www.w3.org/2000/svg"
   xmlns:svg="http://www.w3.org/2000/svg">
  <defs
     id="defs1" />
  <sodipodi:namedview
     id="namedview1"
     pagecolor="#ffffff"
     bordercolor="#000000"
     borderopacity="0.25"
     inkscape:showpageshadow="2"
     inkscape:pageopacity="0.0"
     inkscape:pagecheckerboard="0"
     inkscape:deskcolor="#d1d1d1">
    <inkscape:page
       x="0"
       y="0"
       inkscape:label="1"
       id="page1"
       width="293.23999"
       height="85.546669"
       margin="0"
       bleed="0" />
  </sodipodi:namedview>
  <g
     id="g1"
     inkscape:groupmode="layer"
     inkscape:label="1">
    <path
       id="path1"
       d="m -59.467,61.838 h 197.43"
       style="fill:none;stroke:#000000;stroke-width:0.3985;stroke-linecap:butt;stroke-linejoin:miter;stroke-miterlimit:10;stroke-dasharray:none;stroke-opacity:1"
       transform="matrix(1.3333333,0,0,-1.3333333,96,96.001333)" />
    <path
       id="path2"
       d="M -59.268,40.12 V 61.639"
       style="fill:none;stroke:#000000;stroke-width:0.3985;stroke-linecap:butt;stroke-linejoin:miter;stroke-miterlimit:10;stroke-dasharray:none;stroke-opacity:1"
       transform="matrix(1.3333333,0,0,-1.3333333,96,96.001333)" />
    <path
       id="path3"
       d="m 2.7550234,0.14138281 c -0.3691406,0 -0.7148437,-0.12304687 -1.0429687,-0.36328125 C 1.3897891,-0.46213281 1.1290469,-0.81955469 0.92689844,-1.2883047 0.73060937,-1.7629141 0.63392969,-2.3371328 0.63392969,-3.0109609 c 0,-0.3984375 0.0527344,-0.7851563 0.1640625,-1.1601563 0.1171875,-0.3808594 0.28417971,-0.7265625 0.50390621,-1.03125 0.225586,-0.3046875 0.4980469,-0.5449219 0.8203125,-0.7265625 0.328125,-0.1787109 0.694336,-0.2695312 1.1015625,-0.2695312 h 0.5976563 l 0.3398437,0.515625 h -0.46875 c -0.336914,0 -0.6533203,0.082031 -0.9492187,0.2460937 -0.2900391,0.1582031 -0.5449219,0.3808594 -0.7617188,0.6679688 -0.2197265,0.28125 -0.3925781,0.6064453 -0.515625,0.9726562 -0.1259765,0.3691406 -0.1875,0.7587891 -0.1875,1.171875 0,0.4628906 0.073242,0.890625 0.2226563,1.2890625 0.1464844,0.39843751 0.4013672,0.70312501 0.7617187,0.91406251 -0.070312,-0.12304687 -0.1054687,-0.26367187 -0.1054687,-0.421875 0,-0.20214841 0.064453,-0.36328121 0.1992187,-0.48046871 0.140625,-0.1171875 0.3105469,-0.1757813 0.515625,-0.1757813 0.2490235,0 0.4394532,0.079102 0.5742188,0.234375 0.1318359,0.1582031 0.1992187,0.34570314 0.1992187,0.56250001 0,0.2578125 -0.079101,0.46582032 -0.234375,0.62109375 -0.149414,0.14648438 -0.3691406,0.22265625 -0.65625,0.22265625 z M 10.249164,0.17653906 9.7804141,-0.18674219 C 9.6163516,-0.43576562 9.4112734,-0.60275781 9.1710391,-0.69064844 8.927875,-0.77560937 8.6847109,-0.81955469 8.4444766,-0.81955469 c -0.3603516,0 -0.7001954,0.0234375 -1.0195313,0.0703125 -0.3134766,0.046875 -0.6445312,0.0703125 -0.9960937,0.0703125 -0.3691407,0 -0.6914063,-0.0498047 -0.9726563,-0.15234375 C 5.1749453,-0.93967187 4.9522891,-1.1271719 4.7882266,-1.3937734 4.6241641,-1.6662344 4.5421328,-2.0383047 4.5421328,-2.5070547 c 0,-0.2021484 0.014648,-0.4042969 0.046875,-0.609375 0.029297,-0.2021484 0.061523,-0.375 0.09375,-0.515625 l 0.4335938,0.09375 c -0.070312,0.3046875 -0.1054688,0.5800781 -0.1054688,0.8203125 0,0.4160156 0.1289063,0.7089844 0.3867188,0.8789063 0.2578125,0.1728515 0.6152343,0.2578125 1.078125,0.2578125 0.3574218,0 0.6708984,-0.014649 0.9375,-0.046875 0.2724609,-0.038086 0.5332031,-0.058594 0.7851562,-0.058594 0.3105469,0 0.609375,0.070312 0.890625,0.2109375 0.28125,0.1347656 0.5185547,0.3720703 0.7148438,0.71484376 -0.017578,-0.16992187 -0.029297,-0.34277346 -0.035156,-0.51562496 -0.00879,-0.1699219 -0.011719,-0.3427735 -0.011719,-0.515625 V -4.1945547 C 9.490375,-4.6633047 9.2706484,-5.0031484 9.1007266,-5.2140859 8.9366641,-5.4250234 8.740375,-5.5304922 8.5147891,-5.5304922 c -0.1347657,0 -0.2519532,0.052734 -0.3515625,0.1523438 -0.1025391,0.09375 -0.2109375,0.2226562 -0.328125,0.3867187 0.375,0.2050781 0.6503906,0.4306641 0.8320312,0.6796875 0.1787109,0.2519531 0.2695313,0.5039063 0.2695313,0.7617188 0,0.2666015 -0.070312,0.4628906 -0.2109375,0.5859375 -0.140625,0.1171875 -0.3222657,0.1757812 -0.5390625,0.1757812 -0.2109375,0 -0.4042969,-0.064453 -0.5742188,-0.1992187 -0.1640625,-0.140625 -0.2783203,-0.3515625 -0.3398437,-0.6328125 -0.064453,0.2578125 -0.1757813,0.4628906 -0.3398438,0.609375 -0.1582031,0.149414 -0.3515625,0.2226562 -0.5859375,0.2226562 -0.1640625,0 -0.328125,-0.052734 -0.4921875,-0.1640625 -0.1582031,-0.1171875 -0.234375,-0.3164062 -0.234375,-0.5976562 0,-0.2402344 0.087891,-0.5097657 0.2695313,-0.8085938 C 6.0685,-4.6545156 6.3995547,-4.9123281 6.8858828,-5.1320547 6.7130312,-5.3195547 6.5460391,-5.4543203 6.3819766,-5.5422109 6.2237734,-5.6359609 6.021625,-5.6828359 5.7726016,-5.6828359 H 3.9210391 l -0.3398438,-0.515625 h 2.1796875 c 0.2021484,0 0.375,0.029297 0.515625,0.082031 0.140625,0.055664 0.2753906,0.140625 0.4101563,0.2578125 0.1318359,0.1171875 0.2753906,0.2666016 0.4335937,0.4453125 0.234375,-0.3105469 0.4482422,-0.5302734 0.6445313,-0.65625 0.1933593,-0.1318359 0.3925781,-0.1992187 0.5976562,-0.1992187 0.3046875,0 0.5566406,0.1289062 0.7617188,0.3867187 0.2109375,0.2519531 0.4248046,0.5742188 0.6445312,0.9726563 -0.00879,-0.1552735 -0.011719,-0.3544922 -0.011719,-0.5976563 0,-0.2490234 0,-0.4570312 0,-0.6210937 v -0.8085938 l 0.046875,-0.011719 0.4570317,0.328125 0.03516,0.421875 h 0.738281 l 0.351563,0.515625 h -1.089844 v 5.84765621 z m 2.150391,0.0703125 -0.503907,-0.28125 V -5.6828359 H 11.13393 l -0.328125,-0.515625 h 1.019531 c -0.149414,-0.131836 -0.292969,-0.2695313 -0.433594,-0.4101563 -0.134765,-0.140625 -0.266601,-0.2841797 -0.398437,-0.4335937 0.263672,-0.6708985 0.632812,-1.1894532 1.101562,-1.5585938 0.46875,-0.375 0.990235,-0.5625 1.570313,-0.5625 0.427734,0 0.858398,0.099609 1.289062,0.2929688 0.427735,0.1875 0.84668,0.4453125 1.253906,0.7734375 0.404297,0.328125 0.779297,0.6914062 1.125,1.0898437 l -0.234375,0.2226563 c -0.439453,-0.4277344 -0.84375,-0.7617188 -1.21875,-0.9960938 -0.375,-0.2402344 -0.726562,-0.4130859 -1.054687,-0.515625 -0.328125,-0.099609 -0.641602,-0.1523437 -0.9375,-0.1523437 -0.328125,0 -0.638672,0.079102 -0.925781,0.234375 -0.290039,0.1582031 -0.533203,0.3574218 -0.726563,0.5976562 -0.1875,0.2431641 -0.313476,0.4921875 -0.375,0.75 0.08496,0.1259766 0.158203,0.2460938 0.222656,0.3632813 0.07031,0.1113281 0.146485,0.2109375 0.234375,0.3046875 h 0.855469 l 0.351563,0.515625 h -1.089844 v 5.91796871 z m 5.613281,0 -0.503906,-0.28125 V -3.5265859 c -0.290039,-0.4833985 -0.550782,-0.8554688 -0.785157,-1.1132813 -0.228515,-0.2578125 -0.451171,-0.4365234 -0.667968,-0.5390625 -0.219727,-0.099609 -0.462891,-0.1523437 -0.726563,-0.1523437 -0.322265,0 -0.594726,0.09082 -0.820312,0.2695312 -0.228516,0.1728516 -0.339844,0.4277344 -0.339844,0.7617188 0,0.4160156 0.143555,0.6738281 0.433594,0.7734375 -0.0088,-0.038086 -0.01172,-0.076172 -0.01172,-0.1171875 0,-0.2109375 0.06445,-0.3808594 0.199219,-0.515625 0.140625,-0.131836 0.316406,-0.1992188 0.527343,-0.1992188 0.240235,0 0.433594,0.076172 0.574219,0.2226563 0.140625,0.140625 0.210938,0.328125 0.210938,0.5625 0,0.243164 -0.08203,0.4423828 -0.246094,0.5976562 -0.158203,0.1494141 -0.380859,0.2226563 -0.667969,0.2226563 -0.28125,0 -0.539062,-0.064453 -0.773437,-0.1992188 -0.234375,-0.1318359 -0.427735,-0.3310547 -0.574219,-0.5976562 -0.140625,-0.2636719 -0.210938,-0.5888672 -0.210938,-0.9726563 0,-0.3339844 0.06445,-0.6328125 0.199219,-0.890625 0.131836,-0.2636719 0.316406,-0.46875 0.550781,-0.609375 0.234375,-0.1464844 0.503907,-0.2226562 0.808594,-0.2226562 0.272461,0 0.530274,0.064453 0.773438,0.1875 0.240234,0.1171875 0.486328,0.3251953 0.738281,0.6210937 0.249023,0.2900391 0.530273,0.703125 0.84375,1.2421875 -0.0088,-0.1640625 -0.01758,-0.3515625 -0.02344,-0.5625 -0.0088,-0.2167969 -0.01172,-0.4248047 -0.01172,-0.6210937 v -1.5585938 l 0.03516,-0.011719 0.457031,0.328125 0.04687,0.421875 h 0.726563 l 0.351562,0.515625 h -1.078125 v 5.91796871 z m 0,0"
       style="fill:#000000;fill-opacity:1;fill-rule:nonzero;stroke:none"
       aria-label="েশিণ"
       transform="matrix(1.3333333,0,0,1.3333333,34.158667,33.901333)" />
    <path
       id="path4"
       d="M -14.655,40.12 V 61.639"
       style="fill:none;stroke:#000000;stroke-width:0.3985;stroke-linecap:butt;stroke-linejoin:miter;stroke-miterlimit:10;stroke-dasharray:none;stroke-opacity:1"
       transform="matrix(1.3333333,0,0,-1.3333333,96,96.001333)" />
    <path
       id="path5"
       d="m 2.7651094,-0.11642969 c -0.2578125,0 -0.4980469,-0.0380859 -0.7148438,-0.1171875 C 1.8393281,-0.31857812 1.6664766,-0.44748437 1.5346406,-0.62033594 1.399875,-0.79904687 1.3354219,-1.0246328 1.3354219,-1.3000234 c 0,-0.2578125 0.073242,-0.4716797 0.2226562,-0.6445313 0.1464844,-0.1787109 0.3515625,-0.2695312 0.609375,-0.2695312 0.225586,0 0.4013672,0.067383 0.5273438,0.1992187 0.1318359,0.1347656 0.1992187,0.3017578 0.1992187,0.5039063 0,0.1347656 -0.029297,0.2578125 -0.082031,0.375 -0.055664,0.1113281 -0.1376953,0.18749996 -0.2460938,0.23437496 0.09375,0.0322266 0.2021485,0.046875 0.328125,0.046875 0.3515625,0 0.6386719,-0.09375 0.8671875,-0.28124996 0.234375,-0.1933594 0.3515625,-0.459961 0.3515625,-0.796875 0,-0.3427735 -0.1171875,-0.6240235 -0.3515625,-0.84375 C 3.5326875,-2.9933828 3.13425,-3.2277578 2.5658906,-3.4797109 2.0268281,-3.7052969 1.5961641,-3.9513906 1.2768281,-4.2179922 0.9545625,-4.4904531 0.79635938,-4.8332266 0.79635938,-5.2492422 c 0,-0.28125 0.0761719,-0.5097656 0.23437502,-0.6914062 0.1552734,-0.178711 0.375,-0.2695313 0.65625,-0.2695313 0.2021484,0 0.3574219,0.058594 0.46875,0.1757813 0.1171875,0.1171875 0.1757812,0.2636718 0.1757812,0.4335937 0,0.1728516 -0.052734,0.3222656 -0.1523437,0.4453125 -0.09375,0.1171875 -0.2402344,0.1757813 -0.4335938,0.1757813 0.038086,0.1347656 0.140625,0.2753906 0.3046875,0.421875 0.1640625,0.140625 0.4335938,0.3105468 0.8085938,0.5039062 0.3515625,0.1816406 0.6503906,0.3632813 0.9023437,0.5507813 0.2578125,0.1875 0.4570313,0.4042968 0.5976563,0.6445312 0.1464844,0.2431641 0.2226562,0.5361328 0.2226562,0.8789063 0,0.5478515 -0.1611328,0.99609371 -0.4804687,1.34765621 -0.3134766,0.34570313 -0.7587891,0.515625 -1.3359375,0.515625 z m 5.2294922,0 c -0.2578125,0 -0.4980469,-0.0380859 -0.7148438,-0.1171875 C 7.0688203,-0.31857812 6.8959688,-0.44748437 6.7641328,-0.62033594 6.6293672,-0.79904687 6.5649141,-1.0246328 6.5649141,-1.3000234 c 0,-0.2578125 0.073242,-0.4716797 0.2226562,-0.6445313 0.1464844,-0.1787109 0.3515625,-0.2695312 0.609375,-0.2695312 0.225586,0 0.4013672,0.067383 0.5273438,0.1992187 0.1318359,0.1347656 0.1992187,0.3017578 0.1992187,0.5039063 0,0.1347656 -0.029297,0.2578125 -0.082031,0.375 -0.055664,0.1113281 -0.1376953,0.18749996 -0.2460938,0.23437496 0.09375,0.0322266 0.2021485,0.046875 0.328125,0.046875 0.3515625,0 0.6386719,-0.09375 0.8671875,-0.28124996 0.234375,-0.1933594 0.3515625,-0.459961 0.3515625,-0.796875 0,-0.3427735 -0.1171875,-0.6240235 -0.3515625,-0.84375 C 8.7621797,-2.9933828 8.3637422,-3.2277578 7.7953828,-3.4797109 7.2563203,-3.7052969 6.8256563,-3.9513906 6.5063203,-4.2179922 6.1840547,-4.4904531 6.0258516,-4.8332266 6.0258516,-5.2492422 c 0,-0.28125 0.076172,-0.5097656 0.234375,-0.6914062 0.1552734,-0.178711 0.375,-0.2695313 0.65625,-0.2695313 0.2021484,0 0.3574218,0.058594 0.46875,0.1757813 0.1171875,0.1171875 0.1757812,0.2636718 0.1757812,0.4335937 0,0.1728516 -0.052734,0.3222656 -0.1523437,0.4453125 -0.09375,0.1171875 -0.2402344,0.1757813 -0.4335938,0.1757813 0.038086,0.1347656 0.140625,0.2753906 0.3046875,0.421875 0.1640625,0.140625 0.4335938,0.3105468 0.8085938,0.5039062 0.3515625,0.1816406 0.6503906,0.3632813 0.9023437,0.5507813 0.2578125,0.1875 0.4570313,0.4042968 0.5976563,0.6445312 0.1464843,0.2431641 0.2226562,0.5361328 0.2226562,0.8789063 0,0.5478515 -0.1611328,0.99609371 -0.4804687,1.34765621 -0.3134766,0.34570313 -0.7587891,0.515625 -1.3359375,0.515625 z M 10.695773,-2.3547109 v -0.7148438 h 2.601563 v 0.7148438 z m 7.775391,2.70703121 c -0.351562,-0.3046875 -0.685547,-0.56542968 -0.996094,-0.78515625 -0.304687,-0.22558593 -0.615234,-0.41601562 -0.925781,-0.57421876 -0.304687,-0.1640625 -0.629883,-0.3046875 -0.972656,-0.421875 -0.336914,-0.1171875 -0.711914,-0.2226562 -1.125,-0.3164062 l -0.199219,-0.9726563 c 0.249024,0.1113281 0.506836,0.1992188 0.773438,0.2695313 0.263671,0.064453 0.550781,0.09375 0.855468,0.09375 0.445313,0 0.779297,-0.058594 1.007813,-0.1757813 0.234375,-0.1171875 0.351562,-0.28125 0.351562,-0.4921875 0,-0.1171875 -0.0293,-0.2167969 -0.08203,-0.3046875 -0.04687,-0.09375 -0.149414,-0.1757812 -0.304687,-0.2460937 -0.158204,-0.076172 -0.395508,-0.1552735 -0.714844,-0.234375 -0.539063,-0.131836 -0.969727,-0.3046875 -1.289063,-0.515625 -0.313476,-0.2109375 -0.46875,-0.515625 -0.46875,-0.9140625 0,-0.2958985 0.08496,-0.5302735 0.257813,-0.703125 0.169922,-0.178711 0.386719,-0.2695313 0.644531,-0.2695313 0.202149,0 0.357422,0.058594 0.46875,0.1757813 0.117188,0.1171875 0.175781,0.2636718 0.175781,0.4335937 0,0.1728516 -0.04687,0.3222656 -0.140625,0.4453125 -0.09375,0.1171875 -0.243164,0.1757813 -0.445312,0.1757813 h -0.01172 c 0.0293,0.1113281 0.111328,0.2080078 0.246094,0.2929687 0.140625,0.079102 0.413086,0.1816406 0.820312,0.3046875 0.515625,0.1582031 0.870118,0.3515625 1.066407,0.5859375 0.202148,0.234375 0.304687,0.515625 0.304687,0.84375 0,0.1962891 -0.04102,0.3867188 -0.117187,0.5742188 -0.07031,0.1875 -0.1875,0.3515625 -0.351563,0.4921875 -0.164062,0.1347656 -0.380859,0.2197265 -0.644531,0.2578125 0.389648,0.2197265 0.764648,0.477539 1.125,0.77343746 0.357422,0.29003907 0.691406,0.58300782 0.996094,0.87890625 z m 2.950195,-0.8671875 c -0.407226,0 -0.773437,-0.0996094 -1.101562,-0.3046875 -0.322266,-0.20214841 -0.574219,-0.49218751 -0.761719,-0.86718751 -0.1875,-0.375 -0.28125,-0.8232422 -0.28125,-1.3476562 0,-0.4921875 0.09961,-0.9433594 0.304688,-1.359375 0.202148,-0.421875 0.480468,-0.7558594 0.832031,-1.0078125 0.351562,-0.2578125 0.75,-0.3867188 1.195312,-0.3867188 0.46875,0 0.858399,0.1171875 1.171875,0.3515625 0.319336,0.2285156 0.5625,0.5332031 0.726563,0.9140625 0.164062,0.375 0.246094,0.7910156 0.246094,1.2421875 0,0.4921875 -0.09961,0.9492188 -0.292969,1.3710938 -0.196289,0.4160156 -0.46875,0.75 -0.820313,1.00781246 -0.345703,0.2578125 -0.75,0.38671875 -1.21875,0.38671875 z m -0.1875,-0.70312501 c 0.263672,0 0.506836,-0.070312 0.726563,-0.2109375 0.225586,-0.140625 0.421875,-0.328125 0.585937,-0.5625 0.164063,-0.2402344 0.28711,-0.5039062 0.375,-0.7851562 0.09375,-0.2871094 0.140625,-0.5742188 0.140625,-0.8554688 0,-0.421875 -0.102539,-0.7646484 -0.304687,-1.03125 -0.205078,-0.2636719 -0.512695,-0.3984375 -0.925781,-0.3984375 -0.369141,0 -0.691407,0.1171875 -0.972657,0.3515625 -0.27539,0.2285156 -0.489257,0.5244141 -0.644531,0.890625 -0.149414,0.3603516 -0.222656,0.7382813 -0.222656,1.1367188 0,0.4453125 0.108398,0.8027343 0.328125,1.0664062 0.216797,0.2666016 0.521484,0.3984375 0.914062,0.3984375 z m 0,0"
       style="fill:#000000;fill-opacity:1;fill-rule:nonzero;stroke:none"
       aria-label="১১-২০"
       transform="matrix(1.3333333,0,0,1.3333333,84.696,33.901333)" />
    <path
       id="path6"
       d="M 22.247,40.12 V 61.639"
       style="fill:none;stroke:#000000;stroke-width:0.3985;stroke-linecap:butt;stroke-linejoin:miter;stroke-miterlimit:10;stroke-dasharray:none;stroke-opacity:1"
       transform="matrix(1.3333333,0,0,-1.3333333,96,96.001333)" />
    <path
       id="path7"
       d="M 4.9227031,0.35232031 C 4.5711406,0.04763281 4.2371562,-0.21310937 3.9266094,-0.43283594 3.6219219,-0.65842187 3.311375,-0.84885156 3.0008281,-1.0070547 2.6961406,-1.1711172 2.3709453,-1.3117422 2.0281719,-1.4289297 1.6912578,-1.5461172 1.3162578,-1.6515859 0.90317187,-1.7453359 L 0.70395312,-2.7179922 c 0.24902344,0.1113281 0.50683598,0.1992188 0.77343748,0.2695313 0.2636719,0.064453 0.5507813,0.09375 0.8554688,0.09375 0.4453125,0 0.7792968,-0.058594 1.0078125,-0.1757813 0.234375,-0.1171875 0.3515625,-0.28125 0.3515625,-0.4921875 0,-0.1171875 -0.029297,-0.2167969 -0.082031,-0.3046875 -0.046875,-0.09375 -0.149414,-0.1757812 -0.3046875,-0.2460937 -0.1582031,-0.076172 -0.3955078,-0.1552735 -0.7148437,-0.234375 -0.5390625,-0.131836 -0.9697266,-0.3046875 -1.2890625,-0.515625 -0.31347659,-0.2109375 -0.46875003,-0.515625 -0.46875003,-0.9140625 0,-0.2958985 0.0849609,-0.5302735 0.25781253,-0.703125 0.1699218,-0.178711 0.3867187,-0.2695313 0.6445312,-0.2695313 0.2021485,0 0.3574219,0.058594 0.46875,0.1757813 0.1171875,0.1171875 0.1757813,0.2636718 0.1757813,0.4335937 0,0.1728516 -0.046875,0.3222656 -0.140625,0.4453125 -0.09375,0.1171875 -0.2431641,0.1757813 -0.4453125,0.1757813 h -0.011719 c 0.029297,0.1113281 0.1113281,0.2080078 0.2460938,0.2929687 0.140625,0.079102 0.4130859,0.1816406 0.8203125,0.3046875 0.515625,0.1582031 0.8701172,0.3515625 1.0664062,0.5859375 0.2021485,0.234375 0.3046875,0.515625 0.3046875,0.84375 0,0.1962891 -0.041016,0.3867188 -0.1171875,0.5742188 -0.070312,0.1875 -0.1875,0.3515625 -0.3515625,0.4921875 -0.1640625,0.1347656 -0.3808594,0.2197265 -0.6445312,0.2578125 0.3896484,0.2197265 0.7646484,0.477539 1.125,0.77343746 0.3574218,0.29003907 0.6914062,0.58300782 0.9960937,0.87890625 z m 2.7744141,-0.46875 c -0.2578125,0 -0.4980469,-0.0380859 -0.7148438,-0.1171875 C 6.7713359,-0.31857812 6.5984844,-0.44748437 6.4666484,-0.62033594 6.3318828,-0.79904687 6.2674297,-1.0246328 6.2674297,-1.3000234 c 0,-0.2578125 0.073242,-0.4716797 0.2226562,-0.6445313 0.1464844,-0.1787109 0.3515625,-0.2695312 0.609375,-0.2695312 0.225586,0 0.4013672,0.067383 0.5273438,0.1992187 0.1318359,0.1347656 0.1992187,0.3017578 0.1992187,0.5039063 0,0.1347656 -0.029297,0.2578125 -0.082031,0.375 -0.055664,0.1113281 -0.1376953,0.18749996 -0.2460938,0.23437496 0.09375,0.0322266 0.2021485,0.046875 0.328125,0.046875 0.3515625,0 0.6386719,-0.09375 0.8671875,-0.28124996 0.234375,-0.1933594 0.3515625,-0.459961 0.3515625,-0.796875 0,-0.3427735 -0.1171875,-0.6240235 -0.3515625,-0.84375 C 8.4646953,-2.9933828 8.0662578,-3.2277578 7.4978984,-3.4797109 6.9588359,-3.7052969 6.5281719,-3.9513906 6.2088359,-4.2179922 5.8865703,-4.4904531 5.7283672,-4.8332266 5.7283672,-5.2492422 c 0,-0.28125 0.076172,-0.5097656 0.234375,-0.6914062 0.1552734,-0.178711 0.375,-0.2695313 0.65625,-0.2695313 0.2021484,0 0.3574219,0.058594 0.46875,0.1757813 0.1171875,0.1171875 0.1757812,0.2636718 0.1757812,0.4335937 0,0.1728516 -0.052734,0.3222656 -0.1523437,0.4453125 -0.09375,0.1171875 -0.2402344,0.1757813 -0.4335938,0.1757813 0.038086,0.1347656 0.140625,0.2753906 0.3046875,0.421875 0.1640625,0.140625 0.4335938,0.3105468 0.8085938,0.5039062 0.3515625,0.1816406 0.6503906,0.3632813 0.9023437,0.5507813 0.2578125,0.1875 0.4570313,0.4042968 0.5976563,0.6445312 0.1464844,0.2431641 0.2226562,0.5361328 0.2226562,0.8789063 0,0.5478515 -0.1611328,0.99609371 -0.4804687,1.34765621 -0.3134766,0.34570313 -0.7587891,0.515625 -1.3359375,0.515625 z M 10.395359,-2.3547109 v -0.7148438 h 2.601563 v 0.7148438 z m 6.66211,1.88671871 c -0.867188,0 -1.567383,-0.35742187 -2.097657,-1.07812501 -0.533203,-0.7177734 -0.969726,-1.8339844 -1.3125,-3.3515625 l 0.410157,-0.1289062 c 0.234375,0.8671875 0.495117,1.5703125 0.785156,2.109375 0.287109,0.5332031 0.615234,0.9228515 0.984375,1.171875 0.366211,0.243164 0.785156,0.3632812 1.253906,0.3632812 0.498047,0 0.884766,-0.1435547 1.160156,-0.4335937 0.272461,-0.2871094 0.410157,-0.6914063 0.410157,-1.2070313 0,-0.3515625 -0.05859,-0.6357422 -0.175782,-0.8554687 -0.117187,-0.2167969 -0.266601,-0.3808594 -0.445312,-0.4921875 -0.172852,-0.1083985 -0.348633,-0.1669922 -0.527344,-0.1757813 0.04687,0.1347656 0.07031,0.2783203 0.07031,0.4335938 0,0.28125 -0.08203,0.5126953 -0.246094,0.6914062 -0.158203,0.1816406 -0.380859,0.2695313 -0.667969,0.2695313 -0.345703,0 -0.603515,-0.1054688 -0.773437,-0.3164063 -0.164063,-0.2167969 -0.246094,-0.46875 -0.246094,-0.75 0,-0.3339844 0.108398,-0.609375 0.328125,-0.8203125 0.225586,-0.2109375 0.539062,-0.3164062 0.9375,-0.3164062 0.506836,0 0.928711,0.1259765 1.265625,0.375 0.333984,0.243164 0.585937,0.5595703 0.75,0.9492187 0.169922,0.3925781 0.257812,0.8144531 0.257812,1.265625 0,0.4541016 -0.08789,0.8554688 -0.257812,1.2070313 -0.172852,0.3457031 -0.418945,0.61523434 -0.738281,0.80859371 -0.313477,0.1875 -0.688477,0.28125 -1.125,0.28125 z m 5.759765,-0.046875 c -0.407226,0 -0.773437,-0.0996094 -1.101562,-0.3046875 -0.322266,-0.20214841 -0.574219,-0.49218751 -0.761719,-0.86718751 -0.1875,-0.375 -0.28125,-0.8232422 -0.28125,-1.3476562 0,-0.4921875 0.09961,-0.9433594 0.304688,-1.359375 0.202148,-0.421875 0.480468,-0.7558594 0.832031,-1.0078125 0.351562,-0.2578125 0.75,-0.3867188 1.195312,-0.3867188 0.46875,0 0.858399,0.1171875 1.171875,0.3515625 0.319336,0.2285156 0.5625,0.5332031 0.726563,0.9140625 0.164062,0.375 0.246094,0.7910156 0.246094,1.2421875 0,0.4921875 -0.09961,0.9492188 -0.292969,1.3710938 -0.196289,0.4160156 -0.46875,0.75 -0.820313,1.00781246 -0.345703,0.2578125 -0.75,0.38671875 -1.21875,0.38671875 z m -0.1875,-0.70312501 c 0.263672,0 0.506836,-0.070312 0.726563,-0.2109375 0.225586,-0.140625 0.421875,-0.328125 0.585937,-0.5625 0.164063,-0.2402344 0.28711,-0.5039062 0.375,-0.7851562 0.09375,-0.2871094 0.140625,-0.5742188 0.140625,-0.8554688 0,-0.421875 -0.102539,-0.7646484 -0.304687,-1.03125 -0.205078,-0.2636719 -0.512695,-0.3984375 -0.925781,-0.3984375 -0.369141,0 -0.691407,0.1171875 -0.972657,0.3515625 -0.27539,0.2285156 -0.489257,0.5244141 -0.644531,0.890625 -0.149414,0.3603516 -0.222656,0.7382813 -0.222656,1.1367188 0,0.4453125 0.108398,0.8027343 0.328125,1.0664062 0.216797,0.2666016 0.521484,0.3984375 0.914062,0.3984375 z m 0,0"
       style="fill:#000000;fill-opacity:1;fill-rule:nonzero;stroke:none"
       aria-label="২১-৩০"
       transform="matrix(1.3333333,0,0,1.3333333,133.89733,33.901333)" />
    <path
       id="path8"
       d="M 60.543,40.12 V 61.639"
       style="fill:none;stroke:#000000;stroke-width:0.3985;stroke-linecap:butt;stroke-linejoin:miter;stroke-miterlimit:10;stroke-dasharray:none;stroke-opacity:1"
       transform="matrix(1.3333333,0,0,-1.3333333,96,96.001333)" />
    <path
       id="path9"
       d="m 3.8092969,-0.46799219 c -0.8671875,0 -1.5673828,-0.35742187 -2.0976563,-1.07812501 C 1.1784375,-2.2638906 0.74191406,-3.3801016 0.39914063,-4.8976797 l 0.41015625,-0.1289062 c 0.23437502,0.8671875 0.49511722,1.5703125 0.78515622,2.109375 0.2871094,0.5332031 0.6152344,0.9228515 0.984375,1.171875 0.366211,0.243164 0.7851563,0.3632812 1.2539063,0.3632812 0.4980469,0 0.8847656,-0.1435547 1.1601562,-0.4335937 0.272461,-0.2871094 0.4101563,-0.6914063 0.4101563,-1.2070313 0,-0.3515625 -0.058594,-0.6357422 -0.1757813,-0.8554687 C 5.1100781,-4.0949453 4.9606641,-4.2590078 4.7819531,-4.3703359 4.6091016,-4.4787344 4.4333203,-4.5373281 4.2546094,-4.5461172 c 0.046875,0.1347656 0.070312,0.2783203 0.070312,0.4335938 0,0.28125 -0.082031,0.5126953 -0.2460938,0.6914062 -0.1582031,0.1816406 -0.3808593,0.2695313 -0.6679687,0.2695313 -0.3457031,0 -0.6035156,-0.1054688 -0.7734375,-0.3164063 -0.1640625,-0.2167969 -0.2460938,-0.46875 -0.2460938,-0.75 0,-0.3339844 0.1083985,-0.609375 0.328125,-0.8203125 0.225586,-0.2109375 0.5390625,-0.3164062 0.9375,-0.3164062 0.506836,0 0.928711,0.1259765 1.265625,0.375 0.3339844,0.243164 0.5859375,0.5595703 0.75,0.9492187 0.1699219,0.3925781 0.2578125,0.8144531 0.2578125,1.265625 0,0.4541016 -0.087891,0.8554688 -0.2578125,1.2070313 -0.1728515,0.3457031 -0.4189453,0.61523434 -0.7382812,0.80859371 -0.3134766,0.1875 -0.6884766,0.28125 -1.1249995,0.28125 z m 5.5810547,0.3515625 c -0.2578125,0 -0.4980469,-0.0380859 -0.7148438,-0.1171875 C 8.4645703,-0.31857812 8.2917188,-0.44748437 8.1598828,-0.62033594 8.0251172,-0.79904687 7.9606641,-1.0246328 7.9606641,-1.3000234 c 0,-0.2578125 0.073242,-0.4716797 0.2226562,-0.6445313 0.1464844,-0.1787109 0.3515625,-0.2695312 0.609375,-0.2695312 0.225586,0 0.4013672,0.067383 0.5273438,0.1992187 0.1318359,0.1347656 0.1992187,0.3017578 0.1992187,0.5039063 0,0.1347656 -0.029297,0.2578125 -0.082031,0.375 -0.055664,0.1113281 -0.1376953,0.18749996 -0.2460938,0.23437496 0.09375,0.0322266 0.2021485,0.046875 0.328125,0.046875 0.3515625,0 0.638672,-0.09375 0.867187,-0.28124996 0.234375,-0.1933594 0.351563,-0.459961 0.351563,-0.796875 0,-0.3427735 -0.117188,-0.6240235 -0.351563,-0.84375 C 10.15793,-2.9933828 9.7594922,-3.2277578 9.1911328,-3.4797109 8.6520703,-3.7052969 8.2214063,-3.9513906 7.9020703,-4.2179922 7.5798047,-4.4904531 7.4216016,-4.8332266 7.4216016,-5.2492422 c 0,-0.28125 0.076172,-0.5097656 0.234375,-0.6914062 0.1552734,-0.178711 0.375,-0.2695313 0.65625,-0.2695313 0.2021484,0 0.3574218,0.058594 0.46875,0.1757813 0.1171875,0.1171875 0.1757812,0.2636718 0.1757812,0.4335937 0,0.1728516 -0.052734,0.3222656 -0.1523437,0.4453125 -0.09375,0.1171875 -0.2402344,0.1757813 -0.4335938,0.1757813 0.038086,0.1347656 0.140625,0.2753906 0.3046875,0.421875 0.1640625,0.140625 0.4335938,0.3105468 0.8085938,0.5039062 0.3515625,0.1816406 0.6503904,0.3632813 0.9023434,0.5507813 0.257813,0.1875 0.457032,0.4042968 0.597657,0.6445312 0.146484,0.2431641 0.222656,0.5361328 0.222656,0.8789063 0,0.5478515 -0.161133,0.99609371 -0.480469,1.34765621 -0.313476,0.34570313 -0.758789,0.515625 -1.3359374,0.515625 z M 12.088594,-2.3547109 v -0.7148438 h 2.601562 v 0.7148438 z m 5.750976,2.29687496 c -0.360351,0 -0.700195,-0.06445312 -1.019531,-0.19921875 -0.322266,-0.13183593 -0.583008,-0.32226562 -0.785156,-0.57421875 -0.196289,-0.25781246 -0.292969,-0.56542966 -0.292969,-0.92578126 0,-0.3808594 0.123047,-0.6914062 0.375,-0.9257812 0.249024,-0.2402344 0.541992,-0.4482422 0.878906,-0.6210938 -0.149414,-0.099609 -0.301757,-0.2138672 -0.457031,-0.3398437 -0.158203,-0.1230469 -0.290039,-0.272461 -0.398437,-0.4453125 -0.111329,-0.178711 -0.164063,-0.3984375 -0.164063,-0.65625 0,-0.2490235 0.07031,-0.4746094 0.210938,-0.6796875 0.146484,-0.2109375 0.357421,-0.3808594 0.632812,-0.515625 0.272461,-0.131836 0.597656,-0.1992188 0.972656,-0.1992188 0.342774,0 0.65625,0.058594 0.9375,0.1757813 0.28125,0.1171875 0.503907,0.2871093 0.667969,0.5039062 0.164063,0.2197266 0.246094,0.4892578 0.246094,0.8085938 0,0.3457031 -0.09375,0.6328125 -0.28125,0.8671875 -0.1875,0.2285156 -0.430664,0.4277343 -0.726563,0.5976562 0.351563,0.2050781 0.635743,0.4189453 0.855469,0.6445313 0.225586,0.2285156 0.339844,0.5332031 0.339844,0.9140625 0,0.28125 -0.0791,0.5390625 -0.234375,0.77343746 -0.158203,0.234375 -0.383789,0.42773438 -0.679688,0.57421875 -0.290039,0.14941407 -0.65039,0.22265625 -1.078125,0.22265625 z M 16.820039,-4.6281484 c 0,0.4072265 0.205078,0.7734375 0.621094,1.1015625 0.04687,-0.014648 0.09375,-0.035156 0.140625,-0.058594 0.05273,-0.023437 0.108398,-0.049805 0.164062,-0.082031 0.351563,-0.1640625 0.647461,-0.3339844 0.890625,-0.515625 0.249024,-0.178711 0.375,-0.3896485 0.375,-0.6328125 0,-0.2402344 -0.09961,-0.4160157 -0.292968,-0.5273438 -0.1875,-0.1171875 -0.427735,-0.1757812 -0.714844,-0.1757812 -0.345703,0 -0.629883,0.079102 -0.855469,0.234375 -0.219726,0.149414 -0.328125,0.3691406 -0.328125,0.65625 z m -0.386719,3.0820312 c 0,0.1962891 0.05274,0.3574219 0.164063,0.4804688 0.108398,0.11718746 0.251953,0.20800778 0.433594,0.26953121 0.178711,0.0644531 0.363281,0.09375 0.550781,0.09375 0.272461,0 0.521484,-0.046875 0.75,-0.140625 0.225586,-0.09375 0.404297,-0.22265621 0.539062,-0.38671871 0.140625,-0.1699219 0.210938,-0.366211 0.210938,-0.5859375 0,-0.225586 -0.08789,-0.4277344 -0.257813,-0.609375 -0.164062,-0.1875 -0.37207,-0.3632813 -0.621093,-0.5273438 -0.06445,0.032227 -0.128907,0.064453 -0.199219,0.09375 -0.266602,0.1259766 -0.521485,0.2519531 -0.761719,0.375 -0.243164,0.1259766 -0.439453,0.2636719 -0.585937,0.4101563 -0.149414,0.140625 -0.222657,0.3164062 -0.222657,0.5273437 z m 7.13086,1.03125001 c -0.407227,0 -0.773438,-0.0996094 -1.101563,-0.3046875 -0.322265,-0.20214841 -0.574219,-0.49218751 -0.761719,-0.86718751 -0.1875,-0.375 -0.28125,-0.8232422 -0.28125,-1.3476562 0,-0.4921875 0.09961,-0.9433594 0.304688,-1.359375 0.202148,-0.421875 0.480469,-0.7558594 0.832031,-1.0078125 0.351563,-0.2578125 0.75,-0.3867188 1.195313,-0.3867188 0.46875,0 0.858398,0.1171875 1.171875,0.3515625 0.319336,0.2285156 0.5625,0.5332031 0.726562,0.9140625 0.164063,0.375 0.246094,0.7910156 0.246094,1.2421875 0,0.4921875 -0.09961,0.9492188 -0.292969,1.3710938 -0.196289,0.4160156 -0.46875,0.75 -0.820312,1.00781246 -0.345703,0.2578125 -0.75,0.38671875 -1.21875,0.38671875 z m -0.1875,-0.70312501 c 0.263672,0 0.506836,-0.070312 0.726562,-0.2109375 0.225586,-0.140625 0.421875,-0.328125 0.585938,-0.5625 0.164062,-0.2402344 0.287109,-0.5039062 0.375,-0.7851562 0.09375,-0.2871094 0.140625,-0.5742188 0.140625,-0.8554688 0,-0.421875 -0.102539,-0.7646484 -0.304688,-1.03125 -0.205078,-0.2636719 -0.512695,-0.3984375 -0.925781,-0.3984375 -0.369141,0 -0.691406,0.1171875 -0.972656,0.3515625 -0.275391,0.2285156 -0.489258,0.5244141 -0.644532,0.890625 -0.149414,0.3603516 -0.222656,0.7382813 -0.222656,1.1367188 0,0.4453125 0.108399,0.8027343 0.328125,1.0664062 0.216797,0.2666016 0.521485,0.3984375 0.914063,0.3984375 z m 0,0"
       style="fill:#000000;fill-opacity:1;fill-rule:nonzero;stroke:none"
       aria-label="৩১-৪০"
       transform="matrix(1.3333333,0,0,1.3333333,184.96,33.901333)" />
    <path
       id="path10"
       d="M 99.587,40.12 V 61.639"
       style="fill:none;stroke:#000000;stroke-width:0.3985;stroke-linecap:butt;stroke-linejoin:miter;stroke-miterlimit:10;stroke-dasharray:none;stroke-opacity:1"
       transform="matrix(1.3333333,0,0,-1.3333333,96,96.001333)" />
    <path
       id="path11"
       d="m 2.89325,-0.05783594 c -0.3603516,0 -0.7001953,-0.06445312 -1.0195313,-0.19921875 C 1.5514531,-0.38889062 1.2907109,-0.57932031 1.0885625,-0.83127344 0.89227344,-1.0890859 0.79559375,-1.3967031 0.79559375,-1.7570547 c 0,-0.3808594 0.12304687,-0.6914062 0.37499995,-0.9257812 C 1.4196172,-2.9230703 1.7125859,-3.1310781 2.0495,-3.3039297 1.9000859,-3.4035391 1.7477422,-3.5177969 1.5924687,-3.6437734 1.4342656,-3.7668203 1.3024297,-3.9162344 1.1940312,-4.0890859 c -0.1113281,-0.178711 -0.1640625,-0.3984375 -0.1640625,-0.65625 0,-0.2490235 0.070312,-0.4746094 0.2109375,-0.6796875 0.1464844,-0.2109375 0.3574219,-0.3808594 0.6328125,-0.515625 0.272461,-0.131836 0.5976563,-0.1992188 0.9726563,-0.1992188 0.3427734,0 0.65625,0.058594 0.9375,0.1757813 0.28125,0.1171875 0.5039062,0.2871093 0.6679687,0.5039062 0.1640625,0.2197266 0.2460938,0.4892578 0.2460938,0.8085938 0,0.3457031 -0.09375,0.6328125 -0.28125,0.8671875 -0.1875,0.2285156 -0.4306641,0.4277343 -0.7265625,0.5976562 0.3515625,0.2050781 0.6357422,0.4189453 0.8554687,0.6445313 0.225586,0.2285156 0.3398438,0.5332031 0.3398438,0.9140625 0,0.28125 -0.079102,0.5390625 -0.234375,0.77343746 -0.1582031,0.234375 -0.3837891,0.42773438 -0.6796875,0.57421875 -0.2900391,0.14941407 -0.6503906,0.22265625 -1.078125,0.22265625 z M 1.8737187,-4.6281484 c 0,0.4072265 0.2050782,0.7734375 0.6210938,1.1015625 0.046875,-0.014648 0.09375,-0.035156 0.140625,-0.058594 0.052734,-0.023437 0.1083984,-0.049805 0.1640625,-0.082031 0.3515625,-0.1640625 0.6474609,-0.3339844 0.890625,-0.515625 0.2490234,-0.178711 0.375,-0.3896485 0.375,-0.6328125 0,-0.2402344 -0.099609,-0.4160157 -0.2929688,-0.5273438 -0.1875,-0.1171875 -0.4277343,-0.1757812 -0.7148437,-0.1757812 -0.3457031,0 -0.6298828,0.079102 -0.8554688,0.234375 -0.2197265,0.149414 -0.328125,0.3691406 -0.328125,0.65625 z M 1.487,-1.5461172 c 0,0.1962891 0.052734,0.3574219 0.1640625,0.4804688 0.1083984,0.11718746 0.2519531,0.20800778 0.4335937,0.26953121 0.178711,0.0644531 0.3632813,0.09375 0.5507813,0.09375 0.2724609,0 0.5214844,-0.046875 0.75,-0.140625 0.2255859,-0.09375 0.4042969,-0.22265621 0.5390625,-0.38671871 0.140625,-0.1699219 0.2109375,-0.366211 0.2109375,-0.5859375 0,-0.225586 -0.087891,-0.4277344 -0.2578125,-0.609375 -0.1640625,-0.1875 -0.3720703,-0.3632813 -0.6210938,-0.5273438 -0.064453,0.032227 -0.1289062,0.064453 -0.1992187,0.09375 -0.2666016,0.1259766 -0.5214844,0.2519531 -0.7617188,0.375 -0.243164,0.1259766 -0.4394531,0.2636719 -0.5859375,0.4101563 C 1.5602422,-1.9328359 1.487,-1.7570547 1.487,-1.5461172 Z m 6.9580078,1.42968751 c -0.2578125,0 -0.4980469,-0.0380859 -0.7148437,-0.1171875 C 7.5192266,-0.31857812 7.346375,-0.44748437 7.2145391,-0.62033594 7.0797734,-0.79904687 7.0153203,-1.0246328 7.0153203,-1.3000234 c 0,-0.2578125 0.073242,-0.4716797 0.2226563,-0.6445313 0.1464843,-0.1787109 0.3515625,-0.2695312 0.609375,-0.2695312 0.2255859,0 0.4013671,0.067383 0.5273437,0.1992187 0.1318359,0.1347656 0.1992188,0.3017578 0.1992188,0.5039063 0,0.1347656 -0.029297,0.2578125 -0.082031,0.375 -0.055664,0.1113281 -0.1376953,0.18749996 -0.2460937,0.23437496 0.09375,0.0322266 0.2021484,0.046875 0.328125,0.046875 0.3515625,0 0.6386718,-0.09375 0.8671875,-0.28124996 0.234375,-0.1933594 0.3515625,-0.459961 0.3515625,-0.796875 0,-0.3427735 -0.1171875,-0.6240235 -0.3515625,-0.84375 -0.228516,-0.2167969 -0.6269535,-0.4511719 -1.1953128,-0.703125 -0.5390625,-0.225586 -0.9697266,-0.4716797 -1.2890625,-0.7382813 -0.3222657,-0.2724609 -0.4804688,-0.6152344 -0.4804688,-1.03125 0,-0.28125 0.076172,-0.5097656 0.234375,-0.6914062 0.1552734,-0.178711 0.375,-0.2695313 0.65625,-0.2695313 0.2021484,0 0.3574219,0.058594 0.46875,0.1757813 0.1171875,0.1171875 0.1757813,0.2636718 0.1757813,0.4335937 0,0.1728516 -0.052734,0.3222656 -0.1523438,0.4453125 -0.09375,0.1171875 -0.2402344,0.1757813 -0.4335937,0.1757813 0.038086,0.1347656 0.140625,0.2753906 0.3046875,0.421875 0.1640625,0.140625 0.4335937,0.3105468 0.8085937,0.5039062 0.3515625,0.1816406 0.6503906,0.3632813 0.9023438,0.5507813 0.2578125,0.1875 0.4570312,0.4042968 0.5976564,0.6445312 0.146484,0.2431641 0.222656,0.5361328 0.222656,0.8789063 0,0.5478515 -0.161133,0.99609371 -0.4804687,1.34765621 -0.3134766,0.34570313 -0.7587891,0.515625 -1.3359375,0.515625 z M 11.14325,-2.3547109 v -0.7148438 h 2.601562 v 0.7148438 z m 6.462891,2.37890621 c -0.533204,0 -1.013672,-0.12011718 -1.441407,-0.36328125 -0.421875,-0.24023437 -0.758789,-0.58007812 -1.007812,-1.01953126 -0.243164,-0.4453125 -0.363281,-0.9726562 -0.363281,-1.5820312 0,-0.413086 0.07617,-0.8144532 0.234375,-1.2070313 0.164062,-0.3896484 0.36914,-0.7412109 0.621093,-1.0546875 0.257813,-0.3105469 0.530274,-0.5566406 0.820313,-0.7382812 0.287109,-0.178711 0.5625,-0.2695313 0.820312,-0.2695313 0.216797,0 0.366211,0.055664 0.445313,0.1640625 0.08496,0.1025391 0.128906,0.234375 0.128906,0.3984375 -0.06445,0.087891 -0.123047,0.1933594 -0.175781,0.3164063 -0.04687,0.1259765 -0.07031,0.2636718 -0.07031,0.4101562 0,0.1640625 0.04102,0.2988281 0.128907,0.3984375 0.09375,0.09375 0.205078,0.1611328 0.339843,0.1992188 0.131836,0.032227 0.269532,0.052734 0.410157,0.058594 0.140625,0 0.260742,-0.00586 0.363281,-0.023437 l 0.398437,0.65625 c -0.210937,0.070312 -0.427734,0.1933594 -0.644531,0.3632813 -0.210937,0.1640625 -0.386719,0.3632812 -0.527344,0.5976562 -0.134765,0.2285156 -0.199218,0.4775391 -0.199218,0.75 0,0.28125 0.08789,0.5009766 0.269531,0.65625 0.178711,0.1582031 0.451172,0.2402344 0.820312,0.2460938 l 0.222657,0.41015621 c -0.243164,0.20507813 -0.492188,0.36035157 -0.75,0.46875 -0.251954,0.11132813 -0.533204,0.1640625 -0.84375,0.1640625 z m -0.152344,-0.65625 c 0.28125,0 0.492187,-0.0410156 0.632812,-0.12890625 -0.266601,-0.09375 -0.489257,-0.26367186 -0.667968,-0.51562496 -0.181641,-0.2578125 -0.269532,-0.5625 -0.269532,-0.9140625 0,-0.3339844 0.08203,-0.65625 0.246094,-0.9609375 0.164063,-0.3105469 0.392578,-0.5654297 0.691406,-0.7617188 -0.298828,-0.038086 -0.55957,-0.1435547 -0.785156,-0.3164062 -0.228516,-0.1699219 -0.339844,-0.4482422 -0.339844,-0.8320313 0,-0.046875 0.0029,-0.09375 0.01172,-0.140625 -0.462891,0.2197266 -0.832031,0.5507813 -1.113281,0.9960938 -0.275391,0.4453125 -0.410156,0.9726562 -0.410156,1.5820312 0,0.6035156 0.169921,1.0869141 0.515625,1.453125 0.342773,0.36035158 0.83789,0.53906251 1.488281,0.53906251 z m 5.24414,0.1171875 c -0.407226,0 -0.773437,-0.0996094 -1.101562,-0.3046875 -0.322266,-0.20214841 -0.574219,-0.49218751 -0.761719,-0.86718751 -0.1875,-0.375 -0.28125,-0.8232422 -0.28125,-1.3476562 0,-0.4921875 0.09961,-0.9433594 0.304688,-1.359375 0.202148,-0.421875 0.480468,-0.7558594 0.832031,-1.0078125 0.351562,-0.2578125 0.75,-0.3867188 1.195312,-0.3867188 0.46875,0 0.858399,0.1171875 1.171875,0.3515625 0.319336,0.2285156 0.5625,0.5332031 0.726563,0.9140625 0.164062,0.375 0.246094,0.7910156 0.246094,1.2421875 0,0.4921875 -0.09961,0.9492188 -0.292969,1.3710938 -0.196289,0.4160156 -0.46875,0.75 -0.820313,1.00781246 -0.345703,0.2578125 -0.75,0.38671875 -1.21875,0.38671875 z m -0.1875,-0.70312501 c 0.263672,0 0.506836,-0.070312 0.726563,-0.2109375 0.225586,-0.140625 0.421875,-0.328125 0.585937,-0.5625 0.164063,-0.2402344 0.28711,-0.5039062 0.375,-0.7851562 0.09375,-0.2871094 0.140625,-0.5742188 0.140625,-0.8554688 0,-0.421875 -0.102539,-0.7646484 -0.304687,-1.03125 -0.205078,-0.2636719 -0.512695,-0.3984375 -0.925781,-0.3984375 -0.369141,0 -0.691407,0.1171875 -0.972657,0.3515625 -0.27539,0.2285156 -0.489257,0.5244141 -0.644531,0.890625 -0.149414,0.3603516 -0.222656,0.7382813 -0.222656,1.1367188 0,0.4453125 0.108398,0.8027343 0.328125,1.0664062 0.216797,0.2666016 0.521484,0.3984375 0.914062,0.3984375 z m 0,0"
       style="fill:#000000;fill-opacity:1;fill-rule:nonzero;stroke:none"
       aria-label="৪১-৫০"
       transform="matrix(1.3333333,0,0,1.3333333,237.01733,33.901333)" />
    <path
       id="path12"
       d="M 137.763,40.12 V 61.639"
       style="fill:none;stroke:#000000;stroke-width:0.3985;stroke-linecap:butt;stroke-linejoin:miter;stroke-miterlimit:10;stroke-dasharray:none;stroke-opacity:1"
       transform="matrix(1.3333333,0,0,-1.3333333,96,96.001333)" />
    <path
       id="path13"
       d="m -59.467,39.92 h 197.43"
       style="fill:none;stroke:#000000;stroke-width:0.3985;stroke-linecap:butt;stroke-linejoin:miter;stroke-miterlimit:10;stroke-dasharray:none;stroke-opacity:1"
       transform="matrix(1.3333333,0,0,-1.3333333,96,96.001333)" />
    <path
       id="path14"
       d="M -59.268,18.202 V 39.721"
       style="fill:none;stroke:#000000;stroke-width:0.3985;stroke-linecap:butt;stroke-linejoin:miter;stroke-miterlimit:10;stroke-dasharray:none;stroke-opacity:1"
       transform="matrix(1.3333333,0,0,-1.3333333,96,96.001333)" />
    <path
       id="path15"
       d="m 5.0968594,0.24684375 -0.5039063,-0.28125 V -3.8664375 C 4.341,-4.2941719 4.1036953,-4.6281562 3.8781094,-4.8625312 3.6495937,-5.0969062 3.4269375,-5.2551094 3.2101406,-5.343 2.9904141,-5.43675 2.7648281,-5.483625 2.5304531,-5.483625 c -0.1728515,0 -0.3574219,0.043945 -0.5507812,0.1289063 -0.1875,0.087891 -0.3720703,0.28125 -0.5507813,0.5859375 0.084961,-0.029297 0.1816406,-0.058594 0.2929688,-0.082031 0.1171875,-0.023437 0.2402343,-0.035156 0.375,-0.035156 0.3662109,0 0.6503906,0.1230468 0.8554687,0.3632812 0.2109375,0.234375 0.3164063,0.5214844 0.3164063,0.8554688 0,0.383789 -0.1113282,0.7265625 -0.328125,1.03125 -0.2109375,0.3046875 -0.5712891,0.6152343 -1.078125,0.9257812 L 1.2648281,-2.62425 c 0.4277344,-0.1640625 0.7675781,-0.3427734 1.0195313,-0.5390625 0.2578125,-0.2021484 0.3867187,-0.421875 0.3867187,-0.65625 0,-0.1552734 -0.052734,-0.2841797 -0.1523437,-0.3867187 -0.09375,-0.099609 -0.2431641,-0.1523438 -0.4453125,-0.1523438 -0.2109375,0 -0.4189453,0.041016 -0.6210938,0.1171875 -0.2050781,0.079102 -0.4160156,0.2050781 -0.63281248,0.375 L 0.15154687,-4.5344062 C 0.48553125,-5.1730781 0.8488125,-5.62425 1.2413906,-5.8820625 1.6310391,-6.139875 2.0148281,-6.2687812 2.3898281,-6.2687812 c 0.413086,0 0.7998047,0.1347656 1.1601563,0.3984375 0.3662109,0.2666015 0.7294922,0.703125 1.0898437,1.3125 C 4.62225,-4.7043281 4.6105312,-4.87425 4.6046719,-5.06175 4.5958828,-5.2551094 4.5929531,-5.4279609 4.5929531,-5.577375 V -6.93675 l 0.035156,-0.011719 0.4570312,0.328125 0.046875,0.421875 h 0.7382813 l 0.3398437,0.515625 H 5.1320156 v 5.917969 z m 5.6132816,0 -0.503907,-0.28125 V -3.5265937 C 9.9161953,-4.0099922 9.6554531,-4.3820625 9.4210781,-4.639875 9.1925625,-4.8976875 8.9699062,-5.0763984 8.7531094,-5.1789375 8.5333828,-5.2785469 8.2902187,-5.3312812 8.0265469,-5.3312812 c -0.3222657,0 -0.5947266,0.09082 -0.8203125,0.2695312 -0.2285157,0.1728516 -0.3398438,0.4277344 -0.3398438,0.7617188 0,0.4160156 0.1435547,0.6738281 0.4335938,0.7734375 -0.00879,-0.038086 -0.011719,-0.076172 -0.011719,-0.1171875 0,-0.2109375 0.064453,-0.3808594 0.1992188,-0.515625 0.140625,-0.131836 0.3164062,-0.1992188 0.5273437,-0.1992188 0.2402344,0 0.4335938,0.076172 0.5742188,0.2226563 0.140625,0.140625 0.2109375,0.328125 0.2109375,0.5625 0,0.243164 -0.082031,0.4423828 -0.2460938,0.5976562 -0.1582031,0.1494141 -0.3808594,0.2226563 -0.6679687,0.2226563 -0.28125,0 -0.5390625,-0.064453 -0.7734375,-0.1992188 C 6.8781094,-3.0842109 6.68475,-3.2834297 6.5382656,-3.5500312 6.3976406,-3.8137031 6.3273281,-4.1388984 6.3273281,-4.5226875 c 0,-0.3339844 0.064453,-0.6328125 0.1992188,-0.890625 0.1318359,-0.2636719 0.3164062,-0.46875 0.5507812,-0.609375 0.234375,-0.1464844 0.5039063,-0.2226562 0.8085938,-0.2226562 0.2724609,0 0.5302734,0.064453 0.7734375,0.1875 0.2402343,0.1171875 0.4863281,0.3251953 0.7382812,0.6210937 0.2490235,0.2900391 0.5302735,0.703125 0.8437504,1.2421875 -0.0088,-0.1640625 -0.01758,-0.3515625 -0.02344,-0.5625 -0.0088,-0.2167969 -0.01172,-0.4248047 -0.01172,-0.6210937 V -6.93675 l 0.03516,-0.011719 0.457031,0.328125 0.04687,0.421875 h 0.726562 l 0.351563,0.515625 h -1.07812 v 5.917969 z m 6.041015,0 -0.503906,-0.28125 V -3.0344062 C 16.097836,-3.2687812 15.966,-3.4269844 15.848812,-3.514875 15.737484,-3.608625 15.640805,-3.6555 15.555844,-3.6555 c -0.0791,0 -0.158203,0.029297 -0.234375,0.082031 -0.07031,0.046875 -0.152344,0.149414 -0.246094,0.3046875 -0.08789,0.149414 -0.196289,0.375 -0.328125,0.6796875 -0.210938,0.4863281 -0.416016,0.8320312 -0.609375,1.0429687 -0.1875,0.2050781 -0.427734,0.3046875 -0.714844,0.3046875 -0.251953,0 -0.489258,-0.099609 -0.714844,-0.3046875 -0.228515,-0.2021484 -0.451171,-0.5625 -0.667968,-1.078125 l 0.351562,-0.1757812 c 0.164063,0.3046875 0.307617,0.5009765 0.433594,0.5859375 0.123047,0.079101 0.249023,0.1171875 0.375,0.1171875 0.169922,0 0.331055,-0.082031 0.480469,-0.2460938 0.146484,-0.1640625 0.307617,-0.4482422 0.480468,-0.8554687 -0.03223,-0.6328125 -0.196289,-1.0927735 -0.492187,-1.3828125 -0.290039,-0.2871094 -0.676758,-0.4335938 -1.160156,-0.4335938 -0.09375,0 -0.184571,0.00586 -0.269532,0.011719 -0.0791,0 -0.149414,0.00879 -0.210937,0.023437 l -0.785156,-1.21875 h 6.28125 l 0.351562,0.515625 H 16.786312 V 0.235125 Z M 15.262875,-4.5109687 c 0.193359,0 0.375,0.082031 0.539062,0.2460937 0.169922,0.1640625 0.333985,0.3955078 0.492188,0.6914063 -0.01758,-0.178711 -0.0293,-0.3896485 -0.03516,-0.6328125 -0.0088,-0.2490235 -0.01172,-0.4453125 -0.01172,-0.5859375 v -0.890625 h -3.210938 c 0.389649,0.1347656 0.714844,0.3457031 0.972657,0.6328125 0.257812,0.290039 0.404297,0.6796875 0.445312,1.171875 0.09961,-0.1933594 0.199219,-0.3339844 0.292969,-0.421875 0.09961,-0.09375 0.193359,-0.1523438 0.28125,-0.1757813 0.08496,-0.023437 0.164062,-0.035156 0.234375,-0.035156 z m 4.171875,0.8789062 c -0.383789,0 -0.685547,-0.1230469 -0.902344,-0.375 C 18.321469,-4.264875 18.216,-4.5607734 18.216,-4.8976875 c 0,-0.3808594 0.120117,-0.6943359 0.363281,-0.9375 0.240235,-0.2490234 0.556641,-0.375 0.949219,-0.375 0.380859,0 0.682617,0.1230469 0.902344,0.3632813 0.225586,0.243164 0.339843,0.5449218 0.339843,0.9023437 0,0.3837891 -0.125976,0.7001953 -0.375,0.9492188 -0.251953,0.243164 -0.571289,0.3632812 -0.960937,0.3632812 z M 19.141781,-4.12425 c 0.178711,0 0.354492,-0.058594 0.527344,-0.1757812 0.178711,-0.1230469 0.322266,-0.2753907 0.433594,-0.4570313 0.108398,-0.1875 0.164062,-0.3632812 0.164062,-0.5273437 0,-0.099609 -0.03516,-0.1904297 -0.105469,-0.2695313 -0.06445,-0.076172 -0.158203,-0.1171875 -0.28125,-0.1171875 -0.196289,0 -0.380859,0.058594 -0.550781,0.1757813 -0.172851,0.1113281 -0.313476,0.2548828 -0.421875,0.4335937 -0.111328,0.1728516 -0.164062,0.3603516 -0.164062,0.5625 0,0.1025391 0.03809,0.1933594 0.117187,0.2695313 0.07617,0.070312 0.169922,0.1054687 0.28125,0.1054687 z m 1.78125,4.5 C 20.600766,-0.08421094 20.293148,-0.47385937 19.99725,-0.796125 19.707211,-1.12425 19.414242,-1.4055 19.118344,-1.639875 c -0.290039,-0.2402344 -0.603516,-0.46875 -0.9375,-0.6796875 L 18.813656,-3.18675 c 0.328125,0.2666016 0.635742,0.5917969 0.925781,0.9726563 0.295899,0.383789 0.56543,0.7910156 0.808594,1.21874995 0.249024,0.421875 0.462891,0.83496094 0.644531,1.23046875 z M 26.632992,0.12965625 26.164242,-0.233625 C 25.81268,-0.83421094 25.390805,-1.31175 24.898617,-1.6633125 24.412289,-2.0207344 23.802914,-2.2433906 23.070492,-2.3312812 l -0.398437,-1.0546875 c 0.257812,0 0.515625,-0.023437 0.773437,-0.070312 0.263672,-0.046875 0.506836,-0.1171875 0.726563,-0.2109375 0.225586,-0.099609 0.404297,-0.2285157 0.539062,-0.3867188 0.131836,-0.1640625 0.199219,-0.3544922 0.199219,-0.5742187 0,-0.225586 -0.05273,-0.421875 -0.152344,-0.5859375 -0.27539,0.3222656 -0.574219,0.5800781 -0.902344,0.7734375 -0.328125,0.196289 -0.667968,0.2929687 -1.019531,0.2929687 -0.172851,0 -0.339844,-0.035156 -0.503906,-0.1054687 -0.164063,-0.070312 -0.301758,-0.178711 -0.410156,-0.328125 -0.102539,-0.1552735 -0.152344,-0.3515625 -0.152344,-0.5859375 0,-0.234375 0.05859,-0.413086 0.175781,-0.5390625 0.117188,-0.1230469 0.28418,-0.1875 0.503906,-0.1875 0.202149,0 0.357422,0.058594 0.46875,0.1757812 0.117188,0.1113281 0.175782,0.2519531 0.175782,0.421875 0,0.140625 -0.02051,0.2519531 -0.05859,0.328125 0.1875,-0.029297 0.413086,-0.1435547 0.679687,-0.3398437 0.272461,-0.2021485 0.553711,-0.506836 0.84375,-0.9140625 0.140625,0.1259765 0.275391,0.2753906 0.410157,0.4453125 0.131836,0.1640625 0.240234,0.3574218 0.328125,0.5742187 0.09375,0.2109375 0.140625,0.4511719 0.140625,0.7148438 0,0.4541015 -0.111328,0.8144531 -0.328125,1.078125 -0.219727,0.2666015 -0.536133,0.4628906 -0.949219,0.5859375 0.404297,0.196289 0.773437,0.4423828 1.101562,0.7382812 0.333985,0.2988281 0.632813,0.6650391 0.890625,1.1015625 V -6.93675 l 0.03516,-0.011719 0.457031,0.328125 0.04687,0.421875 h 0.738281 l 0.339844,0.515625 H 26.691586 V 0.1179375 Z M 28.317562,0.422625 28.05975,0.08278125 c 0.295898,-0.1875 0.509766,-0.40429687 0.644531,-0.65625 0.131836,-0.24902344 0.199219,-0.51855465 0.199219,-0.80859375 0,-0.2167969 -0.04395,-0.4335937 -0.128906,-0.6445312 -0.0791,-0.2167969 -0.172852,-0.4335938 -0.28125,-0.6445313 -0.111328,-0.2167969 -0.205078,-0.4394531 -0.28125,-0.6679687 -0.0791,-0.225586 -0.117188,-0.4570313 -0.117188,-0.6914063 0,-0.3574219 0.09375,-0.6738281 0.28125,-0.9492187 0.1875,-0.272461 0.401367,-0.506836 0.644531,-0.703125 h -1.488281 l -0.339844,-0.515625 h 3.082032 l 0.339843,0.515625 h -0.972656 c -0.172851,0.140625 -0.345703,0.3398437 -0.515625,0.5976562 -0.164062,0.2578125 -0.246094,0.5566406 -0.246094,0.890625 0,0.234375 0.03809,0.4541016 0.117188,0.65625 0.07617,0.2050781 0.169922,0.4072266 0.28125,0.609375 0.108398,0.1962891 0.202148,0.4042969 0.28125,0.6210938 0.07617,0.2197265 0.117187,0.4570312 0.117187,0.7148437 0,0.421875 -0.128906,0.81445313 -0.386718,1.171875 -0.257813,0.3515625 -0.583008,0.6328125 -0.972657,0.84375 z m 3.310547,-0.17578125 -0.503906,-0.28125 V -4.6984687 C 31.068539,-4.9709297 30.986508,-5.202375 30.878109,-5.389875 30.77557,-5.5832344 30.626156,-5.6828437 30.432797,-5.6828437 h -0.07031 l -0.328125,-0.515625 h 0.386719 c 0.131836,0 0.263672,0.058594 0.398438,0.1757812 0.140625,0.1113281 0.251953,0.2900391 0.339843,0.5390625 -0.0088,-0.140625 -0.01758,-0.2724609 -0.02344,-0.3984375 -0.0088,-0.1230469 -0.01172,-0.2138672 -0.01172,-0.2695312 V -6.93675 l 0.03516,-0.011719 0.503907,0.328125 v 6.855469 z m 0,0"
       style="fill:#000000;fill-opacity:1;fill-rule:nonzero;stroke:none"
       aria-label="গণসংখযা"
       transform="matrix(1.3333333,0,0,1.3333333,25.212,63.124)" />
    <path
       id="path16"
       d="M -14.655,18.202 V 39.721"
       style="fill:none;stroke:#000000;stroke-width:0.3985;stroke-linecap:butt;stroke-linejoin:miter;stroke-miterlimit:10;stroke-dasharray:none;stroke-opacity:1"
       transform="matrix(1.3333333,0,0,-1.3333333,96,96.001333)" />
    <path
       id="path17"
       d="m 3.6093672,0.0241875 c -0.5332031,0 -1.0136719,-0.12011719 -1.4414063,-0.36328125 C 1.7460859,-0.57932812 1.4091719,-0.91917187 1.1601484,-1.358625 0.91698437,-1.8039375 0.79686719,-2.3312812 0.79686719,-2.9406562 c 0,-0.413086 0.0761719,-0.8144532 0.23437501,-1.2070313 0.1640625,-0.3896484 0.3691406,-0.7412109 0.6210937,-1.0546875 0.2578125,-0.3105469 0.5302735,-0.5566406 0.8203125,-0.7382812 0.2871094,-0.178711 0.5625,-0.2695313 0.8203125,-0.2695313 0.2167969,0 0.366211,0.055664 0.4453125,0.1640625 0.084961,0.1025391 0.1289063,0.234375 0.1289063,0.3984375 -0.064453,0.087891 -0.1230469,0.1933594 -0.1757813,0.3164063 -0.046875,0.1259765 -0.070312,0.2636718 -0.070312,0.4101562 0,0.1640625 0.041016,0.2988281 0.1289063,0.3984375 0.09375,0.09375 0.2050781,0.1611328 0.3398437,0.1992188 0.131836,0.032227 0.2695313,0.052734 0.4101563,0.058594 0.140625,0 0.2607422,-0.00586 0.3632812,-0.023437 l 0.3984375,0.65625 C 5.0507734,-3.56175 4.8339766,-3.4387031 4.6171797,-3.2687812 4.4062422,-3.1047187 4.2304609,-2.9055 4.0898359,-2.671125 c -0.1347656,0.2285156 -0.1992187,0.4775391 -0.1992187,0.75 0,0.28125 0.087891,0.5009766 0.2695312,0.65625 0.178711,0.1582031 0.4511719,0.2402344 0.8203125,0.2460938 l 0.2226563,0.4101562 c -0.2431641,0.20507813 -0.4921875,0.36035156 -0.75,0.46875 -0.2519531,0.11132813 -0.5332031,0.1640625 -0.84375,0.1640625 z m -0.1523438,-0.65625 c 0.28125,0 0.4921875,-0.0410156 0.6328125,-0.12890625 -0.2666015,-0.09375 -0.4892578,-0.26367185 -0.6679687,-0.51562495 -0.1816406,-0.2578125 -0.2695313,-0.5625 -0.2695313,-0.9140625 0,-0.3339844 0.082031,-0.65625 0.2460938,-0.9609375 C 3.5624922,-3.4621406 3.7910078,-3.7170234 4.0898359,-3.9133125 3.7910078,-3.9513984 3.5302656,-4.0568672 3.3046797,-4.2297187 3.0761641,-4.3996406 2.9648359,-4.6779609 2.9648359,-5.06175 c 0,-0.046875 0.00293,-0.09375 0.011719,-0.140625 -0.4628906,0.2197266 -0.8320313,0.5507813 -1.1132813,0.9960938 -0.2753906,0.4453125 -0.4101562,0.9726562 -0.4101562,1.5820312 0,0.6035156 0.1699219,1.0869141 0.515625,1.453125 0.3427734,0.36035156 0.8378906,0.5390625 1.488281,0.5390625 z m 0,0"
       style="fill:#000000;fill-opacity:1;fill-rule:nonzero;stroke:none"
       aria-label="৫"
       transform="matrix(1.3333333,0,0,1.3333333,97.222667,63.124)" />
    <path
       id="path18"
       d="M 22.247,18.202 V 39.721"
       style="fill:none;stroke:#000000;stroke-width:0.3985;stroke-linecap:butt;stroke-linejoin:miter;stroke-miterlimit:10;stroke-dasharray:none;stroke-opacity:1"
       transform="matrix(1.3333333,0,0,-1.3333333,96,96.001333)" />
    <path
       id="path19"
       d="m 2.7660156,-0.1164375 c -0.2578125,0 -0.4980469,-0.0380859 -0.7148437,-0.1171875 C 1.8402344,-0.31858594 1.6673828,-0.44749219 1.5355469,-0.62034375 1.4007812,-0.79905469 1.3363281,-1.0246406 1.3363281,-1.3000312 c 0,-0.2578125 0.073242,-0.4716797 0.2226563,-0.6445313 0.1464843,-0.1787109 0.3515625,-0.2695312 0.609375,-0.2695312 0.2255859,0 0.4013672,0.067383 0.5273437,0.1992187 0.131836,0.1347656 0.1992188,0.3017578 0.1992188,0.5039063 0,0.1347656 -0.029297,0.2578125 -0.082031,0.375 -0.055664,0.1113281 -0.1376953,0.18749995 -0.2460937,0.23437495 0.09375,0.0322266 0.2021484,0.046875 0.328125,0.046875 0.3515625,0 0.6386718,-0.09375 0.8671875,-0.28124995 0.234375,-0.1933594 0.3515625,-0.459961 0.3515625,-0.796875 0,-0.3427735 -0.1171875,-0.6240235 -0.3515625,-0.84375 C 3.5335937,-2.9933906 3.1351562,-3.2277656 2.5667969,-3.4797187 2.0277344,-3.7053047 1.5970703,-3.9513984 1.2777344,-4.218 0.95546875,-4.4904609 0.79726562,-4.8332344 0.79726562,-5.24925 c 0,-0.28125 0.0761719,-0.5097656 0.23437498,-0.6914062 0.1552735,-0.178711 0.375,-0.2695313 0.65625,-0.2695313 0.2021485,0 0.3574219,0.058594 0.46875,0.1757813 0.1171875,0.1171875 0.1757813,0.2636718 0.1757813,0.4335937 0,0.1728516 -0.052734,0.3222656 -0.1523438,0.4453125 -0.09375,0.1171875 -0.2402344,0.1757813 -0.4335937,0.1757813 0.038086,0.1347656 0.140625,0.2753906 0.3046875,0.421875 0.1640625,0.140625 0.4335937,0.3105468 0.8085937,0.5039062 0.3515625,0.1816406 0.6503906,0.3632813 0.9023438,0.5507813 0.2578125,0.1875 0.4570312,0.4042968 0.5976562,0.6445312 0.1464844,0.2431641 0.2226563,0.5361328 0.2226563,0.8789063 0,0.5478515 -0.1611328,0.9960937 -0.4804688,1.3476562 -0.3134765,0.34570313 -0.758789,0.515625 -1.3359375,0.515625 z m 6.0732422,0.140625 c -0.5332031,0 -1.0136719,-0.12011719 -1.4414062,-0.36328125 C 6.9759766,-0.57932812 6.6390625,-0.91917187 6.3900391,-1.358625 6.146875,-1.8039375 6.0267578,-2.3312812 6.0267578,-2.9406562 c 0,-0.413086 0.076172,-0.8144532 0.234375,-1.2070313 0.1640625,-0.3896484 0.3691406,-0.7412109 0.6210938,-1.0546875 0.2578125,-0.3105469 0.5302734,-0.5566406 0.8203125,-0.7382812 0.2871093,-0.178711 0.5625,-0.2695313 0.8203125,-0.2695313 0.2167968,0 0.3662109,0.055664 0.4453125,0.1640625 0.084961,0.1025391 0.1289062,0.234375 0.1289062,0.3984375 -0.064453,0.087891 -0.1230469,0.1933594 -0.1757812,0.3164063 -0.046875,0.1259765 -0.070312,0.2636718 -0.070312,0.4101562 0,0.1640625 0.041016,0.2988281 0.1289062,0.3984375 0.09375,0.09375 0.2050781,0.1611328 0.3398438,0.1992188 0.1318359,0.032227 0.2695312,0.052734 0.4101562,0.058594 0.140625,0 0.2607422,-0.00586 0.3632807,-0.023437 l 0.398438,0.65625 C 10.280664,-3.56175 10.063867,-3.4387031 9.8470703,-3.2687812 9.6361328,-3.1047187 9.4603516,-2.9055 9.3197266,-2.671125 c -0.1347657,0.2285156 -0.1992188,0.4775391 -0.1992188,0.75 0,0.28125 0.087891,0.5009766 0.2695313,0.65625 0.1787109,0.1582031 0.4511718,0.2402344 0.8203129,0.2460938 l 0.222656,0.4101562 c -0.243164,0.20507813 -0.4921877,0.36035156 -0.7500002,0.46875 -0.2519531,0.11132813 -0.5332031,0.1640625 -0.84375,0.1640625 z m -0.1523437,-0.65625 c 0.28125,0 0.4921875,-0.0410156 0.6328125,-0.12890625 -0.2666016,-0.09375 -0.4892579,-0.26367185 -0.6679688,-0.51562495 -0.1816406,-0.2578125 -0.2695312,-0.5625 -0.2695312,-0.9140625 0,-0.3339844 0.082031,-0.65625 0.2460937,-0.9609375 C 8.7923828,-3.4621406 9.0208984,-3.7170234 9.3197266,-3.9133125 9.0208984,-3.9513984 8.7601562,-4.0568672 8.5345703,-4.2297187 8.3060547,-4.3996406 8.1947266,-4.6779609 8.1947266,-5.06175 c 0,-0.046875 0.00293,-0.09375 0.011719,-0.140625 -0.4628906,0.2197266 -0.8320312,0.5507813 -1.1132812,0.9960938 -0.2753907,0.4453125 -0.4101563,0.9726562 -0.4101563,1.5820312 0,0.6035156 0.1699219,1.0869141 0.515625,1.453125 0.3427734,0.36035156 0.8378906,0.5390625 1.488281,0.5390625 z m 0,0"
       style="fill:#000000;fill-opacity:1;fill-rule:nonzero;stroke:none"
       aria-label="১৫"
       transform="matrix(1.3333333,0,0,1.3333333,143.86667,63.124)" />
    <path
       id="path20"
       d="M 60.543,18.202 V 39.721"
       style="fill:none;stroke:#000000;stroke-width:0.3985;stroke-linecap:butt;stroke-linejoin:miter;stroke-miterlimit:10;stroke-dasharray:none;stroke-opacity:1"
       transform="matrix(1.3333333,0,0,-1.3333333,96,96.001333)" />
    <path
       id="path21"
       d="m 2.7666172,-0.1164375 c -0.2578125,0 -0.4980469,-0.0380859 -0.7148438,-0.1171875 C 1.8408359,-0.31858594 1.6679844,-0.44749219 1.5361484,-0.62034375 1.4013828,-0.79905469 1.3369297,-1.0246406 1.3369297,-1.3000312 c 0,-0.2578125 0.073242,-0.4716797 0.2226562,-0.6445313 0.1464844,-0.1787109 0.3515625,-0.2695312 0.609375,-0.2695312 0.225586,0 0.4013672,0.067383 0.5273438,0.1992187 0.1318359,0.1347656 0.1992187,0.3017578 0.1992187,0.5039063 0,0.1347656 -0.029297,0.2578125 -0.082031,0.375 -0.055664,0.1113281 -0.1376953,0.18749995 -0.2460938,0.23437495 0.09375,0.0322266 0.2021485,0.046875 0.328125,0.046875 0.3515625,0 0.6386719,-0.09375 0.8671875,-0.28124995 0.234375,-0.1933594 0.3515625,-0.459961 0.3515625,-0.796875 0,-0.3427735 -0.1171875,-0.6240235 -0.3515625,-0.84375 C 3.5341953,-2.9933906 3.1357578,-3.2277656 2.5673984,-3.4797187 2.0283359,-3.7053047 1.5976719,-3.9513984 1.2783359,-4.218 0.95607031,-4.4904609 0.79786719,-4.8332344 0.79786719,-5.24925 c 0,-0.28125 0.0761719,-0.5097656 0.23437501,-0.6914062 0.1552734,-0.178711 0.375,-0.2695313 0.65625,-0.2695313 0.2021484,0 0.3574219,0.058594 0.46875,0.1757813 0.1171875,0.1171875 0.1757812,0.2636718 0.1757812,0.4335937 0,0.1728516 -0.052734,0.3222656 -0.1523437,0.4453125 -0.09375,0.1171875 -0.2402344,0.1757813 -0.4335938,0.1757813 0.038086,0.1347656 0.140625,0.2753906 0.3046875,0.421875 0.1640625,0.140625 0.4335938,0.3105468 0.8085938,0.5039062 0.3515625,0.1816406 0.6503906,0.3632813 0.9023437,0.5507813 0.2578125,0.1875 0.4570313,0.4042968 0.5976563,0.6445312 0.1464844,0.2431641 0.2226562,0.5361328 0.2226562,0.8789063 0,0.5478515 -0.1611328,0.9960937 -0.4804687,1.3476562 -0.3134766,0.34570313 -0.7587891,0.515625 -1.3359375,0.515625 z M 8.1718906,-0.514875 c -0.4072265,0 -0.7734375,-0.0996094 -1.1015625,-0.3046875 C 6.7480625,-1.0217109 6.4961094,-1.31175 6.3086094,-1.68675 c -0.1875,-0.375 -0.28125,-0.8232422 -0.28125,-1.3476562 0,-0.4921875 0.099609,-0.9433594 0.3046875,-1.359375 0.2021484,-0.421875 0.4804687,-0.7558594 0.8320312,-1.0078125 0.3515625,-0.2578125 0.75,-0.3867188 1.1953125,-0.3867188 0.46875,0 0.8583985,0.1171875 1.171875,0.3515625 0.319336,0.2285156 0.5625004,0.5332031 0.7265624,0.9140625 0.164063,0.375 0.246094,0.7910156 0.246094,1.2421875 0,0.4921875 -0.09961,0.9492188 -0.292969,1.3710938 -0.196289,0.4160156 -0.4687499,0.75 -0.8203124,1.00781245 -0.3457031,0.2578125 -0.75,0.38671875 -1.21875,0.38671875 z M 7.9843906,-1.218 c 0.2636719,0 0.506836,-0.070312 0.7265625,-0.2109375 0.225586,-0.140625 0.421875,-0.328125 0.5859375,-0.5625 0.1640625,-0.2402344 0.2871094,-0.5039062 0.375,-0.7851562 0.09375,-0.2871094 0.140625,-0.5742188 0.140625,-0.8554688 0,-0.421875 -0.102539,-0.7646484 -0.3046875,-1.03125 C 9.30275,-4.9269844 8.9951328,-5.06175 8.5820469,-5.06175 c -0.3691406,0 -0.6914063,0.1171875 -0.9726563,0.3515625 -0.2753906,0.2285156 -0.4892578,0.5244141 -0.6445312,0.890625 -0.1494141,0.3603516 -0.2226563,0.7382813 -0.2226563,1.1367188 0,0.4453125 0.1083985,0.8027343 0.328125,1.0664062 C 7.287125,-1.3498359 7.5918125,-1.218 7.9843906,-1.218 Z m 0,0"
       style="fill:#000000;fill-opacity:1;fill-rule:nonzero;stroke:none"
       aria-label="১০"
       transform="matrix(1.3333333,0,0,1.3333333,195.22133,63.124)" />
    <path
       id="path22"
       d="M 99.587,18.202 V 39.721"
       style="fill:none;stroke:#000000;stroke-width:0.3985;stroke-linecap:butt;stroke-linejoin:miter;stroke-miterlimit:10;stroke-dasharray:none;stroke-opacity:1"
       transform="matrix(1.3333333,0,0,-1.3333333,96,96.001333)" />
    <path
       id="path23"
       d="M 4.9226328,0.3523125 C 4.5710703,0.047625 4.2370859,-0.21311719 3.9265391,-0.43284375 3.6218516,-0.65842969 3.3113047,-0.84885937 3.0007578,-1.0070625 2.6960703,-1.171125 2.370875,-1.31175 2.0281016,-1.4289375 1.6911875,-1.546125 1.3161875,-1.6515937 0.90310156,-1.7453437 L 0.70388281,-2.718 c 0.24902344,0.1113281 0.50683599,0.1992188 0.77343749,0.2695313 0.2636719,0.064453 0.5507813,0.09375 0.8554688,0.09375 0.4453125,0 0.7792968,-0.058594 1.0078125,-0.1757813 0.234375,-0.1171875 0.3515625,-0.28125 0.3515625,-0.4921875 0,-0.1171875 -0.029297,-0.2167969 -0.082031,-0.3046875 C 3.5632578,-3.421125 3.4607188,-3.5031562 3.3054453,-3.5734687 3.1472422,-3.6496406 2.9099375,-3.7287422 2.5906016,-3.8078437 2.0515391,-3.9396797 1.620875,-4.1125312 1.3015391,-4.3234687 0.9880625,-4.5344062 0.83278906,-4.8390937 0.83278906,-5.2375312 c 0,-0.2958985 0.0849609,-0.5302735 0.25781254,-0.703125 0.1699218,-0.178711 0.3867187,-0.2695313 0.6445312,-0.2695313 0.2021485,0 0.3574219,0.058594 0.46875,0.1757813 0.1171875,0.1171875 0.1757813,0.2636718 0.1757813,0.4335937 0,0.1728516 -0.046875,0.3222656 -0.140625,0.4453125 -0.09375,0.1171875 -0.2431641,0.1757813 -0.4453125,0.1757813 h -0.011719 c 0.029297,0.1113281 0.1113281,0.2080078 0.2460938,0.2929687 0.140625,0.079102 0.4130859,0.1816406 0.8203125,0.3046875 0.515625,0.1582031 0.8701172,0.3515625 1.0664062,0.5859375 0.2021485,0.234375 0.3046875,0.515625 0.3046875,0.84375 0,0.1962891 -0.041016,0.3867188 -0.1171875,0.5742188 -0.070312,0.1875 -0.1875,0.3515625 -0.3515625,0.4921875 -0.1640625,0.1347656 -0.3808594,0.2197265 -0.6445312,0.2578125 0.3896484,0.2197265 0.7646484,0.477539 1.125,0.77343745 0.3574218,0.29003906 0.6914062,0.58300781 0.9960937,0.87890625 z M 7.8728281,-0.514875 c -0.4072265,0 -0.7734375,-0.0996094 -1.1015625,-0.3046875 C 6.449,-1.0217109 6.1970469,-1.31175 6.0095469,-1.68675 c -0.1875,-0.375 -0.28125,-0.8232422 -0.28125,-1.3476562 0,-0.4921875 0.099609,-0.9433594 0.3046875,-1.359375 0.2021484,-0.421875 0.4804687,-0.7558594 0.8320312,-1.0078125 0.3515625,-0.2578125 0.75,-0.3867188 1.1953125,-0.3867188 0.46875,0 0.8583985,0.1171875 1.171875,0.3515625 0.319336,0.2285156 0.5625,0.5332031 0.7265625,0.9140625 0.1640624,0.375 0.2460934,0.7910156 0.2460934,1.2421875 0,0.4921875 -0.09961,0.9492188 -0.2929684,1.3710938 -0.196289,0.4160156 -0.46875,0.75 -0.8203125,1.00781245 -0.3457031,0.2578125 -0.75,0.38671875 -1.21875,0.38671875 z M 7.6853281,-1.218 c 0.2636719,0 0.506836,-0.070312 0.7265625,-0.2109375 0.225586,-0.140625 0.421875,-0.328125 0.5859375,-0.5625 0.1640625,-0.2402344 0.2871094,-0.5039062 0.375,-0.7851562 0.09375,-0.2871094 0.140625,-0.5742188 0.140625,-0.8554688 0,-0.421875 -0.102539,-0.7646484 -0.3046875,-1.03125 C 9.0036875,-4.9269844 8.6960703,-5.06175 8.2829844,-5.06175 c -0.3691406,0 -0.6914063,0.1171875 -0.9726563,0.3515625 -0.2753906,0.2285156 -0.4892578,0.5244141 -0.6445312,0.890625 -0.1494141,0.3603516 -0.2226563,0.7382813 -0.2226563,1.1367188 0,0.4453125 0.1083985,0.8027343 0.328125,1.0664062 C 6.9880625,-1.3498359 7.29275,-1.218 7.6853281,-1.218 Z m 0,0"
       style="fill:#000000;fill-opacity:1;fill-rule:nonzero;stroke:none"
       aria-label="২০"
       transform="matrix(1.3333333,0,0,1.3333333,246.90133,63.124)" />
    <path
       id="path24"
       d="M 137.763,18.202 V 39.721"
       style="fill:none;stroke:#000000;stroke-width:0.3985;stroke-linecap:butt;stroke-linejoin:miter;stroke-miterlimit:10;stroke-dasharray:none;stroke-opacity:1"
       transform="matrix(1.3333333,0,0,-1.3333333,96,96.001333)" />
    <path
       id="path25"
       d="m -59.467,18.002 h 197.43"
       style="fill:none;stroke:#000000;stroke-width:0.3985;stroke-linecap:butt;stroke-linejoin:miter;stroke-miterlimit:10;stroke-dasharray:none;stroke-opacity:1"
       transform="matrix(1.3333333,0,0,-1.3333333,96,96.001333)" />
  </g>
</svg>
