<svg xmlns="http://www.w3.org/2000/svg" width="113.81236pt" height="175.3527pt" viewBox="-72 -72 113.81236 175.3527" style="position: absolute; top: 0pt; left: 0pt; overflow: visible;">
<g transform="translate(-57.904052734374986,89.38343811035155)">
<g stroke-miterlimit="10" transform="scale(1,-1)"><g stroke="#000" fill="#000">
 <g stroke-width="0.4">
 <g stroke-width="0.8">
 <path d=" M 0.0 147.95418 L 0.0 0.0  " fill="none"/>
 </g>
 <g stroke-width="0.8">
 <path d=" M 0.0 0.0 L 85.35823 0.0  " fill="none"/>
 </g>
 <g stroke-width="0.8">
 <path d=" M 0.0 147.95418 L 85.35823 0.0  " fill="none"/>
 </g>
 <path d=" M 0.0 11.38092 L 11.38092 11.38092 L 11.38092 0.0  " fill="none"/>
 <path d=" M 68.2864 0.0 C 68.2864 6.09845 71.54105 11.73557 76.82231 14.78465  " fill="none"/>
 <g transform="translate(-11.03297,151.48715)">
 <g stroke="none" transform="scale(-1.00375,1.00375)translate(-54.57072448730467,89.38343811035155)scale(-1,-1)"><g fill="#000">
 <g stroke="none"> <text alignment-baseline="baseline" y="89.38343811035155" x="-54.57072448730467" style="font-family: cmr10;" font-size="10">A</text>
</g> </g>
 </g></g>
 <g transform="translate(-10.61632,-10.36629)">
 <g stroke="none" transform="scale(-1.00375,1.00375)translate(-54.57072448730467,89.38343811035155)scale(-1,-1)"><g fill="#000">
 <g stroke="none"> <text alignment-baseline="baseline" y="89.38343811035155" x="-54.57072448730467" style="font-family: cmr10;" font-size="10">B</text>
</g> </g>
 </g></g>
 <g transform="translate(88.8912,-10.36629)">
 <g stroke="none" transform="scale(-1.00375,1.00375)translate(-54.57072448730467,89.38343811035155)scale(-1,-1)"><g fill="#000">
 <g stroke="none"> <text alignment-baseline="baseline" y="89.38343811035155" x="-54.57072448730467" style="font-family: cmr10;" font-size="10">C</text>
</g> </g>
 </g></g>
 <g transform="translate(55.29732,6.5157)">
 <g stroke="none" transform="scale(-1.00375,1.00375)translate(-54.57072448730467,89.38343811035155)scale(-1,-1)"><g fill="#000">
 <g stroke="none"> <text alignment-baseline="baseline" y="89.38343811035155" x="-54.57072448730467" style="font-family: cmr10;" font-size="10">60</text>
<text alignment-baseline="baseline" y="85.75451660156249" x="-44.570686340332024" style="font-family: cmsy7;" font-size="7">◦</text>
</g> </g>
 </g></g>
 <g transform="translate(54.74799,76.44554)">
 <g stroke="none" transform="scale(-1.00375,1.00375)translate(-54.57072448730467,89.38343811035155)scale(-1,-1)"><g fill="#000">
 <g stroke="none"> <text alignment-baseline="baseline" y="89.38343811035155" x="-54.57072448730467" style="font-family: cmr10;" font-size="10">10</text>
<text alignment-baseline="baseline" y="89.38343811035155" x="-41.23735809326171" style="font-family: cmr10;" font-size="10">m</text>
</g> </g>
 </g></g>
 </g>
 </g>
 </g></g></svg>