<svg xmlns="http://www.w3.org/2000/svg" width="184.94421pt" height="98.53038pt" viewBox="-72 -72 184.94421 98.53038" style="position: absolute; top: 0pt; left: 0pt; overflow: visible;">
<g transform="translate(-57.904052734374986,12.561111450195309)">
<g stroke-miterlimit="10" transform="scale(1,-1)"><g stroke="#000" fill="#000">
 <g stroke-width="0.4">
 <g stroke-width="0.8">
 <path d=" M 0.0 0.0 L 113.81097 0.0  " fill="none"/>
 </g>
 <g stroke-width="0.8">
 <path d=" M 113.81097 0.0 L 156.49008 71.13185  " fill="none"/>
 </g>
 <g stroke-width="0.8">
 <path d=" M 156.49008 71.13185 L 42.67911 71.13185  " fill="none"/>
 </g>
 <g stroke-width="0.8">
 <path d=" M 42.67911 71.13185 L 0.0 0.0  " fill="none"/>
 </g>
 <g stroke-width="0.8">
 <path d=" M 0.0 0.0 L 85.35823 71.13185  " fill="none"/>
 </g>
 <g stroke-width="0.8">
 <path d=" M 113.81097 0.0 L 85.35823 71.13185  " fill="none"/>
 </g>
 <g transform="translate(-11.03297,-10.36629)">
 <g stroke="none" transform="scale(-1.00375,1.00375)translate(-54.57072448730467,12.561111450195309)scale(-1,-1)"><g fill="#000">
 <g stroke="none"> <text alignment-baseline="baseline" y="12.561111450195309" x="-54.57072448730467" style="font-family: cmr10;" font-size="10">A</text>
</g> </g>
 </g></g>
 <g transform="translate(117.34395,-10.36629)">
 <g stroke="none" transform="scale(-1.00375,1.00375)translate(-54.57072448730467,12.561111450195309)scale(-1,-1)"><g fill="#000">
 <g stroke="none"> <text alignment-baseline="baseline" y="12.561111450195309" x="-54.57072448730467" style="font-family: cmr10;" font-size="10">B</text>
</g> </g>
 </g></g>
 <g transform="translate(160.02306,74.66483)">
 <g stroke="none" transform="scale(-1.00375,1.00375)translate(-54.57072448730467,12.561111450195309)scale(-1,-1)"><g fill="#000">
 <g stroke="none"> <text alignment-baseline="baseline" y="12.561111450195309" x="-54.57072448730467" style="font-family: cmr10;" font-size="10">C</text>
</g> </g>
 </g></g>
 <g transform="translate(31.50725,74.66483)">
 <g stroke="none" transform="scale(-1.00375,1.00375)translate(-54.57072448730467,12.561111450195309)scale(-1,-1)"><g fill="#000">
 <g stroke="none"> <text alignment-baseline="baseline" y="12.561111450195309" x="-54.57072448730467" style="font-family: cmr10;" font-size="10">D</text>
</g> </g>
 </g></g>
 <g transform="translate(81.95544,74.66483)">
 <g stroke="none" transform="scale(-1.00375,1.00375)translate(-54.57072448730467,12.561111450195309)scale(-1,-1)"><g fill="#000">
 <g stroke="none"> <text alignment-baseline="baseline" y="12.561111450195309" x="-54.57072448730467" style="font-family: cmr10;" font-size="10">E</text>
</g> </g>
 </g></g>
 </g>
 </g>
 </g></g></svg>