<svg xmlns="http://www.w3.org/2000/svg" width="214.19556pt" height="46.32454pt" viewBox="-72 -72 214.19556 46.32454" style="position: absolute; top: 0pt; left: 0pt; overflow: visible;">
<g transform="translate(-71.87001037597655,-26.345458984374993)">
<g stroke-miterlimit="10" transform="scale(1,-1)"><g stroke="#000" fill="#000">
 <g stroke-width="0.4">
 <g stroke-width="0.8">
 <path d=" M 0.0 0.0 L 213.39557 0.0  " fill="none"/>
 </g>
 <g stroke-width="0.8">
 <path d=" M 0.0 22.76227 L 213.39557 22.76227  " fill="none"/>
 </g>
 <g stroke-width="0.8">
 <path d=" M 0.0 45.52455 L 213.39557 45.52455  " fill="none"/>
 </g>
 <g stroke-width="0.8">
 <path d=" M 0.0 0.0 L 0.0 45.52455  " fill="none"/>
 </g>
 <g stroke-width="0.8">
 <path d=" M 85.35823 0.0 L 85.35823 45.52455  " fill="none"/>
 </g>
 <g stroke-width="0.8">
 <path d=" M 128.03734 0.0 L 128.03734 45.52455  " fill="none"/>
 </g>
 <g stroke-width="0.8">
 <path d=" M 170.71646 0.0 L 170.71646 45.52455  " fill="none"/>
 </g>
 <g stroke-width="0.8">
 <path d=" M 213.39557 0.0 L 213.39557 45.52455  " fill="none"/>
 </g>
 <g transform="translate(40.0402,31.99043)">
 <g stroke="none" transform="scale(-1.00375,1.00375)translate(-68.53668212890624,-26.345458984374993)scale(-1,-1)"><g fill="#000">
 <g stroke="none"> <text alignment-baseline="baseline" y="-26.345458984374993" x="-68.53668212890624" style="font-family: cmr10;" font-size="10">x</text>
</g> </g>
 </g></g>
 <g transform="translate(104.19778,30.92099)">
 <g stroke="none" transform="scale(-1.00375,1.00375)translate(-68.53668212890624,-26.345458984374993)scale(-1,-1)"><g fill="#000">
 <g stroke="none"> <text alignment-baseline="baseline" y="-26.345458984374993" x="-68.53668212890624" style="font-family: cmr10;" font-size="10">0</text>
</g> </g>
 </g></g>
 <g transform="translate(146.87689,30.92099)">
 <g stroke="none" transform="scale(-1.00375,1.00375)translate(-68.53668212890624,-26.345458984374993)scale(-1,-1)"><g fill="#000">
 <g stroke="none"> <text alignment-baseline="baseline" y="-26.345458984374993" x="-68.53668212890624" style="font-family: cmr10;" font-size="10">2</text>
</g> </g>
 </g></g>
 <g transform="translate(189.55602,30.92099)">
 <g stroke="none" transform="scale(-1.00375,1.00375)translate(-68.53668212890624,-26.345458984374993)scale(-1,-1)"><g fill="#000">
 <g stroke="none"> <text alignment-baseline="baseline" y="-26.345458984374993" x="-68.53668212890624" style="font-family: cmr10;" font-size="10">4</text>
</g> </g>
 </g></g>
 <g transform="translate(40.0402,10.20036)">
 <g stroke="none" transform="scale(-1.00375,1.00375)translate(-68.53668212890624,-26.345458984374993)scale(-1,-1)"><g fill="#000">
 <g stroke="none"> <text alignment-baseline="baseline" y="-26.345458984374993" x="-68.53668212890624" style="font-family: cmr10;" font-size="10">y</text>
</g> </g>
 </g></g>
 <g transform="translate(102.53111,8.1587)">
 <g stroke="none" transform="scale(-1.00375,1.00375)translate(-68.53668212890624,-26.345458984374993)scale(-1,-1)"><g fill="#000">
 <g stroke="none"> <text alignment-baseline="baseline" y="-26.345458984374993" x="-68.53668212890624" style="font-family: cmr10;" font-size="10">-4</text>
</g> </g>
 </g></g>
 <g transform="translate(146.87689,8.1587)">
 <g stroke="none" transform="scale(-1.00375,1.00375)translate(-68.53668212890624,-26.345458984374993)scale(-1,-1)"><g fill="#000">
 <g stroke="none"> <text alignment-baseline="baseline" y="-26.345458984374993" x="-68.53668212890624" style="font-family: cmr10;" font-size="10">0</text>
</g> </g>
 </g></g>
 <g transform="translate(189.55602,8.1587)">
 <g stroke="none" transform="scale(-1.00375,1.00375)translate(-68.53668212890624,-26.345458984374993)scale(-1,-1)"><g fill="#000">
 <g stroke="none"> <text alignment-baseline="baseline" y="-26.345458984374993" x="-68.53668212890624" style="font-family: cmr10;" font-size="10">4</text>
</g> </g>
 </g></g>
 </g>
 </g>
 </g></g></svg>