<svg xmlns="http://www.w3.org/2000/svg" width="210.99834pt" height="175.75557pt" viewBox="-72 -72 210.99834 175.75557" style="position: absolute; top: 0pt; left: 0pt; overflow: visible;">
<g transform="translate(-50.55406188964842,86.73963928222655)">
<g stroke-miterlimit="10" transform="scale(1,-1)"><g stroke="#000" fill="#000">
 <g stroke-width="0.4">
 <g stroke-width="1.6">
 <path d=" M 85.35823 142.26372 L 0.0 0.0 L 170.71646 0.0 Z  " fill="none"/>
 </g>
 <g stroke-width="1.6">
 <path d=" M 42.67911 71.13185 L 128.03734 71.13185  " fill="none"/>
 </g>
 <g transform="translate(79.24156,145.79669)">
 <g stroke="none" transform="scale(-1.00375,1.00375)translate(-47.22073364257812,86.73963928222655)scale(-1,-1)"><g fill="#000">
 <g stroke="none"> <text alignment-baseline="baseline" y="86.73963928222655" x="-47.22073364257812" style="font-family: cmbx12;" font-size="14.399993896484375">A</text>
</g> </g>
 </g></g>
 <g transform="translate(-15.04964,-13.41295)">
 <g stroke="none" transform="scale(-1.00375,1.00375)translate(-47.22073364257812,86.73963928222655)scale(-1,-1)"><g fill="#000">
 <g stroke="none"> <text alignment-baseline="baseline" y="86.73963928222655" x="-47.22073364257812" style="font-family: cmbx12;" font-size="14.399993896484375">B</text>
</g> </g>
 </g></g>
 <g transform="translate(174.24944,-13.41295)">
 <g stroke="none" transform="scale(-1.00375,1.00375)translate(-47.22073364257812,86.73963928222655)scale(-1,-1)"><g fill="#000">
 <g stroke="none"> <text alignment-baseline="baseline" y="86.73963928222655" x="-47.22073364257812" style="font-family: cmbx12;" font-size="14.399993896484375">C</text>
</g> </g>
 </g></g>
 <g transform="translate(131.57031,66.19186)">
 <g stroke="none" transform="scale(-1.00375,1.00375)translate(-47.22073364257812,86.73963928222655)scale(-1,-1)"><g fill="#000">
 <g stroke="none"> <text alignment-baseline="baseline" y="86.73963928222655" x="-47.22073364257812" style="font-family: cmbx12;" font-size="14.399993896484375">F</text>
</g> </g>
 </g></g>
 <g transform="translate(28.5128,66.19186)">
 <g stroke="none" transform="scale(-1.00375,1.00375)translate(-47.22073364257812,86.73963928222655)scale(-1,-1)"><g fill="#000">
 <g stroke="none"> <text alignment-baseline="baseline" y="86.73963928222655" x="-47.22073364257812" style="font-family: cmbx12;" font-size="14.399993896484375">E</text>
</g> </g>
 </g></g>
 </g>
 </g>
 </g></g></svg>