<svg xmlns="http://www.w3.org/2000/svg" width="103.98656pt" height="112.81235pt" viewBox="-72 -72 103.98656 112.81235" style="position: absolute; top: 0pt; left: 0pt; overflow: visible;">
<g transform="translate(-18.41561889648437,-15.863830566406246)">
<g stroke-miterlimit="10" transform="scale(1,-1)"><g stroke="#000" fill="#000">
 <g stroke-width="0.4">
 <g stroke-width="1.6">
 <path d=" M 0.0 0.0 M 42.67911 0.0 C 42.67911 23.57132 23.57132 42.67911 0.0 42.67911 C -23.57132 42.67911 -42.67911 23.57132 -42.67911 0.0 C -42.67911 -23.57132 -23.57132 -42.67911 0.0 -42.67911 C 23.57132 -42.67911 42.67911 -23.57132 42.67911 0.0 Z M 0.0 0.0  " fill="none"/>
 </g>
 <g stroke-width="1.6">
 <path d=" M -34.96071 -24.47978 L 0.0 42.67911 L 34.96071 -24.47978 L 0.0 -42.67911 Z  " fill="none"/>
 </g>
 <g stroke-width="1.6">
 <path d=" M -34.96071 -24.47978 L 0.0 -42.67911  " fill="none"/>
 </g>
 <g stroke-width="1.6">
 <path d=" M -34.96071 -24.47978 L 0.0 0.0  " fill="none"/>
 </g>
 <g stroke-width="1.6">
 <path d=" M 34.96071 -24.47978 L 0.0 0.0  " fill="none"/>
 </g>
 <g stroke-width="1.6">
 <path d=" M 34.96071 -24.47978 L 0.0 -42.67911  " fill="none"/>
 </g>
 <g stroke-width="1.6">
 <path d=" M 0.0 0.0 L 0.0 42.67911  " fill="none"/>
 </g>
 <path d=" M 0.0 0.0 M 3.0 0.0 C 3.0 1.65688 1.65688 3.0 0.0 3.0 C -1.65688 3.0 -3.0 1.65688 -3.0 0.0 C -3.0 -1.65688 -1.65688 -3.0 0.0 -3.0 C 1.65688 -3.0 3.0 -1.65688 3.0 0.0 Z M 0.0 0.0  " stroke="none"/>
 <g transform="translate(-4.09026,46.21208)">
 <g stroke="none" transform="scale(-1.00375,1.00375)translate(-15.082290649414059,-15.863830566406246)scale(-1,-1)"><g fill="#000">
 <g stroke="none"> <text alignment-baseline="baseline" y="-15.863830566406246" x="-15.082290649414059" style="font-family: cmbx10;" font-size="10">B</text>
</g> </g>
 </g></g>
 <g transform="translate(-47.18808,-27.91034)">
 <g stroke="none" transform="scale(-1.00375,1.00375)translate(-15.082290649414059,-15.863830566406246)scale(-1,-1)"><g fill="#000">
 <g stroke="none"> <text alignment-baseline="baseline" y="-15.863830566406246" x="-15.082290649414059" style="font-family: cmbx10;" font-size="10">A</text>
</g> </g>
 </g></g>
 <g transform="translate(38.49368,-27.91034)">
 <g stroke="none" transform="scale(-1.00375,1.00375)translate(-15.082290649414059,-15.863830566406246)scale(-1,-1)"><g fill="#000">
 <g stroke="none"> <text alignment-baseline="baseline" y="-15.863830566406246" x="-15.082290649414059" style="font-family: cmbx10;" font-size="10">C</text>
</g> </g>
 </g></g>
 <g transform="translate(-4.4097,-53.0732)">
 <g stroke="none" transform="scale(-1.00375,1.00375)translate(-15.082290649414059,-15.863830566406246)scale(-1,-1)"><g fill="#000">
 <g stroke="none"> <text alignment-baseline="baseline" y="-15.863830566406246" x="-15.082290649414059" style="font-family: cmbx10;" font-size="10">D</text>
</g> </g>
 </g></g>
 <g transform="translate(-12.1718,3.53297)">
 <g stroke="none" transform="scale(-1.00375,1.00375)translate(-15.082290649414059,-15.863830566406246)scale(-1,-1)"><g fill="#000">
 <g stroke="none"> <text alignment-baseline="baseline" y="-15.863830566406246" x="-15.082290649414059" style="font-family: cmbx10;" font-size="10">O</text>
</g> </g>
 </g></g>
 </g>
 </g>
 </g></g></svg>