<svg xmlns="http://www.w3.org/2000/svg" width="148.13997pt" height="144.11053pt" viewBox="-72 -72 148.13997 144.11053" style="position: absolute; top: 0pt; left: 0pt; overflow: visible;">
<g transform="translate(-53.44578552246092,21.124816894531246)">
<g stroke-miterlimit="10" transform="scale(1,-1)"><g stroke="#000" fill="#000">
 <g stroke-width="0.4">
 <g stroke-width="1.6">
 <path d=" M 1.6 42.67911 L 112.21097 42.67911  " fill="none"/>
 <g transform="matrix(-1.0,0.0,0.0,-1.0,0.8,42.67911)">
 <g stroke-dasharray="none" stroke-dashoffset="0.0">
 <g stroke-linecap="round">
 <g stroke-linejoin="round">
 <path d=" M -3.52 4.56773 C -2.8769 1.82706 -1.44385 0.5329 0.0 0.0 C -1.44385 -0.5329 -2.8769 -1.82706 -3.52 -4.56773  " fill="none"/>
 </g>
 </g>
 </g>
  </g>
 <g transform="translate(113.01097,42.67911)">
 <g stroke-dasharray="none" stroke-dashoffset="0.0">
 <g stroke-linecap="round">
 <g stroke-linejoin="round">
 <path d=" M -3.52 4.56773 C -2.8769 1.82706 -1.44385 0.5329 0.0 0.0 C -1.44385 -0.5329 -2.8769 -1.82706 -3.52 -4.56773  " fill="none"/>
 </g>
 </g>
 </g>
  </g>
 </g>
 <g stroke-width="1.6">
 <path d=" M 1.6 0.0 L 112.21097 0.0  " fill="none"/>
 <g transform="matrix(-1.0,0.0,0.0,-1.0,0.8,0.0)">
 <g stroke-dasharray="none" stroke-dashoffset="0.0">
 <g stroke-linecap="round">
 <g stroke-linejoin="round">
 <path d=" M -3.52 4.56773 C -2.8769 1.82706 -1.44385 0.5329 0.0 0.0 C -1.44385 -0.5329 -2.8769 -1.82706 -3.52 -4.56773  " fill="none"/>
 </g>
 </g>
 </g>
  </g>
 <g transform="translate(113.01097,0.0)">
 <g stroke-dasharray="none" stroke-dashoffset="0.0">
 <g stroke-linecap="round">
 <g stroke-linejoin="round">
 <path d=" M -3.52 4.56773 C -2.8769 1.82706 -1.44385 0.5329 0.0 0.0 C -1.44385 -0.5329 -2.8769 -1.82706 -3.52 -4.56773  " fill="none"/>
 </g>
 </g>
 </g>
  </g>
 </g>
 <g stroke-width="1.6">
 <path d=" M 84.65677 78.22977 L 29.1542 -35.55066  " fill="none"/>
 <g transform="matrix(0.43842,0.89874,-0.89874,0.43842,85.00749,78.94876)">
 <g stroke-dasharray="none" stroke-dashoffset="0.0">
 <g stroke-linecap="round">
 <g stroke-linejoin="round">
 <path d=" M -3.52 4.56773 C -2.8769 1.82706 -1.44385 0.5329 0.0 0.0 C -1.44385 -0.5329 -2.8769 -1.82706 -3.52 -4.56773  " fill="none"/>
 </g>
 </g>
 </g>
  </g>
 <g transform="matrix(-0.43842,-0.89874,0.89874,-0.43842,28.80348,-36.26965)">
 <g stroke-dasharray="none" stroke-dashoffset="0.0">
 <g stroke-linecap="round">
 <g stroke-linejoin="round">
 <path d=" M -3.52 4.56773 C -2.8769 1.82706 -1.44385 0.5329 0.0 0.0 C -1.44385 -0.5329 -2.8769 -1.82706 -3.52 -4.56773  " fill="none"/>
 </g>
 </g>
 </g>
  </g>
 </g>
 <g transform="translate(81.01103,83.20073)">
 <g stroke="none" transform="scale(-1.00375,1.00375)translate(-50.11245727539061,21.124816894531246)scale(-1,-1)"><g fill="#000">
 <g stroke="none"> <text alignment-baseline="baseline" y="21.124816894531246" x="-50.11245727539061" style="font-family: cmbx10;" font-size="10">A</text>
</g> </g>
 </g></g>
 <g transform="translate(24.36249,-47.38274)">
 <g stroke="none" transform="scale(-1.00375,1.00375)translate(-50.11245727539061,21.124816894531246)scale(-1,-1)"><g fill="#000">
 <g stroke="none"> <text alignment-baseline="baseline" y="21.124816894531246" x="-50.11245727539061" style="font-family: cmbx10;" font-size="10">B</text>
</g> </g>
 </g></g>
 <g transform="translate(-11.39403,39.24855)">
 <g stroke="none" transform="scale(-1.00375,1.00375)translate(-50.11245727539061,21.124816894531246)scale(-1,-1)"><g fill="#000">
 <g stroke="none"> <text alignment-baseline="baseline" y="21.124816894531246" x="-50.11245727539061" style="font-family: cmbx10;" font-size="10">P</text>
</g> </g>
 </g></g>
 <g transform="translate(117.34395,40.22076)">
 <g stroke="none" transform="scale(-1.00375,1.00375)translate(-50.11245727539061,21.124816894531246)scale(-1,-1)"><g fill="#000">
 <g stroke="none"> <text alignment-baseline="baseline" y="21.124816894531246" x="-50.11245727539061" style="font-family: cmbx10;" font-size="10">Q</text>
</g> </g>
 </g></g>
 <g transform="translate(-12.15791,-3.43056)">
 <g stroke="none" transform="scale(-1.00375,1.00375)translate(-50.11245727539061,21.124816894531246)scale(-1,-1)"><g fill="#000">
 <g stroke="none"> <text alignment-baseline="baseline" y="21.124816894531246" x="-50.11245727539061" style="font-family: cmbx10;" font-size="10">R</text>
</g> </g>
 </g></g>
 <g transform="translate(117.34395,-3.43056)">
 <g stroke="none" transform="scale(-1.00375,1.00375)translate(-50.11245727539061,21.124816894531246)scale(-1,-1)"><g fill="#000">
 <g stroke="none"> <text alignment-baseline="baseline" y="21.124816894531246" x="-50.11245727539061" style="font-family: cmbx10;" font-size="10">S</text>
</g> </g>
 </g></g>
 <g transform="translate(45.067,46.21208)">
 <g stroke="none" transform="scale(-1.00375,1.00375)translate(-50.11245727539061,21.124816894531246)scale(-1,-1)"><g fill="#000">
 <g stroke="none"> <text alignment-baseline="baseline" y="21.124816894531246" x="-50.11245727539061" style="font-family: cmbx10;" font-size="10">C</text>
</g> </g>
 </g></g>
 <g transform="translate(44.55312,-10.39409)">
 <g stroke="none" transform="scale(-1.00375,1.00375)translate(-50.11245727539061,21.124816894531246)scale(-1,-1)"><g fill="#000">
 <g stroke="none"> <text alignment-baseline="baseline" y="21.124816894531246" x="-50.11245727539061" style="font-family: cmbx10;" font-size="10">D</text>
</g> </g>
 </g></g>
 </g>
 </g>
 </g></g></svg>