<svg xmlns="http://www.w3.org/2000/svg" width="170.71785pt" height="84.30402pt" viewBox="-72 -72 170.71785 84.30402" style="position: absolute; top: 0pt; left: 0pt; overflow: visible;">
<g transform="translate(-57.904052734374986,-1.6652526855468746)">
<g stroke-miterlimit="10" transform="scale(1,-1)"><g stroke="#000" fill="#000">
 <g stroke-width="0.4">
 <g stroke-width="0.8">
 <path d=" M 0.0 0.0 L 113.81097 0.0  " fill="none"/>
 </g>
 <g stroke-width="0.8">
 <path d=" M 113.81097 0.0 L 142.26372 56.90549  " fill="none"/>
 </g>
 <g stroke-width="0.8">
 <path d=" M 142.26372 56.90549 L 28.45274 56.90549  " fill="none"/>
 </g>
 <g stroke-width="0.8">
 <path d=" M 28.45274 56.90549 L 0.0 0.0  " fill="none"/>
 </g>
 <g stroke-width="0.8">
 <path d=" M 0.0 0.0 L 142.26372 56.90549  " fill="none"/>
 </g>
 <g stroke-width="0.8">
 <path d=" M 28.45274 56.90549 L 113.81097 0.0  " fill="none"/>
 </g>
 <g transform="translate(-11.03297,-10.36629)">
 <g stroke="none" transform="scale(-1.00375,1.00375)translate(-54.57072448730467,-1.6652526855468746)scale(-1,-1)"><g fill="#000">
 <g stroke="none"> <text alignment-baseline="baseline" y="-1.6652526855468746" x="-54.57072448730467" style="font-family: cmr10;" font-size="10">A</text>
</g> </g>
 </g></g>
 <g transform="translate(117.34395,-10.36629)">
 <g stroke="none" transform="scale(-1.00375,1.00375)translate(-54.57072448730467,-1.6652526855468746)scale(-1,-1)"><g fill="#000">
 <g stroke="none"> <text alignment-baseline="baseline" y="-1.6652526855468746" x="-54.57072448730467" style="font-family: cmr10;" font-size="10">B</text>
</g> </g>
 </g></g>
 <g transform="translate(145.79669,60.43846)">
 <g stroke="none" transform="scale(-1.00375,1.00375)translate(-54.57072448730467,-1.6652526855468746)scale(-1,-1)"><g fill="#000">
 <g stroke="none"> <text alignment-baseline="baseline" y="-1.6652526855468746" x="-54.57072448730467" style="font-family: cmr10;" font-size="10">C</text>
</g> </g>
 </g></g>
 <g transform="translate(17.28088,60.43846)">
 <g stroke="none" transform="scale(-1.00375,1.00375)translate(-54.57072448730467,-1.6652526855468746)scale(-1,-1)"><g fill="#000">
 <g stroke="none"> <text alignment-baseline="baseline" y="-1.6652526855468746" x="-54.57072448730467" style="font-family: cmr10;" font-size="10">D</text>
</g> </g>
 </g></g>
 </g>
 </g>
 </g></g></svg>