<svg xmlns="http://www.w3.org/2000/svg" width="91.8487pt" height="91.8487pt" viewBox="-72 -72 91.8487 91.8487" style="position: absolute; top: 0pt; left: 0pt; overflow: visible;">
<g transform="translate(-26.345657348632805,-26.345657348632805)">
<g stroke-miterlimit="10" transform="scale(1,-1)"><g stroke="#000" fill="#000">
 <g stroke-width="0.4">
 <g stroke="#000">
 <g stroke-width="0.8">
 <path d=" M -45.52435 -11.38113 M -45.52435 -0.00021 L -45.52435 0.00021 C -45.52435 6.2858 -40.42902 11.38113 -34.14343 11.38113 L 34.14343 11.38113 C 40.42902 11.38113 45.52435 6.2858 45.52435 0.00021 L 45.52435 -0.00021 C 45.52435 -6.2858 40.42902 -11.38113 34.14343 -11.38113 L -34.14343 -11.38113 C -40.42902 -11.38113 -45.52435 -6.2858 -45.52435 -0.00021 Z M 45.52435 11.38113  " fill="none"/>
 </g>
 </g>
 <g stroke="#000">
 <g stroke-width="0.8">
 <path d=" M -11.38113 -45.52435 M -11.38113 -34.14343 L -11.38113 34.14343 C -11.38113 40.42902 -6.2858 45.52435 -0.00021 45.52435 L 0.00021 45.52435 C 6.2858 45.52435 11.38113 40.42902 11.38113 34.14343 L 11.38113 -34.14343 C 11.38113 -40.42902 6.2858 -45.52435 0.00021 -45.52435 L -0.00021 -45.52435 C -6.2858 -45.52435 -11.38113 -40.42902 -11.38113 -34.14343 Z M 11.38113 45.52435  " fill="none"/>
 </g>
 </g>
 </g>
 </g>
 </g></g></svg>