<?xml version="1.0" encoding="UTF-8" standalone="no"?>
<!-- Created with Inkscape (http://www.inkscape.org/) -->

<svg
   version="1.1"
   id="svg1"
   width="312.41333"
   height="226.02667"
   viewBox="0 0 312.41333 226.02667"
   sodipodi:docname="upload_fqinehbudbb4metn6fg2yjdptd.pdf"
   xmlns:inkscape="http://www.inkscape.org/namespaces/inkscape"
   xmlns:sodipodi="http://sodipodi.sourceforge.net/DTD/sodipodi-0.dtd"
   xmlns="http://www.w3.org/2000/svg"
   xmlns:svg="http://www.w3.org/2000/svg">
  <defs
     id="defs1" />
  <sodipodi:namedview
     id="namedview1"
     pagecolor="#ffffff"
     bordercolor="#000000"
     borderopacity="0.25"
     inkscape:showpageshadow="2"
     inkscape:pageopacity="0.0"
     inkscape:pagecheckerboard="0"
     inkscape:deskcolor="#d1d1d1">
    <inkscape:page
       x="0"
       y="0"
       inkscape:label="1"
       id="page1"
       width="312.41333"
       height="226.02667"
       margin="0"
       bleed="0" />
  </sodipodi:namedview>
  <g
     id="g1"
     inkscape:groupmode="layer"
     inkscape:label="1">
    <path
       id="path1"
       d="M -147.30492,0 H 0 v 85.04628 z"
       style="fill:none;stroke:#000000;stroke-width:1.19553;stroke-linecap:butt;stroke-linejoin:miter;stroke-miterlimit:10;stroke-dasharray:none;stroke-opacity:1"
       transform="matrix(1.3333333,0,0,-1.3333333,234.57067,198.16533)" />
    <path
       id="path2"
       d="m 0,85.04628 v 42.52315"
       style="fill:none;stroke:#000000;stroke-width:1.19553;stroke-linecap:butt;stroke-linejoin:miter;stroke-miterlimit:10;stroke-dasharray:2.98883, 2.98883;stroke-dashoffset:0;stroke-opacity:1"
       transform="matrix(1.3333333,0,0,-1.3333333,234.57067,198.16533)" />
    <path
       id="path3"
       d="m 0,64.63641 c -7.29086,0 -14.0302,3.89103 -17.67549,10.20494"
       style="fill:none;stroke:#000000;stroke-width:0.79701;stroke-linecap:butt;stroke-linejoin:miter;stroke-miterlimit:10;stroke-dasharray:none;stroke-opacity:1"
       transform="matrix(1.3333333,0,0,-1.3333333,234.57067,198.16533)" />
    <g
       id="g3"
       aria-label="60&#10;◦"
       transform="matrix(1.3333333,0,0,1.3333333,206.73333,116.41733)">
      <path
         id="path4"
         d="m 4.5476563,-2.0268672 c 0,-1.265625 -0.8789063,-2.2265625 -1.9921875,-2.2265625 -0.6679688,0 -1.0429688,0.5039063 -1.2421875,0.984375 v -0.234375 c 0,-2.5195312 1.2421875,-2.8828125 1.7460937,-2.8828125 0.234375,0 0.65625,0.058594 0.8789063,0.3984375 -0.1523438,0 -0.5507813,0 -0.5507813,0.4453125 0,0.3164063 0.234375,0.4570313 0.4570313,0.4570313 0.1640625,0 0.4570312,-0.082031 0.4570312,-0.46875 0,-0.5976563 -0.4335937,-1.078125 -1.265625,-1.078125 -1.2773437,0 -2.61328125,1.2890625 -2.61328125,3.4804687 0,2.66015626 1.14843755,3.37500001 2.07421875,3.37500001 1.1132813,0 2.0507813,-0.9375 2.0507813,-2.25000001 z m -0.890625,-0.011719 c 0,0.4804687 0,0.9726562 -0.1640625,1.33593746 -0.3046875,0.59765625 -0.7617188,0.64453125 -0.9960938,0.64453125 -0.6210937,0 -0.9257812,-0.59765625 -0.984375,-0.75 C 1.3367188,-1.2768672 1.3367188,-2.0737422 1.3367188,-2.2495234 c 0,-0.7734375 0.3164062,-1.7695313 1.21875,-1.7695313 0.1523437,0 0.609375,0 0.9257812,0.609375 0.1757813,0.375 0.1757813,0.8789063 0.1757813,1.3710935 z m 5.90625,-1.1484375 c 0,-0.796875 -0.046875,-1.59375 -0.3984375,-2.3320313 -0.4570313,-0.9609375 -1.2773438,-1.1132812 -1.6875,-1.1132812 -0.5976563,0 -1.3359375,0.2578125 -1.734375,1.1835937 -0.328125,0.6914063 -0.375,1.4648438 -0.375,2.2617188 0,0.75 0.046875,1.640625 0.4453125,2.40234371 0.4335937,0.80859375 1.1601562,1.0078125 1.6523437,1.0078125 0.5390625,0 1.2890625,-0.2109375 1.734375,-1.16015625 C 9.5164063,-1.6284297 9.5632813,-2.4018672 9.5632813,-3.1870237 Z M 8.73125,-3.3042109 c 0,0.75 0,1.4179687 -0.1054687,2.0625 C 8.4734375,-0.30421094 7.9109375,4.765625e-4 7.465625,4.765625e-4 7.0789063,4.765625e-4 6.48125,-0.24561719 6.3054688,-1.2065547 6.2,-1.8042109 6.2,-2.7182734 6.2,-3.3042109 c 0,-0.6445313 0,-1.3007813 0.082031,-1.8398438 0.1875,-1.1835937 0.9257812,-1.265625 1.1835937,-1.265625 0.328125,0 0.984375,0.1757813 1.171875,1.1601563 0.09375,0.5625 0.09375,1.3125 0.09375,1.9453125 z m 0,0"
         style="fill:#000000;fill-opacity:1;fill-rule:nonzero;stroke:none" />
      <path
         id="path5"
         d="m 13.500781,-5.3608516 c 0,-0.84375 -0.679687,-1.5 -1.5,-1.5 -0.84375,0 -1.5,0.6796875 -1.5,1.5 0,0.84375 0.679688,1.5 1.5,1.5 0.832032,0 1.5,-0.6796875 1.5,-1.5 z m -1.5,1.1484375 c -0.65625,0 -1.160156,-0.5273437 -1.160156,-1.1484375 0,-0.6445312 0.515625,-1.1601562 1.160156,-1.1601562 0.65625,0 1.160157,0.5390625 1.160157,1.1601562 0,0.6445313 -0.527344,1.1484375 -1.160157,1.1484375 z m 0,0"
         style="fill:#000000;fill-opacity:1;fill-rule:nonzero;stroke:none" />
    </g>
    <path
       id="path6"
       d="M 0,85.04628 C 2.98885,83.55193 4.98138,80.0649 4.98138,75.08351 V 52.4859 c 0,-4.98138 1.99252,-8.46841 4.98139,-9.96277 C 6.9739,41.02878 4.98138,37.54175 4.98138,32.56036 V 9.96277 C 4.98138,4.98138 2.98885,1.49435 0,0"
       style="fill:none;stroke:#000000;stroke-width:0.99628;stroke-linecap:butt;stroke-linejoin:miter;stroke-miterlimit:10;stroke-dasharray:none;stroke-opacity:1"
       transform="matrix(1.3333333,0,0,-1.3333333,234.57067,198.16533)" />
    <g
       id="g6"
       aria-label="10িম"
       transform="matrix(1.3333333,0,0,1.3333333,259.588,147.412)">
      <path
         id="path7"
         d="m 4.1732578,-0.00138281 v -0.3046875 H 3.8568516 c -0.9023438,0 -0.9257813,-0.1171875 -0.9257813,-0.48046875 V -6.3763828 c 0,-0.234375 0,-0.2578125 -0.234375,-0.2578125 -0.609375,0.6328125 -1.4882812,0.6328125 -1.80468749,0.6328125 v 0.3164062 c 0.19921879,0 0.78515629,0 1.30078129,-0.2578125 v 5.15625004 c 0,0.3515625 -0.035156,0.48046875 -0.9257813,0.48046875 H 0.95060156 v 0.3046875 C 1.3021641,-0.03653906 2.1576328,-0.03653906 2.5560703,-0.03653906 c 0.3984375,0 1.265625,0 1.6171875,0.03515625 z m 5.390625,-3.18749999 c 0,-0.796875 -0.046875,-1.59375 -0.3984375,-2.3320313 -0.4570312,-0.9609375 -1.2773437,-1.1132812 -1.6875,-1.1132812 -0.5976562,0 -1.3359375,0.2578125 -1.734375,1.1835937 -0.328125,0.6914063 -0.375,1.4648438 -0.375,2.2617188 0,0.75 0.046875,1.640625 0.4453125,2.40234374 0.4335938,0.80859375 1.1601563,1.0078125 1.6523438,1.0078125 0.5390625,0 1.2890625,-0.2109375 1.734375,-1.16015625 C 9.5170078,-1.6302891 9.5638828,-2.4037266 9.5638828,-3.1888828 Z M 8.7318516,-3.3060703 c 0,0.75 0,1.4179687 -0.1054688,2.0625 -0.1523437,0.93749999 -0.7148437,1.24218749 -1.1601562,1.24218749 -0.3867188,0 -0.984375,-0.24609375 -1.1601563,-1.20703129 -0.1054687,-0.5976562 -0.1054687,-1.5117187 -0.1054687,-2.0976562 0,-0.6445313 0,-1.3007813 0.082031,-1.8398438 0.1875,-1.1835937 0.9257813,-1.265625 1.1835938,-1.265625 0.328125,0 0.984375,0.1757813 1.171875,1.1601563 0.09375,0.5625 0.09375,1.3125 0.09375,1.9453125 z m 0,0"
         style="fill:#000000;fill-opacity:1;fill-rule:nonzero;stroke:none" />
      <path
         id="path8"
         d="m 16.032633,-6.2006016 v 0.7148438 h -1.054688 v 5.48437499 H 14.216227 V -5.4857578 h -1.042969 v -0.7148438 h 0.925781 c -0.111328,-0.1230468 -0.219726,-0.2578125 -0.328125,-0.3984375 -0.111328,-0.140625 -0.208008,-0.2753906 -0.292969,-0.4101562 0.225586,-0.3984375 0.46875,-0.7558594 0.726563,-1.078125 0.257812,-0.3193359 0.5625,-0.5742188 0.914062,-0.7617188 0.351563,-0.1875 0.776368,-0.28125 1.277344,-0.28125 0.46875,0 0.914063,0.079102 1.335938,0.234375 0.421875,0.1494141 0.83789,0.3603516 1.253906,0.6328125 0.421875,0.2753907 0.858398,0.6035157 1.3125,0.984375 l -0.410156,0.5390625 c -0.462891,-0.375 -0.875977,-0.6826171 -1.242188,-0.9257812 -0.369141,-0.2490234 -0.720703,-0.4335938 -1.054687,-0.5507813 -0.336914,-0.1230468 -0.697266,-0.1875 -1.078125,-0.1875 -0.547852,0 -0.990235,0.140625 -1.324219,0.421875 -0.328125,0.2753907 -0.615235,0.6328125 -0.855469,1.078125 0.05273,0.1025391 0.128906,0.2109375 0.222656,0.328125 0.09375,0.1171875 0.199219,0.2431641 0.316407,0.375 z m 6.19043,0 v 0.7148438 h -1.042969 v 5.48437499 H 20.418375 V -1.0912266 c -0.219727,-0.3105468 -0.439453,-0.5976562 -0.65625,-0.8554687 -0.219727,-0.2578125 -0.451172,-0.4628906 -0.691406,-0.6210938 -0.243164,-0.1552734 -0.503906,-0.234375 -0.785156,-0.234375 -0.251954,0 -0.462891,0.064453 -0.632813,0.1875 -0.164062,0.1259766 -0.246094,0.3164063 -0.246094,0.5742188 0,0.2197266 0.07617,0.4042969 0.234375,0.5507812 0.164063,0.1494141 0.401367,0.2783204 0.714844,0.3867188 l -0.257812,0.76171874 C 17.559,-0.53458594 17.172281,-0.78067969 16.937906,-1.0795078 16.703531,-1.3841953 16.586344,-1.71525 16.586344,-2.0756016 c 0,-0.3193359 0.07617,-0.5859375 0.234375,-0.796875 0.155273,-0.2109375 0.351562,-0.3691406 0.585937,-0.4804687 0.234375,-0.1083984 0.462891,-0.1640625 0.691407,-0.1640625 -0.04687,-0.4599609 -0.208008,-0.7910156 -0.480469,-0.9960938 -0.266602,-0.2109375 -0.703125,-0.3457031 -1.3125,-0.4101562 l 0.105469,-0.5625 h -0.585938 v -0.7148438 z m -1.804688,0.7148438 H 17.09025 c 0.544922,0.070312 0.975586,0.2753906 1.289063,0.609375 0.319335,0.3369141 0.495117,0.8261719 0.527343,1.4648437 0.328125,0.1025391 0.612305,0.2636719 0.855469,0.4804688 0.249023,0.2197266 0.47168,0.46875 0.667969,0.75 -0.0088,-0.099609 -0.01172,-0.2021484 -0.01172,-0.3046875 0,-0.099609 0,-0.2050781 0,-0.3164063 z m 0,0"
         style="fill:#000000;fill-opacity:1;fill-rule:nonzero;stroke:none" />
    </g>
    <path
       id="path9"
       d="m 7.1379375,9.375e-5 v -0.3046875 H 6.9621563 c -0.5976563,0 -0.7382813,-0.0703125 -0.84375,-0.3984375 L 3.9621563,-6.9374063 C 3.9152813,-7.0663125 3.8918438,-7.136625 3.7395,-7.136625 c -0.1640625,0 -0.1875,0.058594 -0.2460937,0.1992187 l -2.0625,5.9648438 C 1.255125,-0.46865625 0.8566875,-0.3163125 0.317625,-0.30459375 V 9.375e-5 L 1.3371563,-0.0350625 2.4855938,9.375e-5 v -0.3046875 c -0.5039063,0 -0.75,-0.2578125 -0.75,-0.515625 0,-0.0234375 0.011719,-0.12890625 0.023437,-0.140625 L 2.2160625,-2.2733438 H 4.677 l 0.5273438,1.52343755 c 0.011719,0.046875 0.023437,0.10546875 0.023437,0.140625 0,0.3046875 -0.5507813,0.3046875 -0.8203125,0.3046875 V 9.375e-5 C 4.7590313,-0.0350625 5.4621563,-0.0350625 5.8371563,-0.0350625 Z M 4.5598125,-2.5780313 H 2.3215313 l 1.1132812,-3.234375 z m 0,0"
       style="fill:#000000;fill-opacity:1;fill-rule:nonzero;stroke:none"
       aria-label="A"
       transform="matrix(1.3333333,0,0,1.3333333,239.264,32.828)" />
    <path
       id="path10"
       d="m 6.6223125,-2.3188672 c 0,-0.1054687 0,-0.1757812 -0.1289062,-0.1757812 -0.1054688,0 -0.1054688,0.070312 -0.1171875,0.1640625 -0.082031,1.42968746 -1.1484375,2.23828121 -2.2265625,2.23828121 -0.609375,0 -2.5664063,-0.33984375 -2.5664063,-3.30468751 0,-2.9765625 1.9453125,-3.3164062 2.5546875,-3.3164062 1.078125,0 1.96875,0.9023437 2.1679688,2.3671875 0.023437,0.1289062 0.023437,0.1640625 0.1640625,0.1640625 0.1523437,0 0.1523437,-0.035156 0.1523437,-0.234375 v -2.3671875 c 0,-0.1640625 0,-0.234375 -0.1054687,-0.234375 -0.035156,0 -0.082031,0 -0.1640625,0.1171875 l -0.4921875,0.7382812 c -0.375,-0.3632812 -0.8789063,-0.8554687 -1.8398438,-0.8554687 -1.8632812,0 -3.45703125,1.5820312 -3.45703125,3.609375 0,2.0625 1.60546875,3.63281246 3.45703125,3.63281246 1.6289063,0 2.6015625,-1.38281246 2.6015625,-2.54296876 z m 0,0"
       style="fill:#000000;fill-opacity:1;fill-rule:nonzero;stroke:none"
       aria-label="C"
       transform="matrix(1.3333333,0,0,1.3333333,239.264,89.306667)" />
    <path
       id="path11"
       d="m 6.4816875,-1.8267813 c 0,-0.8671875 -0.8085937,-1.6054687 -1.921875,-1.7226562 0.9726563,-0.1992188 1.6523438,-0.8320313 1.6523438,-1.5703125 0,-0.8671875 -0.9140625,-1.6875 -2.203125,-1.6875 H 0.3645 v 0.3164062 h 0.234375 c 0.7617188,0 0.7851563,0.1054688 0.7851563,0.46875 v 5.25000005 c 0,0.3515625 -0.023437,0.46875 -0.7851563,0.46875 H 0.3645 v 0.3046875 h 3.9023438 c 1.3242187,0 2.2148437,-0.890625 2.2148437,-1.82812505 z M 5.2512188,-5.11975 c 0,0.6328125 -0.4921875,1.4765625 -1.59375,1.4765625 H 2.2160625 v -2.4492188 c 0,-0.328125 0.011719,-0.3984375 0.4804688,-0.3984375 h 1.2421875 c 0.9609375,0 1.3125,0.84375 1.3125,1.3710938 z m 0.234375,3.2929687 c 0,0.703125 -0.515625,1.52343755 -1.5351563,1.52343755 H 2.6965313 c -0.46875,0 -0.4804688,-0.0703125 -0.4804688,-0.3984375 V -3.4205313 h 1.875 c 0.984375,0 1.3945313,0.9257813 1.3945313,1.59375 z m 0,0"
       style="fill:#000000;fill-opacity:1;fill-rule:nonzero;stroke:none"
       aria-label="B"
       transform="matrix(1.3333333,0,0,1.3333333,239.264,202.70133)" />
    <path
       id="path12"
       d="m 7.0441328,-3.3502188 c 0,-1.8867187 -1.3476562,-3.4570312 -3.046875,-3.4570312 H 0.35272656 v 0.3164062 h 0.234375 c 0.77343754,0 0.78515624,0.1054688 0.78515624,0.46875 v 5.25000005 c 0,0.3515625 -0.011719,0.46875 -0.78515624,0.46875 h -0.234375 v 0.3046875 H 3.9972578 c 1.6757813,0 3.046875,-1.47656255 3.046875,-3.35156255 z m -0.9960937,0 c 0,1.1132813 -0.1875,1.7109375 -0.5507813,2.1914063 -0.1992187,0.26953125 -0.7617187,0.85546875 -1.7695312,0.85546875 H 2.7199141 c -0.46875,0 -0.4921875,-0.0703125 -0.4921875,-0.3984375 V -6.0924063 c 0,-0.328125 0.023437,-0.3984375 0.4921875,-0.3984375 h 0.9960937 c 0.6210938,0 1.3007813,0.2109375 1.8164063,0.9257813 0.421875,0.5859375 0.515625,1.4414062 0.515625,2.2148437 z m 0,0"
       style="fill:#000000;fill-opacity:1;fill-rule:nonzero;stroke:none"
       aria-label="D"
       transform="matrix(1.3333333,0,0,1.3333333,23.322667,202.70133)" />
  </g>
</svg>
