<?xml version="1.0" encoding="UTF-8" standalone="no"?>
<!-- Created with Inkscape (http://www.inkscape.org/) -->

<svg
   version="1.1"
   id="svg1"
   width="339.41333"
   height="69.599998"
   viewBox="0 0 339.41333 69.599998"
   sodipodi:docname="upload_kyukvc2snjlpgnxqfflzz455q2.pdf"
   xmlns:inkscape="http://www.inkscape.org/namespaces/inkscape"
   xmlns:sodipodi="http://sodipodi.sourceforge.net/DTD/sodipodi-0.dtd"
   xmlns="http://www.w3.org/2000/svg"
   xmlns:svg="http://www.w3.org/2000/svg">
  <defs
     id="defs1" />
  <sodipodi:namedview
     id="namedview1"
     pagecolor="#ffffff"
     bordercolor="#000000"
     borderopacity="0.25"
     inkscape:showpageshadow="2"
     inkscape:pageopacity="0.0"
     inkscape:pagecheckerboard="0"
     inkscape:deskcolor="#d1d1d1">
    <inkscape:page
       x="0"
       y="0"
       inkscape:label="1"
       id="page1"
       width="339.41333"
       height="69.599998"
       margin="0"
       bleed="0" />
  </sodipodi:namedview>
  <g
     id="g1"
     inkscape:groupmode="layer"
     inkscape:label="1">
    <path
       id="path1"
       d="M -58.72,61.838 H 172.593"
       style="fill:none;stroke:#000000;stroke-width:0.3985;stroke-linecap:butt;stroke-linejoin:miter;stroke-miterlimit:10;stroke-dasharray:none;stroke-opacity:1"
       transform="matrix(1.3333333,0,0,-1.3333333,96,95.994667)" />
    <path
       id="path2"
       d="M -58.521,46.097 V 61.639"
       style="fill:none;stroke:#000000;stroke-width:0.3985;stroke-linecap:butt;stroke-linejoin:miter;stroke-miterlimit:10;stroke-dasharray:none;stroke-opacity:1"
       transform="matrix(1.3333333,0,0,-1.3333333,96,95.994667)" />
    <path
       id="path3"
       d="M 2.7550937,0.14192969 C 2.3859531,0.14192969 2.04025,0.01888281 1.712125,-0.22135156 1.3898594,-0.46158594 1.1291172,-0.81900781 0.92696875,-1.2877578 0.73067969,-1.7623672 0.634,-2.3365859 0.634,-3.0104141 c 0,-0.3984375 0.0527344,-0.7851562 0.1640625,-1.1601562 0.1171875,-0.3808594 0.2841797,-0.7265625 0.5039062,-1.03125 0.225586,-0.3046875 0.4980469,-0.5449219 0.8203125,-0.7265625 0.328125,-0.1787109 0.694336,-0.2695313 1.1015625,-0.2695313 H 3.8215 l 0.3398437,0.515625 h -0.46875 c -0.336914,0 -0.6533203,0.082031 -0.9492187,0.2460938 -0.2900391,0.1582031 -0.5449219,0.3808594 -0.7617188,0.6679687 -0.2197265,0.28125 -0.3925781,0.6064454 -0.515625,0.9726563 -0.1259765,0.3691406 -0.1875,0.7587891 -0.1875,1.171875 0,0.4628906 0.073242,0.890625 0.2226563,1.2890625 0.1464844,0.39843749 0.4013672,0.70312499 0.7617187,0.91406249 -0.070312,-0.12304688 -0.1054687,-0.26367188 -0.1054687,-0.421875 0,-0.20214839 0.064453,-0.36328129 0.1992187,-0.48046879 0.140625,-0.1171875 0.3105469,-0.1757812 0.515625,-0.1757812 0.2490235,0 0.4394532,0.079102 0.5742188,0.234375 0.1318359,0.1582031 0.1992187,0.34570311 0.1992187,0.56249999 0,0.2578125 -0.079102,0.46582031 -0.234375,0.62109375 -0.149414,0.14648437 -0.3691406,0.22265625 -0.65625,0.22265625 z M 10.249234,0.17708594 9.7804844,-0.18619531 C 9.6164219,-0.43521875 9.4113437,-0.60221094 9.1711094,-0.69010156 8.9279453,-0.7750625 8.6847812,-0.81900781 8.4445469,-0.81900781 c -0.3603516,0 -0.7001953,0.0234375 -1.0195313,0.0703125 -0.3134765,0.046875 -0.6445312,0.0703125 -0.9960937,0.0703125 -0.3691407,0 -0.6914063,-0.0498047 -0.9726563,-0.15234375 C 5.1750156,-0.939125 4.9523594,-1.126625 4.7882969,-1.3932266 4.6242344,-1.6656875 4.5422031,-2.0377578 4.5422031,-2.5065078 c 0,-0.2021484 0.014648,-0.4042969 0.046875,-0.609375 0.029297,-0.2021484 0.061523,-0.375 0.09375,-0.515625 l 0.4335938,0.09375 c -0.070312,0.3046875 -0.1054688,0.5800781 -0.1054688,0.8203125 0,0.4160156 0.1289063,0.7089844 0.3867188,0.8789062 0.2578125,0.1728516 0.6152343,0.2578125 1.078125,0.2578125 0.3574218,0 0.6708984,-0.014648 0.9375,-0.046875 0.2724609,-0.038086 0.5332031,-0.058594 0.7851562,-0.058594 0.3105469,0 0.609375,0.070312 0.890625,0.2109375 0.28125,0.1347656 0.5185547,0.3720703 0.7148438,0.71484374 -0.017578,-0.16992188 -0.029297,-0.34277344 -0.035156,-0.51562504 -0.00879,-0.1699218 -0.011719,-0.3427734 -0.011719,-0.515625 v -2.4023437 c -0.2666016,-0.46875 -0.4863282,-0.8085938 -0.65625,-1.0195313 -0.1640625,-0.2109375 -0.3603516,-0.3164062 -0.5859375,-0.3164062 -0.1347657,0 -0.2519532,0.052734 -0.3515625,0.1523437 -0.1025391,0.09375 -0.2109375,0.2226563 -0.328125,0.3867188 0.375,0.2050781 0.6503906,0.4306641 0.8320312,0.6796875 0.178711,0.2519531 0.2695313,0.5039062 0.2695313,0.7617187 0,0.2666016 -0.070312,0.4628907 -0.2109375,0.5859375 -0.140625,0.1171875 -0.3222657,0.1757813 -0.5390625,0.1757813 -0.2109375,0 -0.4042969,-0.064453 -0.5742188,-0.1992188 C 7.4484531,-3.1276016 7.3341953,-3.3385391 7.2726719,-3.6197891 7.2082187,-3.3619766 7.0968906,-3.1568984 6.9328281,-3.0104141 6.774625,-2.861 6.5812656,-2.7877578 6.3468906,-2.7877578 c -0.1640625,0 -0.328125,-0.052734 -0.4921875,-0.1640625 -0.1582031,-0.1171875 -0.234375,-0.3164063 -0.234375,-0.5976563 0,-0.2402343 0.087891,-0.5097656 0.2695313,-0.8085937 0.1787109,-0.2958984 0.5097656,-0.5537109 0.9960937,-0.7734375 -0.1728515,-0.1875 -0.3398437,-0.3222656 -0.5039062,-0.4101563 -0.1582032,-0.09375 -0.3603516,-0.140625 -0.609375,-0.140625 H 3.9211094 l -0.3398438,-0.515625 h 2.1796875 c 0.2021485,0 0.375,0.029297 0.515625,0.082031 0.140625,0.055664 0.2753906,0.140625 0.4101563,0.2578125 0.1318359,0.1171875 0.2753906,0.2666016 0.4335937,0.4453125 0.234375,-0.3105469 0.4482422,-0.5302734 0.6445313,-0.65625 0.1933593,-0.1318359 0.3925781,-0.1992188 0.5976562,-0.1992188 0.3046875,0 0.5566406,0.1289063 0.7617188,0.3867188 0.2109375,0.2519531 0.4248047,0.5742187 0.6445312,0.9726562 -0.00879,-0.1552734 -0.011719,-0.3544921 -0.011719,-0.5976562 0,-0.2490234 0,-0.4570313 0,-0.6210938 v -0.8085937 l 0.046875,-0.011719 0.4570314,0.328125 0.03516,0.421875 h 0.738282 l 0.351562,0.515625 h -1.089844 v 5.84765629 z m 2.150391,0.0703125 -0.503906,-0.28125 V -5.6822891 H 11.134 l -0.328125,-0.515625 h 1.019531 C 11.675992,-6.32975 11.532437,-6.4674453 11.391812,-6.6080703 11.257047,-6.7486953 11.125211,-6.89225 10.993375,-7.0416641 c 0.263672,-0.6708984 0.632812,-1.1894531 1.101562,-1.5585937 0.46875,-0.375 0.990235,-0.5625 1.570313,-0.5625 0.427734,0 0.858398,0.099609 1.289062,0.2929687 0.427735,0.1875 0.84668,0.4453125 1.253907,0.7734375 0.404297,0.328125 0.779297,0.6914063 1.125,1.0898438 l -0.234375,0.2226562 c -0.439453,-0.4277343 -0.84375,-0.7617187 -1.21875,-0.9960937 -0.375,-0.2402344 -0.726563,-0.4130859 -1.054688,-0.515625 -0.328125,-0.099609 -0.641601,-0.1523438 -0.9375,-0.1523438 -0.328125,0 -0.638672,0.079102 -0.925781,0.234375 -0.290039,0.1582032 -0.533203,0.3574219 -0.726563,0.5976563 -0.1875,0.2431641 -0.313476,0.4921875 -0.375,0.75 0.08496,0.1259766 0.158204,0.2460937 0.222657,0.3632812 0.07031,0.1113282 0.146484,0.2109375 0.234375,0.3046875 h 0.855468 l 0.351563,0.515625 h -1.089844 v 5.91796879 z m 5.613281,0 -0.503906,-0.28125 V -3.5260391 c -0.290039,-0.4833984 -0.550781,-0.8554687 -0.785156,-1.1132812 -0.228516,-0.2578125 -0.451172,-0.4365234 -0.667969,-0.5390625 -0.219727,-0.099609 -0.462891,-0.1523438 -0.726563,-0.1523438 -0.322265,0 -0.594726,0.09082 -0.820312,0.2695313 -0.228516,0.1728516 -0.339844,0.4277344 -0.339844,0.7617187 0,0.4160157 0.143555,0.6738282 0.433594,0.7734375 -0.0088,-0.038086 -0.01172,-0.076172 -0.01172,-0.1171875 0,-0.2109375 0.06445,-0.3808593 0.199219,-0.515625 0.140625,-0.1318359 0.316406,-0.1992187 0.527344,-0.1992187 0.240234,0 0.433593,0.076172 0.574218,0.2226562 0.140625,0.140625 0.210938,0.328125 0.210938,0.5625 0,0.2431641 -0.08203,0.4423829 -0.246094,0.5976563 -0.158203,0.1494141 -0.380859,0.2226562 -0.667969,0.2226562 -0.28125,0 -0.539062,-0.064453 -0.773437,-0.1992187 -0.234375,-0.1318359 -0.427734,-0.3310547 -0.574219,-0.5976563 -0.140625,-0.2636718 -0.210937,-0.5888671 -0.210937,-0.9726562 0,-0.3339844 0.06445,-0.6328125 0.199218,-0.890625 0.131836,-0.2636719 0.316407,-0.46875 0.550782,-0.609375 0.234375,-0.1464844 0.503906,-0.2226563 0.808593,-0.2226563 0.272461,0 0.530274,0.064453 0.773438,0.1875 0.240234,0.1171875 0.486328,0.3251954 0.738281,0.6210938 0.249024,0.2900391 0.530274,0.703125 0.84375,1.2421875 -0.0088,-0.1640625 -0.01758,-0.3515625 -0.02344,-0.5625 C 17.51193,-4.9733047 17.509,-5.1813125 17.509,-5.3776016 v -1.5585937 l 0.03516,-0.011719 0.457031,0.328125 0.04687,0.421875 h 0.726563 l 0.351562,0.515625 h -1.078125 v 5.91796879 z m 0,0"
       style="fill:#000000;fill-opacity:1;fill-rule:nonzero;stroke:none"
       aria-label="েশিণ"
       transform="matrix(1.3333333,0,0,1.3333333,35.154667,28.314667)" />
    <path
       id="path4"
       d="M -13.908,46.097 V 61.639"
       style="fill:none;stroke:#000000;stroke-width:0.3985;stroke-linecap:butt;stroke-linejoin:miter;stroke-miterlimit:10;stroke-dasharray:none;stroke-opacity:1"
       transform="matrix(1.3333333,0,0,-1.3333333,96,95.994667)" />
    <path
       id="path5"
       d="m 4.5464297,-1.6979141 c 0,-0.8203125 -0.6210938,-1.59375 -1.6523438,-1.8046875 0.8085938,-0.2695312 1.3945313,-0.9726562 1.3945313,-1.7578125 0,-0.8203125 -0.8789063,-1.3710937 -1.8398438,-1.3710937 -1.0078125,0 -1.75781246,0.5976562 -1.75781246,1.3476562 0,0.3398438 0.2109375,0.5273438 0.50390626,0.5273438 0.3046875,0 0.5039062,-0.2226563 0.5039062,-0.515625 0,-0.4921875 -0.46875,-0.4921875 -0.609375,-0.4921875 0.3046875,-0.4921875 0.9609375,-0.6210938 1.3242188,-0.6210938 0.4101562,0 0.9492187,0.2226563 0.9492187,1.1132813 0,0.1289062 -0.011719,0.703125 -0.2695312,1.1367187 -0.3046875,0.4804688 -0.6445313,0.515625 -0.890625,0.515625 -0.082031,0.011719 -0.3164063,0.035156 -0.3867188,0.035156 -0.082031,0.011719 -0.1523437,0.023437 -0.1523437,0.1171875 0,0.1171875 0.070312,0.1171875 0.234375,0.1171875 h 0.4453125 c 0.8085937,0 1.1835937,0.6679687 1.1835937,1.6523437 0,1.34765629 -0.6914062,1.64062504 -1.125,1.64062504 -0.4335937,0 -1.171875,-0.17578125 -1.52343746,-0.76171875 0.35156246,0.0585938 0.65624996,-0.1640625 0.65624996,-0.53906249 0,-0.3632813 -0.2695312,-0.5625 -0.56249996,-0.5625 -0.234375,0 -0.55078125,0.140625 -0.55078125,0.5742187 0,0.91406254 0.92578121,1.57031254 2.00390621,1.57031254 1.21875,0 2.1210938,-0.9140625 2.1210938,-1.92187474 z m 4.6054687,1.69921879 v -0.3046875 H 8.8354922 c -0.9023438,0 -0.9257813,-0.1171875 -0.9257813,-0.48046875 V -6.3736953 c 0,-0.234375 0,-0.2578125 -0.234375,-0.2578125 -0.609375,0.6328125 -1.4882812,0.6328125 -1.8046875,0.6328125 v 0.3164062 c 0.1992188,0 0.7851563,0 1.3007813,-0.2578125 v 5.15625004 c 0,0.3515625 -0.035156,0.48046875 -0.9257813,0.48046875 H 5.9292422 v 0.3046875 c 0.3515625,-0.03515625 1.2070312,-0.03515625 1.6054687,-0.03515625 0.3984375,0 1.265625,0 1.6171875,0.03515625 z M 14.932172,-2.5416641 V -2.7526016 H 9.9634219 v 0.2109375 z m 4.699219,0.9023438 v -0.3164063 h -0.996094 v -4.5234375 c 0,-0.1992187 0,-0.2578125 -0.152344,-0.2578125 -0.09375,0 -0.117187,0 -0.199219,0.1171875 l -3.058593,4.6640625 v 0.3164063 h 2.648437 v 0.86718749 c 0,0.3515625 -0.02344,0.46875 -0.761719,0.46875 h -0.210937 v 0.3046875 c 0.410156,-0.03515625 0.9375,-0.03515625 1.347656,-0.03515625 0.421875,0 0.949219,0 1.359375,0.03515625 v -0.3046875 h -0.210937 c -0.738282,0 -0.761719,-0.1171875 -0.761719,-0.46875 V -1.6393203 Z m -1.699219,-0.3164063 h -2.425781 l 2.425781,-3.7148437 z m 6.574219,-1.2304687 c 0,-0.796875 -0.04687,-1.59375 -0.398438,-2.3320313 -0.457031,-0.9609375 -1.277344,-1.1132812 -1.6875,-1.1132812 -0.597656,0 -1.335937,0.2578125 -1.734375,1.1835937 -0.328125,0.6914063 -0.375,1.4648438 -0.375,2.2617188 0,0.75 0.04687,1.640625 0.445313,2.40234374 0.433593,0.80859375 1.160156,1.0078125 1.652343,1.0078125 0.539063,0 1.289063,-0.2109375 1.734375,-1.16015625 0.316407,-0.69140629 0.363282,-1.46484379 0.363282,-2.24999999 z m -0.832032,-0.1171875 c 0,0.75 0,1.4179687 -0.105468,2.0625 -0.152344,0.93749999 -0.714844,1.24218749 -1.160157,1.24218749 -0.386718,0 -0.984375,-0.24609375 -1.160156,-1.20703129 -0.105469,-0.5976562 -0.105469,-1.5117187 -0.105469,-2.0976562 0,-0.6445313 0,-1.3007813 0.08203,-1.8398438 0.1875,-1.1835937 0.925781,-1.265625 1.183593,-1.265625 0.328125,0 0.984375,0.1757813 1.171875,1.1601563 0.09375,0.5625 0.09375,1.3125 0.09375,1.9453125 z m 0,0"
       style="fill:#000000;fill-opacity:1;fill-rule:nonzero;stroke:none"
       aria-label="31–40"
       transform="matrix(1.3333333,0,0,1.3333333,85.692,28.314667)" />
    <path
       id="path6"
       d="M 23.352,46.097 V 61.639"
       style="fill:none;stroke:#000000;stroke-width:0.3985;stroke-linecap:butt;stroke-linejoin:miter;stroke-miterlimit:10;stroke-dasharray:none;stroke-opacity:1"
       transform="matrix(1.3333333,0,0,-1.3333333,96,95.994667)" />
    <path
       id="path7"
       d="M 4.6868203,-1.6393203 V -1.9557266 H 3.6907266 v -4.5234375 c 0,-0.1992187 0,-0.2578125 -0.1523438,-0.2578125 -0.09375,0 -0.1171875,0 -0.1992187,0.1171875 l -3.05859379,4.6640625 v 0.3164063 H 2.9290078 v 0.86718749 c 0,0.3515625 -0.023437,0.46875 -0.7617187,0.46875 H 1.9563516 v 0.3046875 c 0.4101562,-0.03515625 0.9375,-0.03515625 1.3476562,-0.03515625 0.421875,0 0.9492188,0 1.359375,0.03515625 v -0.3046875 H 4.4524453 c -0.7382812,0 -0.7617187,-0.1171875 -0.7617187,-0.46875 V -1.6393203 Z M 2.9876016,-1.9557266 H 0.56182031 L 2.9876016,-5.6705703 Z m 6.1669921,1.95703129 v -0.3046875 H 8.8381875 c -0.9023438,0 -0.9257813,-0.1171875 -0.9257813,-0.48046875 V -6.3736953 c 0,-0.234375 0,-0.2578125 -0.234375,-0.2578125 -0.609375,0.6328125 -1.4882812,0.6328125 -1.8046875,0.6328125 v 0.3164062 c 0.1992188,0 0.7851563,0 1.3007813,-0.2578125 v 5.15625004 c 0,0.3515625 -0.035156,0.48046875 -0.9257813,0.48046875 H 5.9319375 v 0.3046875 C 6.2835,-0.03385156 7.1389687,-0.03385156 7.5374062,-0.03385156 c 0.3984375,0 1.265625,0 1.6171875,0.03515625 z M 14.931937,-2.5416641 V -2.7526016 H 9.9631875 v 0.2109375 z m 4.488282,0.5390625 c 0,-1.1835937 -0.820313,-2.1796875 -1.898438,-2.1796875 -0.480469,0 -0.902344,0.1640625 -1.265625,0.5039063 v -1.9335938 c 0.199219,0.058594 0.527344,0.1289063 0.84375,0.1289063 1.230469,0 1.933594,-0.9140625 1.933594,-1.0429688 0,-0.058594 -0.03516,-0.1054687 -0.105469,-0.1054687 0,0 -0.03516,0 -0.08203,0.023437 -0.199219,0.09375 -0.679688,0.2929687 -1.347656,0.2929687 -0.398438,0 -0.855469,-0.070312 -1.324219,-0.28125 -0.08203,-0.023437 -0.128906,-0.023437 -0.128906,-0.023437 -0.09375,0 -0.09375,0.082031 -0.09375,0.234375 v 2.953125 c 0,0.1757813 0,0.2578125 0.140625,0.2578125 0.07031,0 0.08203,-0.035156 0.128906,-0.09375 0.105469,-0.1523437 0.480469,-0.6914062 1.277344,-0.6914062 0.527343,0 0.773437,0.4570312 0.855468,0.6328125 0.152344,0.375 0.175782,0.7617187 0.175782,1.2539062 0,0.3515625 0,0.9492188 -0.234375,1.37109379 -0.246094,0.38671875 -0.609375,0.64453125 -1.066407,0.64453125 -0.726562,0 -1.300781,-0.52734375 -1.464843,-1.11328124 0.02344,0.011719 0.05859,0.011719 0.164062,0.011719 0.328125,0 0.503906,-0.2460937 0.503906,-0.4804687 0,-0.2460938 -0.175781,-0.4921875 -0.503906,-0.4921875 -0.140625,0 -0.480469,0.070312 -0.480469,0.5273437 0,0.85546879 0.679688,1.82812504 1.792969,1.82812504 1.160156,0 2.179688,-0.9609375 2.179688,-2.22656254 z m 5.085937,-1.1835937 c 0,-0.796875 -0.04687,-1.59375 -0.398437,-2.3320313 -0.457032,-0.9609375 -1.277344,-1.1132812 -1.6875,-1.1132812 -0.597657,0 -1.335938,0.2578125 -1.734375,1.1835937 -0.328125,0.6914063 -0.375,1.4648438 -0.375,2.2617188 0,0.75 0.04687,1.640625 0.445312,2.40234374 0.433594,0.80859375 1.160156,1.0078125 1.652344,1.0078125 0.539062,0 1.289062,-0.2109375 1.734375,-1.16015625 0.316406,-0.69140629 0.363281,-1.46484379 0.363281,-2.24999999 z m -0.832031,-0.1171875 c 0,0.75 0,1.4179687 -0.105469,2.0625 -0.152344,0.93749999 -0.714844,1.24218749 -1.160156,1.24218749 -0.386719,0 -0.984375,-0.24609375 -1.160156,-1.20703129 -0.105469,-0.5976562 -0.105469,-1.5117187 -0.105469,-2.0976562 0,-0.6445313 0,-1.3007813 0.08203,-1.8398438 0.1875,-1.1835937 0.925781,-1.265625 1.183594,-1.265625 0.328125,0 0.984375,0.1757813 1.171875,1.1601563 0.09375,0.5625 0.09375,1.3125 0.09375,1.9453125 z m 0,0"
       style="fill:#000000;fill-opacity:1;fill-rule:nonzero;stroke:none"
       aria-label="41–50"
       transform="matrix(1.3333333,0,0,1.3333333,135.372,28.314667)" />
    <path
       id="path8"
       d="M 60.613,46.097 V 61.639"
       style="fill:none;stroke:#000000;stroke-width:0.3985;stroke-linecap:butt;stroke-linejoin:miter;stroke-miterlimit:10;stroke-dasharray:none;stroke-opacity:1"
       transform="matrix(1.3333333,0,0,-1.3333333,96,95.994667)" />
    <path
       id="path9"
       d="m 4.4775781,-2.0026016 c 0,-1.1835937 -0.8203125,-2.1796875 -1.8984375,-2.1796875 -0.4804687,0 -0.9023437,0.1640625 -1.265625,0.5039063 v -1.9335938 c 0.1992188,0.058594 0.5273438,0.1289063 0.84375,0.1289063 1.2304688,0 1.9335938,-0.9140625 1.9335938,-1.0429688 0,-0.058594 -0.035156,-0.1054687 -0.1054688,-0.1054687 0,0 -0.035156,0 -0.082031,0.023437 -0.1992188,0.09375 -0.6796875,0.2929687 -1.3476563,0.2929687 -0.3984375,0 -0.8554687,-0.070312 -1.3242187,-0.28125 -0.082031,-0.023437 -0.1289063,-0.023437 -0.1289063,-0.023437 -0.09375,0 -0.09375,0.082031 -0.09375,0.234375 v 2.953125 c 0,0.1757813 0,0.2578125 0.140625,0.2578125 0.070312,0 0.082031,-0.035156 0.1289063,-0.09375 0.1054687,-0.1523437 0.4804687,-0.6914062 1.2773437,-0.6914062 0.5273438,0 0.7734375,0.4570312 0.8554688,0.6328125 0.1523437,0.375 0.1757812,0.7617187 0.1757812,1.2539062 0,0.3515625 0,0.9492188 -0.234375,1.37109379 -0.2460937,0.38671875 -0.609375,0.64453125 -1.0664062,0.64453125 -0.7265625,0 -1.30078128,-0.52734375 -1.46484378,-1.11328124 0.0234375,0.011719 0.0585938,0.011719 0.1640625,0.011719 0.32812498,0 0.50390628,-0.2460937 0.50390628,-0.4804687 0,-0.2460938 -0.1757813,-0.4921875 -0.50390628,-0.4921875 -0.140625,0 -0.48046875,0.070312 -0.48046875,0.5273437 0,0.85546879 0.67968753,1.82812504 1.79296873,1.82812504 1.1601563,0 2.1796875,-0.9609375 2.1796873,-2.22656284 z m 4.6757813,2.00390629 v -0.3046875 H 8.8369531 c -0.9023437,0 -0.9257812,-0.1171875 -0.9257812,-0.48046875 V -6.3736953 c 0,-0.234375 0,-0.2578125 -0.234375,-0.2578125 -0.609375,0.6328125 -1.4882813,0.6328125 -1.8046875,0.6328125 v 0.3164062 c 0.1992187,0 0.7851562,0 1.3007812,-0.2578125 v 5.15625004 c 0,0.3515625 -0.035156,0.48046875 -0.9257812,0.48046875 H 5.9307031 v 0.3046875 c 0.3515625,-0.03515625 1.2070313,-0.03515625 1.6054688,-0.03515625 0.3984375,0 1.265625,0 1.6171875,0.03515625 z M 14.930703,-2.5416641 V -2.7526016 H 9.9619531 v 0.2109375 z m 4.561524,0.515625 c 0,-1.265625 -0.878907,-2.2265625 -1.992188,-2.2265625 -0.667969,0 -1.042969,0.5039063 -1.242187,0.984375 v -0.234375 c 0,-2.5195312 1.242187,-2.8828125 1.746093,-2.8828125 0.234375,0 0.65625,0.058594 0.878907,0.3984375 -0.152344,0 -0.550782,0 -0.550782,0.4453125 0,0.3164063 0.234375,0.4570313 0.457032,0.4570313 0.164062,0 0.457031,-0.082031 0.457031,-0.46875 0,-0.5976563 -0.433594,-1.078125 -1.265625,-1.078125 -1.277344,0 -2.613281,1.2890625 -2.613281,3.4804687 0,2.66015629 1.148437,3.37500004 2.074218,3.37500004 1.113282,0 2.050782,-0.9375 2.050782,-2.25000004 z m -0.890625,-0.011719 c 0,0.4804687 0,0.9726562 -0.164063,1.33593749 -0.304687,0.59765625 -0.761719,0.64453125 -0.996094,0.64453125 -0.621093,0 -0.925781,-0.59765625 -0.984375,-0.75 -0.175781,-0.46875004 -0.175781,-1.26562504 -0.175781,-1.44140624 0,-0.7734375 0.316406,-1.7695313 1.21875,-1.7695313 0.152344,0 0.609375,0 0.925781,0.609375 0.175782,0.375 0.175782,0.8789063 0.175782,1.3710938 z m 5.90625,-1.1484375 c 0,-0.796875 -0.04687,-1.59375 -0.398438,-2.3320313 -0.457031,-0.9609375 -1.277344,-1.1132812 -1.6875,-1.1132812 -0.597656,0 -1.335937,0.2578125 -1.734375,1.1835937 -0.328125,0.6914063 -0.375,1.4648438 -0.375,2.2617188 0,0.75 0.04687,1.640625 0.445313,2.40234374 0.433593,0.80859375 1.160156,1.0078125 1.652343,1.0078125 0.539063,0 1.289063,-0.2109375 1.734375,-1.16015625 0.316407,-0.69140629 0.363282,-1.46484379 0.363282,-2.24999999 z M 23.67582,-3.3033828 c 0,0.75 0,1.4179687 -0.105468,2.0625 -0.152344,0.93749999 -0.714844,1.24218749 -1.160157,1.24218749 -0.386718,0 -0.984375,-0.24609375 -1.160156,-1.20703129 -0.105469,-0.5976562 -0.105469,-1.5117187 -0.105469,-2.0976562 0,-0.6445313 0,-1.3007813 0.08203,-1.8398438 0.1875,-1.1835937 0.925781,-1.265625 1.183593,-1.265625 0.328125,0 0.984375,0.1757813 1.171875,1.1601563 0.09375,0.5625 0.09375,1.3125 0.09375,1.9453125 z m 0,0"
       style="fill:#000000;fill-opacity:1;fill-rule:nonzero;stroke:none"
       aria-label="51–60"
       transform="matrix(1.3333333,0,0,1.3333333,185.05333,28.314667)" />
    <path
       id="path10"
       d="M 97.873,46.097 V 61.639"
       style="fill:none;stroke:#000000;stroke-width:0.3985;stroke-linecap:butt;stroke-linejoin:miter;stroke-miterlimit:10;stroke-dasharray:none;stroke-opacity:1"
       transform="matrix(1.3333333,0,0,-1.3333333,96,95.994667)" />
    <path
       id="path11"
       d="m 4.5476563,-2.0260391 c 0,-1.265625 -0.8789063,-2.2265625 -1.9921875,-2.2265625 -0.6679688,0 -1.0429688,0.5039063 -1.2421875,0.984375 v -0.234375 c 0,-2.5195312 1.2421875,-2.8828125 1.7460937,-2.8828125 0.234375,0 0.65625,0.058594 0.8789063,0.3984375 -0.1523438,0 -0.5507813,0 -0.5507813,0.4453125 0,0.3164063 0.234375,0.4570313 0.4570313,0.4570313 0.1640625,0 0.4570312,-0.082031 0.4570312,-0.46875 0,-0.5976563 -0.4335937,-1.078125 -1.265625,-1.078125 -1.2773437,0 -2.61328125,1.2890625 -2.61328125,3.4804687 0,2.66015629 1.14843755,3.37500004 2.07421875,3.37500004 1.1132813,0 2.0507813,-0.9375 2.0507813,-2.25000004 z m -0.890625,-0.011719 c 0,0.4804687 0,0.9726562 -0.1640625,1.33593749 -0.3046875,0.59765625 -0.7617188,0.64453125 -0.9960938,0.64453125 -0.6210937,0 -0.9257812,-0.59765625 -0.984375,-0.75 C 1.3367188,-1.2760391 1.3367188,-2.0729141 1.3367188,-2.2486953 c 0,-0.7734375 0.3164062,-1.7695313 1.21875,-1.7695313 0.1523437,0 0.609375,0 0.9257812,0.609375 0.1757813,0.375 0.1757813,0.8789063 0.1757813,1.3710935 z M 9.153125,0.00130469 v -0.3046875 H 8.8367188 c -0.9023438,0 -0.9257813,-0.1171875 -0.9257813,-0.48046875 V -6.3736953 c 0,-0.234375 0,-0.2578125 -0.234375,-0.2578125 -0.609375,0.6328125 -1.4882812,0.6328125 -1.8046875,0.6328125 v 0.3164062 c 0.1992188,0 0.7851563,0 1.3007813,-0.2578125 v 5.15625004 c 0,0.3515625 -0.035156,0.48046875 -0.9257813,0.48046875 H 5.9304688 v 0.3046875 C 6.2820313,-0.03385156 7.1375,-0.03385156 7.5359375,-0.03385156 c 0.3984375,0 1.265625,0 1.6171875,0.03515625 z M 14.930469,-2.5416641 V -2.7526016 H 9.9617188 v 0.2109375 z m 4.842773,-3.8671875 H 17.35918 c -1.21875,0 -1.242188,-0.1289062 -1.277344,-0.328125 h -0.246094 l -0.328125,2.0507813 h 0.246094 c 0.02344,-0.1523438 0.117187,-0.7851563 0.246094,-0.9023438 0.07031,-0.058594 0.84375,-0.058594 0.972656,-0.058594 h 2.0625 l -1.113281,1.5703125 c -0.890625,1.3476562 -1.21875,2.7304687 -1.21875,3.74999999 0,0.09375 0,0.55078125 0.457031,0.55078125 0.457031,0 0.457031,-0.45703125 0.457031,-0.55078125 v -0.50390625 c 0,-0.55078124 0.02344,-1.10156254 0.105469,-1.64062504 0.04687,-0.2226562 0.175781,-1.078125 0.621094,-1.6992187 l 1.347656,-1.8984375 c 0.08203,-0.1171875 0.08203,-0.140625 0.08203,-0.3398438 z m 4.734375,3.2226563 c 0,-0.796875 -0.04687,-1.59375 -0.398437,-2.3320313 -0.457032,-0.9609375 -1.277344,-1.1132812 -1.6875,-1.1132812 -0.597657,0 -1.335938,0.2578125 -1.734375,1.1835937 -0.328125,0.6914063 -0.375,1.4648438 -0.375,2.2617188 0,0.75 0.04687,1.640625 0.445312,2.40234374 0.433594,0.80859375 1.160156,1.0078125 1.652344,1.0078125 0.539062,0 1.289062,-0.2109375 1.734375,-1.16015625 0.316406,-0.69140629 0.363281,-1.46484379 0.363281,-2.24999999 z m -0.832031,-0.1171875 c 0,0.75 0,1.4179687 -0.105469,2.0625 -0.152344,0.93749999 -0.714844,1.24218749 -1.160156,1.24218749 -0.386719,0 -0.984375,-0.24609375 -1.160156,-1.20703129 -0.105469,-0.5976562 -0.105469,-1.5117187 -0.105469,-2.0976562 0,-0.6445313 0,-1.3007813 0.08203,-1.8398438 0.1875,-1.1835937 0.925781,-1.265625 1.183594,-1.265625 0.328125,0 0.984375,0.1757813 1.171875,1.1601563 0.09375,0.5625 0.09375,1.3125 0.09375,1.9453125 z m 0,0"
       style="fill:#000000;fill-opacity:1;fill-rule:nonzero;stroke:none"
       aria-label="61–70"
       transform="matrix(1.3333333,0,0,1.3333333,234.73333,28.314667)" />
    <path
       id="path12"
       d="M 135.133,46.097 V 61.639"
       style="fill:none;stroke:#000000;stroke-width:0.3985;stroke-linecap:butt;stroke-linejoin:miter;stroke-miterlimit:10;stroke-dasharray:none;stroke-opacity:1"
       transform="matrix(1.3333333,0,0,-1.3333333,96,95.994667)" />
    <path
       id="path13"
       d="M 4.8286719,-6.4088516 H 2.4146094 c -1.21875,0 -1.2421875,-0.1289062 -1.2773438,-0.328125 H 0.89117188 l -0.328125,2.0507813 h 0.24609375 c 0.0234375,-0.1523438 0.1171875,-0.7851563 0.24609377,-0.9023438 0.070312,-0.058594 0.84375,-0.058594 0.9726562,-0.058594 h 2.0625 l -1.1132812,1.5703125 c -0.890625,1.3476562 -1.21875,2.7304687 -1.21875,3.74999999 0,0.09375 0,0.55078125 0.4570312,0.55078125 0.4570313,0 0.4570313,-0.45703125 0.4570313,-0.55078125 v -0.50390625 c 0,-0.55078124 0.023437,-1.10156254 0.1054687,-1.64062504 0.046875,-0.2226562 0.1757813,-1.078125 0.6210938,-1.6992187 l 1.3476562,-1.8984375 c 0.082031,-0.1171875 0.082031,-0.140625 0.082031,-0.3398435 z m 4.3242187,6.41015629 v -0.3046875 H 8.8364844 c -0.9023438,0 -0.9257813,-0.1171875 -0.9257813,-0.48046875 V -6.3736953 c 0,-0.234375 0,-0.2578125 -0.234375,-0.2578125 -0.609375,0.6328125 -1.4882812,0.6328125 -1.8046875,0.6328125 v 0.3164062 c 0.1992188,0 0.7851563,0 1.3007813,-0.2578125 v 5.15625004 c 0,0.3515625 -0.035156,0.48046875 -0.9257813,0.48046875 H 5.9302344 v 0.3046875 c 0.3515625,-0.03515625 1.2070312,-0.03515625 1.6054687,-0.03515625 0.3984375,0 1.265625,0 1.6171875,0.03515625 z M 14.930234,-2.5416641 V -2.7526016 H 9.9614844 v 0.2109375 z m 4.561524,0.8671875 c 0,-0.3515625 -0.105469,-0.8085937 -0.480469,-1.21875 -0.1875,-0.2109375 -0.351562,-0.3164062 -0.984375,-0.7148437 0.714844,-0.3632813 1.207031,-0.8789063 1.207031,-1.5351563 0,-0.9257812 -0.890625,-1.4882812 -1.792968,-1.4882812 -0.996094,0 -1.804688,0.7382812 -1.804688,1.6640625 0,0.1757812 0.01172,0.6210937 0.433594,1.0898437 0.105469,0.1289063 0.480469,0.375 0.726562,0.5390625 -0.574218,0.2929688 -1.429687,0.84375 -1.429687,1.8398438 0,1.05468749 1.007812,1.72265624 2.0625,1.72265624 1.125,0 2.0625,-0.83203125 2.0625,-1.89843754 z m -0.703125,-3.46875 c 0,0.5625 -0.386719,1.0429688 -0.984375,1.3945313 l -1.230469,-0.796875 c -0.46875,-0.3046875 -0.503906,-0.6445313 -0.503906,-0.8085938 0,-0.609375 0.644531,-1.03125 1.359375,-1.03125 0.726562,0 1.359375,0.515625 1.359375,1.2421875 z m 0.210937,3.8320313 c 0,0.73828124 -0.75,1.25390624 -1.558593,1.25390624 -0.867188,0 -1.582032,-0.62109375 -1.582032,-1.44140624 0,-0.5859375 0.316407,-1.21875 1.171875,-1.6875 l 1.21875,0.7734375 c 0.28125,0.1875 0.75,0.4921875 0.75,1.1015625 z m 5.507813,-1.875 c 0,-0.796875 -0.04687,-1.59375 -0.398438,-2.3320313 -0.457031,-0.9609375 -1.277343,-1.1132812 -1.6875,-1.1132812 -0.597656,0 -1.335937,0.2578125 -1.734375,1.1835937 -0.328125,0.6914063 -0.375,1.4648438 -0.375,2.2617188 0,0.75 0.04687,1.640625 0.445313,2.40234374 0.433594,0.80859375 1.160156,1.0078125 1.652344,1.0078125 0.539062,0 1.289062,-0.2109375 1.734375,-1.16015625 0.316406,-0.69140629 0.363281,-1.46484379 0.363281,-2.24999999 z m -0.832031,-0.1171875 c 0,0.75 0,1.4179687 -0.105469,2.0625 -0.152344,0.93749999 -0.714844,1.24218749 -1.160156,1.24218749 -0.386719,0 -0.984375,-0.24609375 -1.160157,-1.20703129 -0.105468,-0.5976562 -0.105468,-1.5117187 -0.105468,-2.0976562 0,-0.6445313 0,-1.3007813 0.08203,-1.8398438 0.1875,-1.1835937 0.925781,-1.265625 1.183594,-1.265625 0.328125,0 0.984375,0.1757813 1.171875,1.1601563 0.09375,0.5625 0.09375,1.3125 0.09375,1.9453125 z m 0,0"
       style="fill:#000000;fill-opacity:1;fill-rule:nonzero;stroke:none"
       aria-label="71–80"
       transform="matrix(1.3333333,0,0,1.3333333,284.41333,28.314667)" />
    <path
       id="path14"
       d="M 172.394,46.097 V 61.639"
       style="fill:none;stroke:#000000;stroke-width:0.3985;stroke-linecap:butt;stroke-linejoin:miter;stroke-miterlimit:10;stroke-dasharray:none;stroke-opacity:1"
       transform="matrix(1.3333333,0,0,-1.3333333,96,95.994667)" />
    <path
       id="path15"
       d="M -58.72,45.898 H 172.593"
       style="fill:none;stroke:#000000;stroke-width:0.3985;stroke-linecap:butt;stroke-linejoin:miter;stroke-miterlimit:10;stroke-dasharray:none;stroke-opacity:1"
       transform="matrix(1.3333333,0,0,-1.3333333,96,95.994667)" />
    <path
       id="path16"
       d="M -58.521,30.157 V 45.699"
       style="fill:none;stroke:#000000;stroke-width:0.3985;stroke-linecap:butt;stroke-linejoin:miter;stroke-miterlimit:10;stroke-dasharray:none;stroke-opacity:1"
       transform="matrix(1.3333333,0,0,-1.3333333,96,95.994667)" />
    <path
       id="path17"
       d="m 5.0969297,0.24682813 -0.5039063,-0.28125 V -3.8664531 C 4.3410703,-4.2941875 4.1037656,-4.6281719 3.8781797,-4.8625469 3.6496641,-5.0969219 3.4270078,-5.255125 3.2102109,-5.3430156 c -0.2197265,-0.09375 -0.4453125,-0.140625 -0.6796875,-0.140625 -0.1728515,0 -0.3574218,0.043945 -0.5507812,0.1289062 -0.1875,0.087891 -0.3720703,0.28125 -0.5507813,0.5859375 0.084961,-0.029297 0.1816407,-0.058594 0.2929688,-0.082031 0.1171875,-0.023437 0.2402344,-0.035156 0.375,-0.035156 0.3662109,0 0.6503906,0.1230469 0.8554687,0.3632813 0.2109375,0.234375 0.3164063,0.5214844 0.3164063,0.8554687 0,0.3837891 -0.1113281,0.7265625 -0.328125,1.03125 -0.2109375,0.3046875 -0.5712891,0.6152344 -1.078125,0.9257813 l -0.5976563,-0.914063 c 0.4277344,-0.1640625 0.7675782,-0.3427735 1.0195313,-0.5390625 0.2578125,-0.2021485 0.3867187,-0.421875 0.3867187,-0.65625 0,-0.1552735 -0.052734,-0.2841797 -0.1523437,-0.3867188 -0.09375,-0.099609 -0.2431641,-0.1523437 -0.4453125,-0.1523437 -0.2109375,0 -0.4189453,0.041016 -0.6210938,0.1171875 -0.2050781,0.079102 -0.4160156,0.2050781 -0.63281246,0.375 L 0.15161719,-4.5344219 c 0.33398437,-0.6386718 0.69726562,-1.0898437 1.08984371,-1.3476562 0.3896485,-0.2578125 0.7734375,-0.3867188 1.1484375,-0.3867188 0.413086,0 0.7998047,0.1347657 1.1601563,0.3984375 0.3662109,0.2666016 0.7294922,0.703125 1.0898437,1.3125 -0.017578,-0.1464843 -0.029297,-0.3164062 -0.035156,-0.5039062 -0.00879,-0.1933594 -0.011719,-0.366211 -0.011719,-0.515625 v -1.359375 l 0.035156,-0.011719 0.4570312,0.328125 0.046875,0.421875 h 0.7382813 l 0.3398437,0.515625 h -1.078125 v 5.91796878 z m 5.6132813,0 -0.503906,-0.28125 V -3.5266094 C 9.9162656,-4.0100078 9.6555234,-4.3820781 9.4211484,-4.6398906 9.1926328,-4.8977031 8.9699766,-5.0764141 8.7531797,-5.1789531 8.5334531,-5.2785625 8.2902891,-5.3312969 8.0266172,-5.3312969 c -0.3222656,0 -0.5947266,0.09082 -0.8203125,0.2695313 -0.2285156,0.1728515 -0.3398438,0.4277344 -0.3398438,0.7617187 0,0.4160157 0.1435547,0.6738282 0.4335938,0.7734375 -0.00879,-0.038086 -0.011719,-0.076172 -0.011719,-0.1171875 0,-0.2109375 0.064453,-0.3808593 0.1992188,-0.515625 0.140625,-0.1318359 0.3164062,-0.1992187 0.5273437,-0.1992187 0.2402344,0 0.4335938,0.076172 0.5742188,0.2226562 0.140625,0.140625 0.2109375,0.328125 0.2109375,0.5625 0,0.2431641 -0.082031,0.4423828 -0.2460938,0.5976563 -0.1582031,0.149414 -0.3808593,0.2226562 -0.6679687,0.2226562 -0.28125,0 -0.5390625,-0.064453 -0.7734375,-0.1992187 -0.234375,-0.131836 -0.4277344,-0.3310547 -0.5742188,-0.5976563 -0.140625,-0.2636718 -0.2109375,-0.5888672 -0.2109375,-0.9726562 0,-0.3339844 0.064453,-0.6328125 0.1992188,-0.890625 0.1318359,-0.2636719 0.3164062,-0.46875 0.5507812,-0.609375 0.234375,-0.1464844 0.5039063,-0.2226563 0.8085938,-0.2226563 0.2724609,0 0.5302734,0.064453 0.7734375,0.1875 0.2402344,0.1171875 0.4863281,0.3251953 0.7382812,0.6210938 0.2490235,0.290039 0.5302735,0.703125 0.8437503,1.2421875 -0.0088,-0.1640625 -0.01758,-0.3515625 -0.02344,-0.5625 -0.0088,-0.2167969 -0.01172,-0.4248047 -0.01172,-0.6210938 v -1.5585937 l 0.03516,-0.011719 0.457031,0.328125 0.04687,0.421875 h 0.726563 l 0.351562,0.515625 h -1.078125 v 5.91796878 z m 6.041016,0 -0.503907,-0.28125 V -3.0344219 C 16.097906,-3.2687969 15.96607,-3.427 15.848883,-3.5148906 c -0.111328,-0.09375 -0.208008,-0.140625 -0.292969,-0.140625 -0.0791,0 -0.158203,0.029297 -0.234375,0.082031 -0.07031,0.046875 -0.152344,0.1494141 -0.246094,0.3046875 -0.08789,0.1494141 -0.196289,0.375 -0.328125,0.6796875 -0.210937,0.4863282 -0.416015,0.8320313 -0.609375,1.0429688 -0.1875,0.2050781 -0.427734,0.3046875 -0.714843,0.3046875 -0.251954,0 -0.489258,-0.099609 -0.714844,-0.3046875 -0.228516,-0.2021485 -0.451172,-0.5625 -0.667969,-1.078125 l 0.351563,-0.1757813 c 0.164062,0.3046875 0.307617,0.5009766 0.433593,0.5859375 0.123047,0.079102 0.249024,0.1171875 0.375,0.1171875 0.169922,0 0.331055,-0.082031 0.480469,-0.2460937 0.146484,-0.1640625 0.307617,-0.4482422 0.480469,-0.8554688 -0.03223,-0.6328125 -0.196289,-1.0927734 -0.492188,-1.3828125 -0.290039,-0.2871093 -0.676758,-0.4335937 -1.160156,-0.4335937 -0.09375,0 -0.18457,0.00586 -0.269531,0.011719 -0.0791,0 -0.149414,0.00879 -0.210938,0.023437 l -0.785156,-1.21875 h 6.28125 l 0.351563,0.515625 H 16.786383 V 0.23510938 Z M 15.262945,-4.5109844 c 0.19336,0 0.375,0.082031 0.539063,0.2460938 0.169922,0.1640625 0.333984,0.3955078 0.492187,0.6914062 -0.01758,-0.1787109 -0.0293,-0.3896484 -0.03516,-0.6328125 -0.0088,-0.2490234 -0.01172,-0.4453125 -0.01172,-0.5859375 v -0.890625 h -3.210937 c 0.389648,0.1347657 0.714844,0.3457032 0.972656,0.6328125 0.257813,0.2900391 0.404297,0.6796875 0.445313,1.171875 0.09961,-0.1933593 0.199218,-0.3339843 0.292968,-0.421875 0.09961,-0.09375 0.19336,-0.1523437 0.28125,-0.1757812 0.08496,-0.023437 0.164063,-0.035156 0.234375,-0.035156 z m 4.171875,0.8789063 c -0.383789,0 -0.685547,-0.1230469 -0.902343,-0.375 -0.210938,-0.2578125 -0.316407,-0.553711 -0.316407,-0.890625 0,-0.3808594 0.120117,-0.694336 0.363282,-0.9375 0.240234,-0.2490235 0.55664,-0.375 0.949218,-0.375 0.38086,0 0.682617,0.1230469 0.902344,0.3632812 0.225586,0.2431641 0.339844,0.5449219 0.339844,0.9023438 0,0.383789 -0.125977,0.7001953 -0.375,0.9492187 -0.251953,0.2431641 -0.571289,0.3632813 -0.960938,0.3632813 z m -0.292968,-0.4921875 c 0.17871,0 0.354492,-0.058594 0.527343,-0.1757813 0.178711,-0.1230468 0.322266,-0.2753906 0.433594,-0.4570312 0.108398,-0.1875 0.164063,-0.3632813 0.164063,-0.5273438 0,-0.099609 -0.03516,-0.1904297 -0.105469,-0.2695312 -0.06445,-0.076172 -0.158203,-0.1171875 -0.28125,-0.1171875 -0.196289,0 -0.38086,0.058594 -0.550781,0.1757812 -0.172852,0.1113282 -0.313477,0.2548828 -0.421875,0.4335938 -0.111329,0.1728515 -0.164063,0.3603515 -0.164063,0.5625 0,0.102539 0.03809,0.1933594 0.117188,0.2695312 0.07617,0.070312 0.169921,0.1054688 0.28125,0.1054688 z m 1.78125,4.49999998 C 20.600836,-0.08422656 20.293219,-0.473875 19.99732,-0.79614062 19.707281,-1.1242656 19.414312,-1.4055156 19.118414,-1.6398906 c -0.290039,-0.2402344 -0.603516,-0.46875 -0.9375,-0.6796875 l 0.632813,-0.8671875 c 0.328125,0.2666015 0.635742,0.5917969 0.925781,0.9726562 0.295898,0.3837891 0.565429,0.7910157 0.808594,1.21875003 0.249023,0.421875 0.46289,0.83496093 0.644531,1.23046875 z m 5.70996,-0.24609375 -0.46875,-0.36328125 C 25.81275,-0.83422656 25.390875,-1.3117656 24.898687,-1.6633281 24.412359,-2.02075 23.802984,-2.2434062 23.070562,-2.3312969 l -0.398437,-1.0546875 c 0.257812,0 0.515625,-0.023437 0.773437,-0.070312 0.263672,-0.046875 0.506836,-0.1171875 0.726563,-0.2109375 0.225586,-0.099609 0.404297,-0.2285156 0.539062,-0.3867187 0.131836,-0.1640625 0.199219,-0.3544922 0.199219,-0.5742188 0,-0.2255859 -0.05273,-0.421875 -0.152344,-0.5859375 -0.27539,0.3222657 -0.574218,0.5800782 -0.902343,0.7734375 -0.328125,0.1962891 -0.667969,0.2929688 -1.019532,0.2929688 -0.172851,0 -0.339843,-0.035156 -0.503906,-0.1054688 -0.164062,-0.070312 -0.301758,-0.1787109 -0.410156,-0.328125 -0.102539,-0.1552734 -0.152344,-0.3515625 -0.152344,-0.5859375 0,-0.234375 0.05859,-0.4130859 0.175781,-0.5390625 0.117188,-0.1230468 0.28418,-0.1875 0.503907,-0.1875 0.202148,0 0.357422,0.058594 0.46875,0.1757813 0.117187,0.1113281 0.175781,0.2519531 0.175781,0.421875 0,0.140625 -0.02051,0.2519531 -0.05859,0.328125 0.1875,-0.029297 0.413086,-0.1435547 0.679688,-0.3398438 0.272461,-0.2021484 0.553711,-0.5068359 0.84375,-0.9140625 0.140625,0.1259766 0.27539,0.2753907 0.410156,0.4453125 0.131836,0.1640625 0.240234,0.3574219 0.328125,0.5742188 0.09375,0.2109375 0.140625,0.4511719 0.140625,0.7148437 0,0.4541016 -0.111328,0.8144532 -0.328125,1.078125 -0.219727,0.2666016 -0.536133,0.4628907 -0.949219,0.5859375 0.404297,0.1962891 0.773438,0.4423828 1.101563,0.7382813 0.333984,0.2988281 0.632812,0.665039 0.890625,1.10156248 V -6.9367656 l 0.03516,-0.011719 0.457031,0.328125 0.04687,0.421875 h 0.738281 l 0.339844,0.515625 H 26.691656 V 0.11792188 Z M 28.317633,0.42260938 28.05982,0.08276563 c 0.295899,-0.1875 0.509766,-0.40429688 0.644532,-0.65625 0.131835,-0.24902344 0.199218,-0.51855473 0.199218,-0.80859373 0,-0.2167969 -0.04394,-0.4335938 -0.128906,-0.6445313 -0.0791,-0.2167968 -0.172852,-0.4335937 -0.28125,-0.6445312 -0.111328,-0.2167969 -0.205078,-0.4394531 -0.28125,-0.6679688 -0.0791,-0.2255859 -0.117187,-0.4570312 -0.117187,-0.6914062 0,-0.3574219 0.09375,-0.6738281 0.28125,-0.9492188 0.1875,-0.2724609 0.401367,-0.5068359 0.644531,-0.703125 h -1.488281 l -0.339844,-0.515625 h 3.082031 l 0.339844,0.515625 h -0.972656 c -0.172852,0.140625 -0.345704,0.3398438 -0.515625,0.5976563 -0.164063,0.2578125 -0.246094,0.5566406 -0.246094,0.890625 0,0.234375 0.03809,0.4541015 0.117187,0.65625 0.07617,0.2050781 0.169922,0.4072265 0.28125,0.609375 0.108399,0.196289 0.202149,0.4042969 0.28125,0.6210937 0.07617,0.2197266 0.117188,0.4570313 0.117188,0.7148438 0,0.421875 -0.128906,0.8144531 -0.386719,1.17187498 -0.257812,0.3515625 -0.583008,0.6328125 -0.972656,0.84375 z m 3.310547,-0.17578125 -0.503907,-0.28125 V -4.6984844 C 31.068609,-4.9709453 30.986578,-5.2023906 30.87818,-5.3898906 30.775641,-5.58325 30.626227,-5.6828594 30.432867,-5.6828594 h -0.07031 l -0.328125,-0.515625 h 0.386718 c 0.131836,0 0.263672,0.058594 0.398438,0.1757813 0.140625,0.1113281 0.251953,0.290039 0.339844,0.5390625 -0.0088,-0.140625 -0.01758,-0.272461 -0.02344,-0.3984375 -0.0088,-0.1230469 -0.01172,-0.2138672 -0.01172,-0.2695313 v -0.7851562 l 0.03516,-0.011719 0.503906,0.328125 v 6.85546878 z m 0,0"
       style="fill:#000000;fill-opacity:1;fill-rule:nonzero;stroke:none"
       aria-label="গণসংখযা"
       transform="matrix(1.3333333,0,0,1.3333333,26.208,49.569333)" />
    <path
       id="path18"
       d="M -13.908,30.157 V 45.699"
       style="fill:none;stroke:#000000;stroke-width:0.3985;stroke-linecap:butt;stroke-linejoin:miter;stroke-miterlimit:10;stroke-dasharray:none;stroke-opacity:1"
       transform="matrix(1.3333333,0,0,-1.3333333,96,95.994667)" />
    <path
       id="path19"
       d="m 4.4769844,-2.0031719 c 0,-1.1835937 -0.8203125,-2.1796875 -1.8984375,-2.1796875 -0.4804688,0 -0.9023438,0.1640625 -1.265625,0.5039063 v -1.9335938 c 0.1992187,0.058594 0.5273437,0.1289063 0.84375,0.1289063 1.2304687,0 1.9335937,-0.9140625 1.9335937,-1.0429688 0,-0.058594 -0.035156,-0.1054687 -0.1054687,-0.1054687 0,0 -0.035156,0 -0.082031,0.023437 -0.1992187,0.09375 -0.6796875,0.2929687 -1.3476562,0.2929687 -0.3984375,0 -0.8554688,-0.070312 -1.3242188,-0.28125 -0.082031,-0.023437 -0.1289062,-0.023437 -0.1289062,-0.023437 -0.09375,0 -0.09375,0.082031 -0.09375,0.234375 v 2.953125 c 0,0.1757813 0,0.2578125 0.140625,0.2578125 0.070312,0 0.082031,-0.035156 0.1289062,-0.09375 0.1054688,-0.1523437 0.4804688,-0.6914062 1.2773438,-0.6914062 0.5273437,0 0.7734375,0.4570312 0.8554687,0.6328125 0.1523438,0.375 0.1757813,0.7617187 0.1757813,1.2539062 0,0.3515625 0,0.9492188 -0.234375,1.37109378 -0.2460938,0.38671875 -0.609375,0.64453125 -1.0664063,0.64453125 -0.7265625,0 -1.30078122,-0.52734375 -1.46484372,-1.11328123 0.0234375,0.011719 0.0585938,0.011719 0.1640625,0.011719 0.32812502,0 0.50390622,-0.2460937 0.50390622,-0.4804687 0,-0.2460938 -0.1757812,-0.4921875 -0.50390622,-0.4921875 -0.140625,0 -0.48046875,0.070312 -0.48046875,0.5273437 0,0.85546878 0.67968747,1.82812503 1.79296877,1.82812503 1.1601562,0 2.1796875,-0.9609375 2.1796872,-2.22656283 z m 0,0"
       style="fill:#000000;fill-opacity:1;fill-rule:nonzero;stroke:none"
       aria-label="5"
       transform="matrix(1.3333333,0,0,1.3333333,98.976,49.569333)" />
    <path
       id="path20"
       d="M 23.352,30.157 V 45.699"
       style="fill:none;stroke:#000000;stroke-width:0.3985;stroke-linecap:butt;stroke-linejoin:miter;stroke-miterlimit:10;stroke-dasharray:none;stroke-opacity:1"
       transform="matrix(1.3333333,0,0,-1.3333333,96,95.994667)" />
    <path
       id="path21"
       d="m 4.5470625,-1.6750469 c 0,-0.3515625 -0.1054688,-0.8085937 -0.4804688,-1.21875 -0.1875,-0.2109375 -0.3515625,-0.3164062 -0.984375,-0.7148437 0.7148438,-0.3632813 1.2070313,-0.8789063 1.2070313,-1.5351563 0,-0.9257812 -0.890625,-1.4882812 -1.7929688,-1.4882812 -0.9960937,0 -1.80468745,0.7382812 -1.80468745,1.6640625 0,0.1757812 0.0117188,0.6210937 0.43359375,1.0898437 0.1054687,0.1289063 0.4804687,0.375 0.7265625,0.5390625 -0.5742188,0.2929688 -1.4296875,0.84375 -1.4296875,1.8398438 0,1.05468748 1.0078125,1.72265623 2.0625,1.72265623 1.125,0 2.0625,-0.83203125 2.0625,-1.89843753 z m -0.703125,-3.46875 c 0,0.5625 -0.3867188,1.0429688 -0.984375,1.3945313 l -1.2304688,-0.796875 c -0.46875,-0.3046875 -0.5039062,-0.6445313 -0.5039062,-0.8085938 0,-0.609375 0.6445312,-1.03125 1.359375,-1.03125 0.7265625,0 1.359375,0.515625 1.359375,1.2421875 z m 0.2109375,3.8320313 c 0,0.73828123 -0.75,1.25390623 -1.5585938,1.25390623 -0.8671875,0 -1.5820312,-0.62109375 -1.5820312,-1.44140623 0,-0.5859375 0.3164062,-1.21875 1.171875,-1.6875 l 1.21875,0.7734375 c 0.28125,0.1875 0.75,0.4921875 0.75,1.1015625 z m 0,0"
       style="fill:#000000;fill-opacity:1;fill-rule:nonzero;stroke:none"
       aria-label="8"
       transform="matrix(1.3333333,0,0,1.3333333,148.656,49.569333)" />
    <path
       id="path22"
       d="M 60.613,30.157 V 45.699"
       style="fill:none;stroke:#000000;stroke-width:0.3985;stroke-linecap:butt;stroke-linejoin:miter;stroke-miterlimit:10;stroke-dasharray:none;stroke-opacity:1"
       transform="matrix(1.3333333,0,0,-1.3333333,96,95.994667)" />
    <path
       id="path23"
       d="M 4.1715937,7.34375e-4 V -0.30395312 H 3.8551875 c -0.9023438,0 -0.9257813,-0.1171875 -0.9257813,-0.48046875 V -6.3742656 c 0,-0.234375 0,-0.2578125 -0.234375,-0.2578125 -0.609375,0.6328125 -1.4882812,0.6328125 -1.80468745,0.6328125 v 0.3164062 c 0.19921875,0 0.78515625,0 1.30078125,-0.2578125 v 5.15625003 c 0,0.3515625 -0.035156,0.48046875 -0.9257813,0.48046875 H 0.9489375 V 7.34375e-4 C 1.3005,-0.03442187 2.1559687,-0.03442187 2.5544062,-0.03442187 c 0.3984375,0 1.265625,0 1.6171875,0.035156245 z M 9.45675,-1.7336406 H 9.1989375 C 9.1520625,-1.4289531 9.08175,-0.99535937 8.988,-0.84301562 c -0.070312,0.0820313 -0.7265625,0.0820313 -0.9492187,0.0820313 H 6.2458125 L 7.3005,-1.7922344 c 1.5585938,-1.3710937 2.15625,-1.9101562 2.15625,-2.90625 0,-1.1367187 -0.9023437,-1.9335937 -2.1210938,-1.9335937 -1.125,0 -1.8515625,0.9140625 -1.8515625,1.8046875 0,0.5507812 0.4921875,0.5507812 0.5273438,0.5507812 0.1640625,0 0.515625,-0.1171875 0.515625,-0.5273437 0,-0.2578125 -0.1875,-0.515625 -0.5273438,-0.515625 -0.082031,0 -0.1054687,0 -0.1289062,0.011719 0.2226562,-0.6445312 0.7617187,-1.0195312 1.3359375,-1.0195312 0.9140625,0 1.3359375,0.8085937 1.3359375,1.6289062 0,0.796875 -0.4921875,1.5820313 -1.0429688,2.203125 L 5.5895625,-0.36254687 C 5.4840937,-0.25707812 5.4840937,-0.23364062 5.4840937,7.34375e-4 H 9.1755 Z m 0,0"
       style="fill:#000000;fill-opacity:1;fill-rule:nonzero;stroke:none"
       aria-label="12"
       transform="matrix(1.3333333,0,0,1.3333333,195.016,49.569333)" />
    <path
       id="path24"
       d="M 97.873,30.157 V 45.699"
       style="fill:none;stroke:#000000;stroke-width:0.3985;stroke-linecap:butt;stroke-linejoin:miter;stroke-miterlimit:10;stroke-dasharray:none;stroke-opacity:1"
       transform="matrix(1.3333333,0,0,-1.3333333,96,95.994667)" />
    <path
       id="path25"
       d="m 4.5455937,-3.2805156 c 0,-2.671875 -1.1367187,-3.3515625 -2.0273437,-3.3515625 -0.5507813,0 -1.03125,0.1757812 -1.4648438,0.6210937 -0.4101562,0.4570313 -0.63281245,0.8671875 -0.63281245,1.6171875 0,1.2421875 0.87890625,2.2265625 1.99218745,2.2265625 0.609375,0 1.0078125,-0.421875 1.2421875,-0.9960937 v 0.3164062 c 0,2.33203128 -1.03125,2.78906253 -1.6171875,2.78906253 -0.1640625,0 -0.703125,-0.0234375 -0.9726562,-0.36328125 0.4335937,0 0.515625,-0.28125 0.515625,-0.45703125 0,-0.30468753 -0.234375,-0.45703123 -0.4570313,-0.45703123 -0.16406245,0 -0.4570312,0.09375 -0.4570312,0.48046873 0,0.66796875 0.5390625,1.078125 1.3828125,1.078125 1.2890625,0 2.4960937,-1.35937503 2.4960937,-3.50390623 z M 3.6315312,-4.1945781 c 0,0.8320312 -0.3398437,1.7929687 -1.2070312,1.7929687 -0.1640625,0 -0.6210938,0 -0.9257813,-0.6210937 -0.1875,-0.375 -0.1875,-0.8671875 -0.1875,-1.359375 0,-0.5390625 0,-1.0078125 0.2109375,-1.3710938 0.2695313,-0.5039062 0.6445313,-0.6328125 0.9960938,-0.6328125 0.4570312,0 0.7851562,0.3398438 0.9609375,0.7851563 0.1171875,0.3164062 0.1523437,0.9492187 0.1523437,1.40625 z m 0,0"
       style="fill:#000000;fill-opacity:1;fill-rule:nonzero;stroke:none"
       aria-label="9"
       transform="matrix(1.3333333,0,0,1.3333333,248.01733,49.569333)" />
    <path
       id="path26"
       d="M 135.133,30.157 V 45.699"
       style="fill:none;stroke:#000000;stroke-width:0.3985;stroke-linecap:butt;stroke-linejoin:miter;stroke-miterlimit:10;stroke-dasharray:none;stroke-opacity:1"
       transform="matrix(1.3333333,0,0,-1.3333333,96,95.994667)" />
    <path
       id="path27"
       d="m 4.5482891,-2.0266094 c 0,-1.265625 -0.8789063,-2.2265625 -1.9921875,-2.2265625 -0.6679688,0 -1.0429688,0.5039063 -1.2421875,0.984375 v -0.234375 c 0,-2.5195312 1.2421875,-2.8828125 1.7460937,-2.8828125 0.234375,0 0.65625,0.058594 0.8789063,0.3984375 -0.1523438,0 -0.5507813,0 -0.5507813,0.4453125 0,0.3164063 0.234375,0.4570313 0.4570313,0.4570313 0.1640625,0 0.4570312,-0.082031 0.4570312,-0.46875 0,-0.5976563 -0.4335937,-1.078125 -1.265625,-1.078125 -1.2773437,0 -2.61328124,1.2890625 -2.61328124,3.4804687 0,2.66015628 1.14843754,3.37500003 2.07421874,3.37500003 1.1132813,0 2.0507813,-0.9375 2.0507813,-2.25000003 z m -0.890625,-0.011719 c 0,0.4804687 0,0.9726562 -0.1640625,1.33593748 -0.3046875,0.59765625 -0.7617188,0.64453125 -0.9960938,0.64453125 -0.6210937,0 -0.9257812,-0.59765625 -0.984375,-0.75 C 1.3373516,-1.2766094 1.3373516,-2.0734844 1.3373516,-2.2492656 c 0,-0.7734375 0.3164062,-1.7695313 1.21875,-1.7695313 0.1523437,0 0.609375,0 0.9257812,0.609375 0.1757813,0.375 0.1757813,0.8789063 0.1757813,1.3710935 z m 0,0"
       style="fill:#000000;fill-opacity:1;fill-rule:nonzero;stroke:none"
       aria-label="6"
       transform="matrix(1.3333333,0,0,1.3333333,297.69733,49.569333)" />
    <path
       id="path28"
       d="M 172.394,30.157 V 45.699"
       style="fill:none;stroke:#000000;stroke-width:0.3985;stroke-linecap:butt;stroke-linejoin:miter;stroke-miterlimit:10;stroke-dasharray:none;stroke-opacity:1"
       transform="matrix(1.3333333,0,0,-1.3333333,96,95.994667)" />
    <path
       id="path29"
       d="M -58.72,29.958 H 172.593"
       style="fill:none;stroke:#000000;stroke-width:0.3985;stroke-linecap:butt;stroke-linejoin:miter;stroke-miterlimit:10;stroke-dasharray:none;stroke-opacity:1"
       transform="matrix(1.3333333,0,0,-1.3333333,96,95.994667)" />
  </g>
</svg>
