<svg xmlns="http://www.w3.org/2000/svg" width="129.23734pt" height="129.84058pt" viewBox="-72 -72 129.23734 129.84058" style="position: absolute; top: 0pt; left: 0pt; overflow: visible;">
<g transform="translate(-7.651336669921873,-7.349716186523436)">
<g stroke-miterlimit="10" transform="scale(1,-1)"><g stroke="#000" fill="#000">
 <g stroke-width="0.4">
 <g stroke-width="1.2">
 <path d=" M 0.0 0.0 M 64.01868 0.0 C 64.01868 35.357 35.357 64.01868 0.0 64.01868 C -35.357 64.01868 -64.01868 35.357 -64.01868 0.0 C -64.01868 -35.357 -35.357 -64.01868 0.0 -64.01868 C 35.357 -64.01868 64.01868 -35.357 64.01868 0.0 Z M 0.0 0.0  " fill="none"/>
 </g>
 <path d=" M 0.0 0.0 M 1.79999 0.0 C 1.79999 0.99411 0.99411 1.79999 0.0 1.79999 C -0.99411 1.79999 -1.79999 0.99411 -1.79999 0.0 C -1.79999 -0.99411 -0.99411 -1.79999 0.0 -1.79999 C 0.99411 -1.79999 1.79999 -0.99411 1.79999 0.0 Z M 0.0 0.0  " stroke="none"/>
 <g transform="translate(-3.8889,-12.36629)">
 <g stroke="none" transform="scale(-1.00375,1.00375)translate(-4.318008422851562,-7.349716186523436)scale(-1,-1)"><g fill="#000">
 <g stroke="none"> <text alignment-baseline="baseline" y="-7.349716186523436" x="-4.318008422851562" style="font-family: cmr10;" font-size="10">O</text>
</g> </g>
 </g></g>
 <g stroke-width="1.2">
 <path d=" M -38.41559 51.22102 L -38.41559 -51.22102  " fill="none"/>
 </g>
 <g stroke-width="1.2">
 <path d=" M 38.41559 51.22102 L 38.41559 -51.22102  " fill="none"/>
 </g>
 <g stroke-width="1.2">
 <path d=" M -38.41559 0.0 L 38.41559 0.0  " fill="none"/>
 </g>
 <g stroke-width="1.2">
 <path d=" M -38.41092 7.68192 L -30.729 7.68192 L -30.729 0.0  " fill="none"/>
 </g>
 <g stroke-width="1.2">
 <path d=" M 38.41092 7.68192 L 30.729 7.68192 L 30.729 0.0  " fill="none"/>
 </g>
 <g transform="translate(-49.44856,54.754)">
 <g stroke="none" transform="scale(-1.00375,1.00375)translate(-4.318008422851562,-7.349716186523436)scale(-1,-1)"><g fill="#000">
 <g stroke="none"> <text alignment-baseline="baseline" y="-7.349716186523436" x="-4.318008422851562" style="font-family: cmr10;" font-size="10">A</text>
</g> </g>
 </g></g>
 <g transform="translate(-49.0319,-61.58731)">
 <g stroke="none" transform="scale(-1.00375,1.00375)translate(-4.318008422851562,-7.349716186523436)scale(-1,-1)"><g fill="#000">
 <g stroke="none"> <text alignment-baseline="baseline" y="-7.349716186523436" x="-4.318008422851562" style="font-family: cmr10;" font-size="10">B</text>
</g> </g>
 </g></g>
 <g transform="translate(41.94856,54.754)">
 <g stroke="none" transform="scale(-1.00375,1.00375)translate(-4.318008422851562,-7.349716186523436)scale(-1,-1)"><g fill="#000">
 <g stroke="none"> <text alignment-baseline="baseline" y="-7.349716186523436" x="-4.318008422851562" style="font-family: cmr10;" font-size="10">C</text>
</g> </g>
 </g></g>
 <g transform="translate(41.94856,-61.58731)">
 <g stroke="none" transform="scale(-1.00375,1.00375)translate(-4.318008422851562,-7.349716186523436)scale(-1,-1)"><g fill="#000">
 <g stroke="none"> <text alignment-baseline="baseline" y="-7.349716186523436" x="-4.318008422851562" style="font-family: cmr10;" font-size="10">D</text>
</g> </g>
 </g></g>
 <g transform="translate(-50.75414,-3.41666)">
 <g stroke="none" transform="scale(-1.00375,1.00375)translate(-4.318008422851562,-7.349716186523436)scale(-1,-1)"><g fill="#000">
 <g stroke="none"> <text alignment-baseline="baseline" y="-7.349716186523436" x="-4.318008422851562" style="font-family: cmr10;" font-size="10">E</text>
</g> </g>
 </g></g>
 <g transform="translate(43.94856,-3.41666)">
 <g stroke="none" transform="scale(-1.00375,1.00375)translate(-4.318008422851562,-7.349716186523436)scale(-1,-1)"><g fill="#000">
 <g stroke="none"> <text alignment-baseline="baseline" y="-7.349716186523436" x="-4.318008422851562" style="font-family: cmr10;" font-size="10">F</text>
</g> </g>
 </g></g>
 </g>
 </g>
 </g></g></svg>