<?xml version="1.0" encoding="UTF-8" standalone="no"?>
<!-- Created with Inkscape (http://www.inkscape.org/) -->

<svg
   version="1.1"
   id="svg1"
   width="349.54666"
   height="69.853333"
   viewBox="0 0 349.54666 69.853333"
   sodipodi:docname="upload_4faj6rdjm6u4z4nq4joob6ldyt.pdf"
   xmlns:inkscape="http://www.inkscape.org/namespaces/inkscape"
   xmlns:sodipodi="http://sodipodi.sourceforge.net/DTD/sodipodi-0.dtd"
   xmlns="http://www.w3.org/2000/svg"
   xmlns:svg="http://www.w3.org/2000/svg">
  <defs
     id="defs1" />
  <sodipodi:namedview
     id="namedview1"
     pagecolor="#ffffff"
     bordercolor="#000000"
     borderopacity="0.25"
     inkscape:showpageshadow="2"
     inkscape:pageopacity="0.0"
     inkscape:pagecheckerboard="0"
     inkscape:deskcolor="#d1d1d1">
    <inkscape:page
       x="0"
       y="0"
       inkscape:label="1"
       id="page1"
       width="349.54666"
       height="69.853333"
       margin="0"
       bleed="0" />
  </sodipodi:namedview>
  <g
     id="g1"
     inkscape:groupmode="layer"
     inkscape:label="1">
    <path
       id="path1"
       d="M -34.0161,-11.33876 H 34.0161 V 11.33876 H -34.0161 Z"
       style="fill:none;stroke:#000000;stroke-width:0.3985;stroke-linecap:butt;stroke-linejoin:miter;stroke-miterlimit:10;stroke-dasharray:none;stroke-opacity:1"
       transform="matrix(1.3333333,0,0,-1.3333333,50.045333,19.806667)" />
    <path
       id="path2"
       d="m 6.7859375,-2.2379766 c 0,0.5478516 -0.2080078,0.9902344 -0.6210938,1.32421879 -0.4072265,0.328125 -0.9580078,0.4921875 -1.6523437,0.4921875 -0.6269531,0 -1.2041016,-0.14648438 -1.734375,-0.4453125 C 2.2449219,-1.1715703 1.7703125,-1.6637578 1.3484375,-2.3434453 0.93242187,-3.0231328 0.57792969,-3.9254766 0.28203125,-5.0504766 L 1.0320312,-5.2731328 c 0.2636719,0.9550781 0.5625,1.734375 0.890625,2.34375 0.328125,0.6035156 0.703125,1.0488281 1.125,1.3359375 0.4277344,0.28125 0.9257813,0.421875 1.4882813,0.421875 0.4130859,0 0.7558594,-0.084961 1.03125,-0.2578125 0.2724609,-0.1787109 0.4101562,-0.4599609 0.4101562,-0.84375 0,-0.1787109 -0.043945,-0.3398438 -0.1289062,-0.4804688 -0.087891,-0.140625 -0.2050781,-0.2636718 -0.3515625,-0.375 -0.2109375,0.1171875 -0.4511719,0.2226563 -0.7148438,0.3164063 L 4.4773437,-3.5270391 c 0.4453125,-0.1464843 0.788086,-0.3193359 1.03125,-0.515625 0.2490235,-0.1933593 0.375,-0.4482421 0.375,-0.7617187 0,-0.4980469 -0.2695312,-0.75 -0.8085937,-0.75 -0.3222656,0 -0.6181641,0.070312 -0.890625,0.2109375 -0.2666016,0.1347656 -0.4804688,0.2900391 -0.6445313,0.46875 -0.1640625,0.1816406 -0.2460937,0.3486328 -0.2460937,0.5039062 0,0.1025391 0.029297,0.1933594 0.09375,0.2695313 0.070312,0.079102 0.2226562,0.1347656 0.4570312,0.1640625 l -0.2109375,0.7382812 c -0.375,-0.070312 -0.6621093,-0.1992187 -0.8554687,-0.3867187 -0.1875,-0.1875 -0.28125,-0.421875 -0.28125,-0.703125 0,-0.2255859 0.064453,-0.4511719 0.1992187,-0.6796875 0.140625,-0.234375 0.328125,-0.4482422 0.5625,-0.6445313 0.2402344,-0.1933593 0.515625,-0.3515625 0.8203125,-0.46875 0.3105469,-0.1230468 0.6445313,-0.1875 0.9960938,-0.1875 0.5068359,0 0.9023437,0.1347657 1.1835937,0.3984375 0.28125,0.2578125 0.421875,0.609375 0.421875,1.0546875 0,0.2578125 -0.052734,0.4892579 -0.1523437,0.6914063 -0.1025391,0.2050781 -0.2431641,0.3925781 -0.421875,0.5625 0.4511719,0.328125 0.6796875,0.7705078 0.6796875,1.3242187 z m 4.5615235,1.60546879 c -0.515625,0 -1.007813,-0.12304688 -1.4765626,-0.37499999 -0.4628906,-0.2490234 -0.8789062,-0.6679688 -1.2539062,-1.2539063 -0.375,-0.5859375 -0.7001953,-1.3740234 -0.9726563,-2.3671875 l 0.75,-0.1992187 c 0.225586,0.8144531 0.4804688,1.4736328 0.7617188,1.9804687 0.28125,0.5097657 0.6005859,0.8789063 0.9609373,1.1132813 0.366211,0.234375 0.785156,0.3515625 1.253906,0.3515625 0.999024,0 1.5,-0.4277344 1.5,-1.2890625 0,-0.09375 -0.0088,-0.1787109 -0.02344,-0.2578125 -0.0088,-0.084961 -0.02344,-0.1640625 -0.04687,-0.234375 -0.228516,0.1816406 -0.46875,0.328125 -0.726563,0.4453125 -0.251953,0.1113281 -0.527343,0.1640625 -0.832031,0.1640625 -0.392578,0 -0.711914,-0.1083984 -0.960937,-0.328125 -0.243164,-0.2255859 -0.3632816,-0.5390625 -0.3632816,-0.9375 0,-0.2958984 0.09961,-0.5917969 0.3046876,-0.890625 0.210937,-0.3046875 0.5625,-0.5683594 1.054687,-0.796875 -0.134765,0.00879 -0.287109,0.017578 -0.457031,0.023437 -0.164062,0 -0.333984,0 -0.503906,0 H 7.2458984 v -0.7148438 h 9.3398436 v 0.7148438 h -3.117187 c -0.117188,0 -0.228516,0 -0.328125,0 -0.09375,-0.00586 -0.184571,-0.014648 -0.269532,-0.023437 0.155274,0.2753906 0.38086,0.5009766 0.679688,0.6796875 0.304687,0.1728516 0.729492,0.2578125 1.277344,0.2578125 0.169922,0 0.354492,-0.011719 0.550781,-0.035156 l 0.386719,0.703125 c -0.158203,0.2988282 -0.269532,0.5917969 -0.339844,0.8789063 -0.06445,0.28125 -0.09375,0.609375 -0.09375,0.984375 0,0.3222656 0.02344,0.6328125 0.07031,0.9375 0.05274,0.29882811 0.146485,0.6298828 0.28125,0.99609374 l -0.75,0.17578125 c -0.117187,-0.38085938 -0.210937,-0.75585938 -0.28125,-1.12499999 -0.06445,-0.375 -0.09375,-0.7617188 -0.09375,-1.1601563 0,-0.3515625 0.0293,-0.6621093 0.09375,-0.9375 0.06152,-0.28125 0.134766,-0.5185546 0.222657,-0.7148437 -0.720703,-0.00586 -1.289063,-0.1318359 -1.710938,-0.375 -0.421875,-0.2490234 -0.755859,-0.5917969 -0.996094,-1.03125 -0.416015,0.2109375 -0.726562,0.4072266 -0.9375,0.5859375 -0.210937,0.1728516 -0.357421,0.3339844 -0.433593,0.4804687 -0.07031,0.1494141 -0.105469,0.2900391 -0.105469,0.421875 0,0.1875 0.04981,0.3222657 0.152344,0.3984375 0.108398,0.079102 0.228515,0.1171875 0.363281,0.1171875 0.249023,0 0.47168,-0.058594 0.667969,-0.1757812 0.202148,-0.1171875 0.433593,-0.2841797 0.691406,-0.5039063 l 0.855469,0.3164063 c 0.05273,0.1347656 0.09961,0.2988281 0.140625,0.4921875 0.04687,0.1962891 0.07031,0.3984375 0.07031,0.609375 0,0.3369141 -0.0791,0.6503906 -0.234375,0.9375 -0.149414,0.2900391 -0.392578,0.5244141 -0.726562,0.70312499 -0.336914,0.17285156 -0.779297,0.2578125 -1.324219,0.2578125 z M 22.60625,-6.1989141 v 0.7148438 H 21.563281 V 3.046875e-4 H 20.789844 V -2.0739141 c -0.322266,-0.4042968 -0.667969,-0.7412109 -1.042969,-1.0078125 -0.375,-0.2724609 -0.744141,-0.4101562 -1.101563,-0.4101562 -0.251953,0 -0.46289,0.067383 -0.632812,0.1992187 -0.164063,0.1259766 -0.246094,0.3134766 -0.246094,0.5625 0,0.375 0.28418,0.6767579 0.855469,0.9023438 l -0.375,0.703125 c -0.407227,-0.1640625 -0.726563,-0.3867188 -0.960938,-0.6679688 -0.228515,-0.2871093 -0.339843,-0.609375 -0.339843,-0.9609375 0,-0.328125 0.07617,-0.5976562 0.234375,-0.8085937 0.155273,-0.2167969 0.354492,-0.3808594 0.597656,-0.4921875 0.240234,-0.1083984 0.486328,-0.1640625 0.738281,-0.1640625 0.47461,0 0.896485,0.1142578 1.265625,0.3398437 0.366211,0.2197266 0.714844,0.5039063 1.042969,0.8554688 -0.01758,-0.1083984 -0.0293,-0.2167969 -0.03516,-0.328125 0,-0.1171875 0,-0.2285156 0,-0.3398438 v -1.7929687 h -4.40625 v -0.7148438 z m 5.044922,7.546875 C 27.164844,0.70635938 26.801562,-0.01434375 26.561328,-0.82000781 26.318164,-1.6315312 26.198047,-2.4606328 26.198047,-3.3043828 c 0,-0.8583984 0.120117,-1.6787109 0.363281,-2.4609375 0.240234,-0.7880859 0.603516,-1.4941406 1.089844,-2.1210938 h 0.796875 c -0.439453,0.6503907 -0.782227,1.3681641 -1.03125,2.15625 -0.243164,0.7910157 -0.363281,1.6025391 -0.363281,2.4375 0,0.84375 0.117187,1.6611329 0.351562,2.44921879 0.240234,0.79101562 0.591797,1.51757812 1.054688,2.19140621 z m 5.170898,-7.546875 v 0.7148438 h -0.199218 c -0.210938,0.046875 -0.439454,0.1494141 -0.679688,0.3046875 -0.234375,0.1582031 -0.457031,0.3603516 -0.667969,0.609375 -0.210937,0.2431641 -0.386718,0.5332031 -0.527343,0.8671875 -0.134766,0.328125 -0.199219,0.6914062 -0.199219,1.0898437 0,0.4775391 0.07031,0.8613282 0.210937,1.1484375 0.140625,0.28125 0.316407,0.48046879 0.527344,0.59765629 0.216797,0.1171875 0.433594,0.17578125 0.644531,0.17578125 0.164063,0 0.298828,-0.0146484 0.410157,-0.046875 0.117187,-0.0292969 0.249023,-0.0878906 0.398437,-0.17578125 l 0.351563,0.609375 c -0.181641,0.13476562 -0.372071,0.22851562 -0.574219,0.28125 -0.205078,0.04394531 -0.410156,0.0703125 -0.621094,0.0703125 -0.421875,0 -0.793945,-0.10839844 -1.113281,-0.328125 -0.322266,-0.21679688 -0.571289,-0.52148438 -0.75,-0.91406249 -0.181641,-0.3984375 -0.269531,-0.8613281 -0.269531,-1.3945313 0,-0.5068359 0.07617,-0.9609375 0.234375,-1.359375 0.164062,-0.4042968 0.375,-0.7558593 0.632812,-1.0546875 0.263672,-0.3046875 0.550781,-0.5537109 0.855469,-0.75 0.310547,-0.1933593 0.609375,-0.3427734 0.890625,-0.4453125 z m 7.476563,3.328125 c 0,0.2197266 -0.04395,0.4277344 -0.128906,0.6210938 -0.08789,0.1962891 -0.231446,0.3603516 -0.433594,0.4921875 -0.196289,0.1259766 -0.462891,0.1875 -0.796875,0.1875 -0.102539,0 -0.205078,-0.00293 -0.304688,-0.011719 -0.09375,-0.00586 -0.1875,-0.023437 -0.28125,-0.046875 l 0.05859,-0.7148437 c 0.03809,0.00879 0.08496,0.017578 0.140625,0.023437 0.06152,0 0.128906,0 0.199219,0 0.319336,0 0.527344,-0.061523 0.621094,-0.1875 0.09961,-0.1230469 0.152343,-0.2724609 0.152343,-0.4453125 0,-0.3339844 -0.161133,-0.6240234 -0.480468,-0.8671875 -0.322266,-0.2490234 -0.796875,-0.4248047 -1.429688,-0.5273438 V 3.046875e-4 H 36.85332 C 36.657031,-0.38934375 36.3875,-0.75555469 36.044727,-1.1012578 35.699023,-1.4528203 35.306445,-1.7457891 34.861133,-1.9801641 34.42168,-2.2145391 33.961719,-2.3610234 33.47832,-2.4254766 l -0.398437,-0.9492187 c 0.615234,-0.3515625 1.230469,-0.6679688 1.839844,-0.9492188 0.609375,-0.28125 1.253906,-0.5332031 1.933593,-0.7617187 v -0.3984375 h -4.242187 v -0.7148438 h 8.238281 v 0.7148438 h -3.234375 v 0.3867187 c 0.492188,0.064453 0.94043,0.1962891 1.347656,0.3984375 0.404297,0.2050782 0.729492,0.4628907 0.972657,0.7734375 0.240234,0.3046875 0.363281,0.65625 0.363281,1.0546875 z m -6.28125,-0.1523437 c 0.351562,0.064453 0.708984,0.1875 1.078125,0.375 0.375,0.1875 0.717773,0.4189453 1.03125,0.6914062 0.319336,0.2666016 0.568359,0.5566407 0.75,0.8671875 -0.0088,-0.1083984 -0.01758,-0.2255859 -0.02344,-0.3515625 0,-0.1230468 0,-0.2724609 0,-0.4453125 v -2.4140625 c -0.486328,0.1494141 -0.981445,0.3457032 -1.488281,0.5859375 -0.500977,0.2431641 -0.949219,0.4746094 -1.347656,0.6914063 z m 9.492187,-3.1757813 v 0.7148438 H 42.454883 V 3.046875e-4 H 41.693164 V -5.4840703 h -1.042969 v -0.7148438 h 0.925782 c -0.111329,-0.1230468 -0.219727,-0.2578125 -0.328125,-0.3984375 -0.111329,-0.1464843 -0.208008,-0.2929687 -0.292969,-0.4335937 0.263672,-0.3896484 0.550781,-0.7441406 0.855469,-1.0664063 0.310546,-0.3193359 0.673828,-0.5683593 1.089843,-0.75 0.413086,-0.1875 0.908203,-0.28125 1.488282,-0.28125 0.577148,0 1.113281,0.076172 1.605468,0.2226563 0.498047,0.140625 0.990235,0.3486328 1.476563,0.6210937 0.483398,0.2666016 0.996094,0.5830079 1.535156,0.9492188 l -0.398437,0.5625 c -0.430665,-0.28125 -0.817383,-0.5214844 -1.160157,-0.7265625 -0.336914,-0.2021484 -0.662109,-0.3691406 -0.972656,-0.5039063 -0.313477,-0.1318359 -0.629883,-0.2285156 -0.949219,-0.2929687 -0.313476,-0.070312 -0.65332,-0.1054688 -1.019531,-0.1054688 -0.462891,0 -0.855469,0.067383 -1.183594,0.1992188 -0.322265,0.1347656 -0.603515,0.3134766 -0.84375,0.5390625 -0.243164,0.2197266 -0.46289,0.4746094 -0.65625,0.7617187 0.04687,0.1025391 0.117188,0.2109375 0.210938,0.328125 0.09375,0.1171875 0.199219,0.2431641 0.316406,0.375 z m 3.893555,5.56640629 c -0.515625,0 -1.007813,-0.12304688 -1.476563,-0.37499999 -0.46289,-0.2490234 -0.878906,-0.6679688 -1.253906,-1.2539063 -0.375,-0.5859375 -0.700195,-1.3740234 -0.972656,-2.3671875 l 0.75,-0.1992187 c 0.225586,0.8144531 0.480469,1.4736328 0.761719,1.9804687 0.28125,0.5097657 0.600586,0.8789063 0.960937,1.1132813 0.366211,0.234375 0.785156,0.3515625 1.253906,0.3515625 0.999024,0 1.5,-0.4277344 1.5,-1.2890625 0,-0.09375 -0.0088,-0.1787109 -0.02344,-0.2578125 -0.0088,-0.084961 -0.02344,-0.1640625 -0.04687,-0.234375 -0.228516,0.1816406 -0.46875,0.328125 -0.726563,0.4453125 -0.251953,0.1113281 -0.527343,0.1640625 -0.832031,0.1640625 -0.392578,0 -0.711914,-0.1083984 -0.960937,-0.328125 -0.243164,-0.2255859 -0.363282,-0.5390625 -0.363282,-0.9375 0,-0.2958984 0.09961,-0.5917969 0.304688,-0.890625 0.210937,-0.3046875 0.5625,-0.5683594 1.054687,-0.796875 -0.134765,0.00879 -0.287109,0.017578 -0.457031,0.023437 -0.164062,0 -0.333984,0 -0.503906,0 h -3.070313 v -0.7148438 h 9.339844 v 0.7148438 h -3.117187 c -0.117188,0 -0.228516,0 -0.328125,0 -0.09375,-0.00586 -0.184571,-0.014648 -0.269532,-0.023437 0.155274,0.2753906 0.38086,0.5009766 0.679688,0.6796875 0.304687,0.1728516 0.729492,0.2578125 1.277344,0.2578125 0.169922,0 0.354492,-0.011719 0.550781,-0.035156 l 0.386719,0.703125 c -0.158203,0.2988282 -0.269532,0.5917969 -0.339844,0.8789063 -0.06445,0.28125 -0.09375,0.609375 -0.09375,0.984375 0,0.3222656 0.02344,0.6328125 0.07031,0.9375 0.05274,0.29882811 0.146485,0.6298828 0.28125,0.99609374 l -0.75,0.17578125 c -0.117187,-0.38085938 -0.210937,-0.75585938 -0.28125,-1.12499999 -0.06445,-0.375 -0.09375,-0.7617188 -0.09375,-1.1601563 0,-0.3515625 0.0293,-0.6621093 0.09375,-0.9375 0.06152,-0.28125 0.134766,-0.5185546 0.222657,-0.7148437 -0.720703,-0.00586 -1.289063,-0.1318359 -1.710938,-0.375 -0.421875,-0.2490234 -0.755859,-0.5917969 -0.996094,-1.03125 -0.416015,0.2109375 -0.726562,0.4072266 -0.9375,0.5859375 -0.210937,0.1728516 -0.357421,0.3339844 -0.433593,0.4804687 -0.07031,0.1494141 -0.105469,0.2900391 -0.105469,0.421875 0,0.1875 0.0498,0.3222657 0.152344,0.3984375 0.108398,0.079102 0.228515,0.1171875 0.363281,0.1171875 0.249023,0 0.47168,-0.058594 0.667969,-0.1757812 0.202148,-0.1171875 0.433593,-0.2841797 0.691406,-0.5039063 l 0.855469,0.3164063 c 0.05273,0.1347656 0.09961,0.2988281 0.140625,0.4921875 0.04687,0.1962891 0.07031,0.3984375 0.07031,0.609375 0,0.3369141 -0.0791,0.6503906 -0.234375,0.9375 -0.149414,0.2900391 -0.392578,0.5244141 -0.726562,0.70312499 -0.336914,0.17285156 -0.779297,0.2578125 -1.324219,0.2578125 z m 5.958984,1.98046871 c 0.451172,-0.65624996 0.796875,-1.37109371 1.03125,-2.14453121 0.240235,-0.77929689 0.363282,-1.59374999 0.363282,-2.43749999 0,-0.8496094 -0.123047,-1.6699219 -0.363282,-2.4609375 -0.234375,-0.7880859 -0.583007,-1.5175781 -1.042968,-2.1914063 h 0.820312 c 0.483399,0.6328125 0.84375,1.3564454 1.078125,2.1679688 0.240234,0.8144531 0.363281,1.6464844 0.363281,2.4960937 0,0.84375 -0.123047,1.6611329 -0.363281,2.44921879 -0.234375,0.78808594 -0.594726,1.49414062 -1.078125,2.12109371 z m 0,0"
       style="fill:#000000;fill-opacity:1;fill-rule:nonzero;stroke:none"
       aria-label="ওজন(েকজ)"
       transform="matrix(1.3333333,0,0,1.3333333,12.233333,24.816)" />
    <path
       id="path3"
       d="M -15.59082,-11.33876 H 15.59084 V 11.33876 H -15.59082 Z"
       style="fill:none;stroke:#000000;stroke-width:0.3985;stroke-linecap:butt;stroke-linejoin:miter;stroke-miterlimit:10;stroke-dasharray:none;stroke-opacity:1"
       transform="matrix(1.3333333,0,0,-1.3333333,116.18667,19.806667)" />
    <path
       id="path4"
       d="M 4.6886563,-1.6403203 V -1.9567266 H 3.6925625 v -4.5234375 c 0,-0.1992187 0,-0.2578125 -0.1523437,-0.2578125 -0.09375,0 -0.1171875,0 -0.1992188,0.1171875 l -3.05859375,4.6640625 v 0.3164063 H 2.9308438 v 0.86718749 c 0,0.3515625 -0.023437,0.46875 -0.7617188,0.46875 H 1.9581875 V 3.046875e-4 C 2.3683438,-0.03485156 2.8956875,-0.03485156 3.3058438,-0.03485156 c 0.421875,0 0.9492187,0 1.359375,0.0351562475 V -0.30438281 H 4.4542813 c -0.7382813,0 -0.7617188,-0.1171875 -0.7617188,-0.46875 V -1.6403203 Z M 2.9894375,-1.9567266 H 0.56365625 L 2.9894375,-5.6715703 Z m 6.46875,-0.046875 c 0,-1.1835937 -0.8203125,-2.1796875 -1.8984375,-2.1796875 -0.4804687,0 -0.9023437,0.1640625 -1.265625,0.5039063 v -1.9335938 c 0.1992188,0.058594 0.5273438,0.1289063 0.84375,0.1289063 1.2304688,0 1.9335938,-0.9140625 1.9335938,-1.0429688 0,-0.058594 -0.035156,-0.1054687 -0.1054688,-0.1054687 0,0 -0.035156,0 -0.082031,0.023437 -0.1992188,0.09375 -0.6796875,0.2929687 -1.3476563,0.2929687 -0.3984375,0 -0.8554687,-0.070312 -1.3242187,-0.28125 -0.082031,-0.023437 -0.1289063,-0.023437 -0.1289063,-0.023437 -0.09375,0 -0.09375,0.082031 -0.09375,0.234375 v 2.953125 c 0,0.1757813 0,0.2578125 0.140625,0.2578125 0.070312,0 0.082031,-0.035156 0.1289063,-0.09375 0.1054687,-0.1523437 0.4804687,-0.6914062 1.2773437,-0.6914062 0.5273438,0 0.7734375,0.4570312 0.8554688,0.6328125 0.1523437,0.375 0.1757812,0.7617187 0.1757812,1.2539062 0,0.3515625 0,0.9492188 -0.234375,1.37109379 -0.2460937,0.38671875 -0.609375,0.64453125 -1.0664062,0.64453125 -0.7265625,0 -1.3007813,-0.52734375 -1.4648438,-1.11328124 0.023437,0.011719 0.058594,0.011719 0.1640625,0.011719 0.328125,0 0.5039063,-0.2460937 0.5039063,-0.4804687 0,-0.2460938 -0.1757813,-0.4921875 -0.5039063,-0.4921875 -0.140625,0 -0.4804687,0.070312 -0.4804687,0.5273437 0,0.85546879 0.6796875,1.82812504 1.7929687,1.82812504 1.1601563,0 2.1796875,-0.9609375 2.1796873,-2.22656284 z m 0,0"
       style="fill:#000000;fill-opacity:1;fill-rule:nonzero;stroke:none"
       aria-label="45"
       transform="matrix(1.3333333,0,0,1.3333333,109.54533,24.816)" />
    <path
       id="path5"
       d="M -15.59082,-11.33876 H 15.59084 V 11.33876 H -15.59082 Z"
       style="fill:none;stroke:#000000;stroke-width:0.3985;stroke-linecap:butt;stroke-linejoin:miter;stroke-miterlimit:10;stroke-dasharray:none;stroke-opacity:1"
       transform="matrix(1.3333333,0,0,-1.3333333,157.76267,19.806667)" />
    <path
       id="path6"
       d="m 4.4763828,-2.0036016 c 0,-1.1835937 -0.8203125,-2.1796875 -1.8984375,-2.1796875 -0.4804687,0 -0.9023437,0.1640625 -1.265625,0.5039063 v -1.9335938 c 0.1992188,0.058594 0.5273438,0.1289063 0.84375,0.1289063 1.2304688,0 1.9335938,-0.9140625 1.9335938,-1.0429688 0,-0.058594 -0.035156,-0.1054687 -0.1054688,-0.1054687 0,0 -0.035156,0 -0.082031,0.023437 -0.1992188,0.09375 -0.6796875,0.2929687 -1.3476563,0.2929687 -0.3984375,0 -0.8554687,-0.070312 -1.3242187,-0.28125 -0.082031,-0.023437 -0.1289063,-0.023437 -0.1289063,-0.023437 -0.09375,0 -0.09375,0.082031 -0.09375,0.234375 v 2.953125 c 0,0.1757813 0,0.2578125 0.140625,0.2578125 0.070312,0 0.082031,-0.035156 0.1289063,-0.09375 0.1054687,-0.1523437 0.4804687,-0.6914062 1.2773437,-0.6914062 0.5273438,0 0.7734375,0.4570312 0.8554688,0.6328125 0.1523437,0.375 0.1757812,0.7617187 0.1757812,1.2539062 0,0.3515625 0,0.9492188 -0.234375,1.37109379 -0.2460937,0.38671875 -0.609375,0.64453125 -1.0664062,0.64453125 -0.7265625,0 -1.30078129,-0.52734375 -1.46484379,-1.11328124 0.0234375,0.011719 0.0585938,0.011719 0.1640625,0.011719 0.32812499,0 0.50390629,-0.2460937 0.50390629,-0.4804687 0,-0.2460938 -0.1757813,-0.4921875 -0.50390629,-0.4921875 -0.140625,0 -0.48046875,0.070312 -0.48046875,0.5273437 0,0.85546879 0.67968754,1.82812504 1.79296874,1.82812504 1.1601563,0 2.1796875,-0.9609375 2.1796873,-2.22656284 z m 5.0859375,-1.1835937 c 0,-0.796875 -0.046875,-1.59375 -0.3984375,-2.3320313 -0.4570312,-0.9609375 -1.2773437,-1.1132812 -1.6875,-1.1132812 -0.5976562,0 -1.3359375,0.2578125 -1.734375,1.1835937 -0.328125,0.6914063 -0.375,1.4648438 -0.375,2.2617188 0,0.75 0.046875,1.640625 0.4453125,2.40234374 0.4335938,0.80859375 1.1601563,1.0078125 1.6523438,1.0078125 0.5390625,0 1.2890625,-0.2109375 1.734375,-1.16015625 C 9.5154453,-1.6286016 9.5623203,-2.4020391 9.5623203,-3.1871953 Z M 8.7302891,-3.3043828 c 0,0.75 0,1.4179687 -0.1054688,2.0625 -0.1523437,0.93749999 -0.7148437,1.2421874875 -1.1601562,1.2421874875 -0.3867188,0 -0.984375,-0.2460937475 -1.1601563,-1.2070312875 -0.1054687,-0.5976562 -0.1054687,-1.5117187 -0.1054687,-2.0976562 0,-0.6445313 0,-1.3007813 0.082031,-1.8398438 0.1875,-1.1835937 0.9257813,-1.265625 1.1835938,-1.265625 0.328125,0 0.984375,0.1757813 1.171875,1.1601563 0.09375,0.5625 0.09375,1.3125 0.09375,1.9453125 z m 0,0"
       style="fill:#000000;fill-opacity:1;fill-rule:nonzero;stroke:none"
       aria-label="50"
       transform="matrix(1.3333333,0,0,1.3333333,151.12133,24.816)" />
    <path
       id="path7"
       d="M -15.59082,-11.33876 H 15.59084 V 11.33876 H -15.59082 Z"
       style="fill:none;stroke:#000000;stroke-width:0.3985;stroke-linecap:butt;stroke-linejoin:miter;stroke-miterlimit:10;stroke-dasharray:none;stroke-opacity:1"
       transform="matrix(1.3333333,0,0,-1.3333333,199.33733,19.806667)" />
    <path
       id="path8"
       d="m 4.4760469,-2.0036016 c 0,-1.1835937 -0.8203125,-2.1796875 -1.8984375,-2.1796875 -0.4804688,0 -0.9023438,0.1640625 -1.265625,0.5039063 v -1.9335938 c 0.1992187,0.058594 0.5273437,0.1289063 0.84375,0.1289063 1.2304687,0 1.9335937,-0.9140625 1.9335937,-1.0429688 0,-0.058594 -0.035156,-0.1054687 -0.1054687,-0.1054687 0,0 -0.035156,0 -0.082031,0.023437 -0.1992187,0.09375 -0.6796875,0.2929687 -1.3476562,0.2929687 -0.3984375,0 -0.8554688,-0.070312 -1.3242188,-0.28125 -0.082031,-0.023437 -0.1289062,-0.023437 -0.1289062,-0.023437 -0.09375,0 -0.09375,0.082031 -0.09375,0.234375 v 2.953125 c 0,0.1757813 0,0.2578125 0.140625,0.2578125 0.070312,0 0.082031,-0.035156 0.1289062,-0.09375 0.1054688,-0.1523437 0.4804688,-0.6914062 1.2773438,-0.6914062 0.5273437,0 0.7734375,0.4570312 0.8554687,0.6328125 0.1523438,0.375 0.1757813,0.7617187 0.1757813,1.2539062 0,0.3515625 0,0.9492188 -0.234375,1.37109379 -0.2460938,0.38671875 -0.609375,0.64453125 -1.0664063,0.64453125 -0.7265625,0 -1.30078122,-0.52734375 -1.46484372,-1.11328124 0.0234375,0.011719 0.0585938,0.011719 0.1640625,0.011719 0.32812502,0 0.50390622,-0.2460937 0.50390622,-0.4804687 0,-0.2460938 -0.1757812,-0.4921875 -0.50390622,-0.4921875 -0.140625,0 -0.48046875,0.070312 -0.48046875,0.5273437 0,0.85546879 0.67968747,1.82812504 1.79296877,1.82812504 1.1601562,0 2.1796875,-0.9609375 2.1796872,-2.22656284 z m 4.9804687,0 c 0,-1.1835937 -0.8203125,-2.1796875 -1.8984375,-2.1796875 -0.4804687,0 -0.9023437,0.1640625 -1.265625,0.5039063 v -1.9335938 c 0.1992188,0.058594 0.5273438,0.1289063 0.84375,0.1289063 1.2304688,0 1.9335938,-0.9140625 1.9335938,-1.0429688 0,-0.058594 -0.035156,-0.1054687 -0.1054688,-0.1054687 0,0 -0.035156,0 -0.082031,0.023437 -0.1992188,0.09375 -0.6796875,0.2929687 -1.3476563,0.2929687 -0.3984375,0 -0.8554687,-0.070312 -1.3242187,-0.28125 -0.082031,-0.023437 -0.1289063,-0.023437 -0.1289063,-0.023437 -0.09375,0 -0.09375,0.082031 -0.09375,0.234375 v 2.953125 c 0,0.1757813 0,0.2578125 0.140625,0.2578125 0.070312,0 0.082031,-0.035156 0.1289063,-0.09375 0.1054687,-0.1523437 0.4804687,-0.6914062 1.2773437,-0.6914062 0.5273438,0 0.7734375,0.4570312 0.8554688,0.6328125 0.1523437,0.375 0.1757812,0.7617187 0.1757812,1.2539062 0,0.3515625 0,0.9492188 -0.234375,1.37109379 -0.2460937,0.38671875 -0.609375,0.64453125 -1.0664062,0.64453125 -0.7265625,0 -1.3007813,-0.52734375 -1.4648438,-1.11328124 0.023437,0.011719 0.058594,0.011719 0.1640625,0.011719 0.328125,0 0.5039063,-0.2460937 0.5039063,-0.4804687 0,-0.2460938 -0.1757813,-0.4921875 -0.5039063,-0.4921875 -0.140625,0 -0.4804687,0.070312 -0.4804687,0.5273437 0,0.85546879 0.6796875,1.82812504 1.7929687,1.82812504 1.1601563,0 2.1796875,-0.9609375 2.1796873,-2.22656284 z m 0,0"
       style="fill:#000000;fill-opacity:1;fill-rule:nonzero;stroke:none"
       aria-label="55"
       transform="matrix(1.3333333,0,0,1.3333333,192.696,24.816)" />
    <path
       id="path9"
       d="M -15.59082,-11.33876 H 15.59084 V 11.33876 H -15.59082 Z"
       style="fill:none;stroke:#000000;stroke-width:0.3985;stroke-linecap:butt;stroke-linejoin:miter;stroke-miterlimit:10;stroke-dasharray:none;stroke-opacity:1"
       transform="matrix(1.3333333,0,0,-1.3333333,240.912,19.806667)" />
    <path
       id="path10"
       d="m 4.5460234,-2.0270391 c 0,-1.265625 -0.8789062,-2.2265625 -1.9921875,-2.2265625 -0.6679687,0 -1.0429687,0.5039063 -1.2421875,0.984375 v -0.234375 c 0,-2.5195312 1.2421875,-2.8828125 1.7460938,-2.8828125 0.234375,0 0.65625,0.058594 0.8789062,0.3984375 -0.1523437,0 -0.5507812,0 -0.5507812,0.4453125 0,0.3164063 0.234375,0.4570313 0.4570312,0.4570313 0.1640625,0 0.4570313,-0.082031 0.4570313,-0.46875 0,-0.5976563 -0.4335938,-1.078125 -1.265625,-1.078125 -1.2773438,0 -2.61328126,1.2890625 -2.61328126,3.4804687 0,2.66015629 1.14843746,3.37500004 2.07421876,3.37500004 1.1132812,0 2.0507812,-0.9375 2.0507812,-2.25000004 z m -0.890625,-0.011719 c 0,0.4804687 0,0.9726562 -0.1640625,1.33593749 -0.3046875,0.59765625 -0.7617187,0.64453125 -0.9960937,0.64453125 -0.6210938,0 -0.9257813,-0.59765625 -0.984375,-0.75 C 1.3350859,-1.2770391 1.3350859,-2.0739141 1.3350859,-2.2496953 c 0,-0.7734375 0.3164063,-1.7695313 1.21875,-1.7695313 0.1523438,0 0.609375,0 0.9257813,0.609375 0.1757812,0.375 0.1757812,0.8789063 0.1757812,1.3710935 z m 5.9091797,-1.1484375 c 0,-0.796875 -0.046875,-1.59375 -0.3984375,-2.3320313 -0.4570312,-0.9609375 -1.2773437,-1.1132812 -1.6875,-1.1132812 -0.5976562,0 -1.3359375,0.2578125 -1.734375,1.1835937 -0.328125,0.6914063 -0.375,1.4648438 -0.375,2.2617188 0,0.75 0.046875,1.640625 0.4453125,2.40234374 0.4335938,0.80859375 1.1601563,1.0078125 1.6523438,1.0078125 0.5390625,0 1.2890625,-0.2109375 1.734375,-1.16015625 C 9.5177031,-1.6286016 9.5645781,-2.4020391 9.5645781,-3.1871956 Z M 8.7325469,-3.3043828 c 0,0.75 0,1.4179687 -0.1054688,2.0625 -0.1523437,0.93749999 -0.7148437,1.2421874875 -1.1601562,1.2421874875 -0.3867188,0 -0.984375,-0.2460937475 -1.1601563,-1.2070312875 -0.1054687,-0.5976562 -0.1054687,-1.5117187 -0.1054687,-2.0976562 0,-0.6445313 0,-1.3007813 0.082031,-1.8398438 0.1875,-1.1835937 0.9257813,-1.265625 1.1835938,-1.265625 0.328125,0 0.984375,0.1757813 1.171875,1.1601563 0.09375,0.5625 0.09375,1.3125 0.09375,1.9453125 z m 0,0"
       style="fill:#000000;fill-opacity:1;fill-rule:nonzero;stroke:none"
       aria-label="60"
       transform="matrix(1.3333333,0,0,1.3333333,234.27067,24.816)" />
    <path
       id="path11"
       d="M -15.59082,-11.33876 H 15.59084 V 11.33876 H -15.59082 Z"
       style="fill:none;stroke:#000000;stroke-width:0.3985;stroke-linecap:butt;stroke-linejoin:miter;stroke-miterlimit:10;stroke-dasharray:none;stroke-opacity:1"
       transform="matrix(1.3333333,0,0,-1.3333333,282.48667,19.806667)" />
    <path
       id="path12"
       d="m 4.5456875,-2.0270391 c 0,-1.265625 -0.8789062,-2.2265625 -1.9921875,-2.2265625 -0.6679687,0 -1.0429687,0.5039063 -1.2421875,0.984375 v -0.234375 c 0,-2.5195312 1.2421875,-2.8828125 1.7460938,-2.8828125 0.234375,0 0.65625,0.058594 0.8789062,0.3984375 -0.1523437,0 -0.5507812,0 -0.5507812,0.4453125 0,0.3164063 0.234375,0.4570313 0.4570312,0.4570313 0.1640625,0 0.4570313,-0.082031 0.4570313,-0.46875 0,-0.5976563 -0.4335938,-1.078125 -1.265625,-1.078125 -1.2773438,0 -2.6132813,1.2890625 -2.6132813,3.4804687 0,2.66015629 1.1484375,3.37500004 2.0742188,3.37500004 1.1132812,0 2.0507812,-0.9375 2.0507812,-2.25000004 z m -0.890625,-0.011719 c 0,0.4804687 0,0.9726562 -0.1640625,1.33593749 -0.3046875,0.59765625 -0.7617187,0.64453125 -0.9960937,0.64453125 -0.6210938,0 -0.9257813,-0.59765625 -0.984375,-0.75 C 1.33475,-1.2770391 1.33475,-2.0739141 1.33475,-2.2496953 c 0,-0.7734375 0.3164063,-1.7695313 1.21875,-1.7695313 0.1523438,0 0.609375,0 0.9257813,0.609375 0.1757812,0.375 0.1757812,0.8789063 0.1757812,1.3710935 z m 5.8037109,0.035156 c 0,-1.1835937 -0.8203125,-2.1796875 -1.8984375,-2.1796875 -0.4804687,0 -0.9023437,0.1640625 -1.265625,0.5039063 v -1.9335938 c 0.1992188,0.058594 0.5273438,0.1289063 0.84375,0.1289063 1.2304688,0 1.9335938,-0.9140625 1.9335938,-1.0429688 0,-0.058594 -0.035156,-0.1054687 -0.1054688,-0.1054687 0,0 -0.035156,0 -0.082031,0.023437 -0.1992188,0.09375 -0.6796875,0.2929687 -1.3476563,0.2929687 -0.3984375,0 -0.8554687,-0.070312 -1.3242187,-0.28125 -0.082031,-0.023437 -0.1289063,-0.023437 -0.1289063,-0.023437 -0.09375,0 -0.09375,0.082031 -0.09375,0.234375 v 2.953125 c 0,0.1757813 0,0.2578125 0.140625,0.2578125 0.070312,0 0.082031,-0.035156 0.1289063,-0.09375 0.1054687,-0.1523437 0.4804687,-0.6914062 1.2773437,-0.6914062 0.5273438,0 0.7734375,0.4570312 0.8554688,0.6328125 0.1523437,0.375 0.1757812,0.7617187 0.1757812,1.2539062 0,0.3515625 0,0.9492188 -0.234375,1.37109379 -0.2460937,0.38671875 -0.609375,0.64453125 -1.0664062,0.64453125 -0.7265625,0 -1.3007813,-0.52734375 -1.4648438,-1.11328124 0.023437,0.011719 0.058594,0.011719 0.1640625,0.011719 0.328125,0 0.5039063,-0.2460937 0.5039063,-0.4804687 0,-0.2460938 -0.1757813,-0.4921875 -0.5039063,-0.4921875 -0.140625,0 -0.4804687,0.070312 -0.4804687,0.5273437 0,0.85546879 0.6796875,1.82812504 1.7929687,1.82812504 1.1601563,0 2.1796875,-0.9609375 2.1796873,-2.22656284 z m 0,0"
       style="fill:#000000;fill-opacity:1;fill-rule:nonzero;stroke:none"
       aria-label="65"
       transform="matrix(1.3333333,0,0,1.3333333,275.84533,24.816)" />
    <path
       id="path13"
       d="M -15.59082,-11.33876 H 15.59084 V 11.33876 H -15.59082 Z"
       style="fill:none;stroke:#000000;stroke-width:0.3985;stroke-linecap:butt;stroke-linejoin:miter;stroke-miterlimit:10;stroke-dasharray:none;stroke-opacity:1"
       transform="matrix(1.3333333,0,0,-1.3333333,324.06267,19.806667)" />
    <path
       id="path14"
       d="M 4.8285312,-6.4098516 H 2.4144687 c -1.21875,0 -1.2421875,-0.1289062 -1.2773437,-0.328125 H 0.89103125 l -0.328125,2.0507813 H 0.809 c 0.0234375,-0.1523438 0.1171875,-0.7851563 0.2460937,-0.9023438 0.070312,-0.058594 0.84375,-0.058594 0.9726563,-0.058594 h 2.0625 l -1.1132813,1.5703125 c -0.890625,1.3476562 -1.21875,2.7304687 -1.21875,3.74999999 0,0.09375 0,0.55078125 0.4570313,0.55078125 0.4570312,0 0.4570312,-0.45703125 0.4570312,-0.55078125 v -0.50390625 c 0,-0.55078124 0.023437,-1.10156254 0.1054688,-1.64062504 0.046875,-0.2226562 0.1757812,-1.078125 0.6210937,-1.6992187 L 4.7465,-6.0700078 c 0.082031,-0.1171875 0.082031,-0.140625 0.082031,-0.3398438 z m 4.734375,3.2226563 c 0,-0.796875 -0.046875,-1.59375 -0.3984375,-2.3320313 -0.4570312,-0.9609375 -1.2773437,-1.1132812 -1.6875,-1.1132812 -0.5976562,0 -1.3359375,0.2578125 -1.734375,1.1835937 -0.328125,0.6914063 -0.375,1.4648438 -0.375,2.2617188 0,0.75 0.046875,1.640625 0.4453125,2.40234374 0.4335938,0.80859375 1.1601563,1.0078125 1.6523438,1.0078125 0.5390625,0 1.2890625,-0.2109375 1.734375,-1.16015625 C 9.5160312,-1.6286016 9.5629062,-2.4020391 9.5629062,-3.1871953 Z M 8.730875,-3.3043828 c 0,0.75 0,1.4179687 -0.1054688,2.0625 C 8.4730625,-0.30438281 7.9105625,3.046875e-4 7.46525,3.046875e-4 7.0785312,3.046875e-4 6.480875,-0.24578906 6.3050937,-1.2067266 6.199625,-1.8043828 6.199625,-2.7184453 6.199625,-3.3043828 c 0,-0.6445313 0,-1.3007813 0.082031,-1.8398438 0.1875,-1.1835937 0.9257813,-1.265625 1.1835938,-1.265625 0.328125,0 0.984375,0.1757813 1.171875,1.1601563 0.09375,0.5625 0.09375,1.3125 0.09375,1.9453125 z m 0,0"
       style="fill:#000000;fill-opacity:1;fill-rule:nonzero;stroke:none"
       aria-label="70"
       transform="matrix(1.3333333,0,0,1.3333333,317.42133,24.816)" />
    <path
       id="path15"
       d="M -34.0161,-11.33876 H 34.0161 V 11.33876 H -34.0161 Z"
       style="fill:none;stroke:#000000;stroke-width:0.3985;stroke-linecap:butt;stroke-linejoin:miter;stroke-miterlimit:10;stroke-dasharray:none;stroke-opacity:1"
       transform="matrix(1.3333333,0,0,-1.3333333,50.045333,50.042667)" />
    <path
       id="path16"
       d="M 4.8176562,-9.140625e-4 V -3.8915391 C 4.4192187,-4.4598984 4.0500781,-4.8788438 3.7160937,-5.1454453 3.3791797,-5.4091172 3.0158984,-5.5438828 2.62625,-5.5438828 c -0.3515625,0 -0.6386719,0.09082 -0.8554688,0.2695312 -0.2197265,0.1816407 -0.4042968,0.3837891 -0.5507812,0.609375 0.099609,-0.052734 0.234375,-0.09668 0.3984375,-0.1289062 0.1640625,-0.038086 0.3427734,-0.058594 0.5390625,-0.058594 0.3046875,0 0.5507812,0.064453 0.7382812,0.1875 0.1875,0.1171875 0.3222657,0.2666016 0.4101563,0.4453125 0.09375,0.1816407 0.140625,0.3603516 0.140625,0.5390625 0,0.3925782 -0.1347656,0.7441407 -0.3984375,1.0546875 -0.2666016,0.3134766 -0.6767578,0.6181641 -1.2304688,0.9140625 l -0.515625,-0.7265625 c 0.366211,-0.1552734 0.6826172,-0.328125 0.9492188,-0.515625 0.2636719,-0.1875 0.3984375,-0.4130859 0.3984375,-0.6796875 0,-0.1464843 -0.058594,-0.2695312 -0.1757813,-0.3632812 -0.1113281,-0.099609 -0.2695312,-0.1523438 -0.4804687,-0.1523438 -0.1728516,0 -0.3339844,0.020508 -0.4804688,0.058594 -0.149414,0.041016 -0.3105468,0.102539 -0.4804687,0.1875 l -0.80859375,-0.65625 c 0.3046875,-0.5214844 0.64453125,-0.9375 1.01953125,-1.2421875 0.375,-0.3105469 0.8085937,-0.46875 1.3007812,-0.46875 0.4511719,0 0.8583985,0.1142578 1.21875,0.3398437 0.3574219,0.2197266 0.7207032,0.5478516 1.0898438,0.984375 -0.00879,-0.1083984 -0.017578,-0.2402343 -0.023437,-0.3984375 -0.00879,-0.1640625 -0.011719,-0.3222656 -0.011719,-0.4804687 v -1.03125 H 5.345 l 0.234375,0.65625 h 1.0546875 v 0.7148437 H 5.5910937 V -9.140625e-4 Z M 12.815703,-6.2001328 v 0.7148437 H 11.761016 V -9.140625e-4 H 10.999297 V -3.8915391 C 10.583281,-4.4598984 10.196562,-4.8788438 9.8391406,-5.1454453 9.4787891,-5.4091172 9.1155078,-5.5438828 8.7492969,-5.5438828 c -0.3134766,0 -0.5595703,0.09082 -0.7382813,0.2695312 -0.1728515,0.1728516 -0.2578125,0.3925782 -0.2578125,0.65625 0,0.328125 0.1171875,0.5800782 0.3515625,0.75 0.234375,0.1640625 0.6240235,0.2753907 1.171875,0.328125 l -0.058594,0.8320313 C 8.7785934,-2.7460313 8.388945,-2.8397813 8.0461716,-2.9891953 7.7004684,-3.1444688 7.4280075,-3.3554063 7.2258591,-3.6220078 7.02957,-3.8856797 6.9328903,-4.2138047 6.9328903,-4.6063828 c 0,-0.3574219 0.076172,-0.6591797 0.234375,-0.9023438 0.1640625,-0.2490234 0.375,-0.4365234 0.6328125,-0.5625 0.2578125,-0.1318359 0.5332031,-0.1992187 0.8320313,-0.1992187 0.4833984,0 0.9082031,0.1171875 1.2773437,0.3515625 0.3662112,0.2285156 0.7412112,0.5595703 1.1250002,0.9960937 -0.0088,-0.1171875 -0.01758,-0.2490234 -0.02344,-0.3984375 -0.0088,-0.1464843 -0.01172,-0.2871093 -0.01172,-0.421875 v -1.1132812 h 0.527344 l 0.222656,0.65625 z m 6.788086,0 v 0.7148437 H 18.56082 V -9.140625e-4 H 17.799102 V -3.1766953 c -0.149415,-0.178711 -0.28125,-0.3164063 -0.398438,-0.4101563 -0.117187,-0.099609 -0.231445,-0.1523437 -0.339844,-0.1523437 -0.09375,0 -0.18457,0.029297 -0.269531,0.082031 -0.0791,0.055664 -0.169922,0.1582032 -0.269531,0.3046875 -0.09375,0.1494141 -0.222656,0.375 -0.386719,0.6796875 -0.181641,0.328125 -0.345703,0.5976563 -0.492187,0.8085938 -0.149415,0.2050781 -0.304688,0.3574219 -0.46875,0.4570312 -0.158204,0.09375 -0.351563,0.140625 -0.585938,0.140625 -0.266602,0 -0.521484,-0.082031 -0.761719,-0.2460937 -0.234375,-0.1699219 -0.489258,-0.4746094 -0.761718,-0.9140625 l 0.609375,-0.375 c 0.17871,0.3222656 0.328125,0.5332031 0.445312,0.6328125 0.117188,0.09375 0.246094,0.140625 0.386719,0.140625 0.140625,0 0.27539,-0.052734 0.410156,-0.1640625 0.131836,-0.1171875 0.292969,-0.3310547 0.480469,-0.6445313 -0.06445,-0.4130859 -0.134766,-0.7412109 -0.210938,-0.984375 -0.07031,-0.2402343 -0.18457,-0.4335937 -0.339843,-0.5742187 -0.164063,-0.1464844 -0.392579,-0.2607422 -0.679688,-0.3398438 -0.28125,-0.076172 -0.641602,-0.1435547 -1.078125,-0.1992187 l 0.117188,-0.5507813 H 12.607695 V -6.200133 Z m -5.824219,0.7148437 c 0.506836,0.070312 0.905274,0.1816407 1.195313,0.328125 0.287109,0.140625 0.498047,0.3398438 0.632812,0.5976563 0.131836,0.2519531 0.213867,0.5800781 0.246094,0.984375 0.164063,-0.3427735 0.322266,-0.5771485 0.480469,-0.703125 0.155273,-0.131836 0.328125,-0.1992188 0.515625,-0.1992188 0.178711,0 0.342773,0.043945 0.492187,0.1289063 0.146485,0.087891 0.307617,0.2167969 0.480469,0.3867187 -0.01758,-0.099609 -0.02344,-0.2021484 -0.02344,-0.3046875 0,-0.099609 0,-0.1992187 0,-0.2929687 v -0.9257813 z m 6.500977,0.6445313 c 0,-0.413086 0.131836,-0.741211 0.398437,-0.984375 0.272461,-0.2490235 0.609375,-0.375 1.007813,-0.375 0.398437,0 0.729492,0.1259765 0.996094,0.375 0.272461,0.243164 0.410156,0.571289 0.410156,0.984375 0,0.4160156 -0.137695,0.7470703 -0.410156,0.9960937 -0.266602,0.2431641 -0.597657,0.3632813 -0.996094,0.3632813 -0.398438,0 -0.735352,-0.1201172 -1.007813,-0.3632813 -0.266601,-0.2490234 -0.398437,-0.5800781 -0.398437,-0.9960937 z m 0.691406,0 c 0,0.2285156 0.06445,0.4042969 0.199219,0.5273437 0.140625,0.1259766 0.310547,0.1875 0.515625,0.1875 0.210937,0 0.380859,-0.061523 0.515625,-0.1875 0.131836,-0.1318359 0.199219,-0.3076172 0.199219,-0.5273437 0,-0.225586 -0.06738,-0.3984375 -0.199219,-0.515625 -0.134766,-0.1230469 -0.304688,-0.1875 -0.515625,-0.1875 -0.205078,0 -0.375,0.067383 -0.515625,0.1992187 -0.134766,0.1259766 -0.199219,0.2929688 -0.199219,0.5039063 z m -0.234375,1.7109375 c 0.413086,0.2519531 0.808594,0.5507812 1.183594,0.9023437 0.375,0.3515625 0.714844,0.7265625 1.019531,1.125 0.310547,0.39843754 0.574219,0.79394535 0.785156,1.18359379 l -0.644531,0.328125 C 22.805937,-0.00970313 22.533477,-0.3905625 22.261016,-0.72747656 21.994414,-1.0614609 21.701445,-1.3720078 21.382109,-1.6532578 c -0.322265,-0.2871094 -0.703125,-0.5683594 -1.148437,-0.84375 z m 4.470703,-1.1601563 c -0.407226,0 -0.732422,-0.099609 -0.972656,-0.3046875 -0.234375,-0.2109375 -0.351563,-0.4980468 -0.351563,-0.8671875 0,-0.1464843 0.01758,-0.2929687 0.05859,-0.4335937 0.04687,-0.140625 0.09668,-0.2607422 0.152344,-0.3632813 l 0.761719,0.2109375 c -0.04687,0.070312 -0.08789,0.1523438 -0.117188,0.2460938 -0.03223,0.09375 -0.04687,0.196289 -0.04687,0.3046875 0,0.1728515 0.04687,0.3017578 0.140625,0.3867187 0.09375,0.079102 0.216797,0.1171875 0.375,0.1171875 0.131836,0 0.269531,-0.023437 0.410156,-0.070312 0.146485,-0.052734 0.298829,-0.1582031 0.457032,-0.3164062 0.155273,-0.1640625 0.310547,-0.4013672 0.46875,-0.7148438 l 0.539062,-0.1289062 c 0.225586,0.2050781 0.413086,0.4394531 0.5625,0.703125 0.155274,0.2578125 0.234375,0.5361328 0.234375,0.8320312 0,0.5332032 -0.1875,0.9492188 -0.5625,1.2539063 -0.375,0.2988281 -0.852539,0.5009765 -1.429687,0.609375 0.483398,0.1347656 0.902343,0.3046875 1.253906,0.515625 0.351562,0.2050781 0.647461,0.421875 0.890625,0.65625 0.240234,0.234375 0.439453,0.4658203 0.597656,0.69140624 -0.0088,-0.15527344 -0.01758,-0.30761724 -0.02344,-0.45703124 0,-0.1552735 0,-0.3222656 0,-0.5039063 v -4.9335937 h 0.527343 l 0.234375,0.65625 h 1.054688 v 0.7148437 H 29.380156 V -9.140625e-4 H 28.606719 C 28.354766,-0.367125 28.058867,-0.70989844 27.716094,-1.0321641 27.37918,-1.3515 26.989531,-1.6298203 26.544219,-1.8641953 c -0.439453,-0.2402344 -0.9375,-0.4101563 -1.5,-0.5039063 l -0.234375,-0.9257812 c 0.802734,-0.061523 1.388672,-0.2109375 1.757812,-0.4453125 0.375,-0.234375 0.5625,-0.5332031 0.5625,-0.9023438 0,-0.2578125 -0.0791,-0.4863281 -0.234375,-0.6914062 -0.196289,0.3222656 -0.439453,0.5742187 -0.726562,0.7617187 -0.28125,0.1875 -0.603516,0.28125 -0.960938,0.28125 z m 7.754883,-1.9101562 v 0.7148437 h -0.351562 c -0.205079,0.1816407 -0.357422,0.3486328 -0.457032,0.5039063 -0.102539,0.149414 -0.172851,0.3046875 -0.210937,0.46875 -0.03223,0.1640625 -0.04687,0.3574219 -0.04687,0.5742187 0,0.2197266 0.02637,0.4541016 0.08203,0.703125 0.05273,0.2431641 0.108398,0.4980469 0.164063,0.7617188 0.05273,0.2578125 0.08203,0.5332031 0.08203,0.8203125 0,0.3222656 -0.05273,0.6269531 -0.152344,0.91406249 -0.102539,0.28125 -0.298828,0.53320312 -0.585937,0.75 -0.28125,0.21679687 -0.703125,0.38671875 -1.265625,0.50390625 l -0.199219,-0.6796875 c 0.418945,-0.0996094 0.732422,-0.22558594 0.9375,-0.375 0.202148,-0.14648438 0.333984,-0.31933594 0.398437,-0.51562504 0.06152,-0.1933593 0.09375,-0.4013672 0.09375,-0.6210937 0,-0.2636719 -0.0293,-0.5214844 -0.08203,-0.7734375 -0.05566,-0.2490235 -0.111328,-0.4951172 -0.164062,-0.7382813 -0.05567,-0.2490234 -0.08203,-0.4921875 -0.08203,-0.7265625 0,-0.3339843 0.03809,-0.6152343 0.117188,-0.84375 0.08496,-0.234375 0.237304,-0.4746093 0.457031,-0.7265625 h -1.476562 v -0.7148437 z m 2.657227,0 v 0.7148437 H 34.565703 V -9.140625e-4 H 33.803984 V -4.6766953 c -0.0791,-0.225586 -0.196289,-0.4160156 -0.351562,-0.5742188 -0.158203,-0.1552734 -0.360352,-0.234375 -0.609375,-0.234375 h -0.08203 v -0.7148437 h 0.152343 c 0.164063,0 0.331055,0.055664 0.503907,0.1640625 0.169921,0.102539 0.307617,0.2578125 0.410156,0.46875 0,-0.029297 -0.0059,-0.1054688 -0.01172,-0.2226563 -0.0088,-0.1230468 -0.01172,-0.2285156 -0.01172,-0.3164062 v -0.75 h 0.539063 l 0.222656,0.65625 z m 0,0"
       style="fill:#000000;fill-opacity:1;fill-rule:nonzero;stroke:none"
       aria-label="গণসংখযা"
       transform="matrix(1.3333333,0,0,1.3333333,26.373333,55.052)" />
    <path
       id="path17"
       d="M -15.59082,-11.33876 H 15.59084 V 11.33876 H -15.59082 Z"
       style="fill:none;stroke:#000000;stroke-width:0.3985;stroke-linecap:butt;stroke-linejoin:miter;stroke-miterlimit:10;stroke-dasharray:none;stroke-opacity:1"
       transform="matrix(1.3333333,0,0,-1.3333333,116.18667,50.042667)" />
    <path
       id="path18"
       d="M 4.4779531,-1.7352891 H 4.2201406 c -0.046875,0.3046875 -0.1171875,0.73828129 -0.2109375,0.89062504 -0.070312,0.0820313 -0.7265625,0.0820313 -0.9492187,0.0820313 H 1.2670156 L 2.3217031,-1.7938828 c 1.5585938,-1.3710938 2.15625,-1.9101563 2.15625,-2.90625 0,-1.1367188 -0.9023437,-1.9335938 -2.1210937,-1.9335938 -1.125,0 -1.85156253,0.9140625 -1.85156253,1.8046875 0,0.5507813 0.4921875,0.5507813 0.52734373,0.5507813 0.1640625,0 0.515625,-0.1171875 0.515625,-0.5273438 0,-0.2578125 -0.1875,-0.515625 -0.5273437,-0.515625 -0.0820313,0 -0.10546878,0 -0.12890628,0.011719 0.22265628,-0.6445313 0.76171878,-1.0195313 1.33593748,-1.0195313 0.9140625,0 1.3359375,0.8085938 1.3359375,1.6289063 0,0.796875 -0.4921875,1.5820312 -1.0429687,2.203125 L 0.61076562,-0.36419531 C 0.50529687,-0.25872656 0.50529687,-0.23528906 0.50529687,-9.140625e-4 H 4.1967031 Z m 0,0"
       style="fill:#000000;fill-opacity:1;fill-rule:nonzero;stroke:none"
       aria-label="2"
       transform="matrix(1.3333333,0,0,1.3333333,112.86533,55.052)" />
    <path
       id="path19"
       d="M -15.59082,-11.33876 H 15.59084 V 11.33876 H -15.59082 Z"
       style="fill:none;stroke:#000000;stroke-width:0.3985;stroke-linecap:butt;stroke-linejoin:miter;stroke-miterlimit:10;stroke-dasharray:none;stroke-opacity:1"
       transform="matrix(1.3333333,0,0,-1.3333333,157.76267,50.042667)" />
    <path
       id="path20"
       d="m 4.5469297,-2.0282578 c 0,-1.265625 -0.8789063,-2.2265625 -1.9921875,-2.2265625 -0.6679688,0 -1.0429688,0.5039062 -1.2421875,0.984375 v -0.234375 c 0,-2.5195313 1.2421875,-2.8828125 1.7460937,-2.8828125 0.234375,0 0.65625,0.058594 0.8789063,0.3984375 -0.1523438,0 -0.5507813,0 -0.5507813,0.4453125 0,0.3164062 0.234375,0.4570312 0.4570313,0.4570312 0.1640625,0 0.4570312,-0.082031 0.4570312,-0.46875 0,-0.5976562 -0.4335937,-1.078125 -1.265625,-1.078125 -1.2773437,0 -2.61328121,1.2890625 -2.61328121,3.4804688 0,2.66015624 1.14843751,3.37499999 2.07421871,3.37499999 1.1132813,0 2.0507813,-0.9375 2.0507813,-2.24999999 z m -0.890625,-0.011719 c 0,0.4804688 0,0.9726563 -0.1640625,1.33593754 -0.3046875,0.59765625 -0.7617188,0.64453125 -0.9960938,0.64453125 -0.6210937,0 -0.9257812,-0.59765625 -0.984375,-0.75 C 1.3359922,-1.2782578 1.3359922,-2.0751328 1.3359922,-2.2509141 c 0,-0.7734375 0.3164062,-1.7695312 1.21875,-1.7695312 0.1523437,0 0.609375,0 0.9257812,0.609375 0.1757813,0.375 0.1757813,0.8789062 0.1757813,1.3710935 z m 0,0"
       style="fill:#000000;fill-opacity:1;fill-rule:nonzero;stroke:none"
       aria-label="6"
       transform="matrix(1.3333333,0,0,1.3333333,154.44133,55.052)" />
    <path
       id="path21"
       d="M -15.59082,-11.33876 H 15.59084 V 11.33876 H -15.59082 Z"
       style="fill:none;stroke:#000000;stroke-width:0.3985;stroke-linecap:butt;stroke-linejoin:miter;stroke-miterlimit:10;stroke-dasharray:none;stroke-opacity:1"
       transform="matrix(1.3333333,0,0,-1.3333333,199.33733,50.042667)" />
    <path
       id="path22"
       d="m 4.5465938,-1.6766953 c 0,-0.3515625 -0.1054688,-0.8085938 -0.4804688,-1.21875 -0.1875,-0.2109375 -0.3515625,-0.3164063 -0.984375,-0.7148438 0.7148438,-0.3632812 1.2070313,-0.8789062 1.2070313,-1.5351562 0,-0.9257813 -0.890625,-1.4882813 -1.7929688,-1.4882813 -0.9960937,0 -1.8046875,0.7382813 -1.8046875,1.6640625 0,0.1757813 0.0117188,0.6210938 0.4335938,1.0898438 0.1054687,0.1289062 0.4804687,0.375 0.7265625,0.5390625 -0.5742188,0.2929687 -1.42968755,0.84375 -1.42968755,1.8398437 0,1.05468754 1.00781255,1.72265629 2.06250005,1.72265629 1.125,0 2.0625,-0.83203125 2.0625,-1.89843749 z m -0.703125,-3.46875 c 0,0.5625 -0.3867188,1.0429687 -0.984375,1.3945312 L 1.628625,-4.5477891 c -0.46875,-0.3046875 -0.5039062,-0.6445312 -0.5039062,-0.8085937 0,-0.609375 0.6445312,-1.03125 1.359375,-1.03125 0.7265625,0 1.359375,0.515625 1.359375,1.2421875 z m 0.2109375,3.8320312 c 0,0.73828129 -0.75,1.25390629 -1.5585938,1.25390629 -0.8671875,0 -1.58203125,-0.62109375 -1.58203125,-1.44140629 0,-0.5859375 0.31640625,-1.21875 1.17187505,-1.6875 l 1.21875,0.7734375 c 0.28125,0.1875 0.75,0.4921875 0.75,1.1015625 z m 0,0"
       style="fill:#000000;fill-opacity:1;fill-rule:nonzero;stroke:none"
       aria-label="8"
       transform="matrix(1.3333333,0,0,1.3333333,196.016,55.052)" />
    <path
       id="path23"
       d="M -15.59082,-11.33876 H 15.59084 V 11.33876 H -15.59082 Z"
       style="fill:none;stroke:#000000;stroke-width:0.3985;stroke-linecap:butt;stroke-linejoin:miter;stroke-miterlimit:10;stroke-dasharray:none;stroke-opacity:1"
       transform="matrix(1.3333333,0,0,-1.3333333,240.912,50.042667)" />
    <path
       id="path24"
       d="M 4.1710234,-9.140625e-4 V -0.30560156 H 3.8546172 c -0.9023438,0 -0.9257813,-0.1171875 -0.9257813,-0.48046875 V -6.3759141 c 0,-0.234375 0,-0.2578125 -0.234375,-0.2578125 -0.609375,0.6328125 -1.4882812,0.6328125 -1.80468746,0.6328125 v 0.3164063 c 0.19921876,0 0.78515626,0 1.30078126,-0.2578125 v 5.15624999 c 0,0.3515625 -0.035156,0.48046875 -0.9257813,0.48046875 H 0.94836719 V -9.140625e-4 C 1.2999297,-0.03607031 2.1553984,-0.03607031 2.5538359,-0.03607031 c 0.3984375,0 1.265625,0 1.6171875,0.0351562475 z M 9.5294219,-2.0282578 c 0,-1.265625 -0.8789063,-2.2265625 -1.9921875,-2.2265625 -0.6679688,0 -1.0429688,0.5039062 -1.2421875,0.984375 v -0.234375 c 0,-2.5195313 1.2421875,-2.8828125 1.7460937,-2.8828125 0.234375,0 0.65625,0.058594 0.8789063,0.3984375 -0.1523438,0 -0.5507813,0 -0.5507813,0.4453125 0,0.3164062 0.234375,0.4570312 0.4570313,0.4570312 0.1640625,0 0.4570312,-0.082031 0.4570312,-0.46875 0,-0.5976562 -0.4335937,-1.078125 -1.265625,-1.078125 -1.2773437,0 -2.6132812,1.2890625 -2.6132812,3.4804688 0,2.66015624 1.1484375,3.37499999 2.0742187,3.37499999 1.1132813,0 2.0507813,-0.9375 2.0507813,-2.24999999 z m -0.890625,-0.011719 c 0,0.4804688 0,0.9726563 -0.1640625,1.33593754 -0.3046875,0.59765625 -0.7617188,0.64453125 -0.9960938,0.64453125 -0.6210937,0 -0.9257812,-0.59765625 -0.984375,-0.75 C 6.3184844,-1.2782578 6.3184844,-2.0751328 6.3184844,-2.2509141 c 0,-0.7734375 0.3164062,-1.7695312 1.21875,-1.7695312 0.1523437,0 0.609375,0 0.9257812,0.609375 0.1757813,0.375 0.1757813,0.8789062 0.1757813,1.3710935 z m 0,0"
       style="fill:#000000;fill-opacity:1;fill-rule:nonzero;stroke:none"
       aria-label="16"
       transform="matrix(1.3333333,0,0,1.3333333,234.27067,55.052)" />
    <path
       id="path25"
       d="M -15.59082,-11.33876 H 15.59084 V 11.33876 H -15.59082 Z"
       style="fill:none;stroke:#000000;stroke-width:0.3985;stroke-linecap:butt;stroke-linejoin:miter;stroke-miterlimit:10;stroke-dasharray:none;stroke-opacity:1"
       transform="matrix(1.3333333,0,0,-1.3333333,282.48667,50.042667)" />
    <path
       id="path26"
       d="M 4.1706875,-9.140625e-4 V -0.30560156 H 3.8542813 c -0.9023438,0 -0.9257813,-0.1171875 -0.9257813,-0.48046875 V -6.3759141 c 0,-0.234375 0,-0.2578125 -0.234375,-0.2578125 -0.609375,0.6328125 -1.4882812,0.6328125 -1.8046875,0.6328125 v 0.3164063 c 0.1992188,0 0.7851563,0 1.3007813,-0.2578125 v 5.15624999 c 0,0.3515625 -0.035156,0.48046875 -0.9257813,0.48046875 H 0.94803125 V -9.140625e-4 C 1.2995938,-0.03607031 2.1550625,-0.03607031 2.5535,-0.03607031 c 0.3984375,0 1.265625,0 1.6171875,0.0351562475 z M 9.4587734,-1.7352891 H 9.2009609 c -0.046875,0.3046875 -0.1171875,0.73828129 -0.2109375,0.89062504 -0.070312,0.0820313 -0.7265625,0.0820313 -0.9492187,0.0820313 H 6.2478359 L 7.3025234,-1.7938828 c 1.5585938,-1.3710938 2.15625,-1.9101563 2.15625,-2.90625 0,-1.1367188 -0.9023437,-1.9335938 -2.1210937,-1.9335938 -1.125,0 -1.8515625,0.9140625 -1.8515625,1.8046875 0,0.5507813 0.4921875,0.5507813 0.5273437,0.5507813 0.1640625,0 0.515625,-0.1171875 0.515625,-0.5273438 0,-0.2578125 -0.1875,-0.515625 -0.5273437,-0.515625 -0.082031,0 -0.1054688,0 -0.1289063,0.011719 0.2226563,-0.6445313 0.7617188,-1.0195313 1.3359375,-1.0195313 0.9140625,0 1.3359375,0.8085938 1.3359375,1.6289063 0,0.796875 -0.4921875,1.5820312 -1.0429687,2.203125 L 5.5915859,-0.36419531 C 5.4861172,-0.25872656 5.4861172,-0.23528906 5.4861172,-9.140625e-4 h 3.6914062 z m 0,0"
       style="fill:#000000;fill-opacity:1;fill-rule:nonzero;stroke:none"
       aria-label="12"
       transform="matrix(1.3333333,0,0,1.3333333,275.84533,55.052)" />
    <path
       id="path27"
       d="M -15.59082,-11.33876 H 15.59084 V 11.33876 H -15.59082 Z"
       style="fill:none;stroke:#000000;stroke-width:0.3985;stroke-linecap:butt;stroke-linejoin:miter;stroke-miterlimit:10;stroke-dasharray:none;stroke-opacity:1"
       transform="matrix(1.3333333,0,0,-1.3333333,324.06267,50.042667)" />
    <path
       id="path28"
       d="m 4.5475156,-2.0282578 c 0,-1.265625 -0.8789062,-2.2265625 -1.9921875,-2.2265625 -0.6679687,0 -1.0429687,0.5039062 -1.2421875,0.984375 v -0.234375 c 0,-2.5195313 1.2421875,-2.8828125 1.7460938,-2.8828125 0.234375,0 0.65625,0.058594 0.8789062,0.3984375 -0.1523437,0 -0.5507812,0 -0.5507812,0.4453125 0,0.3164062 0.234375,0.4570312 0.4570312,0.4570312 0.1640625,0 0.4570313,-0.082031 0.4570313,-0.46875 0,-0.5976562 -0.4335938,-1.078125 -1.265625,-1.078125 -1.2773438,0 -2.61328128,1.2890625 -2.61328128,3.4804688 0,2.66015624 1.14843748,3.37499999 2.07421878,3.37499999 1.1132812,0 2.0507812,-0.9375 2.0507812,-2.24999999 z m -0.890625,-0.011719 c 0,0.4804688 0,0.9726563 -0.1640625,1.33593754 -0.3046875,0.59765625 -0.7617187,0.64453125 -0.9960937,0.64453125 -0.6210938,0 -0.9257813,-0.59765625 -0.984375,-0.75 C 1.3365781,-1.2782578 1.3365781,-2.0751328 1.3365781,-2.2509141 c 0,-0.7734375 0.3164063,-1.7695312 1.21875,-1.7695312 0.1523438,0 0.609375,0 0.9257813,0.609375 0.1757812,0.375 0.1757812,0.8789062 0.1757812,1.3710935 z m 0,0"
       style="fill:#000000;fill-opacity:1;fill-rule:nonzero;stroke:none"
       aria-label="6"
       transform="matrix(1.3333333,0,0,1.3333333,320.74133,55.052)" />
  </g>
</svg>
