<svg xmlns="http://www.w3.org/2000/svg" width="142.2651pt" height="115.21332pt" viewBox="-72 -72 142.2651 115.21332" style="position: absolute; top: 0pt; left: 0pt; overflow: visible;">
<g transform="translate(-57.904052734374986,26.787490844726555)">
<g stroke-miterlimit="10" transform="scale(1,-1)"><g stroke="#000" fill="#000">
 <g stroke-width="0.4">
 <g stroke-width="0.8">
 <path d=" M 0.0 85.35823 L 0.0 0.0  " fill="none"/>
 </g>
 <g stroke-width="0.8">
 <path d=" M 0.0 0.0 L 113.81097 0.0  " fill="none"/>
 </g>
 <g stroke-width="0.8">
 <path d=" M 0.0 85.35823 L 113.81097 0.0  " fill="none"/>
 </g>
 <path d=" M 0.0 11.38092 L 11.38092 11.38092 L 11.38092 0.0  " fill="none"/>
 <path d=" M 99.5846 0.0 C 99.5846 3.089 100.59033 6.09488 102.44916 8.56174  " fill="none"/>
 <g transform="translate(-11.03297,88.8912)">
 <g stroke="none" transform="scale(-1.00375,1.00375)translate(-54.57072448730467,26.787490844726555)scale(-1,-1)"><g fill="#000">
 <g stroke="none"> <text alignment-baseline="baseline" y="26.787490844726555" x="-54.57072448730467" style="font-family: cmr10;" font-size="10">A</text>
</g> </g>
 </g></g>
 <g transform="translate(-10.61632,-10.36629)">
 <g stroke="none" transform="scale(-1.00375,1.00375)translate(-54.57072448730467,26.787490844726555)scale(-1,-1)"><g fill="#000">
 <g stroke="none"> <text alignment-baseline="baseline" y="26.787490844726555" x="-54.57072448730467" style="font-family: cmr10;" font-size="10">B</text>
</g> </g>
 </g></g>
 <g transform="translate(117.34395,-10.36629)">
 <g stroke="none" transform="scale(-1.00375,1.00375)translate(-54.57072448730467,26.787490844726555)scale(-1,-1)"><g fill="#000">
 <g stroke="none"> <text alignment-baseline="baseline" y="26.787490844726555" x="-54.57072448730467" style="font-family: cmr10;" font-size="10">C</text>
</g> </g>
 </g></g>
 <g transform="translate(-9.95569,39.4569)">
 <g stroke="none" transform="scale(-1.00375,1.00375)translate(-54.57072448730467,26.787490844726555)scale(-1,-1)"><g fill="#000">
 <g stroke="none"> <text alignment-baseline="baseline" y="26.787490844726555" x="-54.57072448730467" style="font-family: cmr10;" font-size="10">3</text>
</g> </g>
 </g></g>
 <g transform="translate(54.40549,-12.82285)">
 <g stroke="none" transform="scale(-1.00375,1.00375)translate(-54.57072448730467,26.787490844726555)scale(-1,-1)"><g fill="#000">
 <g stroke="none"> <text alignment-baseline="baseline" y="26.787490844726555" x="-54.57072448730467" style="font-family: cmr10;" font-size="10">4</text>
</g> </g>
 </g></g>
 <g transform="translate(91.07939,3.53297)">
 <g stroke="none" transform="scale(-1.00375,1.00375)translate(-54.57072448730467,26.787490844726555)scale(-1,-1)"><g fill="#000">
 <g stroke="none"> <text alignment-baseline="baseline" y="26.787490844726555" x="-54.57072448730467" style="font-family: cmmi10;" font-size="10">θ</text>
</g> </g>
 </g></g>
 </g>
 </g>
 </g></g></svg>