<svg xmlns="http://www.w3.org/2000/svg" width="252.19588pt" height="140.18532pt" viewBox="-72 -72 252.19588 140.18532" style="position: absolute; top: 0pt; left: 0pt; overflow: visible;">
<g transform="translate(108.93220520019528,39.98968505859374)">
<g stroke-miterlimit="10" transform="scale(1,-1)"><g stroke="#000" fill="#000">
 <g stroke-width="0.4">
 <g stroke-width="0.8">
 <path d=" M -170.71646 0.0 L 56.90549 0.0  " fill="none"/>
 </g>
 <g stroke-width="0.8">
 <path d=" M 0.0 98.56042 L 0.0 0.0  " fill="none"/>
 </g>
 <g stroke-width="0.8">
 <path d=" M 0.0 98.56042 L -170.71646 0.0  " fill="none"/>
 </g>
 <g stroke-width="0.8">
 <path d=" M 0.0 98.56042 L 56.90549 0.0  " fill="none"/>
 </g>
 <g stroke-width="0.8">
 <path d=" M 0.0 98.56042 L -142.26372 98.56042  " fill="none"/>
 </g>
 <path d=" M 0.0 0.0 M -11.38092 0.0 L -11.38092 11.38092 L 0.0 11.38092  " fill="none"/>
 <path d=" M -170.71646 0.0 M -136.57326 0.0 C -136.57326 5.99182 -138.15186 11.8826 -141.1475 17.0716  " fill="none"/>
 <g transform="translate(-121.1096,7.93799)">
 <g stroke="none" transform="scale(-1.00375,1.00375)translate(112.2655334472656,39.98968505859374)scale(-1,-1)"><g fill="#000">
 <g stroke="none"> <text alignment-baseline="baseline" y="39.98968505859374" x="112.2655334472656" style="font-family: cmr10;" font-size="10">30</text>
<text alignment-baseline="baseline" y="36.36076354980468" x="122.26557159423825" style="font-family: cmsy7;" font-size="7">◦</text>
</g> </g>
 </g></g>
 <path d=" M 56.90549 0.0 M 34.14322 0.0 C 34.14322 8.13121 38.4827 15.64732 45.52435 19.71275  " fill="none"/>
 <g transform="translate(18.30867,13.62888)">
 <g stroke="none" transform="scale(-1.00375,1.00375)translate(112.2655334472656,39.98968505859374)scale(-1,-1)"><g fill="#000">
 <g stroke="none"> <text alignment-baseline="baseline" y="39.98968505859374" x="112.2655334472656" style="font-family: cmr10;" font-size="10">60</text>
<text alignment-baseline="baseline" y="36.36076354980468" x="122.26557159423825" style="font-family: cmsy7;" font-size="7">◦</text>
</g> </g>
 </g></g>
 <path d=" M 0.0 98.56042 M -34.1432 98.56042 C -34.1432 92.5686 -32.5646 86.67783 -29.56895 81.48883  " fill="none"/>
 <g transform="translate(-58.51364,83.73657)">
 <g stroke="none" transform="scale(-1.00375,1.00375)translate(112.2655334472656,39.98968505859374)scale(-1,-1)"><g fill="#000">
 <g stroke="none"> <text alignment-baseline="baseline" y="39.98968505859374" x="112.2655334472656" style="font-family: cmr10;" font-size="10">30</text>
<text alignment-baseline="baseline" y="36.36076354980468" x="122.26557159423825" style="font-family: cmsy7;" font-size="7">◦</text>
</g> </g>
 </g></g>
 <g transform="translate(-152.60226,95.14377)">
 <g stroke="none" transform="scale(-1.00375,1.00375)translate(112.2655334472656,39.98968505859374)scale(-1,-1)"><g fill="#000">
 <g stroke="none"> <text alignment-baseline="baseline" y="39.98968505859374" x="112.2655334472656" style="font-family: cmr10;" font-size="10">E</text>
</g> </g>
 </g></g>
 <g transform="translate(-3.75,102.0934)">
 <g stroke="none" transform="scale(-1.00375,1.00375)translate(112.2655334472656,39.98968505859374)scale(-1,-1)"><g fill="#000">
 <g stroke="none"> <text alignment-baseline="baseline" y="39.98968505859374" x="112.2655334472656" style="font-family: cmr10;" font-size="10">A</text>
</g> </g>
 </g></g>
 <g transform="translate(-174.5359,-10.36629)">
 <g stroke="none" transform="scale(-1.00375,1.00375)translate(112.2655334472656,39.98968505859374)scale(-1,-1)"><g fill="#000">
 <g stroke="none"> <text alignment-baseline="baseline" y="39.98968505859374" x="112.2655334472656" style="font-family: cmr10;" font-size="10">D</text>
</g> </g>
 </g></g>
 <g transform="translate(-3.54167,-10.36629)">
 <g stroke="none" transform="scale(-1.00375,1.00375)translate(112.2655334472656,39.98968505859374)scale(-1,-1)"><g fill="#000">
 <g stroke="none"> <text alignment-baseline="baseline" y="39.98968505859374" x="112.2655334472656" style="font-family: cmr10;" font-size="10">B</text>
</g> </g>
 </g></g>
 <g transform="translate(60.43846,-10.36629)">
 <g stroke="none" transform="scale(-1.00375,1.00375)translate(112.2655334472656,39.98968505859374)scale(-1,-1)"><g fill="#000">
 <g stroke="none"> <text alignment-baseline="baseline" y="39.98968505859374" x="112.2655334472656" style="font-family: cmr10;" font-size="10">C</text>
</g> </g>
 </g></g>
 <g transform="translate(-84.33609,-24.59265)">
 <g stroke="none" transform="scale(-1.00375,1.00375)translate(112.2655334472656,39.98968505859374)scale(-1,-1)"><g fill="#000">
 <g stroke="none"> <text alignment-baseline="baseline" y="39.98968505859374" x="112.2655334472656" style="font-family: cmr10;" font-size="10">BC</text>
<text alignment-baseline="baseline" y="39.98968505859374" x="129.90446281433103" style="font-family: cmr10;" font-size="10">=</text>
<text alignment-baseline="baseline" y="39.98968505859374" x="141.01559638977048" style="font-family: cmr10;" font-size="10">18</text>
<text alignment-baseline="baseline" y="39.98968505859374" x="154.34896278381345" style="font-family: cmr10;" font-size="10">cm</text>
</g> </g>
 </g></g>
 </g>
 </g>
 </g></g></svg>