<?xml version="1.0" encoding="UTF-8" standalone="no"?>
<!-- Created with Inkscape (http://www.inkscape.org/) -->

<svg
   version="1.1"
   id="svg1"
   width="202.26134"
   height="141.34534"
   viewBox="0 0 202.26134 141.34534"
   sodipodi:docname="upload_y334yl4autyr35gez4pe2y4uw2.pdf"
   xmlns:inkscape="http://www.inkscape.org/namespaces/inkscape"
   xmlns:sodipodi="http://sodipodi.sourceforge.net/DTD/sodipodi-0.dtd"
   xmlns="http://www.w3.org/2000/svg"
   xmlns:svg="http://www.w3.org/2000/svg">
  <defs
     id="defs1" />
  <sodipodi:namedview
     id="namedview1"
     pagecolor="#ffffff"
     bordercolor="#000000"
     borderopacity="0.25"
     inkscape:showpageshadow="2"
     inkscape:pageopacity="0.0"
     inkscape:pagecheckerboard="0"
     inkscape:deskcolor="#d1d1d1">
    <inkscape:page
       x="0"
       y="0"
       inkscape:label="1"
       id="page1"
       width="202.26134"
       height="141.34534"
       margin="0"
       bleed="0" />
  </sodipodi:namedview>
  <g
     id="g1"
     inkscape:groupmode="layer"
     inkscape:label="1">
    <path
       id="path1"
       d="M 0,0 H 113.38724"
       style="fill:none;stroke:#000000;stroke-width:0.79701;stroke-linecap:butt;stroke-linejoin:miter;stroke-miterlimit:10;stroke-dasharray:none;stroke-opacity:1"
       transform="matrix(1.3333333,0,0,-1.3333333,25.356,111.768)" />
    <path
       id="path2"
       d="M 113.38724,0 V 65.19774"
       style="fill:none;stroke:#000000;stroke-width:0.79701;stroke-linecap:butt;stroke-linejoin:miter;stroke-miterlimit:10;stroke-dasharray:none;stroke-opacity:1"
       transform="matrix(1.3333333,0,0,-1.3333333,25.356,111.768)" />
    <path
       id="path3"
       d="M 0,0 113.38724,65.19774"
       style="fill:none;stroke:#000000;stroke-width:0.79701;stroke-linecap:butt;stroke-linejoin:miter;stroke-miterlimit:10;stroke-dasharray:none;stroke-opacity:1"
       transform="matrix(1.3333333,0,0,-1.3333333,25.356,111.768)" />
    <path
       id="path4"
       d="m 104.88309,0 v 8.50412 h 8.50415"
       style="fill:none;stroke:#000000;stroke-width:0.3985;stroke-linecap:butt;stroke-linejoin:miter;stroke-miterlimit:10;stroke-dasharray:none;stroke-opacity:1"
       transform="matrix(1.3333333,0,0,-1.3333333,25.356,111.768)" />
    <path
       id="path5"
       d="m 17.00824,0 c 0,2.98477 -0.78638,5.91925 -2.27864,8.50412"
       style="fill:none;stroke:#000000;stroke-width:0.3985;stroke-linecap:butt;stroke-linejoin:miter;stroke-miterlimit:10;stroke-dasharray:none;stroke-opacity:1"
       transform="matrix(1.3333333,0,0,-1.3333333,25.356,111.768)" />
    <path
       id="path6"
       d="m 4.5358906,-4.9792734 c 0,-0.65625 -0.1875,-2.0390625 -1.1953125,-2.0390625 -1.3828125,0 -2.91796872,2.8007812 -2.91796872,5.0859375 0,0.93749996 0.28125,2.03906246 1.19531252,2.03906246 1.40625,0 2.9179687,-2.85937496 2.9179687,-5.08593746 z m -3.0585937,1.359375 c 0.1640625,-0.6328125 0.3632812,-1.4296875 0.7617187,-2.1328125 0.2695313,-0.4921875 0.6445313,-1.0546875 1.0898438,-1.0546875 0.4921875,0 0.5507812,0.6445312 0.5507812,1.2070312 0,0.4921875 -0.082031,0.9960938 -0.328125,1.9804688 z m 1.9921875,0.328125 c -0.1171875,0.4570312 -0.3164063,1.3007812 -0.703125,2.015625 -0.3398438,0.67968746 -0.7265625,1.17187496 -1.1484375,1.17187496 -0.328125,0 -0.5390625,-0.29296875 -0.5390625,-1.21874996 0,-0.421875 0.058594,-0.9960938 0.3164062,-1.96875 z m 0,0"
       style="fill:#000000;fill-opacity:1;fill-rule:nonzero;stroke:none"
       aria-label="θ"
       transform="matrix(1.3333333,0,0,1.3333333,56.069333,106.932)" />
    <path
       id="path7"
       d="m 3.9617891,-6.9361719 c -0.046875,-0.1289062 -0.070312,-0.1992187 -0.2226563,-0.1992187 -0.1640625,0 -0.1875,0.058594 -0.2460937,0.1992187 l -2.0625,5.96484378 c -0.1757813,0.50390625 -0.57421879,0.65625 -1.11328129,0.66796875 v 0.3046875 c 0.234375,-0.01171875 0.65625,-0.03515625 1.01953129,-0.03515625 0.3046875,0 0.8203125,0.0234375 1.1484375,0.03515625 v -0.3046875 c -0.5039063,0 -0.75,-0.2578125 -0.75,-0.515625 0,-0.0234375 0.011719,-0.12890625 0.023437,-0.140625 L 2.2156953,-2.2721094 h 2.4609375 l 0.5273438,1.52343753 c 0.011719,0.046875 0.023437,0.10546875 0.023437,0.140625 0,0.3046875 -0.5507813,0.3046875 -0.8203125,0.3046875 v 0.3046875 c 0.3515625,-0.03515625 1.0546875,-0.03515625 1.4296875,-0.03515625 0.4335937,0 0.890625,0.01171875 1.3007812,0.03515625 v -0.3046875 H 6.9617891 c -0.5976563,0 -0.7382813,-0.0703125 -0.84375,-0.3984375 z m -0.5273438,1.125 1.125,3.234375 H 2.3211641 Z m 0,0"
       style="fill:#000000;fill-opacity:1;fill-rule:nonzero;stroke:none"
       aria-label="A"
       transform="matrix(1.3333333,0,0,1.3333333,181.22933,20.146667)" />
    <path
       id="path8"
       d="m 2.2156953,-3.6442344 v -2.4492187 c 0,-0.328125 0.011719,-0.3984375 0.4804688,-0.3984375 h 1.2421875 c 0.9609375,0 1.3125,0.84375 1.3125,1.3710937 0,0.6328125 -0.4921875,1.4765625 -1.59375,1.4765625 z m 2.34375,0.09375 c 0.9726563,-0.1992187 1.6523438,-0.8320312 1.6523438,-1.5703125 0,-0.8671875 -0.9140625,-1.6875 -2.203125,-1.6875 H 0.36413281 v 0.3164063 h 0.234375 c 0.76171879,0 0.78515629,0.1054687 0.78515629,0.46875 v 5.24999998 c 0,0.3515625 -0.023437,0.46875 -0.78515629,0.46875 h -0.234375 V 2.96875e-4 H 4.2664766 c 1.3242187,0 2.2148437,-0.890624995 2.2148437,-1.828124975 0,-0.8671875 -0.8085937,-1.6054688 -1.921875,-1.7226563 z m -0.609375,3.24609378 H 2.6961641 c -0.46875,0 -0.4804688,-0.0703125 -0.4804688,-0.3984375 V -3.4215781 h 1.875 c 0.984375,0 1.3945313,0.9257812 1.3945313,1.59375 0,0.703125 -0.515625,1.52343748 -1.5351563,1.52343748 z m 0,0"
       style="fill:#000000;fill-opacity:1;fill-rule:nonzero;stroke:none"
       aria-label="B"
       transform="matrix(1.3333333,0,0,1.3333333,181.22933,125.53867)" />
    <path
       id="path9"
       d="m 0.56323437,-3.4098594 c 0,2.0625 1.60546873,3.63281253 3.45703123,3.63281253 1.6289063,0 2.6015625,-1.38281253 2.6015625,-2.54296873 0,-0.1054688 0,-0.1757813 -0.1289062,-0.1757813 -0.1054688,0 -0.1054688,0.070312 -0.1171875,0.1640625 -0.082031,1.42968753 -1.1484375,2.23828128 -2.2265625,2.23828128 -0.609375,0 -2.5664063,-0.33984375 -2.5664063,-3.30468748 0,-2.9765625 1.9453125,-3.3164063 2.5546875,-3.3164063 1.078125,0 1.96875,0.9023438 2.1679688,2.3671875 0.023437,0.1289063 0.023437,0.1640625 0.1640625,0.1640625 0.1523437,0 0.1523437,-0.035156 0.1523437,-0.234375 v -2.3671875 c 0,-0.1640625 0,-0.234375 -0.1054687,-0.234375 -0.035156,0 -0.082031,0 -0.1640625,0.1171875 l -0.4921875,0.7382813 c -0.375,-0.3632813 -0.8789063,-0.8554688 -1.8398438,-0.8554688 -1.8632812,0 -3.45703123,1.5820313 -3.45703123,3.609375 z m 0,0"
       style="fill:#000000;fill-opacity:1;fill-rule:nonzero;stroke:none"
       aria-label="C"
       transform="matrix(1.3333333,0,0,1.3333333,11.069333,125.53867)" />
    <path
       id="path10"
       d="m 1.2665859,-0.7626875 1.0546875,-1.03125 c 1.5585938,-1.3710937 2.15625,-1.9101562 2.15625,-2.90625 0,-1.1367187 -0.9023437,-1.9335937 -2.1210937,-1.9335937 -1.125,0 -1.85156251,0.9140625 -1.85156251,1.8046875 0,0.5507812 0.4921875,0.5507812 0.52734371,0.5507812 0.1640625,0 0.515625,-0.1171875 0.515625,-0.5273437 0,-0.2578125 -0.1875,-0.515625 -0.5273437,-0.515625 -0.0820313,0 -0.10546876,0 -0.12890626,0.011719 0.22265626,-0.6445312 0.76171876,-1.0195312 1.33593746,-1.0195312 0.9140625,0 1.3359375,0.8085937 1.3359375,1.6289062 0,0.796875 -0.4921875,1.5820313 -1.0429687,2.203125 L 0.61033594,-0.36425 C 0.50486719,-0.25878125 0.50486719,-0.23534375 0.50486719,-9.6875e-4 H 4.1962734 l 0.28125,-1.73437495 H 4.2197109 c -0.046875,0.3046875 -0.1171875,0.7382812 -0.2109375,0.89062495 -0.070312,0.0820313 -0.7265625,0.0820313 -0.9492187,0.0820313 z m 0,0"
       style="fill:#000000;fill-opacity:1;fill-rule:nonzero;stroke:none"
       aria-label="2"
       transform="matrix(1.3333333,0,0,1.3333333,89.612,63.610667)" />
    <path
       id="path11"
       d="M 3.8782891,8.5191094 2.1204766,4.6402031 C 2.0501641,4.4878594 2.0032891,4.4878594 1.9681328,4.4878594 c -0.011719,0 -0.058594,0 -0.1640625,0.070312 l -0.94921874,0.726563 c -0.12890625,0.09375 -0.12890625,0.1289062 -0.12890625,0.1523437 0,0.046875 0.0351563,0.1054688 0.10546875,0.1054688 0.0585938,0 0.22265624,-0.1289063 0.32812504,-0.2109375 0.070312,-0.046875 0.2109375,-0.1640625 0.328125,-0.2460938 l 1.9570312,4.3125 c 0.070312,0.1640625 0.1171875,0.1640625 0.2109375,0.1640625 0.1523438,0 0.1757813,-0.058594 0.2460938,-0.1992187 L 8.4251641,-4.21875e-4 c 0.070312,-0.140625005 0.070312,-0.175781255 0.070312,-0.199218755 0,-0.10546875 -0.082031,-0.19921875 -0.1992188,-0.19921875 -0.082031,0 -0.1523437,0.046875 -0.2226562,0.2109375 z m 0,0"
       style="fill:#000000;fill-opacity:1;fill-rule:nonzero;stroke:none"
       aria-label="√"
       transform="matrix(1.3333333,0,0,1.3333333,92.090667,117.524)" />
    <path
       id="path12"
       d="M 0,0 H 4.981"
       style="fill:none;stroke:#000000;stroke-width:0.398;stroke-linecap:butt;stroke-linejoin:miter;stroke-miterlimit:10;stroke-dasharray:none;stroke-opacity:1"
       transform="matrix(1.3333333,0,0,-1.3333333,103.16,117.25867)" />
    <path
       id="path13"
       d="m 2.8946484,-3.5041172 c 0.8085938,-0.2695312 1.3945313,-0.9726562 1.3945313,-1.7578125 0,-0.8203125 -0.8789063,-1.3710937 -1.8398438,-1.3710937 -1.0078125,0 -1.75781246,0.5976562 -1.75781246,1.3476562 0,0.3398438 0.2109375,0.5273438 0.50390626,0.5273438 0.3046875,0 0.5039062,-0.2226563 0.5039062,-0.515625 0,-0.4921875 -0.46875,-0.4921875 -0.609375,-0.4921875 0.3046875,-0.4921875 0.9609375,-0.6210938 1.3242188,-0.6210938 0.4101562,0 0.9492187,0.2226563 0.9492187,1.1132813 0,0.1289062 -0.011719,0.703125 -0.2695312,1.1367187 -0.3046875,0.4804688 -0.6445313,0.515625 -0.890625,0.515625 -0.082031,0.011719 -0.3164063,0.035156 -0.3867188,0.035156 -0.082031,0.011719 -0.1523437,0.023437 -0.1523437,0.1171875 0,0.1171875 0.070312,0.1171875 0.234375,0.1171875 h 0.4453125 c 0.8085937,0 1.1835937,0.6679687 1.1835937,1.6523437 0,1.34765626 -0.6914062,1.64062501 -1.125,1.64062501 -0.4335937,0 -1.171875,-0.17578125 -1.52343746,-0.76171875 0.35156246,0.0585938 0.65624996,-0.1640625 0.65624996,-0.53906246 0,-0.3632813 -0.2695312,-0.5625 -0.56249996,-0.5625 -0.234375,0 -0.55078125,0.140625 -0.55078125,0.5742187 0,0.91406251 0.92578121,1.57031251 2.00390621,1.57031251 1.21875,0 2.1210938,-0.9140625 2.1210938,-1.92187501 0,-0.8203125 -0.6210938,-1.59375 -1.6523438,-1.8046872 z m 0,0"
       style="fill:#000000;fill-opacity:1;fill-rule:nonzero;stroke:none"
       aria-label="3"
       transform="matrix(1.3333333,0,0,1.3333333,103.16,128.512)" />
  </g>
</svg>
