<?xml version="1.0" encoding="UTF-8" standalone="no"?>
<!-- Created with Inkscape (http://www.inkscape.org/) -->

<svg
   version="1.1"
   id="svg1"
   width="220.97467"
   height="163.064"
   viewBox="0 0 220.97467 163.064"
   sodipodi:docname="upload_aov66zs6x5ock5ztmbxgqin5wp.pdf"
   xmlns:inkscape="http://www.inkscape.org/namespaces/inkscape"
   xmlns:sodipodi="http://sodipodi.sourceforge.net/DTD/sodipodi-0.dtd"
   xmlns="http://www.w3.org/2000/svg"
   xmlns:svg="http://www.w3.org/2000/svg">
  <defs
     id="defs1" />
  <sodipodi:namedview
     id="namedview1"
     pagecolor="#ffffff"
     bordercolor="#000000"
     borderopacity="0.25"
     inkscape:showpageshadow="2"
     inkscape:pageopacity="0.0"
     inkscape:pagecheckerboard="0"
     inkscape:deskcolor="#d1d1d1">
    <inkscape:page
       x="0"
       y="0"
       inkscape:label="1"
       id="page1"
       width="220.97467"
       height="163.064"
       margin="0"
       bleed="0" />
  </sodipodi:namedview>
  <g
     id="g1"
     inkscape:groupmode="layer"
     inkscape:label="1">
    <path
       id="path1"
       d="M -56.69362,0 H 70.867"
       style="fill:none;stroke:#000000;stroke-width:0.79701;stroke-linecap:butt;stroke-linejoin:miter;stroke-miterlimit:10;stroke-dasharray:none;stroke-opacity:1"
       transform="matrix(1.3333333,0,0,-1.3333333,101.31467,138.22533)" />
    <path
       id="path2"
       d="M 0,0 V 85.04042"
       style="fill:none;stroke:#000000;stroke-width:0.79701;stroke-linecap:butt;stroke-linejoin:miter;stroke-miterlimit:10;stroke-dasharray:none;stroke-opacity:1"
       transform="matrix(1.3333333,0,0,-1.3333333,101.31467,138.22533)" />
    <path
       id="path3"
       d="M 0,0 62.36288,56.69362"
       style="fill:none;stroke:#000000;stroke-width:0.79701;stroke-linecap:butt;stroke-linejoin:miter;stroke-miterlimit:10;stroke-dasharray:none;stroke-opacity:1"
       transform="matrix(1.3333333,0,0,-1.3333333,101.31467,138.22533)" />
    <path
       id="path4"
       d="M 0,7.08669 H 7.08669 V 0"
       style="fill:none;stroke:#000000;stroke-width:0.3985;stroke-linecap:butt;stroke-linejoin:miter;stroke-miterlimit:10;stroke-dasharray:none;stroke-opacity:1"
       transform="matrix(1.3333333,0,0,-1.3333333,101.31467,138.22533)" />
    <path
       id="path5"
       d="m 3.9616719,-6.9382109 c -0.046875,-0.1289063 -0.070312,-0.1992188 -0.2226563,-0.1992188 -0.1640625,0 -0.1875,0.058594 -0.2460937,0.1992188 l -2.0625,5.96484371 c -0.1757813,0.50390625 -0.57421878,0.65625 -1.11328128,0.66796875 v 0.3046875025 c 0.234375,-0.0117187525 0.65625,-0.0351562525 1.01953128,-0.0351562525 0.3046875,0 0.8203125,0.0234375 1.1484375,0.0351562525 V -0.30539844 c -0.5039063,0 -0.75,-0.2578125 -0.75,-0.515625 0,-0.0234375 0.011719,-0.12890625 0.023437,-0.140625 L 2.2155781,-2.2741484 h 2.4609375 l 0.5273438,1.52343746 c 0.011719,0.046875 0.023437,0.10546875 0.023437,0.140625 0,0.3046875 -0.5507813,0.3046875 -0.8203125,0.3046875 V -7.109375e-4 C 4.7585469,-0.03586719 5.4616719,-0.03586719 5.8366719,-0.03586719 c 0.4335937,0 0.890625,0.01171875 1.3007812,0.0351562525 V -0.30539844 H 6.9616719 c -0.5976563,0 -0.7382813,-0.0703125 -0.84375,-0.3984375 z m -0.5273438,1.125 1.125,3.234375 H 2.3210469 Z m 0,0"
       style="fill:#000000;fill-opacity:1;fill-rule:nonzero;stroke:none"
       aria-label="A"
       transform="matrix(1.3333333,0,0,1.3333333,11.069333,142.76267)" />
    <path
       id="path6"
       d="m 2.2149141,-3.6452422 v -2.4492187 c 0,-0.328125 0.011719,-0.3984375 0.4804687,-0.3984375 h 1.2421875 c 0.9609375,0 1.3125,0.84375 1.3125,1.3710937 0,0.6328125 -0.4921875,1.4765625 -1.59375,1.4765625 z m 2.34375,0.09375 c 0.9726562,-0.1992187 1.6523437,-0.8320312 1.6523437,-1.5703125 0,-0.8671875 -0.9140625,-1.6875 -2.203125,-1.6875 H 0.36335156 v 0.3164063 h 0.234375 c 0.76171874,0 0.78515624,0.1054687 0.78515624,0.46875 v 5.24999996 c 0,0.3515625 -0.023437,0.46875 -0.78515624,0.46875 h -0.234375 V -7.109375e-4 H 4.2656953 c 1.3242188,0 2.2148438,-0.8906250025 2.2148438,-1.8281249625 0,-0.8671875 -0.8085938,-1.6054688 -1.921875,-1.7226563 z m -0.609375,3.24609376 H 2.6953828 c -0.46875,0 -0.4804687,-0.0703125 -0.4804687,-0.3984375 V -3.4225859 h 1.875 c 0.984375,0 1.3945312,0.9257812 1.3945312,1.59375 0,0.703125 -0.515625,1.52343746 -1.5351562,1.52343746 z m 0,0"
       style="fill:#000000;fill-opacity:1;fill-rule:nonzero;stroke:none"
       aria-label="B"
       transform="matrix(1.3333333,0,0,1.3333333,200.496,142.76267)" />
    <path
       id="path7"
       d="m 7.1829219,-3.3739297 c 0,-2.0390625 -1.5,-3.6445312 -3.3164063,-3.6445312 -1.78125,0 -3.30468747,1.59375 -3.30468747,3.6445312 0,2.0390625 1.53515627,3.59765626 3.30468747,3.59765626 1.8164063,0 3.3164063,-1.58203126 3.3164063,-3.59765626 z m -3.3046875,3.33984376 c -0.9609375,0 -2.296875,-0.87890625 -2.296875,-3.48046876 0,-2.578125 1.453125,-3.2578125 2.2851562,-3.2578125 0.8671875,0 2.2851563,0.703125 2.2851563,3.2578125 0,2.63671876 -1.359375,3.48046876 -2.2734375,3.48046876 z m 0,0"
       style="fill:#000000;fill-opacity:1;fill-rule:nonzero;stroke:none"
       aria-label="O"
       transform="matrix(1.3333333,0,0,1.3333333,96.149333,151.99467)" />
    <path
       id="path8"
       d="m 0.35220313,-6.8091953 v 0.3164062 h 0.234375 c 0.77343747,0 0.78515627,0.1054688 0.78515627,0.46875 v 5.25000004 c 0,0.3515625 -0.011719,0.46875 -0.78515627,0.46875 h -0.234375 V -6.015625e-4 H 3.9967344 c 1.6757812,0 3.046875,-1.4765625375 3.046875,-3.3515625375 0,-1.8867187 -1.3476563,-3.4570312 -3.046875,-3.4570312 z m 2.36718747,6.50390624 c -0.46875,0 -0.4921875,-0.0703125 -0.4921875,-0.3984375 V -6.0943516 c 0,-0.328125 0.023437,-0.3984375 0.4921875,-0.3984375 h 0.9960938 c 0.6210937,0 1.3007812,0.2109375 1.8164062,0.9257813 0.421875,0.5859375 0.515625,1.4414062 0.515625,2.2148437 0,1.1132813 -0.1875,1.7109375 -0.5507812,2.1914063 -0.1992188,0.26953124 -0.7617188,0.85546874 -1.7695313,0.85546874 z m 0,0"
       style="fill:#000000;fill-opacity:1;fill-rule:nonzero;stroke:none"
       aria-label="D"
       transform="matrix(1.3333333,0,0,1.3333333,96.241333,20.145333)" />
    <path
       id="path9"
       d="m 0.5616875,-3.4101016 c 0,2.0625 1.6054688,3.63281254 3.4570313,3.63281254 1.6289062,0 2.6015625,-1.38281254 2.6015625,-2.54296874 0,-0.1054688 0,-0.1757813 -0.1289063,-0.1757813 -0.1054687,0 -0.1054687,0.070312 -0.1171875,0.1640625 -0.082031,1.42968754 -1.1484375,2.23828129 -2.2265625,2.23828129 -0.609375,0 -2.5664062,-0.33984375 -2.5664062,-3.30468749 0,-2.9765625 1.9453125,-3.3164063 2.5546875,-3.3164063 1.078125,0 1.96875,0.9023438 2.1679687,2.3671875 0.023437,0.1289063 0.023437,0.1640625 0.1640625,0.1640625 0.1523438,0 0.1523438,-0.035156 0.1523438,-0.234375 v -2.3671875 c 0,-0.1640625 0,-0.234375 -0.1054688,-0.234375 -0.035156,0 -0.082031,0 -0.1640625,0.1171875 l -0.4921875,0.7382813 c -0.375,-0.3632813 -0.8789062,-0.8554688 -1.8398437,-0.8554688 -1.8632813,0 -3.4570313,1.5820313 -3.4570313,3.609375 z m 0,0"
       style="fill:#000000;fill-opacity:1;fill-rule:nonzero;stroke:none"
       aria-label="C"
       transform="matrix(1.3333333,0,0,1.3333333,189.15733,57.941333)" />
  </g>
</svg>
