<?xml version="1.0" encoding="UTF-8" standalone="no"?>
<!-- Created with Inkscape (http://www.inkscape.org/) -->

<svg
   version="1.1"
   id="svg1"
   width="273.98666"
   height="166.93333"
   viewBox="0 0 273.98666 166.93333"
   sodipodi:docname="upload_t4uc6hy74lsazh3a37etwzgdtx.pdf"
   xmlns:inkscape="http://www.inkscape.org/namespaces/inkscape"
   xmlns:sodipodi="http://sodipodi.sourceforge.net/DTD/sodipodi-0.dtd"
   xmlns="http://www.w3.org/2000/svg"
   xmlns:svg="http://www.w3.org/2000/svg">
  <defs
     id="defs1">
    <clipPath
       clipPathUnits="userSpaceOnUse"
       id="clipPath2">
      <path
         d="M 0,0 V 85.04042 H 141.73404 V 0 Z m 113.38722,42.5202 c 0,23.48355 -19.03665,42.5202 -42.52022,42.5202 -23.48355,0 -42.5202,-19.03665 -42.5202,-42.5202 C 28.3468,19.03664 47.38345,0 70.867,0 c 23.48357,0 42.52022,19.03664 42.52022,42.5202 z"
         id="path2" />
    </clipPath>
    <clipPath
       clipPathUnits="userSpaceOnUse"
       id="clipPath4">
      <path
         d="M 0,0 V 85.04042 H 141.73404 V 0 Z m 113.38722,42.5202 c 0,23.48355 -19.03665,42.5202 -42.52022,42.5202 -23.48355,0 -42.5202,-19.03665 -42.5202,-42.5202 C 28.3468,19.03664 47.38345,0 70.867,0 c 23.48357,0 42.52022,19.03664 42.52022,42.5202 z"
         id="path4" />
    </clipPath>
    <clipPath
       clipPathUnits="userSpaceOnUse"
       id="clipPath6">
      <path
         d="M 0,0 V 85.04042 H 141.73404 V 0 Z m 113.38722,42.5202 c 0,23.48355 -19.03665,42.5202 -42.52022,42.5202 -23.48355,0 -42.5202,-19.03665 -42.5202,-42.5202 C 28.3468,19.03664 47.38345,0 70.867,0 c 23.48357,0 42.52022,19.03664 42.52022,42.5202 z"
         id="path6" />
    </clipPath>
    <clipPath
       clipPathUnits="userSpaceOnUse"
       id="clipPath8">
      <path
         d="M 0,0 V 85.04042 H 141.73404 V 0 Z m 113.38722,42.5202 c 0,23.48355 -19.03665,42.5202 -42.52022,42.5202 -23.48355,0 -42.5202,-19.03665 -42.5202,-42.5202 C 28.3468,19.03664 47.38345,0 70.867,0 c 23.48357,0 42.52022,19.03664 42.52022,42.5202 z"
         id="path8" />
    </clipPath>
    <clipPath
       clipPathUnits="userSpaceOnUse"
       id="clipPath10">
      <path
         d="M 0,0 V 85.04042 H 141.73404 V 0 Z m 113.38722,42.5202 c 0,23.48355 -19.03665,42.5202 -42.52022,42.5202 -23.48355,0 -42.5202,-19.03665 -42.5202,-42.5202 C 28.3468,19.03664 47.38345,0 70.867,0 c 23.48357,0 42.52022,19.03664 42.52022,42.5202 z"
         id="path10" />
    </clipPath>
    <clipPath
       clipPathUnits="userSpaceOnUse"
       id="clipPath12">
      <path
         d="M 0,0 V 85.04042 H 141.73404 V 0 Z m 113.38722,42.5202 c 0,23.48355 -19.03665,42.5202 -42.52022,42.5202 -23.48355,0 -42.5202,-19.03665 -42.5202,-42.5202 C 28.3468,19.03664 47.38345,0 70.867,0 c 23.48357,0 42.52022,19.03664 42.52022,42.5202 z"
         id="path12" />
    </clipPath>
    <clipPath
       clipPathUnits="userSpaceOnUse"
       id="clipPath14">
      <path
         d="M 0,0 V 85.04042 H 141.73404 V 0 Z m 113.38722,42.5202 c 0,23.48355 -19.03665,42.5202 -42.52022,42.5202 -23.48355,0 -42.5202,-19.03665 -42.5202,-42.5202 C 28.3468,19.03664 47.38345,0 70.867,0 c 23.48357,0 42.52022,19.03664 42.52022,42.5202 z"
         id="path14" />
    </clipPath>
    <clipPath
       clipPathUnits="userSpaceOnUse"
       id="clipPath16">
      <path
         d="M 0,0 V 85.04042 H 141.73404 V 0 Z m 113.38722,42.5202 c 0,23.48355 -19.03665,42.5202 -42.52022,42.5202 -23.48355,0 -42.5202,-19.03665 -42.5202,-42.5202 C 28.3468,19.03664 47.38345,0 70.867,0 c 23.48357,0 42.52022,19.03664 42.52022,42.5202 z"
         id="path16" />
    </clipPath>
    <clipPath
       clipPathUnits="userSpaceOnUse"
       id="clipPath18">
      <path
         d="M 0,0 V 85.04042 H 141.73404 V 0 Z m 113.38722,42.5202 c 0,23.48355 -19.03665,42.5202 -42.52022,42.5202 -23.48355,0 -42.5202,-19.03665 -42.5202,-42.5202 C 28.3468,19.03664 47.38345,0 70.867,0 c 23.48357,0 42.52022,19.03664 42.52022,42.5202 z"
         id="path18" />
    </clipPath>
    <clipPath
       clipPathUnits="userSpaceOnUse"
       id="clipPath20">
      <path
         d="M 0,0 V 85.04042 H 141.73404 V 0 Z m 113.38722,42.5202 c 0,23.48355 -19.03665,42.5202 -42.52022,42.5202 -23.48355,0 -42.5202,-19.03665 -42.5202,-42.5202 C 28.3468,19.03664 47.38345,0 70.867,0 c 23.48357,0 42.52022,19.03664 42.52022,42.5202 z"
         id="path20" />
    </clipPath>
    <clipPath
       clipPathUnits="userSpaceOnUse"
       id="clipPath22">
      <path
         d="M 0,0 V 85.04042 H 141.73404 V 0 Z m 113.38722,42.5202 c 0,23.48355 -19.03665,42.5202 -42.52022,42.5202 -23.48355,0 -42.5202,-19.03665 -42.5202,-42.5202 C 28.3468,19.03664 47.38345,0 70.867,0 c 23.48357,0 42.52022,19.03664 42.52022,42.5202 z"
         id="path22" />
    </clipPath>
    <clipPath
       clipPathUnits="userSpaceOnUse"
       id="clipPath24">
      <path
         d="M 0,0 V 85.04042 H 141.73404 V 0 Z m 113.38722,42.5202 c 0,23.48355 -19.03665,42.5202 -42.52022,42.5202 -23.48355,0 -42.5202,-19.03665 -42.5202,-42.5202 C 28.3468,19.03664 47.38345,0 70.867,0 c 23.48357,0 42.52022,19.03664 42.52022,42.5202 z"
         id="path24" />
    </clipPath>
    <clipPath
       clipPathUnits="userSpaceOnUse"
       id="clipPath26">
      <path
         d="M 0,0 V 85.04042 H 141.73404 V 0 Z m 113.38722,42.5202 c 0,23.48355 -19.03665,42.5202 -42.52022,42.5202 -23.48355,0 -42.5202,-19.03665 -42.5202,-42.5202 C 28.3468,19.03664 47.38345,0 70.867,0 c 23.48357,0 42.52022,19.03664 42.52022,42.5202 z"
         id="path26" />
    </clipPath>
    <clipPath
       clipPathUnits="userSpaceOnUse"
       id="clipPath28">
      <path
         d="M 0,0 V 85.04042 H 141.73404 V 0 Z m 113.38722,42.5202 c 0,23.48355 -19.03665,42.5202 -42.52022,42.5202 -23.48355,0 -42.5202,-19.03665 -42.5202,-42.5202 C 28.3468,19.03664 47.38345,0 70.867,0 c 23.48357,0 42.52022,19.03664 42.52022,42.5202 z"
         id="path28" />
    </clipPath>
    <clipPath
       clipPathUnits="userSpaceOnUse"
       id="clipPath30">
      <path
         d="M 0,0 V 85.04042 H 141.73404 V 0 Z m 113.38722,42.5202 c 0,23.48355 -19.03665,42.5202 -42.52022,42.5202 -23.48355,0 -42.5202,-19.03665 -42.5202,-42.5202 C 28.3468,19.03664 47.38345,0 70.867,0 c 23.48357,0 42.52022,19.03664 42.52022,42.5202 z"
         id="path30" />
    </clipPath>
    <clipPath
       clipPathUnits="userSpaceOnUse"
       id="clipPath32">
      <path
         d="M 0,0 V 85.04042 H 141.73404 V 0 Z m 113.38722,42.5202 c 0,23.48355 -19.03665,42.5202 -42.52022,42.5202 -23.48355,0 -42.5202,-19.03665 -42.5202,-42.5202 C 28.3468,19.03664 47.38345,0 70.867,0 c 23.48357,0 42.52022,19.03664 42.52022,42.5202 z"
         id="path32" />
    </clipPath>
    <clipPath
       clipPathUnits="userSpaceOnUse"
       id="clipPath34">
      <path
         d="M 0,0 V 85.04042 H 141.73404 V 0 Z m 113.38722,42.5202 c 0,23.48355 -19.03665,42.5202 -42.52022,42.5202 -23.48355,0 -42.5202,-19.03665 -42.5202,-42.5202 C 28.3468,19.03664 47.38345,0 70.867,0 c 23.48357,0 42.52022,19.03664 42.52022,42.5202 z"
         id="path34" />
    </clipPath>
    <clipPath
       clipPathUnits="userSpaceOnUse"
       id="clipPath36">
      <path
         d="M 0,0 V 85.04042 H 141.73404 V 0 Z m 113.38722,42.5202 c 0,23.48355 -19.03665,42.5202 -42.52022,42.5202 -23.48355,0 -42.5202,-19.03665 -42.5202,-42.5202 C 28.3468,19.03664 47.38345,0 70.867,0 c 23.48357,0 42.52022,19.03664 42.52022,42.5202 z"
         id="path36" />
    </clipPath>
    <clipPath
       clipPathUnits="userSpaceOnUse"
       id="clipPath38">
      <path
         d="M 0,0 V 85.04042 H 141.73404 V 0 Z m 113.38722,42.5202 c 0,23.48355 -19.03665,42.5202 -42.52022,42.5202 -23.48355,0 -42.5202,-19.03665 -42.5202,-42.5202 C 28.3468,19.03664 47.38345,0 70.867,0 c 23.48357,0 42.52022,19.03664 42.52022,42.5202 z"
         id="path38" />
    </clipPath>
    <clipPath
       clipPathUnits="userSpaceOnUse"
       id="clipPath40">
      <path
         d="M 0,0 V 85.04042 H 141.73404 V 0 Z m 113.38722,42.5202 c 0,23.48355 -19.03665,42.5202 -42.52022,42.5202 -23.48355,0 -42.5202,-19.03665 -42.5202,-42.5202 C 28.3468,19.03664 47.38345,0 70.867,0 c 23.48357,0 42.52022,19.03664 42.52022,42.5202 z"
         id="path40" />
    </clipPath>
    <clipPath
       clipPathUnits="userSpaceOnUse"
       id="clipPath42">
      <path
         d="M 0,0 V 85.04042 H 141.73404 V 0 Z m 113.38722,42.5202 c 0,23.48355 -19.03665,42.5202 -42.52022,42.5202 -23.48355,0 -42.5202,-19.03665 -42.5202,-42.5202 C 28.3468,19.03664 47.38345,0 70.867,0 c 23.48357,0 42.52022,19.03664 42.52022,42.5202 z"
         id="path42" />
    </clipPath>
    <clipPath
       clipPathUnits="userSpaceOnUse"
       id="clipPath44">
      <path
         d="M 0,0 V 85.04042 H 141.73404 V 0 Z m 113.38722,42.5202 c 0,23.48355 -19.03665,42.5202 -42.52022,42.5202 -23.48355,0 -42.5202,-19.03665 -42.5202,-42.5202 C 28.3468,19.03664 47.38345,0 70.867,0 c 23.48357,0 42.52022,19.03664 42.52022,42.5202 z"
         id="path44" />
    </clipPath>
    <clipPath
       clipPathUnits="userSpaceOnUse"
       id="clipPath46">
      <path
         d="M 0,0 V 85.04042 H 141.73404 V 0 Z m 113.38722,42.5202 c 0,23.48355 -19.03665,42.5202 -42.52022,42.5202 -23.48355,0 -42.5202,-19.03665 -42.5202,-42.5202 C 28.3468,19.03664 47.38345,0 70.867,0 c 23.48357,0 42.52022,19.03664 42.52022,42.5202 z"
         id="path46" />
    </clipPath>
    <clipPath
       clipPathUnits="userSpaceOnUse"
       id="clipPath48">
      <path
         d="M 0,0 V 85.04042 H 141.73404 V 0 Z m 113.38722,42.5202 c 0,23.48355 -19.03665,42.5202 -42.52022,42.5202 -23.48355,0 -42.5202,-19.03665 -42.5202,-42.5202 C 28.3468,19.03664 47.38345,0 70.867,0 c 23.48357,0 42.52022,19.03664 42.52022,42.5202 z"
         id="path48" />
    </clipPath>
    <clipPath
       clipPathUnits="userSpaceOnUse"
       id="clipPath50">
      <path
         d="M 0,0 V 85.04042 H 141.73404 V 0 Z m 113.38722,42.5202 c 0,23.48355 -19.03665,42.5202 -42.52022,42.5202 -23.48355,0 -42.5202,-19.03665 -42.5202,-42.5202 C 28.3468,19.03664 47.38345,0 70.867,0 c 23.48357,0 42.52022,19.03664 42.52022,42.5202 z"
         id="path50" />
    </clipPath>
    <clipPath
       clipPathUnits="userSpaceOnUse"
       id="clipPath52">
      <path
         d="M 0,0 V 85.04042 H 141.73404 V 0 Z m 113.38722,42.5202 c 0,23.48355 -19.03665,42.5202 -42.52022,42.5202 -23.48355,0 -42.5202,-19.03665 -42.5202,-42.5202 C 28.3468,19.03664 47.38345,0 70.867,0 c 23.48357,0 42.52022,19.03664 42.52022,42.5202 z"
         id="path52" />
    </clipPath>
    <clipPath
       clipPathUnits="userSpaceOnUse"
       id="clipPath54">
      <path
         d="M 0,0 V 85.04042 H 141.73404 V 0 Z m 113.38722,42.5202 c 0,23.48355 -19.03665,42.5202 -42.52022,42.5202 -23.48355,0 -42.5202,-19.03665 -42.5202,-42.5202 C 28.3468,19.03664 47.38345,0 70.867,0 c 23.48357,0 42.52022,19.03664 42.52022,42.5202 z"
         id="path54" />
    </clipPath>
    <clipPath
       clipPathUnits="userSpaceOnUse"
       id="clipPath56">
      <path
         d="M 0,0 V 85.04042 H 141.73404 V 0 Z m 113.38722,42.5202 c 0,23.48355 -19.03665,42.5202 -42.52022,42.5202 -23.48355,0 -42.5202,-19.03665 -42.5202,-42.5202 C 28.3468,19.03664 47.38345,0 70.867,0 c 23.48357,0 42.52022,19.03664 42.52022,42.5202 z"
         id="path56" />
    </clipPath>
    <clipPath
       clipPathUnits="userSpaceOnUse"
       id="clipPath58">
      <path
         d="M 0,0 V 85.04042 H 141.73404 V 0 Z m 113.38722,42.5202 c 0,23.48355 -19.03665,42.5202 -42.52022,42.5202 -23.48355,0 -42.5202,-19.03665 -42.5202,-42.5202 C 28.3468,19.03664 47.38345,0 70.867,0 c 23.48357,0 42.52022,19.03664 42.52022,42.5202 z"
         id="path58" />
    </clipPath>
    <clipPath
       clipPathUnits="userSpaceOnUse"
       id="clipPath60">
      <path
         d="M 0,0 V 85.04042 H 141.73404 V 0 Z m 113.38722,42.5202 c 0,23.48355 -19.03665,42.5202 -42.52022,42.5202 -23.48355,0 -42.5202,-19.03665 -42.5202,-42.5202 C 28.3468,19.03664 47.38345,0 70.867,0 c 23.48357,0 42.52022,19.03664 42.52022,42.5202 z"
         id="path60" />
    </clipPath>
    <clipPath
       clipPathUnits="userSpaceOnUse"
       id="clipPath62">
      <path
         d="M 0,0 V 85.04042 H 141.73404 V 0 Z m 113.38722,42.5202 c 0,23.48355 -19.03665,42.5202 -42.52022,42.5202 -23.48355,0 -42.5202,-19.03665 -42.5202,-42.5202 C 28.3468,19.03664 47.38345,0 70.867,0 c 23.48357,0 42.52022,19.03664 42.52022,42.5202 z"
         id="path62" />
    </clipPath>
    <clipPath
       clipPathUnits="userSpaceOnUse"
       id="clipPath64">
      <path
         d="M 0,0 V 85.04042 H 141.73404 V 0 Z m 113.38722,42.5202 c 0,23.48355 -19.03665,42.5202 -42.52022,42.5202 -23.48355,0 -42.5202,-19.03665 -42.5202,-42.5202 C 28.3468,19.03664 47.38345,0 70.867,0 c 23.48357,0 42.52022,19.03664 42.52022,42.5202 z"
         id="path64" />
    </clipPath>
    <clipPath
       clipPathUnits="userSpaceOnUse"
       id="clipPath66">
      <path
         d="M 0,0 V 85.04042 H 141.73404 V 0 Z m 113.38722,42.5202 c 0,23.48355 -19.03665,42.5202 -42.52022,42.5202 -23.48355,0 -42.5202,-19.03665 -42.5202,-42.5202 C 28.3468,19.03664 47.38345,0 70.867,0 c 23.48357,0 42.52022,19.03664 42.52022,42.5202 z"
         id="path66" />
    </clipPath>
    <clipPath
       clipPathUnits="userSpaceOnUse"
       id="clipPath68">
      <path
         d="M 0,0 V 85.04042 H 141.73404 V 0 Z m 113.38722,42.5202 c 0,23.48355 -19.03665,42.5202 -42.52022,42.5202 -23.48355,0 -42.5202,-19.03665 -42.5202,-42.5202 C 28.3468,19.03664 47.38345,0 70.867,0 c 23.48357,0 42.52022,19.03664 42.52022,42.5202 z"
         id="path68" />
    </clipPath>
    <clipPath
       clipPathUnits="userSpaceOnUse"
       id="clipPath70">
      <path
         d="M 0,0 V 85.04042 H 141.73404 V 0 Z m 113.38722,42.5202 c 0,23.48355 -19.03665,42.5202 -42.52022,42.5202 -23.48355,0 -42.5202,-19.03665 -42.5202,-42.5202 C 28.3468,19.03664 47.38345,0 70.867,0 c 23.48357,0 42.52022,19.03664 42.52022,42.5202 z"
         id="path70" />
    </clipPath>
    <clipPath
       clipPathUnits="userSpaceOnUse"
       id="clipPath72">
      <path
         d="M 0,0 V 85.04042 H 141.73404 V 0 Z m 113.38722,42.5202 c 0,23.48355 -19.03665,42.5202 -42.52022,42.5202 -23.48355,0 -42.5202,-19.03665 -42.5202,-42.5202 C 28.3468,19.03664 47.38345,0 70.867,0 c 23.48357,0 42.52022,19.03664 42.52022,42.5202 z"
         id="path72" />
    </clipPath>
    <clipPath
       clipPathUnits="userSpaceOnUse"
       id="clipPath74">
      <path
         d="M 0,0 V 85.04042 H 141.73404 V 0 Z m 113.38722,42.5202 c 0,23.48355 -19.03665,42.5202 -42.52022,42.5202 -23.48355,0 -42.5202,-19.03665 -42.5202,-42.5202 C 28.3468,19.03664 47.38345,0 70.867,0 c 23.48357,0 42.52022,19.03664 42.52022,42.5202 z"
         id="path74" />
    </clipPath>
  </defs>
  <sodipodi:namedview
     id="namedview1"
     pagecolor="#ffffff"
     bordercolor="#000000"
     borderopacity="0.25"
     inkscape:showpageshadow="2"
     inkscape:pageopacity="0.0"
     inkscape:pagecheckerboard="0"
     inkscape:deskcolor="#d1d1d1">
    <inkscape:page
       x="0"
       y="0"
       inkscape:label="1"
       id="page1"
       width="273.98666"
       height="166.93333"
       margin="0"
       bleed="0" />
  </sodipodi:namedview>
  <g
     id="g1"
     inkscape:groupmode="layer"
     inkscape:label="1">
    <path
       id="path1"
       d="M -85.04042,0 0,85.04042"
       style="fill:none;stroke:#000000;stroke-width:0.3985;stroke-linecap:butt;stroke-linejoin:miter;stroke-miterlimit:10;stroke-dasharray:none;stroke-opacity:1"
       transform="matrix(1.3333333,0,0,-1.3333333,59.650667,138.804)"
       clip-path="url(#clipPath2)" />
    <path
       id="path3"
       d="M -76.53629,0 8.50412,85.04042"
       style="fill:none;stroke:#000000;stroke-width:0.3985;stroke-linecap:butt;stroke-linejoin:miter;stroke-miterlimit:10;stroke-dasharray:none;stroke-opacity:1"
       transform="matrix(1.3333333,0,0,-1.3333333,59.650667,138.804)"
       clip-path="url(#clipPath4)" />
    <path
       id="path5"
       d="M -68.03217,0 17.00824,85.04042"
       style="fill:none;stroke:#000000;stroke-width:0.3985;stroke-linecap:butt;stroke-linejoin:miter;stroke-miterlimit:10;stroke-dasharray:none;stroke-opacity:1"
       transform="matrix(1.3333333,0,0,-1.3333333,59.650667,138.804)"
       clip-path="url(#clipPath6)" />
    <path
       id="path7"
       d="M -59.52802,0 25.51237,85.04042"
       style="fill:none;stroke:#000000;stroke-width:0.3985;stroke-linecap:butt;stroke-linejoin:miter;stroke-miterlimit:10;stroke-dasharray:none;stroke-opacity:1"
       transform="matrix(1.3333333,0,0,-1.3333333,59.650667,138.804)"
       clip-path="url(#clipPath8)" />
    <path
       id="path9"
       d="M -51.0239,0 34.0165,85.04042"
       style="fill:none;stroke:#000000;stroke-width:0.3985;stroke-linecap:butt;stroke-linejoin:miter;stroke-miterlimit:10;stroke-dasharray:none;stroke-opacity:1"
       transform="matrix(1.3333333,0,0,-1.3333333,59.650667,138.804)"
       clip-path="url(#clipPath10)" />
    <path
       id="path11"
       d="M -42.51978,0 42.52063,85.04042"
       style="fill:none;stroke:#000000;stroke-width:0.3985;stroke-linecap:butt;stroke-linejoin:miter;stroke-miterlimit:10;stroke-dasharray:none;stroke-opacity:1"
       transform="matrix(1.3333333,0,0,-1.3333333,59.650667,138.804)"
       clip-path="url(#clipPath12)" />
    <path
       id="path13"
       d="M -34.01564,0 51.02477,85.04042"
       style="fill:none;stroke:#000000;stroke-width:0.3985;stroke-linecap:butt;stroke-linejoin:miter;stroke-miterlimit:10;stroke-dasharray:none;stroke-opacity:1"
       transform="matrix(1.3333333,0,0,-1.3333333,59.650667,138.804)"
       clip-path="url(#clipPath14)" />
    <path
       id="path15"
       d="M -25.5115,0 59.52888,85.04042"
       style="fill:none;stroke:#000000;stroke-width:0.3985;stroke-linecap:butt;stroke-linejoin:miter;stroke-miterlimit:10;stroke-dasharray:none;stroke-opacity:1"
       transform="matrix(1.3333333,0,0,-1.3333333,59.650667,138.804)"
       clip-path="url(#clipPath16)" />
    <path
       id="path17"
       d="M -17.00737,0 68.03302,85.04042"
       style="fill:none;stroke:#000000;stroke-width:0.3985;stroke-linecap:butt;stroke-linejoin:miter;stroke-miterlimit:10;stroke-dasharray:none;stroke-opacity:1"
       transform="matrix(1.3333333,0,0,-1.3333333,59.650667,138.804)"
       clip-path="url(#clipPath18)" />
    <path
       id="path19"
       d="M -8.50325,0 76.53716,85.04042"
       style="fill:none;stroke:#000000;stroke-width:0.3985;stroke-linecap:butt;stroke-linejoin:miter;stroke-miterlimit:10;stroke-dasharray:none;stroke-opacity:1"
       transform="matrix(1.3333333,0,0,-1.3333333,59.650667,138.804)"
       clip-path="url(#clipPath20)" />
    <path
       id="path21"
       d="M 8.4e-4,0 85.04128,85.04042"
       style="fill:none;stroke:#000000;stroke-width:0.3985;stroke-linecap:butt;stroke-linejoin:miter;stroke-miterlimit:10;stroke-dasharray:none;stroke-opacity:1"
       transform="matrix(1.3333333,0,0,-1.3333333,59.650667,138.804)"
       clip-path="url(#clipPath22)" />
    <path
       id="path23"
       d="M 8.50499,0 93.54541,85.04042"
       style="fill:none;stroke:#000000;stroke-width:0.3985;stroke-linecap:butt;stroke-linejoin:miter;stroke-miterlimit:10;stroke-dasharray:none;stroke-opacity:1"
       transform="matrix(1.3333333,0,0,-1.3333333,59.650667,138.804)"
       clip-path="url(#clipPath24)" />
    <path
       id="path25"
       d="m 17.00911,0 85.04042,85.04042"
       style="fill:none;stroke:#000000;stroke-width:0.3985;stroke-linecap:butt;stroke-linejoin:miter;stroke-miterlimit:10;stroke-dasharray:none;stroke-opacity:1"
       transform="matrix(1.3333333,0,0,-1.3333333,59.650667,138.804)"
       clip-path="url(#clipPath26)" />
    <path
       id="path27"
       d="m 25.51324,0 85.04044,85.04042"
       style="fill:none;stroke:#000000;stroke-width:0.3985;stroke-linecap:butt;stroke-linejoin:miter;stroke-miterlimit:10;stroke-dasharray:none;stroke-opacity:1"
       transform="matrix(1.3333333,0,0,-1.3333333,59.650667,138.804)"
       clip-path="url(#clipPath28)" />
    <path
       id="path29"
       d="M 34.01736,0 119.0578,85.04042"
       style="fill:none;stroke:#000000;stroke-width:0.3985;stroke-linecap:butt;stroke-linejoin:miter;stroke-miterlimit:10;stroke-dasharray:none;stroke-opacity:1"
       transform="matrix(1.3333333,0,0,-1.3333333,59.650667,138.804)"
       clip-path="url(#clipPath30)" />
    <path
       id="path31"
       d="m 42.52148,0 85.04044,85.04042"
       style="fill:none;stroke:#000000;stroke-width:0.3985;stroke-linecap:butt;stroke-linejoin:miter;stroke-miterlimit:10;stroke-dasharray:none;stroke-opacity:1"
       transform="matrix(1.3333333,0,0,-1.3333333,59.650667,138.804)"
       clip-path="url(#clipPath32)" />
    <path
       id="path33"
       d="m 51.02563,0 85.04043,85.04042"
       style="fill:none;stroke:#000000;stroke-width:0.3985;stroke-linecap:butt;stroke-linejoin:miter;stroke-miterlimit:10;stroke-dasharray:none;stroke-opacity:1"
       transform="matrix(1.3333333,0,0,-1.3333333,59.650667,138.804)"
       clip-path="url(#clipPath34)" />
    <path
       id="path35"
       d="m 59.52975,0 85.04044,85.04042"
       style="fill:none;stroke:#000000;stroke-width:0.3985;stroke-linecap:butt;stroke-linejoin:miter;stroke-miterlimit:10;stroke-dasharray:none;stroke-opacity:1"
       transform="matrix(1.3333333,0,0,-1.3333333,59.650667,138.804)"
       clip-path="url(#clipPath36)" />
    <path
       id="path37"
       d="m 68.03389,0 85.04044,85.04042"
       style="fill:none;stroke:#000000;stroke-width:0.3985;stroke-linecap:butt;stroke-linejoin:miter;stroke-miterlimit:10;stroke-dasharray:none;stroke-opacity:1"
       transform="matrix(1.3333333,0,0,-1.3333333,59.650667,138.804)"
       clip-path="url(#clipPath38)" />
    <path
       id="path39"
       d="m 76.53801,0 85.04044,85.04042"
       style="fill:none;stroke:#000000;stroke-width:0.3985;stroke-linecap:butt;stroke-linejoin:miter;stroke-miterlimit:10;stroke-dasharray:none;stroke-opacity:1"
       transform="matrix(1.3333333,0,0,-1.3333333,59.650667,138.804)"
       clip-path="url(#clipPath40)" />
    <path
       id="path41"
       d="m 85.04214,0 85.04043,85.04042"
       style="fill:none;stroke:#000000;stroke-width:0.3985;stroke-linecap:butt;stroke-linejoin:miter;stroke-miterlimit:10;stroke-dasharray:none;stroke-opacity:1"
       transform="matrix(1.3333333,0,0,-1.3333333,59.650667,138.804)"
       clip-path="url(#clipPath42)" />
    <path
       id="path43"
       d="M 93.54628,0 178.5867,85.04042"
       style="fill:none;stroke:#000000;stroke-width:0.3985;stroke-linecap:butt;stroke-linejoin:miter;stroke-miterlimit:10;stroke-dasharray:none;stroke-opacity:1"
       transform="matrix(1.3333333,0,0,-1.3333333,59.650667,138.804)"
       clip-path="url(#clipPath44)" />
    <path
       id="path45"
       d="m 102.0504,0 85.04044,85.04042"
       style="fill:none;stroke:#000000;stroke-width:0.3985;stroke-linecap:butt;stroke-linejoin:miter;stroke-miterlimit:10;stroke-dasharray:none;stroke-opacity:1"
       transform="matrix(1.3333333,0,0,-1.3333333,59.650667,138.804)"
       clip-path="url(#clipPath46)" />
    <path
       id="path47"
       d="m 110.55452,0 85.04044,85.04042"
       style="fill:none;stroke:#000000;stroke-width:0.3985;stroke-linecap:butt;stroke-linejoin:miter;stroke-miterlimit:10;stroke-dasharray:none;stroke-opacity:1"
       transform="matrix(1.3333333,0,0,-1.3333333,59.650667,138.804)"
       clip-path="url(#clipPath48)" />
    <path
       id="path49"
       d="m 119.05867,0 85.04042,85.04042"
       style="fill:none;stroke:#000000;stroke-width:0.3985;stroke-linecap:butt;stroke-linejoin:miter;stroke-miterlimit:10;stroke-dasharray:none;stroke-opacity:1"
       transform="matrix(1.3333333,0,0,-1.3333333,59.650667,138.804)"
       clip-path="url(#clipPath50)" />
    <path
       id="path51"
       d="m 127.56279,0 85.04042,85.04042"
       style="fill:none;stroke:#000000;stroke-width:0.3985;stroke-linecap:butt;stroke-linejoin:miter;stroke-miterlimit:10;stroke-dasharray:none;stroke-opacity:1"
       transform="matrix(1.3333333,0,0,-1.3333333,59.650667,138.804)"
       clip-path="url(#clipPath52)" />
    <path
       id="path53"
       d="m 136.06693,0 85.04043,85.04042"
       style="fill:none;stroke:#000000;stroke-width:0.3985;stroke-linecap:butt;stroke-linejoin:miter;stroke-miterlimit:10;stroke-dasharray:none;stroke-opacity:1"
       transform="matrix(1.3333333,0,0,-1.3333333,59.650667,138.804)"
       clip-path="url(#clipPath54)" />
    <path
       id="path55"
       d="m 144.57104,0 85.04044,85.04042"
       style="fill:none;stroke:#000000;stroke-width:0.3985;stroke-linecap:butt;stroke-linejoin:miter;stroke-miterlimit:10;stroke-dasharray:none;stroke-opacity:1"
       transform="matrix(1.3333333,0,0,-1.3333333,59.650667,138.804)"
       clip-path="url(#clipPath56)" />
    <path
       id="path57"
       d="M 153.07518,0 238.1156,85.04042"
       style="fill:none;stroke:#000000;stroke-width:0.3985;stroke-linecap:butt;stroke-linejoin:miter;stroke-miterlimit:10;stroke-dasharray:none;stroke-opacity:1"
       transform="matrix(1.3333333,0,0,-1.3333333,59.650667,138.804)"
       clip-path="url(#clipPath58)" />
    <path
       id="path59"
       d="m 161.57932,0 85.04042,85.04042"
       style="fill:none;stroke:#000000;stroke-width:0.3985;stroke-linecap:butt;stroke-linejoin:miter;stroke-miterlimit:10;stroke-dasharray:none;stroke-opacity:1"
       transform="matrix(1.3333333,0,0,-1.3333333,59.650667,138.804)"
       clip-path="url(#clipPath60)" />
    <path
       id="path61"
       d="m 170.08344,0 85.04043,85.04042"
       style="fill:none;stroke:#000000;stroke-width:0.3985;stroke-linecap:butt;stroke-linejoin:miter;stroke-miterlimit:10;stroke-dasharray:none;stroke-opacity:1"
       transform="matrix(1.3333333,0,0,-1.3333333,59.650667,138.804)"
       clip-path="url(#clipPath62)" />
    <path
       id="path63"
       d="M 178.58757,0 263.628,85.04042"
       style="fill:none;stroke:#000000;stroke-width:0.3985;stroke-linecap:butt;stroke-linejoin:miter;stroke-miterlimit:10;stroke-dasharray:none;stroke-opacity:1"
       transform="matrix(1.3333333,0,0,-1.3333333,59.650667,138.804)"
       clip-path="url(#clipPath64)" />
    <path
       id="path65"
       d="m 187.0917,0 85.04043,85.04042"
       style="fill:none;stroke:#000000;stroke-width:0.3985;stroke-linecap:butt;stroke-linejoin:miter;stroke-miterlimit:10;stroke-dasharray:none;stroke-opacity:1"
       transform="matrix(1.3333333,0,0,-1.3333333,59.650667,138.804)"
       clip-path="url(#clipPath66)" />
    <path
       id="path67"
       d="m 195.59583,0 85.04042,85.04042"
       style="fill:none;stroke:#000000;stroke-width:0.3985;stroke-linecap:butt;stroke-linejoin:miter;stroke-miterlimit:10;stroke-dasharray:none;stroke-opacity:1"
       transform="matrix(1.3333333,0,0,-1.3333333,59.650667,138.804)"
       clip-path="url(#clipPath68)" />
    <path
       id="path69"
       d="M 204.09996,0 289.1404,85.04042"
       style="fill:none;stroke:#000000;stroke-width:0.3985;stroke-linecap:butt;stroke-linejoin:miter;stroke-miterlimit:10;stroke-dasharray:none;stroke-opacity:1"
       transform="matrix(1.3333333,0,0,-1.3333333,59.650667,138.804)"
       clip-path="url(#clipPath70)" />
    <path
       id="path71"
       d="m 212.60408,0 85.04044,85.04042"
       style="fill:none;stroke:#000000;stroke-width:0.3985;stroke-linecap:butt;stroke-linejoin:miter;stroke-miterlimit:10;stroke-dasharray:none;stroke-opacity:1"
       transform="matrix(1.3333333,0,0,-1.3333333,59.650667,138.804)"
       clip-path="url(#clipPath72)" />
    <path
       id="path73"
       d="m 221.10822,0 85.04043,85.04042"
       style="fill:none;stroke:#000000;stroke-width:0.3985;stroke-linecap:butt;stroke-linejoin:miter;stroke-miterlimit:10;stroke-dasharray:none;stroke-opacity:1"
       transform="matrix(1.3333333,0,0,-1.3333333,59.650667,138.804)"
       clip-path="url(#clipPath74)" />
    <path
       id="path75"
       d="M 0,0 H 141.73404 V 85.04042 H 0 Z"
       style="fill:none;stroke:#000000;stroke-width:0.79701;stroke-linecap:butt;stroke-linejoin:miter;stroke-miterlimit:10;stroke-dasharray:none;stroke-opacity:1"
       transform="matrix(1.3333333,0,0,-1.3333333,59.650667,138.804)" />
    <path
       id="path76"
       d="m 113.38722,42.5202 c 0,23.48355 -19.03665,42.5202 -42.52022,42.5202 -23.48355,0 -42.5202,-19.03665 -42.5202,-42.5202 C 28.3468,19.03664 47.38345,0 70.867,0 c 23.48357,0 42.52022,19.03664 42.52022,42.5202 z"
       style="fill:none;stroke:#000000;stroke-width:0.79701;stroke-linecap:butt;stroke-linejoin:miter;stroke-miterlimit:10;stroke-dasharray:none;stroke-opacity:1"
       transform="matrix(1.3333333,0,0,-1.3333333,59.650667,138.804)" />
    <path
       id="path77"
       d="m 72.85956,42.5202 c 0,1.10047 -0.89208,1.99256 -1.99256,1.99256 -1.10046,0 -1.99255,-0.89209 -1.99255,-1.99256 0,-1.10048 0.89209,-1.99255 1.99255,-1.99255 1.10048,0 1.99256,0.89207 1.99256,1.99255 z"
       style="fill:#000000;fill-opacity:1;fill-rule:nonzero;stroke:none"
       transform="matrix(1.3333333,0,0,-1.3333333,59.650667,138.804)" />
    <path
       id="path78"
       d="M 7.1377891,-1.40625e-4 V -0.30482813 H 6.9620078 c -0.5976562,0 -0.7382812,-0.0703125 -0.84375,-0.3984375 l -2.15625,-6.23437497 c -0.046875,-0.1289063 -0.070312,-0.1992188 -0.2226562,-0.1992188 -0.1640625,0 -0.1875,0.058594 -0.2460938,0.1992188 l -2.0625,5.96484372 c -0.1757812,0.50390625 -0.57421874,0.65625 -1.11328124,0.66796875 V -1.40625e-4 L 1.3370078,-0.03529688 2.4854453,-1.40625e-4 V -0.30482813 c -0.5039062,0 -0.75,-0.2578125 -0.75,-0.515625 0,-0.0234375 0.011719,-0.12890625 0.023437,-0.140625 L 2.2159141,-2.2735781 h 2.4609375 l 0.5273437,1.52343747 c 0.011719,0.046875 0.023437,0.10546875 0.023437,0.140625 0,0.3046875 -0.5507812,0.3046875 -0.8203125,0.3046875 V -1.40625e-4 C 4.7588828,-0.03529688 5.4620078,-0.03529688 5.8370078,-0.03529688 Z M 4.5596641,-2.5782656 H 2.3213828 l 1.1132813,-3.234375 z m 0,0"
       style="fill:#000000;fill-opacity:1;fill-rule:nonzero;stroke:none"
       aria-label="A"
       transform="matrix(1.3333333,0,0,1.3333333,44.994667,153.008)" />
    <path
       id="path79"
       d="m 6.4816328,-1.8273906 c 0,-0.8671875 -0.8085937,-1.6054688 -1.921875,-1.7226563 0.9726563,-0.1992187 1.6523438,-0.8320312 1.6523438,-1.5703125 0,-0.8671875 -0.9140625,-1.6875 -2.203125,-1.6875 H 0.36444531 v 0.3164063 h 0.234375 c 0.76171879,0 0.78515629,0.1054687 0.78515629,0.46875 v 5.24999998 c 0,0.3515625 -0.023437,0.46875 -0.78515629,0.46875 h -0.234375 V 7.34375e-4 H 4.2667891 c 1.3242187,0 2.2148437,-0.890624995 2.2148437,-1.828124975 z M 5.2511641,-5.1203594 c 0,0.6328125 -0.4921875,1.4765625 -1.59375,1.4765625 H 2.2160078 v -2.4492187 c 0,-0.328125 0.011719,-0.3984375 0.4804688,-0.3984375 h 1.2421875 c 0.9609375,0 1.3125,0.84375 1.3125,1.3710937 z m 0.234375,3.2929688 c 0,0.703125 -0.515625,1.52343748 -1.5351563,1.52343748 H 2.6964766 c -0.46875,0 -0.4804688,-0.0703125 -0.4804688,-0.3984375 V -3.4211406 h 1.875 c 0.984375,0 1.3945313,0.9257812 1.3945313,1.59375 z m 0,0"
       style="fill:#000000;fill-opacity:1;fill-rule:nonzero;stroke:none"
       aria-label="B"
       transform="matrix(1.3333333,0,0,1.3333333,253.32267,152.56933)" />
    <path
       id="path80"
       d="m 6.6222578,-2.3191172 c 0,-0.1054687 0,-0.1757812 -0.1289062,-0.1757812 -0.1054688,0 -0.1054688,0.070312 -0.1171875,0.1640625 -0.082031,1.42968746 -1.1484375,2.23828121 -2.2265625,2.23828121 -0.609375,0 -2.5664063,-0.33984375 -2.5664063,-3.30468751 0,-2.9765625 1.9453125,-3.3164062 2.5546875,-3.3164062 1.078125,0 1.96875,0.9023437 2.1679688,2.3671875 0.023437,0.1289062 0.023437,0.1640625 0.1640625,0.1640625 0.1523437,0 0.1523437,-0.035156 0.1523437,-0.234375 v -2.3671875 c 0,-0.1640625 0,-0.234375 -0.1054687,-0.234375 -0.035156,0 -0.082031,0 -0.1640625,0.1171875 l -0.4921875,0.7382812 c -0.375,-0.3632812 -0.8789063,-0.8554687 -1.8398438,-0.8554687 -1.8632812,0 -3.45703124,1.5820312 -3.45703124,3.609375 0,2.0625 1.60546874,3.63281246 3.45703124,3.63281246 1.6289063,0 2.6015625,-1.38281246 2.6015625,-2.54296876 z m 0,0"
       style="fill:#000000;fill-opacity:1;fill-rule:nonzero;stroke:none"
       aria-label="C"
       transform="matrix(1.3333333,0,0,1.3333333,253.32267,20.432)" />
    <path
       id="path81"
       d="m 7.0424141,-3.3525703 c 0,-1.8867188 -1.3476563,-3.4570313 -3.046875,-3.4570313 H 0.35100781 v 0.3164063 h 0.234375 c 0.77343749,0 0.78515629,0.1054687 0.78515629,0.46875 v 5.24999999 c 0,0.3515625 -0.011719,0.46875 -0.78515629,0.46875 h -0.234375 v 0.3046875 H 3.9955391 c 1.6757812,0 3.046875,-1.47656249 3.046875,-3.35156249 z m -0.9960938,0 c 0,1.1132812 -0.1875,1.7109375 -0.5507812,2.1914062 -0.1992188,0.26953129 -0.7617188,0.85546879 -1.7695313,0.85546879 H 2.7181953 c -0.46875,0 -0.4921875,-0.0703125 -0.4921875,-0.3984375 V -6.0947578 c 0,-0.328125 0.023437,-0.3984375 0.4921875,-0.3984375 h 0.9960938 c 0.6210937,0 1.3007812,0.2109375 1.8164062,0.9257812 0.421875,0.5859375 0.515625,1.4414063 0.515625,2.2148438 z m 0,0"
       style="fill:#000000;fill-opacity:1;fill-rule:nonzero;stroke:none"
       aria-label="D"
       transform="matrix(1.3333333,0,0,1.3333333,44.809333,20.724)" />
    <path
       id="path82"
       d="m 2.8605937,7.65625e-4 c -0.5625,0 -0.9785156,-0.120117185 -1.2421875,-0.363281255 C 1.3605937,-0.60275 1.2316875,-0.88985938 1.2316875,-1.2179844 c 0,-0.2578125 0.082031,-0.4951172 0.2460937,-0.7148437 C 1.6418437,-2.149625 1.9260234,-2.3136875 2.33325,-2.4250156 l 0.2929687,0.7617187 c -0.2109375,0.046875 -0.3632812,0.1113281 -0.4570312,0.1875 -0.087891,0.070312 -0.1289063,0.1640625 -0.1289063,0.28125 0,0.1347656 0.064453,0.24316409 0.1992188,0.32812502 0.140625,0.0791016 0.3427734,0.1171875 0.609375,0.1171875 0.4130859,0 0.7324219,-0.0966797 0.9609375,-0.29296872 0.2255859,-0.2021485 0.3398437,-0.4570313 0.3398437,-0.7617188 0,-0.1933594 -0.043945,-0.3691406 -0.1289062,-0.5273437 C 3.9416484,-2.4865391 3.8098125,-2.6506016 3.6223125,-2.8234531 3.4406719,-3.0021641 3.1887187,-3.2013828 2.8605937,-3.4211094 2.4445781,-3.7170078 2.1223125,-3.9631016 1.8879375,-4.1593906 1.6535625,-4.3615391 1.4836406,-4.5461094 1.3840312,-4.7101719 c -0.09375,-0.1699219 -0.140625,-0.3574219 -0.140625,-0.5625 0,-0.1464844 0.041016,-0.3105469 0.1289063,-0.4921875 0.09375,-0.1875 0.2226562,-0.3574219 0.3867187,-0.515625 L 2.427,-5.9406406 c -0.09375,0.102539 -0.1728516,0.2050781 -0.234375,0.3046875 -0.064453,0.102539 -0.09375,0.1992187 -0.09375,0.2929687 0,0.1259766 0.026367,0.2402344 0.082031,0.3398438 0.052734,0.102539 0.1699219,0.2285156 0.3515625,0.375 0.1875,0.149414 0.4628907,0.3515625 0.8320313,0.609375 0.3896484,0.2666015 0.6943359,0.5097656 0.9140625,0.7265625 0.2255859,0.2197265 0.3867187,0.4423828 0.4804687,0.6679687 0.099609,0.2285156 0.1523438,0.4980469 0.1523438,0.8085938 0,0.375 -0.09082,0.7001953 -0.2695313,0.97265622 C 4.468992,-0.56759375 4.2258279,-0.35665625 3.915281,-0.21017188 3.6105935,-0.06954688 3.259031,7.65625e-4 2.8605937,7.65625e-4 Z M 8.7932109,-0.90157813 c -0.421875,0 -0.796875,-0.0761719 -1.125,-0.23437497 -0.328125,-0.1640625 -0.5859375,-0.4101563 -0.7734375,-0.7382813 -0.1875,-0.328125 -0.28125,-0.7412109 -0.28125,-1.2421875 0,-0.3896484 0.076172,-0.7558594 0.234375,-1.1015625 0.1640625,-0.3515625 0.413086,-0.6357422 0.75,-0.8554687 0.3339844,-0.225586 0.7646485,-0.3398438 1.2890625,-0.3398438 0.5390625,0 0.9638672,0.1025391 1.2773441,0.3046875 0.319336,0.2050781 0.550781,0.4746094 0.691406,0.8085938 0.146484,0.336914 0.222656,0.7089843 0.222656,1.1132812 0,0.3925781 -0.08203,0.7617188 -0.246094,1.1132813 -0.164062,0.3457031 -0.416015,0.6269531 -0.75,0.84375 -0.3281246,0.2197265 -0.7587886,0.32812497 -1.2890621,0.32812497 z M 8.8986797,-4.7101719 c -0.4306641,0 -0.7851563,0.140625 -1.0664063,0.421875 -0.2753906,0.28125 -0.4101562,0.6796875 -0.4101562,1.1953125 0,0.2666016 0.041016,0.5126953 0.1289062,0.7382813 0.09375,0.2285156 0.2402344,0.4072265 0.4453125,0.5390625 0.2021485,0.1347656 0.46875,0.1992187 0.796875,0.1992187 0.4511719,0 0.8115235,-0.1435547 1.078125,-0.4335937 0.2636721,-0.2958985 0.3984371,-0.6855469 0.3984371,-1.171875 0,-0.459961 -0.114257,-0.8232422 -0.3398433,-1.0898438 -0.2285156,-0.2636719 -0.5712891,-0.3984375 -1.03125,-0.3984375 z m 9.0380863,-1.4882812 v 0.7148437 h -0.199219 c -0.210938,0.046875 -0.439453,0.1494141 -0.679688,0.3046875 -0.234375,0.1582031 -0.457031,0.3603516 -0.667968,0.609375 -0.210938,0.2431641 -0.386719,0.5332031 -0.527344,0.8671875 -0.134766,0.328125 -0.199219,0.6914063 -0.199219,1.0898438 0,0.477539 0.07031,0.8613281 0.210938,1.1484375 0.140625,0.28125 0.316406,0.48046872 0.527343,0.59765622 0.216797,0.1171875 0.433594,0.17578125 0.644532,0.17578125 0.164062,0 0.298828,-0.0146484 0.410156,-0.046875 0.117187,-0.0292969 0.249023,-0.0878906 0.398437,-0.17578125 l 0.351563,0.609375 c -0.181641,0.13476563 -0.37207,0.22851563 -0.574219,0.28125 -0.205078,0.04394532 -0.410156,0.0703125 -0.621094,0.0703125 -0.421875,0 -0.793945,-0.10839843 -1.113281,-0.328125 -0.322266,-0.21679687 -0.571289,-0.52148437 -0.75,-0.91406252 -0.181641,-0.3984375 -0.269531,-0.8613281 -0.269531,-1.3945312 0,-0.506836 0.07617,-0.9609375 0.234375,-1.359375 0.164062,-0.4042969 0.375,-0.7558594 0.632812,-1.0546875 0.263672,-0.3046875 0.550782,-0.553711 0.855469,-0.75 0.310547,-0.1933594 0.609375,-0.3427735 0.890625,-0.4453125 z m 6.788086,0 v 0.7148437 H 23.681883 V 7.65625e-4 H 22.920164 V -3.1750156 c -0.149414,-0.178711 -0.28125,-0.3164063 -0.398437,-0.4101563 -0.117188,-0.099609 -0.231446,-0.1523437 -0.339844,-0.1523437 -0.09375,0 -0.184571,0.029297 -0.269531,0.082031 -0.0791,0.055664 -0.169922,0.1582031 -0.269532,0.3046875 -0.09375,0.1494141 -0.222656,0.375 -0.386718,0.6796875 -0.181641,0.328125 -0.345704,0.5976563 -0.492188,0.8085938 -0.149414,0.2050781 -0.304687,0.3574218 -0.46875,0.4570312 -0.158203,0.09375 -0.351562,0.140625 -0.585937,0.140625 -0.266602,0 -0.521485,-0.082031 -0.761719,-0.2460937 -0.234375,-0.1699219 -0.489258,-0.4746094 -0.761719,-0.9140625 l 0.609375,-0.375 c 0.178711,0.3222656 0.328125,0.5332031 0.445313,0.6328125 0.117187,0.09375 0.246093,0.140625 0.386718,0.140625 0.140625,0 0.275391,-0.052734 0.410157,-0.1640625 0.131835,-0.1171875 0.292968,-0.3310547 0.480468,-0.6445313 -0.06445,-0.4130859 -0.134765,-0.7412109 -0.210937,-0.984375 -0.07031,-0.2402344 -0.184571,-0.4335937 -0.339844,-0.5742187 -0.164062,-0.1464844 -0.392578,-0.2607422 -0.679687,-0.3398438 -0.28125,-0.076172 -0.641602,-0.1435547 -1.078125,-0.1992187 l 0.117187,-0.5507813 h -0.597656 v -0.7148437 z m -5.824219,0.7148437 c 0.506836,0.070312 0.905273,0.1816406 1.195312,0.328125 0.28711,0.140625 0.498047,0.3398438 0.632813,0.5976563 0.131836,0.2519531 0.213867,0.5800781 0.246094,0.984375 0.164062,-0.3427735 0.322265,-0.5771485 0.480468,-0.703125 0.155274,-0.131836 0.328125,-0.1992188 0.515625,-0.1992188 0.178711,0 0.342774,0.043945 0.492188,0.1289063 0.146484,0.087891 0.307617,0.2167968 0.480469,0.3867187 -0.01758,-0.099609 -0.02344,-0.2021484 -0.02344,-0.3046875 0,-0.099609 0,-0.1992187 0,-0.2929687 v -0.9257813 z m 6.442383,4.94531252 c 0,-0.24023437 0.05859,-0.41308593 0.175781,-0.51562502 0.123047,-0.099609 0.269531,-0.1523437 0.433594,-0.1523437 0.169921,0 0.319336,0.052734 0.445312,0.1523437 0.123047,0.10253909 0.1875,0.27539065 0.1875,0.51562502 0,0.24316407 -0.06445,0.41894532 -0.1875,0.52734375 -0.125976,0.09960938 -0.275391,0.15234375 -0.445312,0.15234375 -0.164063,0 -0.310547,-0.05273437 -0.433594,-0.15234375 -0.117188,-0.10839843 -0.175781,-0.28417968 -0.175781,-0.52734375 z m 4.708007,-5.66015622 v 0.7148437 H 28.996336 V 7.65625e-4 H 28.234617 V -5.4836094 H 27.191648 V -6.1984531 H 28.11743 C 28.006102,-6.3215 27.897703,-6.4562656 27.789305,-6.5968906 c -0.111328,-0.140625 -0.208008,-0.2753907 -0.292969,-0.4101563 0.225586,-0.3984375 0.46875,-0.7558594 0.726562,-1.078125 0.257813,-0.3193359 0.5625,-0.5742187 0.914063,-0.7617187 0.351562,-0.1875 0.776367,-0.28125 1.277344,-0.28125 0.46875,0 0.914062,0.079102 1.335937,0.234375 0.421875,0.149414 0.837891,0.3603515 1.253906,0.6328125 0.421875,0.2753906 0.858399,0.6035156 1.3125,0.984375 l -0.410156,0.5390625 c -0.46289,-0.375 -0.875976,-0.6826172 -1.242187,-0.9257813 -0.369141,-0.2490234 -0.720703,-0.4335937 -1.054688,-0.5507812 -0.336914,-0.1230469 -0.697265,-0.1875 -1.078125,-0.1875 -0.547851,0 -0.990234,0.140625 -1.324219,0.421875 -0.328125,0.2753906 -0.615234,0.6328125 -0.855468,1.078125 0.05273,0.102539 0.128906,0.2109375 0.222656,0.328125 0.09375,0.1171875 0.199219,0.243164 0.316406,0.375 z m 6.19043,0 v 0.7148437 H 35.198484 V 7.65625e-4 H 34.436766 V -1.0890781 c -0.219727,-0.3105469 -0.439454,-0.5976563 -0.65625,-0.8554688 -0.219727,-0.2578125 -0.451172,-0.4628906 -0.691407,-0.6210937 -0.243164,-0.1552735 -0.503906,-0.234375 -0.785156,-0.234375 -0.251953,0 -0.462891,0.064453 -0.632812,0.1875 -0.164063,0.1259765 -0.246094,0.3164062 -0.246094,0.5742187 0,0.2197266 0.07617,0.4042969 0.234375,0.5507813 0.164062,0.149414 0.401367,0.2783203 0.714844,0.3867187 l -0.257813,0.76171877 c -0.539062,-0.19335937 -0.925781,-0.43945312 -1.160156,-0.73828127 -0.234375,-0.3046875 -0.351563,-0.6357422 -0.351563,-0.9960937 0,-0.319336 0.07617,-0.5859375 0.234375,-0.796875 0.155274,-0.2109375 0.351563,-0.3691407 0.585938,-0.4804688 0.234375,-0.1083984 0.46289,-0.1640625 0.691406,-0.1640625 -0.04687,-0.4599609 -0.208008,-0.7910156 -0.480469,-0.9960937 -0.266601,-0.2109375 -0.703125,-0.3457032 -1.3125,-0.4101563 l 0.105469,-0.5625 h -0.585937 v -0.7148437 z m -1.804687,0.7148437 h -3.328125 c 0.544921,0.070312 0.975586,0.2753906 1.289062,0.609375 0.319336,0.3369141 0.495117,0.8261719 0.527344,1.4648438 0.328125,0.102539 0.612305,0.2636718 0.855469,0.4804687 0.249023,0.2197266 0.471679,0.46875 0.667968,0.75 -0.0088,-0.099609 -0.01172,-0.2021484 -0.01172,-0.3046875 0,-0.099609 0,-0.2050781 0,-0.3164062 z m 2.422851,4.94531252 c 0,-0.24023437 0.05859,-0.41308593 0.175781,-0.51562502 0.123047,-0.099609 0.269532,-0.1523437 0.433594,-0.1523437 0.169922,0 0.319336,0.052734 0.445313,0.1523437 0.123047,0.10253909 0.1875,0.27539065 0.1875,0.51562502 0,0.24316407 -0.06445,0.41894532 -0.1875,0.52734375 -0.125977,0.09960938 -0.275391,0.15234375 -0.445313,0.15234375 -0.164062,0 -0.310547,-0.05273437 -0.433594,-0.15234375 -0.117187,-0.10839843 -0.175781,-0.28417968 -0.175781,-0.52734375 z m 0,0"
       style="fill:#000000;fill-opacity:1;fill-rule:nonzero;stroke:none"
       aria-label="১০েস.িম."
       transform="matrix(1.3333333,0,0,1.3333333,128.264,155.67867)" />
    <path
       id="path83"
       d="m 3.4558359,-0.3856875 c -0.3457031,0 -0.6738281,-0.0615234 -0.984375,-0.1875 C 2.1579844,-0.70502344 1.8650156,-0.92475 1.5925547,-1.2294375 1.3171641,-1.5399844 1.0652109,-1.9618594 0.83083594,-2.4950625 0.60232031,-3.0253359 0.39724219,-3.6933047 0.20974219,-4.4989688 l 0.75,-0.234375 c 0.17871091,0.8759766 0.38671871,1.5791016 0.62109371,2.109375 0.234375,0.5244141 0.4980469,0.9023438 0.796875,1.1367188 0.2958985,0.2285156 0.6386719,0.3398437 1.03125,0.3398437 0.4277344,0 0.7675782,-0.1289062 1.0195313,-0.3867187 0.2578125,-0.2578125 0.3867187,-0.6445313 0.3867187,-1.1601563 0,-0.1552734 -0.017578,-0.2958984 -0.046875,-0.421875 -0.023437,-0.1318359 -0.055664,-0.2490234 -0.09375,-0.3515625 -0.328125,0.609375 -0.758789,0.9140625 -1.2890625,0.9140625 -0.290039,0 -0.5214843,-0.084961 -0.6914062,-0.2578125 -0.1025391,-0.09375 -0.1875,-0.2226562 -0.2578125,-0.3867187 -0.064453,-0.1640625 -0.09375,-0.4248047 -0.09375,-0.7851563 V -4.48725 c 0,-0.2490234 -0.043945,-0.421875 -0.1289063,-0.515625 -0.079101,-0.09375 -0.2666015,-0.140625 -0.5625,-0.140625 l 0.09375,-0.7617188 c 0.5390625,0.017578 0.9052735,0.1259766 1.1015625,0.328125 0.09375,0.1025391 0.1582032,0.2285157 0.1992188,0.375 0.038086,0.140625 0.058594,0.3134766 0.058594,0.515625 v 0.9140625 c 0,0.1640625 0.026367,0.2900391 0.082031,0.375 0.052734,0.087891 0.1464844,0.1289063 0.28125,0.1289063 0.1552734,0 0.3076172,-0.070312 0.4570312,-0.2109375 0.1552735,-0.140625 0.319336,-0.4335938 0.4921875,-0.8789063 l 0.5507813,-0.140625 c 0.1875,0.2431641 0.3310547,0.5361329 0.4335937,0.8789063 0.1083985,0.3369141 0.1640625,0.6533203 0.1640625,0.9492187 0,0.4306641 -0.076172,0.8203125 -0.2226562,1.171875 -0.1494141,0.3457032 -0.3808594,0.61816411 -0.6914063,0.82031255 -0.3134765,0.19628906 -0.711914,0.29296875 -1.1953125,0.29296875 z m 8.5839841,-5.8125 v 0.7148437 h -0.199218 c -0.210938,0.046875 -0.439454,0.1494141 -0.679688,0.3046875 -0.234375,0.1582032 -0.457031,0.3603516 -0.667969,0.609375 -0.210937,0.2431641 -0.386718,0.5332032 -0.5273434,0.8671875 -0.1347657,0.328125 -0.1992188,0.6914063 -0.1992188,1.0898438 0,0.4775391 0.070312,0.8613281 0.2109375,1.1484375 0.1406247,0.28125 0.3164067,0.48046875 0.5273437,0.59765625 0.216797,0.1171875 0.433594,0.17578125 0.644531,0.17578125 0.164063,0 0.298828,-0.0146484 0.410157,-0.046875 0.117187,-0.0292969 0.249023,-0.0878906 0.398437,-0.17578125 l 0.351563,0.609375 c -0.181641,0.13476562 -0.372071,0.22851562 -0.574219,0.28125 -0.205078,0.04394531 -0.410156,0.0703125 -0.621094,0.0703125 -0.421875,0 -0.793945,-0.10839844 -1.113281,-0.328125 C 9.6784922,-0.49701563 9.4294687,-0.80170313 9.2507578,-1.1942813 9.0691172,-1.5927188 8.9812266,-2.0556094 8.9812266,-2.5888125 c 0,-0.5068359 0.076172,-0.9609375 0.234375,-1.359375 0.1640625,-0.4042969 0.375,-0.7558594 0.6328125,-1.0546875 0.2636719,-0.3046875 0.5507809,-0.5537109 0.8554689,-0.75 0.310547,-0.1933594 0.609375,-0.3427734 0.890625,-0.4453125 z m 6.785157,0 v 0.7148437 H 17.782008 V 0.00103125 H 17.020289 V -3.17475 c -0.149414,-0.1787109 -0.28125,-0.3164063 -0.398437,-0.4101563 -0.117188,-0.099609 -0.231446,-0.1523437 -0.339844,-0.1523437 -0.09375,0 -0.184571,0.029297 -0.269531,0.082031 -0.0791,0.055664 -0.169922,0.1582032 -0.269532,0.3046875 -0.09375,0.1494141 -0.222656,0.375 -0.386718,0.6796875 -0.181641,0.328125 -0.345704,0.5976563 -0.492188,0.8085938 -0.149414,0.2050781 -0.304687,0.3574219 -0.46875,0.4570312 -0.158203,0.09375 -0.351562,0.140625 -0.585937,0.140625 -0.266602,0 -0.521485,-0.082031 -0.761719,-0.2460937 -0.234375,-0.1699219 -0.489258,-0.4746094 -0.761719,-0.9140625 l 0.609375,-0.375 c 0.178711,0.3222656 0.328125,0.5332031 0.445313,0.6328125 0.117187,0.09375 0.246093,0.140625 0.386718,0.140625 0.140625,0 0.275391,-0.052734 0.410157,-0.1640625 0.131835,-0.1171875 0.292968,-0.3310547 0.480468,-0.6445313 -0.06445,-0.4130859 -0.134765,-0.7412109 -0.210937,-0.984375 -0.07031,-0.2402343 -0.184571,-0.4335937 -0.339844,-0.5742187 -0.164062,-0.1464844 -0.392578,-0.2607422 -0.679687,-0.3398438 -0.28125,-0.076172 -0.641602,-0.1435546 -1.078125,-0.1992187 l 0.117187,-0.5507813 h -0.597656 v -0.7148437 z m -5.824219,0.7148437 c 0.506836,0.070312 0.905273,0.1816407 1.195312,0.328125 0.28711,0.140625 0.498047,0.3398438 0.632813,0.5976563 0.131836,0.2519531 0.213867,0.5800781 0.246094,0.984375 0.164062,-0.3427734 0.322265,-0.5771484 0.480468,-0.703125 0.155274,-0.1318359 0.328125,-0.1992188 0.515625,-0.1992188 0.178711,0 0.342774,0.043945 0.492188,0.1289063 0.146484,0.087891 0.307617,0.2167969 0.480469,0.3867187 -0.01758,-0.099609 -0.02344,-0.2021484 -0.02344,-0.3046875 0,-0.099609 0,-0.1992187 0,-0.2929687 v -0.9257813 z m 6.442383,4.94531255 c 0,-0.24023438 0.05859,-0.41308594 0.175781,-0.51562505 0.123047,-0.099609 0.269531,-0.1523437 0.433594,-0.1523437 0.169921,0 0.319336,0.052734 0.445312,0.1523437 0.123047,0.10253911 0.1875,0.27539067 0.1875,0.51562505 0,0.24316406 -0.06445,0.41894531 -0.1875,0.52734375 -0.125976,0.09960937 -0.275391,0.15234375 -0.445312,0.15234375 -0.164063,0 -0.310547,-0.05273438 -0.433594,-0.15234375 -0.117188,-0.10839844 -0.175781,-0.28417969 -0.175781,-0.52734375 z m 4.710937,-5.66015625 v 0.7148437 H 23.099391 V 0.00103125 H 22.337672 V -5.4833438 h -1.042969 v -0.7148437 h 0.925781 C 22.109156,-6.3212344 22.000758,-6.456 21.892359,-6.596625 21.781031,-6.73725 21.684352,-6.8720156 21.599391,-7.0067813 c 0.225586,-0.3984375 0.46875,-0.7558593 0.726562,-1.078125 0.257813,-0.3193359 0.5625,-0.5742187 0.914063,-0.7617187 0.351562,-0.1875 0.776367,-0.28125 1.277343,-0.28125 0.46875,0 0.914063,0.079102 1.335938,0.234375 0.421875,0.1494141 0.83789,0.3603516 1.253906,0.6328125 0.421875,0.2753906 0.858399,0.6035156 1.3125,0.984375 L 28.009547,-6.73725 c -0.462891,-0.375 -0.875977,-0.6826172 -1.242188,-0.9257813 -0.36914,-0.2490234 -0.720703,-0.4335937 -1.054687,-0.5507812 -0.336914,-0.1230469 -0.697266,-0.1875 -1.078125,-0.1875 -0.547852,0 -0.990235,0.140625 -1.324219,0.421875 -0.328125,0.2753906 -0.615234,0.6328125 -0.855469,1.078125 0.05274,0.1025391 0.128907,0.2109375 0.222657,0.328125 0.09375,0.1171875 0.199218,0.2431641 0.316406,0.375 z m 6.1875,0 v 0.7148437 H 29.298609 V 0.00103125 H 28.536891 V -1.0888125 C 28.317164,-1.3993594 28.097437,-1.6864688 27.880641,-1.9442813 27.660914,-2.2020938 27.429469,-2.4071719 27.189234,-2.565375 26.94607,-2.7206484 26.685328,-2.79975 26.404078,-2.79975 c -0.251953,0 -0.462891,0.064453 -0.632812,0.1875 -0.164063,0.1259766 -0.246094,0.3164062 -0.246094,0.5742187 0,0.2197266 0.07617,0.4042969 0.234375,0.5507813 0.164062,0.1494141 0.401367,0.2783203 0.714844,0.3867187 l -0.257813,0.7617188 c -0.539062,-0.19335938 -0.925781,-0.43945313 -1.160156,-0.7382813 -0.234375,-0.3046875 -0.351563,-0.6357421 -0.351563,-0.9960937 0,-0.3193359 0.07617,-0.5859375 0.234375,-0.796875 0.155274,-0.2109375 0.351563,-0.3691406 0.585938,-0.4804688 0.234375,-0.1083984 0.46289,-0.1640625 0.691406,-0.1640625 -0.04687,-0.4599609 -0.208008,-0.7910156 -0.480469,-0.9960937 -0.266601,-0.2109375 -0.703125,-0.3457031 -1.3125,-0.4101563 l 0.105469,-0.5625 h -0.585937 v -0.7148437 z m -1.804687,0.7148437 h -3.328125 c 0.544921,0.070312 0.975586,0.2753907 1.289062,0.609375 0.319336,0.3369141 0.495117,0.8261719 0.527344,1.4648438 0.328125,0.1025391 0.612305,0.2636719 0.855469,0.4804687 0.249023,0.2197266 0.471679,0.46875 0.667968,0.75 -0.0088,-0.099609 -0.01172,-0.2021484 -0.01172,-0.3046875 0,-0.099609 0,-0.2050781 0,-0.3164062 z m 2.425781,4.94531255 c 0,-0.24023438 0.05859,-0.41308594 0.175781,-0.51562505 C 31.2615,-1.1532656 31.407984,-1.206 31.572047,-1.206 c 0.169922,0 0.319336,0.052734 0.445312,0.1523437 0.123047,0.10253911 0.1875,0.27539067 0.1875,0.51562505 0,0.24316406 -0.06445,0.41894531 -0.1875,0.52734375 -0.125976,0.09960937 -0.27539,0.15234375 -0.445312,0.15234375 -0.164063,0 -0.310547,-0.05273438 -0.433594,-0.15234375 -0.117187,-0.10839844 -0.175781,-0.28417969 -0.175781,-0.52734375 z m 0,0"
       style="fill:#000000;fill-opacity:1;fill-rule:nonzero;stroke:none"
       aria-label="৬েস.িম."
       transform="matrix(1.3333333,0,0,1.3333333,11.068,88.108)" />
  </g>
</svg>
