<svg xmlns="http://www.w3.org/2000/svg" width="342.23291pt" height="57.70547pt" viewBox="-72 -72 342.23291 57.70547" style="position: absolute; top: 0pt; left: 0pt; overflow: visible;">
<g transform="translate(-71.87001037597655,-14.964523315429684)">
<g stroke-miterlimit="10" transform="scale(1,-1)"><g stroke="#000" fill="#000">
 <g stroke-width="0.4">
 <g stroke-width="0.8">
 <path d=" M 0.0 0.0 L 341.43292 0.0  " fill="none"/>
 </g>
 <g stroke-width="0.8">
 <path d=" M 0.0 28.45274 L 341.43292 28.45274  " fill="none"/>
 </g>
 <g stroke-width="0.8">
 <path d=" M 0.0 56.90549 L 341.43292 56.90549  " fill="none"/>
 </g>
 <g stroke-width="0.8">
 <path d=" M 0.0 0.0 L 0.0 56.90549  " fill="none"/>
 </g>
 <g stroke-width="0.8">
 <path d=" M 56.90549 0.0 L 56.90549 56.90549  " fill="none"/>
 </g>
 <g stroke-width="0.8">
 <path d=" M 128.03734 0.0 L 128.03734 56.90549  " fill="none"/>
 </g>
 <g stroke-width="0.8">
 <path d=" M 199.1692 0.0 L 199.1692 56.90549  " fill="none"/>
 </g>
 <g stroke-width="0.8">
 <path d=" M 270.30106 0.0 L 270.30106 56.90549  " fill="none"/>
 </g>
 <g stroke-width="0.8">
 <path d=" M 341.43292 0.0 L 341.43292 56.90549  " fill="none"/>
 </g>
 <g transform="translate(25.59511,40.52634)">
 <g stroke="none" transform="scale(-1.00375,1.00375)translate(-68.53668212890624,-14.964523315429684)scale(-1,-1)"><g fill="#000">
 <g stroke="none"> <text alignment-baseline="baseline" y="-14.964523315429684" x="-68.53668212890624" style="font-family: cmmi10;" font-size="10">x</text>
</g> </g>
 </g></g>
 <g transform="translate(79.97137,39.4569)">
 <g stroke="none" transform="scale(-1.00375,1.00375)translate(-68.53668212890624,-14.964523315429684)scale(-1,-1)"><g fill="#000">
 <g stroke="none"> <text alignment-baseline="baseline" y="-14.964523315429684" x="-68.53668212890624" style="font-family: cmr10;" font-size="10">21–30</text>
</g> </g>
 </g></g>
 <g transform="translate(151.10324,39.4569)">
 <g stroke="none" transform="scale(-1.00375,1.00375)translate(-68.53668212890624,-14.964523315429684)scale(-1,-1)"><g fill="#000">
 <g stroke="none"> <text alignment-baseline="baseline" y="-14.964523315429684" x="-68.53668212890624" style="font-family: cmr10;" font-size="10">31–40</text>
</g> </g>
 </g></g>
 <g transform="translate(222.23509,39.4569)">
 <g stroke="none" transform="scale(-1.00375,1.00375)translate(-68.53668212890624,-14.964523315429684)scale(-1,-1)"><g fill="#000">
 <g stroke="none"> <text alignment-baseline="baseline" y="-14.964523315429684" x="-68.53668212890624" style="font-family: cmr10;" font-size="10">41–50</text>
</g> </g>
 </g></g>
 <g transform="translate(293.36696,39.4569)">
 <g stroke="none" transform="scale(-1.00375,1.00375)translate(-68.53668212890624,-14.964523315429684)scale(-1,-1)"><g fill="#000">
 <g stroke="none"> <text alignment-baseline="baseline" y="-14.964523315429684" x="-68.53668212890624" style="font-family: cmr10;" font-size="10">51–60</text>
</g> </g>
 </g></g>
 <g transform="translate(25.46661,11.72636)">
 <g stroke="none" transform="scale(-1.00375,1.00375)translate(-68.53668212890624,-14.964523315429684)scale(-1,-1)"><g fill="#000">
 <g stroke="none"> <text alignment-baseline="baseline" y="-14.964523315429684" x="-68.53668212890624" style="font-family: cmmi10;" font-size="10">f</text>
</g> </g>
 </g></g>
 <g transform="translate(89.9714,11.00415)">
 <g stroke="none" transform="scale(-1.00375,1.00375)translate(-68.53668212890624,-14.964523315429684)scale(-1,-1)"><g fill="#000">
 <g stroke="none"> <text alignment-baseline="baseline" y="-14.964523315429684" x="-68.53668212890624" style="font-family: cmr10;" font-size="10">5</text>
</g> </g>
 </g></g>
 <g transform="translate(161.10327,11.00415)">
 <g stroke="none" transform="scale(-1.00375,1.00375)translate(-68.53668212890624,-14.964523315429684)scale(-1,-1)"><g fill="#000">
 <g stroke="none"> <text alignment-baseline="baseline" y="-14.964523315429684" x="-68.53668212890624" style="font-family: cmr10;" font-size="10">8</text>
</g> </g>
 </g></g>
 <g transform="translate(229.7351,11.00415)">
 <g stroke="none" transform="scale(-1.00375,1.00375)translate(-68.53668212890624,-14.964523315429684)scale(-1,-1)"><g fill="#000">
 <g stroke="none"> <text alignment-baseline="baseline" y="-14.964523315429684" x="-68.53668212890624" style="font-family: cmr10;" font-size="10">10</text>
</g> </g>
 </g></g>
 <g transform="translate(300.86697,11.00415)">
 <g stroke="none" transform="scale(-1.00375,1.00375)translate(-68.53668212890624,-14.964523315429684)scale(-1,-1)"><g fill="#000">
 <g stroke="none"> <text alignment-baseline="baseline" y="-14.964523315429684" x="-68.53668212890624" style="font-family: cmr10;" font-size="10">12</text>
</g> </g>
 </g></g>
 </g>
 </g>
 </g></g></svg>