<svg xmlns="http://www.w3.org/2000/svg" width="227.62334pt" height="126.98312pt" viewBox="-72 -72 227.62334 126.98312" style="position: absolute; top: 0pt; left: 0pt; overflow: visible;">
<g transform="translate(-58.32070922851561,41.01385498046874)">
<g stroke-miterlimit="10" transform="scale(1,-1)"><g stroke="#000" fill="#000">
 <g stroke-width="0.4">
 <g stroke-width="0.8">
 <path d=" M 0.0 0.0 L 199.1692 0.0  " fill="none"/>
 </g>
 <g stroke-width="0.8">
 <path d=" M 0.0 0.0 L 49.7923 99.5846 L 99.5846 0.0  " fill="none"/>
 </g>
 <g stroke-width="0.6">
 <path d=" M 49.7923 99.5846 M 42.0418 84.3735 C 46.91014 81.89294 52.67445 81.89294 57.5428 84.3735  " fill="none"/>
 </g>
 <g transform="translate(42.49367,73.37938)">
 <g stroke="none" transform="scale(-1.00375,1.00375)translate(-54.9873809814453,41.01385498046874)scale(-1,-1)"><g fill="#000">
 <g stroke="none"> <text alignment-baseline="baseline" y="41.01385498046874" x="-54.9873809814453" style="font-family: cmr10;" font-size="10">40</text>
<text alignment-baseline="baseline" y="37.38493347167968" x="-44.98734283447265" style="font-family: cmsy7;" font-size="7">◦</text>
</g> </g>
 </g></g>
 <g transform="translate(46.0423,103.11757)">
 <g stroke="none" transform="scale(-1.00375,1.00375)translate(-54.9873809814453,41.01385498046874)scale(-1,-1)"><g fill="#000">
 <g stroke="none"> <text alignment-baseline="baseline" y="41.01385498046874" x="-54.9873809814453" style="font-family: cmr10;" font-size="10">A</text>
</g> </g>
 </g></g>
 <g transform="translate(-10.61632,-3.41666)">
 <g stroke="none" transform="scale(-1.00375,1.00375)translate(-54.9873809814453,41.01385498046874)scale(-1,-1)"><g fill="#000">
 <g stroke="none"> <text alignment-baseline="baseline" y="41.01385498046874" x="-54.9873809814453" style="font-family: cmr10;" font-size="10">B</text>
</g> </g>
 </g></g>
 <g transform="translate(95.97348,-10.36629)">
 <g stroke="none" transform="scale(-1.00375,1.00375)translate(-54.9873809814453,41.01385498046874)scale(-1,-1)"><g fill="#000">
 <g stroke="none"> <text alignment-baseline="baseline" y="41.01385498046874" x="-54.9873809814453" style="font-family: cmr10;" font-size="10">C</text>
</g> </g>
 </g></g>
 <g transform="translate(202.70218,-3.41666)">
 <g stroke="none" transform="scale(-1.00375,1.00375)translate(-54.9873809814453,41.01385498046874)scale(-1,-1)"><g fill="#000">
 <g stroke="none"> <text alignment-baseline="baseline" y="41.01385498046874" x="-54.9873809814453" style="font-family: cmr10;" font-size="10">D</text>
</g> </g>
 </g></g>
 </g>
 </g>
 </g></g></svg>