<svg xmlns="http://www.w3.org/2000/svg" width="102.2468pt" height="112.76715pt" viewBox="-72 -72 102.2468 112.76715" style="position: absolute; top: 0pt; left: 0pt; overflow: visible;">
<g transform="translate(-21.63272094726562,-15.886428833007809)">
<g stroke-miterlimit="10" transform="scale(1,-1)"><g stroke="#000" fill="#000">
 <g stroke-width="0.4">
 <g stroke-width="0.8">
 <path d=" M 0.0 0.0 M 42.67911 0.0 C 42.67911 23.57132 23.57132 42.67911 0.0 42.67911 C -23.57132 42.67911 -42.67911 23.57132 -42.67911 0.0 C -42.67911 -23.57132 -23.57132 -42.67911 0.0 -42.67911 C 23.57132 -42.67911 42.67911 -23.57132 42.67911 0.0 Z M 0.0 0.0  " fill="none"/>
 </g>
 <g transform="translate(-3.8889,5.11903)">
 <g stroke="none" transform="scale(-1.00375,1.00375)translate(-18.29939270019531,-15.886428833007809)scale(-1,-1)"><g fill="#000">
 <g stroke="none"> <text alignment-baseline="baseline" y="-15.886428833007809" x="-18.29939270019531" style="font-family: cmr10;" font-size="10">O</text>
</g> </g>
 </g></g>
 <path d=" M 0.0 0.0 M 1.5 0.0 C 1.5 0.82843 0.82843 1.5 0.0 1.5 C -0.82843 1.5 -1.5 0.82843 -1.5 0.0 C -1.5 -0.82843 -0.82843 -1.5 0.0 -1.5 C 0.82843 -1.5 1.5 -0.82843 1.5 0.0 Z M 0.0 0.0  " stroke="none"/>
 <g stroke-width="0.8">
 <path d=" M -36.96576 -21.34213 L 0.0 42.68431 L 36.96576 -21.34213  " fill="none"/>
 </g>
 <g stroke-width="0.8">
 <path d=" M -36.96576 -21.34213 L 0.0 -42.68431 L 36.96576 -21.34213  " fill="none"/>
 </g>
 <g stroke-width="0.8">
 <path d=" M 0.0 0.0 L -36.96576 -21.34213  " fill="none"/>
 </g>
 <g stroke-width="0.8">
 <path d=" M 0.0 0.0 L 36.96576 -21.34213  " fill="none"/>
 </g>
 <path d=" M -9.2403 -5.33487 C -6.29398 -10.43806 0.23167 -12.18661 5.33487 -9.2403 C 6.95642 -8.30415 8.30415 -6.95642 9.2403 -5.33487  " fill="none"/>
 <g transform="translate(-6.79163,-20.41356)">
 <g stroke="none" transform="scale(-1.00375,1.00375)translate(-18.29939270019531,-15.886428833007809)scale(-1,-1)"><g fill="#000">
 <g stroke="none"> <text alignment-baseline="baseline" y="-15.886428833007809" x="-18.29939270019531" style="font-family: cmr9;" font-size="9">88</text>
<text alignment-baseline="baseline" y="-19.709716796874996" x="-9.04945373535156" style="font-family: cmsy6;" font-size="6">◦</text>
</g> </g>
 </g></g>
 <g transform="translate(-2.77779,46.21729)">
 <g stroke="none" transform="scale(-1.00375,1.00375)translate(-18.29939270019531,-15.886428833007809)scale(-1,-1)"><g fill="#000">
 <g stroke="none"> <text alignment-baseline="baseline" y="-15.886428833007809" x="-18.29939270019531" style="font-family: cmr10;" font-size="10">S</text>
</g> </g>
 </g></g>
 <g transform="translate(-47.3043,-24.75879)">
 <g stroke="none" transform="scale(-1.00375,1.00375)translate(-18.29939270019531,-15.886428833007809)scale(-1,-1)"><g fill="#000">
 <g stroke="none"> <text alignment-baseline="baseline" y="-15.886428833007809" x="-18.29939270019531" style="font-family: cmr10;" font-size="10">P</text>
</g> </g>
 </g></g>
 <g transform="translate(40.49873,-23.78658)">
 <g stroke="none" transform="scale(-1.00375,1.00375)translate(-18.29939270019531,-15.886428833007809)scale(-1,-1)"><g fill="#000">
 <g stroke="none"> <text alignment-baseline="baseline" y="-15.886428833007809" x="-18.29939270019531" style="font-family: cmr10;" font-size="10">Q</text>
</g> </g>
 </g></g>
 <g transform="translate(-3.68056,-53.0506)">
 <g stroke="none" transform="scale(-1.00375,1.00375)translate(-18.29939270019531,-15.886428833007809)scale(-1,-1)"><g fill="#000">
 <g stroke="none"> <text alignment-baseline="baseline" y="-15.886428833007809" x="-18.29939270019531" style="font-family: cmr10;" font-size="10">R</text>
</g> </g>
 </g></g>
 </g>
 </g>
 </g></g></svg>