<?xml version="1.0" encoding="UTF-8" standalone="no"?>
<!-- Created with Inkscape (http://www.inkscape.org/) -->

<svg
   version="1.1"
   id="svg1"
   width="204.49333"
   height="201.38667"
   viewBox="0 0 204.49333 201.38667"
   sodipodi:docname="upload_mf4paxmztnbqd2hvgomcxvcq5t.pdf"
   xmlns:inkscape="http://www.inkscape.org/namespaces/inkscape"
   xmlns:sodipodi="http://sodipodi.sourceforge.net/DTD/sodipodi-0.dtd"
   xmlns="http://www.w3.org/2000/svg"
   xmlns:svg="http://www.w3.org/2000/svg">
  <defs
     id="defs1" />
  <sodipodi:namedview
     id="namedview1"
     pagecolor="#ffffff"
     bordercolor="#000000"
     borderopacity="0.25"
     inkscape:showpageshadow="2"
     inkscape:pageopacity="0.0"
     inkscape:pagecheckerboard="0"
     inkscape:deskcolor="#d1d1d1">
    <inkscape:page
       x="0"
       y="0"
       inkscape:label="1"
       id="page1"
       width="204.49333"
       height="201.38667"
       margin="0"
       bleed="0" />
  </sodipodi:namedview>
  <g
     id="g1"
     inkscape:groupmode="layer"
     inkscape:label="1">
    <path
       id="path1"
       d="M 63.7803,0 C 63.7803,35.22533 35.22533,63.7803 0,63.7803 -35.22533,63.7803 -63.7803,35.22533 -63.7803,0 c 0,-35.22533 28.55497,-63.7803 63.7803,-63.7803 35.22533,0 63.7803,28.55497 63.7803,63.7803 z"
       style="fill:none;stroke:#000000;stroke-width:0.79701;stroke-linecap:butt;stroke-linejoin:miter;stroke-miterlimit:10;stroke-dasharray:none;stroke-opacity:1"
       transform="matrix(1.3333333,0,0,-1.3333333,101.87333,100.62133)" />
    <path
       id="path2"
       d="M 2.24162,0 C 2.24162,1.238 1.238,2.24162 0,2.24162 -1.238,2.24162 -2.24162,1.238 -2.24162,0 -2.24162,-1.238 -1.238,-2.24162 0,-2.24162 1.238,-2.24162 2.24162,-1.238 2.24162,0 Z"
       style="fill:#000000;fill-opacity:1;fill-rule:nonzero;stroke:none"
       transform="matrix(1.3333333,0,0,-1.3333333,101.87333,100.62133)" />
    <path
       id="path3"
       d="m 7.1824062,-3.3752344 c 0,-2.0390625 -1.5,-3.6445312 -3.3164062,-3.6445312 -1.78125,0 -3.3046875,1.59375 -3.3046875,3.6445312 0,2.0390625 1.5351562,3.59765627 3.3046875,3.59765627 1.8164062,0 3.3164062,-1.58203127 3.3164062,-3.59765627 z m -1.03125,-0.140625 c 0,2.63671877 -1.359375,3.48046877 -2.2734375,3.48046877 -0.9609375,0 -2.296875,-0.87890625 -2.296875,-3.48046877 0,-2.578125 1.453125,-3.2578125 2.2851563,-3.2578125 0.8671875,0 2.2851562,0.703125 2.2851562,3.2578125 z m 0,0"
       style="fill:#000000;fill-opacity:1;fill-rule:nonzero;stroke:none"
       aria-label="O"
       transform="matrix(1.3333333,0,0,1.3333333,86.845333,114.68)" />
    <path
       id="path4"
       d="M 6.4907344,-2.5671641 H 6.2446406 C 5.9985469,-1.0320078 5.7641719,-0.30544531 4.0532344,-0.30544531 H 2.7290156 c -0.46875,0 -0.4921875,-0.0703125 -0.4921875,-0.3984375 V -3.3640391 h 0.9023438 c 0.9609375,0 1.078125,0.3164063 1.078125,1.1601563 H 4.4633906 V -4.8406016 H 4.2172969 c 0,0.8554688 -0.1171875,1.1601563 -1.078125,1.1601563 H 2.2368281 v -2.390625 c 0,-0.328125 0.023437,-0.3984375 0.4921875,-0.3984375 h 1.2890625 c 1.5234375,0 1.7929688,0.5507812 1.9453125,1.9335937 H 6.2094844 L 5.9399531,-6.7741953 H 0.32667188 v 0.3046875 h 0.234375 c 0.77343752,0 0.79687502,0.1171875 0.79687502,0.46875 v 5.22656249 c 0,0.3515625 -0.023437,0.46875 -0.79687502,0.46875 h -0.234375 V -7.578125e-4 H 6.0805781 Z m 0,0"
       style="fill:#000000;fill-opacity:1;fill-rule:nonzero;stroke:none"
       aria-label="E"
       transform="matrix(1.3333333,0,0,1.3333333,134.916,101.59867)" />
    <path
       id="path5"
       d="M 17.00989,61.49167 V -61.49167"
       style="fill:none;stroke:#000000;stroke-width:0.79701;stroke-linecap:butt;stroke-linejoin:miter;stroke-miterlimit:10;stroke-dasharray:none;stroke-opacity:1"
       transform="matrix(1.3333333,0,0,-1.3333333,101.87333,100.62133)" />
    <path
       id="path6"
       d="M -62.51236,-12.7577 H 62.51236"
       style="fill:none;stroke:#000000;stroke-width:0.79701;stroke-linecap:butt;stroke-linejoin:miter;stroke-miterlimit:10;stroke-dasharray:none;stroke-opacity:1"
       transform="matrix(1.3333333,0,0,-1.3333333,101.87333,100.62133)" />
    <path
       id="path7"
       d="m 17.00781,-4.25226 h 8.50455 v -8.5039"
       style="fill:none;stroke:#000000;stroke-width:0.3985;stroke-linecap:butt;stroke-linejoin:miter;stroke-miterlimit:10;stroke-dasharray:none;stroke-opacity:1"
       transform="matrix(1.3333333,0,0,-1.3333333,101.87333,100.62133)" />
    <path
       id="path8"
       d="M 17.00989,61.49167 -62.51236,-12.7577"
       style="fill:none;stroke:#000000;stroke-width:0.79701;stroke-linecap:butt;stroke-linejoin:miter;stroke-miterlimit:10;stroke-dasharray:none;stroke-opacity:1"
       transform="matrix(1.3333333,0,0,-1.3333333,101.87333,100.62133)" />
    <path
       id="path9"
       d="M -62.51236,-12.7577 17.00989,-61.49167"
       style="fill:none;stroke:#000000;stroke-width:0.79701;stroke-linecap:butt;stroke-linejoin:miter;stroke-miterlimit:10;stroke-dasharray:none;stroke-opacity:1"
       transform="matrix(1.3333333,0,0,-1.3333333,101.87333,100.62133)" />
    <path
       id="path10"
       d="M 17.00989,-61.49167 62.51236,-12.7577"
       style="fill:none;stroke:#000000;stroke-width:0.79701;stroke-linecap:butt;stroke-linejoin:miter;stroke-miterlimit:10;stroke-dasharray:none;stroke-opacity:1"
       transform="matrix(1.3333333,0,0,-1.3333333,101.87333,100.62133)" />
    <path
       id="path11"
       d="M 62.51236,-12.7577 17.00989,61.49167"
       style="fill:none;stroke:#000000;stroke-width:0.79701;stroke-linecap:butt;stroke-linejoin:miter;stroke-miterlimit:10;stroke-dasharray:none;stroke-opacity:1"
       transform="matrix(1.3333333,0,0,-1.3333333,101.87333,100.62133)" />
    <path
       id="path12"
       d="m 7.1354531,0.00105469 v -0.3046875 H 6.9596719 c -0.5976563,0 -0.7382813,-0.0703125 -0.84375,-0.3984375 l -2.15625,-6.23437499 c -0.046875,-0.1289063 -0.070312,-0.1992188 -0.2226563,-0.1992188 -0.1640625,0 -0.1875,0.058594 -0.2460937,0.1992188 l -2.0625,5.96484374 c -0.1757813,0.50390625 -0.57421878,0.65625 -1.11328128,0.66796875 v 0.3046875 L 1.3346719,-0.03410156 2.4831094,0.00105469 v -0.3046875 c -0.5039063,0 -0.75,-0.2578125 -0.75,-0.515625 0,-0.0234375 0.011719,-0.12890625 0.023437,-0.140625 L 2.2135781,-2.2723828 h 2.4609375 l 0.5273438,1.52343749 c 0.011719,0.046875 0.023437,0.10546875 0.023437,0.140625 0,0.3046875 -0.5507813,0.3046875 -0.8203125,0.3046875 v 0.3046875 c 0.351563,-0.03515625 1.054688,-0.03515625 1.429688,-0.03515625 z M 4.5573281,-2.5770703 H 2.3190469 l 1.1132812,-3.234375 z m 0,0"
       style="fill:#000000;fill-opacity:1;fill-rule:nonzero;stroke:none"
       aria-label="A"
       transform="matrix(1.3333333,0,0,1.3333333,119.572,13.94)" />
    <path
       id="path13"
       d="m 6.4808047,-1.8281484 c 0,-0.8671875 -0.8085938,-1.6054688 -1.921875,-1.7226563 0.9726562,-0.1992187 1.6523437,-0.8320312 1.6523437,-1.5703125 0,-0.8671875 -0.9140625,-1.6875 -2.203125,-1.6875 H 0.36361719 v 0.3164063 h 0.234375 c 0.76171871,0 0.78515621,0.1054687 0.78515621,0.46875 v 5.24999996 c 0,0.3515625 -0.023437,0.46875 -0.78515621,0.46875 h -0.234375 V -2.34375e-5 H 4.2659609 c 1.3242188,0 2.2148438,-0.8906250025 2.2148438,-1.8281249625 z M 5.2503359,-5.1211172 c 0,0.6328125 -0.4921875,1.4765625 -1.59375,1.4765625 H 2.2151797 v -2.4492187 c 0,-0.328125 0.011719,-0.3984375 0.4804687,-0.3984375 h 1.2421875 c 0.9609375,0 1.3125,0.84375 1.3125,1.3710937 z m 0.234375,3.2929688 c 0,0.703125 -0.515625,1.52343746 -1.5351562,1.52343746 H 2.6956484 c -0.46875,0 -0.4804687,-0.0703125 -0.4804687,-0.3984375 V -3.4218984 h 1.875 c 0.984375,0 1.3945312,0.9257812 1.3945312,1.59375 z m 0,0"
       style="fill:#000000;fill-opacity:1;fill-rule:nonzero;stroke:none"
       aria-label="B"
       transform="matrix(1.3333333,0,0,1.3333333,4.4253333,122.168)" />
    <path
       id="path14"
       d="m 6.6214531,-2.3203359 c 0,-0.1054688 0,-0.1757813 -0.1289062,-0.1757813 -0.1054688,0 -0.1054688,0.070312 -0.1171875,0.1640625 -0.082031,1.42968751 -1.1484375,2.23828126 -2.2265625,2.23828126 -0.609375,0 -2.5664063,-0.33984375 -2.5664063,-3.30468746 0,-2.9765625 1.9453125,-3.3164063 2.5546875,-3.3164063 1.078125,0 1.96875,0.9023438 2.1679688,2.3671875 0.023437,0.1289063 0.023437,0.1640625 0.1640625,0.1640625 0.1523437,0 0.1523437,-0.035156 0.1523437,-0.234375 v -2.3671875 c 0,-0.1640625 0,-0.234375 -0.1054687,-0.234375 -0.035156,0 -0.082031,0 -0.1640625,0.1171875 l -0.4921875,0.7382813 c -0.375,-0.3632813 -0.8789063,-0.8554688 -1.8398438,-0.8554688 -1.8632812,0 -3.45703122,1.5820313 -3.45703122,3.609375 0,2.0625 1.60546872,3.63281251 3.45703122,3.63281251 1.6289063,0 2.6015625,-1.38281251 2.6015625,-2.54296871 z m 0,0"
       style="fill:#000000;fill-opacity:1;fill-rule:nonzero;stroke:none"
       aria-label="C"
       transform="matrix(1.3333333,0,0,1.3333333,119.75733,196.668)" />
    <path
       id="path15"
       d="m 7.0415156,-3.3515859 c 0,-1.8867188 -1.3476562,-3.4570313 -3.046875,-3.4570313 H 0.35010937 v 0.3164063 h 0.234375 c 0.77343753,0 0.78515623,0.1054687 0.78515623,0.46875 v 5.24999996 c 0,0.3515625 -0.011719,0.46875 -0.78515623,0.46875 h -0.234375 V -2.34375e-5 H 3.9946406 c 1.6757813,0 3.046875,-1.4765624625 3.046875,-3.3515624625 z m -0.9960937,0 c 0,1.1132812 -0.1875,1.7109375 -0.5507813,2.1914062 -0.1992187,0.26953126 -0.7617187,0.85546876 -1.7695312,0.85546876 H 2.7172969 c -0.46875,0 -0.4921875,-0.0703125 -0.4921875,-0.3984375 V -6.0937734 c 0,-0.328125 0.023437,-0.3984375 0.4921875,-0.3984375 h 0.9960937 c 0.6210938,0 1.3007813,0.2109375 1.8164063,0.9257812 0.421875,0.5859375 0.515625,1.4414063 0.515625,2.2148438 z m 0,0"
       style="fill:#000000;fill-opacity:1;fill-rule:nonzero;stroke:none"
       aria-label="D"
       transform="matrix(1.3333333,0,0,1.3333333,189.916,122.168)" />
  </g>
</svg>
