<svg xmlns="http://www.w3.org/2000/svg" width="186.38966pt" height="185.02612pt" viewBox="-72 -72 186.38966 185.02612" style="position: absolute; top: 0pt; left: 0pt; overflow: visible;">
<g transform="translate(22.10537719726562,26.79789733886718)">
<g stroke-miterlimit="10" transform="scale(1,-1)"><g stroke="#000" fill="#000">
 <g stroke-width="0.4">
 <g stroke-width="1.2">
 <path d=" M 0.0 0.0 M 85.35823 0.0 C 85.35823 47.14265 47.14265 85.35823 0.0 85.35823 C -47.14265 85.35823 -85.35823 47.14265 -85.35823 0.0 C -85.35823 -47.14265 -47.14265 -85.35823 0.0 -85.35823 C 47.14265 -85.35823 85.35823 -47.14265 85.35823 0.0 Z M 0.0 0.0  " fill="none"/>
 </g>
 <g stroke-width="1.2">
 <path d=" M -77.37053 -36.0787 L 77.37053 -36.0787  " fill="none"/>
 </g>
 <g stroke-width="1.2">
 <path d=" M 0.0 0.0 L -77.37053 -36.0787  " fill="none"/>
 </g>
 <g stroke-width="1.2">
 <path d=" M 0.0 0.0 L 0.0 -36.0831  " fill="none"/>
 </g>
 <path d=" M -10.67085 -36.08702 L -10.67213 -25.42343 L 0.0 -25.41643  " fill="none"/>
 <path d=" M 0.0 0.0 M 2.25 0.0 C 2.25 1.24265 1.24265 2.25 0.0 2.25 C -1.24265 2.25 -2.25 1.24265 -2.25 0.0 C -2.25 -1.24265 -1.24265 -2.25 0.0 -2.25 C 1.24265 -2.25 2.25 -1.24265 2.25 0.0 Z M 0.0 0.0  " stroke="none"/>
 <g transform="translate(3.53297,3.53297)">
 <g stroke="none" transform="scale(-1.00375,1.00375)translate(25.43870544433593,26.79789733886718)scale(-1,-1)"><g fill="#000">
 <g stroke="none"> <text alignment-baseline="baseline" y="26.79789733886718" x="25.43870544433593" style="font-family: cmr10;" font-size="10">O</text>
</g> </g>
 </g></g>
 <g transform="translate(-3.68056,88.90161)">
 <g stroke="none" transform="scale(-1.00375,1.00375)translate(25.43870544433593,26.79789733886718)scale(-1,-1)"><g fill="#000">
 <g stroke="none"> <text alignment-baseline="baseline" y="26.79789733886718" x="25.43870544433593" style="font-family: cmr10;" font-size="10">R</text>
</g> </g>
 </g></g>
 <g transform="translate(-87.70908,-46.44499)">
 <g stroke="none" transform="scale(-1.00375,1.00375)translate(25.43870544433593,26.79789733886718)scale(-1,-1)"><g fill="#000">
 <g stroke="none"> <text alignment-baseline="baseline" y="26.79789733886718" x="25.43870544433593" style="font-family: cmr10;" font-size="10">P</text>
</g> </g>
 </g></g>
 <g transform="translate(80.9035,-46.44499)">
 <g stroke="none" transform="scale(-1.00375,1.00375)translate(25.43870544433593,26.79789733886718)scale(-1,-1)"><g fill="#000">
 <g stroke="none"> <text alignment-baseline="baseline" y="26.79789733886718" x="25.43870544433593" style="font-family: cmr10;" font-size="10">Q</text>
</g> </g>
 </g></g>
 <g transform="translate(-2.77779,-46.44939)">
 <g stroke="none" transform="scale(-1.00375,1.00375)translate(25.43870544433593,26.79789733886718)scale(-1,-1)"><g fill="#000">
 <g stroke="none"> <text alignment-baseline="baseline" y="26.79789733886718" x="25.43870544433593" style="font-family: cmr10;" font-size="10">S</text>
</g> </g>
 </g></g>
 <g transform="translate(-47.21823,-14.50636)">
 <g stroke="none" transform="scale(-1.00375,1.00375)translate(25.43870544433593,26.79789733886718)scale(-1,-1)"><g fill="#000">
 <g stroke="none"> <text alignment-baseline="baseline" y="26.79789733886718" x="25.43870544433593" style="font-family: cmr10;" font-size="10">5</text>
</g> </g>
 </g></g>
 </g>
 </g>
 </g></g></svg>