<?xml version="1.0" encoding="UTF-8" standalone="no"?>
<!-- Created with Inkscape (http://www.inkscape.org/) -->

<svg
   version="1.1"
   id="svg1"
   width="274.57333"
   height="249.08"
   viewBox="0 0 274.57333 249.08"
   sodipodi:docname="upload_amimjujslimnezq6tryuwxcgjt.pdf"
   xmlns:inkscape="http://www.inkscape.org/namespaces/inkscape"
   xmlns:sodipodi="http://sodipodi.sourceforge.net/DTD/sodipodi-0.dtd"
   xmlns="http://www.w3.org/2000/svg"
   xmlns:svg="http://www.w3.org/2000/svg">
  <defs
     id="defs1" />
  <sodipodi:namedview
     id="namedview1"
     pagecolor="#ffffff"
     bordercolor="#000000"
     borderopacity="0.25"
     inkscape:showpageshadow="2"
     inkscape:pageopacity="0.0"
     inkscape:pagecheckerboard="0"
     inkscape:deskcolor="#d1d1d1">
    <inkscape:page
       x="0"
       y="0"
       inkscape:label="1"
       id="page1"
       width="274.57333"
       height="249.08"
       margin="0"
       bleed="0" />
  </sodipodi:namedview>
  <g
     id="g1"
     inkscape:groupmode="layer"
     inkscape:label="1">
    <path
       id="path1"
       d="M 0,127.57619 V 0 h 127.57619 z"
       style="fill:none;stroke:#000000;stroke-width:1.19553;stroke-linecap:butt;stroke-linejoin:miter;stroke-miterlimit:10;stroke-dasharray:none;stroke-opacity:1"
       transform="matrix(1.3333333,0,0,-1.3333333,65.413333,209.50533)" />
    <path
       id="path2"
       d="M 0,0 V 10.63002 H 10.63002 V 0 Z"
       style="fill:none;stroke:#000000;stroke-width:1.19553;stroke-linecap:butt;stroke-linejoin:miter;stroke-miterlimit:10;stroke-dasharray:none;stroke-opacity:1"
       transform="matrix(1.3333333,0,0,-1.3333333,65.413333,209.50533)" />
    <path
       id="path3"
       d="m 0,106.31609 c 5.63745,0 11.04686,2.24067 15.03314,6.22694"
       style="fill:none;stroke:#000000;stroke-width:1.19553;stroke-linecap:butt;stroke-linejoin:miter;stroke-miterlimit:10;stroke-dasharray:none;stroke-opacity:1"
       transform="matrix(1.3333333,0,0,-1.3333333,65.413333,209.50533)" />
    <g
       id="g3"
       aria-label="p−q"
       transform="matrix(1.3333333,0,0,1.3333333,73.428,87.341333)">
      <path
         id="path4"
         d="m 0.44657812,1.2176328 c -0.0820313,0.3398438 -0.09375,0.4101563 -0.5390625,0.4101563 -0.1171875,0 -0.22265625,0 -0.22265625,0.1875 0,0.082031 0.046875,0.1171875 0.12890625,0.1171875 0.26953125,0 0.55078125,-0.035156 0.83203125,-0.035156 0.328125,0 0.66796873,0.035156 0.98437503,0.035156 0.058594,0 0.1875,0 0.1875,-0.1992188 0,-0.1054687 -0.1054688,-0.1054687 -0.2460938,-0.1054687 -0.4921875,0 -0.4921875,-0.070312 -0.4921875,-0.1640625 0,-0.1171875 0.421875,-1.74609379 0.4804688,-1.99218754 0.140625,0.29296875 0.4101562,0.6328125 0.9257812,0.6328125 1.1484375,0 2.4023438,-1.45312496 2.4023438,-2.91796876 0,-0.9375 -0.5742188,-1.59375 -1.3359375,-1.59375 -0.4921875,0 -0.9726563,0.3632813 -1.3007813,0.75 -0.09375,-0.5390625 -0.5273437,-0.75 -0.890625,-0.75 -0.45703123,0 -0.65624998,0.3867188 -0.73828123,0.5742188 -0.1875,0.3398437 -0.31640625,0.9375 -0.31640625,0.9609375 0,0.1054687 0.10546875,0.1054687 0.12890625,0.1054687 0.09375,0 0.10546875,-0.011719 0.1640625,-0.234375 0.1640625,-0.703125 0.36328125,-1.1835937 0.72656253,-1.1835937 0.1757812,0 0.3046875,0.082031 0.3046875,0.4570312 0,0.234375 -0.023437,0.3398438 -0.070312,0.5039063 z M 2.2043906,-3.1065859 c 0.070312,-0.2695313 0.3398438,-0.5507813 0.515625,-0.703125 0.3515625,-0.3046875 0.6328125,-0.375 0.8085938,-0.375 0.3984375,0 0.6328125,0.3515625 0.6328125,0.9375 0,0.5859375 -0.328125,1.734375 -0.5039063,2.109375 -0.3398437,0.70312496 -0.8203125,1.03124996 -1.1835937,1.03124996 -0.65625,0 -0.7851563,-0.83203125 -0.7851563,-0.890625 0,-0.0234375 0,-0.0351563 0.023437,-0.16406246 z m 0,0"
         style="fill:#000000;fill-opacity:1;fill-rule:nonzero;stroke:none" />
      <path
         id="path5"
         d="m 13.788375,-2.2979922 c 0.175781,0 0.351562,0 0.351562,-0.1992187 0,-0.1992188 -0.175781,-0.1992188 -0.351562,-0.1992188 H 8.39775 c -0.1640625,0 -0.3398438,0 -0.3398438,0.1992188 0,0.1992187 0.1757813,0.1992187 0.3398438,0.1992187 z m 0,0"
         style="fill:#000000;fill-opacity:1;fill-rule:nonzero;stroke:none" />
      <path
         id="path6"
         d="m 21.689742,-4.2901797 c 0,-0.046875 -0.02344,-0.1054687 -0.09375,-0.1054687 -0.117187,0 -0.515625,0.3984375 -0.679687,0.6914062 -0.222657,-0.5390625 -0.609375,-0.703125 -0.925782,-0.703125 -1.171875,0 -2.402343,1.4765625 -2.402343,2.9179688 0,0.98437496 0.585937,1.59374996 1.3125,1.59374996 0.433593,0 0.820312,-0.234375 1.183593,-0.59765625 -0.09375,0.3515625 -0.421875,1.69921879 -0.457031,1.79296879 -0.08203,0.2695312 -0.152344,0.3164062 -0.714844,0.328125 -0.128906,0 -0.222656,0 -0.222656,0.1992187 0,0 0,0.1054688 0.128906,0.1054688 0.316407,0 0.667969,-0.035156 0.996094,-0.035156 0.328125,0 0.691406,0.035156 1.019531,0.035156 0.04687,0 0.175782,0 0.175782,-0.1992188 0,-0.1054687 -0.09375,-0.1054687 -0.257813,-0.1054687 -0.46875,0 -0.46875,-0.070312 -0.46875,-0.1640625 0,-0.070312 0.01172,-0.1289063 0.03516,-0.2226563 z m -2.753906,4.18359376 c -0.597656,0 -0.644531,-0.7734375 -0.644531,-0.93749996 0,-0.4804688 0.292968,-1.5703125 0.457031,-1.9804688 0.316406,-0.7382812 0.832031,-1.1601562 1.242187,-1.1601562 0.644532,0 0.785157,0.8085937 0.785157,0.8789062 0,0.058594 -0.550782,2.2382813 -0.574219,2.2734375 -0.152344,0.28125001 -0.714844,0.92578126 -1.265625,0.92578126 z m 0,0"
         style="fill:#000000;fill-opacity:1;fill-rule:nonzero;stroke:none" />
    </g>
    <path
       id="path7"
       d="m 106.31609,0 c 0,5.63745 2.24067,11.04686 6.22694,15.03314"
       style="fill:none;stroke:#000000;stroke-width:1.19553;stroke-linecap:butt;stroke-linejoin:miter;stroke-miterlimit:10;stroke-dasharray:none;stroke-opacity:1"
       transform="matrix(1.3333333,0,0,-1.3333333,65.413333,209.50533)" />
    <g
       id="g7"
       aria-label="p+q"
       transform="matrix(1.3333333,0,0,1.3333333,175.49733,195.08)">
      <path
         id="path8"
         d="M 0.44438281,1.2173437 C 0.36235156,1.5571875 0.35063281,1.6275 -0.09467969,1.6275 c -0.1171875,0 -0.22265625,0 -0.22265625,0.1875 0,0.082031 0.046875,0.1171875 0.12890625,0.1171875 0.26953125,0 0.55078125,-0.035156 0.83203125,-0.035156 0.328125,0 0.66796874,0.035156 0.98437504,0.035156 0.058594,0 0.1875,0 0.1875,-0.1992188 C 1.8154766,1.6275 1.7100078,1.6275 1.5693828,1.6275 c -0.4921875,0 -0.4921875,-0.070312 -0.4921875,-0.1640625 0,-0.1171875 0.421875,-1.74609375 0.4804688,-1.9921875 0.140625,0.29296875 0.4101562,0.6328125 0.9257812,0.6328125 1.1484375,0 2.4023438,-1.453125 2.4023438,-2.9179688 0,-0.9375 -0.5742188,-1.59375 -1.3359375,-1.59375 -0.4921875,0 -0.9726563,0.3632813 -1.3007813,0.75 -0.09375,-0.5390625 -0.5273437,-0.75 -0.890625,-0.75 -0.45703124,0 -0.65624999,0.3867188 -0.73828124,0.5742188 -0.1875,0.3398437 -0.31640625,0.9375 -0.31640625,0.9609375 0,0.1054687 0.10546875,0.1054687 0.12890625,0.1054687 0.09375,0 0.10546875,-0.011719 0.1640625,-0.234375 C 0.76078906,-3.7045313 0.96000781,-4.185 1.3232891,-4.185 c 0.1757812,0 0.3046875,0.082031 0.3046875,0.4570312 0,0.234375 -0.023437,0.3398438 -0.070312,0.5039063 z M 2.2021953,-3.106875 c 0.070312,-0.2695313 0.3398438,-0.5507813 0.515625,-0.703125 0.3515625,-0.3046875 0.6328125,-0.375 0.8085938,-0.375 0.3984375,0 0.6328125,0.3515625 0.6328125,0.9375 0,0.5859375 -0.328125,1.734375 -0.5039063,2.109375 -0.3398437,0.703125 -0.8203125,1.03125 -1.1835937,1.03125 -0.65625,0 -0.7851563,-0.83203125 -0.7851563,-0.890625 0,-0.0234375 0,-0.0351563 0.023437,-0.1640625 z m 0,0"
         style="fill:#000000;fill-opacity:1;fill-rule:nonzero;stroke:none" />
      <path
         id="path9"
         d="m 11.304734,-2.2982813 h 2.777344 c 0.140625,0 0.328125,0 0.328125,-0.1992187 0,-0.1992188 -0.1875,-0.1992188 -0.328125,-0.1992188 h -2.777344 v -2.7890625 c 0,-0.1289062 0,-0.328125 -0.199218,-0.328125 -0.199219,0 -0.199219,0.1992188 -0.199219,0.328125 v 2.7890625 H 8.1172344 c -0.140625,0 -0.328125,0 -0.328125,0.1992188 0,0.1992187 0.1875,0.1992187 0.328125,0.1992187 H 10.906297 V 0.5025 c 0,0.12890625 0,0.328125 0.199219,0.328125 0.199218,0 0.199218,-0.19921875 0.199218,-0.328125 z m 0,0"
         style="fill:#000000;fill-opacity:1;fill-rule:nonzero;stroke:none" />
      <path
         id="path10"
         d="m 21.687547,-4.2904688 c 0,-0.046875 -0.02344,-0.1054687 -0.09375,-0.1054687 -0.117188,0 -0.515625,0.3984375 -0.679688,0.6914062 -0.222656,-0.5390625 -0.609375,-0.703125 -0.925781,-0.703125 -1.171875,0 -2.402344,1.4765625 -2.402344,2.9179688 0,0.984375 0.585938,1.59375 1.3125,1.59375 0.433594,0 0.820313,-0.234375 1.183594,-0.59765625 -0.09375,0.3515625 -0.421875,1.69921875 -0.457031,1.79296875 -0.08203,0.2695312 -0.152344,0.3164062 -0.714844,0.328125 -0.128906,0 -0.222656,0 -0.222656,0.1992187 0,0 0,0.1054688 0.128906,0.1054688 0.316406,0 0.667969,-0.035156 0.996094,-0.035156 0.328125,0 0.691406,0.035156 1.019531,0.035156 0.04687,0 0.175781,0 0.175781,-0.1992188 0,-0.1054687 -0.09375,-0.1054687 -0.257812,-0.1054687 -0.46875,0 -0.46875,-0.070312 -0.46875,-0.1640625 0,-0.070312 0.01172,-0.1289063 0.03516,-0.2226563 z m -2.753906,4.1835938 c -0.597657,0 -0.644532,-0.7734375 -0.644532,-0.9375 0,-0.4804688 0.292969,-1.5703125 0.457032,-1.9804688 C 19.062547,-3.763125 19.578172,-4.185 19.988328,-4.185 c 0.644531,0 0.785156,0.8085937 0.785156,0.8789062 0,0.058594 -0.550781,2.2382813 -0.574218,2.2734375 -0.152344,0.28125005 -0.714844,0.9257813 -1.265625,0.9257813 z m 0,0"
         style="fill:#000000;fill-opacity:1;fill-rule:nonzero;stroke:none" />
    </g>
    <path
       id="path11"
       d="M 8.3902734,2.03125e-4 V -0.35135937 c -0.7734375,0 -0.9960937,0 -1.1601562,-0.48046875 L 4.6285547,-8.3201094 c -0.046875,-0.140625 -0.070312,-0.2109375 -0.2460938,-0.2109375 -0.1640625,0 -0.1875,0.035156 -0.2460937,0.2226563 L 1.6402734,-1.1599531 C 1.4644922,-0.66776562 1.1363672,-0.36307812 0.37464844,-0.35135937 V 2.03125e-4 L 1.5230859,-0.02323437 c 0.328125,0 0.9023438,0 1.21875,0.023437495 V -0.35135937 c -0.5039062,-0.0117188 -0.8085937,-0.2578125 -0.8085937,-0.59765625 0,-0.0703125 0,-0.09375 0.058594,-0.24609378 l 0.5507813,-1.59375 h 3.0117187 l 0.65625,1.87500003 c 0.070312,0.15234375 0.070312,0.17578125 0.070312,0.2109375 0,0.3515625 -0.6210937,0.3515625 -0.9140625,0.3515625 V 2.03125e-4 c 0.2695313,-0.023437495 1.21875,-0.023437495 1.5585938,-0.023437495 0.328125,0 1.1953125,0 1.4648439,0.023437495 z M 5.4371484,-3.1287031 H 2.6598047 l 1.3945312,-3.984375 z m 0,0"
       style="fill:#000000;fill-opacity:1;fill-rule:nonzero;stroke:none"
       aria-label="A"
       transform="matrix(1.3333333,0,0,1.3333333,49.02,34.710667)" />
    <path
       id="path12"
       d="m 7.7918828,-2.7759375 c 0,-0.1289062 0,-0.1992187 -0.1289062,-0.1992187 -0.1171875,0 -0.1289063,0.058594 -0.1289063,0.140625 -0.1171875,1.89843745 -1.5,2.74218745 -2.6601562,2.74218745 -0.8320313,0 -3.1171875,-0.50390625 -3.1171875,-3.99609375 0,-3.4570312 2.25,-3.984375 3.1054687,-3.984375 1.2539063,0 2.3554688,1.0664063 2.5898438,2.859375 0.035156,0.1523438 0.035156,0.1875 0.1757812,0.1875 0.1640625,0 0.1640625,-0.035156 0.1640625,-0.28125 V -8.143125 c 0,-0.2109375 0,-0.2695312 -0.1171875,-0.2695312 -0.070312,0 -0.082031,0.023437 -0.1523437,0.140625 l -0.5859375,0.9492187 c -0.5390625,-0.6679687 -1.359375,-1.0898437 -2.2148438,-1.0898437 -2.1914062,0 -4.07812499,1.8867187 -4.07812499,4.3242187 0,2.4726563 1.91015629,4.3359375 4.07812499,4.3359375 1.9570313,0 3.0703125,-1.6992187 3.0703125,-3.0234375 z m 0,0"
       style="fill:#000000;fill-opacity:1;fill-rule:nonzero;stroke:none"
       aria-label="C"
       transform="matrix(1.3333333,0,0,1.3333333,49.450667,225.42)" />
    <path
       id="path13"
       d="m 7.6281797,-2.1909531 c 0,-0.9609375 -0.8789063,-1.921875 -2.296875,-2.0742188 1.1367187,-0.2226562 1.9570312,-0.984375 1.9570312,-1.875 0,-1.03125 -1.0429687,-2.0273437 -2.6015625,-2.0273437 H 0.51489844 v 0.3515625 h 0.234375 c 0.86718746,0 0.90234376,0.1171875 0.90234376,0.5625 v 6.33984373 c 0,0.4453125 -0.035156,0.5625 -0.90234376,0.5625 h -0.234375 V 4.53125e-4 H 5.0031797 c 1.546875,0 2.625,-1.042968725 2.625,-2.191406225 z M 6.2336484,-6.1401719 c 0,0.7851563 -0.6210937,1.78125 -1.9453125,1.78125 h -1.734375 v -2.9765625 c 0,-0.3984375 0.023437,-0.4804687 0.5507813,-0.4804687 h 1.5117187 c 1.1953125,0 1.6171875,1.03125 1.6171875,1.6757812 z m 0.3046875,3.9375 c 0,0.9726563 -0.7265625,1.85156253 -1.8984375,1.85156253 H 3.1047422 c -0.5273438,0 -0.5507813,-0.0820313 -0.5507813,-0.46875 V -4.1245469 h 2.2382813 c 1.1484375,0 1.7460937,1.0078125 1.7460937,1.921875 z m 0,0"
       style="fill:#000000;fill-opacity:1;fill-rule:nonzero;stroke:none"
       aria-label="B"
       transform="matrix(1.3333333,0,0,1.3333333,240.208,225.08533)" />
    <g
       id="g13"
       aria-label="2&#10;√"
       transform="matrix(1.3333333,0,0,1.3333333,23.324,130.56)">
      <path
         id="path14"
         d="M 5.2618828,-2.0049609 H 4.9923516 c -0.035156,0.1992187 -0.1289063,0.8554687 -0.2460938,1.04296871 -0.082031,0.1171875 -0.7617187,0.1171875 -1.125,0.1171875 H 1.4064141 c 0.328125,-0.28125001 1.0546875,-1.04296871 1.3710937,-1.33593751 1.8164063,-1.6640625 2.484375,-2.2851562 2.484375,-3.46875 0,-1.3828125 -1.0898437,-2.296875 -2.4726562,-2.296875 -1.3945313,0 -2.20312504,1.1835938 -2.20312504,2.203125 0,0.609375 0.52734374,0.609375 0.56250004,0.609375 0.2460937,0 0.5625,-0.1757812 0.5625,-0.5625 0,-0.328125 -0.234375,-0.5507812 -0.5625,-0.5507812 -0.1054688,0 -0.1289063,0 -0.16406254,0.011719 0.22265624,-0.8203125 0.86718754,-1.3710937 1.64062504,-1.3710937 1.0195312,0 1.640625,0.8554687 1.640625,1.9570312 0,1.0078125 -0.5859375,1.8984375 -1.265625,2.6601563 l -2.41406254,2.70703121 v 0.28125 H 4.9454766 Z m 0,0"
         style="fill:#000000;fill-opacity:1;fill-rule:nonzero;stroke:none" />
      <path
         id="path15"
         d="M 10.506023,0.37980469 8.3966484,-4.2725391 c -0.082031,-0.1875 -0.140625,-0.1875 -0.1757812,-0.1875 -0.011719,0 -0.070312,0 -0.1992188,0.09375 l -1.1367187,0.8671875 c -0.1640625,0.1171875 -0.1640625,0.1523438 -0.1640625,0.1875 0,0.058594 0.046875,0.1289063 0.1289062,0.1289063 0.070312,0 0.2695313,-0.1640625 0.3984375,-0.2578125 0.070312,-0.058594 0.2578125,-0.1992188 0.3867188,-0.2929688 l 2.3554687,5.1796875 c 0.082032,0.1875 0.1406246,0.1875 0.2460936,0.1875 0.1875,0 0.222656,-0.070312 0.304688,-0.234375 l 5.425781,-11.2382812 c 0.08203,-0.1640627 0.08203,-0.2109377 0.08203,-0.2343747 0,-0.128907 -0.09375,-0.246094 -0.234375,-0.246094 -0.09375,0 -0.1875,0.05859 -0.28125,0.257812 z m 0,0"
         style="fill:#000000;fill-opacity:1;fill-rule:nonzero;stroke:none" />
    </g>
    <path
       id="path16"
       d="m -7.124,-75.045 h 5.852"
       style="fill:none;stroke:#000000;stroke-width:0.4782;stroke-linecap:butt;stroke-linejoin:miter;stroke-miterlimit:10;stroke-dasharray:none;stroke-opacity:1"
       transform="matrix(1.3333333,0,0,-1.3333333,53.910667,17.061333)" />
    <path
       id="path17"
       d="m 2.2017422,-4.2901172 c -0.2109375,0.011719 -0.2578125,0.023437 -0.2578125,0.1289063 0,0.1171875 0.058594,0.1171875 0.28125,0.1171875 h 0.5507812 c 1.0078125,0 1.4648438,0.84375 1.4648438,1.9921875 0,1.55859371 -0.8085938,1.98046871 -1.3945313,1.98046871 -0.5742187,0 -1.5585937,-0.28125 -1.89843746,-1.06640621 0.37499996,0.058594 0.72656246,-0.1523438 0.72656246,-0.5859375 0,-0.3398438 -0.2578125,-0.5859375 -0.5859375,-0.5859375 -0.29296871,0 -0.59765621,0.1640625 -0.59765621,0.6210937 0,1.06640626 1.06640621,1.93359376 2.39062501,1.93359376 1.4179687,0 2.4726562,-1.078125 2.4726562,-2.28515626 0,-1.1015625 -0.890625,-1.96875 -2.0273437,-2.1679687 1.03125,-0.3046875 1.6992187,-1.171875 1.6992187,-2.109375 0,-0.9375 -0.9726562,-1.6289063 -2.1328125,-1.6289063 -1.1953125,0 -2.08593746,0.7265625 -2.08593746,1.59375 0,0.4804688 0.37499996,0.5742188 0.55078126,0.5742188 0.2578125,0 0.5390625,-0.1757813 0.5390625,-0.5390625 0,-0.375 -0.28125,-0.5390625 -0.5507813,-0.5390625 -0.070312,0 -0.09375,0 -0.1289062,0.011719 0.4570312,-0.8203125 1.5820312,-0.8203125 1.640625,-0.8203125 0.3867187,0 1.171875,0.1757813 1.171875,1.3476563 0,0.234375 -0.035156,0.9023437 -0.3867188,1.4179687 -0.3515625,0.5273438 -0.7617187,0.5625 -1.0898437,0.5742188 z m 0,0"
       style="fill:#000000;fill-opacity:1;fill-rule:nonzero;stroke:none"
       aria-label="3"
       transform="matrix(1.3333333,0,0,1.3333333,44.412,130.56)" />
    <path
       id="path18"
       d="M 5.2615938,-2.0053438 H 4.9920625 c -0.035156,0.1992188 -0.1289062,0.8554688 -0.2460937,1.0429688 -0.082031,0.1171875 -0.7617188,0.1171875 -1.125,0.1171875 H 1.406125 c 0.328125,-0.28125 1.0546875,-1.0429688 1.3710938,-1.3359375 1.8164062,-1.6640625 2.484375,-2.2851563 2.484375,-3.46875 0,-1.3828125 -1.0898438,-2.296875 -2.4726563,-2.296875 -1.3945312,0 -2.203125,1.1835937 -2.203125,2.203125 0,0.609375 0.5273438,0.609375 0.5625,0.609375 0.2460938,0 0.5625,-0.1757813 0.5625,-0.5625 0,-0.328125 -0.234375,-0.5507813 -0.5625,-0.5507813 -0.1054687,0 -0.1289062,0 -0.1640625,0.011719 0.2226563,-0.8203125 0.8671875,-1.3710938 1.640625,-1.3710938 1.0195313,0 1.640625,0.8554688 1.640625,1.9570313 0,1.0078125 -0.5859375,1.8984375 -1.265625,2.6601562 l -2.4140625,2.7070313 v 0.28125 h 4.359375 z m 0,0"
       style="fill:#000000;fill-opacity:1;fill-rule:nonzero;stroke:none"
       aria-label="2"
       transform="matrix(1.3333333,0,0,1.3333333,146.56267,224.47067)" />
  </g>
</svg>
