<svg xmlns="http://www.w3.org/2000/svg" width="194.97568pt" height="108.62216pt" viewBox="-72 -72 194.97568 108.62216" style="position: absolute; top: 0pt; left: 0pt; overflow: visible;">
<g transform="translate(-21.11538696289062,-17.958923339843746)">
<g stroke-miterlimit="10" transform="scale(1,-1)"><g stroke="#000" fill="#000">
 <g stroke-width="0.4">
 <g stroke-width="0.8">
 <path d=" M 102.44934 0.0 M 143.42107 0.0 C 143.42107 22.62834 125.07768 40.97173 102.44934 40.97173 C 79.821 40.97173 61.47762 22.62834 61.47762 0.0 C 61.47762 -22.62834 79.821 -40.97173 102.44934 -40.97173 C 125.07768 -40.97173 143.42107 -22.62834 143.42107 0.0 Z M 102.44934 0.0  " fill="none"/>
 </g>
 <g stroke-width="0.8">
 <path d=" M -34.14977 0.0 L 137.49402 53.91109  " fill="none"/>
 </g>
 <g stroke-width="0.8">
 <path d=" M -34.14977 0.0 L 137.49402 -53.91109  " fill="none"/>
 </g>
 <g stroke-width="0.8">
 <path d=" M 102.44934 0.0 L 88.45348 38.50809  " fill="none"/>
 </g>
 <g stroke-width="0.8">
 <path d=" M 102.44934 0.0 L 88.45348 -38.50809  " fill="none"/>
 </g>
 <path d=" M 90.5702 32.7384 L 84.47179 30.82585 L 82.33879 36.58961  " fill="none"/>
 <path d=" M 90.5702 -32.7384 L 84.47179 -30.82585 L 82.33879 -36.58961  " fill="none"/>
 <path d=" M 4.93712 12.27666 C 7.39284 4.36652 7.39284 -4.1077 4.93712 -12.01784  " fill="none"/>
 <g transform="translate(-44.48831,-3.41666)">
 <g stroke="none" transform="scale(-1.00375,1.00375)translate(-17.78205871582031,-17.958923339843746)scale(-1,-1)"><g fill="#000">
 <g stroke="none"> <text alignment-baseline="baseline" y="-17.958923339843746" x="-17.78205871582031" style="font-family: cmr10;" font-size="10">P</text>
</g> </g>
 </g></g>
 <g transform="translate(91.98645,42.04106)">
 <g stroke="none" transform="scale(-1.00375,1.00375)translate(-17.78205871582031,-17.958923339843746)scale(-1,-1)"><g fill="#000">
 <g stroke="none"> <text alignment-baseline="baseline" y="-17.958923339843746" x="-17.78205871582031" style="font-family: cmr10;" font-size="10">A</text>
</g> </g>
 </g></g>
 <g transform="translate(91.98645,-48.87437)">
 <g stroke="none" transform="scale(-1.00375,1.00375)translate(-17.78205871582031,-17.958923339843746)scale(-1,-1)"><g fill="#000">
 <g stroke="none"> <text alignment-baseline="baseline" y="-17.958923339843746" x="-17.78205871582031" style="font-family: cmr10;" font-size="10">B</text>
</g> </g>
 </g></g>
 <g transform="translate(105.38898,-3.41666)">
 <g stroke="none" transform="scale(-1.00375,1.00375)translate(-17.78205871582031,-17.958923339843746)scale(-1,-1)"><g fill="#000">
 <g stroke="none"> <text alignment-baseline="baseline" y="-17.958923339843746" x="-17.78205871582031" style="font-family: cmr10;" font-size="10">O</text>
</g> </g>
 </g></g>
 <g transform="translate(-10.71974,-3.44293)">
 <g stroke="none" transform="scale(-1.00375,1.00375)translate(-17.78205871582031,-17.958923339843746)scale(-1,-1)"><g fill="#000">
 <g stroke="none"> <text alignment-baseline="baseline" y="-17.958923339843746" x="-17.78205871582031" style="font-family: cmr10;" font-size="10">35</text>
<text alignment-baseline="baseline" y="-21.58784484863281" x="-7.7820205688476545" style="font-family: cmsy7;" font-size="7">◦</text>
</g> </g>
 </g></g>
 </g>
 </g>
 </g></g></svg>