<svg xmlns="http://www.w3.org/2000/svg" width="199.05252pt" height="176.82802pt" viewBox="-72 -72 199.05252 176.82802" style="position: absolute; top: 0pt; left: 0pt; overflow: visible;">
<g transform="translate(27.46458435058593,18.799789428710934)">
<g stroke-miterlimit="10" transform="scale(1,-1)"><g stroke="#000" fill="#000">
 <g stroke-width="0.4">
 <g stroke-width="0.8">
 <path d=" M 0.0 0.0 M 85.35823 0.0 C 85.35823 47.14265 47.14265 85.35823 0.0 85.35823 C -47.14265 85.35823 -85.35823 47.14265 -85.35823 0.0 C -85.35823 -47.14265 -47.14265 -85.35823 0.0 -85.35823 C 47.14265 -85.35823 85.35823 -47.14265 85.35823 0.0 Z M 0.0 0.0  " fill="none"/>
 </g>
 <path d=" M 0.0 0.0 M 2.25 0.0 C 2.25 1.24265 1.24265 2.25 0.0 2.25 C -1.24265 2.25 -2.25 1.24265 -2.25 0.0 C -2.25 -1.24265 -1.24265 -2.25 0.0 -2.25 C 1.24265 -2.25 2.25 -1.24265 2.25 0.0 Z M 0.0 0.0  " stroke="none"/>
 <g stroke-width="0.8">
 <path d=" M -85.36864 0.0 L 85.36864 0.0  " fill="none"/>
 </g>
 <g stroke-width="0.8">
 <path d=" M -85.36864 0.0 L -36.0787 77.37053  " fill="none"/>
 </g>
 <g stroke-width="0.8">
 <path d=" M -36.0787 77.37053 L 77.37053 36.0787  " fill="none"/>
 </g>
 <g stroke-width="0.8">
 <path d=" M 77.37053 36.0787 L 85.36864 0.0  " fill="none"/>
 </g>
 <g stroke-width="0.8">
 <path d=" M -85.36864 0.0 L 77.37053 36.0787  " fill="none"/>
 </g>
 <g stroke-width="0.8">
 <path d=" M -85.36864 0.0 M -59.76093 0.0 C -59.76093 1.93768 -59.9817 3.87265 -60.41737 5.76031  " fill="none"/>
 </g>
 <g transform="translate(-41.44203,1.67834)">
 <g stroke="none" transform="scale(-1.00375,1.00375)translate(30.797912597656243,18.799789428710934)scale(-1,-1)"><g fill="#000">
 <g stroke="none"> <text alignment-baseline="baseline" y="18.799789428710934" x="30.797912597656243" style="font-family: cmr10;" font-size="10">20</text>
<text alignment-baseline="baseline" y="15.170867919921871" x="40.7979507446289" style="font-family: cmsy7;" font-size="7">◦</text>
</g> </g>
 </g></g>
 <g transform="translate(-96.40161,-3.41666)">
 <g stroke="none" transform="scale(-1.00375,1.00375)translate(30.797912597656243,18.799789428710934)scale(-1,-1)"><g fill="#000">
 <g stroke="none"> <text alignment-baseline="baseline" y="18.799789428710934" x="30.797912597656243" style="font-family: cmr10;" font-size="10">A</text>
</g> </g>
 </g></g>
 <g transform="translate(88.90161,-3.41666)">
 <g stroke="none" transform="scale(-1.00375,1.00375)translate(30.797912597656243,18.799789428710934)scale(-1,-1)"><g fill="#000">
 <g stroke="none"> <text alignment-baseline="baseline" y="18.799789428710934" x="30.797912597656243" style="font-family: cmr10;" font-size="10">B</text>
</g> </g>
 </g></g>
 <g transform="translate(80.9035,39.61168)">
 <g stroke="none" transform="scale(-1.00375,1.00375)translate(30.797912597656243,18.799789428710934)scale(-1,-1)"><g fill="#000">
 <g stroke="none"> <text alignment-baseline="baseline" y="18.799789428710934" x="30.797912597656243" style="font-family: cmr10;" font-size="10">C</text>
</g> </g>
 </g></g>
 <g transform="translate(-47.25056,80.9035)">
 <g stroke="none" transform="scale(-1.00375,1.00375)translate(30.797912597656243,18.799789428710934)scale(-1,-1)"><g fill="#000">
 <g stroke="none"> <text alignment-baseline="baseline" y="18.799789428710934" x="30.797912597656243" style="font-family: cmr10;" font-size="10">D</text>
</g> </g>
 </g></g>
 <g transform="translate(-3.8889,-10.36629)">
 <g stroke="none" transform="scale(-1.00375,1.00375)translate(30.797912597656243,18.799789428710934)scale(-1,-1)"><g fill="#000">
 <g stroke="none"> <text alignment-baseline="baseline" y="18.799789428710934" x="30.797912597656243" style="font-family: cmr10;" font-size="10">O</text>
</g> </g>
 </g></g>
 </g>
 </g>
 </g></g></svg>