<svg xmlns="http://www.w3.org/2000/svg" width="165.46991pt" height="146.92274pt" viewBox="-72 -72 165.46991 146.92274" style="position: absolute; top: 0pt; left: 0pt; overflow: visible;">
<g transform="translate(10.67329406738281,60.95347595214842)">
<g stroke-miterlimit="10" transform="scale(1,-1)"><g stroke="#000" fill="#000">
 <g stroke-width="0.4">
 <g stroke-width="0.8">
 <path d=" M 0.0 119.52422 L -68.29955 0.0 L 68.29955 0.0 Z  " fill="none"/>
 </g>
 <g stroke-width="0.8">
 <path d=" M 0.0 119.52422 L 0.0 0.0  " fill="none"/>
 </g>
 <g stroke-width="0.8">
 <path d=" M -34.14977 59.7621 L 34.14977 59.7621  " fill="none"/>
 </g>
 <g transform="translate(-3.40279,123.05719)">
 <g stroke="none" transform="scale(-1.00375,1.00375)translate(14.006622314453121,60.95347595214842)scale(-1,-1)"><g fill="#000">
 <g stroke="none"> <text alignment-baseline="baseline" y="60.95347595214842" x="14.006622314453121" style="font-family: cmr10;" font-size="10">P</text>
</g> </g>
 </g></g>
 <g transform="translate(-79.61032,-2.44444)">
 <g stroke="none" transform="scale(-1.00375,1.00375)translate(14.006622314453121,60.95347595214842)scale(-1,-1)"><g fill="#000">
 <g stroke="none"> <text alignment-baseline="baseline" y="60.95347595214842" x="14.006622314453121" style="font-family: cmr10;" font-size="10">Q</text>
</g> </g>
 </g></g>
 <g transform="translate(71.83252,-3.41666)">
 <g stroke="none" transform="scale(-1.00375,1.00375)translate(14.006622314453121,60.95347595214842)scale(-1,-1)"><g fill="#000">
 <g stroke="none"> <text alignment-baseline="baseline" y="60.95347595214842" x="14.006622314453121" style="font-family: cmr10;" font-size="10">R</text>
</g> </g>
 </g></g>
 <g transform="translate(-2.77779,-10.36629)">
 <g stroke="none" transform="scale(-1.00375,1.00375)translate(14.006622314453121,60.95347595214842)scale(-1,-1)"><g fill="#000">
 <g stroke="none"> <text alignment-baseline="baseline" y="60.95347595214842" x="14.006622314453121" style="font-family: cmr10;" font-size="10">S</text>
</g> </g>
 </g></g>
 <g transform="translate(-45.32162,56.34544)">
 <g stroke="none" transform="scale(-1.00375,1.00375)translate(14.006622314453121,60.95347595214842)scale(-1,-1)"><g fill="#000">
 <g stroke="none"> <text alignment-baseline="baseline" y="60.95347595214842" x="14.006622314453121" style="font-family: cmr10;" font-size="10">D</text>
</g> </g>
 </g></g>
 <g transform="translate(37.68274,56.34544)">
 <g stroke="none" transform="scale(-1.00375,1.00375)translate(14.006622314453121,60.95347595214842)scale(-1,-1)"><g fill="#000">
 <g stroke="none"> <text alignment-baseline="baseline" y="60.95347595214842" x="14.006622314453121" style="font-family: cmr10;" font-size="10">E</text>
</g> </g>
 </g></g>
 </g>
 </g>
 </g></g></svg>