<svg xmlns="http://www.w3.org/2000/svg" width="142.12622pt" height="79.22502pt" viewBox="-72 -72 142.12622 79.22502" style="position: absolute; top: 0pt; left: 0pt; overflow: visible;">
<g transform="translate(-58.32070922851561,0.20538330078124994)">
<g stroke-miterlimit="10" transform="scale(1,-1)"><g stroke="#000" fill="#000">
 <g stroke-width="0.4">
 <g stroke-width="0.8">
 <path d=" M 0.0 0.0 L 113.81097 65.72575  " fill="none"/>
 </g>
 <g stroke-width="0.8">
 <path d=" M 113.81097 65.72575 L 113.81097 0.0  " fill="none"/>
 </g>
 <g stroke-width="0.8">
 <path d=" M 113.81097 0.0 L 0.0 0.0  " fill="none"/>
 </g>
 <path d=" M 105.27505 0.0 L 105.27505 8.5359 L 113.81097 8.5359  " fill="none"/>
 <path d=" M 22.76227 0.0 C 22.76227 3.99457 21.70987 7.92178 19.71275 11.38113  " fill="none"/>
 <g transform="translate(23.99956,3.67024)">
 <g stroke="none" transform="scale(-1.00375,1.00375)translate(-54.9873809814453,0.20538330078124994)scale(-1,-1)"><g fill="#000">
 <g stroke="none"> <text alignment-baseline="baseline" y="0.20538330078124994" x="-54.9873809814453" style="font-family: cmr10;" font-size="10">30</text>
<text alignment-baseline="baseline" y="-3.4235382080078116" x="-44.98734283447265" style="font-family: cmsy7;" font-size="7">◦</text>
</g> </g>
 </g></g>
 <g transform="translate(34.55124,43.36664)">
 <g stroke="none" transform="scale(-1.00375,1.00375)translate(-54.9873809814453,0.20538330078124994)scale(-1,-1)"><g fill="#000">
 <g stroke="none"> <text alignment-baseline="baseline" y="0.20538330078124994" x="-54.9873809814453" style="font-family: cmr10;" font-size="10">20</text>
<text alignment-baseline="baseline" y="0.20538330078124994" x="-41.65401458740234" style="font-family: cmr10;" font-size="10">m</text>
</g> </g>
 </g></g>
 <g transform="translate(-10.61632,-3.41666)">
 <g stroke="none" transform="scale(-1.00375,1.00375)translate(-54.9873809814453,0.20538330078124994)scale(-1,-1)"><g fill="#000">
 <g stroke="none"> <text alignment-baseline="baseline" y="0.20538330078124994" x="-54.9873809814453" style="font-family: cmr10;" font-size="10">B</text>
</g> </g>
 </g></g>
 <g transform="translate(117.34395,-3.41666)">
 <g stroke="none" transform="scale(-1.00375,1.00375)translate(-54.9873809814453,0.20538330078124994)scale(-1,-1)"><g fill="#000">
 <g stroke="none"> <text alignment-baseline="baseline" y="0.20538330078124994" x="-54.9873809814453" style="font-family: cmr10;" font-size="10">C</text>
</g> </g>
 </g></g>
 <g transform="translate(117.34395,62.3091)">
 <g stroke="none" transform="scale(-1.00375,1.00375)translate(-54.9873809814453,0.20538330078124994)scale(-1,-1)"><g fill="#000">
 <g stroke="none"> <text alignment-baseline="baseline" y="0.20538330078124994" x="-54.9873809814453" style="font-family: cmr10;" font-size="10">A</text>
</g> </g>
 </g></g>
 </g>
 </g>
 </g></g></svg>