<svg xmlns="http://www.w3.org/2000/svg" width="149.88875pt" height="205.67958pt" viewBox="-72 -72 149.88875 205.67958" style="position: absolute; top: 0pt; left: 0pt; overflow: visible;">
<g transform="translate(13.192291259765621,111.67004394531247)">
<g stroke-miterlimit="10" transform="scale(1,-1)"><g stroke="#000" fill="#000">
 <g stroke-width="0.4">
 <g stroke-width="0.8">
 <path d=" M 0.0 0.0 M 64.01866 0.0 C 64.01866 11.78564 35.35698 21.33954 0.0 21.33954 C -35.35698 21.33954 -64.01866 11.78564 -64.01866 0.0 C -64.01866 -11.78564 -35.35698 -21.33954 0.0 -21.33954 C 35.35698 -21.33954 64.01866 -11.78564 64.01866 0.0 Z M 0.0 0.0  " fill="none"/>
 </g>
 <g stroke-width="0.8">
 <path d=" M 0.0 162.20052 M 64.01866 162.20052 C 64.01866 173.98616 35.35698 183.54005 0.0 183.54005 C -35.35698 183.54005 -64.01866 173.98616 -64.01866 162.20052 C -64.01866 150.41487 -35.35698 140.86098 0.0 140.86098 C 35.35698 140.86098 64.01866 150.41487 64.01866 162.20052 Z M 0.0 162.20052  " fill="none"/>
 </g>
 <g stroke-width="0.8">
 <path d=" M -64.02646 0.0 L -64.02646 162.20052  " fill="none"/>
 </g>
 <g stroke-width="0.8">
 <path d=" M 64.02646 0.0 L 64.02646 162.20052  " fill="none"/>
 </g>
 <g stroke-width="0.8">
 <path d=" M -64.02646 162.20052 L 0.0 162.20052  " fill="none"/>
 </g>
 <g stroke-width="0.8">
 <path d=" M -64.02646 0.0 L 0.0 0.0  " fill="none"/>
 </g>
 <g stroke-width="0.8">
 <path d=" M 0.0 0.0 L 0.0 162.20052  " fill="none"/>
 </g>
 <g transform="translate(-82.12932,157.28052)">
 <g stroke="none" transform="scale(-1.00375,1.00375)translate(16.525619506835934,111.67004394531247)scale(-1,-1)"><g fill="#000">
 <g stroke="none"> <text alignment-baseline="baseline" y="111.67004394531247" x="16.525619506835934" style="font-family: cmr12;" font-size="14.399993896484375">A</text>
</g> </g>
 </g></g>
 <g transform="translate(-81.54433,-4.92)">
 <g stroke="none" transform="scale(-1.00375,1.00375)translate(16.525619506835934,111.67004394531247)scale(-1,-1)"><g fill="#000">
 <g stroke="none"> <text alignment-baseline="baseline" y="111.67004394531247" x="16.525619506835934" style="font-family: cmr12;" font-size="14.399993896484375">B</text>
</g> </g>
 </g></g>
 <g transform="translate(7.53297,-4.92)">
 <g stroke="none" transform="scale(-1.00375,1.00375)translate(16.525619506835934,111.67004394531247)scale(-1,-1)"><g fill="#000">
 <g stroke="none"> <text alignment-baseline="baseline" y="111.67004394531247" x="16.525619506835934" style="font-family: cmr12;" font-size="14.399993896484375">C</text>
</g> </g>
 </g></g>
 <g transform="translate(7.53297,157.28052)">
 <g stroke="none" transform="scale(-1.00375,1.00375)translate(16.525619506835934,111.67004394531247)scale(-1,-1)"><g fill="#000">
 <g stroke="none"> <text alignment-baseline="baseline" y="111.67004394531247" x="16.525619506835934" style="font-family: cmr12;" font-size="14.399993896484375">D</text>
</g> </g>
 </g></g>
 </g>
 </g>
 </g></g></svg>