<svg xmlns="http://www.w3.org/2000/svg" width="229.24797pt" height="147.30283pt" viewBox="-72 -72 229.24797 147.30283" style="position: absolute; top: 0pt; left: 0pt; overflow: visible;">
<g transform="translate(-32.30442810058593,58.28689575195311)">
<g stroke-miterlimit="10" transform="scale(1,-1)"><g stroke="#000" fill="#000">
 <g stroke-width="0.4">
 <g stroke-width="1.6">
 <path d=" M 0.0 113.81097 L 0.0 0.0 L 170.71646 0.0 Z  " fill="none"/>
 </g>
 <g stroke-width="1.6">
 <path d=" M 0.0 0.0 L 52.52332 78.79576  " fill="none"/>
 </g>
 <g stroke-width="0.8">
 <path d=" M 0.0 0.0 M 0.0 9.95863 L 9.95863 9.95863 L 9.95863 0.0  " fill="none"/>
 </g>
 <g stroke-width="0.8">
 <path d=" M 46.9997 70.51003 L 55.28543 64.9864 L 60.80905 73.27214  " fill="none"/>
 </g>
 <g transform="translate(-6.11667,117.34395)">
 <g stroke="none" transform="scale(-1.00375,1.00375)translate(-28.971099853515618,58.28689575195311)scale(-1,-1)"><g fill="#000">
 <g stroke="none"> <text alignment-baseline="baseline" y="58.28689575195311" x="-28.971099853515618" style="font-family: cmbx12;" font-size="14.399993896484375">A</text>
</g> </g>
 </g></g>
 <g transform="translate(-15.04964,-13.41295)">
 <g stroke="none" transform="scale(-1.00375,1.00375)translate(-28.971099853515618,58.28689575195311)scale(-1,-1)"><g fill="#000">
 <g stroke="none"> <text alignment-baseline="baseline" y="58.28689575195311" x="-28.971099853515618" style="font-family: cmbx12;" font-size="14.399993896484375">B</text>
</g> </g>
 </g></g>
 <g transform="translate(174.24944,-13.41295)">
 <g stroke="none" transform="scale(-1.00375,1.00375)translate(-28.971099853515618,58.28689575195311)scale(-1,-1)"><g fill="#000">
 <g stroke="none"> <text alignment-baseline="baseline" y="58.28689575195311" x="-28.971099853515618" style="font-family: cmbx12;" font-size="14.399993896484375">C</text>
</g> </g>
 </g></g>
 <g transform="translate(56.05629,82.32874)">
 <g stroke="none" transform="scale(-1.00375,1.00375)translate(-28.971099853515618,58.28689575195311)scale(-1,-1)"><g fill="#000">
 <g stroke="none"> <text alignment-baseline="baseline" y="58.28689575195311" x="-28.971099853515618" style="font-family: cmbx12;" font-size="14.399993896484375">N</text>
</g> </g>
 </g></g>
 <g transform="translate(-33.29927,52.2655)">
 <g stroke="none" transform="scale(-1.00375,1.00375)translate(-28.971099853515618,58.28689575195311)scale(-1,-1)"><g fill="#000">
 <g stroke="none"> <text alignment-baseline="baseline" y="58.28689575195311" x="-28.971099853515618" style="font-family: cmr12;" font-size="14.399993896484375">5</text>
<text alignment-baseline="baseline" y="58.28689575195311" x="-17.221240170765665" style="font-family: cmr12;" font-size="14.399993896484375">cm</text>
</g> </g>
 </g></g>
 <g transform="translate(66.95013,-12.81294)">
 <g stroke="none" transform="scale(-1.00375,1.00375)translate(-28.971099853515618,58.28689575195311)scale(-1,-1)"><g fill="#000">
 <g stroke="none"> <text alignment-baseline="baseline" y="58.28689575195311" x="-28.971099853515618" style="font-family: cmr12;" font-size="14.399993896484375">12</text>
<text alignment-baseline="baseline" y="58.28689575195311" x="-10.171316401101647" style="font-family: cmr12;" font-size="14.399993896484375">cm</text>
</g> </g>
 </g></g>
 </g>
 </g>
 </g></g></svg>