<?xml version="1.0" encoding="UTF-8" standalone="no"?>
<!-- Created with Inkscape (http://www.inkscape.org/) -->

<svg
   version="1.1"
   id="svg1"
   width="298.42667"
   height="260.29333"
   viewBox="0 0 298.42667 260.29333"
   sodipodi:docname="upload_xzhkxo4yecyoiib6lxywbcs7k5.pdf"
   xmlns:inkscape="http://www.inkscape.org/namespaces/inkscape"
   xmlns:sodipodi="http://sodipodi.sourceforge.net/DTD/sodipodi-0.dtd"
   xmlns="http://www.w3.org/2000/svg"
   xmlns:svg="http://www.w3.org/2000/svg">
  <defs
     id="defs1" />
  <sodipodi:namedview
     id="namedview1"
     pagecolor="#ffffff"
     bordercolor="#000000"
     borderopacity="0.25"
     inkscape:showpageshadow="2"
     inkscape:pageopacity="0.0"
     inkscape:pagecheckerboard="0"
     inkscape:deskcolor="#d1d1d1">
    <inkscape:page
       x="0"
       y="0"
       inkscape:label="1"
       id="page1"
       width="298.42667"
       height="260.29333"
       margin="0"
       bleed="0" />
  </sodipodi:namedview>
  <g
     id="g1"
     inkscape:groupmode="layer"
     inkscape:label="1">
    <path
       id="path1"
       d="M 0,141.73404 V 0"
       style="fill:none;stroke:#000000;stroke-width:1.59404;stroke-linecap:butt;stroke-linejoin:miter;stroke-miterlimit:10;stroke-dasharray:none;stroke-opacity:1"
       transform="matrix(1.3333333,0,0,-1.3333333,190.07333,224.76667)" />
    <path
       id="path2"
       d="M -113.38724,0 H 0"
       style="fill:none;stroke:#000000;stroke-width:1.59404;stroke-linecap:butt;stroke-linejoin:miter;stroke-miterlimit:10;stroke-dasharray:none;stroke-opacity:1"
       transform="matrix(1.3333333,0,0,-1.3333333,190.07333,224.76667)" />
    <path
       id="path3"
       d="M -113.38724,0 0,99.21382"
       style="fill:none;stroke:#000000;stroke-width:1.59404;stroke-linecap:butt;stroke-linejoin:miter;stroke-miterlimit:10;stroke-dasharray:none;stroke-opacity:1"
       transform="matrix(1.3333333,0,0,-1.3333333,190.07333,224.76667)" />
    <path
       id="path4"
       d="M -9.92155,0 V 9.92155 H 0"
       style="fill:none;stroke:#000000;stroke-width:0.79701;stroke-linecap:butt;stroke-linejoin:miter;stroke-miterlimit:10;stroke-dasharray:none;stroke-opacity:1"
       transform="matrix(1.3333333,0,0,-1.3333333,190.07333,224.76667)" />
    <path
       id="path5"
       d="m 0,85.04042 c -4.10239,0 -8.00563,1.77861 -10.69687,4.87471"
       style="fill:none;stroke:#000000;stroke-width:0.79701;stroke-linecap:butt;stroke-linejoin:miter;stroke-miterlimit:10;stroke-dasharray:none;stroke-opacity:1"
       transform="matrix(1.3333333,0,0,-1.3333333,190.07333,224.76667)" />
    <g
       id="g5"
       aria-label="60&#10;◦"
       transform="matrix(1.3333333,0,0,1.3333333,165.61333,132.54267)">
      <path
         id="path6"
         d="m 1.4648047,-4.1599297 c 0,-3.0234375 1.4765625,-3.5039062 2.1210937,-3.5039062 0.4335938,0 0.8554688,0.1289062 1.0898438,0.4921875 -0.140625,0 -0.5976563,0 -0.5976563,0.4921875 0,0.2578125 0.1757813,0.4921875 0.4921875,0.4921875 0.2929688,0 0.4921875,-0.1875 0.4921875,-0.5273438 0,-0.6210937 -0.4453125,-1.2304687 -1.4882812,-1.2304687 -1.5117188,0 -3.08203126,1.5351562 -3.08203126,4.171875 0,3.28124996 1.42968746,4.01953121 2.44921876,4.01953121 1.3007812,0 2.4140625,-1.125 2.4140625,-2.68359371 0,-1.59375 -1.1132813,-2.6601563 -2.3085938,-2.6601563 -1.0664062,0 -1.453125,0.9257813 -1.5820312,1.265625 z m 1.4765625,4.08984376 c -0.75,0 -1.1132813,-0.66796875 -1.21875,-0.92578125 C 1.6171484,-1.3005547 1.4999609,-1.8864922 1.4999609,-2.7302422 c 0,-0.9375 0.421875,-2.1210937 1.5,-2.1210937 0.65625,0 1.0078125,0.4453125 1.1835938,0.84375 0.1875,0.4453125 0.1875,1.0429687 0.1875,1.5585937 0,0.609375 0,1.1484375 -0.2226563,1.60546876 -0.3046875,0.57421875 -0.7265625,0.7734375 -1.2070312,0.7734375 z M 11.200156,-3.8200859 c 0,-0.9960938 -0.05859,-1.96875 -0.492187,-2.8710938 -0.492188,-0.9960937 -1.3476565,-1.2539062 -1.933594,-1.2539062 -0.6914063,0 -1.546875,0.3398437 -1.9804688,1.3359375 -0.3398437,0.75 -0.4570312,1.4882812 -0.4570312,2.7890625 0,1.1601562 0.082031,2.0273437 0.515625,2.87109371 0.4570312,0.9140625 1.2890625,1.1953125 1.9101562,1.1953125 1.0429688,0 1.6406248,-0.62109375 1.9804688,-1.31250001 0.433594,-0.890625 0.457031,-2.0625 0.457031,-2.7539062 z M 8.7626562,0.01194531 c -0.3867187,0 -1.1601562,-0.2109375 -1.3828125,-1.52343751 -0.140625,-0.7148437 -0.140625,-1.6171875 -0.140625,-2.4609375 0,-0.9726562 0,-1.8632812 0.1992188,-2.5664062 0.1992187,-0.796875 0.8085937,-1.171875 1.3242187,-1.171875 0.4570313,0 1.1484375,0.28125 1.3710938,1.3007812 0.152344,0.6796875 0.152344,1.6289063 0.152344,2.4375 0,0.8085938 0,1.7109375 -0.128907,2.4375 -0.2226558,1.32421876 -0.9726558,1.54687501 -1.3945308,1.54687501 z m 0,0"
         style="fill:#000000;fill-opacity:1;fill-rule:nonzero;stroke:none" />
      <path
         id="path7"
         d="m 15.456992,-6.3308281 c 0,-0.9140625 -0.726562,-1.6523438 -1.640625,-1.6523438 -0.902344,0 -1.640625,0.7382813 -1.640625,1.6523438 0,0.9140625 0.738281,1.6523437 1.640625,1.6523437 0.914063,0 1.640625,-0.7382812 1.640625,-1.6523437 z m -1.640625,1.2773437 c -0.703125,0 -1.277344,-0.5625 -1.277344,-1.2773437 0,-0.7148438 0.574219,-1.2773438 1.277344,-1.2773438 0.714844,0 1.277344,0.5625 1.277344,1.2773438 0,0.7148437 -0.5625,1.2773437 -1.277344,1.2773437 z m 0,0"
         style="fill:#000000;fill-opacity:1;fill-rule:nonzero;stroke:none" />
    </g>
    <path
       id="path8"
       d="M -5.66927,122.74171 H 5.66927"
       style="fill:none;stroke:#000000;stroke-width:0.79701;stroke-linecap:butt;stroke-linejoin:miter;stroke-miterlimit:10;stroke-dasharray:none;stroke-opacity:1"
       transform="matrix(1.3333333,0,0,-1.3333333,190.07333,224.76667)" />
    <path
       id="path9"
       d="M -5.66927,118.20613 H 5.66927"
       style="fill:none;stroke:#000000;stroke-width:0.79701;stroke-linecap:butt;stroke-linejoin:miter;stroke-miterlimit:10;stroke-dasharray:none;stroke-opacity:1"
       transform="matrix(1.3333333,0,0,-1.3333333,190.07333,224.76667)" />
    <path
       id="path10"
       d="m -58.72005,55.36613 7.46602,-8.53268"
       style="fill:none;stroke:#000000;stroke-width:0.79701;stroke-linecap:butt;stroke-linejoin:miter;stroke-miterlimit:10;stroke-dasharray:none;stroke-opacity:1"
       transform="matrix(1.3333333,0,0,-1.3333333,190.07333,224.76667)" />
    <path
       id="path11"
       d="m -62.13277,52.37991 7.46602,-8.53267"
       style="fill:none;stroke:#000000;stroke-width:0.79701;stroke-linecap:butt;stroke-linejoin:miter;stroke-miterlimit:10;stroke-dasharray:none;stroke-opacity:1"
       transform="matrix(1.3333333,0,0,-1.3333333,190.07333,224.76667)" />
    <path
       id="path12"
       d="M 11.614266,-6.875e-4 V -0.62178125 H 10.254891 L 6.5752031,-9.7155312 C 6.4697344,-9.9733437 6.4462969,-10.043656 6.0947344,-10.043656 c -0.3515625,0 -0.3867188,0.070312 -0.4804688,0.3281248 l -3.5625,8.7539062 C 1.9462969,-0.72725 1.9462969,-0.7038125 1.5478594,-0.6569375 1.1962969,-0.6217812 1.1377031,-0.6217812 0.82129688,-0.6217812 h -0.2578125 v 0.6210937 c 0.375,-0.0234375 1.23046872,-0.0234375 1.64062502,-0.0234375 0.3984375,0 1.4414062,0 1.7695312,0.0234375 v -0.62109375 c -0.3164062,0 -0.8554687,0 -1.265625,-0.15234375 0.046875,-0.12890625 0.046875,-0.1640625 0.070312,-0.2109375 l 0.7617188,-1.875 h 3.84375 l 0.9023437,2.23828125 H 6.9384844 V -6.875e-4 c 0.46875,-0.0234375 1.8515625,-0.0234375 2.4023437,-0.0234375 0.4570313,0 1.9218749,0 2.2734379,0.0234375 z m -4.4882816,-3.46875 H 3.7861406 l 1.6757813,-4.1367187 z m 0,0"
       style="fill:#000000;fill-opacity:1;fill-rule:nonzero;stroke:none"
       aria-label="A"
       transform="matrix(1.3333333,0,0,1.3333333,181.944,31.094667)" />
    <path
       id="path13"
       d="m 10.569531,-2.6479141 c 0,-1.3710937 -1.1953122,-2.3554687 -2.9296872,-2.484375 2.0742187,-0.3867187 2.4726562,-1.5703125 2.4726562,-2.2382812 0,-1.3242188 -1.2070312,-2.4726563 -3.5039062,-2.4726563 H 0.56171875 v 0.6210938 H 2.0734375 v 8.60156249 H 0.56171875 V 5.234375e-4 H 7.0421875 c 2.3671875,0 3.5273435,-1.2773437375 3.5273435,-2.6484375375 z m -2.3554685,-4.734375 c 0,0.9960938 -0.5507812,2.0273438 -2.2382812,2.0273438 H 3.8429688 v -3.8671875 h 2.6015625 c 1.4765625,0 1.7695312,1.1132812 1.7695312,1.8398437 z m 0.4101563,4.6992188 c 0,0.9023437 -0.4921875,2.06249999 -2.1445313,2.06249999 H 3.8429688 V -4.8744766 h 2.859375 c 1.6757812,0 1.921875,1.546875 1.921875,2.1914063 z m 0,0"
       style="fill:#000000;fill-opacity:1;fill-rule:nonzero;stroke:none"
       aria-label="B"
       transform="matrix(1.3333333,0,0,1.3333333,194.76667,242.58133)" />
    <path
       id="path14"
       d="m 10.747219,-3.2693047 c 0,-0.2460937 -0.09375,-0.2578125 -0.304688,-0.2578125 -0.140625,0 -0.28125,0 -0.304687,0.1523438 -0.128906,2.1796875 -1.980469,2.92968746 -3.2695315,2.92968746 -0.9257812,0 -2.1914062,-0.2578125 -3,-1.16015626 C 3.376125,-2.1560234 2.907375,-2.9411797 2.907375,-4.9216484 c 0,-1.40625 0.2226563,-2.4492188 0.890625,-3.2578125 0.9257813,-1.0664063 2.3554688,-1.21875 3.046875,-1.21875 1.078125,0 2.8125,0.609375 3.234375,3.1289062 0.03516,0.1289063 0.164063,0.1289063 0.339844,0.1289063 0.328125,0 0.328125,-0.023437 0.328125,-0.375 v -3.1289063 c 0,-0.328125 0,-0.3632813 -0.316406,-0.3632813 l -1.0781255,1.0312501 c -0.796875,-0.6914063 -1.7695312,-1.0312501 -2.8242187,-1.0312501 -3.4335938,0 -5.6367188,2.0742188 -5.6367188,5.0859376 0,2.953125 2.1328125,5.09765621 5.6484375,5.09765621 2.5546875,0 4.2070315,-1.75781251 4.2070315,-3.44531251 z m 0,0"
       style="fill:#000000;fill-opacity:1;fill-rule:nonzero;stroke:none"
       aria-label="C"
       transform="matrix(1.3333333,0,0,1.3333333,200.436,99.042667)" />
    <path
       id="path15"
       d="m 11.460211,-4.8276016 c 0,-3.2460937 -2.1796876,-5.015625 -4.8750001,-5.015625 H 0.55005469 v 0.6210938 H 2.0617734 v 8.60156249 H 0.55005469 V 5.234375e-4 H 6.5852109 c 2.7539063,0 4.8750001,-1.7695312375 4.8750001,-4.8281250375 z m -1.9453126,-0.023437 c 0,1.6757813 -0.2226562,2.4257813 -0.7265625,3.1054688 -0.5039062,0.65625 -1.4648437,1.12499999 -2.7539062,1.12499999 H 3.8898984 V -9.2221328 h 2.1445313 c 1.2539062,0 2.25,0.4921875 2.7890625,1.2304687 0.4101562,0.5859375 0.6914062,1.2890625 0.6914062,3.1406255 z m 0,0"
       style="fill:#000000;fill-opacity:1;fill-rule:nonzero;stroke:none"
       aria-label="D"
       transform="matrix(1.3333333,0,0,1.3333333,17.708,242.58133)" />
    <path
       id="path16"
       d="m 14.17339,0 c 2.98886,1.49435 4.98138,4.98138 4.98138,9.96277 v 25.4293 c 0,4.98139 1.99253,8.46842 4.98138,9.96277 -2.98885,1.49436 -4.98138,4.98139 -4.98138,9.96277 v 25.42932 c 0,4.98139 -1.99252,8.46842 -4.98138,9.96277"
       style="fill:none;stroke:#000000;stroke-width:0.79701;stroke-linecap:butt;stroke-linejoin:miter;stroke-miterlimit:10;stroke-dasharray:none;stroke-opacity:1"
       transform="matrix(1.3333333,0,0,-1.3333333,190.07333,224.76667)" />
    <path
       id="path17"
       d="M 5.8826328,-0.00114844 V -0.41130469 H 5.4373203 c -1.265625,0 -1.3007812,-0.17578125 -1.3007812,-0.69140621 v -8.0976563 c 0,-0.328125 0,-0.3398437 -0.2929688,-0.3398437 -0.3398437,0.3867187 -1.0664062,0.9140625 -2.5429687,0.9140625 v 0.421875 c 0.3398437,0 1.0546875,0 1.8398437,-0.375 v 7.4765625 c 0,0.51562496 -0.046875,0.69140621 -1.3007812,0.69140621 H 1.3943516 v 0.41015625 c 0.3867187,-0.0234375 1.78125,-0.0234375 2.25,-0.0234375 0.46875,0 1.8515625,0 2.2382812,0.0234375 z M 13.452945,-4.5948984 c 0,-1.1835938 -0.07031,-2.34375 -0.585937,-3.4335938 -0.585938,-1.1953125 -1.617188,-1.5117187 -2.320313,-1.5117187 -0.8320309,0 -1.8515622,0.421875 -2.3789059,1.6054687 -0.4101563,0.9023438 -0.5507813,1.7929688 -0.5507813,3.3398438 0,1.3945312 0.1054688,2.4375 0.6210938,3.4570312 0.5625,1.08984376 1.546875,1.44140626 2.2968754,1.44140626 1.242187,0 1.957031,-0.75 2.378906,-1.58203126 0.515625,-1.078125 0.539062,-2.484375 0.539062,-3.3164062 z m -1.089843,-0.1640625 c 0,0.9609375 0,2.0507812 -0.152344,2.9179687 -0.269531,1.58203126 -1.183594,1.85156251 -1.675781,1.85156251 -0.46875,0 -1.3945317,-0.2578125 -1.6640629,-1.81640621 -0.1640625,-0.8671875 -0.1640625,-1.9570313 -0.1640625,-2.953125 0,-1.1835938 0,-2.2382813 0.234375,-3.09375 0.2460937,-0.9609375 0.9726562,-1.3945313 1.5937504,-1.3945313 0.539062,0 1.371093,0.328125 1.640625,1.5585938 0.1875,0.8203125 0.1875,1.9453125 0.1875,2.9296875 z m 17.750976,4.75781246 v -0.41015625 c -0.726562,0 -1.078125,0 -1.089844,-0.43359375 V -3.4816172 c 0,-1.3359375 0,-1.7460937 -0.339843,-2.203125 -0.410157,-0.5507812 -1.089844,-0.6445312 -1.570313,-0.6445312 -1.195312,0 -1.792969,0.8671875 -2.027344,1.4179687 -0.199218,-1.1015625 -0.972656,-1.4179687 -1.875,-1.4179687 -1.394531,0 -1.933593,1.1953125 -2.050781,1.4765625 h -0.01172 v -1.4765625 l -1.957031,0.1640625 v 0.4101562 c 0.972656,0 1.089844,0.1054688 1.089844,0.8085938 v 3.8789062 c 0,0.65625001 -0.152344,0.65625001 -1.089844,0.65625001 v 0.41015625 c 0.375,-0.0234375 1.148438,-0.0234375 1.546875,-0.0234375 0.421875,0 1.195313,0 1.570313,0.0234375 v -0.41015625 c -0.925782,0 -1.089844,0 -1.089844,-0.65625001 v -2.6601562 c 0,-1.5117188 0.984375,-2.3085938 1.875,-2.3085938 0.890625,0 1.089844,0.7265625 1.089844,1.6054688 v 3.3632812 c 0,0.65625001 -0.152344,0.65625001 -1.089844,0.65625001 v 0.41015625 c 0.375,-0.0234375 1.148437,-0.0234375 1.546875,-0.0234375 0.421875,0 1.195312,0 1.570312,0.0234375 v -0.41015625 c -0.925781,0 -1.089843,0 -1.089843,-0.65625001 v -2.6601562 c 0,-1.5117188 0.984375,-2.3085938 1.875,-2.3085938 0.890625,0 1.089843,0.7265625 1.089843,1.6054688 v 3.3632812 c 0,0.65625001 -0.152343,0.65625001 -1.089843,0.65625001 v 0.41015625 c 0.375,-0.0234375 1.148437,-0.0234375 1.546875,-0.0234375 0.421875,0 1.195312,0 1.570313,0.0234375 z m 0,0"
       style="fill:#000000;fill-opacity:1;fill-rule:nonzero;stroke:none"
       aria-label="10m"
       transform="matrix(1.3333333,0,0,1.3333333,240.12133,174.232)" />
  </g>
</svg>
