<svg xmlns="http://www.w3.org/2000/svg" width="234.93843pt" height="147.30283pt" viewBox="-72 -72 234.93843 147.30283" style="position: absolute; top: 0pt; left: 0pt; overflow: visible;">
<g transform="translate(-50.37074279785155,58.28689575195311)">
<g stroke-miterlimit="10" transform="scale(1,-1)"><g stroke="#000" fill="#000">
 <g stroke-width="0.4">
 <g stroke-width="1.6">
 <path d=" M 170.71646 113.81097 L 170.71646 0.0 L 0.0 0.0 Z  " fill="none"/>
 </g>
 <g stroke-width="1.6">
 <path d=" M 170.71646 0.0 M 159.33554 0.0 L 159.33554 11.38092 L 170.71646 11.38092  " fill="none"/>
 </g>
 <g stroke-width="1.6">
 <path d=" M 170.71646 91.0487 C 163.10902 91.0487 156.00032 94.85365 151.77998 101.18225  " fill="none"/>
 </g>
 <g stroke-width="1.6">
 <path d=" M 22.76227 0.0 C 22.76227 4.4923 21.42992 8.8877 18.93857 12.62524  " fill="none"/>
 </g>
 <g transform="translate(174.24944,117.34395)">
 <g stroke="none" transform="scale(-1.00375,1.00375)translate(-47.03741455078124,58.28689575195311)scale(-1,-1)"><g fill="#000">
 <g stroke="none"> <text alignment-baseline="baseline" y="58.28689575195311" x="-47.03741455078124" style="font-family: cmbx12;" font-size="14.399993896484375">A</text>
</g> </g>
 </g></g>
 <g transform="translate(174.24944,-13.41295)">
 <g stroke="none" transform="scale(-1.00375,1.00375)translate(-47.03741455078124,58.28689575195311)scale(-1,-1)"><g fill="#000">
 <g stroke="none"> <text alignment-baseline="baseline" y="58.28689575195311" x="-47.03741455078124" style="font-family: cmbx12;" font-size="14.399993896484375">B</text>
</g> </g>
 </g></g>
 <g transform="translate(-15.23296,-13.41295)">
 <g stroke="none" transform="scale(-1.00375,1.00375)translate(-47.03741455078124,58.28689575195311)scale(-1,-1)"><g fill="#000">
 <g stroke="none"> <text alignment-baseline="baseline" y="58.28689575195311" x="-47.03741455078124" style="font-family: cmbx12;" font-size="14.399993896484375">C</text>
</g> </g>
 </g></g>
 <g transform="translate(179.9399,52.2655)">
 <g stroke="none" transform="scale(-1.00375,1.00375)translate(-47.03741455078124,58.28689575195311)scale(-1,-1)"><g fill="#000">
 <g stroke="none"> <text alignment-baseline="baseline" y="58.28689575195311" x="-47.03741455078124" style="font-family: cmr12;" font-size="14.399993896484375">5</text>
<text alignment-baseline="baseline" y="58.28689575195311" x="-35.287554868031286" style="font-family: cmr12;" font-size="14.399993896484375">cm</text>
</g> </g>
 </g></g>
 <g transform="translate(66.95013,-12.81294)">
 <g stroke="none" transform="scale(-1.00375,1.00375)translate(-47.03741455078124,58.28689575195311)scale(-1,-1)"><g fill="#000">
 <g stroke="none"> <text alignment-baseline="baseline" y="58.28689575195311" x="-47.03741455078124" style="font-family: cmr12;" font-size="14.399993896484375">12</text>
<text alignment-baseline="baseline" y="58.28689575195311" x="-28.237631098367267" style="font-family: cmr12;" font-size="14.399993896484375">cm</text>
</g> </g>
 </g></g>
 </g>
 </g>
 </g></g></svg>