<?xml version="1.0" encoding="UTF-8" standalone="no"?>
<!-- Created with Inkscape (http://www.inkscape.org/) -->

<svg
   version="1.1"
   id="svg1"
   width="268.34668"
   height="69.853333"
   viewBox="0 0 268.34668 69.853333"
   sodipodi:docname="upload_6bzgjabvuwspj5ndbzxgvjlcc2.pdf"
   xmlns:inkscape="http://www.inkscape.org/namespaces/inkscape"
   xmlns:sodipodi="http://sodipodi.sourceforge.net/DTD/sodipodi-0.dtd"
   xmlns="http://www.w3.org/2000/svg"
   xmlns:svg="http://www.w3.org/2000/svg">
  <defs
     id="defs1" />
  <sodipodi:namedview
     id="namedview1"
     pagecolor="#ffffff"
     bordercolor="#000000"
     borderopacity="0.25"
     inkscape:showpageshadow="2"
     inkscape:pageopacity="0.0"
     inkscape:pagecheckerboard="0"
     inkscape:deskcolor="#d1d1d1">
    <inkscape:page
       x="0"
       y="0"
       inkscape:label="1"
       id="page1"
       width="268.34668"
       height="69.853333"
       margin="0"
       bleed="0" />
  </sodipodi:namedview>
  <g
     id="g1"
     inkscape:groupmode="layer"
     inkscape:label="1">
    <path
       id="path1"
       d="M -34.0161,-11.33876 H 34.0161 V 11.33876 H -34.0161 Z"
       style="fill:none;stroke:#000000;stroke-width:0.3985;stroke-linecap:butt;stroke-linejoin:miter;stroke-miterlimit:10;stroke-dasharray:none;stroke-opacity:1"
       transform="matrix(1.3333333,0,0,-1.3333333,50.046667,19.806667)" />
    <path
       id="path2"
       d="m 3.5521484,-6.1989141 v 0.7148438 H 3.3529297 c -0.2109375,0.046875 -0.4394531,0.1494141 -0.6796875,0.3046875 -0.234375,0.1582031 -0.4570313,0.3603516 -0.6679688,0.609375 -0.2109375,0.2431641 -0.3867187,0.5332031 -0.5273437,0.8671875 -0.1347656,0.328125 -0.1992188,0.6914062 -0.1992188,1.0898437 0,0.4775391 0.070312,0.8613282 0.2109375,1.1484375 0.140625,0.28125 0.3164063,0.48046879 0.5273438,0.59765629 0.2167969,0.1171875 0.4335937,0.17578125 0.6445312,0.17578125 0.1640625,0 0.2988282,-0.0146484 0.4101563,-0.046875 0.1171875,-0.0292969 0.2490234,-0.0878906 0.3984375,-0.17578125 l 0.3515625,0.609375 c -0.1816406,0.13476562 -0.3720703,0.22851562 -0.5742188,0.28125 -0.2050781,0.04394531 -0.4101562,0.0703125 -0.6210937,0.0703125 -0.421875,0 -0.7939453,-0.10839844 -1.1132813,-0.328125 C 1.1908203,-0.49774219 0.94179687,-0.80242969 0.76308594,-1.1950078 0.58144531,-1.5934453 0.49355469,-2.0563359 0.49355469,-2.5895391 c 0,-0.5068359 0.0761719,-0.9609375 0.234375,-1.359375 0.1640625,-0.4042968 0.37500001,-0.7558593 0.63281251,-1.0546875 0.2636719,-0.3046875 0.5507812,-0.5537109 0.8554687,-0.75 0.3105469,-0.1933593 0.609375,-0.3427734 0.890625,-0.4453125 z M 9.3880859,0.43389844 H 8.6615234 c -0.1875,-0.57714844 -0.5800781,-0.8671875 -1.171875,-0.8671875 -0.2666015,0 -0.5449218,0.0322266 -0.8320312,0.09375 -0.2900391,0.0556641 -0.5976563,0.0820313 -0.9257813,0.0820313 -0.2753906,0 -0.5507812,-0.0410156 -0.8320312,-0.12890625 C 4.6244141,-0.48016406 4.3988281,-0.63836719 4.2201172,-0.86688281 4.0384766,-1.0924687 3.9505859,-1.408875 3.9505859,-1.8161016 c 0,-0.09375 0.00293,-0.1875 0.011719,-0.28125 0.014648,-0.099609 0.029297,-0.1933593 0.046875,-0.28125 l 0.7734375,0.082031 c -0.017578,0.055664 -0.032227,0.1259766 -0.046875,0.2109375 -0.00879,0.079102 -0.011719,0.1640625 -0.011719,0.2578125 0,0.3222656 0.09375,0.5449219 0.28125,0.6679687 0.1933594,0.1259766 0.4335938,0.18750004 0.7148438,0.18750004 0.3105469,0 0.5800781,-0.0263672 0.8085937,-0.0820312 0.234375,-0.061523 0.4980469,-0.09375 0.796875,-0.09375 0.2578125,0 0.4980469,0.043945 0.7265625,0.1289062 0.225586,0.0791016 0.4160157,0.21679695 0.5742188,0.41015633 V -4.5231328 c -0.1962891,-0.328125 -0.4101563,-0.5771484 -0.6445313,-0.75 -0.234375,-0.1787109 -0.4921875,-0.2695313 -0.7734375,-0.2695313 -0.2578125,0 -0.46875,0.076172 -0.6328125,0.2226563 -0.1582031,0.140625 -0.234375,0.3515625 -0.234375,0.6328125 0,0.2666016 0.1083985,0.4863281 0.328125,0.65625 0.2167969,0.1640625 0.5654297,0.2578125 1.0429688,0.28125 l -0.070312,0.7617187 c -0.46875,-0.023437 -0.8496094,-0.1201171 -1.1367188,-0.2929687 -0.290039,-0.1787109 -0.4980468,-0.4042969 -0.6210937,-0.6796875 -0.1171875,0.2753906 -0.3222656,0.5039062 -0.609375,0.6914062 -0.28125,0.1875 -0.6621094,0.28125 -1.1367188,0.28125 l -0.058594,-0.7617187 c 0.3339844,-0.00586 0.5976562,-0.052734 0.7851562,-0.140625 0.1933594,-0.09375 0.3310547,-0.2109375 0.4101563,-0.3515625 0.084961,-0.140625 0.1289062,-0.28125 0.1289062,-0.421875 0,-0.2724609 -0.09082,-0.4863281 -0.2695312,-0.6445313 -0.1728516,-0.1552734 -0.4335938,-0.234375 -0.7851563,-0.234375 -0.1582031,0 -0.3017578,0.011719 -0.4335937,0.035156 -0.1259766,0.017578 -0.2636719,0.043945 -0.4101563,0.082031 l -0.082031,-0.75 c 0.2958984,-0.061523 0.609375,-0.09375 0.9375,-0.09375 0.3046875,0 0.5917969,0.070312 0.8671875,0.2109375 0.28125,0.140625 0.4863281,0.3632813 0.6210937,0.6679688 0.1171875,-0.2958984 0.2958985,-0.515625 0.5390625,-0.65625 0.2490235,-0.1464844 0.5185547,-0.2226563 0.8085938,-0.2226563 0.2958984,0 0.5683594,0.067383 0.8203125,0.1992188 0.2490234,0.1347656 0.4599609,0.3164062 0.6328125,0.5507812 -0.00879,-0.076172 -0.017578,-0.1582031 -0.023437,-0.2460937 0,-0.084961 0,-0.1787109 0,-0.28125 v -0.8085938 h 0.5273437 l 0.234375,0.65625 h 1.0546872 v 0.7148438 H 9.3880859 Z M 13.094141,-6.1989141 v 0.7148438 H 12.039453 V 3.046875e-4 H 11.277734 V -5.4840703 h -1.042968 v -0.7148438 h 0.925781 c -0.111328,-0.1230468 -0.219727,-0.2578125 -0.328125,-0.3984375 -0.111328,-0.140625 -0.208008,-0.2753906 -0.292969,-0.4101562 0.225586,-0.3984375 0.46875,-0.7558594 0.726563,-1.078125 0.257812,-0.3193359 0.5625,-0.5742188 0.914062,-0.7617188 0.351563,-0.1875 0.776367,-0.28125 1.277344,-0.28125 0.46875,0 0.914062,0.079102 1.335937,0.234375 0.421875,0.1494141 0.837891,0.3603516 1.253907,0.6328125 0.421875,0.2753907 0.858398,0.6035157 1.3125,0.984375 l -0.410157,0.5390625 c -0.46289,-0.375 -0.875976,-0.6826171 -1.242187,-0.9257812 -0.369141,-0.2490234 -0.720703,-0.4335938 -1.054688,-0.5507813 -0.336914,-0.1230468 -0.697265,-0.1875 -1.078125,-0.1875 -0.547851,0 -0.990234,0.140625 -1.324218,0.421875 -0.328125,0.2753907 -0.615235,0.6328125 -0.855469,1.078125 0.05273,0.1025391 0.128906,0.2109375 0.222656,0.328125 0.09375,0.1171875 0.199219,0.2431641 0.316406,0.375 z m 6.178711,0 v 0.7148438 H 18.218164 V 3.046875e-4 H 17.456445 V -3.8903203 c -0.416015,-0.5683594 -0.802734,-0.9873047 -1.160156,-1.2539063 -0.360352,-0.2636718 -0.723633,-0.3984375 -1.089844,-0.3984375 -0.313476,0 -0.55957,0.09082 -0.738281,0.2695313 -0.172852,0.1728516 -0.257812,0.3925781 -0.257812,0.65625 0,0.328125 0.117187,0.5800781 0.351562,0.75 0.234375,0.1640625 0.624023,0.2753906 1.171875,0.328125 l -0.05859,0.8320312 c -0.439453,-0.038086 -0.829101,-0.1318359 -1.171875,-0.28125 -0.345703,-0.1552734 -0.618164,-0.3662109 -0.820312,-0.6328125 -0.196289,-0.2636718 -0.292969,-0.5917968 -0.292969,-0.984375 0,-0.3574218 0.07617,-0.6591796 0.234375,-0.9023437 0.164063,-0.2490234 0.375,-0.4365234 0.632813,-0.5625 0.257812,-0.1318359 0.533203,-0.1992188 0.832031,-0.1992188 0.483398,0 0.908203,0.1171875 1.277344,0.3515625 0.36621,0.2285157 0.74121,0.5595704 1.125,0.9960938 -0.0088,-0.1171875 -0.01758,-0.2490234 -0.02344,-0.3984375 -0.0088,-0.1464844 -0.01172,-0.2871094 -0.01172,-0.421875 v -1.1132813 h 0.527344 l 0.222656,0.65625 z m 8.510742,0 v 0.7148438 H 26.740625 V 3.046875e-4 H 25.967187 C 25.770898,-0.39813281 25.498437,-0.76434375 25.146875,-1.1012578 c -0.345703,-0.3339844 -0.744141,-0.6152344 -1.195313,-0.84375 -0.454101,-0.234375 -0.93457,-0.3925781 -1.441406,-0.4804688 l -0.398437,-0.9492187 c 0.609375,-0.3662109 1.233398,-0.6972656 1.875,-0.9960938 0.638672,-0.2958984 1.300781,-0.5537109 1.980468,-0.7734375 v -0.3398437 h -4.324218 v -0.7148438 z m -4.734375,3.1757813 c 0.333984,0.070312 0.691406,0.1962891 1.066406,0.375 0.380859,0.1728516 0.741211,0.3925781 1.078125,0.65625 0.333984,0.2666016 0.603516,0.5712891 0.808594,0.9140625 -0.0088,-0.1171875 -0.01758,-0.2373047 -0.02344,-0.3632813 -0.0088,-0.1230468 -0.01172,-0.2724609 -0.01172,-0.4453125 v -2.484375 c -0.477539,0.1640625 -0.972656,0.3632813 -1.488281,0.5976563 -0.515625,0.2285156 -0.993164,0.4775391 -1.429687,0.75 z m 7.274414,-3.1757813 v 0.7148438 H 29.97207 c -0.205078,0.1816406 -0.357422,0.3486328 -0.457031,0.5039062 -0.102539,0.1494141 -0.172852,0.3046875 -0.210937,0.46875 -0.03223,0.1640625 -0.04687,0.3574219 -0.04687,0.5742188 0,0.2197266 0.02637,0.4541016 0.08203,0.703125 0.05273,0.2431641 0.108398,0.4980469 0.164062,0.7617187 0.05274,0.2578125 0.08203,0.5332032 0.08203,0.8203125 0,0.3222657 -0.05274,0.6269532 -0.152344,0.91406254 -0.102539,0.28125 -0.298828,0.53320312 -0.585938,0.75 -0.28125,0.21679687 -0.703125,0.38671875 -1.265625,0.50390625 l -0.199218,-0.6796875 c 0.418945,-0.0996094 0.732421,-0.22558594 0.9375,-0.375 0.202148,-0.14648438 0.333984,-0.31933594 0.398437,-0.51562499 0.06152,-0.1933594 0.09375,-0.4013672 0.09375,-0.6210938 0,-0.2636718 -0.0293,-0.5214843 -0.08203,-0.7734375 -0.05566,-0.2490234 -0.111328,-0.4951171 -0.164063,-0.7382812 -0.05566,-0.2490234 -0.08203,-0.4921875 -0.08203,-0.7265625 0,-0.3339844 0.03809,-0.6152344 0.117188,-0.84375 0.08496,-0.234375 0.237304,-0.4746094 0.457031,-0.7265625 h -1.476563 v -0.7148438 z m 2.657226,0 v 0.7148438 H 31.926172 V 3.046875e-4 H 31.164453 V -4.6754766 c -0.0791,-0.2255859 -0.196289,-0.4160156 -0.351562,-0.5742187 -0.158204,-0.1552734 -0.360352,-0.234375 -0.609375,-0.234375 h -0.08203 v -0.7148438 h 0.152344 c 0.164063,0 0.331055,0.055664 0.503906,0.1640625 0.169922,0.1025391 0.307618,0.2578125 0.410157,0.46875 0,-0.029297 -0.0059,-0.1054687 -0.01172,-0.2226562 -0.0088,-0.1230469 -0.01172,-0.2285156 -0.01172,-0.3164063 v -0.75 h 0.539063 l 0.222656,0.65625 z m 2.648438,0 v 0.7148438 H 34.574609 V 3.046875e-4 H 33.812891 V -5.4840703 h -1.042969 v -0.7148438 h 0.925781 c -0.111328,-0.1230468 -0.219726,-0.2578125 -0.328125,-0.3984375 -0.111328,-0.140625 -0.208008,-0.2753906 -0.292969,-0.4101562 0.225586,-0.3984375 0.46875,-0.7558594 0.726563,-1.078125 0.257812,-0.3193359 0.5625,-0.5742188 0.914062,-0.7617188 0.351563,-0.1875 0.776368,-0.28125 1.277344,-0.28125 0.46875,0 0.914063,0.079102 1.335938,0.234375 0.421875,0.1494141 0.83789,0.3603516 1.253906,0.6328125 0.421875,0.2753907 0.858398,0.6035157 1.3125,0.984375 l -0.410156,0.5390625 c -0.462891,-0.375 -0.875977,-0.6826171 -1.242188,-0.9257812 -0.369141,-0.2490234 -0.720703,-0.4335938 -1.054687,-0.5507813 -0.336914,-0.1230468 -0.697266,-0.1875 -1.078125,-0.1875 -0.547852,0 -0.990235,0.140625 -1.324219,0.421875 -0.328125,0.2753907 -0.615235,0.6328125 -0.855469,1.078125 0.05273,0.1025391 0.128906,0.2109375 0.222656,0.328125 0.09375,0.1171875 0.199219,0.2431641 0.316407,0.375 z m 4.327148,6.80859379 c -0.852539,0 -1.611328,-0.23144531 -2.273437,-0.69140625 -0.65625,-0.46875 -1.195313,-1.24218754 -1.617188,-2.32031254 l 0.738282,-0.2578125 c 0.216796,0.5332032 0.46289,0.9902344 0.738281,1.3710938 0.28125,0.37499999 0.615234,0.66210936 1.007812,0.85546874 0.389649,0.19628906 0.855469,0.29296875 1.394532,0.29296875 0.421875,0 0.74414,-0.046875 0.972656,-0.140625 0.234375,-0.0996094 0.398437,-0.22851563 0.492187,-0.38671875 0.09961,-0.15527344 0.152344,-0.32226563 0.152344,-0.50390624 0,-0.2724609 -0.09375,-0.5039063 -0.28125,-0.6914063 -0.181641,-0.1875 -0.421875,-0.28125 -0.726562,-0.28125 -0.228516,0 -0.395508,0.055664 -0.503907,0.1640625 -0.111328,0.1025391 -0.164062,0.2314454 -0.164062,0.3867188 0,0.046875 0.0029,0.1113281 0.01172,0.1875 0.01465,0.070312 0.0293,0.1289062 0.04687,0.1757812 l -0.726563,0.140625 c -0.04102,-0.1083984 -0.06738,-0.2226562 -0.08203,-0.3398437 -0.01758,-0.1171875 -0.02344,-0.2050781 -0.02344,-0.2695313 0,-0.2490234 0.06152,-0.4570312 0.1875,-0.6210937 0.131836,-0.1640625 0.304688,-0.2871094 0.515625,-0.375 0.216797,-0.084961 0.448242,-0.1289063 0.691407,-0.1289063 0.155273,0 0.298828,0.017578 0.433593,0.046875 v -0.84375 C 40.814844,-3.7995 40.694727,-3.9635625 40.577539,-4.1129766 40.466211,-4.26825 40.360742,-4.4059453 40.261133,-4.5231328 l -2.578125,2.15625 -0.539063,-0.5859375 0.28125,-0.2226563 c 0.07617,-0.076172 0.140625,-0.1669921 0.1875,-0.2695312 0.04687,-0.099609 0.07031,-0.2255859 0.07031,-0.375 0,-0.1171875 -0.04395,-0.2285156 -0.128906,-0.3398438 -0.08789,-0.1083984 -0.231446,-0.1640625 -0.433594,-0.1640625 -0.111328,0 -0.219727,0.020508 -0.328125,0.058594 -0.111328,0.032227 -0.216797,0.082031 -0.316406,0.1523437 l -0.726563,-0.7148437 c 0.398438,-0.4277344 0.808594,-0.7763672 1.230469,-1.0429688 0.427734,-0.2636718 0.908203,-0.3984375 1.441406,-0.3984375 0.351563,0 0.65918,0.058594 0.925781,0.1757813 0.272461,0.1113281 0.539063,0.2871094 0.796875,0.5273437 0.257813,0.234375 0.533203,0.5332032 0.832032,0.890625 -0.01758,-0.1318359 -0.0293,-0.2695312 -0.03516,-0.4101562 0,-0.1464844 0,-0.3046875 0,-0.46875 v -1.3007813 h 0.527344 l 0.234375,0.65625 h 1.160156 v 0.7148438 h -1.148437 v 3.0703125 c 0.193359,0.1582031 0.342773,0.3486328 0.445312,0.5742187 0.09961,0.2197266 0.152344,0.4511719 0.152344,0.6914063 0,0.33691405 -0.08789,0.63867186 -0.257812,0.90234374 -0.164063,0.26367187 -0.418946,0.47167969 -0.761719,0.62109375 -0.345703,0.15527344 -0.791016,0.234375 -1.335938,0.234375 z M 38.327539,-3.9489141 c 0,0.041016 0,0.082031 0,0.1289063 0.07617,-0.076172 0.155273,-0.1523438 0.234375,-0.2226563 0.08496,-0.070312 0.178711,-0.1435546 0.28125,-0.2226562 l 0.925781,-0.7617188 c -0.398437,-0.3427734 -0.832031,-0.515625 -1.300781,-0.515625 -0.360352,0 -0.679687,0.076172 -0.960937,0.2226563 -0.28125,0.140625 -0.536133,0.3046875 -0.761719,0.4921875 0.08496,-0.038086 0.175781,-0.064453 0.269531,-0.082031 0.09961,-0.023437 0.210938,-0.035156 0.328125,-0.035156 0.351563,0 0.600586,0.1025391 0.75,0.3046875 0.155273,0.1962891 0.234375,0.4277344 0.234375,0.6914057 z m 0,0"
       style="fill:#000000;fill-opacity:1;fill-rule:nonzero;stroke:none"
       aria-label="েিণবযাি"
       transform="matrix(1.3333333,0,0,1.3333333,21.533333,24.816)" />
    <path
       id="path3"
       d="M -15.77402,-11.33876 H 15.77403 V 11.33876 H -15.77402 Z"
       style="fill:none;stroke:#000000;stroke-width:0.3985;stroke-linecap:butt;stroke-linejoin:miter;stroke-miterlimit:10;stroke-dasharray:none;stroke-opacity:1"
       transform="matrix(1.3333333,0,0,-1.3333333,116.432,19.806667)" />
    <path
       id="path4"
       d="M 4.1719688,3.046875e-4 V -0.30438281 H 3.8555625 c -0.9023437,0 -0.9257812,-0.1171875 -0.9257812,-0.48046875 V -6.3746953 c 0,-0.234375 0,-0.2578125 -0.234375,-0.2578125 -0.609375,0.6328125 -1.4882813,0.6328125 -1.80468755,0.6328125 v 0.3164062 c 0.19921875,0 0.78515625,0 1.30078125,-0.2578125 v 5.15625004 c 0,0.3515625 -0.035156,0.48046875 -0.9257812,0.48046875 H 0.9493125 V 3.046875e-4 C 1.300875,-0.03485156 2.1563438,-0.03485156 2.5547813,-0.03485156 c 0.3984375,0 1.265625,0 1.6171875,0.0351562475 z M 9.457125,-2.0036016 c 0,-1.1835937 -0.8203125,-2.1796875 -1.8984375,-2.1796875 -0.4804687,0 -0.9023437,0.1640625 -1.265625,0.5039063 v -1.9335938 c 0.1992188,0.058594 0.5273438,0.1289063 0.84375,0.1289063 1.2304688,0 1.9335938,-0.9140625 1.9335938,-1.0429688 0,-0.058594 -0.035156,-0.1054687 -0.1054688,-0.1054687 0,0 -0.035156,0 -0.082031,0.023437 -0.1992188,0.09375 -0.6796875,0.2929687 -1.3476563,0.2929687 -0.3984375,0 -0.8554687,-0.070312 -1.3242187,-0.28125 C 6.129,-6.6207891 6.082125,-6.6207891 6.082125,-6.6207891 c -0.09375,0 -0.09375,0.082031 -0.09375,0.234375 v 2.953125 c 0,0.1757813 0,0.2578125 0.140625,0.2578125 0.070312,0 0.082031,-0.035156 0.1289063,-0.09375 0.1054687,-0.1523437 0.4804687,-0.6914062 1.2773437,-0.6914062 0.5273438,0 0.7734375,0.4570312 0.8554688,0.6328125 0.1523437,0.375 0.1757812,0.7617187 0.1757812,1.2539062 0,0.3515625 0,0.9492188 -0.234375,1.37109379 -0.2460937,0.38671875 -0.609375,0.64453125 -1.0664062,0.64453125 -0.7265625,0 -1.3007813,-0.52734375 -1.4648438,-1.11328124 0.023437,0.011719 0.058594,0.011719 0.1640625,0.011719 0.328125,0 0.5039063,-0.2460937 0.5039063,-0.4804687 0,-0.2460938 -0.1757813,-0.4921875 -0.5039063,-0.4921875 -0.140625,0 -0.4804687,0.070312 -0.4804687,0.5273437 0,0.85546879 0.6796875,1.82812504 1.7929687,1.82812504 1.1601563,0 2.1796875,-0.9609375 2.1796875,-2.22656284 z m 5.475586,-0.5390625 V -2.7536016 H 9.9639609 v 0.2109375 z M 19.116305,3.046875e-4 V -0.30438281 h -0.316407 c -0.902343,0 -0.925781,-0.1171875 -0.925781,-0.48046875 V -6.3746953 c 0,-0.234375 0,-0.2578125 -0.234375,-0.2578125 -0.609375,0.6328125 -1.488281,0.6328125 -1.804687,0.6328125 v 0.3164062 c 0.199218,0 0.785156,0 1.300781,-0.2578125 v 5.15625004 c 0,0.3515625 -0.03516,0.48046875 -0.925781,0.48046875 H 15.893648 V 3.046875e-4 C 16.245211,-0.03485156 17.10068,-0.03485156 17.499117,-0.03485156 c 0.398438,0 1.265625,0 1.617188,0.0351562475 z M 24.471773,-3.2809453 c 0,-2.671875 -1.136718,-3.3515625 -2.027343,-3.3515625 -0.550782,0 -1.03125,0.1757812 -1.464844,0.6210937 -0.410156,0.4570313 -0.632813,0.8671875 -0.632813,1.6171875 0,1.2421875 0.878907,2.2265625 1.992188,2.2265625 0.609375,0 1.007812,-0.421875 1.242187,-0.9960937 v 0.3164062 c 0,2.33203129 -1.03125,2.78906254 -1.617187,2.78906254 -0.164063,0 -0.703125,-0.0234375 -0.972656,-0.36328125 0.433593,0 0.515625,-0.28125 0.515625,-0.45703125 0,-0.30468754 -0.234375,-0.45703124 -0.457032,-0.45703124 -0.164062,0 -0.457031,0.09375 -0.457031,0.48046874 0,0.66796875 0.539063,1.078125 1.382813,1.078125 1.289062,0 2.496093,-1.35937504 2.496093,-3.50390624 z m -0.914062,-0.9140625 c 0,0.8320312 -0.339844,1.7929687 -1.207031,1.7929687 -0.164063,0 -0.621094,0 -0.925782,-0.6210937 -0.1875,-0.375 -0.1875,-0.8671875 -0.1875,-1.359375 0,-0.5390625 0,-1.0078125 0.210938,-1.3710938 0.269531,-0.5039062 0.644531,-0.6328125 0.996094,-0.6328125 0.457031,0 0.785156,0.3398438 0.960937,0.7851563 0.117188,0.3164062 0.152344,0.9492187 0.152344,1.40625 z m 0,0"
       style="fill:#000000;fill-opacity:1;fill-rule:nonzero;stroke:none"
       aria-label="15–19"
       transform="matrix(1.3333333,0,0,1.3333333,99.828,24.816)" />
    <path
       id="path5"
       d="M -15.77402,-11.33876 H 15.77403 V 11.33876 H -15.77402 Z"
       style="fill:none;stroke:#000000;stroke-width:0.3985;stroke-linecap:butt;stroke-linejoin:miter;stroke-miterlimit:10;stroke-dasharray:none;stroke-opacity:1"
       transform="matrix(1.3333333,0,0,-1.3333333,158.496,19.806667)" />
    <path
       id="path6"
       d="M 4.4755313,-1.7340703 H 4.2177188 c -0.046875,0.3046875 -0.1171875,0.73828124 -0.2109375,0.89062499 -0.070312,0.0820313 -0.7265625,0.0820313 -0.9492188,0.0820313 H 1.2645938 L 2.3192813,-1.7926641 c 1.5585937,-1.3710937 2.15625,-1.9101562 2.15625,-2.90625 0,-1.1367187 -0.9023438,-1.9335937 -2.1210938,-1.9335937 -1.125,0 -1.8515625,0.9140625 -1.8515625,1.8046875 0,0.5507812 0.4921875,0.5507812 0.5273438,0.5507812 0.1640625,0 0.515625,-0.1171875 0.515625,-0.5273437 0,-0.2578125 -0.1875,-0.515625 -0.5273438,-0.515625 -0.0820313,0 -0.10546875,0 -0.12890625,0.011719 C 1.11225,-5.9528203 1.6513125,-6.3278203 2.2255313,-6.3278203 c 0.9140625,0 1.3359375,0.8085937 1.3359375,1.6289062 0,0.796875 -0.4921875,1.5820313 -1.0429688,2.203125 L 0.60834375,-0.36297656 C 0.502875,-0.25750781 0.502875,-0.23407031 0.502875,3.046875e-4 h 3.6914063 z m 5.0888671,-1.453125 c 0,-0.796875 -0.046875,-1.59375 -0.3984375,-2.3320313 -0.4570312,-0.9609375 -1.2773437,-1.1132812 -1.6875,-1.1132812 -0.5976562,0 -1.3359375,0.2578125 -1.734375,1.1835937 -0.328125,0.6914063 -0.375,1.4648438 -0.375,2.2617188 0,0.75 0.046875,1.640625 0.4453125,2.40234374 0.4335938,0.80859375 1.1601563,1.0078125 1.6523438,1.0078125 0.5390625,0 1.2890625,-0.2109375 1.734375,-1.16015625 C 9.5175234,-1.6286016 9.5643984,-2.4020391 9.5643984,-3.1871953 Z M 8.7323672,-3.3043828 c 0,0.75 0,1.4179687 -0.1054688,2.0625 -0.1523437,0.93749999 -0.7148437,1.2421874875 -1.1601562,1.2421874875 -0.3867188,0 -0.984375,-0.2460937475 -1.1601563,-1.2070312875 -0.1054687,-0.5976562 -0.1054687,-1.5117187 -0.1054687,-2.0976562 0,-0.6445313 0,-1.3007813 0.082031,-1.8398438 0.1875,-1.1835937 0.9257813,-1.265625 1.1835938,-1.265625 0.328125,0 0.984375,0.1757813 1.171875,1.1601563 0.09375,0.5625 0.09375,1.3125 0.09375,1.9453125 z m 6.1992188,0.7617187 V -2.7536016 H 9.9628359 v 0.2109375 z m 4.488281,0.8085938 h -0.257812 c -0.04687,0.3046875 -0.117188,0.73828124 -0.210938,0.89062499 -0.07031,0.0820313 -0.726562,0.0820313 -0.949219,0.0820313 H 16.20893 L 17.263617,-1.792664 c 1.558594,-1.3710938 2.15625,-1.9101563 2.15625,-2.90625 0,-1.1367187 -0.902344,-1.9335937 -2.121094,-1.9335937 -1.125,0 -1.851562,0.9140625 -1.851562,1.8046875 0,0.5507812 0.492187,0.5507812 0.527344,0.5507812 0.164062,0 0.515625,-0.1171875 0.515625,-0.5273437 0,-0.2578125 -0.1875,-0.515625 -0.527344,-0.515625 -0.08203,0 -0.105469,0 -0.128906,0.011719 0.222656,-0.6445313 0.761718,-1.0195313 1.335937,-1.0195313 0.914063,0 1.335938,0.8085938 1.335938,1.6289063 0,0.7968749 -0.492188,1.5820312 -1.042969,2.2031249 l -1.910156,2.13281259 c -0.105469,0.10546875 -0.105469,0.12890625 -0.105469,0.3632812475 h 3.691406 z m 5.191406,0.09375 V -1.9567266 H 23.61518 v -4.5234375 c 0,-0.1992187 0,-0.2578125 -0.152344,-0.2578125 -0.09375,0 -0.117188,0 -0.199219,0.1171875 l -3.058594,4.6640625 v 0.3164063 h 2.648438 v 0.86718749 c 0,0.3515625 -0.02344,0.46875 -0.761719,0.46875 H 21.880805 V 3.046875e-4 c 0.410156,-0.0351562475 0.9375,-0.0351562475 1.347656,-0.0351562475 0.421875,0 0.949219,0 1.359375,0.0351562475 V -0.30438281 h -0.210938 c -0.738281,0 -0.761718,-0.1171875 -0.761718,-0.46875 V -1.6403203 Z m -1.699218,-0.3164063 h -2.425782 l 2.425782,-3.7148437 z m 0,0"
       style="fill:#000000;fill-opacity:1;fill-rule:nonzero;stroke:none"
       aria-label="20–24"
       transform="matrix(1.3333333,0,0,1.3333333,141.892,24.816)" />
    <path
       id="path7"
       d="M -15.77402,-11.33876 H 15.77403 V 11.33876 H -15.77402 Z"
       style="fill:none;stroke:#000000;stroke-width:0.3985;stroke-linecap:butt;stroke-linejoin:miter;stroke-miterlimit:10;stroke-dasharray:none;stroke-opacity:1"
       transform="matrix(1.3333333,0,0,-1.3333333,200.55867,19.806667)" />
    <path
       id="path8"
       d="M 4.4754063,-1.7340703 H 4.2175938 c -0.046875,0.3046875 -0.1171875,0.73828124 -0.2109375,0.89062499 -0.070313,0.0820313 -0.7265625,0.0820313 -0.9492188,0.0820313 H 1.2644688 L 2.3191563,-1.7926641 c 1.5585937,-1.3710937 2.15625,-1.9101562 2.15625,-2.90625 0,-1.1367187 -0.9023438,-1.9335937 -2.1210938,-1.9335937 -1.125,0 -1.8515625,0.9140625 -1.8515625,1.8046875 0,0.5507812 0.4921875,0.5507812 0.5273438,0.5507812 0.1640625,0 0.515625,-0.1171875 0.515625,-0.5273437 0,-0.2578125 -0.1875,-0.515625 -0.5273438,-0.515625 -0.0820313,0 -0.10546875,0 -0.12890625,0.011719 C 1.112125,-5.95282 1.6511875,-6.32782 2.2254063,-6.32782 c 0.9140625,0 1.3359375,0.8085937 1.3359375,1.6289062 0,0.796875 -0.4921875,1.5820313 -1.0429688,2.203125 L 0.60821875,-0.36297656 C 0.50275,-0.25750781 0.50275,-0.23407031 0.50275,3.046875e-4 h 3.6914063 z m 4.9833984,-0.2695313 c 0,-1.1835937 -0.8203125,-2.1796875 -1.8984375,-2.1796875 -0.4804688,0 -0.9023438,0.1640625 -1.265625,0.5039063 v -1.9335938 c 0.1992187,0.058594 0.5273437,0.1289063 0.84375,0.1289063 1.2304687,0 1.9335937,-0.9140625 1.9335937,-1.0429688 0,-0.058594 -0.035156,-0.1054687 -0.1054687,-0.1054687 0,0 -0.035156,0 -0.082031,0.023437 -0.1992187,0.09375 -0.6796875,0.2929687 -1.3476562,0.2929687 -0.3984375,0 -0.8554688,-0.070312 -1.3242188,-0.28125 -0.082031,-0.023437 -0.1289062,-0.023437 -0.1289062,-0.023437 -0.09375,0 -0.09375,0.082031 -0.09375,0.234375 v 2.953125 c 0,0.1757813 0,0.2578125 0.140625,0.2578125 0.070312,0 0.082031,-0.035156 0.1289062,-0.09375 0.1054688,-0.1523437 0.4804688,-0.6914062 1.2773438,-0.6914062 0.5273437,0 0.7734375,0.4570312 0.8554687,0.6328125 0.1523438,0.375 0.1757813,0.7617187 0.1757813,1.2539062 0,0.3515625 0,0.9492188 -0.234375,1.37109379 -0.2460938,0.38671875 -0.609375,0.64453125 -1.0664063,0.64453125 -0.7265625,0 -1.3007812,-0.52734375 -1.4648437,-1.11328124 0.023437,0.011719 0.058594,0.011719 0.1640625,0.011719 0.328125,0 0.5039062,-0.2460937 0.5039062,-0.4804687 0,-0.2460938 -0.1757812,-0.4921875 -0.5039062,-0.4921875 -0.140625,0 -0.4804688,0.070312 -0.4804688,0.5273437 0,0.85546879 0.6796875,1.82812504 1.7929688,1.82812504 1.1601562,0 2.1796875,-0.9609375 2.1796872,-2.22656284 z M 14.931461,-2.5426641 V -2.7536016 H 9.9627109 v 0.2109375 z m 4.488281,0.8085938 H 19.16193 c -0.04687,0.3046875 -0.117188,0.73828124 -0.210938,0.89062499 -0.07031,0.0820313 -0.726562,0.0820313 -0.949219,0.0820313 H 16.208805 L 17.263492,-1.792664 c 1.558594,-1.3710938 2.15625,-1.9101563 2.15625,-2.90625 0,-1.1367187 -0.902344,-1.9335937 -2.121094,-1.9335937 -1.125,0 -1.851562,0.9140625 -1.851562,1.8046875 0,0.5507812 0.492187,0.5507812 0.527344,0.5507812 0.164062,0 0.515625,-0.1171875 0.515625,-0.5273437 0,-0.2578125 -0.1875,-0.515625 -0.527344,-0.515625 -0.08203,0 -0.105469,0 -0.128906,0.011719 0.222656,-0.6445313 0.761718,-1.0195313 1.335937,-1.0195313 0.914063,0 1.335938,0.8085938 1.335938,1.6289063 0,0.7968749 -0.492188,1.5820312 -1.042969,2.2031249 l -1.910156,2.13281259 c -0.105469,0.10546875 -0.105469,0.12890625 -0.105469,0.3632812475 h 3.691406 z m 5.053711,-1.546875 c 0,-2.671875 -1.136719,-3.3515625 -2.027344,-3.3515625 -0.550781,0 -1.03125,0.1757812 -1.464843,0.6210937 -0.410157,0.4570313 -0.632813,0.8671875 -0.632813,1.6171875 0,1.2421875 0.878906,2.2265625 1.992188,2.2265625 0.609375,0 1.007812,-0.421875 1.242187,-0.9960937 v 0.3164062 c 0,2.33203129 -1.03125,2.78906254 -1.617187,2.78906254 -0.164063,0 -0.703125,-0.0234375 -0.972657,-0.36328125 0.433594,0 0.515625,-0.28125 0.515625,-0.45703125 0,-0.30468754 -0.234375,-0.45703124 -0.457031,-0.45703124 -0.164062,0 -0.457031,0.09375 -0.457031,0.48046874 0,0.66796875 0.539062,1.078125 1.382812,1.078125 1.289063,0 2.496094,-1.35937504 2.496094,-3.50390624 z m -0.914062,-0.9140625 c 0,0.8320312 -0.339844,1.7929687 -1.207032,1.7929687 -0.164062,0 -0.621093,0 -0.925781,-0.6210937 -0.1875,-0.375 -0.1875,-0.8671875 -0.1875,-1.359375 0,-0.5390625 0,-1.0078125 0.210938,-1.3710938 0.269531,-0.5039062 0.644531,-0.6328125 0.996093,-0.6328125 0.457032,0 0.785157,0.3398438 0.960938,0.7851563 0.117187,0.3164062 0.152344,0.9492187 0.152344,1.40625 z m 0,0"
       style="fill:#000000;fill-opacity:1;fill-rule:nonzero;stroke:none"
       aria-label="25–29"
       transform="matrix(1.3333333,0,0,1.3333333,183.95467,24.816)" />
    <path
       id="path9"
       d="M -15.77402,-11.33876 H 15.77403 V 11.33876 H -15.77402 Z"
       style="fill:none;stroke:#000000;stroke-width:0.3985;stroke-linecap:butt;stroke-linejoin:miter;stroke-miterlimit:10;stroke-dasharray:none;stroke-opacity:1"
       transform="matrix(1.3333333,0,0,-1.3333333,242.62267,19.806667)" />
    <path
       id="path10"
       d="m 4.5475234,-1.6989141 c 0,-0.8203125 -0.6210937,-1.59375 -1.6523437,-1.8046875 0.8085937,-0.2695312 1.3945312,-0.9726562 1.3945312,-1.7578125 0,-0.8203125 -0.8789062,-1.3710937 -1.8398437,-1.3710937 -1.0078125,0 -1.75781251,0.5976562 -1.75781251,1.3476562 0,0.3398438 0.2109375,0.5273438 0.50390621,0.5273438 0.3046875,0 0.5039063,-0.2226563 0.5039063,-0.515625 0,-0.4921875 -0.46875,-0.4921875 -0.609375,-0.4921875 0.3046875,-0.4921875 0.9609375,-0.6210938 1.3242187,-0.6210938 0.4101563,0 0.9492188,0.2226563 0.9492188,1.1132813 0,0.1289062 -0.011719,0.703125 -0.2695313,1.1367187 -0.3046875,0.4804688 -0.6445312,0.515625 -0.890625,0.515625 -0.082031,0.011719 -0.3164062,0.035156 -0.3867187,0.035156 -0.082031,0.011719 -0.1523438,0.023437 -0.1523438,0.1171875 0,0.1171875 0.070312,0.1171875 0.234375,0.1171875 h 0.4453125 c 0.8085938,0 1.1835938,0.6679687 1.1835938,1.6523437 0,1.34765629 -0.6914063,1.64062504 -1.125,1.64062504 -0.4335938,0 -1.171875,-0.17578125 -1.52343751,-0.76171875 0.35156251,0.0585938 0.65625001,-0.1640625 0.65625001,-0.53906249 0,-0.3632813 -0.2695313,-0.5625 -0.56250001,-0.5625 -0.234375,0 -0.55078125,0.140625 -0.55078125,0.5742187 0,0.91406254 0.92578126,1.57031254 2.00390626,1.57031254 1.21875,0 2.1210937,-0.9140625 2.1210937,-1.92187474 z m 5.015625,-1.4882812 c 0,-0.796875 -0.046875,-1.59375 -0.3984375,-2.3320313 -0.4570312,-0.9609375 -1.2773437,-1.1132812 -1.6875,-1.1132812 -0.5976562,0 -1.3359375,0.2578125 -1.734375,1.1835937 -0.328125,0.6914063 -0.375,1.4648438 -0.375,2.2617188 0,0.75 0.046875,1.640625 0.4453125,2.40234374 0.4335938,0.80859375 1.1601563,1.0078125 1.6523438,1.0078125 0.5390625,0 1.2890625,-0.2109375 1.734375,-1.16015625 C 9.5162734,-1.6286016 9.5631484,-2.4020391 9.5631484,-3.1871953 Z M 8.7311172,-3.3043828 c 0,0.75 0,1.4179687 -0.1054688,2.0625 -0.1523437,0.93749999 -0.7148437,1.2421874875 -1.1601562,1.2421874875 -0.3867188,0 -0.984375,-0.2460937475 -1.1601563,-1.2070312875 -0.1054687,-0.5976562 -0.1054687,-1.5117187 -0.1054687,-2.0976562 0,-0.6445313 0,-1.3007813 0.082031,-1.8398438 0.1875,-1.1835937 0.9257813,-1.265625 1.1835938,-1.265625 0.328125,0 0.984375,0.1757813 1.171875,1.1601563 0.09375,0.5625 0.09375,1.3125 0.09375,1.9453125 z m 6.1992188,0.7617187 V -2.7536016 H 9.9615859 v 0.2109375 z m 4.561523,0.84375 c 0,-0.8203125 -0.621093,-1.59375 -1.652343,-1.8046875 0.808593,-0.2695312 1.394531,-0.9726562 1.394531,-1.7578125 0,-0.8203125 -0.878906,-1.3710937 -1.839844,-1.3710937 -1.007812,0 -1.757812,0.5976562 -1.757812,1.3476562 0,0.3398438 0.210937,0.5273438 0.503906,0.5273438 0.304687,0 0.503906,-0.2226563 0.503906,-0.515625 0,-0.4921875 -0.46875,-0.4921875 -0.609375,-0.4921875 0.304688,-0.4921875 0.960938,-0.6210938 1.324219,-0.6210938 0.410156,0 0.949219,0.2226563 0.949219,1.1132813 0,0.1289062 -0.01172,0.703125 -0.269532,1.1367187 -0.304687,0.4804688 -0.644531,0.515625 -0.890625,0.515625 -0.08203,0.011719 -0.316406,0.035156 -0.386718,0.035156 -0.08203,0.011719 -0.152344,0.023437 -0.152344,0.1171875 0,0.1171875 0.07031,0.1171875 0.234375,0.1171875 h 0.445312 c 0.808594,0 1.183594,0.6679687 1.183594,1.6523437 0,1.34765629 -0.691406,1.64062504 -1.125,1.64062504 -0.433594,0 -1.171875,-0.17578125 -1.523437,-0.76171875 0.351562,0.0585938 0.65625,-0.1640625 0.65625,-0.53906249 0,-0.3632813 -0.269532,-0.5625 -0.5625,-0.5625 -0.234375,0 -0.550782,0.140625 -0.550782,0.5742187 0,0.91406254 0.925782,1.57031254 2.003907,1.57031254 1.21875,0 2.121093,-0.9140625 2.121093,-1.92187474 z m 5.121094,0.058594 v -0.3164063 h -0.996094 v -4.5234375 c 0,-0.1992187 0,-0.2578125 -0.152343,-0.2578125 -0.09375,0 -0.117188,0 -0.199219,0.1171875 l -3.058594,4.6640625 v 0.3164063 h 2.648438 v 0.86718749 c 0,0.3515625 -0.02344,0.46875 -0.761719,0.46875 H 21.882484 V 3.046875e-4 c 0.410157,-0.0351562475 0.9375,-0.0351562475 1.347657,-0.0351562475 0.421875,0 0.949218,0 1.359375,0.0351562475 V -0.30438281 h -0.210938 c -0.738281,0 -0.761719,-0.1171875 -0.761719,-0.46875 V -1.6403203 Z m -1.699219,-0.3164063 h -2.425781 l 2.425781,-3.7148437 z m 0,0"
       style="fill:#000000;fill-opacity:1;fill-rule:nonzero;stroke:none"
       aria-label="30–34"
       transform="matrix(1.3333333,0,0,1.3333333,226.01867,24.816)" />
    <path
       id="path11"
       d="M -34.0161,-11.33876 H 34.0161 V 11.33876 H -34.0161 Z"
       style="fill:none;stroke:#000000;stroke-width:0.3985;stroke-linecap:butt;stroke-linejoin:miter;stroke-miterlimit:10;stroke-dasharray:none;stroke-opacity:1"
       transform="matrix(1.3333333,0,0,-1.3333333,50.046667,50.042667)" />
    <path
       id="path12"
       d="M 4.8166562,-9.140625e-4 V -3.8915391 C 4.4182187,-4.4598984 4.0490781,-4.8788438 3.7150937,-5.1454453 3.3781797,-5.4091172 3.0148984,-5.5438828 2.62525,-5.5438828 c -0.3515625,0 -0.6386719,0.09082 -0.8554688,0.2695312 -0.2197265,0.1816407 -0.4042968,0.3837891 -0.5507812,0.609375 0.099609,-0.052734 0.234375,-0.09668 0.3984375,-0.1289062 0.1640625,-0.038086 0.3427734,-0.058594 0.5390625,-0.058594 0.3046875,0 0.5507812,0.064453 0.7382812,0.1875 0.1875,0.1171875 0.3222657,0.2666016 0.4101563,0.4453125 0.09375,0.1816407 0.140625,0.3603516 0.140625,0.5390625 0,0.3925782 -0.1347656,0.7441407 -0.3984375,1.0546875 -0.2666016,0.3134766 -0.6767578,0.6181641 -1.2304688,0.9140625 l -0.515625,-0.7265625 c 0.366211,-0.1552734 0.6826172,-0.328125 0.9492188,-0.515625 0.2636719,-0.1875 0.3984375,-0.4130859 0.3984375,-0.6796875 0,-0.1464843 -0.058594,-0.2695312 -0.1757813,-0.3632812 -0.1113281,-0.099609 -0.2695312,-0.1523438 -0.4804687,-0.1523438 -0.1728516,0 -0.3339844,0.020508 -0.4804688,0.058594 -0.149414,0.041016 -0.3105468,0.102539 -0.4804687,0.1875 l -0.80859375,-0.65625 c 0.3046875,-0.5214844 0.64453125,-0.9375 1.01953125,-1.2421875 0.375,-0.3105469 0.8085937,-0.46875 1.3007812,-0.46875 0.4511719,0 0.8583985,0.1142578 1.21875,0.3398437 0.3574219,0.2197266 0.7207032,0.5478516 1.0898438,0.984375 -0.00879,-0.1083984 -0.017578,-0.2402343 -0.023437,-0.3984375 -0.00879,-0.1640625 -0.011719,-0.3222656 -0.011719,-0.4804687 v -1.03125 H 5.344 l 0.234375,0.65625 h 1.0546875 v 0.7148437 H 5.5900937 V -9.140625e-4 Z M 12.817633,-6.2001328 v 0.7148437 H 11.762945 V -9.140625e-4 H 11.001227 V -3.8915391 C 10.585211,-4.4598984 10.198492,-4.8788438 9.8410703,-5.1454453 9.4807187,-5.4091172 9.1174375,-5.5438828 8.7512266,-5.5438828 c -0.3134766,0 -0.5595704,0.09082 -0.7382813,0.2695312 -0.1728516,0.1728516 -0.2578125,0.3925782 -0.2578125,0.65625 0,0.328125 0.1171875,0.5800782 0.3515625,0.75 0.234375,0.1640625 0.6240234,0.2753907 1.171875,0.328125 l -0.058594,0.8320313 C 8.7805234,-2.7460313 8.390875,-2.8397813 8.0481016,-2.9891953 7.7023984,-3.1444688 7.4299375,-3.3554063 7.2277891,-3.6220078 7.0315,-3.8856797 6.9348203,-4.2138047 6.9348203,-4.6063828 c 0,-0.3574219 0.076172,-0.6591797 0.234375,-0.9023438 0.1640625,-0.2490234 0.375,-0.4365234 0.6328125,-0.5625 0.2578125,-0.1318359 0.5332031,-0.1992187 0.8320313,-0.1992187 0.4833984,0 0.9082031,0.1171875 1.2773437,0.3515625 0.3662112,0.2285156 0.7412112,0.5595703 1.1250002,0.9960937 -0.0088,-0.1171875 -0.01758,-0.2490234 -0.02344,-0.3984375 -0.0088,-0.1464843 -0.01172,-0.2871093 -0.01172,-0.421875 v -1.1132812 h 0.527343 l 0.222657,0.65625 z m 6.785156,0 v 0.7148437 H 18.55982 V -9.140625e-4 H 17.798102 V -3.1766953 c -0.149415,-0.178711 -0.28125,-0.3164063 -0.398438,-0.4101563 -0.117187,-0.099609 -0.231445,-0.1523437 -0.339844,-0.1523437 -0.09375,0 -0.18457,0.029297 -0.269531,0.082031 -0.0791,0.055664 -0.169922,0.1582032 -0.269531,0.3046875 -0.09375,0.1494141 -0.222656,0.375 -0.386719,0.6796875 -0.181641,0.328125 -0.345703,0.5976563 -0.492187,0.8085938 -0.149415,0.2050781 -0.304688,0.3574219 -0.46875,0.4570312 -0.158204,0.09375 -0.351563,0.140625 -0.585938,0.140625 -0.266602,0 -0.521484,-0.082031 -0.761719,-0.2460937 -0.234375,-0.1699219 -0.489258,-0.4746094 -0.761718,-0.9140625 l 0.609375,-0.375 c 0.17871,0.3222656 0.328125,0.5332031 0.445312,0.6328125 0.117188,0.09375 0.246094,0.140625 0.386719,0.140625 0.140625,0 0.27539,-0.052734 0.410156,-0.1640625 0.131836,-0.1171875 0.292969,-0.3310547 0.480469,-0.6445313 -0.06445,-0.4130859 -0.134766,-0.7412109 -0.210938,-0.984375 -0.07031,-0.2402343 -0.18457,-0.4335937 -0.339843,-0.5742187 -0.164063,-0.1464844 -0.392579,-0.2607422 -0.679688,-0.3398438 -0.28125,-0.076172 -0.641602,-0.1435547 -1.078125,-0.1992187 l 0.117188,-0.5507813 H 12.606695 V -6.200133 Z m -5.824219,0.7148437 c 0.506836,0.070312 0.905274,0.1816407 1.195313,0.328125 0.287109,0.140625 0.498047,0.3398438 0.632812,0.5976563 0.131836,0.2519531 0.213867,0.5800781 0.246094,0.984375 0.164063,-0.3427735 0.322266,-0.5771485 0.480469,-0.703125 0.155273,-0.131836 0.328125,-0.1992188 0.515625,-0.1992188 0.178711,0 0.342773,0.043945 0.492187,0.1289063 0.146485,0.087891 0.307617,0.2167969 0.480469,0.3867187 -0.01758,-0.099609 -0.02344,-0.2021484 -0.02344,-0.3046875 0,-0.099609 0,-0.1992187 0,-0.2929687 v -0.9257813 z m 6.500977,0.6445313 c 0,-0.413086 0.131836,-0.741211 0.398437,-0.984375 0.272461,-0.2490235 0.609375,-0.375 1.007813,-0.375 0.398437,0 0.729492,0.1259765 0.996094,0.375 0.272461,0.243164 0.410156,0.571289 0.410156,0.984375 0,0.4160156 -0.137695,0.7470703 -0.410156,0.9960937 -0.266602,0.2431641 -0.597657,0.3632813 -0.996094,0.3632813 -0.398438,0 -0.735352,-0.1201172 -1.007813,-0.3632813 -0.266601,-0.2490234 -0.398437,-0.5800781 -0.398437,-0.9960937 z m 0.691406,0 c 0,0.2285156 0.06445,0.4042969 0.199219,0.5273437 0.140625,0.1259766 0.310547,0.1875 0.515625,0.1875 0.210937,0 0.380859,-0.061523 0.515625,-0.1875 0.131836,-0.1318359 0.199219,-0.3076172 0.199219,-0.5273437 0,-0.225586 -0.06738,-0.3984375 -0.199219,-0.515625 -0.134766,-0.1230469 -0.304688,-0.1875 -0.515625,-0.1875 -0.205078,0 -0.375,0.067383 -0.515625,0.1992187 -0.134766,0.1259766 -0.199219,0.2929688 -0.199219,0.5039063 z m -0.234375,1.7109375 c 0.413086,0.2519531 0.808594,0.5507812 1.183594,0.9023437 0.375,0.3515625 0.714844,0.7265625 1.019531,1.125 0.310547,0.39843754 0.574219,0.79394535 0.785156,1.18359379 l -0.644531,0.328125 C 22.804937,-0.00970313 22.532477,-0.3905625 22.260016,-0.72747656 21.993414,-1.0614609 21.700445,-1.3720078 21.381109,-1.6532578 c -0.322265,-0.2871094 -0.703125,-0.5683594 -1.148437,-0.84375 z m 4.461914,-1.1601563 c -0.407226,0 -0.732422,-0.099609 -0.972656,-0.3046875 -0.234375,-0.2109375 -0.351563,-0.4980468 -0.351563,-0.8671875 0,-0.1464843 0.01758,-0.2929687 0.05859,-0.4335937 0.04687,-0.140625 0.09668,-0.2607422 0.152344,-0.3632813 l 0.761719,0.2109375 c -0.04687,0.070312 -0.08789,0.1523438 -0.117188,0.2460938 -0.03223,0.09375 -0.04687,0.196289 -0.04687,0.3046875 0,0.1728515 0.04687,0.3017578 0.140625,0.3867187 0.09375,0.079102 0.216797,0.1171875 0.375,0.1171875 0.131836,0 0.269531,-0.023437 0.410156,-0.070312 0.146485,-0.052734 0.298829,-0.1582031 0.457032,-0.3164062 0.155273,-0.1640625 0.310547,-0.4013672 0.46875,-0.7148438 l 0.539062,-0.1289062 c 0.225586,0.2050781 0.413086,0.4394531 0.5625,0.703125 0.155274,0.2578125 0.234375,0.5361328 0.234375,0.8320312 0,0.5332032 -0.1875,0.9492188 -0.5625,1.2539063 -0.375,0.2988281 -0.852539,0.5009765 -1.429687,0.609375 0.483398,0.1347656 0.902343,0.3046875 1.253906,0.515625 0.351562,0.2050781 0.647461,0.421875 0.890625,0.65625 0.240234,0.234375 0.439453,0.4658203 0.597656,0.69140624 -0.0088,-0.15527344 -0.01758,-0.30761724 -0.02344,-0.45703124 0,-0.1552735 0,-0.3222656 0,-0.5039063 v -4.9335937 h 0.527343 l 0.234375,0.65625 h 1.054688 v 0.7148437 H 29.370367 V -9.140625e-4 H 28.59693 C 28.344977,-0.367125 28.049078,-0.70989844 27.706305,-1.0321641 27.369391,-1.3515 26.979742,-1.6298203 26.53443,-1.8641953 c -0.439453,-0.2402344 -0.9375,-0.4101563 -1.5,-0.5039063 l -0.234375,-0.9257812 c 0.802734,-0.061523 1.388672,-0.2109375 1.757812,-0.4453125 0.375,-0.234375 0.5625,-0.5332031 0.5625,-0.9023438 0,-0.2578125 -0.0791,-0.4863281 -0.234375,-0.6914062 -0.196289,0.3222656 -0.439453,0.5742187 -0.726562,0.7617187 -0.28125,0.1875 -0.603516,0.28125 -0.960938,0.28125 z m 7.754883,-1.9101562 v 0.7148437 h -0.351563 c -0.205078,0.1816407 -0.357421,0.3486328 -0.457031,0.5039063 -0.102539,0.149414 -0.172851,0.3046875 -0.210937,0.46875 -0.03223,0.1640625 -0.04687,0.3574219 -0.04687,0.5742187 0,0.2197266 0.02637,0.4541016 0.08203,0.703125 0.05273,0.2431641 0.108398,0.4980469 0.164062,0.7617188 0.05273,0.2578125 0.08203,0.5332031 0.08203,0.8203125 0,0.3222656 -0.05273,0.6269531 -0.152344,0.91406249 -0.102539,0.28125 -0.298828,0.53320312 -0.585938,0.75 -0.28125,0.21679687 -0.703125,0.38671875 -1.265625,0.50390625 l -0.199218,-0.6796875 c 0.418945,-0.0996094 0.732422,-0.22558594 0.9375,-0.375 0.202148,-0.14648438 0.333984,-0.31933594 0.398437,-0.51562504 0.06152,-0.1933593 0.09375,-0.4013672 0.09375,-0.6210937 0,-0.2636719 -0.0293,-0.5214844 -0.08203,-0.7734375 -0.05566,-0.2490235 -0.111328,-0.4951172 -0.164063,-0.7382813 -0.05566,-0.2490234 -0.08203,-0.4921875 -0.08203,-0.7265625 0,-0.3339843 0.03809,-0.6152343 0.117188,-0.84375 0.08496,-0.234375 0.237304,-0.4746093 0.457031,-0.7265625 h -1.476563 v -0.7148437 z m 2.657227,0 v 0.7148437 H 34.555914 V -9.140625e-4 H 33.794195 V -4.6766953 c -0.0791,-0.225586 -0.196289,-0.4160156 -0.351562,-0.5742188 -0.158203,-0.1552734 -0.360352,-0.234375 -0.609375,-0.234375 h -0.08203 v -0.7148437 h 0.152343 c 0.164063,0 0.331055,0.055664 0.503907,0.1640625 0.169921,0.102539 0.307617,0.2578125 0.410156,0.46875 0,-0.029297 -0.0059,-0.1054688 -0.01172,-0.2226563 -0.0088,-0.1230468 -0.01172,-0.2285156 -0.01172,-0.3164062 v -0.75 h 0.539063 l 0.222656,0.65625 z m 0,0"
       style="fill:#000000;fill-opacity:1;fill-rule:nonzero;stroke:none"
       aria-label="গণসংখযা"
       transform="matrix(1.3333333,0,0,1.3333333,26.374667,55.052)" />
    <path
       id="path13"
       d="M -15.59082,-11.33876 H 15.59084 V 11.33876 H -15.59082 Z"
       style="fill:none;stroke:#000000;stroke-width:0.3985;stroke-linecap:butt;stroke-linejoin:miter;stroke-miterlimit:10;stroke-dasharray:none;stroke-opacity:1"
       transform="matrix(1.3333333,0,0,-1.3333333,116.432,50.042667)" />
    <path
       id="path14"
       d="M 4.4755938,-1.7352891 H 4.2177813 c -0.046875,0.3046875 -0.1171875,0.73828129 -0.2109375,0.89062504 -0.070313,0.0820313 -0.7265625,0.0820313 -0.9492188,0.0820313 H 1.2646563 L 2.3193438,-1.7938828 c 1.5585937,-1.3710938 2.15625,-1.9101563 2.15625,-2.90625 0,-1.1367188 -0.9023438,-1.9335938 -2.1210938,-1.9335938 -1.125,0 -1.8515625,0.9140625 -1.8515625,1.8046875 0,0.5507813 0.4921875,0.5507813 0.5273438,0.5507813 0.1640625,0 0.515625,-0.1171875 0.515625,-0.5273438 0,-0.2578125 -0.1875,-0.515625 -0.5273438,-0.515625 -0.0820313,0 -0.10546875,0 -0.12890625,0.011719 0.22265625,-0.6445313 0.76171875,-1.0195313 1.33593755,-1.0195313 0.9140625,0 1.3359375,0.8085938 1.3359375,1.6289063 0,0.796875 -0.4921875,1.5820312 -1.0429688,2.203125 L 0.60840625,-0.36419531 C 0.5029375,-0.25872656 0.5029375,-0.23528906 0.5029375,-9.140625e-4 h 3.6914063 z m 0,0"
       style="fill:#000000;fill-opacity:1;fill-rule:nonzero;stroke:none"
       aria-label="2"
       transform="matrix(1.3333333,0,0,1.3333333,113.11067,55.052)" />
    <path
       id="path15"
       d="M -15.59082,-11.33876 H 15.59084 V 11.33876 H -15.59082 Z"
       style="fill:none;stroke:#000000;stroke-width:0.3985;stroke-linecap:butt;stroke-linejoin:miter;stroke-miterlimit:10;stroke-dasharray:none;stroke-opacity:1"
       transform="matrix(1.3333333,0,0,-1.3333333,158.496,50.042667)" />
    <path
       id="path16"
       d="m 4.5477109,-1.6766953 c 0,-0.3515625 -0.1054687,-0.8085938 -0.4804687,-1.21875 -0.1875,-0.2109375 -0.3515625,-0.3164063 -0.984375,-0.7148438 0.7148437,-0.3632812 1.2070312,-0.8789062 1.2070312,-1.5351562 0,-0.9257813 -0.890625,-1.4882813 -1.7929687,-1.4882813 -0.9960938,0 -1.80468751,0.7382813 -1.80468751,1.6640625 0,0.1757813 0.0117188,0.6210938 0.43359371,1.0898438 0.1054688,0.1289062 0.4804688,0.375 0.7265625,0.5390625 -0.5742187,0.2929687 -1.42968746,0.84375 -1.42968746,1.8398437 0,1.05468754 1.00781246,1.72265629 2.06249996,1.72265629 1.125,0 2.0625,-0.83203125 2.0625,-1.89843749 z m -0.703125,-3.46875 c 0,0.5625 -0.3867187,1.0429687 -0.984375,1.3945312 l -1.2304687,-0.796875 c -0.46875,-0.3046875 -0.5039063,-0.6445312 -0.5039063,-0.8085937 0,-0.609375 0.6445313,-1.03125 1.359375,-1.03125 0.7265625,0 1.359375,0.515625 1.359375,1.2421875 z m 0.2109375,3.8320312 c 0,0.73828129 -0.75,1.25390629 -1.5585937,1.25390629 -0.8671875,0 -1.58203126,-0.62109375 -1.58203126,-1.44140629 0,-0.5859375 0.31640626,-1.21875 1.17187496,-1.6875 l 1.21875,0.7734375 c 0.28125,0.1875 0.75,0.4921875 0.75,1.1015625 z m 0,0"
       style="fill:#000000;fill-opacity:1;fill-rule:nonzero;stroke:none"
       aria-label="8"
       transform="matrix(1.3333333,0,0,1.3333333,155.17467,55.052)" />
    <path
       id="path17"
       d="M -15.59082,-11.33876 H 15.59084 V 11.33876 H -15.59082 Z"
       style="fill:none;stroke:#000000;stroke-width:0.3985;stroke-linecap:butt;stroke-linejoin:miter;stroke-miterlimit:10;stroke-dasharray:none;stroke-opacity:1"
       transform="matrix(1.3333333,0,0,-1.3333333,200.55867,50.042667)" />
    <path
       id="path18"
       d="M 4.1723516,-9.140625e-4 V -0.30560156 H 3.8559453 c -0.9023437,0 -0.9257812,-0.1171875 -0.9257812,-0.48046875 V -6.3759141 c 0,-0.234375 0,-0.2578125 -0.234375,-0.2578125 -0.609375,0.6328125 -1.4882813,0.6328125 -1.80468754,0.6328125 v 0.3164063 c 0.19921874,0 0.78515624,0 1.30078124,-0.2578125 v 5.15624999 c 0,0.3515625 -0.035156,0.48046875 -0.9257812,0.48046875 H 0.94969531 V -9.140625e-4 C 1.3012578,-0.03607031 2.1567266,-0.03607031 2.5551641,-0.03607031 c 0.3984375,0 1.265625,0 1.6171875,0.0351562475 z M 9.5629766,-3.1884141 c 0,-0.796875 -0.046875,-1.59375 -0.3984375,-2.3320312 -0.4570313,-0.9609375 -1.2773438,-1.1132813 -1.6875,-1.1132813 -0.5976563,0 -1.3359375,0.2578125 -1.734375,1.1835938 -0.328125,0.6914062 -0.375,1.4648437 -0.375,2.2617187 0,0.75 0.046875,1.640625 0.4453125,2.40234379 0.4335937,0.80859375 1.1601562,1.0078125 1.6523437,1.0078125 0.5390625,0 1.2890625,-0.2109375 1.734375,-1.16015625 C 9.5161016,-1.6298203 9.5629766,-2.4032578 9.5629766,-3.1884141 Z M 8.7309453,-3.3056016 c 0,0.75 0,1.4179688 -0.1054687,2.0625 -0.1523438,0.93750004 -0.7148438,1.2421875375 -1.1601563,1.2421875375 -0.3867187,0 -0.984375,-0.2460937475 -1.1601562,-1.2070312375 -0.1054688,-0.5976563 -0.1054688,-1.5117188 -0.1054688,-2.0976563 0,-0.6445312 0,-1.3007812 0.082031,-1.8398437 0.1875,-1.1835938 0.9257812,-1.265625 1.1835937,-1.265625 0.328125,0 0.984375,0.1757812 1.171875,1.1601562 0.09375,0.5625 0.09375,1.3125 0.09375,1.9453125 z m 0,0"
       style="fill:#000000;fill-opacity:1;fill-rule:nonzero;stroke:none"
       aria-label="10"
       transform="matrix(1.3333333,0,0,1.3333333,193.91733,55.052)" />
    <path
       id="path19"
       d="M -15.59082,-11.33876 H 15.59084 V 11.33876 H -15.59082 Z"
       style="fill:none;stroke:#000000;stroke-width:0.3985;stroke-linecap:butt;stroke-linejoin:miter;stroke-miterlimit:10;stroke-dasharray:none;stroke-opacity:1"
       transform="matrix(1.3333333,0,0,-1.3333333,242.62267,50.042667)" />
    <path
       id="path20"
       d="m 4.5464609,-2.0282578 c 0,-1.265625 -0.8789062,-2.2265625 -1.9921875,-2.2265625 -0.6679687,0 -1.0429687,0.5039062 -1.2421875,0.984375 v -0.234375 c 0,-2.5195313 1.2421875,-2.8828125 1.7460938,-2.8828125 0.234375,0 0.65625,0.058594 0.8789062,0.3984375 -0.1523437,0 -0.5507812,0 -0.5507812,0.4453125 0,0.3164062 0.234375,0.4570312 0.4570312,0.4570312 0.1640625,0 0.4570313,-0.082031 0.4570313,-0.46875 0,-0.5976562 -0.4335938,-1.078125 -1.265625,-1.078125 -1.2773438,0 -2.61328126,1.2890625 -2.61328126,3.4804688 0,2.66015624 1.14843746,3.37499999 2.07421876,3.37499999 1.1132812,0 2.0507812,-0.9375 2.0507812,-2.24999999 z m -0.890625,-0.011719 c 0,0.4804688 0,0.9726563 -0.1640625,1.33593754 -0.3046875,0.59765625 -0.7617187,0.64453125 -0.9960937,0.64453125 -0.6210938,0 -0.9257813,-0.59765625 -0.984375,-0.75 C 1.3355234,-1.2782578 1.3355234,-2.0751328 1.3355234,-2.2509141 c 0,-0.7734375 0.3164063,-1.7695312 1.21875,-1.7695312 0.1523438,0 0.609375,0 0.9257813,0.609375 0.1757812,0.375 0.1757812,0.8789062 0.1757812,1.3710935 z m 0,0"
       style="fill:#000000;fill-opacity:1;fill-rule:nonzero;stroke:none"
       aria-label="6"
       transform="matrix(1.3333333,0,0,1.3333333,239.30133,55.052)" />
  </g>
</svg>
