<svg xmlns="http://www.w3.org/2000/svg" width="160.80673pt" height="141.2651pt" viewBox="-72 -72 160.80673 141.2651" style="position: absolute; top: 0pt; left: 0pt; overflow: visible;">
<g transform="translate(-53.25132751464842,55.26803588867186)">
<g stroke-miterlimit="10" transform="scale(1,-1)"><g stroke="#000" fill="#000">
 <g stroke-width="0.4">
 <g stroke-width="1.6">
 <path d=" M 0.0 0.0 L 113.81097 0.0 L 113.81097 113.81097 L 0.0 113.81097 Z  " fill="none"/>
 </g>
 <g stroke-width="1.6">
 <path d=" M 56.90549 56.90549 M 113.81097 56.90549 C 113.81097 88.33392 88.33392 113.81097 56.90549 113.81097 C 25.47705 113.81097 0.0 88.33392 0.0 56.90549 C 0.0 25.47705 25.47705 0.0 56.90549 0.0 C 88.33392 0.0 113.81097 25.47705 113.81097 56.90549 Z M 56.90549 56.90549  " fill="none"/>
 </g>
 <g stroke-width="1.6">
 <path d=" M 56.90549 56.90549 L 113.81097 56.90549  " fill="none"/>
 </g>
 <g stroke-width="1.6">
 <path d=" M 56.90549 56.90549 L 100.4972 93.48386  " fill="none"/>
 </g>
 <g stroke-width="0.8">
 <path d=" M 73.9773 56.90549 C 73.9773 60.91867 72.56253 64.805 69.98311 67.87909  " fill="none"/>
 </g>
 <g transform="translate(75.22272,62.09921)">
 <g stroke="none" transform="scale(-1.00375,1.00375)translate(-49.91799926757811,55.26803588867186)scale(-1,-1)"><g fill="#000">
 <g stroke="none"> <text alignment-baseline="baseline" y="55.26803588867186" x="-49.91799926757811" style="font-family: cmr9;" font-size="9">30</text>
<text alignment-baseline="baseline" y="51.44474792480467" x="-40.66806030273437" style="font-family: cmsy6;" font-size="6">◦</text>
</g> </g>
 </g></g>
 <g stroke-width="0.8">
 <path d=" M 0.0 0.0 M 8.5359 0.0 L 8.5359 8.5359 L 0.0 8.5359  " fill="none"/>
 </g>
 <g transform="translate(-12.22737,-10.39409)">
 <g stroke="none" transform="scale(-1.00375,1.00375)translate(-49.91799926757811,55.26803588867186)scale(-1,-1)"><g fill="#000">
 <g stroke="none"> <text alignment-baseline="baseline" y="55.26803588867186" x="-49.91799926757811" style="font-family: cmbx10;" font-size="10">A</text>
</g> </g>
 </g></g>
 <g transform="translate(117.34395,-10.39409)">
 <g stroke="none" transform="scale(-1.00375,1.00375)translate(-49.91799926757811,55.26803588867186)scale(-1,-1)"><g fill="#000">
 <g stroke="none"> <text alignment-baseline="baseline" y="55.26803588867186" x="-49.91799926757811" style="font-family: cmbx10;" font-size="10">B</text>
</g> </g>
 </g></g>
 <g transform="translate(117.34395,117.34395)">
 <g stroke="none" transform="scale(-1.00375,1.00375)translate(-49.91799926757811,55.26803588867186)scale(-1,-1)"><g fill="#000">
 <g stroke="none"> <text alignment-baseline="baseline" y="55.26803588867186" x="-49.91799926757811" style="font-family: cmbx10;" font-size="10">C</text>
</g> </g>
 </g></g>
 <g transform="translate(-12.35237,117.34395)">
 <g stroke="none" transform="scale(-1.00375,1.00375)translate(-49.91799926757811,55.26803588867186)scale(-1,-1)"><g fill="#000">
 <g stroke="none"> <text alignment-baseline="baseline" y="55.26803588867186" x="-49.91799926757811" style="font-family: cmbx10;" font-size="10">D</text>
</g> </g>
 </g></g>
 <g transform="translate(44.73369,46.5114)">
 <g stroke="none" transform="scale(-1.00375,1.00375)translate(-49.91799926757811,55.26803588867186)scale(-1,-1)"><g fill="#000">
 <g stroke="none"> <text alignment-baseline="baseline" y="55.26803588867186" x="-49.91799926757811" style="font-family: cmbx10;" font-size="10">O</text>
</g> </g>
 </g></g>
 <g transform="translate(104.03017,97.01683)">
 <g stroke="none" transform="scale(-1.00375,1.00375)translate(-49.91799926757811,55.26803588867186)scale(-1,-1)"><g fill="#000">
 <g stroke="none"> <text alignment-baseline="baseline" y="55.26803588867186" x="-49.91799926757811" style="font-family: cmbx10;" font-size="10">F</text>
</g> </g>
 </g></g>
 <g transform="translate(102.72249,46.5114)">
 <g stroke="none" transform="scale(-1.00375,1.00375)translate(-49.91799926757811,55.26803588867186)scale(-1,-1)"><g fill="#000">
 <g stroke="none"> <text alignment-baseline="baseline" y="55.26803588867186" x="-49.91799926757811" style="font-family: cmbx10;" font-size="10">E</text>
</g> </g>
 </g></g>
 <g transform="translate(46.34991,117.34395)">
 <g stroke="none" transform="scale(-1.00375,1.00375)translate(-49.91799926757811,55.26803588867186)scale(-1,-1)"><g fill="#000">
 <g stroke="none"> <text alignment-baseline="baseline" y="55.26803588867186" x="-49.91799926757811" style="font-family: cmr10;" font-size="10">5</text>
<text alignment-baseline="baseline" y="55.26803588867186" x="-41.58465194702148" style="font-family: cmr10;" font-size="10">cm</text>
</g> </g>
 </g></g>
 <g transform="translate(117.34393,30.92142)">
 <g stroke="none" transform="scale(-1.00375,1.00375)translate(-49.91799926757811,55.26803588867186)scale(-1,-1)"><g fill="#000">
 <g stroke="none"> <text alignment-baseline="baseline" y="55.26803588867186" x="-49.91799926757811" style="font-family: cmr10;" font-size="10">5</text>
<text alignment-baseline="baseline" y="55.26803588867186" x="-41.58465194702148" style="font-family: cmr10;" font-size="10">cm</text>
</g> </g>
 </g></g>
 <g transform="translate(46.34991,-9.9774)">
 <g stroke="none" transform="scale(-1.00375,1.00375)translate(-49.91799926757811,55.26803588867186)scale(-1,-1)"><g fill="#000">
 <g stroke="none"> <text alignment-baseline="baseline" y="55.26803588867186" x="-49.91799926757811" style="font-family: cmr10;" font-size="10">5</text>
<text alignment-baseline="baseline" y="55.26803588867186" x="-41.58465194702148" style="font-family: cmr10;" font-size="10">cm</text>
</g> </g>
 </g></g>
 </g>
 </g>
 </g></g></svg>