<?xml version="1.0" encoding="UTF-8" standalone="no"?>
<!-- Created with Inkscape (http://www.inkscape.org/) -->

<svg
   version="1.1"
   id="svg1"
   width="461.81332"
   height="164.02667"
   viewBox="0 0 461.81332 164.02667"
   sodipodi:docname="upload_ut44t2kkqt4hb5g46nqcw26qbp.pdf"
   xmlns:inkscape="http://www.inkscape.org/namespaces/inkscape"
   xmlns:sodipodi="http://sodipodi.sourceforge.net/DTD/sodipodi-0.dtd"
   xmlns="http://www.w3.org/2000/svg"
   xmlns:svg="http://www.w3.org/2000/svg">
  <defs
     id="defs1" />
  <sodipodi:namedview
     id="namedview1"
     pagecolor="#ffffff"
     bordercolor="#000000"
     borderopacity="0.25"
     inkscape:showpageshadow="2"
     inkscape:pageopacity="0.0"
     inkscape:pagecheckerboard="0"
     inkscape:deskcolor="#d1d1d1">
    <inkscape:page
       x="0"
       y="0"
       inkscape:label="1"
       id="page1"
       width="461.81332"
       height="164.02667"
       margin="0"
       bleed="0" />
  </sodipodi:namedview>
  <g
     id="g1"
     inkscape:groupmode="layer"
     inkscape:label="1">
    <path
       id="path1"
       d="M -148.13152,73.65376 H 148.13152"
       style="fill:none;stroke:#000000;stroke-width:0.79701;stroke-linecap:butt;stroke-linejoin:miter;stroke-miterlimit:10;stroke-dasharray:none;stroke-opacity:1"
       transform="matrix(1.3333333,0,0,-1.3333333,230.816,129.68)" />
    <path
       id="path2"
       d="M -1.55415,2.0722 C -1.42464,1.29512 0,0.1295 0.38852,0 0,-0.1295 -1.42464,-1.29512 -1.55415,-2.0722"
       style="fill:none;stroke:#000000;stroke-width:0.6376;stroke-linecap:round;stroke-linejoin:round;stroke-miterlimit:10;stroke-dasharray:none;stroke-opacity:1"
       transform="matrix(-1.3333333,0,0,1.3333333,33.307307,31.474987)" />
    <path
       id="path3"
       d="M -1.55415,2.0722 C -1.42464,1.29512 0,0.1295 0.38852,0 0,-0.1295 -1.42464,-1.29512 -1.55415,-2.0722"
       style="fill:none;stroke:#000000;stroke-width:0.6376;stroke-linecap:round;stroke-linejoin:round;stroke-miterlimit:10;stroke-dasharray:none;stroke-opacity:1"
       transform="matrix(1.3333333,0,0,-1.3333333,428.32469,31.474987)" />
    <path
       id="path4"
       d="M -148.13152,0 H 148.13152"
       style="fill:none;stroke:#000000;stroke-width:0.79701;stroke-linecap:butt;stroke-linejoin:miter;stroke-miterlimit:10;stroke-dasharray:none;stroke-opacity:1"
       transform="matrix(1.3333333,0,0,-1.3333333,230.816,129.68)" />
    <path
       id="path5"
       d="M -1.55415,2.0722 C -1.42464,1.29512 0,0.1295 0.38852,0 0,-0.1295 -1.42464,-1.29512 -1.55415,-2.0722"
       style="fill:none;stroke:#000000;stroke-width:0.6376;stroke-linecap:round;stroke-linejoin:round;stroke-miterlimit:10;stroke-dasharray:none;stroke-opacity:1"
       transform="matrix(-1.3333333,0,0,1.3333333,33.307307,129.68)" />
    <path
       id="path6"
       d="M -1.55415,2.0722 C -1.42464,1.29512 0,0.1295 0.38852,0 0,-0.1295 -1.42464,-1.29512 -1.55415,-2.0722"
       style="fill:none;stroke:#000000;stroke-width:0.6376;stroke-linecap:round;stroke-linejoin:round;stroke-miterlimit:10;stroke-dasharray:none;stroke-opacity:1"
       transform="matrix(1.3333333,0,0,-1.3333333,428.32469,129.68)" />
    <path
       id="path7"
       d="M 0,73.65376 -42.52539,0"
       style="fill:none;stroke:#000000;stroke-width:0.79701;stroke-linecap:butt;stroke-linejoin:miter;stroke-miterlimit:10;stroke-dasharray:none;stroke-opacity:1"
       transform="matrix(1.3333333,0,0,-1.3333333,230.816,129.68)" />
    <path
       id="path8"
       d="M 0,73.65376 V 0"
       style="fill:none;stroke:#000000;stroke-width:0.79701;stroke-linecap:butt;stroke-linejoin:miter;stroke-miterlimit:10;stroke-dasharray:none;stroke-opacity:1"
       transform="matrix(1.3333333,0,0,-1.3333333,230.816,129.68)" />
    <path
       id="path9"
       d="M 0,73.65376 73.65376,0"
       style="fill:none;stroke:#000000;stroke-width:0.79701;stroke-linecap:butt;stroke-linejoin:miter;stroke-miterlimit:10;stroke-dasharray:none;stroke-opacity:1"
       transform="matrix(1.3333333,0,0,-1.3333333,230.816,129.68)" />
    <path
       id="path10"
       d="M 7.1359922,-1.484375e-4 V -0.30483594 H 6.9602109 c -0.5976562,0 -0.7382812,-0.0703125 -0.84375,-0.3984375 l -2.15625,-6.23437496 c -0.046875,-0.1289063 -0.070312,-0.1992188 -0.2226562,-0.1992188 -0.1640625,0 -0.1875,0.058594 -0.2460938,0.1992188 l -2.0625,5.96484371 c -0.1757812,0.50390625 -0.57421871,0.65625 -1.11328121,0.66796875 V -1.484375e-4 L 1.3352109,-0.03530469 2.4836484,-1.484375e-4 V -0.30483594 c -0.5039062,0 -0.75,-0.2578125 -0.75,-0.515625 0,-0.0234375 0.011719,-0.12890625 0.023437,-0.140625 L 2.2141172,-2.2735859 h 2.4609375 l 0.5273437,1.52343746 c 0.011719,0.046875 0.023437,0.10546875 0.023437,0.140625 0,0.3046875 -0.5507812,0.3046875 -0.8203125,0.3046875 V -1.484375e-4 C 4.7570859,-0.03530469 5.4602109,-0.03530469 5.8352109,-0.03530469 Z M 4.5578672,-2.5782734 H 2.3195859 l 1.1132813,-3.234375 z m 0,0"
       style="fill:#000000;fill-opacity:1;fill-rule:nonzero;stroke:none"
       aria-label="A"
       transform="matrix(1.3333333,0,0,1.3333333,17.708,36.230667)" />
    <path
       id="path11"
       d="m 6.4801719,-1.8283359 c 0,-0.8671875 -0.8085938,-1.6054688 -1.921875,-1.7226563 0.9726562,-0.1992187 1.6523437,-0.8320312 1.6523437,-1.5703125 0,-0.8671875 -0.9140625,-1.6875 -2.203125,-1.6875 H 0.36298437 v 0.3164063 h 0.234375 c 0.76171873,0 0.78515623,0.1054687 0.78515623,0.46875 v 5.24999996 c 0,0.3515625 -0.023437,0.46875 -0.78515623,0.46875 h -0.234375 V -2.109375e-4 H 4.2653281 c 1.3242188,0 2.2148438,-0.8906250025 2.2148438,-1.8281249625 z M 5.2497031,-5.1213047 c 0,0.6328125 -0.4921875,1.4765625 -1.59375,1.4765625 H 2.2145469 v -2.4492187 c 0,-0.328125 0.011719,-0.3984375 0.4804687,-0.3984375 h 1.2421875 c 0.9609375,0 1.3125,0.84375 1.3125,1.3710937 z m 0.234375,3.2929688 c 0,0.703125 -0.515625,1.52343746 -1.5351562,1.52343746 H 2.6950156 c -0.46875,0 -0.4804687,-0.0703125 -0.4804687,-0.3984375 V -3.4220859 h 1.875 c 0.984375,0 1.3945312,0.9257812 1.3945312,1.59375 z m 0,0"
       style="fill:#000000;fill-opacity:1;fill-rule:nonzero;stroke:none"
       aria-label="B"
       transform="matrix(1.3333333,0,0,1.3333333,433.96133,36.012)" />
    <path
       id="path12"
       d="m 6.6196875,-2.3211797 c 0,-0.1054687 0,-0.1757812 -0.1289062,-0.1757812 -0.1054688,0 -0.1054688,0.070312 -0.1171875,0.1640625 -0.082031,1.42968746 -1.1484375,2.23828121 -2.2265625,2.23828121 -0.609375,0 -2.5664063,-0.33984375 -2.5664063,-3.30468751 0,-2.9765625 1.9453125,-3.3164062 2.5546875,-3.3164062 1.078125,0 1.96875,0.9023437 2.1679688,2.3671875 0.023437,0.1289062 0.023437,0.1640625 0.1640625,0.1640625 0.1523437,0 0.1523437,-0.035156 0.1523437,-0.234375 v -2.3671875 c 0,-0.1640625 0,-0.234375 -0.1054687,-0.234375 -0.035156,0 -0.082031,0 -0.1640625,0.1171875 l -0.4921875,0.7382812 c -0.375,-0.3632812 -0.8789063,-0.8554687 -1.8398438,-0.8554687 -1.8632812,0 -3.45703125,1.5820312 -3.45703125,3.609375 0,2.0625 1.60546875,3.63281246 3.45703125,3.63281246 1.6289063,0 2.6015625,-1.38281246 2.6015625,-2.54296876 z m 0,0"
       style="fill:#000000;fill-opacity:1;fill-rule:nonzero;stroke:none"
       aria-label="C"
       transform="matrix(1.3333333,0,0,1.3333333,18.08,134.216)" />
    <path
       id="path13"
       d="m 7.0426719,-3.3524297 c 0,-1.8867187 -1.3476563,-3.4570312 -3.046875,-3.4570312 H 0.35126562 v 0.3164062 h 0.234375 c 0.77343748,0 0.78515628,0.1054688 0.78515628,0.46875 v 5.25000001 c 0,0.3515625 -0.011719,0.46875 -0.78515628,0.46875 h -0.234375 V -8.671875e-4 H 3.9957969 c 1.6757812,0 3.046875,-1.4765625125 3.046875,-3.3515625125 z m -0.9960938,0 c 0,1.1132813 -0.1875,1.7109375 -0.5507812,2.1914063 -0.1992188,0.26953121 -0.7617188,0.85546871 -1.7695313,0.85546871 H 2.7184531 c -0.46875,0 -0.4921875,-0.0703125 -0.4921875,-0.3984375 V -6.0946172 c 0,-0.328125 0.023437,-0.3984375 0.4921875,-0.3984375 h 0.9960938 c 0.6210937,0 1.3007812,0.2109375 1.8164062,0.9257813 0.421875,0.5859375 0.515625,1.4414062 0.515625,2.2148437 z m 0,0"
       style="fill:#000000;fill-opacity:1;fill-rule:nonzero;stroke:none"
       aria-label="D"
       transform="matrix(1.3333333,0,0,1.3333333,433.96133,134.216)" />
    <path
       id="path14"
       d="m 6.2106641,-4.945375 c 0,-0.984375 -0.984375,-1.8632812 -2.34375,-1.8632812 H 0.35128906 V -6.49225 h 0.234375 c 0.77343754,0 0.78515624,0.1054688 0.78515624,0.46875 v 5.25 c 0,0.3515625 -0.011719,0.46875 -0.78515624,0.46875 h -0.234375 V -6.25e-5 c 0.3515625,-0.03515625 1.07812504,-0.03515625 1.46484374,-0.03515625 0.375,0 1.125,0 1.4765625,0.03515625 V -0.30475 H 3.0466016 c -0.7617188,0 -0.7851563,-0.1171875 -0.7851563,-0.46875 v -2.3789062 h 1.6875 c 1.1953125,0 2.2617188,-0.796875 2.2617188,-1.7929688 z m -1.0195313,0 c 0,0.4570313 0,1.5351563 -1.5820312,1.5351563 H 2.2262891 v -2.6835938 c 0,-0.328125 0.023437,-0.3984375 0.4921875,-0.3984375 h 0.890625 c 1.5820312,0 1.5820312,1.0546875 1.5820312,1.546875 z m 0,0"
       style="fill:#000000;fill-opacity:1;fill-rule:nonzero;stroke:none"
       aria-label="P"
       transform="matrix(1.3333333,0,0,1.3333333,226.29333,26.781333)" />
    <path
       id="path15"
       d="m 7.2431016,0.10517969 c 0,-0.1054687525 0,-0.2109375 -0.1054688,-0.2109375 -0.09375,0 -0.1054687,0.0703125 -0.1171875,0.17578125 -0.058594,0.5390625 -0.4804687,0.83203125 -0.9023437,0.83203125 -0.46875,0 -0.7148438,-0.33984375 -0.9609375,-0.97265625 1.1835937,-0.52734375 2.0273437,-1.80468754 2.0273437,-3.30468754 0,-2.0390625 -1.5,-3.6445312 -3.3164062,-3.6445312 -1.78125,0 -3.30468754,1.59375 -3.30468754,3.6445312 0,2.015625 1.50000004,3.59765629 3.31640624,3.59765629 0.3046875,0 0.65625,-0.0585938 0.9375,-0.15234375 0.1523438,0.94921876 0.2929688,1.86328126 1.21875,1.86328126 1.0195313,0 1.2070313,-1.32421876 1.2070313,-1.82812501 z M 6.1884141,-3.3752891 c 0,0.7734375 -0.1171875,2.1796875 -1.171875,2.95312504 -0.2226563,-0.55078125 -0.5390625,-1.05468754 -1.125,-1.05468754 -0.515625,0 -0.8203125,0.4335938 -0.8203125,0.84375004 0,0.26953125 0.1289062,0.45703125 0.140625,0.46875 C 2.6727891,-0.36357031 1.5595078,-1.0901328 1.5595078,-3.3752891 c 0,-2.5898437 1.3945313,-3.3984375 2.3085938,-3.3984375 0.9609375,0 2.3203125,0.8554688 2.3203125,3.3984375 z m -1.4414063,3.11718754 c -0.328125,0.1875 -0.65625,0.22265625 -0.8671875,0.22265625 -0.515625,0 -0.5859375,-0.45703125 -0.5859375,-0.59765625 0,-0.29296875 0.1992188,-0.62109374 0.5976563,-0.62109374 0.5273437,0 0.75,0.42187499 0.8554687,0.99609374 z m 0,0"
       style="fill:#000000;fill-opacity:1;fill-rule:nonzero;stroke:none"
       aria-label="Q"
       transform="matrix(1.3333333,0,0,1.3333333,168.948,143.73867)" />
    <path
       id="path16"
       d="m 4.9675703,-1.8518516 c 0,-0.9960937 -0.65625,-1.8164062 -1.4882812,-2.015625 L 2.2019453,-4.1721641 c -0.6210937,-0.1523437 -1.0078125,-0.6914062 -1.0078125,-1.265625 0,-0.703125 0.5390625,-1.3007812 1.3125,-1.3007812 1.6640625,0 1.8867188,1.6289062 1.9453125,2.0742187 0.011719,0.058594 0.011719,0.1171875 0.1171875,0.1171875 0.1289063,0 0.1289063,-0.046875 0.1289063,-0.234375 v -2.0039062 c 0,-0.1640625 0,-0.234375 -0.1054688,-0.234375 -0.070312,0 -0.082031,0.011719 -0.1523437,0.1289062 l -0.3515625,0.5625 c -0.2929688,-0.28125 -0.703125,-0.6914062 -1.59375,-0.6914062 -1.1015625,0 -1.93359379,0.8789062 -1.93359379,1.9335937 0,0.8203125 0.52734379,1.546875 1.30078129,1.8164063 0.1054687,0.046875 0.6210937,0.1640625 1.3125,0.328125 0.2695312,0.070312 0.5742187,0.140625 0.84375,0.515625 0.2109375,0.2578125 0.3164062,0.5859375 0.3164062,0.9140625 0,0.70312499 -0.5039062,1.41796874 -1.3359375,1.41796874 -0.2929687,0 -1.0429687,-0.046875 -1.5703125,-0.5390625 C 0.84257031,-1.1604453 0.81913281,-1.8049766 0.80741406,-2.1565391 c -0.0117188,-0.1054687 -0.09375,-0.1054687 -0.1171875,-0.1054687 -0.12890625,0 -0.12890625,0.070312 -0.12890625,0.2460937 v 1.99218754 c 0,0.17578125 0,0.24609375 0.10546875,0.24609375 0.0703125,0 0.0820313,-0.0234375 0.15234375,-0.12890625 0,0 0.0234375,-0.046875 0.35156249,-0.57421875 0.3164063,0.33984375 0.9492188,0.703125 1.8398438,0.703125 1.1601562,0 1.9570312,-0.984375 1.9570312,-2.07421879 z m 0,0"
       style="fill:#000000;fill-opacity:1;fill-rule:nonzero;stroke:none"
       aria-label="S"
       transform="matrix(1.3333333,0,0,1.3333333,227.12267,143.73867)" />
    <path
       id="path17"
       d="m 7.2896719,-0.87892187 c 0,-0.0585938 0,-0.16406253 -0.1289063,-0.16406253 -0.1054687,0 -0.1054687,0.0820313 -0.1171875,0.15234378 -0.058594,0.71484375 -0.4101562,0.890624995 -0.65625,0.890624995 -0.4921875,0 -0.5742187,-0.503906245 -0.703125,-1.429687475 l -0.140625,-0.796875 c -0.1757812,-0.6445313 -0.65625,-0.9726563 -1.2070312,-1.1601563 0.9609375,-0.234375 1.7460937,-0.84375 1.7460937,-1.6289062 0,-0.9492188 -1.1367187,-1.7929688 -2.6015625,-1.7929688 H 0.35217188 v 0.3164063 h 0.234375 c 0.77343752,0 0.78515622,0.1054687 0.78515622,0.46875 v 5.24999998 c 0,0.3515625 -0.011719,0.46875 -0.78515622,0.46875 h -0.234375 V -1.5625e-5 C 0.70373438,-0.03517187 1.4185781,-0.03517187 1.8052969,-0.03517187 c 0.3867187,0 1.0898437,0 1.453125,0.035156245 V -0.30470312 h -0.234375 c -0.7734375,0 -0.796875,-0.1171875 -0.796875,-0.46875 V -3.2929844 h 1.1484375 c 0.1640625,0 0.5742187,0 0.9257812,0.3398438 0.3867188,0.3515625 0.3867188,0.65625 0.3867188,1.3242187 0,0.65625003 0,1.05468753 0.3984375,1.42968753 0.4101562,0.36328125 0.9609375,0.421875 1.2539062,0.421875 0.7851563,0 0.9492188,-0.8203125 0.9492188,-1.1015625 z M 5.0513906,-5.0156406 c 0,0.6914062 -0.234375,1.5 -1.7109375,1.5 H 2.2271719 v -2.578125 c 0,-0.234375 0,-0.3515625 0.2226562,-0.3867188 0.1054688,-0.011719 0.3867188,-0.011719 0.5859375,-0.011719 0.9023438,0 2.015625,0.035156 2.015625,1.4765628 z m 0,0"
       style="fill:#000000;fill-opacity:1;fill-rule:nonzero;stroke:none"
       aria-label="R"
       transform="matrix(1.3333333,0,0,1.3333333,324.132,143.44533)" />
    <path
       id="path18"
       d="M 3.8777656,8.5192422 2.1199531,4.6403359 C 2.0496406,4.4879922 2.0027656,4.4879922 1.9676094,4.4879922 c -0.011719,0 -0.058594,0 -0.1640625,0.070312 l -0.94921877,0.726563 c -0.12890625,0.09375 -0.12890625,0.1289062 -0.12890625,0.1523437 0,0.046875 0.0351563,0.1054688 0.10546875,0.1054688 0.0585938,0 0.22265627,-0.1289063 0.32812497,-0.2109375 0.070312,-0.046875 0.2109375,-0.1640625 0.328125,-0.2460938 l 1.9570313,4.3125 c 0.070312,0.1640625 0.1171875,0.1640625 0.2109375,0.1640625 0.1523437,0 0.1757812,-0.058594 0.2460937,-0.1992187 L 8.4246406,-2.890625e-4 C 8.4949531,-0.14091406 8.4949531,-0.17607031 8.4949531,-0.19950781 c 0,-0.10546875 -0.082031,-0.19921875 -0.1992187,-0.19921875 -0.082031,0 -0.1523438,0.046875 -0.2226563,0.2109375 z m 0,0"
       style="fill:#000000;fill-opacity:1;fill-rule:nonzero;stroke:none"
       aria-label="√"
       transform="matrix(1.3333333,0,0,1.3333333,235.50933,74.738667)" />
    <path
       id="path19"
       d="m 109.414,-16.82 h 4.981"
       style="fill:none;stroke:#000000;stroke-width:0.3985;stroke-linecap:butt;stroke-linejoin:miter;stroke-miterlimit:10;stroke-dasharray:none;stroke-opacity:1"
       transform="matrix(1.3333333,0,0,-1.3333333,100.69333,52.046667)" />
    <path
       id="path20"
       d="m 2.894125,-3.5039844 c 0.8085938,-0.2695312 1.3945313,-0.9726562 1.3945313,-1.7578125 0,-0.8203125 -0.8789063,-1.3710937 -1.8398438,-1.3710937 -1.0078125,0 -1.7578125,0.5976562 -1.7578125,1.3476562 0,0.3398438 0.2109375,0.5273438 0.5039063,0.5273438 0.3046875,0 0.5039062,-0.2226563 0.5039062,-0.515625 0,-0.4921875 -0.46875,-0.4921875 -0.609375,-0.4921875 0.3046875,-0.4921875 0.9609375,-0.6210938 1.3242188,-0.6210938 0.4101562,0 0.9492187,0.2226563 0.9492187,1.1132813 0,0.1289062 -0.011719,0.703125 -0.2695312,1.1367187 -0.3046875,0.4804688 -0.6445313,0.515625 -0.890625,0.515625 -0.082031,0.011719 -0.3164063,0.035156 -0.3867188,0.035156 -0.082031,0.011719 -0.1523437,0.023437 -0.1523437,0.1171875 0,0.1171875 0.070312,0.1171875 0.234375,0.1171875 h 0.4453125 c 0.8085937,0 1.1835937,0.6679687 1.1835937,1.6523437 0,1.34765628 -0.6914062,1.64062503 -1.125,1.64062503 -0.4335937,0 -1.171875,-0.17578125 -1.5234375,-0.76171875 0.3515625,0.0585938 0.65625,-0.1640625 0.65625,-0.53906248 0,-0.3632813 -0.2695312,-0.5625 -0.5625,-0.5625 -0.234375,0 -0.55078125,0.140625 -0.55078125,0.5742187 0,0.91406253 0.92578125,1.57031253 2.00390625,1.57031253 1.21875,0 2.1210938,-0.9140625 2.1210938,-1.92187503 0,-0.8203125 -0.6210938,-1.59375 -1.6523438,-1.8046872 z m 0,0"
       style="fill:#000000;fill-opacity:1;fill-rule:nonzero;stroke:none"
       aria-label="3"
       transform="matrix(1.3333333,0,0,1.3333333,246.57867,85.726667)" />
    <path
       id="path21"
       d="M 3.8790078,8.5180703 2.1211953,4.6391641 C 2.0508828,4.4868203 2.0040078,4.4868203 1.9688516,4.4868203 c -0.011719,0 -0.058594,0 -0.1640625,0.070312 l -0.94921879,0.726563 c -0.12890625,0.09375 -0.12890625,0.1289063 -0.12890625,0.1523438 0,0.046875 0.0351563,0.1054687 0.10546875,0.1054687 0.0585938,0 0.22265629,-0.1289062 0.32812499,-0.2109375 0.070312,-0.046875 0.2109375,-0.1640625 0.328125,-0.2460937 l 1.9570313,4.3125 c 0.070312,0.1640625 0.1171875,0.1640625 0.2109375,0.1640625 0.1523437,0 0.1757812,-0.058594 0.2460937,-0.1992188 l 4.5234375,-9.36328124 c 0.070312,-0.140625 0.070312,-0.17578125 0.070312,-0.19921875 0,-0.10546875 -0.082031,-0.19921875 -0.1992187,-0.19921875 -0.082031,0 -0.1523438,0.046875 -0.2226563,0.2109375 z m 0,0"
       style="fill:#000000;fill-opacity:1;fill-rule:nonzero;stroke:none"
       aria-label="√"
       transform="matrix(1.3333333,0,0,1.3333333,284.60533,63.138667)" />
    <path
       id="path22"
       d="m 109.414,-16.82 h 4.981"
       style="fill:none;stroke:#000000;stroke-width:0.3985;stroke-linecap:butt;stroke-linejoin:miter;stroke-miterlimit:10;stroke-dasharray:none;stroke-opacity:1"
       transform="matrix(1.3333333,0,0,-1.3333333,149.78933,40.446667)" />
    <path
       id="path23"
       d="m 1.3133359,-3.2707812 v -0.234375 c 0,-2.5195313 1.2421875,-2.8828125 1.7460938,-2.8828125 0.234375,0 0.65625,0.058594 0.8789062,0.3984375 -0.1523437,0 -0.5507812,0 -0.5507812,0.4453125 0,0.3164062 0.234375,0.4570312 0.4570312,0.4570312 0.1640625,0 0.4570313,-0.082031 0.4570313,-0.46875 0,-0.5976562 -0.4335938,-1.078125 -1.265625,-1.078125 -1.2773438,0 -2.61328126,1.2890625 -2.61328126,3.4804688 0,2.6601562 1.14843746,3.37499995 2.07421876,3.37499995 1.1132812,0 2.0507812,-0.9375 2.0507812,-2.24999995 0,-1.265625 -0.8789062,-2.2265625 -1.9921875,-2.2265625 -0.6679687,0 -1.0429687,0.5039062 -1.2421875,0.984375 z m 1.1835938,3.21093745 c -0.6210938,0 -0.9257813,-0.59765625 -0.984375,-0.75 C 1.3367734,-1.2785937 1.3367734,-2.0754687 1.3367734,-2.25125 c 0,-0.7734375 0.3164063,-1.7695312 1.21875,-1.7695312 0.1523438,0 0.609375,0 0.9257813,0.609375 0.1757812,0.375 0.1757812,0.8789062 0.1757812,1.3710937 0,0.4804688 0,0.9726563 -0.1640625,1.3359375 -0.3046875,0.59765625 -0.7617187,0.64453125 -0.9960937,0.64453125 z m 0,0"
       style="fill:#000000;fill-opacity:1;fill-rule:nonzero;stroke:none"
       aria-label="6"
       transform="matrix(1.3333333,0,0,1.3333333,295.67467,74.126667)" />
    <path
       id="path24"
       d="m -21.26009,73.65376 c 0,-7.59459 4.05295,-14.61453 10.63007,-18.41182"
       style="fill:none;stroke:#000000;stroke-width:0.79701;stroke-linecap:butt;stroke-linejoin:miter;stroke-miterlimit:10;stroke-dasharray:none;stroke-opacity:1"
       transform="matrix(1.3333333,0,0,-1.3333333,230.816,129.68)" />
    <g
       id="g24"
       aria-label="60&#10;◦"
       transform="matrix(1.3333333,0,0,1.3333333,175.76533,49.213333)">
      <path
         id="path25"
         d="m 1.3127188,-3.2683984 v -0.234375 c 0,-2.5195313 1.2421875,-2.8828125 1.7460937,-2.8828125 0.234375,0 0.65625,0.058594 0.8789063,0.3984375 -0.1523438,0 -0.5507813,0 -0.5507813,0.4453125 0,0.3164062 0.234375,0.4570312 0.4570313,0.4570312 0.1640625,0 0.4570312,-0.082031 0.4570312,-0.46875 0,-0.5976562 -0.4335937,-1.078125 -1.265625,-1.078125 -1.2773437,0 -2.61328125,1.2890625 -2.61328125,3.4804688 0,2.66015621 1.14843755,3.37499996 2.07421875,3.37499996 1.1132813,0 2.0507813,-0.9375 2.0507813,-2.24999996 0,-1.265625 -0.8789063,-2.2265625 -1.9921875,-2.2265625 -0.6679688,0 -1.0429688,0.5039062 -1.2421875,0.984375 z m 1.1835937,3.21093746 c -0.6210937,0 -0.9257812,-0.59765625 -0.984375,-0.75 C 1.3361563,-1.2762109 1.3361563,-2.0730859 1.3361563,-2.2488672 c 0,-0.7734375 0.3164062,-1.7695312 1.21875,-1.7695312 0.1523437,0 0.609375,0 0.9257812,0.609375 0.1757813,0.375 0.1757813,0.8789062 0.1757813,1.3710937 0,0.4804688 0,0.9726563 -0.1640625,1.33593751 -0.3046875,0.59765625 -0.7617188,0.64453125 -0.9960938,0.64453125 z M 9.5627188,-3.1863672 c 0,-0.796875 -0.046875,-1.59375 -0.3984375,-2.3320312 -0.4570313,-0.9609375 -1.2773438,-1.1132813 -1.6875,-1.1132813 -0.5976563,0 -1.3359375,0.2578125 -1.734375,1.1835938 -0.328125,0.6914062 -0.375,1.4648437 -0.375,2.2617187 0,0.75 0.046875,1.640625 0.4453125,2.40234376 0.4335937,0.80859375 1.1601562,1.0078125 1.6523437,1.0078125 0.5390625,0 1.2890625,-0.2109375 1.734375,-1.16015625 C 9.5158438,-1.6277734 9.5627188,-2.4012109 9.5627188,-3.1863672 Z M 7.4650625,0.00113281 c -0.3867187,0 -0.984375,-0.24609375 -1.1601562,-1.20703121 -0.1054688,-0.5976563 -0.1054688,-1.5117188 -0.1054688,-2.0976563 0,-0.6445312 0,-1.3007812 0.082031,-1.8398437 0.1875,-1.1835938 0.9257812,-1.265625 1.1835937,-1.265625 0.328125,0 0.984375,0.1757812 1.171875,1.1601562 0.09375,0.5625 0.09375,1.3125 0.09375,1.9453125 0,0.75 0,1.4179688 -0.1054687,2.0625 C 8.472875,-0.30355469 7.910375,0.00113281 7.4650625,0.00113281 Z m 0,0"
         style="fill:#000000;fill-opacity:1;fill-rule:nonzero;stroke:none" />
      <path
         id="path26"
         d="m 13.503148,-5.3601953 c 0,-0.84375 -0.679687,-1.5 -1.5,-1.5 -0.84375,0 -1.5,0.6796875 -1.5,1.5 0,0.84375 0.679688,1.5 1.5,1.5 0.832032,0 1.5,-0.6796875 1.5,-1.5 z m -1.5,1.1484375 c -0.65625,0 -1.160156,-0.5273438 -1.160156,-1.1484375 0,-0.6445313 0.515625,-1.1601563 1.160156,-1.1601563 0.65625,0 1.160157,0.5390625 1.160157,1.1601563 0,0.6445312 -0.527344,1.1484375 -1.160157,1.1484375 z m 0,0"
         style="fill:#000000;fill-opacity:1;fill-rule:nonzero;stroke:none" />
    </g>
    <path
       id="path27"
       d="M 0,10.63002 H 10.63002 V 0"
       style="fill:none;stroke:#000000;stroke-width:0.79701;stroke-linecap:butt;stroke-linejoin:miter;stroke-miterlimit:10;stroke-dasharray:none;stroke-opacity:1"
       transform="matrix(1.3333333,0,0,-1.3333333,230.816,129.68)" />
  </g>
</svg>
