<?xml version="1.0" encoding="UTF-8" standalone="no"?>
<!-- Created with Inkscape (http://www.inkscape.org/) -->

<svg
   version="1.1"
   id="svg1"
   width="481.17334"
   height="88.106667"
   viewBox="0 0 481.17334 88.106667"
   sodipodi:docname="upload_vnzsmikoe2ttbed7xhi4mvufsp.pdf"
   xmlns:inkscape="http://www.inkscape.org/namespaces/inkscape"
   xmlns:sodipodi="http://sodipodi.sourceforge.net/DTD/sodipodi-0.dtd"
   xmlns="http://www.w3.org/2000/svg"
   xmlns:svg="http://www.w3.org/2000/svg">
  <defs
     id="defs1" />
  <sodipodi:namedview
     id="namedview1"
     pagecolor="#ffffff"
     bordercolor="#000000"
     borderopacity="0.25"
     inkscape:showpageshadow="2"
     inkscape:pageopacity="0.0"
     inkscape:pagecheckerboard="0"
     inkscape:deskcolor="#d1d1d1">
    <inkscape:page
       x="0"
       y="0"
       inkscape:label="1"
       id="page1"
       width="481.17334"
       height="88.106667"
       margin="0"
       bleed="0" />
  </sodipodi:namedview>
  <g
     id="g1"
     inkscape:groupmode="layer"
     inkscape:label="1">
    <path
       id="path1"
       d="M 0,0 H 340.16171"
       style="fill:none;stroke:#000000;stroke-width:0.79701;stroke-linecap:butt;stroke-linejoin:miter;stroke-miterlimit:10;stroke-dasharray:none;stroke-opacity:1"
       transform="matrix(1.3333333,0,0,-1.3333333,13.814667,74.292)" />
    <path
       id="path2"
       d="M 0,22.67752 H 340.16171"
       style="fill:none;stroke:#000000;stroke-width:0.79701;stroke-linecap:butt;stroke-linejoin:miter;stroke-miterlimit:10;stroke-dasharray:none;stroke-opacity:1"
       transform="matrix(1.3333333,0,0,-1.3333333,13.814667,74.292)" />
    <path
       id="path3"
       d="M 0,45.35506 H 340.16171"
       style="fill:none;stroke:#000000;stroke-width:0.79701;stroke-linecap:butt;stroke-linejoin:miter;stroke-miterlimit:10;stroke-dasharray:none;stroke-opacity:1"
       transform="matrix(1.3333333,0,0,-1.3333333,13.814667,74.292)" />
    <path
       id="path4"
       d="M 0,0 V 45.35506"
       style="fill:none;stroke:#000000;stroke-width:0.79701;stroke-linecap:butt;stroke-linejoin:miter;stroke-miterlimit:10;stroke-dasharray:none;stroke-opacity:1"
       transform="matrix(1.3333333,0,0,-1.3333333,13.814667,74.292)" />
    <path
       id="path5"
       d="M 85.04042,0 V 45.35506"
       style="fill:none;stroke:#000000;stroke-width:0.79701;stroke-linecap:butt;stroke-linejoin:miter;stroke-miterlimit:10;stroke-dasharray:none;stroke-opacity:1"
       transform="matrix(1.3333333,0,0,-1.3333333,13.814667,74.292)" />
    <path
       id="path6"
       d="M 127.56062,0 V 45.35506"
       style="fill:none;stroke:#000000;stroke-width:0.79701;stroke-linecap:butt;stroke-linejoin:miter;stroke-miterlimit:10;stroke-dasharray:none;stroke-opacity:1"
       transform="matrix(1.3333333,0,0,-1.3333333,13.814667,74.292)" />
    <path
       id="path7"
       d="M 170.08086,0 V 45.35506"
       style="fill:none;stroke:#000000;stroke-width:0.79701;stroke-linecap:butt;stroke-linejoin:miter;stroke-miterlimit:10;stroke-dasharray:none;stroke-opacity:1"
       transform="matrix(1.3333333,0,0,-1.3333333,13.814667,74.292)" />
    <path
       id="path8"
       d="M 212.60106,0 V 45.35506"
       style="fill:none;stroke:#000000;stroke-width:0.79701;stroke-linecap:butt;stroke-linejoin:miter;stroke-miterlimit:10;stroke-dasharray:none;stroke-opacity:1"
       transform="matrix(1.3333333,0,0,-1.3333333,13.814667,74.292)" />
    <path
       id="path9"
       d="M 255.12128,0 V 45.35506"
       style="fill:none;stroke:#000000;stroke-width:0.79701;stroke-linecap:butt;stroke-linejoin:miter;stroke-miterlimit:10;stroke-dasharray:none;stroke-opacity:1"
       transform="matrix(1.3333333,0,0,-1.3333333,13.814667,74.292)" />
    <path
       id="path10"
       d="M 297.6415,0 V 45.35506"
       style="fill:none;stroke:#000000;stroke-width:0.79701;stroke-linecap:butt;stroke-linejoin:miter;stroke-miterlimit:10;stroke-dasharray:none;stroke-opacity:1"
       transform="matrix(1.3333333,0,0,-1.3333333,13.814667,74.292)" />
    <path
       id="path11"
       d="M 340.16171,0 V 45.35506"
       style="fill:none;stroke:#000000;stroke-width:0.79701;stroke-linecap:butt;stroke-linejoin:miter;stroke-miterlimit:10;stroke-dasharray:none;stroke-opacity:1"
       transform="matrix(1.3333333,0,0,-1.3333333,13.814667,74.292)" />
    <path
       id="path12"
       d="m 3.5517734,-6.2003984 v 0.7148437 H 3.3525547 c -0.2109375,0.046875 -0.4394531,0.1494141 -0.6796875,0.3046875 -0.234375,0.1582031 -0.4570313,0.3603516 -0.6679688,0.609375 -0.2109375,0.2431641 -0.3867187,0.5332031 -0.5273437,0.8671875 -0.1347656,0.328125 -0.1992188,0.6914063 -0.1992188,1.0898438 0,0.477539 0.070312,0.8613281 0.2109375,1.1484375 0.140625,0.28125 0.3164063,0.48046871 0.5273438,0.59765621 0.2167969,0.1171875 0.4335937,0.17578125 0.6445312,0.17578125 0.1640625,0 0.2988282,-0.0146484 0.4101563,-0.046875 0.1171875,-0.0292969 0.2490234,-0.0878906 0.3984375,-0.17578125 l 0.3515625,0.609375 c -0.1816406,0.13476563 -0.3720703,0.22851563 -0.5742188,0.28125 -0.2050781,0.04394532 -0.4101562,0.0703125 -0.6210937,0.0703125 -0.421875,0 -0.7939453,-0.10839843 -1.1132813,-0.328125 C 1.1904453,-0.49922656 0.94142188,-0.80391406 0.76271094,-1.1964922 0.58107031,-1.5949297 0.49317969,-2.0578203 0.49317969,-2.5910234 c 0,-0.506836 0.0761719,-0.9609375 0.234375,-1.359375 0.1640625,-0.4042969 0.37500001,-0.7558594 0.63281251,-1.0546875 0.2636719,-0.3046875 0.5507812,-0.553711 0.8554687,-0.75 0.3105469,-0.1933594 0.609375,-0.3427735 0.890625,-0.4453125 z M 9.3877109,0.43241406 H 8.6611484 c -0.1875,-0.57714843 -0.5800781,-0.8671875 -1.171875,-0.8671875 -0.2666015,0 -0.5449218,0.0322266 -0.8320312,0.09375 -0.2900391,0.0556641 -0.5976563,0.0820313 -0.9257813,0.0820313 -0.2753906,0 -0.5507812,-0.0410156 -0.8320312,-0.12890625 C 4.6240391,-0.48164844 4.3984531,-0.63985156 4.2197422,-0.86836719 4.0381016,-1.0939531 3.9502109,-1.4103594 3.9502109,-1.8175859 c 0,-0.09375 0.00293,-0.1875 0.011719,-0.28125 0.014648,-0.099609 0.029297,-0.1933594 0.046875,-0.28125 l 0.7734375,0.082031 c -0.017578,0.055664 -0.032227,0.1259766 -0.046875,0.2109375 -0.00879,0.079102 -0.011719,0.1640625 -0.011719,0.2578125 0,0.3222656 0.09375,0.5449219 0.28125,0.6679688 0.1933594,0.1259765 0.4335938,0.18749996 0.7148438,0.18749996 0.3105469,0 0.5800781,-0.0263672 0.8085937,-0.0820313 0.234375,-0.061523 0.4980469,-0.09375 0.796875,-0.09375 0.2578125,0 0.4980469,0.043945 0.7265625,0.1289063 0.225586,0.0791015 0.4160157,0.2167968 0.5742188,0.41015617 V -4.5246172 c -0.1962891,-0.328125 -0.4101563,-0.5771484 -0.6445313,-0.75 -0.234375,-0.1787109 -0.4921875,-0.2695312 -0.7734375,-0.2695312 -0.2578125,0 -0.46875,0.076172 -0.6328125,0.2226562 -0.1582031,0.140625 -0.234375,0.3515625 -0.234375,0.6328125 0,0.2666016 0.1083985,0.4863281 0.328125,0.65625 0.2167969,0.1640625 0.5654297,0.2578125 1.0429688,0.28125 l -0.070312,0.7617188 c -0.46875,-0.023437 -0.8496094,-0.1201172 -1.1367188,-0.2929688 -0.290039,-0.1787109 -0.4980468,-0.4042969 -0.6210937,-0.6796875 -0.1171875,0.2753906 -0.3222656,0.5039063 -0.609375,0.6914063 -0.28125,0.1875 -0.6621094,0.28125 -1.1367188,0.28125 l -0.058594,-0.7617188 c 0.3339844,-0.00586 0.5976562,-0.052734 0.7851562,-0.140625 0.1933594,-0.09375 0.3310547,-0.2109375 0.4101563,-0.3515625 0.084961,-0.140625 0.1289062,-0.28125 0.1289062,-0.421875 0,-0.2724609 -0.09082,-0.4863281 -0.2695312,-0.6445312 -0.1728516,-0.1552735 -0.4335938,-0.234375 -0.7851563,-0.234375 -0.1582031,0 -0.3017578,0.011719 -0.4335937,0.035156 -0.1259766,0.017578 -0.2636719,0.043945 -0.4101563,0.082031 l -0.082031,-0.75 c 0.2958984,-0.061523 0.609375,-0.09375 0.9375,-0.09375 0.3046875,0 0.5917969,0.070312 0.8671875,0.2109375 0.28125,0.140625 0.4863281,0.3632812 0.6210937,0.6679687 0.1171875,-0.2958984 0.2958985,-0.515625 0.5390625,-0.65625 0.2490235,-0.1464844 0.5185547,-0.2226562 0.8085938,-0.2226562 0.2958984,0 0.5683594,0.067383 0.8203125,0.1992187 0.2490234,0.1347656 0.4599609,0.3164063 0.6328125,0.5507813 -0.00879,-0.076172 -0.017578,-0.1582032 -0.023437,-0.2460938 0,-0.084961 0,-0.1787109 0,-0.28125 v -0.8085937 h 0.5273437 l 0.234375,0.65625 h 1.0546872 v 0.7148437 H 9.3877109 Z M 13.093766,-6.2003984 v 0.7148437 h -1.054688 v 5.48437501 H 11.277359 V -5.4855547 h -1.042968 v -0.7148437 h 0.925781 c -0.111328,-0.1230469 -0.219727,-0.2578125 -0.328125,-0.3984375 -0.111328,-0.140625 -0.208008,-0.2753907 -0.292969,-0.4101563 0.225586,-0.3984375 0.46875,-0.7558594 0.726563,-1.078125 0.257812,-0.3193359 0.5625,-0.5742187 0.914062,-0.7617187 0.351563,-0.1875 0.776367,-0.28125 1.277344,-0.28125 0.46875,0 0.914062,0.079101 1.335937,0.234375 0.421875,0.149414 0.837891,0.3603515 1.253907,0.6328125 0.421875,0.2753906 0.858398,0.6035156 1.3125,0.984375 l -0.410157,0.5390625 c -0.46289,-0.375 -0.875976,-0.6826172 -1.242187,-0.9257813 -0.369141,-0.2490234 -0.720703,-0.4335937 -1.054688,-0.5507812 -0.336914,-0.1230469 -0.697265,-0.1875 -1.078125,-0.1875 -0.547851,0 -0.990234,0.140625 -1.324218,0.421875 -0.328125,0.2753906 -0.615235,0.6328125 -0.855469,1.078125 0.05273,0.102539 0.128906,0.2109375 0.222656,0.328125 0.09375,0.1171875 0.199219,0.243164 0.316406,0.375 z m 6.178711,0 v 0.7148437 h -1.054688 v 5.48437501 H 17.45607 V -3.8918047 c -0.416015,-0.5683594 -0.802734,-0.9873047 -1.160156,-1.2539062 -0.360351,-0.2636719 -0.723633,-0.3984375 -1.089844,-0.3984375 -0.313476,0 -0.55957,0.09082 -0.738281,0.2695312 -0.172851,0.1728516 -0.257812,0.3925781 -0.257812,0.65625 0,0.328125 0.117187,0.5800781 0.351562,0.75 0.234375,0.1640625 0.624024,0.2753906 1.171875,0.328125 l -0.05859,0.8320313 c -0.439453,-0.038086 -0.829101,-0.131836 -1.171875,-0.28125 -0.345703,-0.1552735 -0.618164,-0.366211 -0.820312,-0.6328125 -0.196289,-0.2636719 -0.292969,-0.5917969 -0.292969,-0.984375 0,-0.3574219 0.07617,-0.6591797 0.234375,-0.9023438 0.164063,-0.2490234 0.375,-0.4365234 0.632813,-0.5625 0.257812,-0.1318359 0.533203,-0.1992187 0.832031,-0.1992187 0.483398,0 0.908203,0.1171875 1.277344,0.3515625 0.366211,0.2285156 0.741211,0.5595703 1.125,0.9960937 -0.0088,-0.1171875 -0.01758,-0.2490234 -0.02344,-0.3984375 -0.0088,-0.1464844 -0.01172,-0.2871094 -0.01172,-0.421875 v -1.1132812 h 0.527344 l 0.222656,0.65625 z m 5.929687,0 v 0.7148437 h -1.042969 v 5.48437501 h -0.773437 c -0.196289,-0.3984375 -0.46875,-0.76464843 -0.820313,-1.10156251 -0.345703,-0.3339844 -0.74414,-0.6152344 -1.195312,-0.84375 -0.454102,-0.234375 -0.93457,-0.3925781 -1.441406,-0.4804687 l -0.398438,-0.9492188 c 0.609375,-0.3662109 1.233399,-0.6972656 1.875,-0.9960937 0.638672,-0.2958985 1.300781,-0.553711 1.980469,-0.7734375 v -0.3398438 h -4.324219 v -0.7148437 z m -4.734375,3.1757812 c 0.333984,0.070312 0.691406,0.1962891 1.066406,0.375 0.38086,0.1728516 0.741211,0.3925781 1.078125,0.65625 0.333985,0.2666016 0.603516,0.5712891 0.808594,0.9140625 -0.0088,-0.1171875 -0.01758,-0.2373047 -0.02344,-0.3632812 -0.0088,-0.1230469 -0.01172,-0.272461 -0.01172,-0.4453125 v -2.484375 c -0.477539,0.1640625 -0.972656,0.3632812 -1.488281,0.5976562 -0.515625,0.2285156 -0.993164,0.4775391 -1.429688,0.75 z m 7.274414,-3.1757812 v 0.7148437 h -0.351562 c -0.205078,0.1816406 -0.357422,0.3486328 -0.457032,0.5039063 -0.102539,0.149414 -0.172851,0.3046875 -0.210937,0.46875 -0.03223,0.1640625 -0.04687,0.3574218 -0.04687,0.5742187 0,0.2197266 0.02637,0.4541016 0.08203,0.703125 0.05273,0.2431641 0.108399,0.4980469 0.164063,0.7617188 0.05273,0.2578125 0.08203,0.5332031 0.08203,0.8203125 0,0.3222656 -0.05273,0.6269531 -0.152344,0.91406246 -0.102539,0.28125 -0.298828,0.53320313 -0.585937,0.75 -0.28125,0.21679688 -0.703125,0.38671875 -1.265625,0.50390625 L 24.8008,-0.16524219 c 0.418945,-0.0996094 0.732422,-0.22558593 0.9375,-0.375 0.202148,-0.14648437 0.333984,-0.31933593 0.398437,-0.51562501 0.06152,-0.1933594 0.09375,-0.4013672 0.09375,-0.6210937 0,-0.2636719 -0.0293,-0.5214844 -0.08203,-0.7734375 -0.05566,-0.2490235 -0.111328,-0.4951172 -0.164062,-0.7382813 -0.05566,-0.2490234 -0.08203,-0.4921875 -0.08203,-0.7265625 0,-0.3339844 0.03809,-0.6152344 0.117188,-0.84375 0.08496,-0.234375 0.237305,-0.4746094 0.457031,-0.7265625 h -1.476562 v -0.7148437 z m 2.657227,0 v 0.7148437 h -1.054688 v 5.48437501 H 28.583023 V -4.6769609 c -0.0791,-0.225586 -0.196289,-0.4160157 -0.351562,-0.5742188 -0.158203,-0.1552734 -0.360352,-0.234375 -0.609375,-0.234375 h -0.08203 v -0.7148437 h 0.152343 c 0.164063,0 0.331055,0.055664 0.503907,0.1640625 0.169922,0.102539 0.307617,0.2578125 0.410156,0.46875 0,-0.029297 -0.0059,-0.1054688 -0.01172,-0.2226563 -0.0088,-0.1230469 -0.01172,-0.2285156 -0.01172,-0.3164062 v -0.75 h 0.539063 l 0.222656,0.65625 z m 2.651367,0 v 0.7148437 h -1.054688 v 5.48437501 H 31.234391 V -5.4855547 h -1.042969 v -0.7148437 h 0.925781 c -0.111328,-0.1230469 -0.219726,-0.2578125 -0.328125,-0.3984375 -0.111328,-0.140625 -0.208008,-0.2753907 -0.292969,-0.4101563 0.225586,-0.3984375 0.46875,-0.7558594 0.726563,-1.078125 0.257812,-0.3193359 0.5625,-0.5742187 0.914062,-0.7617187 0.351563,-0.1875 0.776368,-0.28125 1.277344,-0.28125 0.46875,0 0.914063,0.079101 1.335938,0.234375 0.421875,0.149414 0.83789,0.3603515 1.253906,0.6328125 0.421875,0.2753906 0.858398,0.6035156 1.3125,0.984375 l -0.410156,0.5390625 c -0.462891,-0.375 -0.875977,-0.6826172 -1.242188,-0.9257813 -0.36914,-0.2490234 -0.720703,-0.4335937 -1.054687,-0.5507812 -0.336914,-0.1230469 -0.697266,-0.1875 -1.078125,-0.1875 -0.547852,0 -0.990235,0.140625 -1.324219,0.421875 -0.328125,0.2753906 -0.615234,0.6328125 -0.855469,1.078125 0.05273,0.102539 0.128906,0.2109375 0.222656,0.328125 0.09375,0.1171875 0.199219,0.243164 0.316407,0.375 z m 4.324219,6.80859371 c -0.852539,0 -1.611328,-0.23144531 -2.273438,-0.69140625 -0.65625,-0.46875 -1.195312,-1.24218746 -1.617187,-2.32031246 l 0.738281,-0.2578125 c 0.216797,0.5332031 0.462891,0.9902343 0.738281,1.3710937 0.28125,0.37500001 0.615235,0.66210939 1.007813,0.85546876 0.389648,0.19628907 0.855468,0.29296875 1.394531,0.29296875 0.421875,0 0.744141,-0.046875 0.972656,-0.140625 0.234375,-0.0996094 0.398438,-0.22851562 0.492188,-0.38671875 0.09961,-0.15527343 0.152343,-0.32226562 0.152343,-0.50390626 0,-0.2724609 -0.09375,-0.5039062 -0.28125,-0.6914062 -0.18164,-0.1875 -0.421875,-0.28125 -0.726562,-0.28125 -0.228516,0 -0.395508,0.055664 -0.503906,0.1640625 -0.111328,0.102539 -0.164063,0.2314453 -0.164063,0.3867187 0,0.046875 0.0029,0.1113281 0.01172,0.1875 0.01465,0.070312 0.0293,0.1289063 0.04687,0.1757813 l -0.726563,0.140625 c -0.04101,-0.1083985 -0.06738,-0.2226563 -0.08203,-0.3398438 -0.01758,-0.1171875 -0.02344,-0.2050781 -0.02344,-0.2695312 0,-0.2490235 0.06152,-0.4570313 0.1875,-0.6210938 0.131836,-0.1640625 0.304687,-0.2871094 0.515625,-0.375 0.216797,-0.084961 0.448242,-0.1289062 0.691406,-0.1289062 0.155273,0 0.298828,0.017578 0.433594,0.046875 v -0.84375 c -0.125977,-0.178711 -0.246094,-0.3427735 -0.363282,-0.4921875 -0.111328,-0.1552735 -0.216796,-0.2929688 -0.316406,-0.4101563 l -2.578125,2.15625 -0.539062,-0.5859375 0.28125,-0.2226562 c 0.07617,-0.076172 0.140625,-0.1669922 0.1875,-0.2695313 0.04687,-0.099609 0.07031,-0.2255859 0.07031,-0.375 0,-0.1171875 -0.04395,-0.2285156 -0.128906,-0.3398437 -0.08789,-0.1083985 -0.231445,-0.1640625 -0.433594,-0.1640625 -0.111328,0 -0.219726,0.020508 -0.328125,0.058594 -0.111328,0.032227 -0.216797,0.082031 -0.316406,0.1523438 l -0.726563,-0.7148438 c 0.398438,-0.4277344 0.808594,-0.7763672 1.230469,-1.0429687 0.427735,-0.2636719 0.908203,-0.3984375 1.441406,-0.3984375 0.351563,0 0.65918,0.058594 0.925782,0.1757812 0.272461,0.1113281 0.539062,0.2871094 0.796875,0.5273438 0.257812,0.234375 0.533203,0.5332031 0.832031,0.890625 -0.01758,-0.131836 -0.0293,-0.2695313 -0.03516,-0.4101563 0,-0.1464844 0,-0.3046875 0,-0.46875 v -1.3007812 h 0.527343 l 0.234375,0.65625 h 1.160157 v 0.7148437 h -1.148438 v 3.0703125 c 0.19336,0.1582031 0.342774,0.3486328 0.445313,0.5742188 0.09961,0.2197265 0.152343,0.4511718 0.152343,0.6914062 0,0.33691408 -0.08789,0.63867189 -0.257812,0.90234376 -0.164063,0.26367188 -0.418945,0.47167969 -0.761719,0.62109375 -0.345703,0.15527344 -0.791015,0.234375 -1.335937,0.234375 z M 35.746109,-3.9503984 c 0,0.041016 0,0.082031 0,0.1289062 0.07617,-0.076172 0.155274,-0.1523437 0.234375,-0.2226562 0.08496,-0.070312 0.178711,-0.1435547 0.28125,-0.2226563 l 0.925782,-0.7617187 c -0.398438,-0.3427735 -0.832032,-0.515625 -1.300782,-0.515625 -0.360351,0 -0.679687,0.076172 -0.960937,0.2226562 -0.28125,0.140625 -0.536133,0.3046875 -0.761719,0.4921875 0.08496,-0.038086 0.175781,-0.064453 0.269531,-0.082031 0.09961,-0.023437 0.210938,-0.035156 0.328125,-0.035156 0.351563,0 0.600586,0.1025391 0.75,0.3046875 0.155274,0.1962891 0.234375,0.4277344 0.234375,0.6914058 z m 0,0"
       style="fill:#000000;fill-opacity:1;fill-rule:nonzero;stroke:none"
       aria-label="েিণবযাি"
       transform="matrix(1.3333333,0,0,1.3333333,43.721333,34.622667)" />
    <path
       id="path13"
       d="M 4.4775469,-1.7335781 H 4.2197344 c -0.046875,0.3046875 -0.1171875,0.73828123 -0.2109375,0.89062498 -0.070312,0.0820313 -0.7265625,0.0820313 -0.9492188,0.0820313 H 1.2666094 L 2.3212969,-1.7921719 c 1.5585937,-1.3710937 2.15625,-1.9101562 2.15625,-2.90625 0,-1.1367187 -0.9023438,-1.9335937 -2.1210938,-1.9335937 -1.125,0 -1.85156248,0.9140625 -1.85156248,1.8046875 0,0.5507812 0.4921875,0.5507812 0.52734378,0.5507812 0.1640625,0 0.515625,-0.1171875 0.515625,-0.5273437 0,-0.2578125 -0.1875,-0.515625 -0.5273438,-0.515625 -0.0820312,0 -0.10546873,0 -0.12890623,0.011719 0.22265623,-0.6445312 0.76171873,-1.0195312 1.33593753,-1.0195312 0.9140625,0 1.3359375,0.8085937 1.3359375,1.6289062 0,0.796875 -0.4921875,1.5820313 -1.0429688,2.203125 L 0.61035937,-0.36248437 C 0.50489062,-0.25701562 0.50489062,-0.23357812 0.50489062,7.96875e-4 H 4.1962969 Z m 5.0859375,-1.453125 c 0,-0.796875 -0.046875,-1.59375 -0.3984375,-2.3320313 -0.4570313,-0.9609375 -1.2773438,-1.1132812 -1.6875,-1.1132812 -0.5976563,0 -1.3359375,0.2578125 -1.734375,1.1835937 -0.328125,0.6914063 -0.375,1.4648438 -0.375,2.2617188 0,0.75 0.046875,1.640625 0.4453125,2.40234373 0.4335937,0.80859375 1.1601562,1.0078125 1.6523437,1.0078125 0.5390625,0 1.2890625,-0.2109375 1.734375,-1.16015625 C 9.5166094,-1.6281094 9.5634844,-2.4015469 9.5634844,-3.1867031 Z M 8.7314531,-3.3038906 c 0,0.75 0,1.4179687 -0.1054687,2.0625 -0.1523438,0.93749998 -0.7148438,1.242187475 -1.1601563,1.242187475 -0.3867187,0 -0.984375,-0.246093745 -1.1601562,-1.207031275 -0.1054688,-0.5976562 -0.1054688,-1.5117187 -0.1054688,-2.0976562 0,-0.6445313 0,-1.3007813 0.082031,-1.8398438 0.1875,-1.1835937 0.9257812,-1.265625 1.1835937,-1.265625 0.328125,0 0.984375,0.1757813 1.171875,1.1601563 0.09375,0.5625 0.09375,1.3125 0.09375,1.9453125 z m 6.1992189,0.7617187 V -2.7531094 H 9.9619219 v 0.2109375 z m 4.491211,0.8085938 H 19.16407 c -0.04687,0.3046875 -0.117187,0.73828123 -0.210937,0.89062498 -0.07031,0.0820313 -0.726563,0.0820313 -0.949219,0.0820313 h -1.792969 l 1.054688,-1.03124998 c 1.558594,-1.3710938 2.15625,-1.9101563 2.15625,-2.90625 0,-1.1367187 -0.902344,-1.9335937 -2.121094,-1.9335937 -1.125,0 -1.851562,0.9140625 -1.851562,1.8046875 0,0.5507812 0.492187,0.5507812 0.527343,0.5507812 0.164063,0 0.515625,-0.1171875 0.515625,-0.5273437 0,-0.2578125 -0.1875,-0.515625 -0.527343,-0.515625 -0.08203,0 -0.105469,0 -0.128907,0.011719 0.222657,-0.6445312 0.761719,-1.0195312 1.335938,-1.0195312 0.914062,0 1.335937,0.8085937 1.335937,1.6289062 0,0.796875 -0.492187,1.5820312 -1.042968,2.2031249 l -1.910157,2.13281258 c -0.105468,0.10546875 -0.105468,0.12890625 -0.105468,0.363281245 h 3.691406 z m 5.191406,0.09375 v -0.3164063 h -0.996094 v -4.5234375 c 0,-0.1992187 0,-0.2578125 -0.152343,-0.2578125 -0.09375,0 -0.117188,0 -0.199219,0.1171875 l -3.058594,4.6640625 v 0.3164063 h 2.648438 v 0.86718748 c 0,0.3515625 -0.02344,0.46875 -0.761719,0.46875 H 21.88282 V 7.96875e-4 c 0.410157,-0.035156245 0.9375,-0.035156245 1.347657,-0.035156245 0.421875,0 0.949218,0 1.359375,0.035156245 V -0.30389062 h -0.210938 c -0.738281,0 -0.761719,-0.1171875 -0.761719,-0.46875 V -1.6398281 Z M 22.91407,-1.9562344 h -2.425781 l 2.425781,-3.7148437 z m 0,0"
       style="fill:#000000;fill-opacity:1;fill-rule:nonzero;stroke:none"
       aria-label="20–24"
       transform="matrix(1.3333333,0,0,1.3333333,138.944,33.288)" />
    <path
       id="path14"
       d="M 4.4761016,-1.7342422 H 4.2182891 c -0.046875,0.3046875 -0.1171875,0.73828126 -0.2109375,0.89062501 -0.070312,0.0820313 -0.7265625,0.0820313 -0.9492188,0.0820313 H 1.2651641 L 2.3198516,-1.7928359 c 1.5585937,-1.3710938 2.15625,-1.9101563 2.15625,-2.90625 0,-1.1367188 -0.9023438,-1.9335938 -2.1210938,-1.9335938 -1.125,0 -1.85156249,0.9140625 -1.85156249,1.8046875 0,0.5507813 0.4921875,0.5507813 0.52734379,0.5507813 0.1640625,0 0.515625,-0.1171875 0.515625,-0.5273438 0,-0.2578125 -0.1875,-0.515625 -0.5273438,-0.515625 -0.0820312,0 -0.10546874,0 -0.12890624,0.011719 C 1.1128203,-5.952992 1.6518828,-6.327992 2.2261016,-6.327992 c 0.9140625,0 1.3359375,0.8085938 1.3359375,1.6289063 0,0.796875 -0.4921875,1.5820312 -1.0429688,2.203125 L 0.60891406,-0.36314844 C 0.50344531,-0.25767969 0.50344531,-0.23424219 0.50344531,1.328125e-4 H 4.1948516 Z m 4.9804687,-0.2695312 c 0,-1.1835938 -0.8203125,-2.1796875 -1.8984375,-2.1796875 -0.4804687,0 -0.9023437,0.1640625 -1.265625,0.5039062 v -1.9335937 c 0.1992188,0.058594 0.5273438,0.1289062 0.84375,0.1289062 1.2304688,0 1.9335938,-0.9140625 1.9335938,-1.0429687 0,-0.058594 -0.035156,-0.1054688 -0.1054688,-0.1054688 0,0 -0.035156,0 -0.082031,0.023437 -0.1992188,0.09375 -0.6796875,0.2929688 -1.3476563,0.2929688 -0.3984375,0 -0.8554687,-0.070312 -1.3242187,-0.28125 -0.082031,-0.023437 -0.1289063,-0.023437 -0.1289063,-0.023437 -0.09375,0 -0.09375,0.082031 -0.09375,0.234375 v 2.953125 c 0,0.1757812 0,0.2578125 0.140625,0.2578125 0.070312,0 0.082031,-0.035156 0.1289063,-0.09375 0.1054687,-0.1523438 0.4804687,-0.6914063 1.2773437,-0.6914063 0.5273438,0 0.7734375,0.4570313 0.8554688,0.6328125 0.1523437,0.375 0.1757812,0.7617188 0.1757812,1.2539063 0,0.3515625 0,0.9492187 -0.234375,1.37109371 -0.2460937,0.38671875 -0.609375,0.64453125 -1.0664062,0.64453125 -0.7265625,0 -1.3007813,-0.52734375 -1.4648438,-1.11328126 0.023437,0.011719 0.058594,0.011719 0.1640625,0.011719 0.328125,0 0.5039063,-0.2460938 0.5039063,-0.4804688 0,-0.2460937 -0.1757813,-0.4921875 -0.5039063,-0.4921875 -0.140625,0 -0.4804687,0.070312 -0.4804687,0.5273438 0,0.85546871 0.6796875,1.82812496 1.7929687,1.82812496 1.1601563,0 2.1796875,-0.9609375 2.1796873,-2.22656266 z M 14.932156,-2.5428359 V -2.7537734 H 9.9634062 v 0.2109375 z m 4.488281,0.8085937 h -0.257812 c -0.04687,0.3046875 -0.117188,0.73828126 -0.210938,0.89062501 -0.07031,0.0820313 -0.726562,0.0820313 -0.949218,0.0820313 H 16.2095 l 1.054687,-1.03125001 c 1.558594,-1.3710938 2.15625,-1.9101563 2.15625,-2.90625 0,-1.1367187 -0.902343,-1.9335937 -2.121093,-1.9335937 -1.125,0 -1.851563,0.9140625 -1.851563,1.8046875 0,0.5507812 0.492188,0.5507812 0.527344,0.5507812 0.164062,0 0.515625,-0.1171875 0.515625,-0.5273437 0,-0.2578125 -0.1875,-0.515625 -0.527344,-0.515625 -0.08203,0 -0.105469,0 -0.128906,0.011719 0.222656,-0.6445313 0.761719,-1.0195313 1.335937,-1.0195313 0.914063,0 1.335938,0.8085938 1.335938,1.6289063 0,0.796875 -0.492188,1.5820312 -1.042969,2.203125 l -1.910156,2.13281241 c -0.105469,0.10546875 -0.105469,0.12890625 -0.105469,0.3632812525 h 3.691406 z m 5.050782,-1.546875 c 0,-2.671875 -1.136719,-3.3515625 -2.027344,-3.3515625 -0.550781,0 -1.03125,0.1757813 -1.464844,0.6210938 -0.410156,0.4570312 -0.632812,0.8671875 -0.632812,1.6171875 0,1.2421875 0.878906,2.2265625 1.992187,2.2265625 0.609375,0 1.007813,-0.421875 1.242188,-0.9960938 v 0.3164063 c 0,2.33203121 -1.03125,2.78906246 -1.617188,2.78906246 -0.164062,0 -0.703125,-0.0234375 -0.972656,-0.36328125 0.433594,0 0.515625,-0.28125 0.515625,-0.45703125 0,-0.30468746 -0.234375,-0.45703126 -0.457031,-0.45703126 -0.164063,0 -0.457032,0.09375 -0.457032,0.48046876 0,0.66796875 0.539063,1.078125 1.382813,1.078125 1.289062,0 2.496094,-1.35937496 2.496094,-3.50390626 z m -0.914063,-0.9140625 c 0,0.8320313 -0.339844,1.7929688 -1.207031,1.7929688 -0.164063,0 -0.621094,0 -0.925781,-0.6210938 -0.1875,-0.375 -0.1875,-0.8671875 -0.1875,-1.359375 0,-0.5390625 0,-1.0078125 0.210937,-1.3710937 0.269531,-0.5039063 0.644531,-0.6328125 0.996094,-0.6328125 0.457031,0 0.785156,0.3398437 0.960937,0.7851562 0.117188,0.3164063 0.152344,0.9492188 0.152344,1.40625 z m 0,0"
       style="fill:#000000;fill-opacity:1;fill-rule:nonzero;stroke:none"
       aria-label="25–29"
       transform="matrix(1.3333333,0,0,1.3333333,195.63733,33.214667)" />
    <path
       id="path15"
       d="m 4.5478984,-1.6984219 c 0,-0.8203125 -0.6210937,-1.59375 -1.6523437,-1.8046875 0.8085937,-0.2695312 1.3945312,-0.9726562 1.3945312,-1.7578125 0,-0.8203125 -0.8789062,-1.3710937 -1.8398437,-1.3710937 -1.0078125,0 -1.75781251,0.5976562 -1.75781251,1.3476562 0,0.3398438 0.2109375,0.5273438 0.50390621,0.5273438 0.3046875,0 0.5039063,-0.2226563 0.5039063,-0.515625 0,-0.4921875 -0.46875,-0.4921875 -0.609375,-0.4921875 0.3046875,-0.4921875 0.9609375,-0.6210938 1.3242187,-0.6210938 0.4101563,0 0.9492188,0.2226563 0.9492188,1.1132813 0,0.1289062 -0.011719,0.703125 -0.2695313,1.1367187 -0.3046875,0.4804688 -0.6445312,0.515625 -0.890625,0.515625 -0.082031,0.011719 -0.3164062,0.035156 -0.3867187,0.035156 -0.082031,0.011719 -0.1523438,0.023437 -0.1523438,0.1171875 0,0.1171875 0.070312,0.1171875 0.234375,0.1171875 h 0.4453125 c 0.8085938,0 1.1835938,0.6679687 1.1835938,1.6523437 0,1.34765628 -0.6914063,1.64062503 -1.125,1.64062503 -0.4335938,0 -1.171875,-0.17578125 -1.52343751,-0.76171875 0.35156251,0.0585938 0.65625001,-0.1640625 0.65625001,-0.53906248 0,-0.3632813 -0.2695313,-0.5625 -0.56250001,-0.5625 -0.234375,0 -0.55078125,0.140625 -0.55078125,0.5742187 0,0.91406253 0.92578126,1.57031253 2.00390626,1.57031253 1.21875,0 2.1210937,-0.9140625 2.1210937,-1.92187473 z m 5.015625,-1.4882812 c 0,-0.796875 -0.046875,-1.59375 -0.3984375,-2.3320313 -0.4570312,-0.9609375 -1.2773437,-1.1132812 -1.6875,-1.1132812 -0.5976562,0 -1.3359375,0.2578125 -1.734375,1.1835937 -0.328125,0.6914063 -0.375,1.4648438 -0.375,2.2617188 0,0.75 0.046875,1.640625 0.4453125,2.40234373 0.4335938,0.80859375 1.1601563,1.0078125 1.6523438,1.0078125 0.5390625,0 1.2890625,-0.2109375 1.734375,-1.16015625 C 9.5166484,-1.6281094 9.5635234,-2.4015469 9.5635234,-3.1867031 Z M 8.7314922,-3.3038906 c 0,0.75 0,1.4179687 -0.1054688,2.0625 -0.1523437,0.93749998 -0.7148437,1.242187475 -1.1601562,1.242187475 -0.3867188,0 -0.984375,-0.246093745 -1.1601563,-1.207031275 -0.1054687,-0.5976562 -0.1054687,-1.5117187 -0.1054687,-2.0976562 0,-0.6445313 0,-1.3007813 0.082031,-1.8398438 0.1875,-1.1835937 0.9257813,-1.265625 1.1835938,-1.265625 0.328125,0 0.984375,0.1757813 1.171875,1.1601563 0.09375,0.5625 0.09375,1.3125 0.09375,1.9453125 z m 6.1992188,0.7617187 V -2.7531094 H 9.9619609 v 0.2109375 z m 4.561523,0.84375 c 0,-0.8203125 -0.621093,-1.59375 -1.652343,-1.8046875 0.808593,-0.2695312 1.394531,-0.9726562 1.394531,-1.7578125 0,-0.8203125 -0.878906,-1.3710937 -1.839844,-1.3710937 -1.007812,0 -1.757812,0.5976562 -1.757812,1.3476562 0,0.3398438 0.210937,0.5273438 0.503906,0.5273438 0.304687,0 0.503906,-0.2226563 0.503906,-0.515625 0,-0.4921875 -0.46875,-0.4921875 -0.609375,-0.4921875 0.304688,-0.4921875 0.960938,-0.6210938 1.324219,-0.6210938 0.410156,0 0.949219,0.2226563 0.949219,1.1132813 0,0.1289062 -0.01172,0.703125 -0.269532,1.1367187 -0.304687,0.4804688 -0.644531,0.515625 -0.890625,0.515625 -0.08203,0.011719 -0.316406,0.035156 -0.386718,0.035156 -0.08203,0.011719 -0.152344,0.023437 -0.152344,0.1171875 0,0.1171875 0.07031,0.1171875 0.234375,0.1171875 h 0.445312 c 0.808594,0 1.183594,0.6679687 1.183594,1.6523437 0,1.34765628 -0.691406,1.64062503 -1.125,1.64062503 -0.433594,0 -1.171875,-0.17578125 -1.523437,-0.76171875 0.351562,0.0585938 0.65625,-0.1640625 0.65625,-0.53906248 0,-0.3632813 -0.269532,-0.5625 -0.5625,-0.5625 -0.234375,0 -0.550782,0.140625 -0.550782,0.5742187 0,0.91406253 0.925782,1.57031253 2.003907,1.57031253 1.21875,0 2.121093,-0.9140625 2.121093,-1.92187473 z m 5.121094,0.058594 v -0.3164063 h -0.996094 v -4.5234375 c 0,-0.1992187 0,-0.2578125 -0.152343,-0.2578125 -0.09375,0 -0.117188,0 -0.199219,0.1171875 l -3.058594,4.6640625 v 0.3164063 h 2.648438 v 0.86718748 c 0,0.3515625 -0.02344,0.46875 -0.761719,0.46875 H 21.882859 V 7.96875e-4 c 0.410157,-0.035156245 0.9375,-0.035156245 1.347657,-0.035156245 0.421875,0 0.949218,0 1.359375,0.035156245 V -0.30389062 h -0.210938 c -0.738281,0 -0.761719,-0.1171875 -0.761719,-0.46875 V -1.6398281 Z m -1.699219,-0.3164063 h -2.425781 l 2.425781,-3.7148437 z m 0,0"
       style="fill:#000000;fill-opacity:1;fill-rule:nonzero;stroke:none"
       aria-label="30–34"
       transform="matrix(1.3333333,0,0,1.3333333,252.33067,33.288)" />
    <path
       id="path16"
       d="m 4.5454531,-1.6990859 c 0,-0.8203125 -0.6210937,-1.59375 -1.6523437,-1.8046875 0.8085937,-0.2695313 1.3945312,-0.9726563 1.3945312,-1.7578125 0,-0.8203125 -0.8789062,-1.3710938 -1.8398437,-1.3710938 -1.0078125,0 -1.75781253,0.5976563 -1.75781253,1.3476563 0,0.3398437 0.2109375,0.5273437 0.50390623,0.5273437 0.3046875,0 0.5039063,-0.2226562 0.5039063,-0.515625 0,-0.4921875 -0.46875,-0.4921875 -0.609375,-0.4921875 0.3046875,-0.4921875 0.9609375,-0.6210937 1.3242187,-0.6210937 0.4101563,0 0.9492188,0.2226562 0.9492188,1.1132812 0,0.1289063 -0.011719,0.703125 -0.2695313,1.1367188 -0.3046875,0.4804687 -0.6445312,0.515625 -0.890625,0.515625 -0.082031,0.011719 -0.3164062,0.035156 -0.3867187,0.035156 -0.082031,0.011719 -0.1523438,0.023437 -0.1523438,0.1171875 0,0.1171875 0.070312,0.1171875 0.234375,0.1171875 h 0.4453125 c 0.8085938,0 1.1835938,0.6679688 1.1835938,1.6523438 0,1.34765621 -0.6914063,1.64062496 -1.125,1.64062496 -0.4335938,0 -1.171875,-0.17578125 -1.52343753,-0.76171875 0.35156253,0.0585938 0.65625003,-0.1640625 0.65625003,-0.53906251 0,-0.3632812 -0.2695313,-0.5625 -0.56250003,-0.5625 -0.234375,0 -0.55078125,0.140625 -0.55078125,0.5742188 0,0.91406246 0.92578128,1.57031246 2.00390628,1.57031246 1.21875,0 2.1210937,-0.9140625 2.1210937,-1.92187476 z m 4.913086,-0.3046875 c 0,-1.1835938 -0.8203125,-2.1796875 -1.8984375,-2.1796875 -0.4804688,0 -0.9023438,0.1640625 -1.265625,0.5039062 v -1.9335937 c 0.1992187,0.058594 0.5273437,0.1289062 0.84375,0.1289062 1.2304687,0 1.9335937,-0.9140625 1.9335937,-1.0429687 0,-0.058594 -0.035156,-0.1054688 -0.1054687,-0.1054688 0,0 -0.035156,0 -0.082031,0.023437 -0.1992187,0.09375 -0.6796875,0.2929688 -1.3476562,0.2929688 -0.3984375,0 -0.8554688,-0.070312 -1.3242188,-0.28125 -0.082031,-0.023437 -0.1289062,-0.023437 -0.1289062,-0.023437 -0.09375,0 -0.09375,0.082031 -0.09375,0.234375 v 2.953125 c 0,0.1757812 0,0.2578125 0.140625,0.2578125 0.070312,0 0.082031,-0.035156 0.1289062,-0.09375 0.1054688,-0.1523438 0.4804688,-0.6914063 1.2773438,-0.6914063 0.5273437,0 0.7734375,0.4570313 0.8554687,0.6328125 0.1523438,0.375 0.1757813,0.7617188 0.1757813,1.2539063 0,0.3515625 0,0.9492187 -0.234375,1.37109371 -0.2460938,0.38671875 -0.609375,0.64453125 -1.0664063,0.64453125 -0.7265625,0 -1.3007812,-0.52734375 -1.4648437,-1.11328126 0.023437,0.011719 0.058594,0.011719 0.1640625,0.011719 0.328125,0 0.5039062,-0.2460938 0.5039062,-0.4804688 0,-0.2460937 -0.1757812,-0.4921875 -0.5039062,-0.4921875 -0.140625,0 -0.4804688,0.070312 -0.4804688,0.5273438 0,0.85546871 0.6796875,1.82812496 1.7929688,1.82812496 1.1601562,0 2.1796875,-0.9609375 2.1796872,-2.22656266 z M 14.931195,-2.5428359 V -2.7537734 H 9.9624453 v 0.2109375 z m 4.558594,0.84375 c 0,-0.8203125 -0.621094,-1.59375 -1.652344,-1.8046875 0.808594,-0.2695313 1.394532,-0.9726563 1.394532,-1.7578125 0,-0.8203125 -0.878907,-1.3710938 -1.839844,-1.3710938 -1.007813,0 -1.757813,0.5976563 -1.757813,1.3476563 0,0.3398437 0.210938,0.5273437 0.503907,0.5273437 0.304687,0 0.503906,-0.2226562 0.503906,-0.515625 0,-0.4921875 -0.46875,-0.4921875 -0.609375,-0.4921875 0.304687,-0.4921875 0.960937,-0.6210937 1.324219,-0.6210937 0.410156,0 0.949218,0.2226562 0.949218,1.1132812 0,0.1289063 -0.01172,0.703125 -0.269531,1.1367188 -0.304687,0.4804687 -0.644531,0.515625 -0.890625,0.515625 -0.08203,0.011719 -0.316406,0.035156 -0.386719,0.035156 -0.08203,0.011719 -0.152343,0.023437 -0.152343,0.1171875 0,0.1171875 0.07031,0.1171875 0.234375,0.1171875 h 0.445312 c 0.808594,0 1.183594,0.6679688 1.183594,1.6523438 0,1.34765621 -0.691406,1.64062496 -1.125,1.64062496 -0.433594,0 -1.171875,-0.17578125 -1.523438,-0.76171875 0.351563,0.0585938 0.65625,-0.1640625 0.65625,-0.53906251 0,-0.3632812 -0.269531,-0.5625 -0.5625,-0.5625 -0.234375,0 -0.550781,0.140625 -0.550781,0.5742188 0,0.91406246 0.925781,1.57031246 2.003906,1.57031246 1.21875,0 2.121094,-0.9140625 2.121094,-1.92187476 z m 4.983398,-1.5820313 c 0,-2.671875 -1.136718,-3.3515625 -2.027343,-3.3515625 -0.550782,0 -1.03125,0.1757813 -1.464844,0.6210938 -0.410156,0.4570312 -0.632813,0.8671875 -0.632813,1.6171875 0,1.2421875 0.878907,2.2265625 1.992188,2.2265625 0.609375,0 1.007812,-0.421875 1.242187,-0.9960938 v 0.3164063 c 0,2.33203121 -1.03125,2.78906246 -1.617187,2.78906246 -0.164063,0 -0.703125,-0.0234375 -0.972656,-0.36328125 0.433593,0 0.515625,-0.28125 0.515625,-0.45703125 0,-0.30468746 -0.234375,-0.45703126 -0.457032,-0.45703126 -0.164062,0 -0.457031,0.09375 -0.457031,0.48046876 0,0.66796875 0.539063,1.078125 1.382813,1.078125 1.289062,0 2.496093,-1.35937496 2.496093,-3.50390626 z m -0.914062,-0.9140625 c 0,0.8320313 -0.339844,1.7929688 -1.207031,1.7929688 -0.164063,0 -0.621094,0 -0.925782,-0.6210938 -0.1875,-0.375 -0.1875,-0.8671875 -0.1875,-1.359375 0,-0.5390625 0,-1.0078125 0.210938,-1.3710937 0.269531,-0.5039063 0.644531,-0.6328125 0.996094,-0.6328125 0.457031,0 0.785156,0.3398437 0.960937,0.7851562 0.117188,0.3164063 0.152344,0.9492188 0.152344,1.40625 z m 0,0"
       style="fill:#000000;fill-opacity:1;fill-rule:nonzero;stroke:none"
       aria-label="35–39"
       transform="matrix(1.3333333,0,0,1.3333333,309.02533,33.214667)" />
    <path
       id="path17"
       d="M 4.6875625,-1.6398281 V -1.9562344 H 3.6914688 v -4.5234375 c 0,-0.1992187 0,-0.2578125 -0.1523438,-0.2578125 -0.09375,0 -0.1171875,0 -0.1992187,0.1171875 l -3.0585938,4.6640625 v 0.3164063 H 2.92975 v 0.86718748 c 0,0.3515625 -0.023437,0.46875 -0.7617187,0.46875 H 1.9570938 V 7.96875e-4 C 2.36725,-0.03435937 2.8945938,-0.03435937 3.30475,-0.03435937 c 0.421875,0 0.9492188,0 1.359375,0.035156245 V -0.30389062 H 4.4531875 c -0.7382812,0 -0.7617187,-0.1171875 -0.7617187,-0.46875 V -1.6398281 Z M 2.9883438,-1.9562344 H 0.5625625 l 2.4257813,-3.7148437 z m 6.5742187,-1.2304687 c 0,-0.796875 -0.046875,-1.59375 -0.3984375,-2.3320313 -0.4570312,-0.9609375 -1.2773437,-1.1132812 -1.6875,-1.1132812 -0.5976562,0 -1.3359375,0.2578125 -1.734375,1.1835937 -0.328125,0.6914063 -0.375,1.4648438 -0.375,2.2617188 0,0.75 0.046875,1.640625 0.4453125,2.40234373 0.4335938,0.80859375 1.1601563,1.0078125 1.6523438,1.0078125 0.5390625,0 1.2890625,-0.2109375 1.734375,-1.16015625 C 9.5156875,-1.6281094 9.5625625,-2.4015469 9.5625625,-3.1867031 Z M 8.7305313,-3.3038906 c 0,0.75 0,1.4179687 -0.1054688,2.0625 C 8.4727188,-0.30389062 7.9102188,7.96875e-4 7.4649063,7.96875e-4 7.0781875,7.96875e-4 6.4805313,-0.24529687 6.30475,-1.2062344 6.1992813,-1.8038906 6.1992813,-2.7179531 6.1992813,-3.3038906 c 0,-0.6445313 0,-1.3007813 0.082031,-1.8398438 0.1875,-1.1835937 0.9257813,-1.265625 1.1835938,-1.265625 0.328125,0 0.984375,0.1757813 1.171875,1.1601563 0.09375,0.5625 0.09375,1.3125 0.09375,1.9453125 z M 14.93268,-2.5421719 V -2.7531094 H 9.9639297 v 0.2109375 z m 4.699218,0.9023438 v -0.3164063 h -0.996093 v -4.5234375 c 0,-0.1992187 0,-0.2578125 -0.152344,-0.2578125 -0.09375,0 -0.117188,0 -0.199219,0.1171875 l -3.058594,4.6640625 v 0.3164063 h 2.648438 v 0.86718748 c 0,0.3515625 -0.02344,0.46875 -0.761719,0.46875 H 16.90143 V 7.96875e-4 c 0.410156,-0.035156245 0.9375,-0.035156245 1.347656,-0.035156245 0.421875,0 0.949219,0 1.359375,0.035156245 V -0.30389062 h -0.210938 c -0.738281,0 -0.761718,-0.1171875 -0.761718,-0.46875 V -1.6398281 Z M 17.93268,-1.9562344 h -2.425782 l 2.425782,-3.7148437 z m 6.679687,0.3164063 v -0.3164063 h -0.996094 v -4.5234375 c 0,-0.1992187 0,-0.2578125 -0.152343,-0.2578125 -0.09375,0 -0.117188,0 -0.199219,0.1171875 l -3.058594,4.6640625 v 0.3164063 h 2.648438 v 0.86718748 c 0,0.3515625 -0.02344,0.46875 -0.761719,0.46875 H 21.881898 V 7.96875e-4 c 0.410157,-0.035156245 0.9375,-0.035156245 1.347657,-0.035156245 0.421875,0 0.949218,0 1.359375,0.035156245 V -0.30389062 h -0.210938 c -0.738281,0 -0.761719,-0.1171875 -0.761719,-0.46875 V -1.6398281 Z m -1.699219,-0.3164063 h -2.425781 l 2.425781,-3.7148437 z m 0,0"
       style="fill:#000000;fill-opacity:1;fill-rule:nonzero;stroke:none"
       aria-label="40–44"
       transform="matrix(1.3333333,0,0,1.3333333,365.71867,33.288)" />
    <path
       id="path18"
       d="M 4.6861172,-1.6398281 V -1.9562344 H 3.6900234 v -4.5234375 c 0,-0.1992187 0,-0.2578125 -0.1523437,-0.2578125 -0.09375,0 -0.1171875,0 -0.1992188,0.1171875 l -3.05859371,4.6640625 v 0.3164063 H 2.9283047 v 0.86718748 c 0,0.3515625 -0.023437,0.46875 -0.7617188,0.46875 H 1.9556484 V 7.96875e-4 c 0.4101563,-0.035156245 0.9375,-0.035156245 1.3476563,-0.035156245 0.421875,0 0.9492187,0 1.359375,0.035156245 V -0.30389062 H 4.4517422 c -0.7382813,0 -0.7617188,-0.1171875 -0.7617188,-0.46875 V -1.6398281 Z M 2.9868984,-1.9562344 H 0.56111719 L 2.9868984,-5.6710781 Z m 6.4716797,-0.046875 c 0,-1.1835937 -0.8203125,-2.1796875 -1.8984375,-2.1796875 -0.4804687,0 -0.9023437,0.1640625 -1.265625,0.5039063 v -1.9335938 c 0.1992188,0.058594 0.5273438,0.1289063 0.84375,0.1289063 1.2304688,0 1.9335938,-0.9140625 1.9335938,-1.0429688 0,-0.058594 -0.035156,-0.1054687 -0.1054688,-0.1054687 0,0 -0.035156,0 -0.082031,0.023437 -0.1992188,0.09375 -0.6796875,0.2929687 -1.3476563,0.2929687 -0.3984375,0 -0.8554687,-0.070312 -1.3242187,-0.28125 -0.082031,-0.023437 -0.1289063,-0.023437 -0.1289063,-0.023437 -0.09375,0 -0.09375,0.082031 -0.09375,0.234375 v 2.953125 c 0,0.1757813 0,0.2578125 0.140625,0.2578125 0.070312,0 0.082031,-0.035156 0.1289063,-0.09375 0.1054687,-0.1523437 0.4804687,-0.6914062 1.2773437,-0.6914062 0.5273438,0 0.7734375,0.4570312 0.8554688,0.6328125 0.1523437,0.375 0.1757812,0.7617187 0.1757812,1.2539062 0,0.3515625 0,0.9492188 -0.234375,1.37109378 -0.2460937,0.38671875 -0.609375,0.64453125 -1.0664062,0.64453125 -0.7265625,0 -1.3007813,-0.52734375 -1.4648438,-1.11328123 0.023437,0.011719 0.058594,0.011719 0.1640625,0.011719 0.328125,0 0.5039063,-0.2460937 0.5039063,-0.4804687 0,-0.2460938 -0.1757813,-0.4921875 -0.5039063,-0.4921875 -0.140625,0 -0.4804687,0.070312 -0.4804687,0.5273437 0,0.85546878 0.6796875,1.82812503 1.7929687,1.82812503 1.1601563,0 2.1796875,-0.9609375 2.1796873,-2.22656283 z M 14.931234,-2.5421719 V -2.7531094 H 9.9624844 v 0.2109375 z m 4.699219,0.9023438 v -0.3164063 h -0.996094 v -4.5234375 c 0,-0.1992187 0,-0.2578125 -0.152343,-0.2578125 -0.09375,0 -0.117188,0 -0.199219,0.1171875 l -3.058594,4.6640625 v 0.3164063 h 2.648438 v 0.86718748 c 0,0.3515625 -0.02344,0.46875 -0.761719,0.46875 H 16.899984 V 7.96875e-4 c 0.410157,-0.035156245 0.9375,-0.035156245 1.347657,-0.035156245 0.421875,0 0.949218,0 1.359375,0.035156245 V -0.30389062 h -0.210938 c -0.738281,0 -0.761719,-0.1171875 -0.761719,-0.46875 V -1.6398281 Z m -1.699219,-0.3164063 h -2.425781 l 2.425781,-3.7148437 z m 6.541993,-1.3242187 c 0,-2.671875 -1.136719,-3.3515625 -2.027344,-3.3515625 -0.550781,0 -1.03125,0.1757812 -1.464844,0.6210937 -0.410156,0.4570313 -0.632812,0.8671875 -0.632812,1.6171875 0,1.2421875 0.878906,2.2265625 1.992187,2.2265625 0.609375,0 1.007813,-0.421875 1.242188,-0.9960937 v 0.3164062 c 0,2.33203128 -1.03125,2.78906253 -1.617188,2.78906253 -0.164062,0 -0.703125,-0.0234375 -0.972656,-0.36328125 0.433594,0 0.515625,-0.28125 0.515625,-0.45703125 0,-0.30468753 -0.234375,-0.45703123 -0.457031,-0.45703123 -0.164063,0 -0.457032,0.09375 -0.457032,0.48046873 0,0.66796875 0.539063,1.078125 1.382813,1.078125 1.289062,0 2.496094,-1.35937503 2.496094,-3.50390623 z m -0.914063,-0.9140625 c 0,0.8320312 -0.339844,1.7929687 -1.207031,1.7929687 -0.164063,0 -0.621094,0 -0.925781,-0.6210937 -0.1875,-0.375 -0.1875,-0.8671875 -0.1875,-1.359375 0,-0.5390625 0,-1.0078125 0.210937,-1.3710938 0.269531,-0.5039062 0.644531,-0.6328125 0.996094,-0.6328125 0.457031,0 0.785156,0.3398438 0.960937,0.7851563 0.117188,0.3164062 0.152344,0.9492187 0.152344,1.40625 z m 0,0"
       style="fill:#000000;fill-opacity:1;fill-rule:nonzero;stroke:none"
       aria-label="45–49"
       transform="matrix(1.3333333,0,0,1.3333333,422.412,33.288)" />
    <path
       id="path19"
       d="M 4.8153594,-1.71875e-4 V -3.8907969 C 4.4169219,-4.4591562 4.0477812,-4.8781016 3.7137969,-5.1447031 3.3768828,-5.408375 3.0136016,-5.5431406 2.6239531,-5.5431406 c -0.3515625,0 -0.6386719,0.09082 -0.8554687,0.2695312 -0.2197266,0.1816407 -0.4042969,0.3837891 -0.5507813,0.609375 0.099609,-0.052734 0.234375,-0.09668 0.3984375,-0.1289062 0.1640625,-0.038086 0.3427735,-0.058594 0.5390625,-0.058594 0.3046875,0 0.5507813,0.064453 0.7382813,0.1875 0.1875,0.1171875 0.3222656,0.2666016 0.4101562,0.4453125 0.09375,0.1816407 0.140625,0.3603516 0.140625,0.5390625 0,0.3925782 -0.1347656,0.7441407 -0.3984375,1.0546875 -0.2666015,0.3134766 -0.6767578,0.6181641 -1.2304687,0.9140625 l -0.515625,-0.7265625 c 0.3662109,-0.1552734 0.6826172,-0.328125 0.9492187,-0.515625 0.2636719,-0.1875 0.3984375,-0.4130859 0.3984375,-0.6796875 0,-0.1464843 -0.058594,-0.2695312 -0.1757812,-0.3632812 -0.1113282,-0.099609 -0.2695313,-0.1523438 -0.4804688,-0.1523438 -0.1728515,0 -0.3339844,0.020508 -0.4804687,0.058594 -0.1494141,0.041016 -0.3105469,0.102539 -0.4804688,0.1875 l -0.80859373,-0.65625 c 0.3046875,-0.5214844 0.64453125,-0.9375 1.01953123,-1.2421875 0.375,-0.3105469 0.8085938,-0.46875 1.3007813,-0.46875 0.4511718,0 0.8583984,0.1142578 1.21875,0.3398437 0.3574218,0.2197266 0.7207031,0.5478516 1.0898437,0.984375 -0.00879,-0.1083984 -0.017578,-0.2402343 -0.023437,-0.3984375 -0.00879,-0.1640625 -0.011719,-0.3222656 -0.011719,-0.4804687 v -1.03125 h 0.5273437 l 0.234375,0.65625 h 1.0546875 v 0.7148437 H 5.5887969 V -1.71875e-4 Z M 12.816336,-6.1993906 v 0.7148437 H 11.761648 V -1.71875e-4 H 10.99993 V -3.8907969 C 10.583914,-4.4591562 10.197195,-4.8781016 9.8397734,-5.1447031 9.4794219,-5.408375 9.1161406,-5.5431406 8.7499297,-5.5431406 c -0.3134766,0 -0.5595703,0.09082 -0.7382813,0.2695312 -0.1728515,0.1728516 -0.2578125,0.3925782 -0.2578125,0.65625 0,0.328125 0.1171875,0.5800782 0.3515625,0.75 0.234375,0.1640625 0.6240235,0.2753907 1.171875,0.328125 l -0.058594,0.8320313 c -0.4394531,-0.038086 -0.8291016,-0.131836 -1.171875,-0.28125 -0.3457031,-0.1552735 -0.6181641,-0.366211 -0.8203125,-0.6328125 -0.1962891,-0.2636719 -0.2929688,-0.5917969 -0.2929688,-0.984375 0,-0.3574219 0.076172,-0.6591797 0.234375,-0.9023438 0.1640625,-0.2490234 0.375,-0.4365234 0.6328125,-0.5625 0.2578125,-0.1318359 0.5332032,-0.1992187 0.8320313,-0.1992187 0.4833984,0 0.9082031,0.1171875 1.2773437,0.3515625 0.3662114,0.2285156 0.7412114,0.5595703 1.1250004,0.9960937 -0.0088,-0.1171875 -0.01758,-0.2490234 -0.02344,-0.3984375 -0.0088,-0.1464843 -0.01172,-0.2871093 -0.01172,-0.421875 v -1.1132812 h 0.527343 l 0.222657,0.65625 z m 6.785156,0 v 0.7148437 H 18.558523 V -1.71875e-4 H 17.796805 V -3.1759531 c -0.149414,-0.178711 -0.28125,-0.3164063 -0.398438,-0.4101563 -0.117187,-0.099609 -0.231445,-0.1523437 -0.339844,-0.1523437 -0.09375,0 -0.18457,0.029297 -0.269531,0.082031 -0.0791,0.055664 -0.169922,0.1582032 -0.269531,0.3046875 -0.09375,0.1494141 -0.222656,0.375 -0.386719,0.6796875 -0.18164,0.328125 -0.345703,0.5976563 -0.492187,0.8085938 -0.149414,0.2050781 -0.304688,0.3574219 -0.46875,0.4570312 -0.158203,0.09375 -0.351563,0.140625 -0.585938,0.140625 -0.266601,0 -0.521484,-0.082031 -0.761719,-0.2460937 C 13.589773,-1.6818125 13.334891,-1.9865 13.06243,-2.4259531 l 0.609375,-0.375 c 0.178711,0.3222656 0.328125,0.5332031 0.445312,0.6328125 0.117188,0.09375 0.246094,0.140625 0.386719,0.140625 0.140625,0 0.275391,-0.052734 0.410156,-0.1640625 0.131836,-0.1171875 0.292969,-0.3310547 0.480469,-0.6445313 -0.06445,-0.4130859 -0.134766,-0.7412109 -0.210938,-0.984375 -0.07031,-0.2402343 -0.18457,-0.4335937 -0.339843,-0.5742187 -0.164063,-0.1464844 -0.392578,-0.2607422 -0.679688,-0.3398438 -0.28125,-0.076172 -0.641601,-0.1435547 -1.078125,-0.1992187 l 0.117188,-0.5507813 h -0.597657 v -0.7148437 z m -5.824219,0.7148437 c 0.506836,0.070312 0.905274,0.1816407 1.195313,0.328125 0.287109,0.140625 0.498047,0.3398438 0.632812,0.5976563 0.131836,0.2519531 0.213868,0.5800781 0.246094,0.984375 0.164063,-0.3427735 0.322266,-0.5771485 0.480469,-0.703125 0.155273,-0.131836 0.328125,-0.1992188 0.515625,-0.1992188 0.178711,0 0.342773,0.043945 0.492187,0.1289063 0.146485,0.087891 0.307618,0.2167969 0.480469,0.3867187 -0.01758,-0.099609 -0.02344,-0.2021484 -0.02344,-0.3046875 0,-0.099609 0,-0.1992187 0,-0.2929687 v -0.9257813 z m 6.503907,0.6445313 c 0,-0.413086 0.131836,-0.741211 0.398437,-0.984375 0.272461,-0.2490235 0.609375,-0.375 1.007813,-0.375 0.398437,0 0.729492,0.1259765 0.996093,0.375 0.272461,0.243164 0.410157,0.571289 0.410157,0.984375 0,0.4160156 -0.137696,0.7470703 -0.410157,0.9960937 -0.266601,0.2431641 -0.597656,0.3632813 -0.996093,0.3632813 -0.398438,0 -0.735352,-0.1201172 -1.007813,-0.3632813 C 20.413016,-4.0929453 20.28118,-4.424 20.28118,-4.8400156 Z m 0.691406,0 c 0,0.2285156 0.06445,0.4042969 0.199219,0.5273437 0.140625,0.1259766 0.310547,0.1875 0.515625,0.1875 0.210937,0 0.380859,-0.061523 0.515625,-0.1875 0.131836,-0.1318359 0.199218,-0.3076172 0.199218,-0.5273437 0,-0.225586 -0.06738,-0.3984375 -0.199218,-0.515625 -0.134766,-0.1230469 -0.304688,-0.1875 -0.515625,-0.1875 -0.205078,0 -0.375,0.067383 -0.515625,0.1992187 -0.134766,0.1259766 -0.199219,0.2929688 -0.199219,0.5039063 z m -0.234375,1.7109375 c 0.413086,0.2519531 0.808594,0.5507812 1.183594,0.9023437 0.375,0.3515625 0.714843,0.7265625 1.019531,1.125 0.310547,0.39843753 0.574219,0.79394534 0.785156,1.18359378 l -0.644531,0.328125 C 22.80657,-0.00896094 22.534109,-0.38982031 22.261648,-0.72673437 21.995047,-1.0607187 21.702078,-1.3712656 21.382742,-1.6525156 21.060477,-1.939625 20.679617,-2.220875 20.234305,-2.4962656 Z m 4.470703,-1.1601563 c -0.407227,0 -0.732422,-0.099609 -0.972656,-0.3046875 -0.234375,-0.2109375 -0.351563,-0.4980468 -0.351563,-0.8671875 0,-0.1464843 0.01758,-0.2929687 0.05859,-0.4335937 0.04687,-0.140625 0.09668,-0.2607422 0.152344,-0.3632813 l 0.761719,0.2109375 c -0.04687,0.070312 -0.08789,0.1523438 -0.117188,0.2460938 -0.03223,0.09375 -0.04687,0.196289 -0.04687,0.3046875 0,0.1728515 0.04687,0.3017578 0.140625,0.3867187 0.09375,0.079102 0.216797,0.1171875 0.375,0.1171875 0.131836,0 0.269531,-0.023437 0.410156,-0.070312 0.146485,-0.052734 0.298828,-0.1582031 0.457032,-0.3164062 0.155273,-0.1640625 0.310546,-0.4013672 0.46875,-0.7148438 l 0.539062,-0.1289062 c 0.225586,0.2050781 0.413086,0.4394531 0.5625,0.703125 0.155273,0.2578125 0.234375,0.5361328 0.234375,0.8320312 0,0.5332032 -0.1875,0.9492188 -0.5625,1.2539063 -0.375,0.2988281 -0.852539,0.5009765 -1.429687,0.609375 0.483398,0.1347656 0.902343,0.3046875 1.253906,0.515625 0.351562,0.2050781 0.647461,0.421875 0.890625,0.65625 0.240234,0.234375 0.439453,0.4658203 0.597656,0.69140623 -0.0088,-0.15527343 -0.01758,-0.30761723 -0.02344,-0.45703123 0,-0.1552735 0,-0.3222656 0,-0.5039063 v -4.9335937 h 0.527343 l 0.234375,0.65625 h 1.054688 v 0.7148437 H 29.380789 V -1.71875e-4 H 28.607352 C 28.355398,-0.36638281 28.0595,-0.70915625 27.716727,-1.0314219 c -0.336915,-0.3193359 -0.726563,-0.5976562 -1.171875,-0.8320312 -0.439454,-0.2402344 -0.9375,-0.4101563 -1.5,-0.5039063 l -0.234375,-0.9257812 c 0.802734,-0.061523 1.388671,-0.2109375 1.757812,-0.4453125 0.375,-0.234375 0.5625,-0.5332031 0.5625,-0.9023438 0,-0.2578125 -0.0791,-0.4863281 -0.234375,-0.6914062 -0.196289,0.3222656 -0.439453,0.5742187 -0.726562,0.7617187 -0.28125,0.1875 -0.603516,0.28125 -0.960938,0.28125 z m 7.754883,-1.9101562 v 0.7148437 h -0.351563 c -0.205078,0.1816407 -0.357422,0.3486328 -0.457031,0.5039063 -0.102539,0.149414 -0.172851,0.3046875 -0.210937,0.46875 -0.03223,0.1640625 -0.04687,0.3574219 -0.04687,0.5742187 0,0.2197266 0.02637,0.4541016 0.08203,0.703125 0.05273,0.2431641 0.108398,0.4980469 0.164062,0.7617188 0.05273,0.2578125 0.08203,0.5332031 0.08203,0.8203125 0,0.3222656 -0.05273,0.6269531 -0.152344,0.91406248 -0.102539,0.28125 -0.298828,0.53320312 -0.585938,0.75 -0.28125,0.21679687 -0.703125,0.38671875 -1.265625,0.50390625 l -0.199218,-0.6796875 c 0.418945,-0.0996094 0.732421,-0.22558594 0.9375,-0.375 0.202148,-0.14648438 0.333984,-0.31933594 0.398437,-0.51562503 0.06152,-0.1933593 0.09375,-0.4013672 0.09375,-0.6210937 0,-0.2636719 -0.0293,-0.5214844 -0.08203,-0.7734375 -0.05566,-0.2490235 -0.111328,-0.4951172 -0.164063,-0.7382813 -0.05566,-0.2490234 -0.08203,-0.4921875 -0.08203,-0.7265625 0,-0.3339843 0.03809,-0.6152343 0.117188,-0.84375 0.08496,-0.234375 0.237304,-0.4746093 0.457031,-0.7265625 h -1.476563 v -0.7148437 z m 2.657226,0 v 0.7148437 H 34.566336 V -1.71875e-4 H 33.804617 V -4.6759531 c -0.0791,-0.225586 -0.196289,-0.4160156 -0.351562,-0.5742188 -0.158203,-0.1552734 -0.360352,-0.234375 -0.609375,-0.234375 h -0.08203 v -0.7148437 h 0.152344 c 0.164063,0 0.331055,0.055664 0.503906,0.1640625 0.169922,0.102539 0.307618,0.2578125 0.410157,0.46875 0,-0.029297 -0.0059,-0.1054688 -0.01172,-0.2226563 -0.0088,-0.1230468 -0.01172,-0.2285156 -0.01172,-0.3164062 v -0.75 h 0.539063 l 0.222656,0.65625 z m 0,0"
       style="fill:#000000;fill-opacity:1;fill-rule:nonzero;stroke:none"
       aria-label="গণসংখযা"
       transform="matrix(1.3333333,0,0,1.3333333,46.837333,63.398667)" />
    <path
       id="path20"
       d="m 4.5457969,-1.7003047 c 0,-0.8203125 -0.6210938,-1.59375 -1.6523438,-1.8046875 0.8085938,-0.2695312 1.3945313,-0.9726562 1.3945313,-1.7578125 0,-0.8203125 -0.8789063,-1.3710937 -1.8398438,-1.3710937 -1.0078125,0 -1.75781248,0.5976562 -1.75781248,1.3476562 0,0.3398438 0.2109375,0.5273438 0.50390628,0.5273438 0.3046875,0 0.5039062,-0.2226563 0.5039062,-0.515625 0,-0.4921875 -0.46875,-0.4921875 -0.609375,-0.4921875 0.3046875,-0.4921875 0.9609375,-0.6210938 1.3242188,-0.6210938 0.4101562,0 0.9492187,0.2226563 0.9492187,1.1132813 0,0.1289062 -0.011719,0.703125 -0.2695312,1.1367187 -0.3046875,0.4804688 -0.6445313,0.515625 -0.890625,0.515625 -0.082031,0.011719 -0.3164063,0.035156 -0.3867188,0.035156 -0.082031,0.011719 -0.1523437,0.023437 -0.1523437,0.1171875 0,0.1171875 0.070312,0.1171875 0.234375,0.1171875 h 0.4453125 c 0.8085937,0 1.1835937,0.6679687 1.1835937,1.6523437 0,1.34765626 -0.6914062,1.64062501 -1.125,1.64062501 -0.4335937,0 -1.171875,-0.17578125 -1.52343748,-0.76171875 0.35156248,0.0585938 0.65624998,-0.1640625 0.65624998,-0.53906246 0,-0.3632813 -0.2695312,-0.5625 -0.56249998,-0.5625 -0.234375,0 -0.55078125,0.140625 -0.55078125,0.5742187 0,0.91406251 0.92578123,1.57031251 2.00390623,1.57031251 1.21875,0 2.1210938,-0.9140625 2.1210938,-1.92187471 z m 0,0"
       style="fill:#000000;fill-opacity:1;fill-rule:nonzero;stroke:none"
       aria-label="3"
       transform="matrix(1.3333333,0,0,1.3333333,152.228,63.450667)" />
    <path
       id="path21"
       d="M 4.8285312,-6.4114375 H 2.4144687 c -1.21875,0 -1.2421875,-0.1289062 -1.2773437,-0.328125 H 0.89103125 l -0.328125,2.0507813 H 0.809 C 0.8324375,-4.841125 0.9261875,-5.4739375 1.0550937,-5.591125 1.1254057,-5.649719 1.8988437,-5.649719 2.02775,-5.649719 h 2.0625 l -1.1132813,1.5703125 c -0.890625,1.3476562 -1.21875,2.7304687 -1.21875,3.74999995 0,0.09375 0,0.55078125 0.4570313,0.55078125 0.4570312,0 0.4570312,-0.45703125 0.4570312,-0.55078125 V -0.8333125 c 0,-0.5507812 0.023437,-1.1015625 0.1054688,-1.640625 0.046875,-0.2226562 0.1757812,-1.078125 0.6210937,-1.6992187 L 4.7465,-6.0715937 c 0.082031,-0.1171875 0.082031,-0.140625 0.082031,-0.3398438 z m 0,0"
       style="fill:#000000;fill-opacity:1;fill-rule:nonzero;stroke:none"
       aria-label="7"
       transform="matrix(1.3333333,0,0,1.3333333,208.92133,63.517333)" />
    <path
       id="path22"
       d="m 4.5458359,-1.6768672 c 0,-0.3515625 -0.1054687,-0.8085937 -0.4804687,-1.21875 -0.1875,-0.2109375 -0.3515625,-0.3164062 -0.984375,-0.7148437 0.7148437,-0.3632813 1.2070312,-0.8789063 1.2070312,-1.5351563 0,-0.9257812 -0.890625,-1.4882812 -1.7929687,-1.4882812 -0.9960938,0 -1.80468751,0.7382812 -1.80468751,1.6640625 0,0.1757812 0.0117188,0.6210937 0.43359371,1.0898437 0.1054688,0.1289063 0.4804688,0.375 0.7265625,0.5390625 -0.5742187,0.2929688 -1.42968746,0.84375 -1.42968746,1.8398438 0,1.05468746 1.00781246,1.72265621 2.06249996,1.72265621 1.125,0 2.0625,-0.83203125 2.0625,-1.89843751 z m -0.703125,-3.46875 c 0,0.5625 -0.3867187,1.0429688 -0.984375,1.3945313 l -1.2304687,-0.796875 c -0.46875,-0.3046875 -0.5039063,-0.6445313 -0.5039063,-0.8085938 0,-0.609375 0.6445313,-1.03125 1.359375,-1.03125 0.7265625,0 1.359375,0.515625 1.359375,1.2421875 z m 0.2109375,3.8320313 c 0,0.73828121 -0.75,1.25390621 -1.5585937,1.25390621 -0.8671875,0 -1.58203126,-0.62109375 -1.58203126,-1.44140621 0,-0.5859375 0.31640626,-1.21875 1.17187496,-1.6875 l 1.21875,0.7734375 c 0.28125,0.1875 0.75,0.4921875 0.75,1.1015625 z m 0,0"
       style="fill:#000000;fill-opacity:1;fill-rule:nonzero;stroke:none"
       aria-label="8"
       transform="matrix(1.3333333,0,0,1.3333333,265.61467,63.450667)" />
    <path
       id="path23"
       d="m 4.1720859,-0.00108594 v -0.3046875 H 3.8556797 c -0.9023438,0 -0.9257813,-0.1171875 -0.9257813,-0.48046875 V -6.3760859 c 0,-0.234375 0,-0.2578125 -0.234375,-0.2578125 -0.609375,0.6328125 -1.4882812,0.6328125 -1.80468746,0.6328125 v 0.3164062 c 0.19921876,0 0.78515626,0 1.30078126,-0.2578125 v 5.15625001 c 0,0.3515625 -0.035156,0.48046875 -0.9257813,0.48046875 H 0.94942969 v 0.3046875 C 1.3009922,-0.03624219 2.1564609,-0.03624219 2.5548984,-0.03624219 c 0.3984375,0 1.265625,0 1.6171875,0.03515625 z m 5.390625,-3.18749996 c 0,-0.796875 -0.046875,-1.59375 -0.3984375,-2.3320313 -0.4570312,-0.9609375 -1.2773437,-1.1132812 -1.6875,-1.1132812 -0.5976562,0 -1.3359375,0.2578125 -1.734375,1.1835937 -0.328125,0.6914063 -0.375,1.4648438 -0.375,2.2617188 0,0.75 0.046875,1.640625 0.4453125,2.40234371 0.4335938,0.80859375 1.1601563,1.0078125 1.6523438,1.0078125 0.5390625,0 1.2890625,-0.2109375 1.734375,-1.16015625 C 9.5158359,-1.6299922 9.5627109,-2.4034297 9.5627109,-3.1885859 Z M 8.7306797,-3.3057734 c 0,0.75 0,1.4179687 -0.1054688,2.0625 -0.1523437,0.93749996 -0.7148437,1.24218746 -1.1601562,1.24218746 -0.3867188,0 -0.984375,-0.24609375 -1.1601563,-1.20703126 -0.1054687,-0.5976562 -0.1054687,-1.5117187 -0.1054687,-2.0976562 0,-0.6445313 0,-1.3007813 0.082031,-1.8398438 0.1875,-1.1835937 0.9257813,-1.265625 1.1835938,-1.265625 0.328125,0 0.984375,0.1757813 1.171875,1.1601563 0.09375,0.5625 0.09375,1.3125 0.09375,1.9453125 z m 0,0"
       style="fill:#000000;fill-opacity:1;fill-rule:nonzero;stroke:none"
       aria-label="10"
       transform="matrix(1.3333333,0,0,1.3333333,318.988,63.450667)" />
    <path
       id="path24"
       d="M 4.6884297,-1.6397187 V -1.956125 H 3.6923359 v -4.5234375 c 0,-0.1992187 0,-0.2578125 -0.1523437,-0.2578125 -0.09375,0 -0.1171875,0 -0.1992188,0.1171875 L 0.28217969,-1.956125 v 0.3164063 H 2.9306172 v 0.86718745 c 0,0.3515625 -0.023437,0.46875 -0.7617188,0.46875 H 1.9579609 V 9.0625e-4 C 2.3681172,-0.03425 2.8954609,-0.03425 3.3056172,-0.03425 c 0.421875,0 0.9492187,0 1.359375,0.03515625 v -0.3046875 H 4.4540547 c -0.7382813,0 -0.7617188,-0.1171875 -0.7617188,-0.46875 V -1.6397187 Z M 2.9892109,-1.956125 H 0.56342969 L 2.9892109,-5.6709687 Z m 0,0"
       style="fill:#000000;fill-opacity:1;fill-rule:nonzero;stroke:none"
       aria-label="4"
       transform="matrix(1.3333333,0,0,1.3333333,379.00267,63.670667)" />
    <path
       id="path25"
       d="M 4.4760469,-1.7341328 H 4.2182344 c -0.046875,0.3046875 -0.1171875,0.73828124 -0.2109375,0.89062499 -0.070312,0.0820313 -0.7265625,0.0820313 -0.9492188,0.0820313 H 1.2651094 L 2.3197969,-1.7927266 c 1.5585937,-1.3710937 2.15625,-1.9101562 2.15625,-2.90625 0,-1.1367187 -0.9023438,-1.9335937 -2.1210938,-1.9335937 -1.125,0 -1.85156247,0.9140625 -1.85156247,1.8046875 0,0.5507812 0.4921875,0.5507812 0.52734377,0.5507812 0.1640625,0 0.515625,-0.1171875 0.515625,-0.5273437 0,-0.2578125 -0.1875,-0.515625 -0.5273438,-0.515625 -0.0820312,0 -0.10546872,0 -0.12890622,0.011719 0.22265622,-0.6445312 0.76171872,-1.0195312 1.33593752,-1.0195312 0.9140625,0 1.3359375,0.8085937 1.3359375,1.6289062 0,0.796875 -0.4921875,1.5820313 -1.0429688,2.203125 L 0.60885938,-0.36303906 C 0.50339063,-0.25757031 0.50339063,-0.23413281 0.50339063,2.421875e-4 H 4.1947969 Z m 0,0"
       style="fill:#000000;fill-opacity:1;fill-rule:nonzero;stroke:none"
       aria-label="2"
       transform="matrix(1.3333333,0,0,1.3333333,435.696,63.597333)" />
  </g>
</svg>
