<?xml version="1.0" encoding="UTF-8" standalone="no"?>
<!-- Created with Inkscape (http://www.inkscape.org/) -->

<svg
   version="1.1"
   id="svg1"
   width="235.69333"
   height="263.88"
   viewBox="0 0 235.69333 263.88"
   sodipodi:docname="upload_oajtmr5a3v6tvg7oc2v3ldenqd.pdf"
   xmlns:inkscape="http://www.inkscape.org/namespaces/inkscape"
   xmlns:sodipodi="http://sodipodi.sourceforge.net/DTD/sodipodi-0.dtd"
   xmlns="http://www.w3.org/2000/svg"
   xmlns:svg="http://www.w3.org/2000/svg">
  <defs
     id="defs1">
    <clipPath
       clipPathUnits="userSpaceOnUse"
       id="clipPath12">
      <path
         d="M -58.0509,-40.64774 6.17664,70.59668 58.0509,-40.64774 Z"
         id="path12" />
    </clipPath>
  </defs>
  <sodipodi:namedview
     id="namedview1"
     pagecolor="#ffffff"
     bordercolor="#000000"
     borderopacity="0.25"
     inkscape:showpageshadow="2"
     inkscape:pageopacity="0.0"
     inkscape:pagecheckerboard="0"
     inkscape:deskcolor="#d1d1d1">
    <inkscape:page
       x="0"
       y="0"
       inkscape:label="1"
       id="page1"
       width="235.69333"
       height="263.88"
       margin="0"
       bleed="0" />
  </sodipodi:namedview>
  <g
     id="g1"
     inkscape:groupmode="layer"
     inkscape:label="1">
    <path
       id="path1"
       d="M 70.86703,0 C 70.86703,39.13928 39.13928,70.86703 0,70.86703 -39.13928,70.86703 -70.86703,39.13928 -70.86703,0 c 0,-39.13928 31.72775,-70.86703 70.86703,-70.86703 39.13928,0 70.86703,31.72775 70.86703,70.86703 z"
       style="fill:none;stroke:#000000;stroke-width:1.59404;stroke-linecap:butt;stroke-linejoin:miter;stroke-miterlimit:10;stroke-dasharray:none;stroke-opacity:1"
       transform="matrix(1.3333333,0,0,-1.3333333,119.952,129.65067)" />
    <path
       id="path2"
       d="M 2.98883,0 C 2.98883,1.6507 1.6507,2.98883 0,2.98883 -1.6507,2.98883 -2.98883,1.6507 -2.98883,0 c 0,-1.6507 1.33813,-2.98883 2.98883,-2.98883 1.6507,0 2.98883,1.33813 2.98883,2.98883 z"
       style="fill:#000000;fill-opacity:1;fill-rule:nonzero;stroke:#000000;stroke-width:0.3985;stroke-linecap:butt;stroke-linejoin:miter;stroke-miterlimit:10;stroke-dasharray:none;stroke-opacity:1"
       transform="matrix(1.3333333,0,0,-1.3333333,119.952,129.65067)" />
    <path
       id="path3"
       d="m 11.215164,-4.8755469 c 0,-3.046875 -1.9804687,-5.1328121 -5.1562499,-5.1328121 -3.1992188,0 -5.16796879,2.1093746 -5.16796879,5.1328121 0,3.0234375 2.00390629,5.05078128 5.16796879,5.05078128 3.1523437,0 5.1562499,-2.02734378 5.1562499,-5.05078128 z M 9.1995391,-5.0747656 c 0,1.4179687 -0.1640625,2.6015625 -0.8789063,3.5976562 -0.3632812,0.49218753 -1.1484375,1.10156253 -2.2617187,1.10156253 -0.9375,0 -1.8398438,-0.4453125 -2.390625,-1.26562503 -0.6796875,-1.0429687 -0.7617188,-2.390625 -0.7617188,-3.4335937 0,-0.8789063 0.046875,-2.0859375 0.6328125,-3.0585938 0.6328125,-1.0078125 1.6640625,-1.359375 2.5195313,-1.359375 1.1601562,0 2.015625,0.609375 2.4375,1.2539063 0.5273437,0.8320312 0.703125,1.7226562 0.703125,3.1640625 z m 0,0"
       style="fill:#000000;fill-opacity:1;fill-rule:nonzero;stroke:none"
       aria-label="O"
       transform="matrix(1.3333333,0,0,1.3333333,111.87067,118.08667)" />
    <path
       id="path4"
       d="M -58.0509,-40.64774 6.17664,70.59668 58.0509,-40.64774"
       style="fill:none;stroke:#000000;stroke-width:1.59404;stroke-linecap:butt;stroke-linejoin:miter;stroke-miterlimit:10;stroke-dasharray:none;stroke-opacity:1"
       transform="matrix(1.3333333,0,0,-1.3333333,119.952,129.65067)" />
    <path
       id="path5"
       d="M -58.0509,-40.64774 0,-70.867 58.0509,-40.64774"
       style="fill:none;stroke:#000000;stroke-width:1.59404;stroke-linecap:butt;stroke-linejoin:miter;stroke-miterlimit:10;stroke-dasharray:none;stroke-opacity:1"
       transform="matrix(1.3333333,0,0,-1.3333333,119.952,129.65067)" />
    <path
       id="path6"
       d="M -58.0509,-40.64774 0,0 58.0509,-40.64774"
       style="fill:none;stroke:#000000;stroke-width:1.59404;stroke-linecap:butt;stroke-linejoin:miter;stroke-miterlimit:10;stroke-dasharray:none;stroke-opacity:1"
       transform="matrix(1.3333333,0,0,-1.3333333,119.952,129.65067)" />
    <path
       id="path7"
       d="m 10.125023,-7.0673125 c 0,-1.5585938 -1.3593746,-2.7773438 -3.7265621,-2.7773438 H 0.55080469 v 0.6210938 H 2.0625234 V -0.622 H 0.55080469 v 0.62109375 c 0.41015625,-0.0234375 1.94531251,-0.0234375 2.46093751,-0.0234375 0.515625,0 2.0507812,0 2.4726562,0.0234375 V -0.622 H 3.9609609 v -3.75 h 2.4375 c 2.390625,0 3.7265621,-1.21875 3.7265621,-2.6953125 z m -2.0156246,0 c 0,0.9375 0,2.1445313 -2.2265625,2.1445313 H 3.8906484 v -4.3007813 h 1.9921875 c 2.2265625,0 2.2265625,1.171875 2.2265625,2.15625 z m 0,0"
       style="fill:#000000;fill-opacity:1;fill-rule:nonzero;stroke:none"
       aria-label="P"
       transform="matrix(1.3333333,0,0,1.3333333,120.832,30.829333)" />
    <path
       id="path8"
       d="m 11.309797,0.12888281 c 0,-0.1289062475 0,-0.33984375 -0.222656,-0.33984375 -0.1875,0 -0.199219,0.15234375 -0.210938,0.26953125 -0.09375,0.5859375 -0.8789061,0.703125 -1.2773436,0.703125 -0.3164063,0 -0.7734375,0 -1.359375,-0.97265625 2.3085936,-0.89062496 2.9765626,-2.97656246 2.9765626,-4.66406246 0,-3.046875 -1.9804689,-5.1328126 -5.1562501,-5.1328126 -3.1992188,0 -5.16796878,2.1093751 -5.16796878,5.1328126 0,3.0234375 2.00390628,5.05078121 5.16796878,5.05078121 0.1289062,0 0.7148437,0 1.3828125,-0.15234375 0.375,1.62890624 0.6445312,2.75390624 1.9570312,2.75390624 1.4765624,0 1.9101564,-1.7578125 1.9101564,-2.64843749 z M 9.2707344,-4.8750234 c 0,0.84375 0,2.9765625 -1.453125,3.97265621 C 7.2316719,-1.8750234 6.6808906,-2.2031484 6.0597969,-2.2031484 c -0.7382813,0 -1.3710938,0.4921875 -1.3710938,1.171875 0,0.24609371 0.046875,0.32812496 0.070312,0.39843746 -1.921875,-0.79687496 -1.921875,-3.39843746 -1.921875,-4.24218746 0,-1.2773438 0.1289063,-2.3671875 0.7382813,-3.3164063 0.515625,-0.7851562 1.4414062,-1.3007812 2.484375,-1.3007812 0.8320312,0 1.8867187,0.328125 2.5664062,1.4648437 0.5976563,0.9960938 0.6445313,2.2851563 0.6445318,3.1523438 z m -1.9804688,4.28906246 c 0,0 -0.5742187,0.24609375 -1.2304687,0.24609375 -0.7382813,0 -0.890625,-0.48046875 -0.890625,-0.69140621 0,-0.421875 0.4101562,-0.703125 0.9023437,-0.703125 0.6914063,0 0.984375,0.46875 1.21875,1.14843746 z m 0,0"
       style="fill:#000000;fill-opacity:1;fill-rule:nonzero;stroke:none"
       aria-label="Q"
       transform="matrix(1.3333333,0,0,1.3333333,17.709333,188.668)" />
    <path
       id="path9"
       d="m 11.977828,-1.3231641 c 0,-0.234375 -0.117187,-0.28125 -0.304687,-0.28125 -0.269532,0 -0.28125,0.09375 -0.292969,0.28125 -0.07031,0.72656254 -0.515625,1.01953129 -0.925781,1.01953129 -0.9140629,0 -1.0195316,-0.96093749 -1.1250004,-2.27343749 -0.09375,-0.7617188 -0.1875,-1.828125 -1.7460937,-2.296875 1.9453125,-0.515625 2.4140625,-1.546875 2.4140625,-2.3203125 0,-1.4414063 -1.5,-2.6484375 -4.1601563,-2.6484375 H 0.55204688 v 0.6210937 H 2.0637656 v 8.60156254 H 0.55204688 v 0.62109375 c 0.41015625,-0.0234375 1.89843752,-0.0234375 2.41406252,-0.0234375 0.515625,0 2.0273437,0 2.4375,0.0234375 V -0.62003906 H 3.8918906 V -4.6864453 h 1.6992188 c 0.5742187,0 1.03125,0.1640625 1.3476562,0.5390625 0.4335938,0.4921875 0.4335938,0.8085937 0.4335938,1.7695312 0,0.9609375 0,1.54687504 0.7382812,2.03906254 0.7382813,0.4921875 1.9218754,0.515625 2.2382814,0.515625 1.453125,0 1.628906,-1.28906254 1.628906,-1.50000004 z M 7.9817344,-7.1942578 c 0,0.7851562 -0.023437,2.0273437 -2.4140625,2.0273437 H 3.8918906 v -4.0546875 h 1.6992188 c 2.34375,0 2.390625,1.171875 2.390625,2.0273438 z m 0,0"
       style="fill:#000000;fill-opacity:1;fill-rule:nonzero;stroke:none"
       aria-label="R"
       transform="matrix(1.3333333,0,0,1.3333333,111.928,245.94)" />
    <path
       id="path10"
       d="m 8.0619375,-2.8704766 c 0,-1.3476562 -0.890625,-2.6367187 -2.4492188,-3 l -1.96875,-0.4453125 C 2.226,-6.6204766 2.179125,-7.6634453 2.179125,-7.8626641 c 0,-0.7265625 0.46875,-1.5703125 1.8632812,-1.5703125 1.3945313,0 2.6367188,0.6679688 2.9414063,2.5429688 0.046875,0.3046875 0.046875,0.3164062 0.3164062,0.3164062 0.3046875,0 0.3046875,-0.035156 0.3046875,-0.3632812 v -2.7070313 c 0,-0.2695312 0,-0.3632809 -0.2226562,-0.3632809 -0.09375,0 -0.140625,0.011718 -0.2695313,0.1523434 L 6.491625,-9.1517266 C 6.1400625,-9.4564141 5.4252187,-10.007195 4.0306875,-10.007195 c -2.0507813,0 -3.140625,1.2890622 -3.140625,2.8476559 0,0.9609375 0.515625,1.640625 0.7148437,1.8398438 0.75,0.75 1.1484375,0.8320312 2.6367188,1.1601562 1.4414062,0.3164063 1.6054687,0.3398438 1.921875,0.6445313 0.1875,0.1875 0.609375,0.5859375 0.609375,1.3242187 0,0.609375 -0.3046875,1.74609379 -1.9101563,1.74609379 -1.265625,0 -3.2578125,-0.43359375 -3.375,-2.51953129 C 1.476,-3.2220391 1.476,-3.2689141 1.19475,-3.2689141 c -0.3046875,0 -0.3046875,0.046875 -0.3046875,0.375 v 2.69531254 c 0,0.26953125 0,0.375 0.2109375,0.375 0.1054687,0 0.1171875,-0.0234375 0.2578125,-0.15234375 0.1640625,-0.15234375 0.2929687,-0.33984375 0.6445312,-0.703125 0.8320313,0.66796875 2.015625,0.85546875 2.8710938,0.85546875 2.2382812,0 3.1875,-1.52343754 3.1875,-3.04687504 z m 0,0"
       style="fill:#000000;fill-opacity:1;fill-rule:nonzero;stroke:none"
       aria-label="S"
       transform="matrix(1.3333333,0,0,1.3333333,206.032,190.40933)" />
    <path
       id="path11"
       d="m 34.52344,70.59668 c 0,15.6557 -12.6911,28.3468 -28.3468,28.3468 -15.6557,0 -28.34681,-12.6911 -28.34681,-28.3468 0,-15.65572 12.69111,-28.34682 28.34681,-28.34682 15.6557,0 28.3468,12.6911 28.3468,28.34682 z"
       style="fill:none;stroke:#000000;stroke-width:0.79701;stroke-linecap:butt;stroke-linejoin:miter;stroke-miterlimit:10;stroke-dasharray:none;stroke-opacity:1"
       transform="matrix(1.3333333,0,0,-1.3333333,119.952,129.65067)"
       clip-path="url(#clipPath12)" />
    <g
       id="g12"
       aria-label="3x"
       transform="matrix(1.3333333,0,0,1.3333333,115.71333,69.924)">
      <path
         id="path13"
         d="m 2.6378516,-5.1431953 c -0.2460938,0.011719 -0.2929688,0.023437 -0.2929688,0.1523437 0,0.140625 0.070312,0.140625 0.328125,0.140625 h 0.65625 c 1.21875,0 1.7695313,1.0078125 1.7695313,2.3789063 0,1.88671874 -0.984375,2.39062499 -1.6875,2.39062499 -0.6796875,0 -1.8632813,-0.328125 -2.2734375,-1.27734379 0.4570312,0.070312 0.8671875,-0.1875 0.8671875,-0.703125 0,-0.421875 -0.2929688,-0.703125 -0.703125,-0.703125 -0.33984379,0 -0.71484379,0.1992188 -0.71484379,0.7382813 0,1.27734374 1.27734379,2.33203124 2.87109379,2.33203124 1.7109375,0 2.9648437,-1.31250004 2.9648437,-2.75390624 0,-1.3242188 -1.0546875,-2.3554688 -2.4375,-2.6015625 1.2539063,-0.3515625 2.0507813,-1.40625 2.0507813,-2.5195313 0,-1.1367187 -1.171875,-1.96875 -2.5664063,-1.96875 -1.4296875,0 -2.49609374,0.8789063 -2.49609374,1.921875 0,0.5742188 0.44531254,0.6914063 0.66796874,0.6914063 0.2929688,0 0.6445313,-0.2226563 0.6445313,-0.6445313 0,-0.4570312 -0.3515625,-0.6679687 -0.6679688,-0.6679687 -0.082031,0 -0.1054687,0 -0.1523437,0.023437 0.5390625,-0.984375 1.8867187,-0.984375 1.96875,-0.984375 0.46875,0 1.3945312,0.2226562 1.3945312,1.6289062 0,0.2695313 -0.035156,1.078125 -0.4570312,1.6875 -0.421875,0.6328125 -0.9140625,0.6796875 -1.3007813,0.6914063 z m 0,0"
         style="fill:#000000;fill-opacity:1;fill-rule:nonzero;stroke:none" />
      <path
         id="path14"
         d="m 13.820469,-5.8463203 c -0.457031,0.082031 -0.632813,0.421875 -0.632813,0.703125 0,0.3398437 0.28125,0.4570312 0.480469,0.4570312 0.421875,0 0.726563,-0.375 0.726563,-0.7617187 0,-0.609375 -0.691407,-0.8789063 -1.289063,-0.8789063 -0.878906,0 -1.359375,0.8671875 -1.488281,1.1367188 -0.328125,-1.078125 -1.21875,-1.1367188 -1.476563,-1.1367188 -1.4648435,0 -2.238281,1.8867188 -2.238281,2.1914063 0,0.058594 0.058594,0.140625 0.1523438,0.140625 0.1171875,0 0.140625,-0.09375 0.1757812,-0.1523438 0.4804688,-1.59375 1.4414063,-1.8867187 1.863281,-1.8867187 0.644532,0 0.773438,0.5976562 0.773438,0.9375 0,0.3164062 -0.08203,0.65625 -0.257813,1.3359375 l -0.492187,1.96875 c -0.2109377,0.85546874 -0.621094,1.65234374 -1.3828127,1.65234374 -0.070312,0 -0.4335938,0 -0.7382813,-0.1875 0.515625,-0.10546875 0.6328125,-0.52734375 0.6328125,-0.70312504 0,-0.2929687 -0.2109375,-0.4570312 -0.4921875,-0.4570312 -0.3398437,0 -0.7148437,0.2929687 -0.7148437,0.76171874 0,0.59765625 0.6796875,0.8671875 1.2890625,0.8671875 0.6914062,0 1.1835937,-0.5390625 1.4882812,-1.125 0.222656,0.84375 0.9375,1.125 1.476563,1.125 1.453125,0 2.238281,-1.87500004 2.238281,-2.19140624 0,-0.070312 -0.05859,-0.1289063 -0.152344,-0.1289063 -0.128906,0 -0.140625,0.070312 -0.1875,0.1875 -0.386719,1.26562504 -1.21875,1.85156254 -1.863281,1.85156254 -0.503906,0 -0.773438,-0.375 -0.773438,-0.96093754 0,-0.3164062 0.05859,-0.5507812 0.292969,-1.5 l 0.492188,-1.9453125 c 0.222656,-0.8554687 0.703125,-1.4882812 1.371093,-1.4882812 0.02344,0 0.421875,0 0.726563,0.1875 z m 0,0"
         style="fill:#000000;fill-opacity:1;fill-rule:nonzero;stroke:none" />
    </g>
    <path
       id="path15"
       d="m -27.41185,-38.04103 h 54.82372 v 13.71875 h -54.82372 z"
       style="fill:#ffffff;fill-opacity:1;fill-rule:nonzero;stroke:none"
       transform="matrix(1.3333333,0,0,-1.3333333,119.952,129.65067)" />
    <g
       id="g15"
       aria-label="2x+60&#10;◦"
       transform="matrix(1.3333333,0,0,1.3333333,85.396,176.91867)">
      <path
         id="path16"
         d="M 6.3153047,-2.4145859 H 5.9988984 c -0.046875,0.2460937 -0.1640625,1.03125 -0.3046875,1.265625 -0.1054687,0.1289062 -0.9140625,0.1289062 -1.3476562,0.1289062 H 1.6863984 c 0.3867188,-0.328125 1.265625,-1.2421875 1.640625,-1.59375 2.1796875,-2.0039062 2.9882813,-2.7539062 2.9882813,-4.171875 0,-1.6523437 -1.3125,-2.7539062 -2.9765625,-2.7539062 -1.6640625,0 -2.63671876,1.4179687 -2.63671876,2.6484375 0,0.7382812 0.63281246,0.7382812 0.67968746,0.7382812 0.2929688,0 0.6679688,-0.2109375 0.6679688,-0.6796875 0,-0.3984375 -0.2695313,-0.6679687 -0.6679688,-0.6679687 -0.140625,0 -0.1640625,0 -0.2109375,0.011719 0.28125,-0.9726562 1.0546875,-1.6289062 1.9804688,-1.6289062 1.21875,0 1.96875,1.0078125 1.96875,2.3320312 0,1.21875 -0.703125,2.2851563 -1.5234375,3.1992188 L 0.70202344,-0.34036719 V -5.234375e-4 H 5.9403047 Z m 0,0"
         style="fill:#000000;fill-opacity:1;fill-rule:nonzero;stroke:none" />
      <path
         id="path17"
         d="m 13.821164,-5.8481797 c -0.457031,0.082031 -0.632812,0.421875 -0.632812,0.703125 0,0.3398438 0.28125,0.4570313 0.480468,0.4570313 0.421875,0 0.726563,-0.375 0.726563,-0.7617188 0,-0.609375 -0.691406,-0.8789062 -1.289063,-0.8789062 -0.878906,0 -1.359375,0.8671875 -1.488281,1.1367187 -0.328125,-1.078125 -1.21875,-1.1367187 -1.476562,-1.1367187 -1.4648442,0 -2.2382817,1.8867187 -2.2382817,2.1914062 0,0.058594 0.058594,0.140625 0.1523438,0.140625 0.1171875,0 0.140625,-0.09375 0.1757812,-0.1523437 0.4804688,-1.59375 1.4414063,-1.8867188 1.8632817,-1.8867188 0.644531,0 0.773437,0.5976563 0.773437,0.9375 0,0.3164063 -0.08203,0.65625 -0.257812,1.3359375 l -0.492188,1.96875 c -0.2109374,0.85546876 -0.6210937,1.65234376 -1.3828124,1.65234376 -0.070312,0 -0.4335938,0 -0.7382813,-0.1875 0.515625,-0.10546875 0.6328125,-0.52734375 0.6328125,-0.70312496 0,-0.2929688 -0.2109375,-0.4570313 -0.4921875,-0.4570313 -0.3398437,0 -0.7148437,0.2929688 -0.7148437,0.76171876 0,0.59765625 0.6796875,0.8671875 1.2890625,0.8671875 0.6914062,0 1.1835937,-0.5390625 1.4882809,-1.125 0.222657,0.84375 0.9375,1.125 1.476563,1.125 1.453125,0 2.238281,-1.87499996 2.238281,-2.19140626 0,-0.070312 -0.05859,-0.1289062 -0.152344,-0.1289062 -0.128906,0 -0.140625,0.070312 -0.1875,0.1875 -0.386718,1.26562496 -1.21875,1.85156246 -1.863281,1.85156246 -0.503906,0 -0.773437,-0.375 -0.773437,-0.96093746 0,-0.3164063 0.05859,-0.5507813 0.292968,-1.5 l 0.492188,-1.9453125 c 0.222656,-0.8554688 0.703125,-1.4882813 1.371094,-1.4882813 0.02344,0 0.421875,0 0.726562,0.1875 z m 0,0"
         style="fill:#000000;fill-opacity:1;fill-rule:nonzero;stroke:none" />
      <path
         id="path18"
         d="m 23.913938,-3.3169297 h 3.960937 c 0.199219,0 0.457031,0 0.457031,-0.2578125 0,-0.2695312 -0.234375,-0.2695312 -0.457031,-0.2695312 h -3.960937 v -3.9609375 c 0,-0.1992188 0,-0.4570313 -0.257813,-0.4570313 -0.269531,0 -0.269531,0.2460938 -0.269531,0.4570313 v 3.9609375 h -3.960938 c -0.199218,0 -0.457031,0 -0.457031,0.2578125 0,0.2695312 0.246094,0.2695312 0.457031,0.2695312 h 3.960938 v 3.96093751 c 0,0.19921875 0,0.45703129 0.257812,0.45703129 0.269532,0 0.269532,-0.24609379 0.269532,-0.45703129 z m 10.154296,-1.6757812 c 0,-3.6328125 1.757813,-4.2070313 2.53125,-4.2070313 0.515625,0 1.03125,0.1640625 1.3125,0.5976563 -0.175781,0 -0.726562,0 -0.726562,0.5859375 0,0.3164062 0.222656,0.5859375 0.597656,0.5859375 0.351563,0 0.597656,-0.2109375 0.597656,-0.6328125 0,-0.75 -0.550781,-1.4765625 -1.792968,-1.4765625 -1.804688,0 -3.703125,1.8515625 -3.703125,5.0039062 0,3.94921876 1.722656,4.83984376 2.941406,4.83984376 1.570312,0 2.894531,-1.37109376 2.894531,-3.23437496 0,-1.8984375 -1.324219,-3.1757813 -2.765625,-3.1757813 -1.277344,0 -1.746094,1.1015625 -1.886719,1.5 z m 1.757813,4.91015621 c -0.902344,0 -1.335938,-0.80859375 -1.464844,-1.11328121 -0.128906,-0.3632813 -0.269531,-1.0664063 -0.269531,-2.0742188 0,-1.1367187 0.515625,-2.5546875 1.804687,-2.5546875 0.796875,0 1.207032,0.5273438 1.417969,1.0195313 0.234375,0.5273437 0.234375,1.2421875 0.234375,1.8632812 0,0.7382813 0,1.3828125 -0.269531,1.921875 -0.363281,0.69140626 -0.878906,0.93750001 -1.453125,0.93750001 z M 45.73425,-4.5942734 c 0,-1.1835938 -0.07031,-2.34375 -0.585937,-3.4335938 -0.585938,-1.1953125 -1.617188,-1.5117187 -2.320313,-1.5117187 -0.832031,0 -1.851562,0.421875 -2.378906,1.6054687 -0.410156,0.9023438 -0.550781,1.7929688 -0.550781,3.3398438 0,1.3945312 0.105468,2.4375 0.621093,3.4570312 0.5625,1.08984376 1.546875,1.44140626 2.296875,1.44140626 1.242188,0 1.957032,-0.75 2.378907,-1.58203126 0.515625,-1.078125 0.539062,-2.484375 0.539062,-3.3164062 z m -2.917969,4.60546871 c -0.46875,0 -1.394531,-0.2578125 -1.664062,-1.81640621 -0.164063,-0.8671875 -0.164063,-1.9570313 -0.164063,-2.953125 0,-1.1835938 0,-2.2382813 0.234375,-3.09375 0.246094,-0.9609375 0.972657,-1.3945313 1.59375,-1.3945313 0.539063,0 1.371094,0.328125 1.640625,1.5585938 0.1875,0.8203125 0.1875,1.9453125 0.1875,2.9296875 0,0.9609375 0,2.0507812 -0.152343,2.9179687 -0.269532,1.58203126 -1.183594,1.85156251 -1.675782,1.85156251 z m 0,0"
         style="fill:#000000;fill-opacity:1;fill-rule:nonzero;stroke:none" />
      <path
         id="path19"
         d="m 50.773313,-7.7026719 c 0,-1.0546875 -0.878907,-1.921875 -1.921875,-1.921875 -1.078125,0 -1.945313,0.8789063 -1.945313,1.921875 0,1.0664063 0.867188,1.9335938 1.945313,1.9335938 1.042968,0 1.921875,-0.8671875 1.921875,-1.9335938 z m -1.921875,1.5351563 c -0.867188,0 -1.546875,-0.6914063 -1.546875,-1.5351563 0,-0.8320312 0.679687,-1.5234375 1.546875,-1.5234375 0.820312,0 1.523437,0.6679688 1.523437,1.5234375 0,0.8671875 -0.703125,1.5351563 -1.523437,1.5351563 z m 0,0"
         style="fill:#000000;fill-opacity:1;fill-rule:nonzero;stroke:none" />
    </g>
  </g>
</svg>
