<?xml version="1.0" encoding="UTF-8" standalone="no"?>
<!-- Created with Inkscape (http://www.inkscape.org/) -->

<svg
   version="1.1"
   id="svg1"
   width="346.35999"
   height="264.94666"
   viewBox="0 0 346.35999 264.94666"
   sodipodi:docname="upload_5wlqtnq6obkrwbxoxu2wys3mt5.pdf"
   xmlns:inkscape="http://www.inkscape.org/namespaces/inkscape"
   xmlns:sodipodi="http://sodipodi.sourceforge.net/DTD/sodipodi-0.dtd"
   xmlns="http://www.w3.org/2000/svg"
   xmlns:svg="http://www.w3.org/2000/svg">
  <defs
     id="defs1">
    <clipPath
       clipPathUnits="userSpaceOnUse"
       id="clipPath9">
      <path
         d="M 0,0 H 170.08086 L 85.04042,147.40332 Z"
         id="path9" />
    </clipPath>
    <clipPath
       clipPathUnits="userSpaceOnUse"
       id="clipPath13">
      <path
         d="M 0,0 H 170.08086 L 85.04042,147.40332 Z"
         id="path13" />
    </clipPath>
  </defs>
  <sodipodi:namedview
     id="namedview1"
     pagecolor="#ffffff"
     bordercolor="#000000"
     borderopacity="0.25"
     inkscape:showpageshadow="2"
     inkscape:pageopacity="0.0"
     inkscape:pagecheckerboard="0"
     inkscape:deskcolor="#d1d1d1">
    <inkscape:page
       x="0"
       y="0"
       inkscape:label="1"
       id="page1"
       width="346.35999"
       height="264.94666"
       margin="0"
       bleed="0" />
  </sodipodi:namedview>
  <g
     id="g1"
     inkscape:groupmode="layer"
     inkscape:label="1">
    <path
       id="path1"
       d="M 0,0 H 170.08086 L 85.04042,147.40332 Z"
       style="fill:none;stroke:#000000;stroke-width:1.59404;stroke-linecap:butt;stroke-linejoin:miter;stroke-miterlimit:10;stroke-dasharray:none;stroke-opacity:1"
       transform="matrix(1.3333333,0,0,-1.3333333,74.498667,238.704)" />
    <path
       id="path2"
       d="M 32.59865,56.69362 H 137.48218"
       style="fill:none;stroke:#000000;stroke-width:1.59404;stroke-linecap:butt;stroke-linejoin:miter;stroke-miterlimit:10;stroke-dasharray:none;stroke-opacity:1"
       transform="matrix(1.3333333,0,0,-1.3333333,74.498667,238.704)" />
    <path
       id="path3"
       d="m 10.125438,-7.0653828 c 0,-1.5585938 -1.3593755,-2.7773438 -3.726563,-2.7773438 H 0.55121875 v 0.6210938 H 2.0629375 v 8.60156249 H 0.55121875 v 0.62109375 c 0.41015625,-0.0234375 1.94531255,-0.0234375 2.46093755,-0.0234375 0.515625,0 2.0507812,0 2.4726562,0.0234375 V -0.62007031 H 3.961375 V -4.3700703 h 2.4375 c 2.390625,0 3.726563,-1.21875 3.726563,-2.6953125 z m -2.0156255,0 c 0,0.9375 0,2.1445312 -2.2265625,2.1445312 H 3.8910625 V -9.2216328 H 5.88325 c 2.2265625,0 2.2265625,1.171875 2.2265625,2.15625 z m 0,0"
       style="fill:#000000;fill-opacity:1;fill-rule:nonzero;stroke:none"
       aria-label="P"
       transform="matrix(1.3333333,0,0,1.3333333,180.53067,30.830667)" />
    <path
       id="path4"
       d="m 11.308594,0.12848438 c 0,-0.128906255 0,-0.33984375 -0.222656,-0.33984375 -0.1875,0 -0.199219,0.15234375 -0.210938,0.26953125 -0.09375,0.5859375 -0.8789062,0.703125 -1.2773437,0.703125 -0.3164063,0 -0.7734375,0 -1.359375,-0.97265625 2.3085937,-0.89062503 2.9765627,-2.97656253 2.9765627,-4.66406253 0,-3.046875 -1.980469,-5.1328121 -5.1562503,-5.1328121 -3.1992187,0 -5.1679687,2.1093746 -5.1679687,5.1328121 0,3.0234375 2.0039063,5.05078128 5.1679687,5.05078128 0.1289063,0 0.7148438,0 1.3828125,-0.15234375 0.375,1.62890627 0.6445313,2.75390627 1.9570313,2.75390627 1.4765625,0 1.9101565,-1.7578125 1.9101565,-2.64843752 z M 9.2695313,-4.8754219 c 0,0.84375 0,2.9765625 -1.4531251,3.97265628 C 7.2304687,-1.8754219 6.6796875,-2.2035469 6.0585937,-2.2035469 c -0.7382812,0 -1.3710937,0.4921875 -1.3710937,1.171875 0,0.24609378 0.046875,0.32812503 0.070312,0.39843753 C 2.835937,-1.4301094 2.835937,-4.0316719 2.835937,-4.8754219 c 0,-1.2773437 0.1289063,-2.3671875 0.7382813,-3.3164062 0.5156249,-0.7851563 1.4414062,-1.3007813 2.4843749,-1.3007813 0.8320313,0 1.8867188,0.328125 2.5664063,1.4648438 0.5976563,0.9960937 0.6445313,2.2851562 0.6445318,3.1523437 z m -1.9804688,4.28906253 c 0,0 -0.5742188,0.24609375 -1.2304688,0.24609375 -0.7382812,0 -0.890625,-0.48046875 -0.890625,-0.69140628 0,-0.421875 0.4101563,-0.703125 0.9023438,-0.703125 0.6914062,0 0.984375,0.46875 1.21875,1.14843753 z m 0,0"
       style="fill:#000000;fill-opacity:1;fill-rule:nonzero;stroke:none"
       aria-label="Q"
       transform="matrix(1.3333333,0,0,1.3333333,47,243.524)" />
    <path
       id="path5"
       d="m 11.977594,-1.3229609 c 0,-0.234375 -0.117188,-0.28125 -0.304688,-0.28125 -0.269531,0 -0.28125,0.09375 -0.292969,0.28125 -0.07031,0.72656246 -0.515625,1.01953121 -0.925781,1.01953121 -0.9140623,0 -1.019531,-0.96093751 -1.1249998,-2.27343751 -0.09375,-0.7617187 -0.1875,-1.828125 -1.7460937,-2.296875 1.9453125,-0.515625 2.4140625,-1.546875 2.4140625,-2.3203125 0,-1.4414062 -1.5,-2.6484375 -4.1601563,-2.6484375 H 0.5518125 v 0.6210938 h 1.5117187 v 8.60156246 H 0.5518125 v 0.62109375 c 0.41015625,-0.0234375 1.8984375,-0.0234375 2.4140625,-0.0234375 0.515625,0 2.0273437,0 2.4375,0.0234375 V -0.61983594 H 3.8916562 V -4.6862422 H 5.590875 c 0.5742187,0 1.03125,0.1640625 1.3476562,0.5390625 0.4335938,0.4921875 0.4335938,0.8085938 0.4335938,1.7695313 0,0.9609375 0,1.54687496 0.7382812,2.03906246 0.7382813,0.4921875 1.9218748,0.515625 2.2382808,0.515625 1.453125,0 1.628907,-1.28906246 1.628907,-1.49999996 z M 7.9815,-7.1940547 c 0,0.7851563 -0.023437,2.0273438 -2.4140625,2.0273438 H 3.8916562 V -9.2213984 H 5.590875 c 2.34375,0 2.390625,1.171875 2.390625,2.0273437 z m 0,0"
       style="fill:#000000;fill-opacity:1;fill-rule:nonzero;stroke:none"
       aria-label="R"
       transform="matrix(1.3333333,0,0,1.3333333,312.608,245.15067)" />
    <path
       id="path6"
       d="m 11.461406,-4.8292187 c 0,-3.2460938 -2.1796873,-5.015625 -4.8749998,-5.015625 H 0.55125 V -9.22375 h 1.5117187 v 8.6015625 H 0.55125 v 0.62109375 h 6.0351562 c 2.7539063,0 4.8749998,-1.76953125 4.8749998,-4.82812495 z m -1.9453123,-0.023437 c 0,1.6757812 -0.2226562,2.4257812 -0.7265625,3.1054687 -0.5039062,0.65625 -1.4648437,1.125 -2.7539062,1.125 H 3.8910937 V -9.22375 H 6.035625 c 1.2539062,0 2.25,0.4921875 2.7890625,1.2304688 0.4101562,0.5859375 0.6914062,1.2890625 0.6914062,3.1406255 z m 0,0"
       style="fill:#000000;fill-opacity:1;fill-rule:nonzero;stroke:none"
       aria-label="D"
       transform="matrix(1.3333333,0,0,1.3333333,90.14,169.67333)" />
    <path
       id="path7"
       d="M 10.126398,-3.8674375 H 9.5287422 C 9.2240547,-1.734625 8.6967109,-0.62134375 6.2006172,-0.62134375 H 3.9623359 V -4.7580625 h 0.84375 c 1.3828125,0 1.5234375,0.5859375 1.5234375,1.6757813 H 6.9271797 V -7.0549375 H 6.3295234 c 0,1.078125 -0.140625,1.6757813 -1.5234375,1.6757813 h -0.84375 v -3.7734375 h 2.2382813 c 2.1914062,0 2.6601562,0.9375 2.8828125,2.7890625 H 9.6810859 L 9.2709297,-9.7736875 H 0.55217969 v 0.6210938 H 2.0638984 v 8.53124995 H 0.55217969 V -2.5e-4 H 9.5170234 Z m 0,0"
       style="fill:#000000;fill-opacity:1;fill-rule:nonzero;stroke:none"
       aria-label="E"
       transform="matrix(1.3333333,0,0,1.3333333,269.14267,169.62533)" />
    <path
       id="path8"
       d="m 119.05652,147.40332 c 0,18.7868 -15.2293,34.0161 -34.0161,34.0161 -18.7868,0 -34.0161,-15.2293 -34.0161,-34.0161 0,-18.7868 15.2293,-34.0161 34.0161,-34.0161 18.7868,0 34.0161,15.2293 34.0161,34.0161 z"
       style="fill:none;stroke:#000000;stroke-width:0.79701;stroke-linecap:butt;stroke-linejoin:miter;stroke-miterlimit:10;stroke-dasharray:none;stroke-opacity:1"
       transform="matrix(1.3333333,0,0,-1.3333333,74.498667,238.704)"
       clip-path="url(#clipPath9)" />
    <g
       id="g9"
       aria-label="55&#10;◦"
       transform="matrix(1.3333333,0,0,1.3333333,176.92667,77.721333)">
      <path
         id="path10"
         d="m 1.5344922,-6.8427578 c 0.5039062,0.1640625 0.9257812,0.1757812 1.0546875,0.1757812 1.359375,0 2.2148437,-0.9960937 2.2148437,-1.1601562 0,-0.046875 -0.023437,-0.1054688 -0.09375,-0.1054688 -0.023437,0 -0.046875,0 -0.1523437,0.046875 -0.6679688,0.28125 -1.2421875,0.3164063 -1.5585938,0.3164063 -0.7851562,0 -1.3476562,-0.234375 -1.5820312,-0.328125 -0.082031,-0.035156 -0.1054688,-0.035156 -0.1171875,-0.035156 -0.09375,0 -0.09375,0.070312 -0.09375,0.2578125 v 3.5507813 c 0,0.2109375 0,0.2929687 0.140625,0.2929687 0.058594,0 0.070312,-0.011719 0.1992187,-0.1640625 0.328125,-0.4921875 0.890625,-0.7734375 1.4882813,-0.7734375 0.6328125,0 0.9492187,0.5859375 1.0429687,0.7851563 0.1992188,0.46875 0.2109375,1.0546875 0.2109375,1.5117187 0,0.4570313 0,1.1367188 -0.328125,1.67578129 -0.2695312,0.421875 -0.7382812,0.7265625 -1.2539062,0.7265625 -0.796875,0 -1.5703125,-0.5390625 -1.78125001,-1.40624999 0.0585938,0.023437 0.12890621,0.035156 0.18750001,0.035156 0.1992187,0 0.5273437,-0.1289062 0.5273437,-0.5273437 0,-0.3398438 -0.234375,-0.5273438 -0.5273437,-0.5273438 -0.21093751,0 -0.52734376,0.1054688 -0.52734376,0.5742188 0,1.00781249 0.80859376,2.16796874 2.14453126,2.16796874 1.3476562,0 2.53125,-1.125 2.53125,-2.64843754 0,-1.4179687 -0.9609375,-2.6015625 -2.2148438,-2.6015625 -0.6796875,0 -1.2070312,0.2929688 -1.5117187,0.6328125 z m 5.8476562,0 c 0.5039063,0.1640625 0.9257813,0.1757812 1.0546875,0.1757812 1.359375,0 2.2148441,-0.9960937 2.2148441,-1.1601562 0,-0.046875 -0.02344,-0.1054688 -0.09375,-0.1054688 -0.02344,0 -0.04687,0 -0.152344,0.046875 -0.6679688,0.28125 -1.2421876,0.3164063 -1.5585938,0.3164063 -0.7851563,0 -1.3476563,-0.234375 -1.5820313,-0.328125 -0.082031,-0.035156 -0.1054687,-0.035156 -0.1171875,-0.035156 -0.09375,0 -0.09375,0.070312 -0.09375,0.2578125 v 3.5507813 c 0,0.2109375 0,0.2929687 0.140625,0.2929687 0.058594,0 0.070312,-0.011719 0.1992188,-0.1640625 0.328125,-0.4921875 0.890625,-0.7734375 1.4882812,-0.7734375 0.6328125,0 0.9492188,0.5859375 1.0429688,0.7851563 0.1992188,0.46875 0.2109378,1.0546875 0.2109378,1.5117187 0,0.4570313 0,1.1367188 -0.3281253,1.67578129 -0.2695313,0.421875 -0.7382813,0.7265625 -1.2539063,0.7265625 -0.796875,0 -1.5703125,-0.5390625 -1.78125,-1.40624999 0.058594,0.023437 0.1289063,0.035156 0.1875,0.035156 0.1992188,0 0.5273438,-0.1289062 0.5273438,-0.5273437 0,-0.3398438 -0.234375,-0.5273438 -0.5273438,-0.5273438 -0.2109375,0 -0.5273437,0.1054688 -0.5273437,0.5742188 0,1.00781249 0.8085937,2.16796874 2.1445312,2.16796874 1.3476563,0 2.5312501,-1.125 2.5312501,-2.64843754 0,-1.4179687 -0.960938,-2.6015625 -2.2148438,-2.6015625 -0.6796875,0 -1.2070313,0.2929688 -1.5117188,0.6328125 z m 0,0"
         style="fill:#000000;fill-opacity:1;fill-rule:nonzero;stroke:none" />
      <path
         id="path11"
         d="m 15.456367,-6.3300625 c 0,-0.9140625 -0.726562,-1.6523437 -1.640625,-1.6523437 -0.902344,0 -1.640625,0.7382812 -1.640625,1.6523437 0,0.9140625 0.738281,1.6523438 1.640625,1.6523438 0.914063,0 1.640625,-0.7382813 1.640625,-1.6523438 z m -1.640625,1.2773438 c -0.703125,0 -1.277344,-0.5625 -1.277344,-1.2773438 0,-0.7148437 0.574219,-1.2773437 1.277344,-1.2773437 0.714844,0 1.277344,0.5625 1.277344,1.2773437 0,0.7148438 -0.5625,1.2773438 -1.277344,1.2773438 z m 0,0"
         style="fill:#000000;fill-opacity:1;fill-rule:nonzero;stroke:none" />
    </g>
    <path
       id="path12"
       d="m 204.09695,0 c 0,18.78679 -15.22929,34.0161 -34.01609,34.0161 -18.78681,0 -34.0161,-15.22931 -34.0161,-34.0161 0,-18.78679 15.22929,-34.0161 34.0161,-34.0161 18.7868,0 34.01609,15.22931 34.01609,34.0161 z"
       style="fill:none;stroke:#000000;stroke-width:0.79701;stroke-linecap:butt;stroke-linejoin:miter;stroke-miterlimit:10;stroke-dasharray:none;stroke-opacity:1"
       transform="matrix(1.3333333,0,0,-1.3333333,74.498667,238.704)"
       clip-path="url(#clipPath13)" />
    <g
       id="g13"
       aria-label="60&#10;◦"
       transform="matrix(1.3333333,0,0,1.3333333,264.128,228.904)">
      <path
         id="path14"
         d="m 1.4655234,-4.1613984 c 0,-3.0234375 1.4765625,-3.5039063 2.1210938,-3.5039063 0.4335937,0 0.8554687,0.1289063 1.0898437,0.4921875 -0.140625,0 -0.5976562,0 -0.5976562,0.4921875 0,0.2578125 0.1757812,0.4921875 0.4921875,0.4921875 0.2929687,0 0.4921875,-0.1875 0.4921875,-0.5273437 0,-0.6210938 -0.4453125,-1.2304688 -1.4882813,-1.2304688 -1.5117187,0 -3.08203121,1.5351563 -3.08203121,4.171875 0,3.28125001 1.42968751,4.01953126 2.44921871,4.01953126 1.3007813,0 2.4140625,-1.125 2.4140625,-2.68359376 0,-1.59375 -1.1132812,-2.6601562 -2.3085937,-2.6601562 -1.0664063,0 -1.453125,0.9257812 -1.5820313,1.265625 z m 1.4765625,4.08984371 c -0.75,0 -1.1132812,-0.66796875 -1.21875,-0.92578125 C 1.6178672,-1.3020234 1.5006797,-1.8879609 1.5006797,-2.7317109 c 0,-0.9375 0.421875,-2.1210938 1.5,-2.1210938 0.65625,0 1.0078125,0.4453125 1.1835937,0.84375 0.1875,0.4453125 0.1875,1.0429688 0.1875,1.5585938 0,0.609375 0,1.1484375 -0.2226562,1.60546871 -0.3046875,0.57421875 -0.7265625,0.7734375 -1.2070313,0.7734375 z M 11.200875,-3.8215547 c 0,-0.9960937 -0.05859,-1.96875 -0.492188,-2.8710937 -0.492187,-0.9960938 -1.3476558,-1.2539063 -1.9335933,-1.2539063 -0.6914062,0 -1.546875,0.3398438 -1.9804687,1.3359375 -0.3398438,0.75 -0.4570313,1.4882813 -0.4570313,2.7890625 0,1.1601563 0.082031,2.0273438 0.515625,2.87109376 0.4570313,0.9140625 1.2890625,1.1953125 1.9101563,1.1953125 1.0429687,0 1.640625,-0.62109375 1.980469,-1.31249996 0.433593,-0.890625 0.457031,-2.0625 0.457031,-2.7539063 z m -2.4375,3.83203126 c -0.3867188,0 -1.1601563,-0.2109375 -1.3828125,-1.52343746 -0.140625,-0.7148438 -0.140625,-1.6171875 -0.140625,-2.4609375 0,-0.9726563 0,-1.8632813 0.1992187,-2.5664063 0.1992188,-0.796875 0.8085938,-1.171875 1.3242188,-1.171875 0.4570312,0 1.1484375,0.28125 1.371094,1.3007813 0.152343,0.6796875 0.152343,1.6289062 0.152343,2.4375 0,0.8085937 0,1.7109375 -0.128906,2.4375 C 9.93525,-0.21217969 9.18525,0.01047656 8.763375,0.01047656 Z m 0,0"
         style="fill:#000000;fill-opacity:1;fill-rule:nonzero;stroke:none" />
      <path
         id="path15"
         d="m 15.454781,-6.3293672 c 0,-0.9140625 -0.726562,-1.6523437 -1.640625,-1.6523437 -0.902344,0 -1.640625,0.7382812 -1.640625,1.6523437 0,0.9140625 0.738281,1.6523438 1.640625,1.6523438 0.914063,0 1.640625,-0.7382813 1.640625,-1.6523438 z m -1.640625,1.2773438 c -0.703125,0 -1.277344,-0.5625 -1.277344,-1.2773438 0,-0.7148437 0.574219,-1.2773437 1.277344,-1.2773437 0.714844,0 1.277344,0.5625 1.277344,1.2773437 0,0.7148438 -0.5625,1.2773438 -1.277344,1.2773438 z m 0,0"
         style="fill:#000000;fill-opacity:1;fill-rule:nonzero;stroke:none" />
    </g>
    <path
       id="path16"
       d="m 1.8151641,-7.7352578 c 0,-0.3808594 0.2050781,-0.8203125 0.6210937,-1.3125 l 0.9023438,0.4921875 c -0.1113282,0.1259766 -0.1933594,0.2460937 -0.2460938,0.3632812 -0.046875,0.1113282 -0.070312,0.2167969 -0.070312,0.3164063 0,0.1347656 0.038086,0.2431641 0.1171875,0.328125 0.076172,0.087891 0.2226563,0.1611328 0.4335938,0.2226562 0.2167968,0.064453 0.5390625,0.1376954 0.9609375,0.2226563 0.9902343,0.1816406 1.6787109,0.4628906 2.0625,0.84375 0.3808593,0.375 0.5742187,0.8613281 0.5742187,1.453125 0,0.5712891 -0.2285156,1.0751953 -0.6796875,1.5117187 -0.4453125,0.4306641 -1.0751953,0.703125 -1.8867187,0.8203125 0.5625,0.2431641 1.125,0.5390625 1.6875,0.890625 0.5683593,0.3457032 1.1162109,0.73828129 1.640625,1.18359379 l -0.65625,0.7734375 C 6.7048125,-0.09170312 6.1774688,-0.48721094 5.6940703,-0.80947656 5.2165313,-1.1288125 4.7389922,-1.3954141 4.2643828,-1.6063516 3.7956328,-1.8231484 3.2917266,-2.0165078 2.7526641,-2.1805703 2.2136016,-2.3446328 1.6071563,-2.4999062 0.93625781,-2.6493203 L 1.1471953,-3.6688516 c 0.3339844,0.09375 0.6738281,0.1728516 1.0195313,0.234375 0.3427734,0.064453 0.7734375,0.09375 1.2890625,0.09375 0.9667968,0 1.640625,-0.1289062 2.015625,-0.3867187 0.375,-0.2578125 0.5625,-0.6005859 0.5625,-1.03125 0,-0.3662109 -0.1289063,-0.6474609 -0.3867188,-0.84375 C 5.3893828,-5.8045937 4.8913359,-5.980375 4.1589141,-6.1297891 3.3151641,-6.2850625 2.7116484,-6.4872109 2.3542266,-6.7391641 1.993875,-6.9969766 1.8151641,-7.3280312 1.8151641,-7.7352578 Z M 17.31907,-8.9188516 v 1.0195313 h -0.292968 c -0.298829,0.064453 -0.618164,0.2080078 -0.960938,0.4335937 -0.345703,0.2285157 -0.667969,0.5214844 -0.972656,0.8789063 -0.304688,0.3515625 -0.556641,0.7705078 -0.75,1.2539062 -0.196289,0.4775391 -0.292969,1.0019532 -0.292969,1.5703125 0,0.6884766 0.09961,1.2363282 0.304688,1.640625 0.202148,0.4072266 0.457031,0.7001954 0.761718,0.8789063 0.310547,0.1728516 0.621094,0.25781249 0.925782,0.25781249 0.234375,0 0.433593,-0.0234375 0.597656,-0.0703125 0.164062,-0.052734 0.351562,-0.1435547 0.5625,-0.2695313 l 0.503906,0.87890628 c -0.251953,0.19628906 -0.524414,0.33398437 -0.820312,0.41015625 -0.298829,0.06738281 -0.597657,0.10546875 -0.902344,0.10546875 -0.603516,0 -1.133789,-0.15527344 -1.59375,-0.46875 -0.462891,-0.31933594 -0.826172,-0.76171878 -1.089844,-1.32421878 -0.257812,-0.5683593 -0.386719,-1.2363281 -0.386719,-2.0039062 0,-0.7324219 0.117188,-1.3886719 0.351563,-1.96875 0.234375,-0.5859375 0.539062,-1.0927734 0.914062,-1.5234375 0.38086,-0.4277344 0.791016,-0.7851563 1.230469,-1.0664063 0.436524,-0.28125 0.861328,-0.4921875 1.277344,-0.6328125 z m 9.779297,0 v 1.0195313 H 25.586648 V -8.828125e-4 H 24.485086 V -4.5711953 c -0.210938,-0.2636719 -0.404297,-0.4628906 -0.574219,-0.5976563 -0.164062,-0.140625 -0.325195,-0.2109375 -0.480469,-0.2109375 -0.134765,0 -0.257812,0.041016 -0.375,0.1171875 -0.117187,0.079102 -0.251953,0.2285157 -0.398437,0.4453125 -0.140625,0.2109375 -0.328125,0.5361329 -0.5625,0.9726563 -0.257813,0.46875 -0.492188,0.8554687 -0.703125,1.1601562 -0.210938,0.2988282 -0.433594,0.515625 -0.667969,0.65625 -0.234375,0.140625 -0.521484,0.2109375 -0.855469,0.2109375 -0.383789,0 -0.74707,-0.1201171 -1.089843,-0.3632812 -0.345703,-0.2490234 -0.711914,-0.6914063 -1.101563,-1.3242188 l 0.878906,-0.5273437 c 0.257813,0.4628906 0.47168,0.7675781 0.644532,0.9140625 0.169922,0.140625 0.354492,0.2109375 0.550781,0.2109375 0.202148,0 0.398437,-0.082031 0.585937,-0.2460938 0.19336,-0.1699218 0.424805,-0.4833984 0.691407,-0.9375 -0.08789,-0.5917968 -0.184571,-1.0605468 -0.292969,-1.40625 -0.102539,-0.3515625 -0.266602,-0.6269531 -0.492188,-0.8320312 -0.243164,-0.2167969 -0.571289,-0.3808594 -0.984375,-0.4921875 -0.407226,-0.1083984 -0.919921,-0.2021484 -1.535156,-0.28125 l 0.152344,-0.796875 h -0.84375 v -1.0195313 z m -8.390625,1.0195313 c 0.726563,0.1025391 1.294922,0.2578125 1.710938,0.46875 0.413086,0.2109375 0.714843,0.5009766 0.902343,0.8671875 0.19336,0.3603516 0.319336,0.8320312 0.375,1.4179687 0.234375,-0.4921875 0.462891,-0.8320312 0.691407,-1.0195312 0.225586,-0.1875 0.471679,-0.28125 0.738281,-0.28125 0.257812,0 0.492187,0.064453 0.703125,0.1875 0.216797,0.1259766 0.451172,0.3105469 0.703125,0.5507812 -0.02344,-0.1464843 -0.04102,-0.2929687 -0.04687,-0.4335937 0,-0.140625 0,-0.2841797 0,-0.4335938 v -1.3242187 z m 9.28125,7.12499999 c 0,-0.35156249 0.08496,-0.59765629 0.257813,-0.73828129 0.169922,-0.1464843 0.377929,-0.2226562 0.621093,-0.2226562 0.249024,0 0.459961,0.076172 0.632813,0.2226562 0.178711,0.140625 0.269531,0.3867188 0.269531,0.73828129 0,0.34570312 -0.09082,0.59472656 -0.269531,0.75 -0.172852,0.14648437 -0.383789,0.22265625 -0.632813,0.22265625 -0.243164,0 -0.451171,-0.0761719 -0.621093,-0.22265625 -0.172852,-0.15527344 -0.257813,-0.40429688 -0.257813,-0.75 z M 34.76243,-8.9188516 v 1.0195313 H 33.250711 V -8.828125e-4 H 32.149148 V -7.8993203 h -1.488281 v -1.0195313 h 1.3125 c -0.149414,-0.1875 -0.304687,-0.3779296 -0.46875,-0.5742187 -0.158203,-0.2021484 -0.298828,-0.4042969 -0.421875,-0.6093747 0.328125,-0.5625 0.679688,-1.072266 1.054688,-1.535157 0.375,-0.46875 0.811523,-0.83496 1.3125,-1.101562 0.506836,-0.272461 1.11914,-0.410156 1.839843,-0.410156 0.679688,0 1.31836,0.111328 1.921875,0.328125 0.600586,0.219726 1.201172,0.527343 1.804688,0.925781 0.600586,0.392578 1.233398,0.861328 1.898437,1.40625 l -0.597656,0.7734374 C 39.652078,-10.246 39.054422,-10.688383 38.524148,-11.039945 c -0.533203,-0.357422 -1.040039,-0.624024 -1.523437,-0.796875 -0.477539,-0.178711 -0.990234,-0.269532 -1.535156,-0.269532 -0.796875,0 -1.435547,0.205079 -1.910157,0.609375 -0.477539,0.398438 -0.887695,0.919922 -1.230468,1.5585942 0.07617,0.140625 0.18164,0.2988281 0.316406,0.46875 0.131836,0.1728516 0.28418,0.3574219 0.457031,0.5507812 z m 8.923828,0 v 1.0195313 H 42.174539 V -8.828125e-4 H 41.072977 V -1.5594766 c -0.304688,-0.4511718 -0.618164,-0.8613281 -0.9375,-1.2304687 -0.313477,-0.375 -0.644532,-0.6738281 -0.996094,-0.9023438 -0.351563,-0.2255859 -0.732422,-0.3398437 -1.136719,-0.3398437 -0.351562,0 -0.65332,0.09375 -0.902344,0.28125 -0.243164,0.1816406 -0.363281,0.4511719 -0.363281,0.8085937 0,0.3134766 0.111328,0.5800782 0.339844,0.796875 0.234375,0.2197266 0.574219,0.4042969 1.019531,0.5507813 l -0.351562,1.10156249 C 36.971414,-0.76553125 36.411844,-1.1170937 36.06907,-1.5477578 35.732156,-1.9842812 35.565164,-2.46475 35.565164,-2.9891641 c 0,-0.4511718 0.108399,-0.8320312 0.328125,-1.1367187 0.225586,-0.3105469 0.506836,-0.5449219 0.84375,-0.703125 0.333984,-0.1552734 0.670899,-0.234375 1.007813,-0.234375 -0.0791,-0.6621094 -0.313477,-1.1425781 -0.703125,-1.4414063 -0.383789,-0.3046875 -1.007813,-0.4980468 -1.875,-0.5859375 l 0.140625,-0.8085937 H 34.47532 v -1.0195313 z m -2.613281,1.0195313 h -4.792969 c 0.796875,0.1025391 1.420898,0.3955078 1.875,0.8789062 0.451172,0.4863282 0.703125,1.1894532 0.75,2.109375 0.46875,0.1494141 0.878906,0.3837891 1.230469,0.703125 0.357421,0.3134766 0.679687,0.6679688 0.960937,1.0664063 -0.0088,-0.140625 -0.01758,-0.2841797 -0.02344,-0.4335938 0,-0.1464843 0,-0.2988281 0,-0.4570312 z m 3.498046,7.12499999 c 0,-0.35156249 0.08496,-0.59765629 0.257813,-0.73828129 0.169922,-0.1464843 0.37793,-0.2226562 0.621094,-0.2226562 0.249023,0 0.459961,0.076172 0.632812,0.2226562 0.178711,0.140625 0.269531,0.3867188 0.269531,0.73828129 0,0.34570312 -0.09082,0.59472656 -0.269531,0.75 -0.172851,0.14648437 -0.383789,0.22265625 -0.632812,0.22265625 -0.243164,0 -0.451172,-0.0761719 -0.621094,-0.22265625 -0.172852,-0.15527344 -0.257813,-0.40429688 -0.257813,-0.75 z m 0,0"
       style="fill:#000000;fill-opacity:1;fill-rule:nonzero;stroke:none"
       aria-label="২েস.িম."
       transform="matrix(1.3333333,0,0,1.3333333,74.404,111.16133)" />
    <path
       id="path17"
       d="m 7.9337969,-4.2293125 c 0,0.6884766 -0.099609,1.3095703 -0.2929688,1.8632813 -0.196289,0.5566406 -0.5126953,0.9960937 -0.9492187,1.3242187 -0.4394532,0.32226563 -1.0078125,0.48046875 -1.7109375,0.48046875 -0.515625,0 -1.0019532,-0.0849609 -1.453125,-0.2578125 C 3.0822344,-0.99786719 2.6662187,-1.3172031 2.2853594,-1.7800937 c -0.375,-0.46875 -0.7236328,-1.125 -1.0429688,-1.96875 -0.31347654,-0.84375 -0.59179685,-1.9365235 -0.83203123,-3.28125 l 1.10156253,-0.28125 c 0.28125,1.4296875 0.5771484,2.5605468 0.890625,3.3867187 0.3193359,0.8203125 0.6826172,1.40625 1.0898437,1.7578125 0.4042969,0.3457031 0.8789063,0.515625 1.4179688,0.515625 0.4833984,0 0.8613281,-0.1113281 1.1367187,-0.3398437 0.28125,-0.234375 0.4746094,-0.5419922 0.5859375,-0.9257813 0.1171875,-0.3896484 0.1757813,-0.8261719 0.1757813,-1.3125 0,-0.5859375 -0.082031,-1.1044922 -0.2460938,-1.5585937 -0.1582031,-0.459961 -0.375,-0.8232422 -0.65625,-1.0898438 -0.2753906,-0.2724609 -0.5830078,-0.4101562 -0.9257812,-0.4101562 -0.5332032,0 -0.796875,0.2402343 -0.796875,0.7148437 0,0.1582031 0.017578,0.3134766 0.058594,0.46875 0.046875,0.1494141 0.1201172,0.3222656 0.2226563,0.515625 l -1.1484375,0.2929688 c -0.1171875,-0.234375 -0.2080078,-0.4716797 -0.2695313,-0.7148438 -0.055664,-0.2490234 -0.082031,-0.4804687 -0.082031,-0.6914062 0,-0.3984375 0.09668,-0.7148438 0.2929687,-0.9492188 0.2021485,-0.234375 0.4482422,-0.4013672 0.7382813,-0.5039062 0.2871093,-0.099609 0.5654297,-0.1523438 0.8320312,-0.1523438 0.6708985,0 1.2363281,0.1875 1.6992188,0.5625 0.4599609,0.3691406 0.8085937,0.8613281 1.0429687,1.4765625 0.2402344,0.609375 0.3632813,1.2890625 0.3632808,2.0390625 z m 9.3837891,-4.6875 v 1.0195313 h -0.292969 c -0.298828,0.064453 -0.618164,0.2080078 -0.960937,0.4335937 -0.345703,0.2285156 -0.667969,0.5214844 -0.972657,0.8789063 -0.304687,0.3515625 -0.55664,0.7705078 -0.75,1.2539062 -0.196289,0.4775391 -0.292968,1.0019531 -0.292968,1.5703125 0,0.6884766 0.09961,1.2363281 0.304687,1.640625 0.202149,0.4072266 0.457031,0.7001953 0.761719,0.8789063 0.310547,0.1728515 0.621094,0.25781245 0.925781,0.25781245 0.234375,0 0.433594,-0.0234374 0.597656,-0.0703124 0.164063,-0.052734 0.351563,-0.1435547 0.5625,-0.2695313 l 0.503907,0.8789062 c -0.251953,0.19628906 -0.524414,0.33398438 -0.820313,0.41015625 -0.298828,0.06738281 -0.597656,0.10546875 -0.902344,0.10546875 -0.603515,0 -1.133789,-0.15527344 -1.59375,-0.46875 C 13.925008,-0.71661719 13.561727,-1.159 13.298055,-1.7215 c -0.257813,-0.5683594 -0.386719,-1.2363281 -0.386719,-2.0039062 0,-0.7324219 0.117187,-1.3886719 0.351562,-1.96875 0.234375,-0.5859375 0.539063,-1.0927735 0.914063,-1.5234375 C 14.55782,-7.6453281 14.967977,-8.00275 15.40743,-8.284 c 0.436523,-0.28125 0.861328,-0.4921875 1.277343,-0.6328125 z m 9.779297,0 v 1.0195313 H 25.585164 V 0.00115625 H 24.483602 V -4.5691562 C 24.272664,-4.8328281 24.079305,-5.0320469 23.909383,-5.1668125 23.74532,-5.3074375 23.584187,-5.37775 23.428914,-5.37775 c -0.134766,0 -0.257812,0.041016 -0.375,0.1171875 -0.117187,0.079102 -0.251953,0.2285156 -0.398437,0.4453125 -0.140625,0.2109375 -0.328125,0.5361328 -0.5625,0.9726563 -0.257813,0.46875 -0.492188,0.8554687 -0.703125,1.1601562 -0.210938,0.2988281 -0.433594,0.515625 -0.667969,0.65625 -0.234375,0.140625 -0.521485,0.2109375 -0.855469,0.2109375 -0.383789,0 -0.74707,-0.1201172 -1.089844,-0.3632812 -0.345703,-0.2490235 -0.711914,-0.6914063 -1.101562,-1.3242188 l 0.878906,-0.5273437 c 0.257813,0.4628906 0.47168,0.7675781 0.644531,0.9140625 0.169922,0.140625 0.354492,0.2109375 0.550782,0.2109375 0.202148,0 0.398437,-0.082031 0.585937,-0.2460938 0.193359,-0.1699219 0.424805,-0.4833984 0.691406,-0.9375 C 20.93868,-4.6804844 20.842,-5.1492344 20.733602,-5.4949375 20.631062,-5.8465 20.467,-6.1218906 20.241414,-6.3269687 19.99825,-6.5437656 19.670125,-6.7078281 19.257039,-6.8191562 c -0.407227,-0.1083985 -0.919922,-0.2021485 -1.535156,-0.28125 l 0.152344,-0.796875 h -0.84375 v -1.0195313 z m -8.390625,1.0195313 c 0.726562,0.102539 1.294922,0.2578125 1.710937,0.46875 0.413086,0.2109375 0.714844,0.5009765 0.902344,0.8671875 0.193359,0.3603515 0.319336,0.8320312 0.375,1.4179687 0.234375,-0.4921875 0.462891,-0.8320312 0.691406,-1.0195312 0.225586,-0.1875 0.47168,-0.28125 0.738282,-0.28125 0.257812,0 0.492187,0.064453 0.703125,0.1875 0.216796,0.1259765 0.451171,0.3105468 0.703125,0.5507812 -0.02344,-0.1464844 -0.04102,-0.2929687 -0.04687,-0.4335937 0,-0.140625 0,-0.2841797 0,-0.4335938 v -1.3242187 z m 9.28125,7.12499995 c 0,-0.35156245 0.08496,-0.59765625 0.257812,-0.73828125 0.169922,-0.1464844 0.37793,-0.2226562 0.621094,-0.2226562 0.249023,0 0.459961,0.076172 0.632813,0.2226562 0.17871,0.140625 0.269531,0.3867188 0.269531,0.73828125 0,0.34570313 -0.09082,0.59472656 -0.269531,0.75 -0.172852,0.14648438 -0.38379,0.22265625 -0.632813,0.22265625 -0.243164,0 -0.451172,-0.0761719 -0.621094,-0.22265625 -0.172851,-0.15527344 -0.257812,-0.40429687 -0.257812,-0.75 z m 6.773437,-8.14453125 v 1.0195313 H 33.249227 V 0.00115625 H 32.147664 V -7.8972812 h -1.488281 v -1.0195313 h 1.3125 c -0.149414,-0.1875 -0.304688,-0.3779297 -0.46875,-0.5742187 -0.158203,-0.2021485 -0.298828,-0.4042969 -0.421875,-0.6093748 0.328125,-0.5625 0.679687,-1.072266 1.054687,-1.535156 0.375,-0.46875 0.811524,-0.834961 1.3125,-1.101563 0.506836,-0.272461 1.119141,-0.410156 1.839844,-0.410156 0.679688,0 1.318359,0.111328 1.921875,0.328125 0.600586,0.219726 1.201172,0.527344 1.804688,0.925781 0.600585,0.392578 1.233398,0.861328 1.898437,1.40625 l -0.597656,0.7734375 c -0.665039,-0.5302735 -1.262696,-0.9726565 -1.792969,-1.3242185 -0.533203,-0.357422 -1.040039,-0.624024 -1.523437,-0.796875 -0.47754,-0.178711 -0.990235,-0.269531 -1.535157,-0.269531 -0.796875,0 -1.435547,0.205078 -1.910156,0.609375 -0.477539,0.398437 -0.887695,0.919921 -1.230469,1.5585933 0.07617,0.140625 0.181641,0.2988281 0.316407,0.46875 0.131835,0.1728515 0.284179,0.3574218 0.457031,0.5507812 z m 8.926758,0 v 1.0195313 H 42.175984 V 0.00115625 H 41.074422 V -1.5574375 c -0.304688,-0.4511719 -0.618164,-0.8613281 -0.9375,-1.2304687 -0.313477,-0.375 -0.644531,-0.6738282 -0.996094,-0.9023438 -0.351562,-0.2255859 -0.732422,-0.3398437 -1.136719,-0.3398437 -0.351562,0 -0.65332,0.09375 -0.902343,0.28125 -0.243164,0.1816406 -0.363282,0.4511718 -0.363282,0.8085937 0,0.3134766 0.111328,0.5800781 0.339844,0.796875 0.234375,0.2197266 0.574219,0.4042969 1.019531,0.5507813 l -0.351562,1.10156245 C 36.972859,-0.76349219 36.413289,-1.1150547 36.070516,-1.5457187 35.733602,-1.9822422 35.566609,-2.4627109 35.566609,-2.987125 c 0,-0.4511719 0.108399,-0.8320312 0.328125,-1.1367187 0.225586,-0.3105469 0.506836,-0.5449219 0.84375,-0.703125 0.333985,-0.1552735 0.670899,-0.234375 1.007813,-0.234375 -0.0791,-0.6621094 -0.313477,-1.1425782 -0.703125,-1.4414063 -0.383789,-0.3046875 -1.007813,-0.4980469 -1.875,-0.5859375 l 0.140625,-0.8085937 h -0.832031 v -1.0195313 z m -2.613281,1.0195313 h -4.792969 c 0.796875,0.102539 1.420899,0.3955078 1.875,0.8789062 0.451172,0.4863281 0.703125,1.1894531 0.75,2.109375 0.46875,0.1494141 0.878906,0.3837891 1.230469,0.703125 0.357422,0.3134766 0.679687,0.6679688 0.960937,1.0664063 -0.0088,-0.140625 -0.01758,-0.2841797 -0.02344,-0.4335938 0,-0.1464844 0,-0.2988281 0,-0.4570312 z m 3.498047,7.12499995 c 0,-0.35156245 0.08496,-0.59765625 0.257812,-0.73828125 0.169922,-0.1464844 0.37793,-0.2226562 0.621094,-0.2226562 0.249023,0 0.459961,0.076172 0.632812,0.2226562 0.178711,0.140625 0.269532,0.3867188 0.269532,0.73828125 0,0.34570313 -0.09082,0.59472656 -0.269532,0.75 -0.172851,0.14648438 -0.383789,0.22265625 -0.632812,0.22265625 -0.243164,0 -0.451172,-0.0761719 -0.621094,-0.22265625 -0.172851,-0.15527344 -0.257812,-0.40429687 -0.257812,-0.75 z m 0,0"
       style="fill:#000000;fill-opacity:1;fill-rule:nonzero;stroke:none"
       aria-label="৩েস.িম."
       transform="matrix(1.3333333,0,0,1.3333333,17.710667,209.54533)" />
  </g>
</svg>
