<?xml version="1.0" encoding="UTF-8" standalone="no"?>
<!-- Created with Inkscape (http://www.inkscape.org/) -->

<svg
   version="1.1"
   id="svg1"
   width="178.30667"
   height="168.54668"
   viewBox="0 0 178.30667 168.54668"
   sodipodi:docname="upload_7yxixgwurb5cdssmyaobb6ravg.pdf"
   xmlns:inkscape="http://www.inkscape.org/namespaces/inkscape"
   xmlns:sodipodi="http://sodipodi.sourceforge.net/DTD/sodipodi-0.dtd"
   xmlns="http://www.w3.org/2000/svg"
   xmlns:svg="http://www.w3.org/2000/svg">
  <defs
     id="defs1" />
  <sodipodi:namedview
     id="namedview1"
     pagecolor="#ffffff"
     bordercolor="#000000"
     borderopacity="0.25"
     inkscape:showpageshadow="2"
     inkscape:pageopacity="0.0"
     inkscape:pagecheckerboard="0"
     inkscape:deskcolor="#d1d1d1">
    <inkscape:page
       x="0"
       y="0"
       inkscape:label="1"
       id="page1"
       width="178.30667"
       height="168.54668"
       margin="0"
       bleed="0" />
  </sodipodi:namedview>
  <g
     id="g1"
     inkscape:groupmode="layer"
     inkscape:label="1">
    <path
       id="path1"
       d="M 0,85.04042 -42.5202,0 h 85.0404 z"
       style="fill:none;stroke:#000000;stroke-width:0.79701;stroke-linecap:butt;stroke-linejoin:miter;stroke-miterlimit:10;stroke-dasharray:none;stroke-opacity:1"
       transform="matrix(1.3333333,0,0,-1.3333333,89.432,144.86533)" />
    <path
       id="path2"
       d="M -21.2601,42.5202 H 21.2601"
       style="fill:none;stroke:#000000;stroke-width:0.79701;stroke-linecap:butt;stroke-linejoin:miter;stroke-miterlimit:10;stroke-dasharray:none;stroke-opacity:1"
       transform="matrix(1.3333333,0,0,-1.3333333,89.432,144.86533)" />
    <path
       id="path3"
       d="M -42.5202,0 21.2601,42.5202"
       style="fill:none;stroke:#000000;stroke-width:0.79701;stroke-linecap:butt;stroke-linejoin:miter;stroke-miterlimit:10;stroke-dasharray:none;stroke-opacity:1"
       transform="matrix(1.3333333,0,0,-1.3333333,89.432,144.86533)" />
    <path
       id="path4"
       d="m 6.2115547,-4.9454453 c 0,-0.984375 -0.984375,-1.8632813 -2.34375,-1.8632813 H 0.35217969 v 0.3164063 h 0.234375 c 0.77343751,0 0.78515621,0.1054687 0.78515621,0.46875 v 5.24999999 c 0,0.3515625 -0.011719,0.46875 -0.78515621,0.46875 h -0.234375 V -1.328125e-4 C 0.70374219,-0.03528906 1.4303047,-0.03528906 1.8170234,-0.03528906 c 0.375,0 1.125,0 1.4765625,0.0351562475 V -0.30482031 H 3.0474922 c -0.7617188,0 -0.7851563,-0.1171875 -0.7851563,-0.46875 V -3.1524766 h 1.6875 c 1.1953125,0 2.2617188,-0.796875 2.2617188,-1.7929687 z m -1.0195313,0 c 0,0.4570312 0,1.5351562 -1.5820312,1.5351562 H 2.2271797 v -2.6835937 c 0,-0.328125 0.023437,-0.3984375 0.4921875,-0.3984375 h 0.890625 c 1.5820312,0 1.5820312,1.0546875 1.5820312,1.546875 z m 0,0"
       style="fill:#000000;fill-opacity:1;fill-rule:nonzero;stroke:none"
       aria-label="P"
       transform="matrix(1.3333333,0,0,1.3333333,84.909333,26.785333)" />
    <path
       id="path5"
       d="m 7.2423906,0.10482812 c 0,-0.105468745 0,-0.2109375 -0.1054687,-0.2109375 -0.09375,0 -0.1054688,0.0703125 -0.1171875,0.17578125 -0.058594,0.5390625 -0.4804688,0.83203125 -0.9023438,0.83203125 -0.46875,0 -0.7148437,-0.33984375 -0.9609375,-0.97265625 1.1835938,-0.52734375 2.0273438,-1.80468747 2.0273438,-3.30468747 0,-2.0390625 -1.5,-3.6445313 -3.3164063,-3.6445313 -1.78125,0 -3.30468748,1.59375 -3.30468748,3.6445313 0,2.015625 1.49999998,3.59765622 3.31640628,3.59765622 0.3046875,0 0.65625,-0.0585938 0.9375,-0.15234375 0.1523437,0.94921873 0.2929687,1.86328123 1.21875,1.86328123 1.0195312,0 1.2070312,-1.32421873 1.2070312,-1.82812498 z M 6.1877031,-3.3756406 c 0,0.7734375 -0.1171875,2.1796875 -1.171875,2.95312497 -0.2226562,-0.55078125 -0.5390625,-1.05468747 -1.125,-1.05468747 -0.515625,0 -0.8203125,0.4335937 -0.8203125,0.84374997 0,0.26953125 0.1289063,0.45703125 0.140625,0.46875 C 2.6720781,-0.36392188 1.5587969,-1.0904844 1.5587969,-3.3756406 c 0,-2.5898438 1.3945312,-3.3984375 2.3085937,-3.3984375 0.9609375,0 2.3203125,0.8554687 2.3203125,3.3984375 z m -1.4414062,3.11718747 c -0.328125,0.1875 -0.65625,0.22265625 -0.8671875,0.22265625 -0.515625,0 -0.5859375,-0.45703125 -0.5859375,-0.59765625 0,-0.29296875 0.1992187,-0.62109377 0.5976562,-0.62109377 0.5273438,0 0.75,0.42187502 0.8554688,0.99609377 z m 0,0"
       style="fill:#000000;fill-opacity:1;fill-rule:nonzero;stroke:none"
       aria-label="Q"
       transform="matrix(1.3333333,0,0,1.3333333,17.710667,148.25867)" />
    <path
       id="path6"
       d="m 7.2902969,-0.87754688 c 0,-0.0585938 0,-0.16406252 -0.1289063,-0.16406252 -0.1054687,0 -0.1054687,0.0820313 -0.1171875,0.15234377 -0.058594,0.71484375 -0.4101562,0.890625 -0.65625,0.890625 -0.4921875,0 -0.5742187,-0.50390625 -0.703125,-1.42968747 l -0.140625,-0.796875 c -0.1757812,-0.6445313 -0.65625,-0.9726563 -1.2070312,-1.1601563 0.9609375,-0.234375 1.7460937,-0.84375 1.7460937,-1.6289062 0,-0.9492188 -1.1367187,-1.7929688 -2.6015625,-1.7929688 H 0.35279688 v 0.3164063 h 0.234375 c 0.77343752,0 0.78515622,0.1054687 0.78515622,0.46875 v 5.24999997 c 0,0.3515625 -0.011719,0.46875 -0.78515622,0.46875 h -0.234375 v 0.3046875 c 0.3515625,-0.03515625 1.06640622,-0.03515625 1.45312502,-0.03515625 0.3867187,0 1.0898437,0 1.453125,0.03515625 v -0.3046875 h -0.234375 c -0.7734375,0 -0.796875,-0.1171875 -0.796875,-0.46875 V -3.2916094 h 1.1484375 c 0.1640625,0 0.5742187,0 0.9257812,0.3398438 0.3867188,0.3515625 0.3867188,0.65625 0.3867188,1.3242187 0,0.65625002 0,1.05468752 0.3984375,1.42968752 0.4101562,0.36328125 0.9609375,0.421875 1.2539062,0.421875 0.7851563,0 0.9492188,-0.8203125 0.9492188,-1.1015625 z M 5.0520156,-5.0142656 c 0,0.6914062 -0.234375,1.5 -1.7109375,1.5 H 2.2277969 v -2.578125 c 0,-0.234375 0,-0.3515625 0.2226562,-0.3867188 0.1054688,-0.011719 0.3867188,-0.011719 0.5859375,-0.011719 0.9023438,0 2.015625,0.035156 2.015625,1.4765628 z m 0,0"
       style="fill:#000000;fill-opacity:1;fill-rule:nonzero;stroke:none"
       aria-label="R"
       transform="matrix(1.3333333,0,0,1.3333333,150.81867,149.256)" />
    <path
       id="path7"
       d="M 7.1369844,-6.640625e-4 V -0.30535156 H 6.9612031 c -0.5976562,0 -0.7382812,-0.0703125 -0.84375,-0.3984375 l -2.15625,-6.23437504 c -0.046875,-0.1289062 -0.070312,-0.1992187 -0.2226562,-0.1992187 -0.1640625,0 -0.1875,0.058594 -0.2460938,0.1992187 l -2.0625,5.96484379 c -0.1757812,0.50390625 -0.57421873,0.65625 -1.11328123,0.66796875 V -6.640625e-4 L 1.3362031,-0.03582031 2.4846406,-6.640625e-4 V -0.30535156 c -0.5039062,0 -0.75,-0.2578125 -0.75,-0.515625 0,-0.0234375 0.011719,-0.12890625 0.023437,-0.140625 L 2.2151094,-2.2741016 h 2.4609375 l 0.5273437,1.52343754 c 0.011719,0.046875 0.023437,0.10546875 0.023437,0.140625 0,0.3046875 -0.5507812,0.3046875 -0.8203125,0.3046875 V -6.640625e-4 C 4.7580781,-0.03582031 5.4612031,-0.03582031 5.8362031,-0.03582031 Z M 4.5588594,-2.5787891 H 2.3205781 l 1.1132813,-3.234375 z m 0,0"
       style="fill:#000000;fill-opacity:1;fill-rule:nonzero;stroke:none"
       aria-label="A"
       transform="matrix(1.3333333,0,0,1.3333333,46.429333,92.926667)" />
    <path
       id="path8"
       d="m 6.4809609,-1.8288516 c 0,-0.8671875 -0.8085937,-1.6054687 -1.921875,-1.7226562 0.9726563,-0.1992188 1.6523438,-0.8320313 1.6523438,-1.5703125 0,-0.8671875 -0.9140625,-1.6875 -2.203125,-1.6875 H 0.36377344 v 0.3164062 h 0.234375 c 0.76171876,0 0.78515626,0.1054688 0.78515626,0.46875 v 5.25000004 c 0,0.3515625 -0.023437,0.46875 -0.78515626,0.46875 h -0.234375 V -7.265625e-4 H 4.2661172 c 1.3242187,0 2.2148437,-0.8906249975 2.2148437,-1.8281250375 z M 5.2504922,-5.1218203 c 0,0.6328125 -0.4921875,1.4765625 -1.59375,1.4765625 H 2.2153359 v -2.4492188 c 0,-0.328125 0.011719,-0.3984375 0.4804688,-0.3984375 h 1.2421875 c 0.9609375,0 1.3125,0.84375 1.3125,1.3710938 z m 0.234375,3.2929687 c 0,0.703125 -0.515625,1.52343754 -1.5351563,1.52343754 H 2.6958047 c -0.46875,0 -0.4804688,-0.0703125 -0.4804688,-0.3984375 V -3.4226016 h 1.875 c 0.984375,0 1.3945313,0.9257813 1.3945313,1.59375 z m 0,0"
       style="fill:#000000;fill-opacity:1;fill-rule:nonzero;stroke:none"
       aria-label="B"
       transform="matrix(1.3333333,0,0,1.3333333,122.472,92.708)" />
  </g>
</svg>
