<?xml version="1.0" encoding="UTF-8" standalone="no"?>
<!-- Created with Inkscape (http://www.inkscape.org/) -->

<svg
   version="1.1"
   id="svg1"
   width="484.54666"
   height="287.97333"
   viewBox="0 0 484.54666 287.97333"
   sodipodi:docname="upload_phdrujsai4srutvsjhhtqml2tt.pdf"
   xmlns:inkscape="http://www.inkscape.org/namespaces/inkscape"
   xmlns:sodipodi="http://sodipodi.sourceforge.net/DTD/sodipodi-0.dtd"
   xmlns="http://www.w3.org/2000/svg"
   xmlns:svg="http://www.w3.org/2000/svg">
  <defs
     id="defs1">
    <clipPath
       clipPathUnits="userSpaceOnUse"
       id="clipPath2">
      <path
         d="M 0,0 V 170.08086 H 283.4681 V 0 Z"
         id="path2" />
    </clipPath>
    <clipPath
       clipPathUnits="userSpaceOnUse"
       id="clipPath4">
      <path
         d="M 0,0 V 170.08086 H 283.4681 V 0 Z"
         id="path4" />
    </clipPath>
    <clipPath
       clipPathUnits="userSpaceOnUse"
       id="clipPath6">
      <path
         d="M 0,0 V 170.08086 H 283.4681 V 0 Z"
         id="path6" />
    </clipPath>
    <clipPath
       clipPathUnits="userSpaceOnUse"
       id="clipPath8">
      <path
         d="M 0,0 V 170.08086 H 283.4681 V 0 Z"
         id="path8" />
    </clipPath>
    <clipPath
       clipPathUnits="userSpaceOnUse"
       id="clipPath10">
      <path
         d="M 0,0 V 170.08086 H 283.4681 V 0 Z"
         id="path10" />
    </clipPath>
    <clipPath
       clipPathUnits="userSpaceOnUse"
       id="clipPath12">
      <path
         d="M 0,0 V 170.08086 H 283.4681 V 0 Z"
         id="path12" />
    </clipPath>
    <clipPath
       clipPathUnits="userSpaceOnUse"
       id="clipPath14">
      <path
         d="M 0,0 V 170.08086 H 283.4681 V 0 Z"
         id="path14" />
    </clipPath>
    <clipPath
       clipPathUnits="userSpaceOnUse"
       id="clipPath16">
      <path
         d="M 0,0 V 170.08086 H 283.4681 V 0 Z"
         id="path16" />
    </clipPath>
    <clipPath
       clipPathUnits="userSpaceOnUse"
       id="clipPath18">
      <path
         d="M 0,0 V 170.08086 H 283.4681 V 0 Z"
         id="path18" />
    </clipPath>
    <clipPath
       clipPathUnits="userSpaceOnUse"
       id="clipPath20">
      <path
         d="M 0,0 V 170.08086 H 283.4681 V 0 Z"
         id="path20" />
    </clipPath>
    <clipPath
       clipPathUnits="userSpaceOnUse"
       id="clipPath22">
      <path
         d="M 0,0 V 170.08086 H 283.4681 V 0 Z"
         id="path22" />
    </clipPath>
    <clipPath
       clipPathUnits="userSpaceOnUse"
       id="clipPath24">
      <path
         d="M 0,0 V 170.08086 H 283.4681 V 0 Z"
         id="path24" />
    </clipPath>
    <clipPath
       clipPathUnits="userSpaceOnUse"
       id="clipPath26">
      <path
         d="M 0,0 V 170.08086 H 283.4681 V 0 Z"
         id="path26" />
    </clipPath>
    <clipPath
       clipPathUnits="userSpaceOnUse"
       id="clipPath28">
      <path
         d="M 0,0 V 170.08086 H 283.4681 V 0 Z"
         id="path28" />
    </clipPath>
    <clipPath
       clipPathUnits="userSpaceOnUse"
       id="clipPath30">
      <path
         d="M 0,0 V 170.08086 H 283.4681 V 0 Z"
         id="path30" />
    </clipPath>
    <clipPath
       clipPathUnits="userSpaceOnUse"
       id="clipPath32">
      <path
         d="M 0,0 V 170.08086 H 283.4681 V 0 Z"
         id="path32" />
    </clipPath>
    <clipPath
       clipPathUnits="userSpaceOnUse"
       id="clipPath34">
      <path
         d="M 0,0 V 170.08086 H 283.4681 V 0 Z"
         id="path34" />
    </clipPath>
    <clipPath
       clipPathUnits="userSpaceOnUse"
       id="clipPath36">
      <path
         d="M 0,0 V 170.08086 H 283.4681 V 0 Z"
         id="path36" />
    </clipPath>
    <clipPath
       clipPathUnits="userSpaceOnUse"
       id="clipPath38">
      <path
         d="M 0,0 V 170.08086 H 283.4681 V 0 Z"
         id="path38" />
    </clipPath>
    <clipPath
       clipPathUnits="userSpaceOnUse"
       id="clipPath40">
      <path
         d="M 0,0 V 170.08086 H 283.4681 V 0 Z"
         id="path40" />
    </clipPath>
    <clipPath
       clipPathUnits="userSpaceOnUse"
       id="clipPath42">
      <path
         d="M 0,0 V 170.08086 H 283.4681 V 0 Z"
         id="path42" />
    </clipPath>
    <clipPath
       clipPathUnits="userSpaceOnUse"
       id="clipPath44">
      <path
         d="M 0,0 V 170.08086 H 283.4681 V 0 Z"
         id="path44" />
    </clipPath>
    <clipPath
       clipPathUnits="userSpaceOnUse"
       id="clipPath46">
      <path
         d="M 0,0 V 170.08086 H 283.4681 V 0 Z"
         id="path46" />
    </clipPath>
    <clipPath
       clipPathUnits="userSpaceOnUse"
       id="clipPath48">
      <path
         d="M 0,0 V 170.08086 H 283.4681 V 0 Z"
         id="path48" />
    </clipPath>
    <clipPath
       clipPathUnits="userSpaceOnUse"
       id="clipPath50">
      <path
         d="M 0,0 V 170.08086 H 283.4681 V 0 Z"
         id="path50" />
    </clipPath>
    <clipPath
       clipPathUnits="userSpaceOnUse"
       id="clipPath52">
      <path
         d="M 0,0 V 170.08086 H 283.4681 V 0 Z"
         id="path52" />
    </clipPath>
    <clipPath
       clipPathUnits="userSpaceOnUse"
       id="clipPath54">
      <path
         d="M 0,0 V 170.08086 H 283.4681 V 0 Z"
         id="path54" />
    </clipPath>
    <clipPath
       clipPathUnits="userSpaceOnUse"
       id="clipPath56">
      <path
         d="M 0,0 V 170.08086 H 283.4681 V 0 Z"
         id="path56" />
    </clipPath>
    <clipPath
       clipPathUnits="userSpaceOnUse"
       id="clipPath58">
      <path
         d="M 0,0 V 170.08086 H 283.4681 V 0 Z"
         id="path58" />
    </clipPath>
    <clipPath
       clipPathUnits="userSpaceOnUse"
       id="clipPath60">
      <path
         d="M 0,0 V 170.08086 H 283.4681 V 0 Z"
         id="path60" />
    </clipPath>
    <clipPath
       clipPathUnits="userSpaceOnUse"
       id="clipPath62">
      <path
         d="M 0,0 V 170.08086 H 283.4681 V 0 Z"
         id="path62" />
    </clipPath>
  </defs>
  <sodipodi:namedview
     id="namedview1"
     pagecolor="#ffffff"
     bordercolor="#000000"
     borderopacity="0.25"
     inkscape:showpageshadow="2"
     inkscape:pageopacity="0.0"
     inkscape:pagecheckerboard="0"
     inkscape:deskcolor="#d1d1d1">
    <inkscape:page
       x="0"
       y="0"
       inkscape:label="1"
       id="page1"
       width="484.54666"
       height="287.97333"
       margin="0"
       bleed="0" />
  </sodipodi:namedview>
  <g
     id="g1"
     inkscape:groupmode="layer"
     inkscape:label="1">
    <path
       id="path1"
       d="M 0,0 H 283.4681"
       style="fill:none;stroke:#b3b3b3;stroke-width:0.3985;stroke-linecap:butt;stroke-linejoin:miter;stroke-miterlimit:10;stroke-dasharray:none;stroke-opacity:1"
       transform="matrix(1.3333333,0,0,-1.3333333,14.346667,241.11867)"
       clip-path="url(#clipPath2)" />
    <path
       id="path3"
       d="M 0,5.66927 H 283.4681"
       style="fill:none;stroke:#b3b3b3;stroke-width:0.3985;stroke-linecap:butt;stroke-linejoin:miter;stroke-miterlimit:10;stroke-dasharray:none;stroke-opacity:1"
       transform="matrix(1.3333333,0,0,-1.3333333,14.346667,241.11867)"
       clip-path="url(#clipPath4)" />
    <path
       id="path5"
       d="M 0,11.33855 H 283.4681"
       style="fill:none;stroke:#b3b3b3;stroke-width:0.3985;stroke-linecap:butt;stroke-linejoin:miter;stroke-miterlimit:10;stroke-dasharray:none;stroke-opacity:1"
       transform="matrix(1.3333333,0,0,-1.3333333,14.346667,241.11867)"
       clip-path="url(#clipPath6)" />
    <path
       id="path7"
       d="M 0,17.00781 H 283.4681"
       style="fill:none;stroke:#b3b3b3;stroke-width:0.3985;stroke-linecap:butt;stroke-linejoin:miter;stroke-miterlimit:10;stroke-dasharray:none;stroke-opacity:1"
       transform="matrix(1.3333333,0,0,-1.3333333,14.346667,241.11867)"
       clip-path="url(#clipPath8)" />
    <path
       id="path9"
       d="M 0,22.6771 H 283.4681"
       style="fill:none;stroke:#b3b3b3;stroke-width:0.3985;stroke-linecap:butt;stroke-linejoin:miter;stroke-miterlimit:10;stroke-dasharray:none;stroke-opacity:1"
       transform="matrix(1.3333333,0,0,-1.3333333,14.346667,241.11867)"
       clip-path="url(#clipPath10)" />
    <path
       id="path11"
       d="M 0,28.34636 H 283.4681"
       style="fill:none;stroke:#b3b3b3;stroke-width:0.3985;stroke-linecap:butt;stroke-linejoin:miter;stroke-miterlimit:10;stroke-dasharray:none;stroke-opacity:1"
       transform="matrix(1.3333333,0,0,-1.3333333,14.346667,241.11867)"
       clip-path="url(#clipPath12)" />
    <path
       id="path13"
       d="M 0,34.01564 H 283.4681"
       style="fill:none;stroke:#b3b3b3;stroke-width:0.3985;stroke-linecap:butt;stroke-linejoin:miter;stroke-miterlimit:10;stroke-dasharray:none;stroke-opacity:1"
       transform="matrix(1.3333333,0,0,-1.3333333,14.346667,241.11867)"
       clip-path="url(#clipPath14)" />
    <path
       id="path15"
       d="M 0,39.6849 H 283.4681"
       style="fill:none;stroke:#b3b3b3;stroke-width:0.3985;stroke-linecap:butt;stroke-linejoin:miter;stroke-miterlimit:10;stroke-dasharray:none;stroke-opacity:1"
       transform="matrix(1.3333333,0,0,-1.3333333,14.346667,241.11867)"
       clip-path="url(#clipPath16)" />
    <path
       id="path17"
       d="M 0,45.35419 H 283.4681"
       style="fill:none;stroke:#b3b3b3;stroke-width:0.3985;stroke-linecap:butt;stroke-linejoin:miter;stroke-miterlimit:10;stroke-dasharray:none;stroke-opacity:1"
       transform="matrix(1.3333333,0,0,-1.3333333,14.346667,241.11867)"
       clip-path="url(#clipPath18)" />
    <path
       id="path19"
       d="M 0,51.02345 H 283.4681"
       style="fill:none;stroke:#b3b3b3;stroke-width:0.3985;stroke-linecap:butt;stroke-linejoin:miter;stroke-miterlimit:10;stroke-dasharray:none;stroke-opacity:1"
       transform="matrix(1.3333333,0,0,-1.3333333,14.346667,241.11867)"
       clip-path="url(#clipPath20)" />
    <path
       id="path21"
       d="M 0,56.69275 H 283.4681"
       style="fill:none;stroke:#b3b3b3;stroke-width:0.3985;stroke-linecap:butt;stroke-linejoin:miter;stroke-miterlimit:10;stroke-dasharray:none;stroke-opacity:1"
       transform="matrix(1.3333333,0,0,-1.3333333,14.346667,241.11867)"
       clip-path="url(#clipPath22)" />
    <path
       id="path23"
       d="M 0,62.36201 H 283.4681"
       style="fill:none;stroke:#b3b3b3;stroke-width:0.3985;stroke-linecap:butt;stroke-linejoin:miter;stroke-miterlimit:10;stroke-dasharray:none;stroke-opacity:1"
       transform="matrix(1.3333333,0,0,-1.3333333,14.346667,241.11867)"
       clip-path="url(#clipPath24)" />
    <path
       id="path25"
       d="M 0,68.0313 H 283.4681"
       style="fill:none;stroke:#b3b3b3;stroke-width:0.3985;stroke-linecap:butt;stroke-linejoin:miter;stroke-miterlimit:10;stroke-dasharray:none;stroke-opacity:1"
       transform="matrix(1.3333333,0,0,-1.3333333,14.346667,241.11867)"
       clip-path="url(#clipPath26)" />
    <path
       id="path27"
       d="M 0,73.70056 H 283.4681"
       style="fill:none;stroke:#b3b3b3;stroke-width:0.3985;stroke-linecap:butt;stroke-linejoin:miter;stroke-miterlimit:10;stroke-dasharray:none;stroke-opacity:1"
       transform="matrix(1.3333333,0,0,-1.3333333,14.346667,241.11867)"
       clip-path="url(#clipPath28)" />
    <path
       id="path29"
       d="M 0,79.36984 H 283.4681"
       style="fill:none;stroke:#b3b3b3;stroke-width:0.3985;stroke-linecap:butt;stroke-linejoin:miter;stroke-miterlimit:10;stroke-dasharray:none;stroke-opacity:1"
       transform="matrix(1.3333333,0,0,-1.3333333,14.346667,241.11867)"
       clip-path="url(#clipPath30)" />
    <path
       id="path31"
       d="M 0,85.03911 H 283.4681"
       style="fill:none;stroke:#b3b3b3;stroke-width:0.3985;stroke-linecap:butt;stroke-linejoin:miter;stroke-miterlimit:10;stroke-dasharray:none;stroke-opacity:1"
       transform="matrix(1.3333333,0,0,-1.3333333,14.346667,241.11867)"
       clip-path="url(#clipPath32)" />
    <path
       id="path33"
       d="M 0,90.70839 H 283.4681"
       style="fill:none;stroke:#b3b3b3;stroke-width:0.3985;stroke-linecap:butt;stroke-linejoin:miter;stroke-miterlimit:10;stroke-dasharray:none;stroke-opacity:1"
       transform="matrix(1.3333333,0,0,-1.3333333,14.346667,241.11867)"
       clip-path="url(#clipPath34)" />
    <path
       id="path35"
       d="M 0,96.37766 H 283.4681"
       style="fill:none;stroke:#b3b3b3;stroke-width:0.3985;stroke-linecap:butt;stroke-linejoin:miter;stroke-miterlimit:10;stroke-dasharray:none;stroke-opacity:1"
       transform="matrix(1.3333333,0,0,-1.3333333,14.346667,241.11867)"
       clip-path="url(#clipPath36)" />
    <path
       id="path37"
       d="M 0,102.04694 H 283.4681"
       style="fill:none;stroke:#b3b3b3;stroke-width:0.3985;stroke-linecap:butt;stroke-linejoin:miter;stroke-miterlimit:10;stroke-dasharray:none;stroke-opacity:1"
       transform="matrix(1.3333333,0,0,-1.3333333,14.346667,241.11867)"
       clip-path="url(#clipPath38)" />
    <path
       id="path39"
       d="M 0,107.71623 H 283.4681"
       style="fill:none;stroke:#b3b3b3;stroke-width:0.3985;stroke-linecap:butt;stroke-linejoin:miter;stroke-miterlimit:10;stroke-dasharray:none;stroke-opacity:1"
       transform="matrix(1.3333333,0,0,-1.3333333,14.346667,241.11867)"
       clip-path="url(#clipPath40)" />
    <path
       id="path41"
       d="M 0,113.3855 H 283.4681"
       style="fill:none;stroke:#b3b3b3;stroke-width:0.3985;stroke-linecap:butt;stroke-linejoin:miter;stroke-miterlimit:10;stroke-dasharray:none;stroke-opacity:1"
       transform="matrix(1.3333333,0,0,-1.3333333,14.346667,241.11867)"
       clip-path="url(#clipPath42)" />
    <path
       id="path43"
       d="M 0,119.05478 H 283.4681"
       style="fill:none;stroke:#b3b3b3;stroke-width:0.3985;stroke-linecap:butt;stroke-linejoin:miter;stroke-miterlimit:10;stroke-dasharray:none;stroke-opacity:1"
       transform="matrix(1.3333333,0,0,-1.3333333,14.346667,241.11867)"
       clip-path="url(#clipPath44)" />
    <path
       id="path45"
       d="M 0,124.72404 H 283.4681"
       style="fill:none;stroke:#b3b3b3;stroke-width:0.3985;stroke-linecap:butt;stroke-linejoin:miter;stroke-miterlimit:10;stroke-dasharray:none;stroke-opacity:1"
       transform="matrix(1.3333333,0,0,-1.3333333,14.346667,241.11867)"
       clip-path="url(#clipPath46)" />
    <path
       id="path47"
       d="M 0,130.39333 H 283.4681"
       style="fill:none;stroke:#b3b3b3;stroke-width:0.3985;stroke-linecap:butt;stroke-linejoin:miter;stroke-miterlimit:10;stroke-dasharray:none;stroke-opacity:1"
       transform="matrix(1.3333333,0,0,-1.3333333,14.346667,241.11867)"
       clip-path="url(#clipPath48)" />
    <path
       id="path49"
       d="M 0,136.06259 H 283.4681"
       style="fill:none;stroke:#b3b3b3;stroke-width:0.3985;stroke-linecap:butt;stroke-linejoin:miter;stroke-miterlimit:10;stroke-dasharray:none;stroke-opacity:1"
       transform="matrix(1.3333333,0,0,-1.3333333,14.346667,241.11867)"
       clip-path="url(#clipPath50)" />
    <path
       id="path51"
       d="M 0,141.73187 H 283.4681"
       style="fill:none;stroke:#b3b3b3;stroke-width:0.3985;stroke-linecap:butt;stroke-linejoin:miter;stroke-miterlimit:10;stroke-dasharray:none;stroke-opacity:1"
       transform="matrix(1.3333333,0,0,-1.3333333,14.346667,241.11867)"
       clip-path="url(#clipPath52)" />
    <path
       id="path53"
       d="M 0,147.40114 H 283.4681"
       style="fill:none;stroke:#b3b3b3;stroke-width:0.3985;stroke-linecap:butt;stroke-linejoin:miter;stroke-miterlimit:10;stroke-dasharray:none;stroke-opacity:1"
       transform="matrix(1.3333333,0,0,-1.3333333,14.346667,241.11867)"
       clip-path="url(#clipPath54)" />
    <path
       id="path55"
       d="M 0,153.07042 H 283.4681"
       style="fill:none;stroke:#b3b3b3;stroke-width:0.3985;stroke-linecap:butt;stroke-linejoin:miter;stroke-miterlimit:10;stroke-dasharray:none;stroke-opacity:1"
       transform="matrix(1.3333333,0,0,-1.3333333,14.346667,241.11867)"
       clip-path="url(#clipPath56)" />
    <path
       id="path57"
       d="M 0,158.7397 H 283.4681"
       style="fill:none;stroke:#b3b3b3;stroke-width:0.3985;stroke-linecap:butt;stroke-linejoin:miter;stroke-miterlimit:10;stroke-dasharray:none;stroke-opacity:1"
       transform="matrix(1.3333333,0,0,-1.3333333,14.346667,241.11867)"
       clip-path="url(#clipPath58)" />
    <path
       id="path59"
       d="M 0,164.40898 H 283.4681"
       style="fill:none;stroke:#b3b3b3;stroke-width:0.3985;stroke-linecap:butt;stroke-linejoin:miter;stroke-miterlimit:10;stroke-dasharray:none;stroke-opacity:1"
       transform="matrix(1.3333333,0,0,-1.3333333,14.346667,241.11867)"
       clip-path="url(#clipPath60)" />
    <path
       id="path61"
       d="M 0,170.07825 H 283.4681"
       style="fill:none;stroke:#b3b3b3;stroke-width:0.3985;stroke-linecap:butt;stroke-linejoin:miter;stroke-miterlimit:10;stroke-dasharray:none;stroke-opacity:1"
       transform="matrix(1.3333333,0,0,-1.3333333,14.346667,241.11867)"
       clip-path="url(#clipPath62)" />
    <path
       id="path63"
       d="M 0,0 V 170.08086 H 283.4681 V 0 Z"
       style="fill:none;stroke:#000000;stroke-width:1.59404;stroke-linecap:butt;stroke-linejoin:miter;stroke-miterlimit:10;stroke-dasharray:none;stroke-opacity:1"
       transform="matrix(1.3333333,0,0,-1.3333333,14.346667,241.11867)" />
    <path
       id="path64"
       d="m 226.77448,85.04042 c 0,46.96713 -38.07331,85.04044 -85.04044,85.04044 -46.96714,0 -85.04042,-38.07331 -85.04042,-85.04044 C 56.69362,38.07329 94.7669,0 141.73404,0 c 46.96713,0 85.04044,38.07329 85.04044,85.04042 z"
       style="fill:#ffffff;fill-opacity:1;fill-rule:nonzero;stroke:#000000;stroke-width:1.59404;stroke-linecap:butt;stroke-linejoin:miter;stroke-miterlimit:10;stroke-dasharray:none;stroke-opacity:1"
       transform="matrix(1.3333333,0,0,-1.3333333,14.346667,241.11867)" />
    <path
       id="path65"
       d="m 144.22473,85.04042 c 0,1.37558 -1.11511,2.49069 -2.49069,2.49069 -1.37558,0 -2.49069,-1.11511 -2.49069,-2.49069 0,-1.37558 1.11511,-2.49069 2.49069,-2.49069 1.37558,0 2.49069,1.11511 2.49069,2.49069 z"
       style="fill:#000000;fill-opacity:1;fill-rule:nonzero;stroke:#000000;stroke-width:0.3985;stroke-linecap:butt;stroke-linejoin:miter;stroke-miterlimit:10;stroke-dasharray:none;stroke-opacity:1"
       transform="matrix(1.3333333,0,0,-1.3333333,14.346667,241.11867)" />
    <path
       id="path66"
       d="M 0,11.33855 H 11.33855 V 0"
       style="fill:none;stroke:#000000;stroke-width:0.79701;stroke-linecap:butt;stroke-linejoin:miter;stroke-miterlimit:10;stroke-dasharray:none;stroke-opacity:1"
       transform="matrix(1.3333333,0,0,-1.3333333,14.346667,241.11867)" />
    <path
       id="path67"
       d="m 4.1131563,0.00107031 c -0.8144532,0 -1.40625,-0.16992187 -1.78125,-0.515625 -0.375,-0.3515625 -0.5625,-0.76171871 -0.5625,-1.23046871 0,-0.375 0.1171875,-0.7177735 0.3515625,-1.03125 0.2402343,-0.319336 0.6503906,-0.5625 1.2304687,-0.7265625 l 0.421875,1.1132812 c -0.2988281,0.064453 -0.5126953,0.1494141 -0.6445312,0.2578125 -0.1259766,0.1025391 -0.1875,0.2402344 -0.1875,0.4101563 0,0.196289 0.09668,0.3515625 0.2929687,0.46875 0.1933594,0.1171875 0.4833984,0.1757812 0.8671875,0.1757812 0.5917969,0 1.0488281,-0.140625 1.3710938,-0.421875 0.328125,-0.2871094 0.4921875,-0.65625 0.4921875,-1.1015625 0,-0.28125 -0.058594,-0.5332031 -0.1757813,-0.7617187 C 5.6776094,-3.5877969 5.4871797,-3.8221719 5.2147188,-4.0653359 4.9481172,-4.3143594 4.5819063,-4.6043984 4.1131563,-4.9325234 3.5184297,-5.3543984 3.0496797,-5.7059609 2.7069063,-5.9872109 2.3699922,-6.2743203 2.1326875,-6.5409219 1.9920625,-6.7840859 1.8572969,-7.0331094 1.7928438,-7.2997109 1.7928438,-7.5809609 c 0,-0.225586 0.061523,-0.46875 0.1875,-0.7265625 0.1318359,-0.2636719 0.3193359,-0.5097657 0.5625,-0.7382813 l 0.9375,0.4921875 c -0.1347657,0.1494141 -0.2431641,0.2988281 -0.328125,0.4453125 -0.087891,0.140625 -0.1289063,0.28125 -0.1289063,0.421875 0,0.1728516 0.038086,0.3339844 0.1171875,0.4804688 0.076172,0.149414 0.2460938,0.3339843 0.5039063,0.5507812 0.2636718,0.2109375 0.6679687,0.5039063 1.2070312,0.8789063 0.5537109,0.3691406 0.9902344,0.711914 1.3125,1.03125 0.328125,0.3134765 0.5566406,0.6386718 0.6914063,0.9726562 0.140625,0.328125 0.2109375,0.7148438 0.2109375,1.1601563 0,0.5390625 -0.1259766,1.0048828 -0.375,1.3945312 C 6.4393281,-0.82510156 6.093625,-0.52627344 5.6483125,-0.31533594 5.203,-0.10439844 4.6903047,0.00107031 4.1131563,0.00107031 Z M 12.653195,-1.2997109 c -0.603515,0 -1.142578,-0.1113282 -1.617187,-0.3398438 -0.46875,-0.234375 -0.84082,-0.5859375 -1.1132814,-1.0546875 -0.2666016,-0.4746094 -0.3984375,-1.0722656 -0.3984375,-1.7929687 0,-0.5625 0.1113281,-1.0927735 0.3398437,-1.59375 0.2343752,-0.506836 0.5917972,-0.9199219 1.0781252,-1.2421875 0.483398,-0.319336 1.101562,-0.4804688 1.851562,-0.4804688 0.773438,0 1.388672,0.1494141 1.851563,0.4453125 0.459961,0.2988281 0.791015,0.6884766 0.996094,1.171875 0.202148,0.4863281 0.304687,1.0166016 0.304687,1.59375 0,0.5712891 -0.117187,1.1074219 -0.351562,1.6054688 -0.228516,0.5009765 -0.583008,0.9082031 -1.066407,1.21875 -0.486328,0.3134765 -1.110351,0.46875 -1.875,0.46875 z m 0.152344,-5.484375 c -0.609375,0 -1.119141,0.2050781 -1.523437,0.609375 -0.398438,0.4072265 -0.597657,0.9785156 -0.597657,1.7109375 0,0.3984375 0.06152,0.7617187 0.1875,1.0898437 0.131836,0.3222656 0.342774,0.5800781 0.632813,0.7734375 0.295898,0.1875 0.682617,0.28125 1.160156,0.28125 0.647461,0 1.163086,-0.2109375 1.546875,-0.6328125 0.380859,-0.4277344 0.574219,-0.9960937 0.574219,-1.6992187 0,-0.65625 -0.164063,-1.1748047 -0.492188,-1.5585938 -0.328125,-0.3808594 -0.826172,-0.5742187 -1.488281,-0.5742187 z m 13.004883,-2.1328125 v 1.0195312 h -0.292969 c -0.298828,0.064453 -0.618164,0.2080078 -0.960937,0.4335938 -0.345703,0.2285156 -0.667969,0.5214843 -0.972657,0.8789062 -0.304687,0.3515625 -0.55664,0.7705078 -0.75,1.2539063 -0.196289,0.477539 -0.292968,1.0019531 -0.292968,1.5703125 0,0.6884765 0.09961,1.2363281 0.304687,1.640625 0.202149,0.4072265 0.457031,0.7001953 0.761719,0.8789062 0.310547,0.1728516 0.621094,0.25781251 0.925781,0.25781251 0.234375,0 0.433594,-0.0234375 0.597656,-0.0703125 0.164063,-0.052734 0.351563,-0.1435547 0.5625,-0.2695312 l 0.503907,0.87890622 c -0.251953,0.19628906 -0.524414,0.33398438 -0.820313,0.41015625 -0.298828,0.06738281 -0.597656,0.10546875 -0.902344,0.10546875 -0.603515,0 -1.133789,-0.15527344 -1.59375,-0.46875 -0.46289,-0.31933594 -0.826171,-0.76171872 -1.089843,-1.32421872 -0.257813,-0.5683594 -0.386719,-1.2363282 -0.386719,-2.0039063 0,-0.7324219 0.117187,-1.3886719 0.351562,-1.96875 0.234375,-0.5859375 0.539063,-1.0927734 0.914063,-1.5234375 0.380859,-0.4277344 0.791016,-0.7851562 1.230469,-1.0664062 0.436523,-0.28125 0.861328,-0.4921875 1.277343,-0.6328125 z m 9.779297,0 v 1.0195312 H 34.078 V 0.00107031 H 32.976438 V -4.5692422 c -0.210938,-0.2636719 -0.404297,-0.4628906 -0.574219,-0.5976562 -0.164063,-0.140625 -0.325196,-0.2109375 -0.480469,-0.2109375 -0.134766,0 -0.257812,0.041016 -0.375,0.1171875 -0.117187,0.079102 -0.251953,0.2285156 -0.398437,0.4453125 -0.140625,0.2109375 -0.328125,0.5361328 -0.5625,0.9726562 -0.257813,0.46875 -0.492188,0.8554688 -0.703125,1.1601563 -0.210938,0.2988281 -0.433594,0.515625 -0.667969,0.65625 -0.234375,0.140625 -0.521485,0.2109375 -0.855469,0.2109375 -0.383789,0 -0.74707,-0.1201172 -1.089844,-0.3632813 -0.345703,-0.2490234 -0.711914,-0.6914062 -1.101562,-1.3242187 l 0.878906,-0.5273438 c 0.257813,0.4628906 0.47168,0.7675781 0.644531,0.9140625 0.169922,0.140625 0.354492,0.2109375 0.550782,0.2109375 0.202148,0 0.398437,-0.082031 0.585937,-0.2460937 0.193359,-0.1699219 0.424805,-0.4833985 0.691406,-0.9375 -0.08789,-0.5917969 -0.18457,-1.0605469 -0.292968,-1.40625 -0.10254,-0.3515625 -0.266602,-0.6269532 -0.492188,-0.8320313 -0.243164,-0.2167969 -0.571289,-0.3808594 -0.984375,-0.4921875 -0.407227,-0.1083984 -0.919922,-0.2021484 -1.535156,-0.28125 l 0.152344,-0.796875 h -0.84375 v -1.0195312 z m -8.390625,1.0195312 c 0.726562,0.1025391 1.294922,0.2578125 1.710937,0.46875 0.413086,0.2109375 0.714844,0.5009766 0.902344,0.8671875 0.193359,0.3603516 0.319336,0.8320313 0.375,1.4179688 0.234375,-0.4921875 0.462891,-0.8320313 0.691406,-1.0195313 0.225586,-0.1875 0.47168,-0.28125 0.738282,-0.28125 0.257812,0 0.492187,0.064453 0.703125,0.1875 0.216796,0.1259766 0.451171,0.3105469 0.703125,0.5507813 -0.02344,-0.1464844 -0.04102,-0.2929688 -0.04687,-0.4335938 0,-0.140625 0,-0.2841797 0,-0.4335937 v -1.3242188 z m 9.28125,7.12500001 c 0,-0.35156251 0.08496,-0.59765621 0.257812,-0.73828121 0.169922,-0.1464844 0.37793,-0.2226563 0.621094,-0.2226563 0.249023,0 0.459961,0.076172 0.632813,0.2226563 0.17871,0.140625 0.269531,0.3867187 0.269531,0.73828121 0,0.34570313 -0.09082,0.59472656 -0.269531,0.75 -0.172852,0.14648438 -0.38379,0.22265625 -0.632813,0.22265625 -0.243164,0 -0.451172,-0.0761719 -0.621094,-0.22265625 -0.172851,-0.15527344 -0.257812,-0.40429687 -0.257812,-0.75 z m 6.773437,-8.14453121 v 1.0195312 H 41.742063 V 0.00107031 H 40.6405 V -7.8973672 h -1.488281 v -1.0195312 h 1.3125 c -0.149414,-0.1875 -0.304688,-0.3779297 -0.46875,-0.5742188 -0.158203,-0.2021484 -0.298828,-0.4042969 -0.421875,-0.6093748 0.328125,-0.5625 0.679687,-1.072266 1.054687,-1.535156 0.375,-0.46875 0.811524,-0.834961 1.3125,-1.101563 0.506836,-0.272461 1.119141,-0.410156 1.839844,-0.410156 0.679688,0 1.318359,0.111328 1.921875,0.328125 0.600586,0.219726 1.201172,0.527344 1.804688,0.925781 0.600585,0.392578 1.233398,0.861328 1.898437,1.40625 l -0.597656,0.7734376 C 48.14343,-10.244047 47.545773,-10.68643 47.0155,-11.037992 c -0.533203,-0.357422 -1.040039,-0.624024 -1.523437,-0.796875 -0.47754,-0.178711 -0.990235,-0.269531 -1.535157,-0.269531 -0.796875,0 -1.435547,0.205078 -1.910156,0.609375 -0.477539,0.398437 -0.887695,0.919921 -1.230469,1.5585933 0.07617,0.140625 0.181641,0.2988281 0.316407,0.46875 0.131835,0.1728516 0.284179,0.3574219 0.457031,0.5507813 z m 8.926758,0 v 1.0195312 H 50.66882 V 0.00107031 H 49.567258 V -1.5575234 c -0.304688,-0.4511719 -0.618164,-0.8613282 -0.9375,-1.2304688 -0.313477,-0.375 -0.644531,-0.6738281 -0.996094,-0.9023437 -0.351562,-0.225586 -0.732422,-0.3398438 -1.136719,-0.3398438 -0.351562,0 -0.65332,0.09375 -0.902343,0.28125 -0.243164,0.1816406 -0.363282,0.4511719 -0.363282,0.8085938 0,0.3134765 0.111328,0.5800781 0.339844,0.796875 0.234375,0.2197265 0.574219,0.4042968 1.019531,0.5507812 l -0.351562,1.10156251 c -0.773438,-0.27246094 -1.333008,-0.62402341 -1.675781,-1.05468751 -0.336914,-0.4365234 -0.503907,-0.9169922 -0.503907,-1.4414062 0,-0.4511719 0.108399,-0.8320313 0.328125,-1.1367188 0.225586,-0.3105469 0.506836,-0.5449219 0.84375,-0.703125 0.333985,-0.1552734 0.670899,-0.234375 1.007813,-0.234375 -0.0791,-0.6621094 -0.313477,-1.1425781 -0.703125,-1.4414062 -0.383789,-0.3046875 -1.007813,-0.4980469 -1.875,-0.5859375 l 0.140625,-0.8085938 h -0.832031 v -1.0195312 z m -2.613281,1.0195312 h -4.792969 c 0.796875,0.1025391 1.420899,0.3955078 1.875,0.8789063 0.451172,0.4863281 0.703125,1.1894531 0.75,2.109375 0.46875,0.149414 0.878906,0.383789 1.230469,0.703125 0.357422,0.3134765 0.679687,0.6679687 0.960937,1.0664062 -0.0088,-0.140625 -0.01758,-0.2841797 -0.02344,-0.4335937 0,-0.1464844 0,-0.2988282 0,-0.4570313 z m 3.498047,7.12500001 c 0,-0.35156251 0.08496,-0.59765621 0.257812,-0.73828121 0.169922,-0.1464844 0.37793,-0.2226563 0.621094,-0.2226563 0.249023,0 0.459961,0.076172 0.632812,0.2226563 0.178711,0.140625 0.269532,0.3867187 0.269532,0.73828121 0,0.34570313 -0.09082,0.59472656 -0.269532,0.75 -0.172851,0.14648438 -0.383789,0.22265625 -0.632812,0.22265625 -0.243164,0 -0.451172,-0.0761719 -0.621094,-0.22265625 -0.172851,-0.15527344 -0.257812,-0.40429687 -0.257812,-0.75 z m 0,0"
       style="fill:#000000;fill-opacity:1;fill-rule:nonzero;stroke:none"
       aria-label="১০েস.িম."
       transform="matrix(1.3333333,0,0,1.3333333,166.06267,269.99467)" />
    <path
       id="path68"
       d="m 4.9790078,-0.56310938 c -0.5009765,0 -0.9785156,-0.0878906 -1.4296875,-0.26953125 C 3.1040078,-1.0201406 2.6850625,-1.3365469 2.2954141,-1.7818594 1.9028359,-2.2271719 1.5395547,-2.8306875 1.2055703,-3.5982656 0.86865625,-4.3629141 0.56689844,-5.3238516 0.30322656,-6.4810781 l 1.07812504,-0.328125 c 0.2636718,1.2509765 0.5625,2.258789 0.890625,3.0234375 0.3339843,0.758789 0.7177734,1.3066406 1.1484375,1.640625 0.4365234,0.328125 0.9316406,0.4921875 1.4882812,0.4921875 0.6152344,0 1.1044922,-0.1816407 1.4648438,-0.5507813 0.3662109,-0.375 0.5507812,-0.9375 0.5507812,-1.6875 0,-0.2167969 -0.020508,-0.421875 -0.058594,-0.609375 -0.041016,-0.1875 -0.087891,-0.3515625 -0.140625,-0.4921875 -0.46875,0.8671875 -1.0869141,1.3007813 -1.8515625,1.3007813 -0.421875,0 -0.7587891,-0.1171875 -1.0078125,-0.3515625 -0.140625,-0.131836 -0.2578125,-0.319336 -0.3515625,-0.5625 -0.09375,-0.2402344 -0.140625,-0.6210938 -0.140625,-1.1367188 v -0.7265625 c 0,-0.3515625 -0.064453,-0.5917969 -0.1875,-0.7265625 C 3.0688513,-7.3365469 2.79932,-7.4097891 2.377445,-7.4185781 l 0.1289063,-1.0898438 c 0.7734375,0.032227 1.3037109,0.1933594 1.59375,0.4804688 0.1318359,0.140625 0.2255859,0.3164062 0.28125,0.5273437 0.061523,0.2109375 0.09375,0.4570313 0.09375,0.7382813 v 1.3242187 c 0,0.2431641 0.035156,0.4277344 0.1054687,0.5507813 0.076172,0.1259765 0.2138672,0.1875 0.4101563,0.1875 0.2255859,0 0.4482422,-0.099609 0.6679687,-0.3046875 0.225586,-0.2109375 0.4570313,-0.6357422 0.6914063,-1.2773438 L 7.158695,-6.4810781 c 0.2636719,0.3515625 0.4716797,0.7734375 0.6210938,1.265625 0.1552734,0.4863281 0.234375,0.9433593 0.234375,1.3710937 0,0.6269531 -0.1113282,1.1894531 -0.328125,1.6875 -0.2109375,0.4921875 -0.5449219,0.8847656 -0.9960938,1.17187502 -0.4453125,0.28125 -1.0166015,0.421875 -1.7109372,0.421875 z M 17.318852,-8.9185781 v 1.0195312 h -0.292969 c -0.298828,0.064453 -0.618164,0.2080078 -0.960938,0.4335938 -0.345703,0.2285156 -0.667968,0.5214843 -0.972656,0.8789062 -0.304687,0.3515625 -0.556641,0.7705078 -0.75,1.2539063 -0.196289,0.477539 -0.292969,1.0019531 -0.292969,1.5703125 0,0.6884765 0.09961,1.2363281 0.304688,1.640625 0.202148,0.4072265 0.457031,0.7001953 0.761719,0.8789062 0.310546,0.1728516 0.621093,0.25781252 0.925781,0.25781252 0.234375,0 0.433594,-0.0234375 0.597656,-0.0703125 0.164063,-0.052734 0.351563,-0.1435547 0.5625,-0.2695312 l 0.503906,0.87890624 c -0.251953,0.19628907 -0.524414,0.33398438 -0.820312,0.41015625 -0.298828,0.06738282 -0.597656,0.10546875 -0.902344,0.10546875 -0.603516,0 -1.133789,-0.15527343 -1.59375,-0.46875 -0.462891,-0.31933593 -0.826172,-0.76171874 -1.089844,-1.32421874 -0.257812,-0.5683594 -0.386718,-1.2363282 -0.386718,-2.0039063 0,-0.7324219 0.117187,-1.3886719 0.351562,-1.96875 0.234375,-0.5859375 0.539063,-1.0927734 0.914063,-1.5234375 0.380859,-0.4277344 0.791015,-0.7851562 1.230468,-1.0664062 0.436524,-0.28125 0.861328,-0.4921875 1.277344,-0.6328125 z m 9.779296,0 v 1.0195312 H 25.58643 V -6.09375e-4 H 24.484867 V -4.5709219 c -0.210937,-0.2636719 -0.404297,-0.4628906 -0.574219,-0.5976562 -0.164062,-0.140625 -0.325195,-0.2109375 -0.480468,-0.2109375 -0.134766,0 -0.257813,0.041016 -0.375,0.1171875 -0.117188,0.079102 -0.251953,0.2285156 -0.398438,0.4453125 -0.140625,0.2109375 -0.328125,0.5361328 -0.5625,0.9726562 -0.257812,0.46875 -0.492187,0.8554688 -0.703125,1.1601563 -0.210937,0.2988281 -0.433594,0.515625 -0.667969,0.65625 -0.234375,0.140625 -0.521484,0.2109375 -0.855468,0.2109375 -0.383789,0 -0.747071,-0.1201172 -1.089844,-0.3632813 -0.345703,-0.2490234 -0.711914,-0.6914062 -1.101563,-1.3242187 l 0.878907,-0.5273438 c 0.257812,0.4628906 0.471679,0.7675781 0.644531,0.9140625 0.169922,0.140625 0.354492,0.2109375 0.550781,0.2109375 0.202149,0 0.398438,-0.082031 0.585938,-0.2460937 0.193359,-0.1699219 0.424804,-0.4833985 0.691406,-0.9375 -0.08789,-0.5917969 -0.18457,-1.0605469 -0.292969,-1.40625 -0.102539,-0.3515625 -0.266601,-0.6269532 -0.492187,-0.8320313 -0.243164,-0.2167969 -0.571289,-0.3808594 -0.984375,-0.4921875 -0.407227,-0.1083984 -0.919922,-0.2021484 -1.535157,-0.28125 l 0.152344,-0.796875 h -0.84375 v -1.0195312 z m -8.390625,1.0195312 c 0.726563,0.1025391 1.294922,0.2578125 1.710938,0.46875 0.413086,0.2109375 0.714844,0.5009766 0.902344,0.8671875 0.193359,0.3603516 0.319336,0.8320313 0.375,1.4179688 0.234375,-0.4921875 0.46289,-0.8320313 0.691406,-1.0195313 0.225586,-0.1875 0.47168,-0.28125 0.738281,-0.28125 0.257813,0 0.492188,0.064453 0.703125,0.1875 0.216797,0.1259766 0.451172,0.3105469 0.703125,0.5507813 -0.02344,-0.1464844 -0.04102,-0.2929688 -0.04687,-0.4335938 0,-0.140625 0,-0.2841797 0,-0.4335937 v -1.3242188 z m 9.28125,7.12500002 c 0,-0.35156252 0.08496,-0.59765622 0.257813,-0.73828122 0.169922,-0.1464844 0.37793,-0.2226563 0.621094,-0.2226563 0.249023,0 0.459961,0.076172 0.632812,0.2226563 0.178711,0.140625 0.269531,0.3867187 0.269531,0.73828122 0,0.34570313 -0.09082,0.59472657 -0.269531,0.75 -0.172851,0.14648438 -0.383789,0.22265625 -0.632812,0.22265625 -0.243164,0 -0.451172,-0.0761719 -0.621094,-0.22265625 -0.172852,-0.15527343 -0.257813,-0.40429687 -0.257813,-0.75 z m 6.773438,-8.14453122 v 1.0195312 H 33.250492 V -6.09375e-4 H 32.14893 V -7.8990469 h -1.488282 v -1.0195312 h 1.3125 c -0.149414,-0.1875 -0.304687,-0.3779297 -0.46875,-0.5742188 -0.158203,-0.2021484 -0.298828,-0.4042969 -0.421875,-0.6093751 0.328125,-0.5625 0.679688,-1.072266 1.054688,-1.535156 0.375,-0.46875 0.811523,-0.834961 1.3125,-1.101563 0.506836,-0.272461 1.119141,-0.410156 1.839844,-0.410156 0.679687,0 1.318359,0.111328 1.921875,0.328125 0.600586,0.219727 1.201172,0.527344 1.804687,0.925781 0.600586,0.392578 1.233399,0.861328 1.898438,1.40625 l -0.597657,0.7734379 c -0.665039,-0.5302739 -1.262695,-0.9726559 -1.792968,-1.3242189 -0.533203,-0.357422 -1.040039,-0.624023 -1.523438,-0.796875 -0.477539,-0.178711 -0.990234,-0.269531 -1.535156,-0.269531 -0.796875,0 -1.435547,0.205078 -1.910156,0.609375 -0.477539,0.398437 -0.887696,0.919922 -1.230469,1.5585936 0.07617,0.140625 0.181641,0.2988281 0.316406,0.46875 0.131836,0.1728516 0.28418,0.3574219 0.457031,0.5507813 z m 8.926758,0 v 1.0195312 H 42.17725 V -6.09375e-4 H 41.075688 V -1.5592031 c -0.304688,-0.4511719 -0.618165,-0.8613282 -0.9375,-1.2304688 -0.313477,-0.375 -0.644532,-0.6738281 -0.996094,-0.9023437 -0.351563,-0.225586 -0.732422,-0.3398438 -1.136719,-0.3398438 -0.351562,0 -0.65332,0.09375 -0.902344,0.28125 -0.243164,0.1816406 -0.363281,0.4511719 -0.363281,0.8085938 0,0.3134765 0.111328,0.5800781 0.339844,0.796875 0.234375,0.2197265 0.574219,0.4042968 1.019531,0.5507812 l -0.351562,1.10156252 c -0.773438,-0.27246093 -1.333008,-0.62402342 -1.675782,-1.05468752 -0.336914,-0.4365234 -0.503906,-0.9169922 -0.503906,-1.4414062 0,-0.4511719 0.108398,-0.8320313 0.328125,-1.1367188 0.225586,-0.3105469 0.506836,-0.5449219 0.84375,-0.703125 0.333984,-0.1552734 0.670898,-0.234375 1.007813,-0.234375 -0.0791,-0.6621094 -0.313477,-1.1425781 -0.703125,-1.4414062 -0.38379,-0.3046875 -1.007813,-0.4980469 -1.875,-0.5859375 l 0.140625,-0.8085938 h -0.832032 v -1.0195312 z m -2.613281,1.0195312 h -4.792969 c 0.796875,0.1025391 1.420898,0.3955078 1.875,0.8789063 0.451172,0.4863281 0.703125,1.1894531 0.75,2.109375 0.46875,0.149414 0.878906,0.383789 1.230469,0.703125 0.357421,0.3134765 0.679687,0.6679687 0.960937,1.0664062 -0.0088,-0.140625 -0.01758,-0.2841797 -0.02344,-0.4335937 0,-0.1464844 0,-0.2988282 0,-0.4570313 z m 3.495117,7.12500002 c 0,-0.35156252 0.08496,-0.59765622 0.257812,-0.73828122 0.169922,-0.1464844 0.37793,-0.2226563 0.621094,-0.2226563 0.249023,0 0.459961,0.076172 0.632812,0.2226563 0.178711,0.140625 0.269532,0.3867187 0.269532,0.73828122 0,0.34570313 -0.09082,0.59472657 -0.269532,0.75 -0.172851,0.14648438 -0.383789,0.22265625 -0.632812,0.22265625 -0.243164,0 -0.451172,-0.0761719 -0.621094,-0.22265625 -0.172851,-0.15527343 -0.257812,-0.40429687 -0.257812,-0.75 z m 0,0"
       style="fill:#000000;fill-opacity:1;fill-rule:nonzero;stroke:none"
       aria-label="৬েস.িম."
       transform="matrix(1.3333333,0,0,1.3333333,403.63867,136.368)" />
  </g>
</svg>
