<?xml version="1.0" encoding="UTF-8" standalone="no"?>
<!-- Created with Inkscape (http://www.inkscape.org/) -->

<svg
   version="1.1"
   id="svg1"
   width="314.98666"
   height="62.693333"
   viewBox="0 0 314.98666 62.693333"
   sodipodi:docname="upload_si3y33tdhow5ctohxy2uthygsp.pdf"
   xmlns:inkscape="http://www.inkscape.org/namespaces/inkscape"
   xmlns:sodipodi="http://sodipodi.sourceforge.net/DTD/sodipodi-0.dtd"
   xmlns="http://www.w3.org/2000/svg"
   xmlns:svg="http://www.w3.org/2000/svg">
  <defs
     id="defs1" />
  <sodipodi:namedview
     id="namedview1"
     pagecolor="#ffffff"
     bordercolor="#000000"
     borderopacity="0.25"
     inkscape:showpageshadow="2"
     inkscape:pageopacity="0.0"
     inkscape:pagecheckerboard="0"
     inkscape:deskcolor="#d1d1d1">
    <inkscape:page
       x="0"
       y="0"
       inkscape:label="1"
       id="page1"
       width="314.98666"
       height="62.693333"
       margin="0"
       bleed="0" />
  </sodipodi:namedview>
  <g
     id="g1"
     inkscape:groupmode="layer"
     inkscape:label="1">
    <path
       id="path1"
       d="m -64.428,66.819 h 223.69"
       style="fill:none;stroke:#000000;stroke-width:0.3985;stroke-linecap:butt;stroke-linejoin:miter;stroke-miterlimit:10;stroke-dasharray:none;stroke-opacity:1"
       transform="matrix(1.3333333,0,0,-1.3333333,96,95.994667)" />
    <path
       id="path2"
       d="M -64.428,48.687 V 66.62"
       style="fill:none;stroke:#000000;stroke-width:0.3985;stroke-linecap:butt;stroke-linejoin:miter;stroke-miterlimit:10;stroke-dasharray:none;stroke-opacity:1"
       transform="matrix(1.3333333,0,0,-1.3333333,96,95.994667)" />
    <path
       id="path3"
       d="m 3.5495547,-6.1985312 v 0.7148437 H 3.3503359 C 3.1393984,-5.4368125 2.9108828,-5.3342734 2.6706484,-5.179 c -0.234375,0.1582031 -0.4570312,0.3603516 -0.6679687,0.609375 -0.2109375,0.2431641 -0.3867188,0.5332031 -0.5273438,0.8671875 -0.1347656,0.328125 -0.1992187,0.6914063 -0.1992187,1.0898438 0,0.477539 0.070312,0.8613281 0.2109375,1.1484375 0.140625,0.28125 0.3164062,0.4804687 0.5273437,0.5976562 0.2167969,0.1171875 0.4335938,0.17578125 0.6445313,0.17578125 0.1640625,0 0.2988281,-0.0146484 0.4101562,-0.046875 0.1171875,-0.0292969 0.2490235,-0.0878906 0.3984375,-0.17578125 L 3.8190859,-0.304 C 3.6374453,-0.16923437 3.4470156,-0.07548437 3.2448672,-0.02275 3.0397891,0.02119531 2.8347109,0.0475625 2.6237734,0.0475625 c -0.421875,0 -0.7939453,-0.10839844 -1.1132812,-0.328125 C 1.1882266,-0.49735937 0.93920312,-0.80204687 0.76049219,-1.194625 0.57885156,-1.5930625 0.49096094,-2.0559531 0.49096094,-2.5891562 c 0,-0.506836 0.0761719,-0.9609375 0.234375,-1.359375 0.1640625,-0.4042969 0.37499996,-0.7558594 0.63281246,-1.0546875 0.2636719,-0.3046875 0.5507813,-0.553711 0.8554688,-0.75 0.3105469,-0.1933594 0.609375,-0.3427735 0.890625,-0.4453125 z M 9.3884219,0.43428125 H 8.6618594 c -0.1875,-0.57714844 -0.5800782,-0.8671875 -1.171875,-0.8671875 -0.2666016,0 -0.5449219,0.0322266 -0.8320313,0.09375 -0.290039,0.0556641 -0.5976562,0.0820313 -0.9257812,0.0820313 -0.2753907,0 -0.5507813,-0.0410156 -0.8320313,-0.12890625 C 4.62475,-0.47978125 4.3991641,-0.63798437 4.2204531,-0.8665 4.0388125,-1.0920859 3.9509219,-1.4084922 3.9509219,-1.8157187 c 0,-0.09375 0.00293,-0.1875 0.011719,-0.28125 0.014649,-0.099609 0.029297,-0.1933594 0.046875,-0.28125 l 0.7734375,0.082031 c -0.017578,0.055664 -0.032227,0.1259766 -0.046875,0.2109375 -0.00879,0.079102 -0.011719,0.1640625 -0.011719,0.2578125 0,0.3222656 0.09375,0.5449219 0.28125,0.6679688 0.1933593,0.1259765 0.4335937,0.18749995 0.7148437,0.18749995 0.3105469,0 0.5800781,-0.0263672 0.8085938,-0.0820312 0.234375,-0.061523 0.4980468,-0.09375 0.796875,-0.09375 0.2578125,0 0.4980468,0.043945 0.7265625,0.1289063 0.2255859,0.0791015 0.4160156,0.21679678 0.5742187,0.41015615 V -4.52275 c -0.196289,-0.328125 -0.4101562,-0.5771484 -0.6445312,-0.75 -0.234375,-0.1787109 -0.4921875,-0.2695312 -0.7734375,-0.2695312 -0.2578125,0 -0.46875,0.076172 -0.6328125,0.2226562 -0.1582032,0.140625 -0.234375,0.3515625 -0.234375,0.6328125 0,0.2666016 0.1083984,0.4863281 0.328125,0.65625 0.2167968,0.1640625 0.5654297,0.2578125 1.0429687,0.28125 l -0.070312,0.7617188 C 7.1735781,-3.0110312 6.7927187,-3.1077109 6.5056094,-3.2805625 6.2155703,-3.4592734 6.0075625,-3.6848594 5.8845156,-3.96025 5.7673281,-3.6848594 5.56225,-3.4563437 5.2751406,-3.2688437 c -0.28125,0.1875 -0.6621094,0.28125 -1.1367187,0.28125 l -0.058594,-0.7617188 c 0.3339844,-0.00586 0.5976563,-0.052734 0.7851563,-0.140625 0.1933593,-0.09375 0.3310547,-0.2109375 0.4101562,-0.3515625 0.084961,-0.140625 0.1289063,-0.28125 0.1289063,-0.421875 0,-0.2724609 -0.09082,-0.4863281 -0.2695313,-0.6445312 -0.1728515,-0.1552735 -0.4335937,-0.234375 -0.7851562,-0.234375 -0.1582032,0 -0.3017578,0.011719 -0.4335938,0.035156 -0.1259765,0.017578 -0.2636719,0.043945 -0.4101562,0.082031 l -0.082031,-0.75 c 0.2958985,-0.061524 0.609375,-0.09375 0.9375,-0.09375 0.3046875,0 0.5917969,0.070312 0.8671875,0.2109375 0.28125,0.140625 0.4863281,0.3632812 0.6210938,0.6679687 0.1171875,-0.2958984 0.2958984,-0.515625 0.5390625,-0.65625 0.2490234,-0.1464844 0.5185547,-0.2226562 0.8085937,-0.2226562 0.2958985,0 0.5683594,0.067383 0.8203125,0.1992187 0.2490235,0.1347656 0.459961,0.3164063 0.6328125,0.5507813 -0.00879,-0.076172 -0.017578,-0.1582032 -0.023437,-0.2460938 0,-0.084961 0,-0.1787109 0,-0.28125 v -0.8085937 h 0.5273438 l 0.234375,0.65625 H 10.44311 V -5.483688 H 9.3884219 Z M 13.094477,-6.1985312 v 0.7148437 H 12.039789 V 6.875e-4 H 11.27807 v -5.484375 h -1.042968 v -0.7148437 h 0.925781 c -0.111328,-0.1230469 -0.219727,-0.2578125 -0.328125,-0.3984375 -0.111328,-0.140625 -0.208008,-0.2753907 -0.292969,-0.4101563 0.225586,-0.3984375 0.46875,-0.7558594 0.726563,-1.078125 0.257812,-0.3193359 0.5625,-0.5742187 0.914062,-0.7617187 0.351563,-0.1875 0.776367,-0.28125 1.277344,-0.28125 0.46875,0 0.914062,0.079102 1.335937,0.234375 0.421875,0.149414 0.837891,0.3603515 1.253907,0.6328125 0.421875,0.2753906 0.858398,0.6035156 1.3125,0.984375 l -0.410157,0.5390625 c -0.46289,-0.375 -0.875976,-0.6826172 -1.242187,-0.9257813 -0.369141,-0.2490234 -0.720703,-0.4335937 -1.054688,-0.5507812 -0.336914,-0.1230469 -0.697265,-0.1875 -1.078125,-0.1875 -0.547851,0 -0.990234,0.140625 -1.324218,0.421875 -0.328125,0.2753906 -0.615235,0.6328125 -0.855469,1.078125 0.05273,0.102539 0.128906,0.2109375 0.222656,0.328125 0.09375,0.1171875 0.199219,0.243164 0.316406,0.375 z m 6.17871,0 v 0.7148437 H 18.2185 v 5.484375 h -0.761719 v -3.890625 c -0.416015,-0.5683594 -0.802734,-0.9873047 -1.160156,-1.2539062 -0.360352,-0.2636719 -0.723633,-0.3984375 -1.089844,-0.3984375 -0.313476,0 -0.55957,0.09082 -0.738281,0.2695312 -0.172852,0.1728516 -0.257813,0.3925781 -0.257813,0.65625 0,0.328125 0.117188,0.5800781 0.351563,0.75 0.234375,0.1640625 0.624023,0.2753906 1.171875,0.328125 l -0.05859,0.8320313 c -0.439453,-0.038086 -0.829101,-0.131836 -1.171875,-0.28125 -0.345703,-0.1552735 -0.618164,-0.366211 -0.820312,-0.6328125 -0.196289,-0.2636719 -0.292969,-0.5917969 -0.292969,-0.984375 0,-0.3574219 0.07617,-0.6591797 0.234375,-0.9023438 0.164062,-0.2490234 0.375,-0.4365234 0.632812,-0.5625 0.257813,-0.1318359 0.533204,-0.1992187 0.832032,-0.1992187 0.483398,0 0.908203,0.1171875 1.277343,0.3515625 0.366211,0.2285156 0.741211,0.5595703 1.125,0.9960937 -0.0088,-0.1171875 -0.01758,-0.2490234 -0.02344,-0.3984375 -0.0088,-0.1464844 -0.01172,-0.2871094 -0.01172,-0.421875 v -1.1132812 h 0.527344 l 0.222656,0.65625 z m 0,0"
       style="fill:#000000;fill-opacity:1;fill-rule:nonzero;stroke:none"
       aria-label="েিণ"
       transform="matrix(1.3333333,0,0,1.3333333,28.958667,23.905333)" />
    <path
       id="path4"
       d="M -16.966,48.687 V 66.62"
       style="fill:none;stroke:#000000;stroke-width:0.3985;stroke-linecap:butt;stroke-linejoin:miter;stroke-miterlimit:10;stroke-dasharray:none;stroke-opacity:1"
       transform="matrix(1.3333333,0,0,-1.3333333,96,95.994667)" />
    <g
       id="g4"
       aria-label="10−14"
       transform="matrix(1.3333333,0,0,1.3333333,81.348,23.905333)">
      <path
         id="path5"
         d="m 2.9294297,-6.3743125 c 0,-0.234375 0,-0.2578125 -0.234375,-0.2578125 -0.609375,0.6328125 -1.4882813,0.6328125 -1.80468751,0.6328125 v 0.3164063 c 0.19921871,0 0.78515621,0 1.30078121,-0.2578125 v 5.15624995 c 0,0.3515625 -0.035156,0.48046875 -0.9257812,0.48046875 H 0.94896094 V 6.875e-4 C 1.3005234,-0.03446875 2.1559922,-0.03446875 2.5544297,-0.03446875 c 0.3984375,0 1.265625,0 1.6171875,0.03515625 V -0.304 H 3.8552109 c -0.9023437,0 -0.9257812,-0.1171875 -0.9257812,-0.48046875 z m 6.6328125,3.1875 c 0,-0.796875 -0.046875,-1.59375 -0.3984375,-2.3320312 -0.4570313,-0.9609375 -1.2773438,-1.1132813 -1.6875,-1.1132813 -0.5976563,0 -1.3359375,0.2578125 -1.734375,1.1835938 -0.328125,0.6914062 -0.375,1.4648437 -0.375,2.2617187 0,0.75 0.046875,1.640625 0.4453125,2.40234375 0.4335937,0.80859375 1.1601562,1.0078125 1.6523437,1.0078125 0.5390625,0 1.2890625,-0.2109375 1.734375,-1.16015625 0.3164063,-0.6914062 0.3632813,-1.4648437 0.3632813,-2.25 z m -2.0976563,3.1875 c -0.3867187,0 -0.984375,-0.24609375 -1.1601562,-1.2070312 C 6.1989609,-1.804 6.1989609,-2.7180625 6.1989609,-3.304 c 0,-0.6445312 0,-1.3007812 0.082031,-1.8398437 0.1875,-1.1835938 0.9257812,-1.265625 1.1835937,-1.265625 0.328125,0 0.984375,0.1757812 1.171875,1.1601562 0.09375,0.5625 0.09375,1.3125 0.09375,1.9453125 0,0.75 0,1.4179688 -0.1054687,2.0625 C 8.4723984,-0.304 7.9098984,6.875e-4 7.4645859,6.875e-4 Z m 0,0"
         style="fill:#000000;fill-opacity:1;fill-rule:nonzero;stroke:none" />
      <path
         id="path6"
         d="m 18.740953,-2.2961875 c 0.175781,0 0.351563,0 0.351563,-0.1992187 0,-0.1992188 -0.175782,-0.1992188 -0.351563,-0.1992188 h -5.390625 c -0.164062,0 -0.339844,0 -0.339844,0.1992188 0,0.1992187 0.175782,0.1992187 0.339844,0.1992187 z m 0,0"
         style="fill:#000000;fill-opacity:1;fill-rule:nonzero;stroke:none" />
      <path
         id="path7"
         d="m 25.069078,-6.3743125 c 0,-0.234375 0,-0.2578125 -0.234375,-0.2578125 -0.609375,0.6328125 -1.488281,0.6328125 -1.804687,0.6328125 v 0.3164063 c 0.199218,0 0.785156,0 1.300781,-0.2578125 v 5.15624995 c 0,0.3515625 -0.03516,0.48046875 -0.925781,0.48046875 H 23.088609 V 6.875e-4 c 0.351563,-0.03515625 1.207032,-0.03515625 1.605469,-0.03515625 0.398438,0 1.265625,0 1.617188,0.03515625 V -0.304 h -0.316407 c -0.902343,0 -0.925781,-0.1171875 -0.925781,-0.48046875 z m 4.980469,4.734375 V -0.77275 c 0,0.3515625 -0.02344,0.46875 -0.761719,0.46875 H 29.076891 V 6.875e-4 c 0.410156,-0.03515625 0.9375,-0.03515625 1.347656,-0.03515625 0.421875,0 0.949219,0 1.359375,0.03515625 V -0.304 h -0.210938 c -0.738281,0 -0.761718,-0.1171875 -0.761718,-0.46875 v -0.8671875 h 0.996093 v -0.3164062 h -0.996093 v -4.5234375 c 0,-0.1992188 0,-0.2578125 -0.152344,-0.2578125 -0.09375,0 -0.117188,0 -0.199219,0.1171875 l -3.058594,4.6640625 v 0.3164062 z m 0.05859,-0.3164062 h -2.425782 l 2.425782,-3.7148438 z m 0,0"
         style="fill:#000000;fill-opacity:1;fill-rule:nonzero;stroke:none" />
    </g>
    <path
       id="path8"
       d="M 27.091,48.687 V 66.62"
       style="fill:none;stroke:#000000;stroke-width:0.3985;stroke-linecap:butt;stroke-linejoin:miter;stroke-miterlimit:10;stroke-dasharray:none;stroke-opacity:1"
       transform="matrix(1.3333333,0,0,-1.3333333,96,95.994667)" />
    <g
       id="g8"
       aria-label="15−19"
       transform="matrix(1.3333333,0,0,1.3333333,140.09067,23.905333)">
      <path
         id="path9"
         d="m 2.9290703,-6.3743125 c 0,-0.234375 0,-0.2578125 -0.234375,-0.2578125 -0.609375,0.6328125 -1.4882812,0.6328125 -1.80468749,0.6328125 v 0.3164063 c 0.19921879,0 0.78515629,0 1.30078129,-0.2578125 v 5.15624995 c 0,0.3515625 -0.035156,0.48046875 -0.9257813,0.48046875 H 0.94860156 V 6.875e-4 C 1.3001641,-0.03446875 2.1556328,-0.03446875 2.5540703,-0.03446875 c 0.3984375,0 1.265625,0 1.6171875,0.03515625 V -0.304 H 3.8548516 c -0.9023438,0 -0.9257813,-0.1171875 -0.9257813,-0.48046875 z m 6.5273438,4.3710938 c 0,-1.1835938 -0.8203125,-2.1796875 -1.8984375,-2.1796875 -0.4804688,0 -0.9023438,0.1640625 -1.265625,0.5039062 v -1.9335937 c 0.1992187,0.058594 0.5273437,0.1289062 0.84375,0.1289062 1.2304687,0 1.9335937,-0.9140625 1.9335937,-1.0429687 0,-0.058594 -0.035156,-0.1054688 -0.1054687,-0.1054688 -0.011719,0 -0.035156,0 -0.082031,0.023437 -0.1992187,0.09375 -0.6796875,0.2929688 -1.3476562,0.2929688 -0.3984375,0 -0.8554688,-0.070312 -1.3242188,-0.28125 -0.082031,-0.023437 -0.1054687,-0.023437 -0.1289062,-0.023437 -0.09375,0 -0.09375,0.082031 -0.09375,0.234375 v 2.953125 c 0,0.1757812 0,0.2578125 0.140625,0.2578125 0.070312,0 0.082031,-0.035156 0.1289062,-0.09375 0.1054688,-0.1523438 0.4804688,-0.6914063 1.2773438,-0.6914063 0.5273437,0 0.7734375,0.4570313 0.8554687,0.6328125 0.1523438,0.375 0.1757813,0.7617188 0.1757813,1.2539063 0,0.3515625 0,0.9492187 -0.234375,1.3710937 -0.2460938,0.38671875 -0.609375,0.64453125 -1.0664063,0.64453125 -0.7265625,0 -1.3007812,-0.52734375 -1.4648437,-1.11328125 0.023437,0.011719 0.058594,0.011719 0.1640625,0.011719 0.328125,0 0.5039062,-0.2460938 0.5039062,-0.4804688 0,-0.2460937 -0.1757812,-0.4921875 -0.5039062,-0.4921875 -0.140625,0 -0.4804688,0.070312 -0.4804688,0.5273438 0,0.8554687 0.6796875,1.82812495 1.7929688,1.82812495 1.1601562,0 2.1796875,-0.9609375 2.1796872,-2.22656265 z m 0,0"
         style="fill:#000000;fill-opacity:1;fill-rule:nonzero;stroke:none" />
      <path
         id="path10"
         d="m 18.740594,-2.2961875 c 0.175781,0 0.351562,0 0.351562,-0.1992187 0,-0.1992188 -0.175781,-0.1992188 -0.351562,-0.1992188 h -5.390625 c -0.164063,0 -0.339844,0 -0.339844,0.1992188 0,0.1992187 0.175781,0.1992187 0.339844,0.1992187 z m 0,0"
         style="fill:#000000;fill-opacity:1;fill-rule:nonzero;stroke:none" />
      <path
         id="path11"
         d="m 25.068719,-6.3743125 c 0,-0.234375 0,-0.2578125 -0.234375,-0.2578125 -0.609375,0.6328125 -1.488281,0.6328125 -1.804688,0.6328125 v 0.3164063 c 0.199219,0 0.785157,0 1.300782,-0.2578125 v 5.15624995 c 0,0.3515625 -0.03516,0.48046875 -0.925782,0.48046875 H 23.08825 V 6.875e-4 c 0.351563,-0.03515625 1.207031,-0.03515625 1.605469,-0.03515625 0.398437,0 1.265625,0 1.617187,0.03515625 V -0.304 H 25.9945 c -0.902344,0 -0.925781,-0.1171875 -0.925781,-0.48046875 z m 5.707031,3.2109375 v 0.3164063 c 0,2.3320312 -1.03125,2.78906245 -1.617187,2.78906245 -0.164063,0 -0.703125,-0.0234375 -0.972657,-0.36328125 0.433594,0 0.515625,-0.28125 0.515625,-0.45703125 0,-0.30468745 -0.234375,-0.45703125 -0.457031,-0.45703125 -0.164062,0 -0.457031,0.09375 -0.457031,0.48046875 0,0.66796875 0.539062,1.078125 1.382812,1.078125 1.289063,0 2.496094,-1.35937495 2.496094,-3.50390625 0,-2.671875 -1.136719,-3.3515625 -2.027344,-3.3515625 -0.550781,0 -1.03125,0.1757813 -1.464843,0.6210938 -0.410157,0.4570312 -0.632813,0.8671875 -0.632813,1.6171875 0,1.2421875 0.878906,2.2265625 1.992188,2.2265625 0.609375,0 1.007812,-0.421875 1.242187,-0.9960938 z m -1.230469,0.7617188 c -0.164062,0 -0.621093,0 -0.925781,-0.6210938 -0.1875,-0.375 -0.1875,-0.8671875 -0.1875,-1.359375 0,-0.5390625 0,-1.0078125 0.210938,-1.3710937 0.269531,-0.5039063 0.644531,-0.6328125 0.996093,-0.6328125 0.457032,0 0.785157,0.3398437 0.960938,0.7851562 0.117187,0.3164063 0.152344,0.9492188 0.152344,1.40625 0,0.8320313 -0.339844,1.7929688 -1.207032,1.7929688 z m 0,0"
         style="fill:#000000;fill-opacity:1;fill-rule:nonzero;stroke:none" />
    </g>
    <path
       id="path12"
       d="M 71.148,48.687 V 66.62"
       style="fill:none;stroke:#000000;stroke-width:0.3985;stroke-linecap:butt;stroke-linejoin:miter;stroke-miterlimit:10;stroke-dasharray:none;stroke-opacity:1"
       transform="matrix(1.3333333,0,0,-1.3333333,96,95.994667)" />
    <g
       id="g12"
       aria-label="20−24"
       transform="matrix(1.3333333,0,0,1.3333333,198.83333,23.905333)">
      <path
         id="path13"
         d="M 1.2646484,-0.76103125 2.3193359,-1.7922812 c 1.5585938,-1.3710938 2.15625,-1.9101563 2.15625,-2.90625 0,-1.1367188 -0.9023437,-1.9335938 -2.1210937,-1.9335938 -1.125,0 -1.85156251,0.9140625 -1.85156251,1.8046875 0,0.5507813 0.4921875,0.5507813 0.52734371,0.5507813 0.1640625,0 0.515625,-0.1171875 0.515625,-0.5273438 0,-0.2578125 -0.1875,-0.515625 -0.5273437,-0.515625 -0.0820313,0 -0.10546876,0 -0.12890626,0.011719 0.22265626,-0.6445313 0.76171876,-1.0195313 1.33593746,-1.0195313 0.9140625,0 1.3359375,0.8085938 1.3359375,1.6289063 0,0.796875 -0.4921875,1.5820312 -1.0429687,2.203125 L 0.60839844,-0.36259375 C 0.50292969,-0.257125 0.50292969,-0.2336875 0.50292969,6.875e-4 H 4.1943359 l 0.28125,-1.734375 H 4.2177734 C 4.1708984,-1.429 4.1005859,-0.99540625 4.0068359,-0.8430625 3.9365239,-0.7610312 3.2802734,-0.7610312 3.0576172,-0.7610312 Z M 9.5644531,-3.1868125 c 0,-0.796875 -0.046875,-1.59375 -0.3984375,-2.3320312 -0.4570312,-0.9609375 -1.2773437,-1.1132813 -1.6875,-1.1132813 -0.5976562,0 -1.3359375,0.2578125 -1.734375,1.1835938 -0.328125,0.6914062 -0.375,1.4648437 -0.375,2.2617187 0,0.75 0.046875,1.640625 0.4453125,2.40234375 0.4335938,0.80859375 1.1601563,1.0078125 1.6523438,1.0078125 0.5390625,0 1.2890625,-0.2109375 1.734375,-1.16015625 0.3164062,-0.6914062 0.3632812,-1.4648437 0.3632812,-2.25 z m -2.0976562,3.1875 c -0.3867188,0 -0.984375,-0.24609375 -1.1601563,-1.2070312 C 6.2011719,-1.804 6.2011719,-2.7180625 6.2011719,-3.304 c 0,-0.6445312 0,-1.3007812 0.082031,-1.8398437 0.1875,-1.1835938 0.9257813,-1.265625 1.1835938,-1.265625 0.328125,0 0.984375,0.1757812 1.171875,1.1601562 0.09375,0.5625 0.09375,1.3125 0.09375,1.9453125 0,0.75 0,1.4179688 -0.1054688,2.0625 C 8.4746094,-0.304 7.9121094,6.875e-4 7.4667969,6.875e-4 Z m 0,0"
         style="fill:#000000;fill-opacity:1;fill-rule:nonzero;stroke:none" />
      <path
         id="path14"
         d="m 18.740234,-2.2961875 c 0.175782,0 0.351563,0 0.351563,-0.1992187 0,-0.1992188 -0.175781,-0.1992188 -0.351563,-0.1992188 h -5.390625 c -0.164062,0 -0.339843,0 -0.339843,0.1992188 0,0.1992187 0.175781,0.1992187 0.339843,0.1992187 z m 0,0"
         style="fill:#000000;fill-opacity:1;fill-rule:nonzero;stroke:none" />
      <path
         id="path15"
         d="m 23.404297,-0.76103125 1.054687,-1.03124995 c 1.558594,-1.3710938 2.15625,-1.9101563 2.15625,-2.90625 0,-1.1367188 -0.902343,-1.9335938 -2.121093,-1.9335938 -1.125,0 -1.851563,0.9140625 -1.851563,1.8046875 0,0.5507813 0.492188,0.5507813 0.527344,0.5507813 0.164062,0 0.515625,-0.1171875 0.515625,-0.5273438 0,-0.2578125 -0.1875,-0.515625 -0.527344,-0.515625 -0.08203,0 -0.105469,0 -0.128906,0.011719 0.222656,-0.6445313 0.761719,-1.0195313 1.335937,-1.0195313 0.914063,0 1.335938,0.8085938 1.335938,1.6289063 0,0.796875 -0.492188,1.5820312 -1.042969,2.203125 l -1.910156,2.13281245 C 22.642578,-0.257125 22.642578,-0.2336875 22.642578,6.875e-4 h 3.691406 l 0.28125,-1.734375 h -0.257812 c -0.04687,0.3046875 -0.117188,0.73828125 -0.210938,0.890625 -0.07031,0.0820313 -0.726562,0.0820313 -0.949218,0.0820313 z M 30.048828,-1.6399375 V -0.77275 c 0,0.3515625 -0.02344,0.46875 -0.761719,0.46875 H 29.076172 V 6.875e-4 c 0.410156,-0.03515625 0.9375,-0.03515625 1.347656,-0.03515625 0.421875,0 0.949219,0 1.359375,0.03515625 V -0.304 h -0.210937 c -0.738282,0 -0.761719,-0.1171875 -0.761719,-0.46875 v -0.8671875 h 0.996094 v -0.3164062 h -0.996094 v -4.5234375 c 0,-0.1992188 0,-0.2578125 -0.152344,-0.2578125 -0.09375,0 -0.117187,0 -0.199219,0.1171875 l -3.058593,4.6640625 v 0.3164062 z m 0.05859,-0.3164062 h -2.425781 l 2.425781,-3.7148438 z m 0,0"
         style="fill:#000000;fill-opacity:1;fill-rule:nonzero;stroke:none" />
    </g>
    <path
       id="path16"
       d="M 115.205,48.687 V 66.62"
       style="fill:none;stroke:#000000;stroke-width:0.3985;stroke-linecap:butt;stroke-linejoin:miter;stroke-miterlimit:10;stroke-dasharray:none;stroke-opacity:1"
       transform="matrix(1.3333333,0,0,-1.3333333,96,95.994667)" />
    <g
       id="g16"
       aria-label="25−29"
       transform="matrix(1.3333333,0,0,1.3333333,257.576,23.905333)">
      <path
         id="path17"
         d="M 1.2642891,-0.76103125 2.3189766,-1.7922812 c 1.5585937,-1.3710938 2.15625,-1.9101563 2.15625,-2.90625 0,-1.1367188 -0.9023438,-1.9335938 -2.1210938,-1.9335938 -1.125,0 -1.85156249,0.9140625 -1.85156249,1.8046875 0,0.5507813 0.4921875,0.5507813 0.52734379,0.5507813 0.1640625,0 0.515625,-0.1171875 0.515625,-0.5273438 0,-0.2578125 -0.1875,-0.515625 -0.5273438,-0.515625 -0.0820312,0 -0.10546874,0 -0.12890624,0.011719 0.22265624,-0.6445313 0.76171874,-1.0195313 1.33593754,-1.0195313 0.9140625,0 1.3359375,0.8085938 1.3359375,1.6289063 0,0.796875 -0.4921875,1.5820312 -1.0429688,2.203125 L 0.60803906,-0.36259375 C 0.50257031,-0.257125 0.50257031,-0.2336875 0.50257031,6.875e-4 H 4.1939766 l 0.28125,-1.734375 H 4.2174141 C 4.1705391,-1.429 4.1002266,-0.99540625 4.0064766,-0.8430625 3.9361646,-0.7610312 3.2799141,-0.7610312 3.0572578,-0.7610312 Z M 9.458625,-2.0032187 c 0,-1.1835938 -0.8203125,-2.1796875 -1.8984375,-2.1796875 -0.4804687,0 -0.9023437,0.1640625 -1.265625,0.5039062 v -1.9335937 c 0.1992188,0.058594 0.5273438,0.1289062 0.84375,0.1289062 1.2304688,0 1.9335938,-0.9140625 1.9335938,-1.0429687 0,-0.058594 -0.035156,-0.1054688 -0.1054688,-0.1054688 -0.011719,0 -0.035156,0 -0.082031,0.023437 -0.1992188,0.09375 -0.6796875,0.2929688 -1.3476563,0.2929688 -0.3984375,0 -0.8554687,-0.070312 -1.3242187,-0.28125 -0.082031,-0.023437 -0.1054688,-0.023437 -0.1289063,-0.023437 -0.09375,0 -0.09375,0.082031 -0.09375,0.234375 v 2.953125 c 0,0.1757812 0,0.2578125 0.140625,0.2578125 0.070312,0 0.082031,-0.035156 0.1289063,-0.09375 C 6.364875,-3.4211875 6.739875,-3.96025 7.53675,-3.96025 c 0.5273438,0 0.7734375,0.4570313 0.8554688,0.6328125 0.1523437,0.375 0.1757812,0.7617188 0.1757812,1.2539063 0,0.3515625 0,0.9492187 -0.234375,1.3710937 -0.2460937,0.38671875 -0.609375,0.64453125 -1.0664062,0.64453125 -0.7265625,0 -1.3007813,-0.52734375 -1.4648438,-1.11328125 0.023437,0.011719 0.058594,0.011719 0.1640625,0.011719 0.328125,0 0.5039063,-0.2460938 0.5039063,-0.4804688 0,-0.2460937 -0.1757813,-0.4921875 -0.5039063,-0.4921875 -0.140625,0 -0.4804687,0.070312 -0.4804687,0.5273438 0,0.8554687 0.6796875,1.82812495 1.7929687,1.82812495 1.1601563,0 2.1796875,-0.9609375 2.1796875,-2.22656265 z m 0,0"
         style="fill:#000000;fill-opacity:1;fill-rule:nonzero;stroke:none" />
      <path
         id="path18"
         d="m 18.739875,-2.2961875 c 0.175781,0 0.351563,0 0.351563,-0.1992187 0,-0.1992188 -0.175782,-0.1992188 -0.351563,-0.1992188 H 13.34925 c -0.164062,0 -0.339844,0 -0.339844,0.1992188 0,0.1992187 0.175782,0.1992187 0.339844,0.1992187 z m 0,0"
         style="fill:#000000;fill-opacity:1;fill-rule:nonzero;stroke:none" />
      <path
         id="path19"
         d="m 23.403938,-0.76103125 1.054687,-1.03124995 c 1.558594,-1.3710938 2.15625,-1.9101563 2.15625,-2.90625 0,-1.1367188 -0.902344,-1.9335938 -2.121094,-1.9335938 -1.125,0 -1.851562,0.9140625 -1.851562,1.8046875 0,0.5507813 0.492187,0.5507813 0.527344,0.5507813 0.164062,0 0.515625,-0.1171875 0.515625,-0.5273438 0,-0.2578125 -0.1875,-0.515625 -0.527344,-0.515625 -0.08203,0 -0.105469,0 -0.128906,0.011719 0.222656,-0.6445313 0.761718,-1.0195313 1.335937,-1.0195313 0.914063,0 1.335938,0.8085938 1.335938,1.6289063 0,0.796875 -0.492188,1.5820312 -1.042969,2.203125 l -1.910156,2.13281245 C 22.642219,-0.257125 22.642219,-0.2336875 22.642219,6.875e-4 h 3.691406 l 0.28125,-1.734375 h -0.257812 c -0.04687,0.3046875 -0.117188,0.73828125 -0.210938,0.890625 -0.07031,0.0820313 -0.726562,0.0820313 -0.949219,0.0820313 z M 30.777961,-3.163375 v 0.3164063 c 0,2.3320312 -1.03125,2.78906245 -1.617188,2.78906245 -0.164062,0 -0.703125,-0.0234375 -0.972656,-0.36328125 0.433594,0 0.515625,-0.28125 0.515625,-0.45703125 0,-0.30468745 -0.234375,-0.45703125 -0.457031,-0.45703125 -0.164063,0 -0.457031,0.09375 -0.457031,0.48046875 0,0.66796875 0.539062,1.078125 1.382812,1.078125 1.289063,0 2.496094,-1.35937495 2.496094,-3.50390625 0,-2.671875 -1.136719,-3.3515625 -2.027344,-3.3515625 -0.550781,0 -1.03125,0.1757813 -1.464844,0.6210938 -0.410156,0.4570312 -0.632812,0.8671875 -0.632812,1.6171875 0,1.2421875 0.878906,2.2265625 1.992187,2.2265625 0.609375,0 1.007813,-0.421875 1.242188,-0.9960938 z m -1.230469,0.7617188 c -0.164062,0 -0.621094,0 -0.925781,-0.6210938 -0.1875,-0.375 -0.1875,-0.8671875 -0.1875,-1.359375 0,-0.5390625 0,-1.0078125 0.210937,-1.3710937 0.269532,-0.5039063 0.644532,-0.6328125 0.996094,-0.6328125 0.457031,0 0.785156,0.3398437 0.960938,0.7851562 0.117187,0.3164063 0.152343,0.9492188 0.152343,1.40625 0,0.8320313 -0.339843,1.7929688 -1.207031,1.7929688 z m 0,0"
         style="fill:#000000;fill-opacity:1;fill-rule:nonzero;stroke:none" />
    </g>
    <path
       id="path20"
       d="M 159.262,48.687 V 66.62"
       style="fill:none;stroke:#000000;stroke-width:0.3985;stroke-linecap:butt;stroke-linejoin:miter;stroke-miterlimit:10;stroke-dasharray:none;stroke-opacity:1"
       transform="matrix(1.3333333,0,0,-1.3333333,96,95.994667)" />
    <path
       id="path21"
       d="m -64.428,48.488 h 223.69"
       style="fill:none;stroke:#000000;stroke-width:0.3985;stroke-linecap:butt;stroke-linejoin:miter;stroke-miterlimit:10;stroke-dasharray:none;stroke-opacity:1"
       transform="matrix(1.3333333,0,0,-1.3333333,96,95.994667)" />
    <path
       id="path22"
       d="M -64.428,30.356 V 48.289"
       style="fill:none;stroke:#000000;stroke-width:0.3985;stroke-linecap:butt;stroke-linejoin:miter;stroke-miterlimit:10;stroke-dasharray:none;stroke-opacity:1"
       transform="matrix(1.3333333,0,0,-1.3333333,96,95.994667)" />
    <path
       id="path23"
       d="M 4.8172109,7.421875e-4 V -3.8898828 C 4.4187734,-4.4582422 4.0496328,-4.8771875 3.7156484,-5.1437891 3.3787344,-5.4074609 3.0154531,-5.5422266 2.6258047,-5.5422266 c -0.3515625,0 -0.6386719,0.09082 -0.8554688,0.2695313 -0.2197265,0.1816406 -0.4042968,0.3837891 -0.5507812,0.609375 0.099609,-0.052734 0.234375,-0.09668 0.3984375,-0.1289063 0.1640625,-0.038086 0.3427734,-0.058594 0.5390625,-0.058594 0.3046875,0 0.5507812,0.064453 0.7382812,0.1875 0.1875,0.1171875 0.3222657,0.2666016 0.4101563,0.4453125 0.09375,0.1816406 0.140625,0.3603516 0.140625,0.5390625 0,0.3925781 -0.1347656,0.7441406 -0.3984375,1.0546875 -0.2666016,0.3134766 -0.6767578,0.6181641 -1.2304688,0.9140625 l -0.515625,-0.7265625 c 0.366211,-0.1552734 0.6826172,-0.328125 0.9492188,-0.515625 0.2636719,-0.1875 0.3984375,-0.4130859 0.3984375,-0.6796875 0,-0.1464844 -0.058594,-0.2695313 -0.1757813,-0.3632813 -0.1113281,-0.099609 -0.2695312,-0.1523437 -0.4804687,-0.1523437 -0.1728516,0 -0.3339844,0.020508 -0.4804688,0.058594 -0.149414,0.041016 -0.3105468,0.1025391 -0.4804687,0.1875 l -0.80859376,-0.65625 c 0.3046875,-0.5214843 0.64453125,-0.9375 1.01953126,-1.2421875 0.375,-0.3105468 0.8085937,-0.46875 1.3007812,-0.46875 0.4511719,0 0.8583985,0.1142579 1.21875,0.3398438 0.3574219,0.2197266 0.7207032,0.5478516 1.0898438,0.984375 -0.00879,-0.1083984 -0.017578,-0.2402344 -0.023437,-0.3984375 -0.00879,-0.1640625 -0.011719,-0.3222656 -0.011719,-0.4804688 v -1.03125 H 5.344555 l 0.234375,0.65625 h 1.0546875 v 0.7148438 H 5.5906484 V 7.421875e-4 Z M 12.815258,-6.1984766 v 0.7148438 H 11.76057 V 7.421875e-4 H 10.998852 V -3.8898828 C 10.582836,-4.4582422 10.196117,-4.8771875 9.8386953,-5.1437891 9.4783437,-5.4074609 9.1150625,-5.5422266 8.7488516,-5.5422266 c -0.3134766,0 -0.5595704,0.09082 -0.7382813,0.2695313 -0.1728516,0.1728516 -0.2578125,0.3925781 -0.2578125,0.65625 0,0.328125 0.1171875,0.5800781 0.3515625,0.75 0.234375,0.1640625 0.6240234,0.2753906 1.171875,0.328125 l -0.058594,0.8320312 C 8.7781484,-2.744375 8.3885,-2.838125 8.0457266,-2.9875391 7.7000234,-3.1428125 7.4275625,-3.35375 7.2254141,-3.6203516 7.029125,-3.8840234 6.9324453,-4.2121484 6.9324453,-4.6047266 c 0,-0.3574218 0.076172,-0.6591796 0.234375,-0.9023437 0.1640625,-0.2490234 0.375,-0.4365234 0.6328125,-0.5625 0.2578125,-0.1318359 0.5332031,-0.1992188 0.8320313,-0.1992188 0.4833984,0 0.9082031,0.1171875 1.2773437,0.3515625 0.3662112,0.2285157 0.7412112,0.5595704 1.1250002,0.9960938 -0.0088,-0.1171875 -0.01758,-0.2490234 -0.02344,-0.3984375 -0.0088,-0.1464844 -0.01172,-0.2871094 -0.01172,-0.421875 v -1.1132813 h 0.527343 l 0.222657,0.65625 z m 6.788086,0 v 0.7148438 H 18.560375 V 7.421875e-4 H 17.798656 V -3.1750391 c -0.149414,-0.1787109 -0.28125,-0.3164062 -0.398437,-0.4101562 -0.117188,-0.099609 -0.231446,-0.1523438 -0.339844,-0.1523438 -0.09375,0 -0.18457,0.029297 -0.269531,0.082031 -0.0791,0.055664 -0.169922,0.1582031 -0.269532,0.3046875 -0.09375,0.1494141 -0.222656,0.375 -0.386718,0.6796875 -0.181641,0.328125 -0.345703,0.5976562 -0.492188,0.8085937 -0.149414,0.2050782 -0.304687,0.3574219 -0.46875,0.4570313 -0.158203,0.09375 -0.351562,0.140625 -0.585937,0.140625 -0.266602,0 -0.521485,-0.082031 -0.761719,-0.2460938 -0.234375,-0.1699218 -0.489258,-0.4746093 -0.761719,-0.9140625 l 0.609375,-0.375 c 0.178711,0.3222657 0.328125,0.5332032 0.445313,0.6328125 0.117187,0.09375 0.246093,0.140625 0.386718,0.140625 0.140625,0 0.275391,-0.052734 0.410157,-0.1640625 0.131836,-0.1171875 0.292968,-0.3310546 0.480468,-0.6445312 -0.06445,-0.4130859 -0.134765,-0.7412109 -0.210937,-0.984375 -0.07031,-0.2402344 -0.18457,-0.4335938 -0.339844,-0.5742188 -0.164062,-0.1464843 -0.392578,-0.2607421 -0.679687,-0.3398437 -0.28125,-0.076172 -0.641602,-0.1435547 -1.078125,-0.1992188 l 0.117187,-0.5507812 H 12.60725 v -0.7148438 z m -5.824219,0.7148438 c 0.506836,0.070312 0.905273,0.1816406 1.195312,0.328125 0.28711,0.140625 0.498047,0.3398437 0.632813,0.5976562 0.131836,0.2519532 0.213867,0.5800782 0.246094,0.984375 0.164062,-0.3427734 0.322265,-0.5771484 0.480468,-0.703125 0.155274,-0.1318359 0.328125,-0.1992187 0.515625,-0.1992187 0.178711,0 0.342774,0.043945 0.492188,0.1289062 0.146484,0.087891 0.307617,0.2167969 0.480469,0.3867188 -0.01758,-0.099609 -0.02344,-0.2021484 -0.02344,-0.3046875 0,-0.099609 0,-0.1992188 0,-0.2929688 v -0.9257812 z m 6.500977,0.6445312 c 0,-0.4130859 0.131835,-0.7412109 0.398437,-0.984375 0.272461,-0.2490234 0.609375,-0.375 1.007813,-0.375 0.398437,0 0.729492,0.1259766 0.996093,0.375 0.272461,0.2431641 0.410157,0.5712891 0.410157,0.984375 0,0.4160157 -0.137696,0.7470704 -0.410157,0.9960938 -0.266601,0.2431641 -0.597656,0.3632812 -0.996093,0.3632812 -0.398438,0 -0.735352,-0.1201171 -1.007813,-0.3632812 -0.266602,-0.2490234 -0.398437,-0.5800781 -0.398437,-0.9960938 z m 0.691406,0 c 0,0.2285157 0.06445,0.4042969 0.199219,0.5273438 0.140625,0.1259766 0.310546,0.1875 0.515625,0.1875 0.210937,0 0.380859,-0.061523 0.515625,-0.1875 0.131835,-0.1318359 0.199218,-0.3076172 0.199218,-0.5273438 0,-0.2255859 -0.06738,-0.3984375 -0.199218,-0.515625 -0.134766,-0.1230468 -0.304688,-0.1875 -0.515625,-0.1875 -0.205079,0 -0.375,0.067383 -0.515625,0.1992188 -0.134766,0.1259766 -0.199219,0.2929687 -0.199219,0.5039062 z m -0.234375,1.7109375 c 0.413086,0.2519532 0.808594,0.5507813 1.183594,0.9023438 0.375,0.3515625 0.714843,0.7265625 1.019531,1.125 0.310547,0.39843749 0.574219,0.7939453 0.785156,1.18359374 l -0.644531,0.328125 C 22.805492,-0.00804687 22.533031,-0.38890625 22.26057,-0.72582031 21.993969,-1.0598047 21.701,-1.3703516 21.381664,-1.6516016 c -0.322266,-0.2871093 -0.703125,-0.5683593 -1.148437,-0.84375 z m 4.470703,-1.1601562 c -0.407227,0 -0.732422,-0.099609 -0.972656,-0.3046875 -0.234375,-0.2109375 -0.351563,-0.4980469 -0.351563,-0.8671875 0,-0.1464844 0.01758,-0.2929688 0.05859,-0.4335938 0.04687,-0.140625 0.09668,-0.2607421 0.152344,-0.3632812 l 0.761718,0.2109375 c -0.04687,0.070312 -0.08789,0.1523437 -0.117187,0.2460937 -0.03223,0.09375 -0.04687,0.1962891 -0.04687,0.3046875 0,0.1728516 0.04687,0.3017579 0.140625,0.3867188 0.09375,0.079102 0.216797,0.1171875 0.375,0.1171875 0.131836,0 0.269531,-0.023437 0.410156,-0.070312 0.146485,-0.052734 0.298828,-0.1582031 0.457031,-0.3164063 0.155274,-0.1640625 0.310547,-0.4013671 0.46875,-0.7148437 l 0.539063,-0.1289063 c 0.225586,0.2050782 0.413086,0.4394532 0.5625,0.703125 0.155273,0.2578125 0.234375,0.5361329 0.234375,0.8320313 0,0.5332031 -0.1875,0.9492187 -0.5625,1.2539062 -0.375,0.2988282 -0.852539,0.5009766 -1.429688,0.609375 0.483399,0.1347657 0.902344,0.3046875 1.253907,0.515625 0.351562,0.2050782 0.647461,0.421875 0.890625,0.65625 0.240234,0.234375 0.439453,0.4658204 0.597656,0.69140629 -0.0088,-0.15527339 -0.01758,-0.30761719 -0.02344,-0.45703129 0,-0.1552734 0,-0.3222656 0,-0.5039062 v -4.9335938 h 0.527344 l 0.234375,0.65625 h 1.054688 v 0.7148438 H 29.379711 V 7.421875e-4 H 28.606273 C 28.35432,-0.36546875 28.058422,-0.70824219 27.715648,-1.0305078 c -0.336914,-0.3193359 -0.726562,-0.5976563 -1.171875,-0.8320313 -0.439453,-0.2402343 -0.9375,-0.4101562 -1.5,-0.5039062 l -0.234375,-0.9257813 c 0.802735,-0.061523 1.388672,-0.2109375 1.757813,-0.4453125 0.375,-0.234375 0.5625,-0.5332031 0.5625,-0.9023437 0,-0.2578125 -0.0791,-0.4863281 -0.234375,-0.6914063 -0.196289,0.3222657 -0.439453,0.5742188 -0.726563,0.7617188 -0.28125,0.1875 -0.603515,0.28125 -0.960937,0.28125 z m 7.754883,-1.9101563 v 0.7148438 h -0.351563 c -0.205078,0.1816406 -0.357422,0.3486328 -0.457031,0.5039062 -0.102539,0.1494141 -0.172852,0.3046875 -0.210938,0.46875 -0.03223,0.1640625 -0.04687,0.3574219 -0.04687,0.5742188 0,0.2197266 0.02637,0.4541016 0.08203,0.703125 0.05273,0.2431641 0.108398,0.4980469 0.164062,0.7617187 0.05273,0.2578125 0.08203,0.5332032 0.08203,0.8203125 0,0.3222657 -0.05273,0.6269532 -0.152343,0.91406254 -0.102539,0.28125 -0.298828,0.53320312 -0.585938,0.75 -0.28125,0.21679687 -0.703125,0.38671875 -1.265625,0.50390625 l -0.199219,-0.6796875 c 0.418946,-0.0996094 0.732422,-0.22558594 0.9375,-0.375 0.202149,-0.14648438 0.333985,-0.31933594 0.398438,-0.51562499 0.06152,-0.1933594 0.09375,-0.4013672 0.09375,-0.6210938 0,-0.2636718 -0.0293,-0.5214843 -0.08203,-0.7734375 -0.05566,-0.2490234 -0.111328,-0.4951171 -0.164063,-0.7382812 -0.05566,-0.2490234 -0.08203,-0.4921875 -0.08203,-0.7265625 0,-0.3339844 0.03809,-0.6152344 0.117187,-0.84375 0.08496,-0.234375 0.237305,-0.4746094 0.457032,-0.7265625 h -1.476563 v -0.7148438 z m 2.657226,0 v 0.7148438 H 34.565258 V 7.421875e-4 H 33.803539 V -4.6750391 c -0.0791,-0.2255859 -0.196289,-0.4160156 -0.351562,-0.5742187 -0.158204,-0.1552734 -0.360352,-0.234375 -0.609375,-0.234375 h -0.08203 v -0.7148438 h 0.152344 c 0.164063,0 0.331055,0.055664 0.503906,0.1640625 0.169922,0.1025391 0.307617,0.2578125 0.410157,0.46875 0,-0.029297 -0.0059,-0.1054687 -0.01172,-0.2226562 -0.0088,-0.1230469 -0.01172,-0.2285156 -0.01172,-0.3164063 v -0.75 h 0.539063 l 0.222656,0.65625 z m 0,0"
       style="fill:#000000;fill-opacity:1;fill-rule:nonzero;stroke:none"
       aria-label="গণসংখযা"
       transform="matrix(1.3333333,0,0,1.3333333,18.065333,48.346667)" />
    <path
       id="path24"
       d="M -16.966,30.356 V 48.289"
       style="fill:none;stroke:#000000;stroke-width:0.3985;stroke-linecap:butt;stroke-linejoin:miter;stroke-miterlimit:10;stroke-dasharray:none;stroke-opacity:1"
       transform="matrix(1.3333333,0,0,-1.3333333,96,95.994667)" />
    <path
       id="path25"
       d="m 2.3675703,0.10621094 c -0.328125,0 -0.6445312,-0.03515625 -0.9492187,-0.1054687525 C 1.1136641,-0.06078125 0.84999219,-0.15746094 0.63319531,-0.29222656 V -1.1242578 c 0.14648438,0.1025391 0.32226563,0.18749999 0.52734379,0.25781249 0.2021484,0.0703125 0.4130859,0.12597656 0.6328125,0.1640625 0.2167968,0.0322266 0.4160156,0.046875 0.5976562,0.046875 0.506836,0 0.9052735,-0.12011719 1.1953125,-0.36328129 0.2871094,-0.2490234 0.4335938,-0.6357421 0.4335938,-1.1601562 0,-0.4746094 -0.1464844,-0.8349609 -0.4335938,-1.078125 -0.28125,-0.2402344 -0.6914062,-0.3632813 -1.2304687,-0.3632813 -0.1728516,0 -0.3720703,0.017578 -0.5976563,0.046875 -0.2197265,0.032227 -0.3955078,0.058594 -0.5273437,0.082031 L 0.78553906,-3.7609766 1.0550703,-7.1125391 h 3.3632813 v 0.8085938 H 1.8285078 l -0.1992187,2.0390625 c 0.1083984,-0.023437 0.2519531,-0.041016 0.4335937,-0.058594 0.1875,-0.023437 0.3808594,-0.035156 0.5859375,-0.035156 0.4277344,0 0.8144531,0.079102 1.1601563,0.234375 0.3427734,0.1582031 0.6152343,0.3925781 0.8203125,0.703125 0.2021484,0.3046875 0.3046875,0.6855469 0.3046875,1.1367187 0,0.75 -0.2197266,1.33593754 -0.65625,1.75781254 -0.4394532,0.421875 -1.0751953,0.6328125 -1.9101563,0.6328125 z m 0,0"
       style="fill:#000000;fill-opacity:1;fill-rule:nonzero;stroke:none"
       aria-label="5"
       transform="matrix(1.3333333,0,0,1.3333333,99.089333,48.346667)" />
    <path
       id="path26"
       d="M 27.091,30.356 V 48.289"
       style="fill:none;stroke:#000000;stroke-width:0.3985;stroke-linecap:butt;stroke-linejoin:miter;stroke-miterlimit:10;stroke-dasharray:none;stroke-opacity:1"
       transform="matrix(1.3333333,0,0,-1.3333333,96,95.994667)" />
    <path
       id="path27"
       d="m 2.8711172,0.10621094 c -0.4306641,0 -0.8261719,-0.11132813 -1.1835938,-0.33984375 C 1.3359609,-0.45921875 1.0576406,-0.80199219 0.85549219,-1.2648828 0.65041406,-1.7336328 0.55080469,-2.3225 0.55080469,-3.0344141 c 0,-0.4130859 0.0234375,-0.8203125 0.0703125,-1.21875 0.0527344,-0.3984375 0.14648437,-0.7734375 0.28125,-1.125 0.13183591,-0.3574218 0.31054691,-0.6738281 0.53906251,-0.9492187 0.234375,-0.2724609 0.5302734,-0.4863281 0.890625,-0.6445313 0.3662109,-0.1552734 0.8085937,-0.234375 1.3242187,-0.234375 0.1230469,0 0.2695313,0.00879 0.4335938,0.023437 0.1640625,0.00879 0.2958984,0.029297 0.3984375,0.058594 v 0.7617187 c -0.1113281,-0.038086 -0.2402344,-0.064453 -0.3867188,-0.082031 -0.140625,-0.023437 -0.2783203,-0.035156 -0.4101562,-0.035156 -0.4453125,0 -0.8085938,0.079102 -1.0898438,0.234375 -0.28125,0.1494141 -0.5039062,0.3574219 -0.6679687,0.6210938 C 1.7754141,-5.3664453 1.6582266,-5.0646875 1.5820547,-4.7219141 1.5117422,-4.3762109 1.4677969,-4.01 1.4531484,-3.6203516 h 0.058594 c 0.1318359,-0.234375 0.3164062,-0.4277343 0.5507812,-0.5859375 0.2402344,-0.1640625 0.5566407,-0.2460937 0.9492188,-0.2460937 0.609375,0 1.0957031,0.1875 1.4648437,0.5625 0.366211,0.375 0.5507813,0.9082031 0.5507813,1.59375 0,0.7441406 -0.1962891,1.33007811 -0.5859375,1.75781249 -0.3837891,0.43066406 -0.9082031,0.64453125 -1.5703127,0.64453125 z m -0.011719,-0.75 c 0.3896485,0 0.7060547,-0.13183594 0.9492188,-0.39843754 0.2402344,-0.2636718 0.3632812,-0.6826171 0.3632812,-1.2539062 0,-0.4453125 -0.1054687,-0.796875 -0.3164062,-1.0546875 -0.2109375,-0.2636719 -0.5332031,-0.3984375 -0.9609375,-0.3984375 -0.2988281,0 -0.5566406,0.067383 -0.7734375,0.1992187 -0.2197266,0.1259766 -0.3925781,0.2871094 -0.515625,0.4804688 -0.1171875,0.1962891 -0.1757813,0.3984375 -0.1757813,0.609375 0,0.2900391 0.052734,0.5742187 0.1640625,0.8554687 0.1083985,0.2753907 0.2695313,0.5039063 0.4804688,0.69140629 0.2109375,0.18164062 0.4716797,0.26953125 0.7851562,0.26953125 z m 0,0"
       style="fill:#000000;fill-opacity:1;fill-rule:nonzero;stroke:none"
       aria-label="6"
       transform="matrix(1.3333333,0,0,1.3333333,157.832,48.346667)" />
    <path
       id="path28"
       d="M 71.148,30.356 V 48.289"
       style="fill:none;stroke:#000000;stroke-width:0.3985;stroke-linecap:butt;stroke-linejoin:miter;stroke-miterlimit:10;stroke-dasharray:none;stroke-opacity:1"
       transform="matrix(1.3333333,0,0,-1.3333333,96,95.994667)" />
    <path
       id="path29"
       d="M 4.1012266,-6.3039453 H 0.43325781 V -7.1125391 H 5.0152891 v 0.703125 L 2.3082578,7.421875e-4 H 1.3590391 Z m 0,0"
       style="fill:#000000;fill-opacity:1;fill-rule:nonzero;stroke:none"
       aria-label="7"
       transform="matrix(1.3333333,0,0,1.3333333,216.57467,48.346667)" />
    <path
       id="path30"
       d="M 115.205,30.356 V 48.289"
       style="fill:none;stroke:#000000;stroke-width:0.3985;stroke-linecap:butt;stroke-linejoin:miter;stroke-miterlimit:10;stroke-dasharray:none;stroke-opacity:1"
       transform="matrix(1.3333333,0,0,-1.3333333,96,95.994667)" />
    <path
       id="path31"
       d="M 0.46805469,-0.76097656 2.1672734,-2.6125391 c 0.328125,-0.3515625 0.6035157,-0.6621093 0.8320313,-0.9375 0.234375,-0.28125 0.4130859,-0.5566406 0.5390625,-0.8320312 0.1230469,-0.2724609 0.1875,-0.5742188 0.1875,-0.9023438 0,-0.375 -0.1054688,-0.6621093 -0.3164063,-0.8671875 -0.2109375,-0.2109375 -0.4892578,-0.3164062 -0.8320312,-0.3164062 -0.3046875,0 -0.5830078,0.067383 -0.8320313,0.1992187 -0.2519531,0.1259766 -0.4892578,0.28125 -0.7148437,0.46875 L 0.53836719,-6.3742578 c 0.2578125,-0.234375 0.55664061,-0.4277344 0.90234371,-0.5859375 0.3427735,-0.1640625 0.7265625,-0.2460938 1.1484375,-0.2460938 0.6240235,0 1.116211,0.1699219 1.4765625,0.5039063 0.366211,0.3369141 0.5507813,0.8027344 0.5507813,1.3945312 0,0.3691407 -0.076172,0.7148438 -0.2226563,1.0429688 -0.140625,0.3222656 -0.3398437,0.6416016 -0.5976562,0.9609375 -0.2519531,0.3222656 -0.5449219,0.65625 -0.8789063,1.0078125 l -1.359375,1.45312499 v 0.0351563 H 4.8977422 V 7.421875e-4 H 0.46805469 Z m 0,0"
       style="fill:#000000;fill-opacity:1;fill-rule:nonzero;stroke:none"
       aria-label="2"
       transform="matrix(1.3333333,0,0,1.3333333,275.31733,48.346667)" />
    <path
       id="path32"
       d="M 159.262,30.356 V 48.289"
       style="fill:none;stroke:#000000;stroke-width:0.3985;stroke-linecap:butt;stroke-linejoin:miter;stroke-miterlimit:10;stroke-dasharray:none;stroke-opacity:1"
       transform="matrix(1.3333333,0,0,-1.3333333,96,95.994667)" />
    <path
       id="path33"
       d="m -64.428,30.157 h 223.69"
       style="fill:none;stroke:#000000;stroke-width:0.3985;stroke-linecap:butt;stroke-linejoin:miter;stroke-miterlimit:10;stroke-dasharray:none;stroke-opacity:1"
       transform="matrix(1.3333333,0,0,-1.3333333,96,95.994667)" />
  </g>
</svg>
