<svg xmlns="http://www.w3.org/2000/svg" width="119.36435pt" height="114.61096pt" viewBox="-72 -72 119.36435 114.61096" style="position: absolute; top: 0pt; left: 0pt; overflow: visible;">
<g transform="translate(-12.379501342773434,-14.964523315429684)">
<g stroke-miterlimit="10" transform="scale(1,-1)"><g stroke="#000" fill="#000">
 <g stroke-width="0.4">
 <g stroke-width="0.8">
 <path d=" M 0.0 0.0 M 56.90549 0.0 C 56.90549 31.42844 31.42844 56.90549 0.0 56.90549 C -31.42844 56.90549 -56.90549 31.42844 -56.90549 0.0 C -56.90549 -31.42844 -31.42844 -56.90549 0.0 -56.90549 C 31.42844 -56.90549 56.90549 -31.42844 56.90549 0.0 Z M 0.0 0.0  " fill="none"/>
 </g>
 <g stroke-width="0.8">
 <path d=" M -45.52455 -34.1432 L 45.52455 -34.1432  " fill="none"/>
 </g>
 <g stroke-width="0.8">
 <path d=" M 0.0 0.0 L 0.0 -34.1432  " fill="none"/>
 </g>
 <g stroke-width="0.8">
 <path d=" M 0.0 0.0 L 45.52455 -34.1432  " fill="none"/>
 </g>
 <g stroke-width="0.8">
 <path d=" M 0.0 0.0 L -45.52455 -34.1432  " fill="none"/>
 </g>
 <g transform="translate(-3.8889,3.53297)">
 <g stroke="none" transform="scale(-1.00375,1.00375)translate(-9.046173095703123,-14.964523315429684)scale(-1,-1)"><g fill="#000">
 <g stroke="none"> <text alignment-baseline="baseline" y="-14.964523315429684" x="-9.046173095703123" style="font-family: cmr10;" font-size="10">O</text>
</g> </g>
 </g></g>
 <g transform="translate(-56.55753,-37.55986)">
 <g stroke="none" transform="scale(-1.00375,1.00375)translate(-9.046173095703123,-14.964523315429684)scale(-1,-1)"><g fill="#000">
 <g stroke="none"> <text alignment-baseline="baseline" y="-14.964523315429684" x="-9.046173095703123" style="font-family: cmr10;" font-size="10">A</text>
</g> </g>
 </g></g>
 <g transform="translate(49.05753,-37.55986)">
 <g stroke="none" transform="scale(-1.00375,1.00375)translate(-9.046173095703123,-14.964523315429684)scale(-1,-1)"><g fill="#000">
 <g stroke="none"> <text alignment-baseline="baseline" y="-14.964523315429684" x="-9.046173095703123" style="font-family: cmr10;" font-size="10">B</text>
</g> </g>
 </g></g>
 <g transform="translate(-3.81944,-44.50949)">
 <g stroke="none" transform="scale(-1.00375,1.00375)translate(-9.046173095703123,-14.964523315429684)scale(-1,-1)"><g fill="#000">
 <g stroke="none"> <text alignment-baseline="baseline" y="-14.964523315429684" x="-9.046173095703123" style="font-family: cmr10;" font-size="10">D</text>
</g> </g>
 </g></g>
 <g transform="translate(26.29524,-17.44858)">
 <g stroke="none" transform="scale(-1.00375,1.00375)translate(-9.046173095703123,-14.964523315429684)scale(-1,-1)"><g fill="#000">
 <g stroke="none"> <text alignment-baseline="baseline" y="-14.964523315429684" x="-9.046173095703123" style="font-family: cmr10;" font-size="10">5</text>
<text alignment-baseline="baseline" y="-14.964523315429684" x="-0.7128257751464843" style="font-family: cmr10;" font-size="10">cm</text>
</g> </g>
 </g></g>
 <g transform="translate(12.2067,-44.1206)">
 <g stroke="none" transform="scale(-1.00375,1.00375)translate(-9.046173095703123,-14.964523315429684)scale(-1,-1)"><g fill="#000">
 <g stroke="none"> <text alignment-baseline="baseline" y="-14.964523315429684" x="-9.046173095703123" style="font-family: cmr10;" font-size="10">4</text>
<text alignment-baseline="baseline" y="-14.964523315429684" x="-0.7128257751464843" style="font-family: cmr10;" font-size="10">cm</text>
</g> </g>
 </g></g>
 <path d=" M 0.0 -28.45274 L 5.69046 -28.45274 L 5.69046 -34.1432  " fill="none"/>
 </g>
 </g>
 </g></g></svg>