<svg xmlns="http://www.w3.org/2000/svg" width="151.32275pt" height="112.75676pt" viewBox="-72 -72 151.32275 112.75676" style="position: absolute; top: 0pt; left: 0pt; overflow: visible;">
<g transform="translate(-54.2929229736328,26.787490844726555)">
<g stroke-miterlimit="10" transform="scale(1,-1)"><g stroke="#000" fill="#000">
 <g stroke-width="0.4">
 <g stroke-width="0.8">
 <path d=" M 42.67911 85.35823 L 0.0 0.0 L 99.5846 0.0 Z  " fill="none"/>
 </g>
 <g stroke-width="0.8">
 <path d=" M 21.33955 42.67911 L 120.92415 42.67911  " fill="none"/>
 </g>
 <g stroke-width="0.8">
 <path d=" M 99.5846 0.0 L 120.92415 42.67911  " fill="none"/>
 </g>
 <g transform="translate(39.27632,88.8912)">
 <g stroke="none" transform="scale(-1.00375,1.00375)translate(-50.959594726562486,26.787490844726555)scale(-1,-1)"><g fill="#000">
 <g stroke="none"> <text alignment-baseline="baseline" y="26.787490844726555" x="-50.959594726562486" style="font-family: cmr10;" font-size="10">P</text>
</g> </g>
 </g></g>
 <g transform="translate(10.02878,39.26245)">
 <g stroke="none" transform="scale(-1.00375,1.00375)translate(-50.959594726562486,26.787490844726555)scale(-1,-1)"><g fill="#000">
 <g stroke="none"> <text alignment-baseline="baseline" y="26.787490844726555" x="-50.959594726562486" style="font-family: cmr10;" font-size="10">O</text>
</g> </g>
 </g></g>
 <g transform="translate(-11.31078,-2.44444)">
 <g stroke="none" transform="scale(-1.00375,1.00375)translate(-50.959594726562486,26.787490844726555)scale(-1,-1)"><g fill="#000">
 <g stroke="none"> <text alignment-baseline="baseline" y="26.787490844726555" x="-50.959594726562486" style="font-family: cmr10;" font-size="10">Q</text>
</g> </g>
 </g></g>
 <g transform="translate(74.66483,46.21208)">
 <g stroke="none" transform="scale(-1.00375,1.00375)translate(-50.959594726562486,26.787490844726555)scale(-1,-1)"><g fill="#000">
 <g stroke="none"> <text alignment-baseline="baseline" y="26.787490844726555" x="-50.959594726562486" style="font-family: cmr10;" font-size="10">M</text>
</g> </g>
 </g></g>
 <g transform="translate(103.11757,-10.36629)">
 <g stroke="none" transform="scale(-1.00375,1.00375)translate(-50.959594726562486,26.787490844726555)scale(-1,-1)"><g fill="#000">
 <g stroke="none"> <text alignment-baseline="baseline" y="26.787490844726555" x="-50.959594726562486" style="font-family: cmr10;" font-size="10">R</text>
</g> </g>
 </g></g>
 <g transform="translate(124.45712,39.26245)">
 <g stroke="none" transform="scale(-1.00375,1.00375)translate(-50.959594726562486,26.787490844726555)scale(-1,-1)"><g fill="#000">
 <g stroke="none"> <text alignment-baseline="baseline" y="26.787490844726555" x="-50.959594726562486" style="font-family: cmr10;" font-size="10">S</text>
</g> </g>
 </g></g>
 <path d=" M 37.58986 75.17957 C 41.24207 73.3535 45.59418 73.62408 48.99178 75.88913  " fill="none"/>
 <g transform="translate(35.80476,65.14171)">
 <g stroke="none" transform="scale(-1.00375,1.00375)translate(-50.959594726562486,26.787490844726555)scale(-1,-1)"><g fill="#000">
 <g stroke="none"> <text alignment-baseline="baseline" y="26.787490844726555" x="-50.959594726562486" style="font-family: cmr10;" font-size="10">70</text>
<text alignment-baseline="baseline" y="23.158569335937496" x="-40.95955657958984" style="font-family: cmsy7;" font-size="7">◦</text>
</g> </g>
 </g></g>
 <path d=" M 75.86647 35.5771 C 78.24048 37.15976 79.66776 39.82578 79.66776 42.67911  " fill="none"/>
 <g transform="translate(79.7296,32.552)">
 <g stroke="none" transform="scale(-1.00375,1.00375)translate(-50.959594726562486,26.787490844726555)scale(-1,-1)"><g fill="#000">
 <g stroke="none"> <text alignment-baseline="baseline" y="26.787490844726555" x="-50.959594726562486" style="font-family: cmr10;" font-size="10">55</text>
<text alignment-baseline="baseline" y="23.158569335937496" x="-40.95955657958984" style="font-family: cmsy7;" font-size="7">◦</text>
</g> </g>
 </g></g>
 </g>
 </g>
 </g></g></svg>