<?xml version="1.0" encoding="UTF-8" standalone="no"?>
<!-- Created with Inkscape (http://www.inkscape.org/) -->

<svg
   version="1.1"
   id="svg1"
   width="196.58667"
   height="150.06667"
   viewBox="0 0 196.58667 150.06667"
   sodipodi:docname="upload_fp4t6cztf56xu5nft3enbx3ksp.pdf"
   xmlns:inkscape="http://www.inkscape.org/namespaces/inkscape"
   xmlns:sodipodi="http://sodipodi.sourceforge.net/DTD/sodipodi-0.dtd"
   xmlns="http://www.w3.org/2000/svg"
   xmlns:svg="http://www.w3.org/2000/svg">
  <defs
     id="defs1" />
  <sodipodi:namedview
     id="namedview1"
     pagecolor="#ffffff"
     bordercolor="#000000"
     borderopacity="0.25"
     inkscape:showpageshadow="2"
     inkscape:pageopacity="0.0"
     inkscape:pagecheckerboard="0"
     inkscape:deskcolor="#d1d1d1">
    <inkscape:page
       x="0"
       y="0"
       inkscape:label="1"
       id="page1"
       width="196.58667"
       height="150.06667"
       margin="0"
       bleed="0" />
  </sodipodi:namedview>
  <g
     id="g1"
     inkscape:groupmode="layer"
     inkscape:label="1">
    <path
       id="path1"
       d="M 42.5202,85.04042 0,0 h 99.21382 z"
       style="fill:none;stroke:#000000;stroke-width:0.79701;stroke-linecap:butt;stroke-linejoin:miter;stroke-miterlimit:10;stroke-dasharray:none;stroke-opacity:1"
       transform="matrix(1.3333333,0,0,-1.3333333,19.454667,131.58133)" />
    <path
       id="path2"
       d="m 21.2601,42.5202 h 99.21382"
       style="fill:none;stroke:#000000;stroke-width:0.79701;stroke-linecap:butt;stroke-linejoin:miter;stroke-miterlimit:10;stroke-dasharray:none;stroke-opacity:1"
       transform="matrix(1.3333333,0,0,-1.3333333,19.454667,131.58133)" />
    <path
       id="path3"
       d="m 99.21382,0 21.2601,42.5202"
       style="fill:none;stroke:#000000;stroke-width:0.79701;stroke-linecap:butt;stroke-linejoin:miter;stroke-miterlimit:10;stroke-dasharray:none;stroke-opacity:1"
       transform="matrix(1.3333333,0,0,-1.3333333,19.454667,131.58133)" />
    <path
       id="path4"
       d="m 6.2106875,-4.9463125 c 0,-0.984375 -0.984375,-1.8632813 -2.34375,-1.8632813 h -3.515625 v 0.3164063 h 0.234375 c 0.7734375,0 0.7851562,0.1054687 0.7851562,0.46875 v 5.25 c 0,0.3515625 -0.011719,0.46875 -0.7851562,0.46875 H 0.3513125 V -0.001 c 0.3515625,-0.03515625 1.078125,-0.03515625 1.4648437,-0.03515625 0.375,0 1.125,0 1.4765625,0.03515625 V -0.3056875 H 3.046625 c -0.7617188,0 -0.7851563,-0.1171875 -0.7851563,-0.46875 v -2.3789063 h 1.6875 c 1.1953125,0 2.2617188,-0.796875 2.2617188,-1.7929687 z m -1.0195313,0 c 0,0.4570312 0,1.5351562 -1.5820312,1.5351562 H 2.2263125 V -6.09475 c 0,-0.328125 0.023437,-0.3984375 0.4921875,-0.3984375 h 0.890625 c 1.5820312,0 1.5820312,1.0546875 1.5820312,1.546875 z m 0,0"
       style="fill:#000000;fill-opacity:1;fill-rule:nonzero;stroke:none"
       aria-label="P"
       transform="matrix(1.3333333,0,0,1.3333333,71.625333,13.501333)" />
    <path
       id="path5"
       d="m 7.1836719,-3.3736641 c 0,-2.0390625 -1.5,-3.6445312 -3.3164063,-3.6445312 -1.78125,0 -3.30468748,1.59375 -3.30468748,3.6445312 0,2.0390625 1.53515628,3.59765629 3.30468748,3.59765629 1.8164063,0 3.3164063,-1.58203129 3.3164063,-3.59765629 z m -1.03125,-0.140625 c 0,2.63671879 -1.359375,3.48046879 -2.2734375,3.48046879 -0.9609375,0 -2.296875,-0.87890625 -2.296875,-3.48046879 0,-2.578125 1.453125,-3.2578125 2.2851562,-3.2578125 0.8671875,0 2.2851563,0.703125 2.2851563,3.2578125 z m 0,0"
       style="fill:#000000;fill-opacity:1;fill-rule:nonzero;stroke:none"
       aria-label="O"
       transform="matrix(1.3333333,0,0,1.3333333,32.773333,79.424)" />
    <path
       id="path6"
       d="m 7.2415234,0.10689062 c 0,-0.10546875 0,-0.2109375 -0.1054687,-0.2109375 -0.09375,0 -0.1054688,0.0703125 -0.1171875,0.17578125 -0.058594,0.5390625 -0.4804688,0.83203125 -0.9023438,0.83203125 -0.46875,0 -0.7148437,-0.33984375 -0.9609375,-0.97265625 1.1835938,-0.52734375 2.0273438,-1.80468747 2.0273438,-3.30468747 0,-2.0390625 -1.5,-3.6445313 -3.3164063,-3.6445313 -1.78125,0 -3.30468746,1.59375 -3.30468746,3.6445313 0,2.015625 1.49999996,3.59765622 3.31640626,3.59765622 0.3046875,0 0.65625,-0.0585938 0.9375,-0.15234375 0.1523437,0.94921873 0.2929687,1.86328123 1.21875,1.86328123 1.0195312,0 1.2070312,-1.32421873 1.2070312,-1.82812498 z M 6.1868359,-3.3735781 c 0,0.7734375 -0.1171875,2.1796875 -1.171875,2.95312497 -0.2226562,-0.55078125 -0.5390625,-1.05468747 -1.125,-1.05468747 -0.515625,0 -0.8203125,0.4335937 -0.8203125,0.84374997 0,0.26953125 0.1289063,0.45703125 0.140625,0.46875 C 2.6712109,-0.36185938 1.5579297,-1.0884219 1.5579297,-3.3735781 c 0,-2.5898438 1.3945312,-3.3984375 2.3085937,-3.3984375 0.9609375,0 2.3203125,0.8554687 2.3203125,3.3984375 z m -1.4414062,3.11718747 c -0.328125,0.1875 -0.65625,0.22265625 -0.8671875,0.22265625 -0.515625,0 -0.5859375,-0.45703125 -0.5859375,-0.59765625 0,-0.29296875 0.1992187,-0.62109377 0.5976562,-0.62109377 0.5273438,0 0.75,0.42187502 0.8554688,0.99609377 z m 0,0"
       style="fill:#000000;fill-opacity:1;fill-rule:nonzero;stroke:none"
       aria-label="Q"
       transform="matrix(1.3333333,0,0,1.3333333,4.4266667,134.97467)" />
    <path
       id="path7"
       d="M 8.7534453,4.84375e-4 V -0.30420313 h -0.234375 c -0.7734375,0 -0.7851562,-0.1171875 -0.7851562,-0.46875 V -6.0229531 c 0,-0.3632813 0.011719,-0.46875 0.7851562,-0.46875 h 0.234375 V -6.8081094 H 7.0776641 c -0.2695313,0 -0.2695313,0.011719 -0.3398438,0.1992188 l -2.1796875,5.6015625 -2.15625,-5.578125 C 2.3081328,-6.8081094 2.2846953,-6.8081094 2.0503203,-6.8081094 H 0.36282031 v 0.3164063 h 0.24609375 c 0.76171874,0 0.78515624,0.1054687 0.78515624,0.46875 v 4.9804687 c 0,0.26953127 0,0.73828127 -1.03124999,0.73828127 V 4.84375e-4 L 1.5346953,-0.03467188 2.6948516,4.84375e-4 V -0.30420313 c -1.0195313,0 -1.0195313,-0.46875 -1.0195313,-0.73828127 v -5.3671875 h 0.011719 l 2.4023437,6.18750002 c 0.046875,0.12890625 0.09375,0.222656255 0.1992188,0.222656255 0.1054687,0 0.1289062,-0.082031255 0.1757812,-0.187500005 L 6.9136016,-6.4917031 h 0.011719 v 5.71874997 c 0,0.3515625 -0.023437,0.46875 -0.7851562,0.46875 H 5.8940703 V 4.84375e-4 c 0.375,-0.035156255 1.0429688,-0.035156255 1.4414063,-0.035156255 0.3867187,0 1.0546875,0 1.4179687,0.035156255 z m 0,0"
       style="fill:#000000;fill-opacity:1;fill-rule:nonzero;stroke:none"
       aria-label="M"
       transform="matrix(1.3333333,0,0,1.3333333,118.63733,70.194667)" />
    <path
       id="path8"
       d="m 7.2892578,-0.87816406 c 0,-0.0585938 0,-0.16406254 -0.1289062,-0.16406254 -0.1054688,0 -0.1054688,0.0820313 -0.1171875,0.15234379 -0.058594,0.71484375 -0.4101563,0.8906249975 -0.65625,0.8906249975 -0.4921875,0 -0.5742188,-0.5039062475 -0.703125,-1.4296874875 l -0.140625,-0.796875 c -0.1757813,-0.6445313 -0.65625,-0.9726563 -1.2070313,-1.1601563 0.9609375,-0.234375 1.7460938,-0.84375 1.7460938,-1.6289062 0,-0.9492188 -1.1367188,-1.7929688 -2.6015625,-1.7929688 H 0.35175781 v 0.3164063 h 0.234375 c 0.77343749,0 0.78515629,0.1054687 0.78515629,0.46875 v 5.24999999 c 0,0.3515625 -0.011719,0.46875 -0.78515629,0.46875 h -0.234375 V 7.421875e-4 C 0.70332031,-0.03441406 1.4181641,-0.03441406 1.8048828,-0.03441406 c 0.3867188,0 1.0898438,0 1.453125,0.0351562475 V -0.30394531 h -0.234375 c -0.7734375,0 -0.796875,-0.1171875 -0.796875,-0.46875 V -3.2922266 h 1.1484375 c 0.1640625,0 0.5742188,0 0.9257813,0.3398438 0.3867187,0.3515625 0.3867187,0.65625 0.3867187,1.3242187 0,0.65625004 0,1.05468754 0.3984375,1.42968754 0.4101563,0.36328125 0.9609375,0.421875 1.2539063,0.421875 0.7851562,0 0.9492187,-0.8203125 0.9492187,-1.1015625 z M 5.0509766,-5.0148828 c 0,0.6914062 -0.234375,1.5 -1.7109375,1.5 H 2.2267578 v -2.578125 c 0,-0.234375 0,-0.3515625 0.2226563,-0.3867188 0.1054687,-0.011719 0.3867187,-0.011719 0.5859375,-0.011719 0.9023437,0 2.015625,0.035156 2.015625,1.4765628 z m 0,0"
       style="fill:#000000;fill-opacity:1;fill-rule:nonzero;stroke:none"
       aria-label="R"
       transform="matrix(1.3333333,0,0,1.3333333,156.43333,145.34667)" />
    <path
       id="path9"
       d="m 4.9696875,-1.8502266 c 0,-0.9960937 -0.65625,-1.8164062 -1.4882813,-2.015625 L 2.2040625,-4.1705391 C 1.5829687,-4.3228828 1.19625,-4.8619453 1.19625,-5.4361641 c 0,-0.703125 0.5390625,-1.3007812 1.3125,-1.3007812 1.6640625,0 1.8867187,1.6289062 1.9453125,2.0742187 0.011719,0.058594 0.011719,0.1171875 0.1171875,0.1171875 0.1289062,0 0.1289062,-0.046875 0.1289062,-0.234375 v -2.0039062 c 0,-0.1640625 0,-0.234375 -0.1054687,-0.234375 -0.070312,0 -0.082031,0.011719 -0.1523438,0.1289062 l -0.3515625,0.5625 c -0.2929687,-0.28125 -0.703125,-0.6914062 -1.59375,-0.6914062 -1.1015625,0 -1.9335937,0.8789062 -1.9335937,1.9335937 0,0.8203125 0.5273437,1.546875 1.3007812,1.8164063 0.1054688,0.046875 0.6210938,0.1640625 1.3125,0.328125 0.2695313,0.070312 0.5742188,0.140625 0.84375,0.515625 0.2109375,0.2578125 0.3164063,0.5859375 0.3164063,0.9140625 0,0.70312499 -0.5039063,1.41796874 -1.3359375,1.41796874 -0.2929688,0 -1.0429688,-0.046875 -1.5703125,-0.5390625 C 0.8446875,-1.1588203 0.82125,-1.8033516 0.80953125,-2.1549141 c -0.0117188,-0.1054687 -0.09375,-0.1054687 -0.1171875,-0.1054687 -0.12890625,0 -0.12890625,0.070312 -0.12890625,0.2460937 v 1.99218754 c 0,0.17578125 0,0.24609375 0.10546875,0.24609375 0.0703125,0 0.0820313,-0.0234375 0.15234375,-0.12890625 0,0 0.0234375,-0.046875 0.3515625,-0.57421875 0.3164062,0.33984375 0.9492187,0.703125 1.8398437,0.703125 1.1601563,0 1.9570313,-0.984375 1.9570313,-2.07421879 z m 0,0"
       style="fill:#000000;fill-opacity:1;fill-rule:nonzero;stroke:none"
       aria-label="S"
       transform="matrix(1.3333333,0,0,1.3333333,184.78,79.424)" />
    <path
       id="path10"
       d="m 37.4499,74.89966 c 3.6386,-1.81928 7.97452,-1.5497 11.35947,0.70692"
       style="fill:none;stroke:#000000;stroke-width:0.3985;stroke-linecap:butt;stroke-linejoin:miter;stroke-miterlimit:10;stroke-dasharray:none;stroke-opacity:1"
       transform="matrix(1.3333333,0,0,-1.3333333,19.454667,131.58133)" />
    <g
       id="g10"
       aria-label="70&#10;◦"
       transform="matrix(1.3333333,0,0,1.3333333,67.016,40.136)">
      <path
         id="path11"
         d="m 4.7458125,-6.0697734 c 0.082031,-0.1171875 0.082031,-0.140625 0.082031,-0.3398438 H 2.4137813 c -1.21875,0 -1.2421875,-0.1289062 -1.2773438,-0.328125 H 0.89034375 l -0.328125,2.0507813 H 0.8083125 C 0.83175,-4.8393047 0.9255,-5.4721172 1.0544063,-5.5893047 c 0.070312,-0.058594 0.84375,-0.058594 0.9726562,-0.058594 h 2.0625 c -0.1054687,0.1640625 -0.890625,1.2421875 -1.1132812,1.5703125 -0.890625,1.3476562 -1.21875,2.7304687 -1.21875,3.74999996 0,0.09375 0,0.55078125 0.4570312,0.55078125 0.4570313,0 0.4570313,-0.45703125 0.4570313,-0.55078125 v -0.50390625 c 0,-0.55078121 0.023437,-1.10156251 0.1054687,-1.64062501 0.046875,-0.2226562 0.1757813,-1.078125 0.6210938,-1.6992187 z m 4.8164063,2.8828125 c 0,-0.796875 -0.046875,-1.59375 -0.3984375,-2.3320313 -0.4570313,-0.9609375 -1.2773438,-1.1132812 -1.6875,-1.1132812 -0.5976563,0 -1.3359375,0.2578125 -1.734375,1.1835937 -0.328125,0.6914063 -0.375,1.4648438 -0.375,2.2617188 0,0.75 0.046875,1.640625 0.4453125,2.40234371 0.4335937,0.80859375 1.1601562,1.0078125 1.6523437,1.0078125 0.5390625,0 1.2890625,-0.2109375 1.734375,-1.16015625 C 9.5153438,-1.6283672 9.5622188,-2.4018047 9.5622188,-3.1869609 Z M 7.4645625,5.390625e-4 c -0.3867187,0 -0.984375,-0.2460937525 -1.1601562,-1.2070312625 -0.1054688,-0.5976562 -0.1054688,-1.5117187 -0.1054688,-2.0976562 0,-0.6445313 0,-1.3007813 0.082031,-1.8398438 0.1875,-1.1835937 0.9257812,-1.265625 1.1835937,-1.265625 0.328125,0 0.984375,0.1757813 1.171875,1.1601563 0.09375,0.5625 0.09375,1.3125 0.09375,1.9453125 0,0.75 0,1.4179687 -0.1054687,2.0625 C 8.472375,-0.30414844 7.909875,5.390625e-4 7.4645625,5.390625e-4 Z m 0,0"
         style="fill:#000000;fill-opacity:1;fill-rule:nonzero;stroke:none" />
      <path
         id="path12"
         d="m 13.502648,-5.3607891 c 0,-0.84375 -0.679687,-1.5 -1.5,-1.5 -0.84375,0 -1.5,0.6796875 -1.5,1.5 0,0.84375 0.679688,1.5 1.5,1.5 0.832032,0 1.5,-0.6796875 1.5,-1.5 z m -1.5,1.1484375 c -0.65625,0 -1.160156,-0.5273437 -1.160156,-1.1484375 0,-0.6445312 0.515625,-1.1601562 1.160156,-1.1601562 0.65625,0 1.160157,0.5390625 1.160157,1.1601562 0,0.6445313 -0.527344,1.1484375 -1.160157,1.1484375 z m 0,0"
         style="fill:#000000;fill-opacity:1;fill-rule:nonzero;stroke:none" />
    </g>
    <path
       id="path13"
       d="m 75.584,35.44464 c 2.36517,1.57677 3.78714,4.23285 3.78714,7.07556"
       style="fill:none;stroke:#000000;stroke-width:0.3985;stroke-linecap:butt;stroke-linejoin:miter;stroke-miterlimit:10;stroke-dasharray:none;stroke-opacity:1"
       transform="matrix(1.3333333,0,0,-1.3333333,19.454667,131.58133)" />
    <g
       id="g13"
       aria-label="55&#10;◦"
       transform="matrix(1.3333333,0,0,1.3333333,120.82933,84.182667)">
      <path
         id="path14"
         d="m 4.4756563,-2.0032109 c 0,-1.1835938 -0.8203125,-2.1796875 -1.8984375,-2.1796875 -0.4804688,0 -0.9023438,0.1640625 -1.265625,0.5039062 v -1.9335937 c 0.1992187,0.058594 0.5273437,0.1289062 0.84375,0.1289062 1.2304687,0 1.9335937,-0.9140625 1.9335937,-1.0429687 0,-0.058594 -0.035156,-0.1054688 -0.1054687,-0.1054688 -0.011719,0 -0.035156,0 -0.082031,0.023437 -0.1992187,0.09375 -0.6796875,0.2929688 -1.3476562,0.2929688 -0.3984375,0 -0.8554688,-0.070312 -1.3242188,-0.28125 -0.082031,-0.023437 -0.1054687,-0.023437 -0.1289062,-0.023437 -0.09375,0 -0.09375,0.082031 -0.09375,0.234375 v 2.953125 c 0,0.1757812 0,0.2578125 0.140625,0.2578125 0.070312,0 0.082031,-0.035156 0.1289062,-0.09375 0.1054688,-0.1523438 0.4804688,-0.6914063 1.2773438,-0.6914063 0.5273437,0 0.7734375,0.4570313 0.8554687,0.6328125 0.1523438,0.375 0.1757813,0.7617188 0.1757813,1.2539063 0,0.3515625 0,0.9492187 -0.234375,1.37109371 -0.2460938,0.38671875 -0.609375,0.64453125 -1.0664063,0.64453125 -0.7265625,0 -1.30078125,-0.52734375 -1.46484375,-1.11328126 0.0234375,0.011719 0.0585938,0.011719 0.1640625,0.011719 0.32812505,0 0.50390625,-0.2460938 0.50390625,-0.4804688 0,-0.2460937 -0.1757812,-0.4921875 -0.50390625,-0.4921875 -0.140625,0 -0.48046875,0.070312 -0.48046875,0.5273438 0,0.85546871 0.6796875,1.82812496 1.7929688,1.82812496 1.1601562,0 2.1796875,-0.9609375 2.1796872,-2.22656266 z m 4.9833984,0 c 0,-1.1835938 -0.8203125,-2.1796875 -1.8984375,-2.1796875 -0.4804688,0 -0.9023438,0.1640625 -1.265625,0.5039062 v -1.9335937 c 0.1992187,0.058594 0.5273437,0.1289062 0.84375,0.1289062 1.2304687,0 1.9335937,-0.9140625 1.9335937,-1.0429687 0,-0.058594 -0.035156,-0.1054688 -0.1054687,-0.1054688 -0.011719,0 -0.035156,0 -0.082031,0.023437 -0.1992187,0.09375 -0.6796875,0.2929688 -1.3476562,0.2929688 -0.3984375,0 -0.8554688,-0.070312 -1.3242188,-0.28125 -0.082031,-0.023437 -0.1054687,-0.023437 -0.1289062,-0.023437 -0.09375,0 -0.09375,0.082031 -0.09375,0.234375 v 2.953125 c 0,0.1757812 0,0.2578125 0.140625,0.2578125 0.070312,0 0.082031,-0.035156 0.1289062,-0.09375 0.1054688,-0.1523438 0.4804688,-0.6914063 1.2773438,-0.6914063 0.5273437,0 0.7734375,0.4570313 0.8554687,0.6328125 0.1523438,0.375 0.1757813,0.7617188 0.1757813,1.2539063 0,0.3515625 0,0.9492187 -0.234375,1.37109371 -0.2460938,0.38671875 -0.609375,0.64453125 -1.0664063,0.64453125 -0.7265625,0 -1.3007812,-0.52734375 -1.4648437,-1.11328126 0.023437,0.011719 0.058594,0.011719 0.1640625,0.011719 0.328125,0 0.5039062,-0.2460938 0.5039062,-0.4804688 0,-0.2460937 -0.1757812,-0.4921875 -0.5039062,-0.4921875 -0.140625,0 -0.4804688,0.070312 -0.4804688,0.5273438 0,0.85546871 0.6796875,1.82812496 1.7929688,1.82812496 1.1601562,0 2.1796875,-0.9609375 2.1796872,-2.22656266 z m 0,0"
         style="fill:#000000;fill-opacity:1;fill-rule:nonzero;stroke:none" />
      <path
         id="path15"
         d="m 13.502023,-5.3606328 c 0,-0.84375 -0.679687,-1.5 -1.5,-1.5 -0.84375,0 -1.5,0.6796875 -1.5,1.5 0,0.84375 0.679688,1.5 1.5,1.5 0.832032,0 1.5,-0.6796875 1.5,-1.5 z m -1.5,1.1484375 c -0.65625,0 -1.160156,-0.5273438 -1.160156,-1.1484375 0,-0.6445313 0.515625,-1.1601563 1.160156,-1.1601563 0.65625,0 1.160157,0.5390625 1.160157,1.1601563 0,0.6445312 -0.527344,1.1484375 -1.160157,1.1484375 z m 0,0"
         style="fill:#000000;fill-opacity:1;fill-rule:nonzero;stroke:none" />
    </g>
  </g>
</svg>
