<svg xmlns="http://www.w3.org/2000/svg" width="171.13454pt" height="86.24844pt" viewBox="-72 -72 171.13454 86.24844" style="position: absolute; top: 0pt; left: 0pt; overflow: visible;">
<g transform="translate(-58.04293823242186,0.27917480468749994)">
<g stroke-miterlimit="10" transform="scale(1,-1)"><g stroke="#000" fill="#000">
 <g stroke-width="0.4">
 <g stroke-width="0.8">
 <path d=" M 0.0 0.0 L 113.81097 0.0 L 142.26372 56.90549 L 28.45274 56.90549 Z  " fill="none"/>
 </g>
 <path d=" M 28.45274 56.90549 L 113.81097 0.0  " fill="none"/>
 <path d=" M 0.0 0.0 L 142.26372 56.90549  " fill="none"/>
 <g transform="translate(66.54851,31.98572)">
 <g stroke="none" transform="scale(-1.00375,1.00375)translate(-54.70960998535155,0.27917480468749994)scale(-1,-1)"><g fill="#000">
 <g stroke="none"> <text alignment-baseline="baseline" y="0.27917480468749994" x="-54.70960998535155" style="font-family: cmr10;" font-size="10">M</text>
</g> </g>
 </g></g>
 <g transform="translate(18.1142,60.43846)">
 <g stroke="none" transform="scale(-1.00375,1.00375)translate(-54.70960998535155,0.27917480468749994)scale(-1,-1)"><g fill="#000">
 <g stroke="none"> <text alignment-baseline="baseline" y="0.27917480468749994" x="-54.70960998535155" style="font-family: cmr10;" font-size="10">P</text>
</g> </g>
 </g></g>
 <g transform="translate(145.79669,62.38289)">
 <g stroke="none" transform="scale(-1.00375,1.00375)translate(-54.70960998535155,0.27917480468749994)scale(-1,-1)"><g fill="#000">
 <g stroke="none"> <text alignment-baseline="baseline" y="0.27917480468749994" x="-54.70960998535155" style="font-family: cmr10;" font-size="10">Q</text>
</g> </g>
 </g></g>
 <g transform="translate(117.34395,-10.36629)">
 <g stroke="none" transform="scale(-1.00375,1.00375)translate(-54.70960998535155,0.27917480468749994)scale(-1,-1)"><g fill="#000">
 <g stroke="none"> <text alignment-baseline="baseline" y="0.27917480468749994" x="-54.70960998535155" style="font-family: cmr10;" font-size="10">S</text>
</g> </g>
 </g></g>
 <g transform="translate(-10.89409,-10.36629)">
 <g stroke="none" transform="scale(-1.00375,1.00375)translate(-54.70960998535155,0.27917480468749994)scale(-1,-1)"><g fill="#000">
 <g stroke="none"> <text alignment-baseline="baseline" y="0.27917480468749994" x="-54.70960998535155" style="font-family: cmr10;" font-size="10">R</text>
</g> </g>
 </g></g>
 <path d=" M 65.44139 31.29819 L 68.2864 36.98865 L 73.9773 34.1432  " fill="none"/>
 </g>
 </g>
 </g></g></svg>