<?xml version="1.0" encoding="UTF-8" standalone="no"?>
<!-- Created with Inkscape (http://www.inkscape.org/) -->

<svg
   version="1.1"
   id="svg1"
   width="207.89333"
   height="225.84"
   viewBox="0 0 207.89333 225.84"
   sodipodi:docname="upload_sqymowz6wghmuy3x3y7ikrxwwg.pdf"
   xmlns:inkscape="http://www.inkscape.org/namespaces/inkscape"
   xmlns:sodipodi="http://sodipodi.sourceforge.net/DTD/sodipodi-0.dtd"
   xmlns="http://www.w3.org/2000/svg"
   xmlns:svg="http://www.w3.org/2000/svg">
  <defs
     id="defs1" />
  <sodipodi:namedview
     id="namedview1"
     pagecolor="#ffffff"
     bordercolor="#000000"
     borderopacity="0.25"
     inkscape:showpageshadow="2"
     inkscape:pageopacity="0.0"
     inkscape:pagecheckerboard="0"
     inkscape:deskcolor="#d1d1d1">
    <inkscape:page
       x="0"
       y="0"
       inkscape:label="1"
       id="page1"
       width="207.89333"
       height="225.84"
       margin="0"
       bleed="0" />
  </sodipodi:namedview>
  <g
     id="g1"
     inkscape:groupmode="layer"
     inkscape:label="1">
    <path
       id="path1"
       d="M 70.867,0 C 70.867,39.13927 39.13927,70.867 0,70.867 -39.13927,70.867 -70.867,39.13927 -70.867,0 c 0,-39.13927 31.72773,-70.867 70.867,-70.867 39.13927,0 70.867,31.72773 70.867,70.867 z"
       style="fill:none;stroke:#000000;stroke-width:0.79701;stroke-linecap:butt;stroke-linejoin:miter;stroke-miterlimit:10;stroke-dasharray:none;stroke-opacity:1"
       transform="matrix(1.3333333,0,0,-1.3333333,107.33467,113.13867)" />
    <path
       id="path2"
       d="M 0,70.88214 V -70.88214"
       style="fill:none;stroke:#000000;stroke-width:0.79701;stroke-linecap:butt;stroke-linejoin:miter;stroke-miterlimit:10;stroke-dasharray:none;stroke-opacity:1"
       transform="matrix(1.3333333,0,0,-1.3333333,107.33467,113.13867)" />
    <path
       id="path3"
       d="M -66.60771,-24.2435 0,70.88214 61.38583,-35.44101"
       style="fill:none;stroke:#000000;stroke-width:0.79701;stroke-linecap:butt;stroke-linejoin:miter;stroke-miterlimit:10;stroke-dasharray:none;stroke-opacity:1"
       transform="matrix(1.3333333,0,0,-1.3333333,107.33467,113.13867)" />
    <path
       id="path4"
       d="M -66.60771,-24.2435 0,0 61.38583,-35.44101"
       style="fill:none;stroke:#000000;stroke-width:0.79701;stroke-linecap:butt;stroke-linejoin:miter;stroke-miterlimit:10;stroke-dasharray:none;stroke-opacity:1"
       transform="matrix(1.3333333,0,0,-1.3333333,107.33467,113.13867)" />
    <path
       id="path5"
       d="M 0,0 V 70.88214"
       style="fill:none;stroke:#000000;stroke-width:0.79701;stroke-linecap:butt;stroke-linejoin:miter;stroke-miterlimit:10;stroke-dasharray:none;stroke-opacity:1"
       transform="matrix(1.3333333,0,0,-1.3333333,107.33467,113.13867)" />
    <path
       id="path6"
       d="M 7.1353906,0.001125 V -0.3035625 H 6.9596094 c -0.5976563,0 -0.7382813,-0.0703125 -0.84375,-0.3984375 l -2.15625,-6.234375 c -0.046875,-0.1289063 -0.070312,-0.1992188 -0.2226563,-0.1992188 -0.1640625,0 -0.1875,0.058594 -0.2460937,0.1992188 l -2.0625,5.96484375 C 1.2525781,-0.467625 0.85414063,-0.31528125 0.31507813,-0.3035625 V 0.001125 L 1.3346094,-0.03403125 2.4830469,0.001125 v -0.3046875 c -0.5039063,0 -0.75,-0.2578125 -0.75,-0.515625 0,-0.0234375 0.011719,-0.12890625 0.023437,-0.140625 l 0.4570312,-1.3125 h 2.4609375 l 0.5273438,1.5234375 c 0.011719,0.046875 0.023437,0.10546875 0.023437,0.140625 0,0.3046875 -0.5507813,0.3046875 -0.8203125,0.3046875 V 0.001125 C 4.7564844,-0.03403125 5.4596094,-0.03403125 5.8346094,-0.03403125 Z M 4.5572656,-2.577 H 2.3189844 l 1.1132812,-3.234375 z m 0,0"
       style="fill:#000000;fill-opacity:1;fill-rule:nonzero;stroke:none"
       aria-label="A"
       transform="matrix(1.3333333,0,0,1.3333333,102.35333,13.936)" />
    <path
       id="path7"
       d="m 7.0442578,-3.3520156 c 0,-1.8867188 -1.3476562,-3.4570313 -3.046875,-3.4570313 H 0.35285156 v 0.3164063 h 0.234375 c 0.77343754,0 0.78515624,0.1054687 0.78515624,0.46875 v 5.24999997 c 0,0.3515625 -0.011719,0.46875 -0.78515624,0.46875 h -0.234375 V -4.53125e-4 H 3.9973828 c 1.6757813,0 3.046875,-1.476562475 3.046875,-3.351562475 z m -0.9960937,0 c 0,1.1132812 -0.1875,1.7109375 -0.5507813,2.1914062 -0.1992187,0.26953127 -0.7617187,0.85546877 -1.7695312,0.85546877 H 2.7200391 c -0.46875,0 -0.4921875,-0.0703125 -0.4921875,-0.3984375 V -6.0942031 c 0,-0.328125 0.023437,-0.3984375 0.4921875,-0.3984375 h 0.9960937 c 0.6210938,0 1.3007813,0.2109375 1.8164063,0.9257812 0.421875,0.5859375 0.515625,1.4414063 0.515625,2.2148438 z m 0,0"
       style="fill:#000000;fill-opacity:1;fill-rule:nonzero;stroke:none"
       aria-label="D"
       transform="matrix(1.3333333,0,0,1.3333333,102.26,221.41467)" />
    <path
       id="path8"
       d="m 6.4798047,-1.828125 c 0,-0.8671875 -0.8085938,-1.6054688 -1.921875,-1.7226563 C 5.5305859,-3.75 6.2102734,-4.3828125 6.2102734,-5.1210938 c 0,-0.8671875 -0.9140625,-1.6875 -2.203125,-1.6875 H 0.36261719 v 0.3164063 h 0.234375 c 0.76171871,0 0.78515621,0.1054687 0.78515621,0.46875 v 5.25 c 0,0.3515625 -0.023437,0.46875 -0.78515621,0.46875 h -0.234375 V 0 H 4.2649609 C 5.5891797,0 6.4798047,-0.890625 6.4798047,-1.828125 Z M 5.2493359,-5.1210938 c 0,0.6328125 -0.4921875,1.4765625 -1.59375,1.4765625 H 2.2141797 V -6.09375 c 0,-0.328125 0.011719,-0.3984375 0.4804687,-0.3984375 h 1.2421875 c 0.9609375,0 1.3125,0.84375 1.3125,1.3710937 z m 0.234375,3.2929688 c 0,0.703125 -0.515625,1.5234375 -1.5351562,1.5234375 H 2.6946484 c -0.46875,0 -0.4804687,-0.0703125 -0.4804687,-0.3984375 v -2.71875 h 1.875 c 0.984375,0 1.3945312,0.9257812 1.3945312,1.59375 z m 0,0"
       style="fill:#000000;fill-opacity:1;fill-rule:nonzero;stroke:none"
       aria-label="B"
       transform="matrix(1.3333333,0,0,1.3333333,4.4266667,150)" />
    <path
       id="path9"
       d="m 6.6203437,-2.3200469 c 0,-0.1054687 0,-0.1757812 -0.1289062,-0.1757812 -0.1054688,0 -0.1054688,0.070312 -0.1171875,0.1640625 -0.082031,1.42968747 -1.1484375,2.23828122 -2.2265625,2.23828122 -0.609375,0 -2.5664063,-0.33984375 -2.5664063,-3.30468752 0,-2.9765625 1.9453125,-3.3164062 2.5546875,-3.3164062 1.078125,0 1.96875,0.9023437 2.1679688,2.3671875 0.023437,0.1289062 0.023437,0.1640625 0.1640625,0.1640625 0.1523437,0 0.1523437,-0.035156 0.1523437,-0.234375 v -2.3671875 c 0,-0.1640625 0,-0.234375 -0.1054687,-0.234375 -0.035156,0 -0.082031,0 -0.1640625,0.1171875 L 5.858625,-6.1637969 c -0.375,-0.3632812 -0.8789063,-0.8554687 -1.8398438,-0.8554687 -1.8632812,0 -3.4570312,1.5820312 -3.4570312,3.609375 0,2.0625 1.6054687,3.63281247 3.4570312,3.63281247 1.6289063,0 2.6015625,-1.38281247 2.6015625,-2.54296877 z m 0,0"
       style="fill:#000000;fill-opacity:1;fill-rule:nonzero;stroke:none"
       aria-label="C"
       transform="matrix(1.3333333,0,0,1.3333333,193.876,164.92933)" />
    <path
       id="path10"
       d="m 8.7534141,-0.00124219 v -0.3046875 h -0.234375 c -0.7734375,0 -0.7851563,-0.1171875 -0.7851563,-0.46875 V -6.0246797 c 0,-0.3632812 0.011719,-0.46875 0.7851563,-0.46875 h 0.234375 V -6.8098359 H 7.0776328 c -0.2695312,0 -0.2695312,0.011719 -0.3398437,0.1992187 l -2.1796875,5.6015625 -2.15625,-5.578125 C 2.3081016,-6.8098359 2.2846641,-6.8098359 2.0502891,-6.8098359 H 0.36278906 v 0.3164062 h 0.24609375 c 0.76171879,0 0.78515629,0.1054688 0.78515629,0.46875 v 4.9804688 c 0,0.26953121 0,0.73828121 -1.03125004,0.73828121 v 0.3046875 l 1.17187504,-0.03515625 1.1601562,0.03515625 v -0.3046875 c -1.0195312,0 -1.0195312,-0.46875 -1.0195312,-0.73828121 v -5.3671875 h 0.011719 l 2.4023438,6.18749996 c 0.046875,0.12890625 0.09375,0.22265625 0.1992187,0.22265625 0.1054688,0 0.1289063,-0.08203125 0.1757813,-0.1875 L 6.9135703,-6.4934297 h 0.011719 v 5.71875001 c 0,0.3515625 -0.023437,0.46875 -0.7851563,0.46875 H 5.8940391 v 0.3046875 c 0.375,-0.03515625 1.0429687,-0.03515625 1.4414062,-0.03515625 0.3867188,0 1.0546875,0 1.4179688,0.03515625 z m 0,0"
       style="fill:#000000;fill-opacity:1;fill-rule:nonzero;stroke:none"
       aria-label="M"
       transform="matrix(1.3333333,0,0,1.3333333,112.028,126.904)" />
    <path
       id="path11"
       d="M 1.24535,0 C 1.24535,0.68777 0.68777,1.24535 0,1.24535 -0.68777,1.24535 -1.24535,0.68777 -1.24535,0 c 0,-0.68777 0.55758,-1.24535 1.24535,-1.24535 0.68777,0 1.24535,0.55758 1.24535,1.24535 z"
       style="fill:#000000;fill-opacity:1;fill-rule:nonzero;stroke:none"
       transform="matrix(1.3333333,0,0,-1.3333333,107.33467,113.13867)" />
    <path
       id="path12"
       d="M -9.75528,56.9349 C -6.89664,54.93329 -3.48982,53.85875 0,53.85875"
       style="fill:none;stroke:#000000;stroke-width:0.3985;stroke-linecap:butt;stroke-linejoin:miter;stroke-miterlimit:10;stroke-dasharray:none;stroke-opacity:1"
       transform="matrix(1.3333333,0,0,-1.3333333,107.33467,113.13867)" />
    <g
       id="g12"
       aria-label="35&#10;◦"
       transform="matrix(1.3333333,0,0,1.3333333,89.013333,44.514667)">
      <path
         id="path13"
         d="M 2.8933203,-3.5031875 C 3.7019141,-3.7727188 4.2878516,-4.4758438 4.2878516,-5.261 c 0,-0.8203125 -0.8789063,-1.3710938 -1.8398438,-1.3710938 -1.0078125,0 -1.75781249,0.5976563 -1.75781249,1.3476563 0,0.3398437 0.2109375,0.5273437 0.50390629,0.5273437 0.3046875,0 0.5039062,-0.2226562 0.5039062,-0.515625 0,-0.4921875 -0.46875,-0.4921875 -0.609375,-0.4921875 C 1.3933203,-6.2570938 2.0495703,-6.386 2.4128516,-6.386 c 0.4101562,0 0.9492187,0.2226562 0.9492187,1.1132812 0,0.1289063 -0.011719,0.703125 -0.2695312,1.1367188 -0.3046875,0.4804687 -0.6445313,0.515625 -0.890625,0.515625 -0.082031,0.011719 -0.3164063,0.035156 -0.3867188,0.035156 -0.082031,0.011719 -0.1523437,0.023437 -0.1523437,0.1171875 0,0.1171875 0.070312,0.1171875 0.234375,0.1171875 h 0.4453125 c 0.8085937,0 1.1835937,0.6679688 1.1835937,1.6523438 0,1.34765625 -0.6914062,1.640625 -1.125,1.640625 -0.4335937,0 -1.171875,-0.17578125 -1.52343749,-0.76171875 C 1.2292578,-0.761 1.5339453,-0.98365625 1.5339453,-1.3586563 c 0,-0.3632812 -0.2695312,-0.5625 -0.56249999,-0.5625 -0.234375,0 -0.55078125,0.140625 -0.55078125,0.5742188 0,0.9140625 0.92578124,1.5703125 2.00390624,1.5703125 1.21875,0 2.1210938,-0.9140625 2.1210938,-1.921875 0,-0.8203125 -0.6210938,-1.59375 -1.6523438,-1.8046875 z m 6.5654297,1.5 c 0,-1.1835938 -0.8203125,-2.1796875 -1.8984375,-2.1796875 -0.4804688,0 -0.9023438,0.1640625 -1.265625,0.5039062 v -1.9335937 c 0.1992187,0.058594 0.5273437,0.1289062 0.84375,0.1289062 1.2304687,0 1.9335937,-0.9140625 1.9335937,-1.0429687 0,-0.058594 -0.035156,-0.1054688 -0.1054687,-0.1054688 -0.011719,0 -0.035156,0 -0.082031,0.023437 -0.1992187,0.09375 -0.6796875,0.2929688 -1.3476562,0.2929688 -0.3984375,0 -0.8554688,-0.070312 -1.3242188,-0.28125 C 6.130625,-6.620375 6.1071875,-6.620375 6.08375,-6.620375 5.99,-6.620375 5.99,-6.5383438 5.99,-6.386 v 2.953125 c 0,0.1757812 0,0.2578125 0.140625,0.2578125 0.070312,0 0.082031,-0.035156 0.1289062,-0.09375 C 6.365,-3.4211563 6.74,-3.9602188 7.536875,-3.9602188 c 0.5273437,0 0.7734375,0.4570313 0.8554687,0.6328125 0.1523438,0.375 0.1757813,0.7617188 0.1757813,1.2539063 0,0.3515625 0,0.9492187 -0.234375,1.37109375 C 8.0876562,-0.3156875 7.724375,-0.057875 7.2673437,-0.057875 c -0.7265625,0 -1.3007812,-0.52734375 -1.4648437,-1.1132813 0.023437,0.011719 0.058594,0.011719 0.1640625,0.011719 0.328125,0 0.5039062,-0.2460938 0.5039062,-0.4804688 0,-0.2460937 -0.1757812,-0.4921875 -0.5039062,-0.4921875 -0.140625,0 -0.4804688,0.070312 -0.4804688,0.5273438 0,0.85546875 0.6796875,1.828125 1.7929688,1.828125 1.1601562,0 2.1796875,-0.9609375 2.1796875,-2.2265627 z m 0,0"
         style="fill:#000000;fill-opacity:1;fill-rule:nonzero;stroke:none" />
      <path
         id="path14"
         d="m 13.501719,-5.3635391 c 0,-0.84375 -0.679688,-1.5 -1.5,-1.5 -0.84375,0 -1.5,0.6796875 -1.5,1.5 0,0.84375 0.679687,1.5 1.5,1.5 0.832031,0 1.5,-0.6796875 1.5,-1.5 z m -1.5,1.1484375 c -0.65625,0 -1.160157,-0.5273437 -1.160157,-1.1484375 0,-0.6445312 0.515625,-1.1601562 1.160157,-1.1601562 0.65625,0 1.160156,0.5390625 1.160156,1.1601562 0,0.6445313 -0.527344,1.1484375 -1.160156,1.1484375 z m 0,0"
         style="fill:#000000;fill-opacity:1;fill-rule:nonzero;stroke:none" />
    </g>
    <path
       id="path15"
       d="m 54.28629,-23.15915 c -2.15403,-1.24361 -3.94425,-3.03383 -5.18786,-5.18785"
       style="fill:none;stroke:#000000;stroke-width:0.3985;stroke-linecap:butt;stroke-linejoin:miter;stroke-miterlimit:10;stroke-dasharray:none;stroke-opacity:1"
       transform="matrix(1.3333333,0,0,-1.3333333,107.33467,113.13867)" />
    <g
       id="g15"
       aria-label="30&#10;◦"
       transform="matrix(1.3333333,0,0,1.3333333,162.00267,151.26933)">
      <path
         id="path16"
         d="m 2.8954609,-3.5037578 c 0.8085938,-0.2695313 1.3945313,-0.9726563 1.3945313,-1.7578125 0,-0.8203125 -0.8789063,-1.3710938 -1.8398438,-1.3710938 -1.0078125,0 -1.75781246,0.5976563 -1.75781246,1.3476563 0,0.3398437 0.2109375,0.5273437 0.50390626,0.5273437 0.3046875,0 0.5039062,-0.2226562 0.5039062,-0.515625 0,-0.4921875 -0.46875,-0.4921875 -0.609375,-0.4921875 0.3046875,-0.4921875 0.9609375,-0.6210937 1.3242188,-0.6210937 0.4101562,0 0.9492187,0.2226562 0.9492187,1.1132812 0,0.1289063 -0.011719,0.703125 -0.2695312,1.1367188 -0.3046875,0.4804687 -0.6445313,0.515625 -0.890625,0.515625 -0.082031,0.011719 -0.3164063,0.035156 -0.3867188,0.035156 -0.082031,0.011719 -0.1523437,0.023437 -0.1523437,0.1171875 0,0.1171875 0.070312,0.1171875 0.234375,0.1171875 h 0.4453125 c 0.8085937,0 1.1835937,0.6679688 1.1835937,1.6523438 0,1.34765624 -0.6914062,1.64062499 -1.125,1.64062499 -0.4335937,0 -1.171875,-0.17578125 -1.52343746,-0.76171875 0.35156246,0.0585938 0.65624996,-0.1640625 0.65624996,-0.53906254 0,-0.3632812 -0.2695312,-0.5625 -0.56249996,-0.5625 -0.234375,0 -0.55078125,0.140625 -0.55078125,0.5742188 0,0.91406249 0.92578121,1.57031249 2.00390621,1.57031249 1.21875,0 2.1210938,-0.9140625 2.1210938,-1.92187499 0,-0.8203125 -0.6210938,-1.59375 -1.6523438,-1.8046873 z m 6.6679688,0.3164062 c 0,-0.796875 -0.046875,-1.59375 -0.3984375,-2.3320312 -0.4570313,-0.9609375 -1.2773438,-1.1132813 -1.6875,-1.1132813 -0.5976563,0 -1.3359375,0.2578125 -1.734375,1.1835938 -0.328125,0.6914062 -0.375,1.4648437 -0.375,2.2617187 0,0.75 0.046875,1.640625 0.4453125,2.40234379 0.4335937,0.80859375 1.1601562,1.0078125 1.6523437,1.0078125 0.5390625,0 1.2890625,-0.2109375 1.734375,-1.16015625 C 9.5165547,-1.6287578 9.5634297,-2.4021953 9.5634297,-3.1873516 Z M 7.4657734,1.484375e-4 c -0.3867187,0 -0.984375,-0.2460937475 -1.1601562,-1.2070312375 -0.1054688,-0.5976563 -0.1054688,-1.5117188 -0.1054688,-2.0976563 0,-0.6445312 0,-1.3007812 0.082031,-1.8398437 0.1875,-1.1835938 0.9257812,-1.265625 1.1835937,-1.265625 0.328125,0 0.984375,0.1757812 1.171875,1.1601562 0.09375,0.5625 0.09375,1.3125 0.09375,1.9453125 0,0.75 0,1.4179688 -0.1054687,2.0625 C 8.4735859,-0.30453906 7.9110859,1.484375e-4 7.4657734,1.484375e-4 Z m 0,0"
         style="fill:#000000;fill-opacity:1;fill-rule:nonzero;stroke:none" />
      <path
         id="path17"
         d="m 13.50093,-5.3611797 c 0,-0.84375 -0.679688,-1.5 -1.5,-1.5 -0.84375,0 -1.5,0.6796875 -1.5,1.5 0,0.84375 0.679687,1.5 1.5,1.5 0.832031,0 1.5,-0.6796875 1.5,-1.5 z m -1.5,1.1484375 c -0.65625,0 -1.160157,-0.5273437 -1.160157,-1.1484375 0,-0.6445312 0.515625,-1.1601562 1.160157,-1.1601562 0.65625,0 1.160156,0.5390625 1.160156,1.1601562 0,0.6445313 -0.527344,1.1484375 -1.160156,1.1484375 z m 0,0"
         style="fill:#000000;fill-opacity:1;fill-rule:nonzero;stroke:none" />
    </g>
  </g>
</svg>
