<svg xmlns="http://www.w3.org/2000/svg" width="182.25006pt" height="152.59106pt" viewBox="-72 -72 182.25006 152.59106" style="position: absolute; top: 0pt; left: 0pt; overflow: visible;">
<g transform="translate(-54.57072448730467,66.62179565429686)">
<g stroke-miterlimit="10" transform="scale(1,-1)"><g stroke="#000" fill="#000">
 <g stroke-width="0.4">
 <g stroke-width="0.8">
 <path d=" M 0.0 0.0 L 136.57368 0.0 L 136.57368 91.04912 L 0.0 91.04912 Z  " fill="none"/>
 </g>
 <path d=" M 0.0 91.0539 L 68.29042 0.0 L 136.58086 91.0539  " fill="none"/>
 <path d=" M 136.57368 91.04912 C 136.57368 109.90623 106.0011 125.19252 68.28685 125.19252 C 30.5726 125.19252 0.00002 109.90623 0.00002 91.04912  " fill="none"/>
 <g transform="translate(-10.61632,-10.36629)">
 <g stroke="none" transform="scale(-1.00375,1.00375)translate(-51.23739624023436,66.62179565429686)scale(-1,-1)"><g fill="#000">
 <g stroke="none"> <text alignment-baseline="baseline" y="66.62179565429686" x="-51.23739624023436" style="font-family: cmr10;" font-size="10">B</text>
</g> </g>
 </g></g>
 <g transform="translate(140.11383,-10.36629)">
 <g stroke="none" transform="scale(-1.00375,1.00375)translate(-51.23739624023436,66.62179565429686)scale(-1,-1)"><g fill="#000">
 <g stroke="none"> <text alignment-baseline="baseline" y="66.62179565429686" x="-51.23739624023436" style="font-family: cmr10;" font-size="10">C</text>
</g> </g>
 </g></g>
 <g transform="translate(140.11383,94.58687)">
 <g stroke="none" transform="scale(-1.00375,1.00375)translate(-51.23739624023436,66.62179565429686)scale(-1,-1)"><g fill="#000">
 <g stroke="none"> <text alignment-baseline="baseline" y="66.62179565429686" x="-51.23739624023436" style="font-family: cmr10;" font-size="10">D</text>
</g> </g>
 </g></g>
 <g transform="translate(-11.03297,94.58687)">
 <g stroke="none" transform="scale(-1.00375,1.00375)translate(-51.23739624023436,66.62179565429686)scale(-1,-1)"><g fill="#000">
 <g stroke="none"> <text alignment-baseline="baseline" y="66.62179565429686" x="-51.23739624023436" style="font-family: cmr10;" font-size="10">A</text>
</g> </g>
 </g></g>
 <g transform="translate(64.40152,-10.36629)">
 <g stroke="none" transform="scale(-1.00375,1.00375)translate(-51.23739624023436,66.62179565429686)scale(-1,-1)"><g fill="#000">
 <g stroke="none"> <text alignment-baseline="baseline" y="66.62179565429686" x="-51.23739624023436" style="font-family: cmr10;" font-size="10">O</text>
</g> </g>
 </g></g>
 <g transform="translate(64.88405,128.72551)">
 <g stroke="none" transform="scale(-1.00375,1.00375)translate(-51.23739624023436,66.62179565429686)scale(-1,-1)"><g fill="#000">
 <g stroke="none"> <text alignment-baseline="baseline" y="66.62179565429686" x="-51.23739624023436" style="font-family: cmr10;" font-size="10">E</text>
</g> </g>
 </g></g>
 <g transform="translate(23.58783,94.58209)">
 <g stroke="none" transform="scale(-1.00375,1.00375)translate(-51.23739624023436,66.62179565429686)scale(-1,-1)"><g fill="#000">
 <g stroke="none"> <text alignment-baseline="baseline" y="66.62179565429686" x="-51.23739624023436" style="font-family: cmr10;" font-size="10">6</text>
<text alignment-baseline="baseline" y="66.62179565429686" x="-42.90404891967773" style="font-family: cmr10;" font-size="10">cm</text>
</g> </g>
 </g></g>
 <g transform="translate(140.10666,42.30234)">
 <g stroke="none" transform="scale(-1.00375,1.00375)translate(-51.23739624023436,66.62179565429686)scale(-1,-1)"><g fill="#000">
 <g stroke="none"> <text alignment-baseline="baseline" y="66.62179565429686" x="-51.23739624023436" style="font-family: cmr10;" font-size="10">4</text>
<text alignment-baseline="baseline" y="66.62179565429686" x="-42.90404891967773" style="font-family: cmr10;" font-size="10">cm</text>
</g> </g>
 </g></g>
 <path d=" M 68.28683 22.76227  " fill="none"/>
 <g transform="translate(60.9882,19.31934)">
 <g stroke="none" transform="scale(-1.00375,1.00375)translate(-51.23739624023436,66.62179565429686)scale(-1,-1)"><g fill="#000">
 <g stroke="none"> <text alignment-baseline="baseline" y="66.62179565429686" x="-51.23739624023436" style="font-family: cmr10;" font-size="10">60</text>
<text alignment-baseline="baseline" y="62.9928741455078" x="-41.23735809326171" style="font-family: cmsy7;" font-size="7">◦</text>
</g> </g>
 </g></g>
 <g stroke-width="0.8">
 <path d=" M 34.1434 -2.27635 L 34.1434 2.27635  " fill="none"/>
 </g>
 <g stroke-width="0.8">
 <path d=" M 102.43025 -2.27635 L 102.43025 2.27635  " fill="none"/>
 </g>
 <g stroke-width="0.8">
 <path d=" M -2.27635 45.52455 L 2.27635 45.52455  " fill="none"/>
 </g>
 <g stroke-width="0.8">
 <path d=" M -2.27635 47.80092 L 2.27635 47.80092  " fill="none"/>
 </g>
 <g stroke-width="0.8">
 <path d=" M 134.2973 45.52455 L 138.85005 45.52455  " fill="none"/>
 </g>
 <g stroke-width="0.8">
 <path d=" M 134.2973 47.80092 L 138.85005 47.80092  " fill="none"/>
 </g>
 <path d=" M 129.74492 0.0 L 129.74492 6.82874 L 136.57368 6.82874  " fill="none"/>
 </g>
 </g>
 </g></g></svg>