<svg xmlns="http://www.w3.org/2000/svg" width="66.64426pt" height="52.74016pt" viewBox="-72 -72 66.64426 52.74016" style="position: absolute; top: 0pt; left: 0pt; overflow: visible;">
<g transform="translate(-66.71481323242186,-32.645767211914055)">
<g stroke-miterlimit="10" transform="scale(1,-1)"><g stroke="#000" fill="#000">
 <g stroke-width="0.4">
 <g stroke-width="0.8">
 <path d=" M 0.0 0.0 L 49.22311 0.0 L 49.22311 28.45274 Z  " fill="none"/>
 </g>
 <g transform="translate(-2.22221,-7.83852)">
 <g stroke="none" transform="scale(-1.00375,1.00375)translate(-63.38148498535155,-32.645767211914055)scale(-1,-1)"><g fill="#000">
 <g stroke="none"> <text alignment-baseline="baseline" y="-32.645767211914055" x="-63.38148498535155" style="font-family: cmr10;" font-size="10">z</text>
</g> </g>
 </g></g>
 <g transform="translate(46.58421,-7.83852)">
 <g stroke="none" transform="scale(-1.00375,1.00375)translate(-63.38148498535155,-32.645767211914055)scale(-1,-1)"><g fill="#000">
 <g stroke="none"> <text alignment-baseline="baseline" y="-32.645767211914055" x="-63.38148498535155" style="font-family: cmr10;" font-size="10">y</text>
</g> </g>
 </g></g>
 <g transform="translate(46.58421,31.98572)">
 <g stroke="none" transform="scale(-1.00375,1.00375)translate(-63.38148498535155,-32.645767211914055)scale(-1,-1)"><g fill="#000">
 <g stroke="none"> <text alignment-baseline="baseline" y="-32.645767211914055" x="-63.38148498535155" style="font-family: cmr10;" font-size="10">x</text>
</g> </g>
 </g></g>
 <g transform="translate(15.9364,17.75934)">
 <g stroke="none" transform="scale(-1.00375,1.00375)translate(-63.38148498535155,-32.645767211914055)scale(-1,-1)"><g fill="#000">
 <g stroke="none"> <text alignment-baseline="baseline" y="-32.645767211914055" x="-63.38148498535155" style="font-family: cmr10;" font-size="10">2</text>
</g> </g>
 </g></g>
 <g transform="translate(52.75609,11.00415)">
 <g stroke="none" transform="scale(-1.00375,1.00375)translate(-63.38148498535155,-32.645767211914055)scale(-1,-1)"><g fill="#000">
 <g stroke="none"> <text alignment-baseline="baseline" y="-32.645767211914055" x="-63.38148498535155" style="font-family: cmr10;" font-size="10">1</text>
</g> </g>
 </g></g>
 <path d=" M 43.53265 0.0 L 43.53265 5.69046 L 49.22311 5.69046  " fill="none"/>
 </g>
 </g>
 </g></g></svg>