<?xml version="1.0" encoding="UTF-8" standalone="no"?>
<!-- Created with Inkscape (http://www.inkscape.org/) -->

<svg
   version="1.1"
   id="svg1"
   width="166.8"
   height="217"
   viewBox="0 0 166.8 217"
   sodipodi:docname="upload_3ju6ws7ifnyxwlh7av6jnargz2.pdf"
   xmlns:inkscape="http://www.inkscape.org/namespaces/inkscape"
   xmlns:sodipodi="http://sodipodi.sourceforge.net/DTD/sodipodi-0.dtd"
   xmlns="http://www.w3.org/2000/svg"
   xmlns:svg="http://www.w3.org/2000/svg">
  <defs
     id="defs1" />
  <sodipodi:namedview
     id="namedview1"
     pagecolor="#ffffff"
     bordercolor="#000000"
     borderopacity="0.25"
     inkscape:showpageshadow="2"
     inkscape:pageopacity="0.0"
     inkscape:pagecheckerboard="0"
     inkscape:deskcolor="#d1d1d1">
    <inkscape:page
       x="0"
       y="0"
       inkscape:label="1"
       id="page1"
       width="166.8"
       height="217"
       margin="0"
       bleed="0" />
  </sodipodi:namedview>
  <g
     id="g1"
     inkscape:groupmode="layer"
     inkscape:label="1">
    <path
       id="path1"
       d="M 0,122.59961 V 0 h 70.867 z"
       style="fill:none;stroke:#000000;stroke-width:0.79701;stroke-linecap:butt;stroke-linejoin:miter;stroke-miterlimit:10;stroke-dasharray:none;stroke-opacity:1"
       transform="matrix(1.3333333,0,0,-1.3333333,40.114667,185.74933)" />
    <path
       id="path2"
       d="m 6.2101875,-4.9444453 c 0,-0.984375 -0.984375,-1.8632813 -2.34375,-1.8632813 h -3.515625 v 0.3164063 h 0.234375 c 0.7734375,0 0.7851562,0.1054687 0.7851562,0.46875 v 5.24999999 c 0,0.3515625 -0.011719,0.46875 -0.7851562,0.46875 H 0.3508125 V 8.671875e-4 C 0.702375,-0.03428906 1.4289375,-0.03428906 1.8156562,-0.03428906 c 0.375,0 1.125,0 1.4765625,0.0351562475 V -0.30382031 H 3.046125 c -0.7617188,0 -0.7851563,-0.1171875 -0.7851563,-0.46875 V -3.1514766 h 1.6875 c 1.1953125,0 2.2617188,-0.796875 2.2617188,-1.7929687 z m -1.0195313,0 c 0,0.4570312 0,1.5351562 -1.5820312,1.5351562 H 2.2258125 v -2.6835937 c 0,-0.328125 0.023437,-0.3984375 0.4921875,-0.3984375 h 0.890625 c 1.5820312,0 1.5820312,1.0546875 1.5820312,1.546875 z m 0,0"
       style="fill:#000000;fill-opacity:1;fill-rule:nonzero;stroke:none"
       aria-label="P"
       transform="matrix(1.3333333,0,0,1.3333333,26.376,26.784)" />
    <path
       id="path3"
       d="m 7.2416406,0.10686719 c 0,-0.10546875 0,-0.2109375 -0.1054687,-0.2109375 -0.09375,0 -0.1054688,0.0703125 -0.1171875,0.17578125 -0.058594,0.5390625 -0.4804688,0.83203125 -0.9023438,0.83203125 -0.46875,0 -0.7148437,-0.33984375 -0.9609375,-0.97265625 1.1835938,-0.52734375 2.0273438,-1.80468754 2.0273438,-3.30468754 0,-2.0390625 -1.5,-3.6445312 -3.3164063,-3.6445312 -1.78125,0 -3.30468748,1.59375 -3.30468748,3.6445312 0,2.015625 1.49999998,3.59765629 3.31640628,3.59765629 0.3046875,0 0.65625,-0.0585938 0.9375,-0.15234375 0.1523437,0.94921876 0.2929687,1.86328126 1.21875,1.86328126 1.0195312,0 1.2070312,-1.32421876 1.2070312,-1.82812501 z M 6.1869531,-3.3736016 c 0,0.7734375 -0.1171875,2.1796875 -1.171875,2.95312504 -0.2226562,-0.55078125 -0.5390625,-1.05468754 -1.125,-1.05468754 -0.515625,0 -0.8203125,0.4335938 -0.8203125,0.84375004 0,0.26953125 0.1289063,0.45703125 0.140625,0.46875 C 2.6713281,-0.36188281 1.5580469,-1.0884453 1.5580469,-3.3736016 c 0,-2.5898437 1.3945312,-3.3984375 2.3085937,-3.3984375 0.9609375,0 2.3203125,0.8554688 2.3203125,3.3984375 z m -1.4414062,3.11718754 c -0.328125,0.1875 -0.65625,0.22265625 -0.8671875,0.22265625 -0.515625,0 -0.5859375,-0.45703125 -0.5859375,-0.59765625 0,-0.29296875 0.1992187,-0.62109374 0.5976562,-0.62109374 0.5273438,0 0.75,0.42187499 0.8554688,0.99609374 z m 0,0"
       style="fill:#000000;fill-opacity:1;fill-rule:nonzero;stroke:none"
       aria-label="Q"
       transform="matrix(1.3333333,0,0,1.3333333,25.086667,189.14267)" />
    <path
       id="path4"
       d="m 7.2883672,-0.8784375 c 0,-0.0585938 0,-0.1640625 -0.1289063,-0.1640625 -0.1054687,0 -0.1054687,0.0820313 -0.1171875,0.15234375 -0.058594,0.71484375 -0.4101562,0.890625 -0.65625,0.890625 -0.4921875,0 -0.5742187,-0.50390625 -0.703125,-1.42968745 l -0.140625,-0.796875 C 5.3664922,-2.870625 4.8860234,-3.19875 4.3352422,-3.38625 5.2961797,-3.620625 6.0813359,-4.23 6.0813359,-5.0151562 c 0,-0.9492188 -1.1367187,-1.7929688 -2.6015625,-1.7929688 H 0.35086719 v 0.3164063 h 0.234375 c 0.77343751,0 0.78515621,0.1054687 0.78515621,0.46875 v 5.24999995 c 0,0.3515625 -0.011719,0.46875 -0.78515621,0.46875 h -0.234375 V 4.6875e-4 C 0.70242969,-0.0346875 1.4172734,-0.0346875 1.8039922,-0.0346875 c 0.3867187,0 1.0898437,0 1.453125,0.03515625 v -0.3046875 h -0.234375 c -0.7734375,0 -0.796875,-0.1171875 -0.796875,-0.46875 V -3.2925 h 1.1484375 c 0.1640625,0 0.5742187,0 0.9257812,0.3398438 0.3867188,0.3515625 0.3867188,0.65625 0.3867188,1.3242187 0,0.65625 0,1.0546875 0.3984375,1.4296875 0.4101562,0.36328125 0.9609375,0.421875 1.2539062,0.421875 0.7851563,0 0.9492188,-0.8203125 0.9492188,-1.1015625 z M 5.0500859,-5.0151562 c 0,0.6914062 -0.234375,1.5 -1.7109375,1.5 H 2.2258672 v -2.578125 c 0,-0.234375 0,-0.3515625 0.2226562,-0.3867188 0.1054688,-0.011719 0.3867188,-0.011719 0.5859375,-0.011719 0.9023438,0 2.015625,0.035156 2.015625,1.4765628 z m 0,0"
       style="fill:#000000;fill-opacity:1;fill-rule:nonzero;stroke:none"
       aria-label="R"
       transform="matrix(1.3333333,0,0,1.3333333,139.31733,190.14)" />
    <path
       id="path5"
       d="M 3.8801094,8.5189844 2.1222969,4.6400781 C 2.0519844,4.4877344 2.0051094,4.4877344 1.9699531,4.4877344 c -0.011719,0 -0.058594,0 -0.1640625,0.070312 l -0.94921873,0.726563 c -0.12890625,0.09375 -0.12890625,0.1289062 -0.12890625,0.1523437 0,0.046875 0.0351563,0.1054688 0.10546875,0.1054688 0.0585938,0 0.22265623,-0.1289063 0.32812503,-0.2109375 0.070312,-0.046875 0.2109375,-0.1640625 0.328125,-0.2460938 l 1.9570312,4.3125 c 0.070312,0.1640625 0.1171875,0.1640625 0.2109375,0.1640625 0.1523438,0 0.1757813,-0.058594 0.2460938,-0.1992187 L 8.4269844,-5.46875e-4 c 0.070312,-0.140625005 0.070312,-0.175781255 0.070312,-0.199218755 0,-0.10546875 -0.082031,-0.19921875 -0.1992188,-0.19921875 -0.082031,0 -0.1523437,0.046875 -0.2226562,0.2109375 z m 0,0"
       style="fill:#000000;fill-opacity:1;fill-rule:nonzero;stroke:none"
       aria-label="√"
       transform="matrix(1.3333333,0,0,1.3333333,17.709333,99.586667)" />
    <path
       id="path6"
       d="m -33.611,-58.869 h 4.981"
       style="fill:none;stroke:#000000;stroke-width:0.3985;stroke-linecap:butt;stroke-linejoin:miter;stroke-miterlimit:10;stroke-dasharray:none;stroke-opacity:1"
       transform="matrix(1.3333333,0,0,-1.3333333,73.594667,20.829333)" />
    <path
       id="path7"
       d="M 2.8954687,-3.5052422 C 3.7040625,-3.7747734 4.29,-4.4778984 4.29,-5.2630547 c 0,-0.8203125 -0.8789063,-1.3710937 -1.8398438,-1.3710937 -1.0078125,0 -1.75781245,0.5976562 -1.75781245,1.3476562 0,0.3398438 0.2109375,0.5273438 0.50390625,0.5273438 0.3046875,0 0.5039062,-0.2226563 0.5039062,-0.515625 0,-0.4921875 -0.46875,-0.4921875 -0.609375,-0.4921875 0.3046875,-0.4921875 0.9609375,-0.6210938 1.3242188,-0.6210938 0.4101562,0 0.9492187,0.2226563 0.9492187,1.1132813 0,0.1289062 -0.011719,0.703125 -0.2695312,1.1367187 -0.3046875,0.4804688 -0.6445313,0.515625 -0.890625,0.515625 -0.082031,0.011719 -0.3164063,0.035156 -0.3867188,0.035156 C 1.7353125,-3.5755547 1.665,-3.5638359 1.665,-3.4700859 c 0,0.1171875 0.070312,0.1171875 0.234375,0.1171875 h 0.4453125 c 0.8085937,0 1.1835937,0.6679687 1.1835937,1.6523437 0,1.34765626 -0.6914062,1.64062501 -1.125,1.64062501 -0.4335937,0 -1.171875,-0.17578125 -1.52343745,-0.76171875 0.35156245,0.0585938 0.65624995,-0.1640625 0.65624995,-0.53906246 0,-0.3632813 -0.2695312,-0.5625 -0.56249995,-0.5625 -0.234375,0 -0.55078125,0.140625 -0.55078125,0.5742187 0,0.91406251 0.9257812,1.57031251 2.0039062,1.57031251 1.21875,0 2.1210938,-0.9140625 2.1210938,-1.92187501 0,-0.8203125 -0.6210938,-1.59375 -1.6523438,-1.8046875 z m 0,0"
       style="fill:#000000;fill-opacity:1;fill-rule:nonzero;stroke:none"
       aria-label="3"
       transform="matrix(1.3333333,0,0,1.3333333,28.78,110.576)" />
    <path
       id="path8"
       d="M 4.1721719,-2.03125e-4 V -0.30489062 H 3.8557656 c -0.9023437,0 -0.9257812,-0.1171875 -0.9257812,-0.48046875 V -6.3752031 c 0,-0.234375 0,-0.2578125 -0.234375,-0.2578125 -0.609375,0.6328125 -1.4882813,0.6328125 -1.80468752,0.6328125 v 0.3164062 c 0.19921872,0 0.78515622,0 1.30078122,-0.2578125 v 5.15625003 c 0,0.3515625 -0.035156,0.48046875 -0.9257812,0.48046875 H 0.94951563 V -2.03125e-4 C 1.3010781,-0.03535937 2.1565469,-0.03535937 2.5549844,-0.03535937 c 0.3984375,0 1.265625,0 1.6171875,0.035156245 z m 0,0"
       style="fill:#000000;fill-opacity:1;fill-rule:nonzero;stroke:none"
       aria-label="1"
       transform="matrix(1.3333333,0,0,1.3333333,84.038667,199.28933)" />
    <path
       id="path9"
       d="m 49.60666,0 c 0,7.59465 4.05314,14.61482 10.63016,18.41199"
       style="fill:none;stroke:#000000;stroke-width:0.3985;stroke-linecap:butt;stroke-linejoin:miter;stroke-miterlimit:10;stroke-dasharray:none;stroke-opacity:1"
       transform="matrix(1.3333333,0,0,-1.3333333,40.114667,185.74933)" />
    <path
       id="path10"
       d="m 4.5360156,-4.9798359 c 0,-0.65625 -0.1875,-2.0390625 -1.1953125,-2.0390625 -1.3828125,0 -2.91796873,2.8007812 -2.91796873,5.0859375 0,0.93749996 0.28125,2.03906246 1.19531253,2.03906246 1.40625,0 2.9179687,-2.85937496 2.9179687,-5.08593746 z m -3.0585937,1.359375 c 0.1640625,-0.6328125 0.3632812,-1.4296875 0.7617187,-2.1328125 0.2695313,-0.4921875 0.6445313,-1.0546875 1.0898438,-1.0546875 0.4921875,0 0.5507812,0.6445312 0.5507812,1.2070312 0,0.4921875 -0.082031,0.9960938 -0.328125,1.9804688 z m 1.9921875,0.328125 c -0.1171875,0.4570312 -0.3164063,1.3007812 -0.703125,2.015625 -0.3398438,0.67968746 -0.7265625,1.17187496 -1.1484375,1.17187496 -0.328125,0 -0.5390625,-0.29296875 -0.5390625,-1.21874996 0,-0.421875 0.058594,-0.9960938 0.3164062,-1.96875 z m 0,0"
       style="fill:#000000;fill-opacity:1;fill-rule:nonzero;stroke:none"
       aria-label="θ"
       transform="matrix(1.3333333,0,0,1.3333333,93.506667,171.464)" />
    <path
       id="path11"
       d="M 0,14.17317 H 14.17317 V 0"
       style="fill:none;stroke:#000000;stroke-width:0.3985;stroke-linecap:butt;stroke-linejoin:miter;stroke-miterlimit:10;stroke-dasharray:none;stroke-opacity:1"
       transform="matrix(1.3333333,0,0,-1.3333333,40.114667,185.74933)" />
  </g>
</svg>
