<svg xmlns="http://www.w3.org/2000/svg" width="213.39696pt" height="112.75676pt" viewBox="-72 -72 213.39696 112.75676" style="position: absolute; top: 0pt; left: 0pt; overflow: visible;">
<g transform="translate(-58.32070922851561,26.787490844726555)">
<g stroke-miterlimit="10" transform="scale(1,-1)"><g stroke="#000" fill="#000">
 <g stroke-width="0.4">
 <g stroke-width="0.8">
 <path d=" M 42.67911 85.35823 L 0.0 0.0 L 142.26372 0.0 Z  " fill="none"/>
 </g>
 <g stroke-width="0.8">
 <path d=" M 142.26372 0.0 L 184.94283 0.0  " fill="none"/>
 </g>
 <path d=" M 42.67911 85.35823 M 55.7567 74.38498 C 50.64787 68.29669 42.01013 66.53938 34.92857 70.14749  " fill="none"/>
 <path d=" M 0.0 0.0 M 19.91682 0.0 C 19.91682 7.48856 15.71439 14.34653 9.04213 17.74602  " fill="none"/>
 <path d=" M 142.26372 0.0 M 156.49008 0.0 C 156.49008 7.8571 150.12082 14.22636 142.26372 14.22636 C 138.05894 14.22636 134.0684 12.36555 131.3658 9.14458  " fill="none"/>
 <g transform="translate(38.92911,88.8912)">
 <g stroke="none" transform="scale(-1.00375,1.00375)translate(-54.9873809814453,26.787490844726555)scale(-1,-1)"><g fill="#000">
 <g stroke="none"> <text alignment-baseline="baseline" y="26.787490844726555" x="-54.9873809814453" style="font-family: cmr10;" font-size="10">A</text>
</g> </g>
 </g></g>
 <g transform="translate(-10.61632,-3.41666)">
 <g stroke="none" transform="scale(-1.00375,1.00375)translate(-54.9873809814453,26.787490844726555)scale(-1,-1)"><g fill="#000">
 <g stroke="none"> <text alignment-baseline="baseline" y="26.787490844726555" x="-54.9873809814453" style="font-family: cmr10;" font-size="10">B</text>
</g> </g>
 </g></g>
 <g transform="translate(138.6526,-10.36629)">
 <g stroke="none" transform="scale(-1.00375,1.00375)translate(-54.9873809814453,26.787490844726555)scale(-1,-1)"><g fill="#000">
 <g stroke="none"> <text alignment-baseline="baseline" y="26.787490844726555" x="-54.9873809814453" style="font-family: cmr10;" font-size="10">C</text>
</g> </g>
 </g></g>
 <g transform="translate(188.4758,-3.41666)">
 <g stroke="none" transform="scale(-1.00375,1.00375)translate(-54.9873809814453,26.787490844726555)scale(-1,-1)"><g fill="#000">
 <g stroke="none"> <text alignment-baseline="baseline" y="26.787490844726555" x="-54.9873809814453" style="font-family: cmr10;" font-size="10">D</text>
</g> </g>
 </g></g>
 <g transform="translate(41.07094,56.308)">
 <g stroke="none" transform="scale(-1.00375,1.00375)translate(-54.9873809814453,26.787490844726555)scale(-1,-1)"><g fill="#000">
 <g stroke="none"> <text alignment-baseline="baseline" y="26.787490844726555" x="-54.9873809814453" style="font-family: cmr10;" font-size="10">70</text>
<text alignment-baseline="baseline" y="23.158569335937496" x="-44.98734283447265" style="font-family: cmsy7;" font-size="7">◦</text>
</g> </g>
 </g></g>
 <g transform="translate(21.15411,7.08444)">
 <g stroke="none" transform="scale(-1.00375,1.00375)translate(-54.9873809814453,26.787490844726555)scale(-1,-1)"><g fill="#000">
 <g stroke="none"> <text alignment-baseline="baseline" y="26.787490844726555" x="-54.9873809814453" style="font-family: cmr10;" font-size="10">60</text>
<text alignment-baseline="baseline" y="23.158569335937496" x="-44.98734283447265" style="font-family: cmsy7;" font-size="7">◦</text>
</g> </g>
 </g></g>
 </g>
 </g>
 </g></g></svg>