<svg xmlns="http://www.w3.org/2000/svg" width="226.35657pt" height="141.2095pt" viewBox="-72 -72 226.35657 141.2095" style="position: absolute; top: 0pt; left: 0pt; overflow: visible;">
<g transform="translate(-57.1789093017578,55.240234374999986)">
<g stroke-miterlimit="10" transform="scale(1,-1)"><g stroke="#000" fill="#000">
 <g stroke-width="0.4">
 <g stroke-width="0.8">
 <path d=" M 0.0 113.81097 L 0.0 0.0  " fill="none"/>
 </g>
 <g stroke-width="0.8">
 <path d=" M 0.0 0.0 L 197.17729 0.0  " fill="none"/>
 </g>
 <g stroke-width="0.8">
 <path d=" M 0.0 113.81097 L 197.17729 0.0  " fill="none"/>
 </g>
 <path d=" M 0.0 0.0 M 0.0 11.38092 L 11.38092 11.38092 L 11.38092 0.0  " fill="none"/>
 <path d=" M 197.17729 0.0 M 168.72455 0.0 C 168.72455 4.99321 170.04005 9.90219 172.53644 14.22636  " fill="none"/>
 <g transform="translate(-11.03297,117.34395)">
 <g stroke="none" transform="scale(-1.00375,1.00375)translate(-53.845581054687486,55.240234374999986)scale(-1,-1)"><g fill="#000">
 <g stroke="none"> <text alignment-baseline="baseline" y="55.240234374999986" x="-53.845581054687486" style="font-family: cmr10;" font-size="10">A</text>
</g> </g>
 </g></g>
 <g transform="translate(-10.61632,-10.36629)">
 <g stroke="none" transform="scale(-1.00375,1.00375)translate(-53.845581054687486,55.240234374999986)scale(-1,-1)"><g fill="#000">
 <g stroke="none"> <text alignment-baseline="baseline" y="55.240234374999986" x="-53.845581054687486" style="font-family: cmr10;" font-size="10">B</text>
</g> </g>
 </g></g>
 <g transform="translate(200.71027,-10.36629)">
 <g stroke="none" transform="scale(-1.00375,1.00375)translate(-53.845581054687486,55.240234374999986)scale(-1,-1)"><g fill="#000">
 <g stroke="none"> <text alignment-baseline="baseline" y="55.240234374999986" x="-53.845581054687486" style="font-family: cmr10;" font-size="10">C</text>
</g> </g>
 </g></g>
 <g transform="translate(143.50099,6.5157)">
 <g stroke="none" transform="scale(-1.00375,1.00375)translate(-53.845581054687486,55.240234374999986)scale(-1,-1)"><g fill="#000">
 <g stroke="none"> <text alignment-baseline="baseline" y="55.240234374999986" x="-53.845581054687486" style="font-family: cmr10;" font-size="10">30</text>
<text alignment-baseline="baseline" y="51.61131286621092" x="-43.84554290771484" style="font-family: cmsy7;" font-size="7">◦</text>
</g> </g>
 </g></g>
 <g transform="matrix(0.0,1.0,-1.0,0.0,-5.31369,31.7058)">
 <g stroke="none" transform="scale(-1.00375,1.00375)translate(-53.845581054687486,55.240234374999986)scale(-1,-1)"><g fill="#000">
 <g stroke="none"> <text alignment-baseline="baseline" y="55.240234374999986" x="-53.845581054687486" style="font-family: cmr10;" font-size="10">90</text>
<text alignment-baseline="baseline" y="55.240234374999986" x="-40.512214660644524" style="font-family: cmr10;" font-size="10">m</text>
</g> </g>
 </g></g>
 </g>
 </g>
 </g></g></svg>