<svg xmlns="http://www.w3.org/2000/svg" width="193.00378pt" height="114.70119pt" viewBox="-72 -72 193.00378 114.70119" style="position: absolute; top: 0pt; left: 0pt; overflow: visible;">
<g transform="translate(-58.04293823242186,26.787490844726555)">
<g stroke-miterlimit="10" transform="scale(1,-1)"><g stroke="#000" fill="#000">
 <g stroke-width="0.4">
 <g stroke-width="0.8">
 <path d=" M 0.0 0.0 L 142.26372 0.0  " fill="none"/>
 </g>
 <g stroke-width="0.8">
 <path d=" M 142.26372 0.0 L 142.26372 85.35823  " fill="none"/>
 </g>
 <g stroke-width="0.8">
 <path d=" M 0.0 0.0 L 142.26372 85.35823  " fill="none"/>
 </g>
 <path d=" M 142.26372 0.0 M 142.26372 11.38092 L 130.8828 11.38092 L 130.8828 0.0  " fill="none"/>
 <path d=" M 142.26372 85.35823 M 142.26372 65.4414 C 135.27327 65.4414 128.79214 69.10835 125.19177 75.10017  " fill="none"/>
 <g transform="translate(145.79669,88.8912)">
 <g stroke="none" transform="scale(-1.00375,1.00375)translate(-54.70960998535155,26.787490844726555)scale(-1,-1)"><g fill="#000">
 <g stroke="none"> <text alignment-baseline="baseline" y="26.787490844726555" x="-54.70960998535155" style="font-family: cmr10;" font-size="10">P</text>
</g> </g>
 </g></g>
 <g transform="translate(145.79669,-10.36629)">
 <g stroke="none" transform="scale(-1.00375,1.00375)translate(-54.70960998535155,26.787490844726555)scale(-1,-1)"><g fill="#000">
 <g stroke="none"> <text alignment-baseline="baseline" y="26.787490844726555" x="-54.70960998535155" style="font-family: cmr10;" font-size="10">Q</text>
</g> </g>
 </g></g>
 <g transform="translate(-10.89409,-3.41666)">
 <g stroke="none" transform="scale(-1.00375,1.00375)translate(-54.70960998535155,26.787490844726555)scale(-1,-1)"><g fill="#000">
 <g stroke="none"> <text alignment-baseline="baseline" y="26.787490844726555" x="-54.70960998535155" style="font-family: cmr10;" font-size="10">R</text>
</g> </g>
 </g></g>
 <g transform="translate(120.73871,56.308)">
 <g stroke="none" transform="scale(-1.00375,1.00375)translate(-54.70960998535155,26.787490844726555)scale(-1,-1)"><g fill="#000">
 <g stroke="none"> <text alignment-baseline="baseline" y="26.787490844726555" x="-54.70960998535155" style="font-family: cmr10;" font-size="10">60</text>
<text alignment-baseline="baseline" y="23.158569335937496" x="-44.7095718383789" style="font-family: cmsy7;" font-size="7">◦</text>
</g> </g>
 </g></g>
 <g transform="translate(154.3326,39.4569)">
 <g stroke="none" transform="scale(-1.00375,1.00375)translate(-54.70960998535155,26.787490844726555)scale(-1,-1)"><g fill="#000">
 <g stroke="none"> <text alignment-baseline="baseline" y="26.787490844726555" x="-54.70960998535155" style="font-family: cmr10;" font-size="10">1</text>
<text alignment-baseline="baseline" y="26.787490844726555" x="-46.376262664794915" style="font-family: cmr10;" font-size="10">cm</text>
</g> </g>
 </g></g>
 </g>
 </g>
 </g></g></svg>