<svg xmlns="http://www.w3.org/2000/svg" width="199.19142pt" height="134.1093pt" viewBox="-72 -72 199.19142 134.1093" style="position: absolute; top: 0pt; left: 0pt; overflow: visible;">
<g transform="translate(-58.32070922851561,48.14002990722655)">
<g stroke-miterlimit="10" transform="scale(1,-1)"><g stroke="#000" fill="#000">
 <g stroke-width="0.4">
 <g stroke-width="1.2">
 <path d=" M 0.0 0.0 L 170.73729 106.71077 L 170.73729 0.0 L 0.0 0.0 Z  " fill="none"/>
 </g>
 <g stroke-width="1.2">
 <path d=" M 170.73729 106.71077 L 85.36864 0.0  " fill="none"/>
 </g>
 <g stroke-width="1.2">
 <path d=" M 170.73729 106.71077 L 85.36864 0.0  " fill="none"/>
 </g>
 <g stroke-width="1.2">
 <path d=" M 170.73729 0.0 M 170.73729 10.66975 L 160.06752 10.66975 L 160.06752 0.0  " fill="none"/>
 </g>
 <g transform="translate(166.98729,110.24374)">
 <g stroke="none" transform="scale(-1.00375,1.00375)translate(-54.9873809814453,48.14002990722655)scale(-1,-1)"><g fill="#000">
 <g stroke="none"> <text alignment-baseline="baseline" y="48.14002990722655" x="-54.9873809814453" style="font-family: cmr10;" font-size="10">A</text>
</g> </g>
 </g></g>
 <g transform="translate(-10.61632,-3.41666)">
 <g stroke="none" transform="scale(-1.00375,1.00375)translate(-54.9873809814453,48.14002990722655)scale(-1,-1)"><g fill="#000">
 <g stroke="none"> <text alignment-baseline="baseline" y="48.14002990722655" x="-54.9873809814453" style="font-family: cmr10;" font-size="10">B</text>
</g> </g>
 </g></g>
 <g transform="translate(81.75752,-10.36629)">
 <g stroke="none" transform="scale(-1.00375,1.00375)translate(-54.9873809814453,48.14002990722655)scale(-1,-1)"><g fill="#000">
 <g stroke="none"> <text alignment-baseline="baseline" y="48.14002990722655" x="-54.9873809814453" style="font-family: cmr10;" font-size="10">C</text>
</g> </g>
 </g></g>
 <g transform="translate(174.27026,-3.41666)">
 <g stroke="none" transform="scale(-1.00375,1.00375)translate(-54.9873809814453,48.14002990722655)scale(-1,-1)"><g fill="#000">
 <g stroke="none"> <text alignment-baseline="baseline" y="48.14002990722655" x="-54.9873809814453" style="font-family: cmr10;" font-size="10">D</text>
</g> </g>
 </g></g>
 </g>
 </g>
 </g></g></svg>