<svg xmlns="http://www.w3.org/2000/svg" width="198.77477pt" height="155.45148pt" viewBox="-72 -72 198.77477 155.45148" style="position: absolute; top: 0pt; left: 0pt; overflow: visible;">
<g transform="translate(-58.32070922851561,69.48220825195311)">
<g stroke-miterlimit="10" transform="scale(1,-1)"><g stroke="#000" fill="#000">
 <g stroke-width="0.4">
 <path d=" M 85.36864 128.05295 L 0.0 0.0  " fill="none"/>
 <path d=" M 85.36864 128.05295 L 170.73729 0.0  " fill="none"/>
 <path d=" M 0.0 0.0 L 170.73729 0.0  " fill="none"/>
 <path d=" M 85.36864 128.05295 L 85.36864 0.0  " fill="none"/>
 <path d=" M 85.36864 0.0 L 128.05295 64.02646  " fill="none"/>
 <g transform="translate(81.61864,131.58592)">
 <g stroke="none" transform="scale(-1.00375,1.00375)translate(-54.9873809814453,69.48220825195311)scale(-1,-1)"><g fill="#000">
 <g stroke="none"> <text alignment-baseline="baseline" y="69.48220825195311" x="-54.9873809814453" style="font-family: cmr10;" font-size="10">A</text>
</g> </g>
 </g></g>
 <g transform="translate(-10.61632,-10.36629)">
 <g stroke="none" transform="scale(-1.00375,1.00375)translate(-54.9873809814453,69.48220825195311)scale(-1,-1)"><g fill="#000">
 <g stroke="none"> <text alignment-baseline="baseline" y="69.48220825195311" x="-54.9873809814453" style="font-family: cmr10;" font-size="10">B</text>
</g> </g>
 </g></g>
 <g transform="translate(174.27026,-10.36629)">
 <g stroke="none" transform="scale(-1.00375,1.00375)translate(-54.9873809814453,69.48220825195311)scale(-1,-1)"><g fill="#000">
 <g stroke="none"> <text alignment-baseline="baseline" y="69.48220825195311" x="-54.9873809814453" style="font-family: cmr10;" font-size="10">C</text>
</g> </g>
 </g></g>
 <g transform="translate(81.5492,-10.36629)">
 <g stroke="none" transform="scale(-1.00375,1.00375)translate(-54.9873809814453,69.48220825195311)scale(-1,-1)"><g fill="#000">
 <g stroke="none"> <text alignment-baseline="baseline" y="69.48220825195311" x="-54.9873809814453" style="font-family: cmr10;" font-size="10">D</text>
</g> </g>
 </g></g>
 <g transform="translate(131.58592,60.6098)">
 <g stroke="none" transform="scale(-1.00375,1.00375)translate(-54.9873809814453,69.48220825195311)scale(-1,-1)"><g fill="#000">
 <g stroke="none"> <text alignment-baseline="baseline" y="69.48220825195311" x="-54.9873809814453" style="font-family: cmr10;" font-size="10">E</text>
</g> </g>
 </g></g>
 </g>
 </g>
 </g></g></svg>