<svg xmlns="http://www.w3.org/2000/svg" width="199.60808pt" height="105.81754pt" viewBox="-72 -72 199.60808 105.81754" style="position: absolute; top: 0pt; left: 0pt; overflow: visible;">
<g transform="translate(-57.904052734374986,19.848266601562496)">
<g stroke-miterlimit="10" transform="scale(1,-1)"><g stroke="#000" fill="#000">
 <g stroke-width="0.4">
 <path d=" M 0.0 0.0 L 170.73729 0.0  " fill="none"/>
 <path d=" M 0.0 0.0 L 102.44211 51.22102 L 170.73729 85.36864  " fill="none"/>
 <path d=" M 102.44211 51.22102 L 170.73729 0.0  " fill="none"/>
 <path d=" M 170.73729 0.0 L 170.73729 85.36864  " fill="none"/>
 <g transform="translate(-11.03297,-3.41666)">
 <g stroke="none" transform="scale(-1.00375,1.00375)translate(-54.57072448730467,19.848266601562496)scale(-1,-1)"><g fill="#000">
 <g stroke="none"> <text alignment-baseline="baseline" y="19.848266601562496" x="-54.57072448730467" style="font-family: cmr10;" font-size="10">A</text>
</g> </g>
 </g></g>
 <g transform="translate(174.27026,-10.36629)">
 <g stroke="none" transform="scale(-1.00375,1.00375)translate(-54.57072448730467,19.848266601562496)scale(-1,-1)"><g fill="#000">
 <g stroke="none"> <text alignment-baseline="baseline" y="19.848266601562496" x="-54.57072448730467" style="font-family: cmr10;" font-size="10">B</text>
</g> </g>
 </g></g>
 <g transform="translate(98.831,54.754)">
 <g stroke="none" transform="scale(-1.00375,1.00375)translate(-54.57072448730467,19.848266601562496)scale(-1,-1)"><g fill="#000">
 <g stroke="none"> <text alignment-baseline="baseline" y="19.848266601562496" x="-54.57072448730467" style="font-family: cmr10;" font-size="10">C</text>
</g> </g>
 </g></g>
 <g transform="translate(174.27026,81.95198)">
 <g stroke="none" transform="scale(-1.00375,1.00375)translate(-54.57072448730467,19.848266601562496)scale(-1,-1)"><g fill="#000">
 <g stroke="none"> <text alignment-baseline="baseline" y="19.848266601562496" x="-54.57072448730467" style="font-family: cmr10;" font-size="10">D</text>
</g> </g>
 </g></g>
 </g>
 </g>
 </g></g></svg>