<?xml version="1.0" encoding="UTF-8" standalone="no"?>
<!-- Created with Inkscape (http://www.inkscape.org/) -->

<svg
   version="1.1"
   id="svg1"
   width="286.16"
   height="215.73334"
   viewBox="0 0 286.16 215.73334"
   sodipodi:docname="upload_ej2ymkjbugao4z5ptw6vphywfd.pdf"
   xmlns:inkscape="http://www.inkscape.org/namespaces/inkscape"
   xmlns:sodipodi="http://sodipodi.sourceforge.net/DTD/sodipodi-0.dtd"
   xmlns="http://www.w3.org/2000/svg"
   xmlns:svg="http://www.w3.org/2000/svg">
  <defs
     id="defs1" />
  <sodipodi:namedview
     id="namedview1"
     pagecolor="#ffffff"
     bordercolor="#000000"
     borderopacity="0.25"
     inkscape:showpageshadow="2"
     inkscape:pageopacity="0.0"
     inkscape:pagecheckerboard="0"
     inkscape:deskcolor="#d1d1d1">
    <inkscape:page
       x="0"
       y="0"
       inkscape:label="1"
       id="page1"
       width="286.16"
       height="215.73334"
       margin="0"
       bleed="0" />
  </sodipodi:namedview>
  <g
     id="g1"
     inkscape:groupmode="layer"
     inkscape:label="1">
    <path
       id="path1"
       d="m 122.66225,35.72192 c 0,36.74244 -29.78478,66.52721 -66.52722,66.52721 -36.74243,0 -66.5272,-29.78477 -66.5272,-66.52721 0,-36.74243 29.78477,-66.5272 66.5272,-66.5272 36.74244,0 66.52722,29.78477 66.52722,66.5272 z"
       style="fill:none;stroke:#000000;stroke-width:0.3985;stroke-linecap:butt;stroke-linejoin:miter;stroke-miterlimit:10;stroke-dasharray:none;stroke-opacity:1"
       transform="matrix(1.3333333,0,0,-1.3333333,38.166667,155.496)" />
    <path
       id="path2"
       d="M 0,0 H 112.2693 V 71.44388 H 0 Z"
       style="fill:none;stroke:#000000;stroke-width:0.79701;stroke-linecap:butt;stroke-linejoin:miter;stroke-miterlimit:10;stroke-dasharray:none;stroke-opacity:1"
       transform="matrix(1.3333333,0,0,-1.3333333,38.166667,155.496)" />
    <path
       id="path3"
       d="m 112.2693,71.44388 h 45.92893 L 112.2693,0"
       style="fill:none;stroke:#000000;stroke-width:0.79701;stroke-linecap:butt;stroke-linejoin:miter;stroke-miterlimit:10;stroke-dasharray:none;stroke-opacity:1"
       transform="matrix(1.3333333,0,0,-1.3333333,38.166667,155.496)" />
    <path
       id="path4"
       d="M 17.00807,0 C 17.00807,9.39342 9.39342,17.00807 0,17.00807"
       style="fill:none;stroke:#000000;stroke-width:0.3985;stroke-linecap:butt;stroke-linejoin:miter;stroke-miterlimit:10;stroke-dasharray:none;stroke-opacity:1"
       transform="matrix(1.3333333,0,0,-1.3333333,38.166667,155.496)" />
    <path
       id="path5"
       d="m 3.3971016,-2.8254922 v 0.1992188 c 0,2.19140621 -0.9960938,2.56640621 -1.5117188,2.56640621 -0.1992187,0 -0.65625,-0.03515625 -0.89062499,-0.328125 h 0.0351563 c 0.070312,0.0234375 0.421875,-0.046875 0.421875,-0.41015625 0,-0.23437496 -0.1640625,-0.41015626 -0.4101563,-0.41015626 -0.25781248,0 -0.42187498,0.1523438 -0.42187498,0.42187501 0,0.59765625 0.46874998,0.984375 1.27734378,0.984375 1.1601562,0 2.3203125,-1.18359375 2.3203125,-3.15234371 0,-2.4257813 -1.078125,-3.0117188 -1.8867188,-3.0117188 -1.03125,0 -1.94531248,0.8320313 -1.94531248,2.0039063 0,1.1367187 0.82031248,1.9921875 1.83984378,1.9921875 0.65625,0 1.0078125,-0.46875 1.171875,-0.8554688 z m -1.1601563,0.6328125 c -0.140625,0 -0.5742187,0 -0.8671875,-0.5507812 -0.1640625,-0.3398438 -0.1640625,-0.7851563 -0.1640625,-1.2070313 0,-0.4335937 0,-0.8789062 0.1875,-1.21875 0.2695313,-0.4570312 0.609375,-0.5742187 0.9375,-0.5742187 0.609375,0 0.8554688,0.609375 0.890625,0.703125 0.1171875,0.328125 0.1523438,0.8789062 0.1523438,1.265625 0,0.65625 -0.2929688,1.5820312 -1.1367188,1.5820312 z m 3.5712891,-0.7734375 c 0,-0.9140625 0.09375,-1.4296875 0.3398437,-1.8984375 0.1757813,-0.3632812 0.609375,-0.8789062 1.2773438,-0.8789062 0.1757812,0 0.5859375,0.035156 0.796875,0.3515625 -0.328125,0 -0.46875,0.1757812 -0.46875,0.4101562 0,0.234375 0.1523437,0.421875 0.4101562,0.421875 0.2460938,0 0.421875,-0.1640625 0.421875,-0.4335937 0,-0.5039063 -0.3632812,-0.9726563 -1.1835937,-0.9726563 -1.1484375,0 -2.4140625,1.1367188 -2.4140625,3.1289063 0,2.43749996 1.0898437,3.03515621 1.9335937,3.03515621 0.9960938,0 1.8984375,-0.83203125 1.8984375,-2.01562501 0,-1.1367187 -0.8320312,-2.0039062 -1.8398437,-2.0039062 -0.5390625,0 -0.9257813,0.3164062 -1.171875,0.8554687 z m 1.1015625,2.90625001 c -0.5039063,0 -0.796875,-0.421875 -0.9140625,-0.6796875 C 5.8316719,-1.1379922 5.8199531,-1.8879922 5.8199531,-2.0286172 c 0,-0.5976562 0.28125,-1.5703125 1.1367188,-1.5703125 0.140625,0 0.5859375,0 0.8671875,0.5625 0.1757812,0.3398438 0.1757812,0.7734375 0.1757812,1.2070313 0,0.4335937 0,0.86718746 -0.1757812,1.19531246 -0.2695313,0.515625 -0.6679688,0.57421875 -0.9140625,0.57421875 z m 0,0"
       style="fill:#000000;fill-opacity:1;fill-rule:nonzero;stroke:none"
       aria-label="96"
       transform="matrix(1.3333333,0,0,1.3333333,56.076,135.29467)" />
    <path
       id="path6"
       d="m 141.16768,71.43376 c 0,-5.7858 2.94447,-11.17758 7.81112,-14.3062"
       style="fill:none;stroke:#000000;stroke-width:0.3985;stroke-linecap:butt;stroke-linejoin:miter;stroke-miterlimit:10;stroke-dasharray:none;stroke-opacity:1"
       transform="matrix(1.3333333,0,0,-1.3333333,38.166667,155.496)" />
    <path
       id="path7"
       d="M 4.1374531,-1.5822734 H 3.8913594 c -0.023437,0.1171875 -0.09375,0.64453121 -0.2109375,0.78515621 -0.046875,0.0820313 -0.6679688,0.0820313 -0.84375,0.0820313 h -1.59375 L 2.1218281,-1.5588359 c 1.4765625,-1.2773438 2.015625,-1.7460938 2.015625,-2.6601563 0,-1.03125 -0.84375,-1.7460937 -1.9453125,-1.7460937 -1.03125,0 -1.73437497,0.8085937 -1.73437497,1.6289062 0,0.4453125 0.38671875,0.4921875 0.46875,0.4921875 0.19921877,0 0.46874997,-0.140625 0.46874997,-0.46875 0,-0.2695312 -0.1875,-0.46875 -0.46874997,-0.46875 -0.046875,0 -0.0703125,0 -0.10546875,0.011719 0.21093752,-0.6328125 0.78515622,-0.9257813 1.26562502,-0.9257813 0.9140625,0 1.2304687,0.8554688 1.2304687,1.4765625 0,0.9140625 -0.6914062,1.6523438 -1.125,2.1210938 l -1.64062497,1.76953121 c -0.09375,0.10546875 -0.09375,0.1171875 -0.09375,0.3281250025 H 3.8913594 Z m 4.7050782,-1.2890625 c 0,-0.5976563 -0.023437,-1.3710938 -0.3398438,-2.0390625 -0.3984375,-0.84375 -1.078125,-1.0546875 -1.59375,-1.0546875 -0.5390625,0 -1.21875,0.2109375 -1.6171875,1.0664062 -0.2929687,0.6210938 -0.328125,1.3476563 -0.328125,2.0273438 0,0.5859375 0.011719,1.453125 0.3984375,2.16796871 0.421875,0.76171875 1.125,0.90234375 1.5351563,0.90234375 0.5859375,0 1.2421875,-0.2578125 1.6171875,-1.078125 0.2695312,-0.59765626 0.328125,-1.27734376 0.328125,-1.99218746 z m -1.9335938,2.84765621 c -0.2695312,0 -0.9140625,-0.12890625 -1.0898437,-1.13671871 -0.09375,-0.5390625 -0.09375,-1.3007813 -0.09375,-1.8164063 0,-0.609375 0,-1.3125 0.1171875,-1.8164062 0.1757812,-0.796875 0.75,-0.9492188 1.0546875,-0.9492188 0.3398437,0 0.9023437,0.1757813 1.078125,1.0078125 0.09375,0.4921875 0.09375,1.1953125 0.09375,1.7578125 0,0.5507813 0,1.3125 -0.09375,1.8398438 -0.1875,1.01953121 -0.84375,1.11328121 -1.0664063,1.11328121 z m 0,0"
       style="fill:#000000;fill-opacity:1;fill-rule:nonzero;stroke:none"
       aria-label="20"
       transform="matrix(1.3333333,0,0,1.3333333,213.06933,80.402667)" />
    <path
       id="path8"
       d="M 7.1375078,-5.859375e-4 V -0.30527344 H 6.9617266 c -0.5976563,0 -0.7382813,-0.0703125 -0.84375,-0.3984375 l -2.15625,-6.23437496 c -0.046875,-0.1289063 -0.070312,-0.1992188 -0.2226563,-0.1992188 -0.1640625,0 -0.1875,0.058594 -0.2460937,0.1992188 l -2.0625,5.96484371 c -0.1757813,0.50390625 -0.57421879,0.65625 -1.11328129,0.66796875 V -5.859375e-4 L 1.3367266,-0.03574219 2.4851641,-5.859375e-4 V -0.30527344 c -0.5039063,0 -0.75,-0.2578125 -0.75,-0.515625 0,-0.0234375 0.011719,-0.12890625 0.023437,-0.140625 L 2.2156328,-2.2740234 h 2.4609375 l 0.5273438,1.52343746 c 0.011719,0.046875 0.023437,0.10546875 0.023437,0.140625 0,0.3046875 -0.5507813,0.3046875 -0.8203125,0.3046875 V -5.859375e-4 C 4.7586016,-0.03574219 5.4617266,-0.03574219 5.8367266,-0.03574219 Z M 4.5593828,-2.5787109 H 2.3211016 l 1.1132812,-3.234375 z m 0,0"
       style="fill:#000000;fill-opacity:1;fill-rule:nonzero;stroke:none"
       aria-label="A"
       transform="matrix(1.3333333,0,0,1.3333333,23.510667,169.7)" />
    <path
       id="path9"
       d="m 6.4795547,-1.8278359 c 0,-0.8671875 -0.8085938,-1.6054688 -1.921875,-1.7226563 0.9726562,-0.1992187 1.6523437,-0.8320312 1.6523437,-1.5703125 0,-0.8671875 -0.9140625,-1.6875 -2.203125,-1.6875 H 0.36236719 v 0.3164063 h 0.234375 c 0.76171871,0 0.78515621,0.1054687 0.78515621,0.46875 v 5.24999996 c 0,0.3515625 -0.023437,0.46875 -0.78515621,0.46875 h -0.234375 V 2.890625e-4 H 4.2647109 c 1.3242188,0 2.2148438,-0.8906250025 2.2148438,-1.8281249625 z M 5.2490859,-5.1208047 c 0,0.6328125 -0.4921875,1.4765625 -1.59375,1.4765625 H 2.2139297 v -2.4492187 c 0,-0.328125 0.011719,-0.3984375 0.4804687,-0.3984375 h 1.2421875 c 0.9609375,0 1.3125,0.84375 1.3125,1.3710937 z m 0.234375,3.2929688 c 0,0.703125 -0.515625,1.52343746 -1.5351562,1.52343746 H 2.6943984 c -0.46875,0 -0.4804687,-0.0703125 -0.4804687,-0.3984375 V -3.4215859 h 1.875 c 0.984375,0 1.3945312,0.9257812 1.3945312,1.59375 z m 0,0"
       style="fill:#000000;fill-opacity:1;fill-rule:nonzero;stroke:none"
       aria-label="B"
       transform="matrix(1.3333333,0,0,1.3333333,192.552,169.26133)" />
    <path
       id="path10"
       d="m 6.6199688,-2.3188828 c 0,-0.1054688 0,-0.1757813 -0.1289063,-0.1757813 -0.1054687,0 -0.1054687,0.070312 -0.1171875,0.1640625 -0.082031,1.42968754 -1.1484375,2.23828129 -2.2265625,2.23828129 -0.609375,0 -2.5664062,-0.33984375 -2.5664062,-3.30468749 0,-2.9765625 1.9453125,-3.3164063 2.5546875,-3.3164063 1.078125,0 1.96875,0.9023438 2.1679687,2.3671875 0.023437,0.1289063 0.023437,0.1640625 0.1640625,0.1640625 0.1523438,0 0.1523438,-0.035156 0.1523438,-0.234375 v -2.3671875 c 0,-0.1640625 0,-0.234375 -0.1054688,-0.234375 -0.035156,0 -0.082031,0 -0.1640625,0.1171875 L 5.85825,-6.1626328 c -0.375,-0.3632813 -0.8789062,-0.8554688 -1.8398437,-0.8554688 -1.8632813,0 -3.4570313,1.5820313 -3.4570313,3.609375 0,2.0625 1.6054688,3.63281254 3.4570313,3.63281254 1.6289062,0 2.6015625,-1.38281254 2.6015625,-2.54296874 z m 0,0"
       style="fill:#000000;fill-opacity:1;fill-rule:nonzero;stroke:none"
       aria-label="C"
       transform="matrix(1.3333333,0,0,1.3333333,183.064,55.252)" />
    <path
       id="path11"
       d="m 7.0421328,-3.3523359 c 0,-1.8867188 -1.3476562,-3.4570313 -3.046875,-3.4570313 H 0.35072656 v 0.3164063 h 0.234375 c 0.77343754,0 0.78515624,0.1054687 0.78515624,0.46875 v 5.24999996 c 0,0.3515625 -0.011719,0.46875 -0.78515624,0.46875 h -0.234375 V -7.734375e-4 H 3.9952578 c 1.6757813,0 3.046875,-1.4765624625 3.046875,-3.3515624625 z m -0.9960937,0 c 0,1.1132812 -0.1875,1.7109375 -0.5507813,2.1914062 -0.1992187,0.26953126 -0.7617187,0.85546876 -1.7695312,0.85546876 H 2.7179141 c -0.46875,0 -0.4921875,-0.0703125 -0.4921875,-0.3984375 V -6.0945234 c 0,-0.328125 0.023437,-0.3984375 0.4921875,-0.3984375 h 0.9960937 c 0.6210938,0 1.3007813,0.2109375 1.8164063,0.9257812 0.421875,0.5859375 0.515625,1.4414063 0.515625,2.2148438 z m 0,0"
       style="fill:#000000;fill-opacity:1;fill-rule:nonzero;stroke:none"
       aria-label="D"
       transform="matrix(1.3333333,0,0,1.3333333,23.325333,55.544)" />
    <path
       id="path12"
       d="M 6.4909844,-2.5659766 H 6.2448906 C 5.9987969,-1.0308203 5.7644219,-0.30425781 4.0534844,-0.30425781 H 2.7292656 c -0.46875,0 -0.4921875,-0.0703125 -0.4921875,-0.3984375 V -3.3628516 h 0.9023438 c 0.9609375,0 1.078125,0.3164063 1.078125,1.1601563 H 4.4636406 V -4.8394141 H 4.2175469 c 0,0.8554688 -0.1171875,1.1601563 -1.078125,1.1601563 H 2.2370781 v -2.390625 c 0,-0.328125 0.023437,-0.3984375 0.4921875,-0.3984375 h 1.2890625 c 1.5234375,0 1.7929688,0.5507812 1.9453125,1.9335937 H 6.2097344 L 5.9402031,-6.7730078 H 0.32692188 v 0.3046875 h 0.234375 c 0.77343752,0 0.79687502,0.1171875 0.79687502,0.46875 v 5.22656249 c 0,0.3515625 -0.023437,0.46875 -0.79687502,0.46875 h -0.234375 V 4.296875e-4 H 6.0808281 Z m 0,0"
       style="fill:#000000;fill-opacity:1;fill-rule:nonzero;stroke:none"
       aria-label="E"
       transform="matrix(1.3333333,0,0,1.3333333,253.79067,64.753333)" />
  </g>
</svg>
