<svg xmlns="http://www.w3.org/2000/svg" width="156.92374pt" height="154.30032pt" viewBox="-72 -72 156.92374 154.30032" style="position: absolute; top: 0pt; left: 0pt; overflow: visible;">
<g transform="translate(-57.904052734374986,47.564468383789055)">
<g stroke-miterlimit="10" transform="scale(1,-1)"><g stroke="#000" fill="#000">
 <g stroke-width="0.4">
 <path d=" M 64.02646 42.68431 M 140.97662 42.68431 C 140.97662 85.18326 106.5254 119.63448 64.02646 119.63448 C 21.52751 119.63448 -12.9237 85.18326 -12.9237 42.68431 C -12.9237 0.18536 21.52751 -34.26585 64.02646 -34.26585 C 106.5254 -34.26585 140.97662 0.18536 140.97662 42.68431 Z M 64.02646 42.68431  " fill="none"/>
 <path d=" M 0.0 85.36864 L 0.0 0.0  " fill="none"/>
 <path d=" M 0.0 0.0 L 128.05295 0.0  " fill="none"/>
 <path d=" M 128.05295 0.0 L 128.05295 85.36864  " fill="none"/>
 <path d=" M 128.05295 85.36864 L 0.0 85.36864  " fill="none"/>
 <path d=" M 0.0 85.36864 L 128.05295 0.0  " fill="none"/>
 <path d=" M 0.0 85.36864 L 64.02646 42.68431  " fill="none"/>
 <path d=" M 66.15276 -3.41438 L 66.15276 3.41438  " fill="none"/>
 <path d=" M 124.62292 44.81319 L 131.45174 44.81319  " fill="none"/>
 <g transform="translate(-11.03297,88.90161)">
 <g stroke="none" transform="scale(-1.00375,1.00375)translate(-54.57072448730467,47.564468383789055)scale(-1,-1)"><g fill="#000">
 <g stroke="none"> <text alignment-baseline="baseline" y="47.564468383789055" x="-54.57072448730467" style="font-family: cmr10;" font-size="10">A</text>
</g> </g>
 </g></g>
 <g transform="translate(-10.61632,-10.36629)">
 <g stroke="none" transform="scale(-1.00375,1.00375)translate(-54.57072448730467,47.564468383789055)scale(-1,-1)"><g fill="#000">
 <g stroke="none"> <text alignment-baseline="baseline" y="47.564468383789055" x="-54.57072448730467" style="font-family: cmr10;" font-size="10">B</text>
</g> </g>
 </g></g>
 <g transform="translate(131.58592,-10.36629)">
 <g stroke="none" transform="scale(-1.00375,1.00375)translate(-54.57072448730467,47.564468383789055)scale(-1,-1)"><g fill="#000">
 <g stroke="none"> <text alignment-baseline="baseline" y="47.564468383789055" x="-54.57072448730467" style="font-family: cmr10;" font-size="10">C</text>
</g> </g>
 </g></g>
 <g transform="translate(131.58592,88.90161)">
 <g stroke="none" transform="scale(-1.00375,1.00375)translate(-54.57072448730467,47.564468383789055)scale(-1,-1)"><g fill="#000">
 <g stroke="none"> <text alignment-baseline="baseline" y="47.564468383789055" x="-54.57072448730467" style="font-family: cmr10;" font-size="10">D</text>
</g> </g>
 </g></g>
 <g transform="translate(67.55943,46.21729)">
 <g stroke="none" transform="scale(-1.00375,1.00375)translate(-54.57072448730467,47.564468383789055)scale(-1,-1)"><g fill="#000">
 <g stroke="none"> <text alignment-baseline="baseline" y="47.564468383789055" x="-54.57072448730467" style="font-family: cmr10;" font-size="10">O</text>
</g> </g>
 </g></g>
 </g>
 </g>
 </g></g></svg>