<svg xmlns="http://www.w3.org/2000/svg" width="141.84845pt" height="112.75676pt" viewBox="-72 -72 141.84845 112.75676" style="position: absolute; top: 0pt; left: 0pt; overflow: visible;">
<g transform="translate(-1.4152221679687498,26.787490844726555)">
<g stroke-miterlimit="10" transform="scale(1,-1)"><g stroke="#000" fill="#000">
 <g stroke-width="0.4">
 <g stroke-width="0.8">
 <path d=" M 0.0 85.35823 L -56.90549 0.0 L 56.90549 0.0 Z  " fill="none"/>
 </g>
 <g stroke-width="0.8">
 <path d=" M 0.0 85.35823 L 0.0 0.0  " fill="none"/>
 </g>
 <g stroke-width="0.8">
 <path d=" M 0.0 7.11317 L 7.11317 7.11317 L 7.11317 0.0  " fill="none"/>
 </g>
 <g transform="translate(-3.75,88.8912)">
 <g stroke="none" transform="scale(-1.00375,1.00375)translate(1.918106079101562,26.787490844726555)scale(-1,-1)"><g fill="#000">
 <g stroke="none"> <text alignment-baseline="baseline" y="26.787490844726555" x="1.918106079101562" style="font-family: cmr10;" font-size="10">A</text>
</g> </g>
 </g></g>
 <g transform="translate(-67.5218,-3.41666)">
 <g stroke="none" transform="scale(-1.00375,1.00375)translate(1.918106079101562,26.787490844726555)scale(-1,-1)"><g fill="#000">
 <g stroke="none"> <text alignment-baseline="baseline" y="26.787490844726555" x="1.918106079101562" style="font-family: cmr10;" font-size="10">B</text>
</g> </g>
 </g></g>
 <g transform="translate(60.43846,-3.41666)">
 <g stroke="none" transform="scale(-1.00375,1.00375)translate(1.918106079101562,26.787490844726555)scale(-1,-1)"><g fill="#000">
 <g stroke="none"> <text alignment-baseline="baseline" y="26.787490844726555" x="1.918106079101562" style="font-family: cmr10;" font-size="10">C</text>
</g> </g>
 </g></g>
 <g transform="translate(-3.81944,-10.36629)">
 <g stroke="none" transform="scale(-1.00375,1.00375)translate(1.918106079101562,26.787490844726555)scale(-1,-1)"><g fill="#000">
 <g stroke="none"> <text alignment-baseline="baseline" y="26.787490844726555" x="1.918106079101562" style="font-family: cmr10;" font-size="10">D</text>
</g> </g>
 </g></g>
 </g>
 </g>
 </g></g></svg>