<svg xmlns="http://www.w3.org/2000/svg" width="181.0422pt" height="130.11499pt" viewBox="-72 -72 181.0422 130.11499" style="position: absolute; top: 0pt; left: 0pt; overflow: visible;">
<g transform="translate(-5.940734863281249,-9.27406311035156)">
<g stroke-miterlimit="10" transform="scale(1,-1)"><g stroke="#000" fill="#000">
 <g stroke-width="0.4">
 <g stroke-width="0.8">
 <g stroke-linecap="round">
 <g stroke-linejoin="round">
 <path d=" M 0.0 0.0 M 62.59595 0.0 C 62.59595 34.57123 34.57123 62.59595 0.0 62.59595 C -34.57123 62.59595 -62.59595 34.57123 -62.59595 0.0 C -62.59595 -34.57123 -34.57123 -62.59595 0.0 -62.59595 C 34.57123 -62.59595 62.59595 -34.57123 62.59595 0.0 Z M 0.0 0.0  " fill="none"/>
 <path d=" M 0.0 0.0 M 1.4 0.0 C 1.4 0.7732 0.7732 1.4 0.0 1.4 C -0.7732 1.4 -1.4 0.7732 -1.4 0.0 C -1.4 -0.7732 -0.7732 -1.4 0.0 -1.4 C 0.7732 -1.4 1.4 -0.7732 1.4 0.0 Z M 0.0 0.0  " stroke="none"/>
 <g transform="translate(-12.92499,5.14719)">
 <g stroke="none" transform="scale(-1.00375,1.00375)translate(-2.607406616210937,-9.27406311035156)scale(-1,-1)"><g fill="#000">
 <g stroke="none"> <text alignment-baseline="baseline" y="-9.27406311035156" x="-2.607406616210937" style="font-family: cmr10;" font-size="10">O</text>
</g> </g>
 </g></g>
 <path d=" M -40.23611 -47.9506 L 35.90326 -51.27536 L 58.82097 21.40901 L -40.23611 47.9506 Z  " fill="none"/>
 <path d=" M -34.44055 46.39787 L 100.42476 10.2616  " fill="none"/>
 <g transform="matrix(0.96593,-0.25879,0.25879,0.96593,90.0681,13.0398)">
 <g stroke-dasharray="none" stroke-dashoffset="0.0">
 <g stroke-linejoin="miter">
 <path d=" M 7.2709 0.0 L 1.39627 1.97003 L 3.33276 0.0 L 1.39627 -1.97003 Z  "/>
 </g>
 </g>
  </g>
 <path d=" M 52.14807 0.24403 C 59.70868 -2.13968 67.96892 -0.30806 73.81357 5.04764 C 76.927 7.9006 79.16496 11.58643 80.25787 15.6657  " fill="none"/>
 <g transform="translate(65.93265,-8.30037)">
 <g stroke="none" transform="scale(-1.00375,1.00375)translate(-2.607406616210937,-9.27406311035156)scale(-1,-1)"><g fill="#000">
 <g stroke="none"> <text alignment-baseline="baseline" y="-9.27406311035156" x="-2.607406616210937" style="font-family: cmr10;" font-size="10">80</text>
<text alignment-baseline="baseline" y="-12.902984619140621" x="7.392631530761717" style="font-family: cmsy7;" font-size="7">◦</text>
</g> </g>
 </g></g>
 <g transform="translate(-49.52466,51.68358)">
 <g stroke="none" transform="scale(-1.00375,1.00375)translate(-2.607406616210937,-9.27406311035156)scale(-1,-1)"><g fill="#000">
 <g stroke="none"> <text alignment-baseline="baseline" y="-9.27406311035156" x="-2.607406616210937" style="font-family: cmr10;" font-size="10">S</text>
</g> </g>
 </g></g>
 <g transform="translate(-50.77466,-58.51689)">
 <g stroke="none" transform="scale(-1.00375,1.00375)translate(-2.607406616210937,-9.27406311035156)scale(-1,-1)"><g fill="#000">
 <g stroke="none"> <text alignment-baseline="baseline" y="-9.27406311035156" x="-2.607406616210937" style="font-family: cmr10;" font-size="10">P</text>
</g> </g>
 </g></g>
 <g transform="translate(32.01436,-61.84164)">
 <g stroke="none" transform="scale(-1.00375,1.00375)translate(-2.607406616210937,-9.27406311035156)scale(-1,-1)"><g fill="#000">
 <g stroke="none"> <text alignment-baseline="baseline" y="-9.27406311035156" x="-2.607406616210937" style="font-family: cmr10;" font-size="10">Q</text>
</g> </g>
 </g></g>
 <g transform="translate(62.55394,25.14198)">
 <g stroke="none" transform="scale(-1.00375,1.00375)translate(-2.607406616210937,-9.27406311035156)scale(-1,-1)"><g fill="#000">
 <g stroke="none"> <text alignment-baseline="baseline" y="-9.27406311035156" x="-2.607406616210937" style="font-family: cmr10;" font-size="10">R</text>
</g> </g>
 </g></g>
 <g transform="translate(104.15773,6.84494)">
 <g stroke="none" transform="scale(-1.00375,1.00375)translate(-2.607406616210937,-9.27406311035156)scale(-1,-1)"><g fill="#000">
 <g stroke="none"> <text alignment-baseline="baseline" y="-9.27406311035156" x="-2.607406616210937" style="font-family: cmr10;" font-size="10">T</text>
</g> </g>
 </g></g>
 </g>
 </g>
 </g>
 </g>
 </g>
 </g></g></svg>