<svg xmlns="http://www.w3.org/2000/svg" width="157.31328pt" height="143.06369pt" viewBox="-72 -72 157.31328 143.06369" style="position: absolute; top: 0pt; left: 0pt; overflow: visible;">
<g transform="translate(8.288375854492186,-0.7381591796874999)">
<g stroke-miterlimit="10" transform="scale(1,-1)"><g stroke="#000" fill="#000">
 <g stroke-width="0.4">
 <g stroke-width="0.8">
 <path d=" M 0.0 0.0 M 71.13185 0.0 C 71.13185 39.28554 39.28554 71.13185 0.0 71.13185 C -39.28554 71.13185 -71.13185 39.28554 -71.13185 0.0 C -71.13185 -39.28554 -39.28554 -71.13185 0.0 -71.13185 C 39.28554 -71.13185 71.13185 -39.28554 71.13185 0.0 Z M 0.0 0.0  " fill="none"/>
 <path d=" M -61.60216 -35.56592 L 61.60216 -35.56592 L 61.60216 35.56592 L -61.60216 35.56592 Z  " fill="none"/>
 <path d=" M -61.60216 -35.56592 L 61.60216 35.56592  " fill="none"/>
 <path d=" M 61.60216 -35.56592 L -61.60216 35.56592  " fill="none"/>
 <path d=" M 0.0 0.0 M 2.0 0.0 C 2.0 1.10458 1.10458 2.0 0.0 2.0 C -1.10458 2.0 -2.0 1.10458 -2.0 0.0 C -2.0 -1.10458 -1.10458 -2.0 0.0 -2.0 C 1.10458 -2.0 2.0 -1.10458 2.0 0.0 Z M 0.0 0.0  " stroke="none"/>
 <g transform="translate(-72.83513,-46.1322)">
 <g stroke="none" transform="scale(-1.00375,1.00375)translate(11.621704101562498,-0.7381591796874999)scale(-1,-1)"><g fill="#000">
 <g stroke="none"> <text alignment-baseline="baseline" y="-0.7381591796874999" x="11.621704101562498" style="font-family: cmmi10;" font-size="10">A</text>
</g> </g>
 </g></g>
 <g transform="translate(65.33513,-46.1322)">
 <g stroke="none" transform="scale(-1.00375,1.00375)translate(11.621704101562498,-0.7381591796874999)scale(-1,-1)"><g fill="#000">
 <g stroke="none"> <text alignment-baseline="baseline" y="-0.7381591796874999" x="11.621704101562498" style="font-family: cmmi10;" font-size="10">B</text>
</g> </g>
 </g></g>
 <g transform="translate(65.33513,39.29889)">
 <g stroke="none" transform="scale(-1.00375,1.00375)translate(11.621704101562498,-0.7381591796874999)scale(-1,-1)"><g fill="#000">
 <g stroke="none"> <text alignment-baseline="baseline" y="-0.7381591796874999" x="11.621704101562498" style="font-family: cmmi10;" font-size="10">C</text>
</g> </g>
 </g></g>
 <g transform="translate(-73.89207,39.29889)">
 <g stroke="none" transform="scale(-1.00375,1.00375)translate(11.621704101562498,-0.7381591796874999)scale(-1,-1)"><g fill="#000">
 <g stroke="none"> <text alignment-baseline="baseline" y="-0.7381591796874999" x="11.621704101562498" style="font-family: cmmi10;" font-size="10">D</text>
</g> </g>
 </g></g>
 <g transform="translate(3.73297,-10.56628)">
 <g stroke="none" transform="scale(-1.00375,1.00375)translate(11.621704101562498,-0.7381591796874999)scale(-1,-1)"><g fill="#000">
 <g stroke="none"> <text alignment-baseline="baseline" y="-0.7381591796874999" x="11.621704101562498" style="font-family: cmmi10;" font-size="10">O</text>
</g> </g>
 </g></g>
 </g>
 </g>
 </g>
 </g></g></svg>