<svg xmlns="http://www.w3.org/2000/svg" width="284.16084pt" height="132.8735pt" viewBox="-72 -72 284.16084 132.8735" style="position: absolute; top: 0pt; left: 0pt; overflow: visible;">
<g transform="translate(-57.904052734374986,43.87860107421874)">
<g stroke-miterlimit="10" transform="scale(1,-1)"><g stroke="#000" fill="#000">
 <g stroke-width="0.4">
 <g stroke-width="0.8">
 <path d=" M 0.0 0.0 L 256.12337 0.0  " fill="none"/>
 </g>
 <g stroke-width="0.8">
 <path d=" M 0.0 0.0 L 37.56496 102.44934 L 174.1641 102.44934 L 136.59912 0.0  " fill="none"/>
 </g>
 <g transform="translate(-11.03297,-10.36629)">
 <g stroke="none" transform="scale(-1.00375,1.00375)translate(-54.57072448730467,43.87860107421874)scale(-1,-1)"><g fill="#000">
 <g stroke="none"> <text alignment-baseline="baseline" y="43.87860107421874" x="-54.57072448730467" style="font-family: cmr10;" font-size="10">A</text>
</g> </g>
 </g></g>
 <g transform="translate(133.05745,-10.36629)">
 <g stroke="none" transform="scale(-1.00375,1.00375)translate(-54.57072448730467,43.87860107421874)scale(-1,-1)"><g fill="#000">
 <g stroke="none"> <text alignment-baseline="baseline" y="43.87860107421874" x="-54.57072448730467" style="font-family: cmr10;" font-size="10">B</text>
</g> </g>
 </g></g>
 <g transform="translate(177.69707,99.03268)">
 <g stroke="none" transform="scale(-1.00375,1.00375)translate(-54.57072448730467,43.87860107421874)scale(-1,-1)"><g fill="#000">
 <g stroke="none"> <text alignment-baseline="baseline" y="43.87860107421874" x="-54.57072448730467" style="font-family: cmr10;" font-size="10">C</text>
</g> </g>
 </g></g>
 <g transform="translate(26.3931,105.98232)">
 <g stroke="none" transform="scale(-1.00375,1.00375)translate(-54.57072448730467,43.87860107421874)scale(-1,-1)"><g fill="#000">
 <g stroke="none"> <text alignment-baseline="baseline" y="43.87860107421874" x="-54.57072448730467" style="font-family: cmr10;" font-size="10">D</text>
</g> </g>
 </g></g>
 <g transform="translate(259.65634,-3.41666)">
 <g stroke="none" transform="scale(-1.00375,1.00375)translate(-54.57072448730467,43.87860107421874)scale(-1,-1)"><g fill="#000">
 <g stroke="none"> <text alignment-baseline="baseline" y="43.87860107421874" x="-54.57072448730467" style="font-family: cmr10;" font-size="10">E</text>
</g> </g>
 </g></g>
 <g transform="translate(8.5386,47.99258)">
 <g stroke="none" transform="scale(-1.00375,1.00375)translate(-54.57072448730467,43.87860107421874)scale(-1,-1)"><g fill="#000">
 <g stroke="none"> <text alignment-baseline="baseline" y="43.87860107421874" x="-54.57072448730467" style="font-family: cmr10;" font-size="10">3</text>
</g> </g>
 </g></g>
 <g transform="translate(65.7864,-13.39192)">
 <g stroke="none" transform="scale(-1.00375,1.00375)translate(-54.57072448730467,43.87860107421874)scale(-1,-1)"><g fill="#000">
 <g stroke="none"> <text alignment-baseline="baseline" y="43.87860107421874" x="-54.57072448730467" style="font-family: cmr10;" font-size="10">4</text>
</g> </g>
 </g></g>
 <g stroke-width="0.8">
 <path d=" M 37.56496 102.44934 M 31.72604 86.40723 C 37.45663 84.32144 43.86684 85.45192 48.53839 89.37187 C 52.40358 92.6152 54.63652 97.40364 54.63652 102.44934  " fill="none"/>
 </g>
 <g transform="translate(65.67613,85.74625)">
 <g stroke="none" transform="scale(-1.00375,1.00375)translate(-54.57072448730467,43.87860107421874)scale(-1,-1)"><g fill="#000">
 <g stroke="none"> <text alignment-baseline="baseline" y="43.87860107421874" x="-54.57072448730467" style="font-family: cmr10;" font-size="10">3</text>
<text alignment-baseline="baseline" y="43.87860107421874" x="-49.570705413818345" style="font-family: cmmi10;" font-size="10">x</text>
<text alignment-baseline="baseline" y="43.87860107421874" x="-41.63325309753417" style="font-family: cmr10;" font-size="10">+</text>
<text alignment-baseline="baseline" y="43.87860107421874" x="-31.633279800415032" style="font-family: cmr10;" font-size="10">8</text>
<text alignment-baseline="baseline" y="40.24967956542968" x="-26.633260726928704" style="font-family: cmsy7;" font-size="7">◦</text>
</g> </g>
 </g></g>
 <g stroke-width="0.8">
 <path d=" M 136.59912 0.0 M 153.67072 0.0 C 153.67072 7.17575 149.18105 13.58784 142.43803 16.04211  " fill="none"/>
 </g>
 <g transform="translate(164.69174,20.87384)">
 <g stroke="none" transform="scale(-1.00375,1.00375)translate(-54.57072448730467,43.87860107421874)scale(-1,-1)"><g fill="#000">
 <g stroke="none"> <text alignment-baseline="baseline" y="43.87860107421874" x="-54.57072448730467" style="font-family: cmr10;" font-size="10">2</text>
<text alignment-baseline="baseline" y="43.87860107421874" x="-49.570705413818345" style="font-family: cmmi10;" font-size="10">x</text>
<text alignment-baseline="baseline" y="43.87860107421874" x="-41.63325309753417" style="font-family: cmr10;" font-size="10">+</text>
<text alignment-baseline="baseline" y="43.87860107421874" x="-31.633279800415032" style="font-family: cmr10;" font-size="10">7</text>
<text alignment-baseline="baseline" y="40.24967956542968" x="-26.633260726928704" style="font-family: cmsy7;" font-size="7">◦</text>
</g> </g>
 </g></g>
 </g>
 </g>
 </g></g></svg>