<svg xmlns="http://www.w3.org/2000/svg" width="174.46783pt" height="126.98312pt" viewBox="-72 -72 174.46783 126.98312" style="position: absolute; top: 0pt; left: 0pt; overflow: visible;">
<g transform="translate(-54.57072448730467,12.561111450195309)">
<g stroke-miterlimit="10" transform="scale(1,-1)"><g stroke="#000" fill="#000">
 <g stroke-width="0.4">
 <g stroke-width="1.6">
 <path d=" M 0.0 42.67911 L 142.26372 42.67911  " fill="none"/>
 </g>
 <g stroke-width="1.6">
 <path d=" M 0.0 0.0 L 142.26372 0.0  " fill="none"/>
 </g>
 <g stroke-width="1.6">
 <path d=" M 95.31686 71.13185 L 38.41138 -28.45274  " fill="none"/>
 </g>
 <g transform="translate(-11.03297,39.26245)">
 <g stroke="none" transform="scale(-1.00375,1.00375)translate(-51.23739624023436,12.561111450195309)scale(-1,-1)"><g fill="#000">
 <g stroke="none"> <text alignment-baseline="baseline" y="12.561111450195309" x="-51.23739624023436" style="font-family: cmr10;" font-size="10">A</text>
</g> </g>
 </g></g>
 <g transform="translate(145.79669,39.26245)">
 <g stroke="none" transform="scale(-1.00375,1.00375)translate(-51.23739624023436,12.561111450195309)scale(-1,-1)"><g fill="#000">
 <g stroke="none"> <text alignment-baseline="baseline" y="12.561111450195309" x="-51.23739624023436" style="font-family: cmr10;" font-size="10">B</text>
</g> </g>
 </g></g>
 <g transform="translate(84.97832,74.66483)">
 <g stroke="none" transform="scale(-1.00375,1.00375)translate(-51.23739624023436,12.561111450195309)scale(-1,-1)"><g fill="#000">
 <g stroke="none"> <text alignment-baseline="baseline" y="12.561111450195309" x="-51.23739624023436" style="font-family: cmr10;" font-size="10">E</text>
</g> </g>
 </g></g>
 <g transform="translate(76.26497,46.21208)">
 <g stroke="none" transform="scale(-1.00375,1.00375)translate(-51.23739624023436,12.561111450195309)scale(-1,-1)"><g fill="#000">
 <g stroke="none"> <text alignment-baseline="baseline" y="12.561111450195309" x="-51.23739624023436" style="font-family: cmr10;" font-size="10">P</text>
</g> </g>
 </g></g>
 <g transform="translate(-10.7552,-3.41666)">
 <g stroke="none" transform="scale(-1.00375,1.00375)translate(-51.23739624023436,12.561111450195309)scale(-1,-1)"><g fill="#000">
 <g stroke="none"> <text alignment-baseline="baseline" y="12.561111450195309" x="-51.23739624023436" style="font-family: cmr10;" font-size="10">C</text>
</g> </g>
 </g></g>
 <g transform="translate(145.79669,-3.41666)">
 <g stroke="none" transform="scale(-1.00375,1.00375)translate(-51.23739624023436,12.561111450195309)scale(-1,-1)"><g fill="#000">
 <g stroke="none"> <text alignment-baseline="baseline" y="12.561111450195309" x="-51.23739624023436" style="font-family: cmr10;" font-size="10">D</text>
</g> </g>
 </g></g>
 <g transform="translate(42.74925,5.4774)">
 <g stroke="none" transform="scale(-1.00375,1.00375)translate(-51.23739624023436,12.561111450195309)scale(-1,-1)"><g fill="#000">
 <g stroke="none"> <text alignment-baseline="baseline" y="12.561111450195309" x="-51.23739624023436" style="font-family: cmr10;" font-size="10">Q</text>
</g> </g>
 </g></g>
 <g transform="translate(35.14748,-38.81903)">
 <g stroke="none" transform="scale(-1.00375,1.00375)translate(-51.23739624023436,12.561111450195309)scale(-1,-1)"><g fill="#000">
 <g stroke="none"> <text alignment-baseline="baseline" y="12.561111450195309" x="-51.23739624023436" style="font-family: cmr10;" font-size="10">F</text>
</g> </g>
 </g></g>
 <g stroke-width="1.6">
 <path d=" M 72.55458 30.35869 C 79.35886 26.43025 88.05974 28.76166 91.98817 35.56593 C 93.23636 37.72801 93.89412 40.18251 93.89412 42.67911  " fill="none"/>
 </g>
 <g transform="translate(82.67276,17.05957)">
 <g stroke="none" transform="scale(-1.00375,1.00375)translate(-51.23739624023436,12.561111450195309)scale(-1,-1)"><g fill="#000">
 <g stroke="none"> <text alignment-baseline="baseline" y="12.561111450195309" x="-51.23739624023436" style="font-family: cmr10;" font-size="10">120</text>
<text alignment-baseline="baseline" y="8.932189941406248" x="-36.23733901977538" style="font-family: cmsy7;" font-size="7">◦</text>
</g> </g>
 </g></g>
 <g stroke-width="1.6">
 <path d=" M 42.67911 0.0 C 42.67911 -4.06552 44.84882 -7.82352 48.36957 -9.85619  " fill="none"/>
 </g>
 </g>
 </g>
 </g></g></svg>