<svg xmlns="http://www.w3.org/2000/svg" width="191.63736pt" height="107.2812pt" viewBox="-72 -72 191.63736 107.2812" style="position: absolute; top: 0pt; left: 0pt; overflow: visible;">
<g transform="translate(-9.138214111328123,10.319686889648436)">
<g stroke-miterlimit="10" transform="scale(1,-1)"><g stroke="#000" fill="#000">
 <g stroke-width="0.4">
 <g stroke-width="1.6">
 <path d=" M -22.76346 0.0 L 113.81738 0.0  " fill="none"/>
 <g transform="translate(-34.53532,-3.41666)">
 <g stroke="none" transform="scale(-1.00375,1.00375)translate(-5.804885864257812,10.319686889648436)scale(-1,-1)"><g fill="#000">
 <g stroke="none"> <text alignment-baseline="baseline" y="10.319686889648436" x="-5.804885864257812" style="font-family: cmr10;" font-size="10">D</text>
</g> </g>
 </g></g>
 <g transform="translate(117.95036,-3.41666)">
 <g stroke="none" transform="scale(-1.00375,1.00375)translate(-5.804885864257812,10.319686889648436)scale(-1,-1)"><g fill="#000">
 <g stroke="none"> <text alignment-baseline="baseline" y="10.319686889648436" x="-5.804885864257812" style="font-family: cmr10;" font-size="10">C</text>
</g> </g>
 </g></g>
 </g>
 <g stroke-width="1.6">
 <path d=" M 45.52693 0.0 L 45.52693 68.29042  " fill="none"/>
 <g transform="translate(41.98526,-10.9663)">
 <g stroke="none" transform="scale(-1.00375,1.00375)translate(-5.804885864257812,10.319686889648436)scale(-1,-1)"><g fill="#000">
 <g stroke="none"> <text alignment-baseline="baseline" y="10.319686889648436" x="-5.804885864257812" style="font-family: cmr10;" font-size="10">B</text>
</g> </g>
 </g></g>
 <g transform="translate(41.77693,72.4234)">
 <g stroke="none" transform="scale(-1.00375,1.00375)translate(-5.804885864257812,10.319686889648436)scale(-1,-1)"><g fill="#000">
 <g stroke="none"> <text alignment-baseline="baseline" y="10.319686889648436" x="-5.804885864257812" style="font-family: cmr10;" font-size="10">A</text>
</g> </g>
 </g></g>
 </g>
 <g stroke-width="1.6">
 <path d=" M 45.52693 68.29042 L 113.81738 0.0  " fill="none"/>
 </g>
 <g stroke-width="1.6">
 <path d=" M 45.52693 68.29042 L -22.76346 0.0  " fill="none"/>
 </g>
 <g stroke-width="1.6">
 <path d=" M 45.52693 68.29042 L -45.52693 68.29042  " fill="none"/>
 <g transform="translate(-56.46548,64.87376)">
 <g stroke="none" transform="scale(-1.00375,1.00375)translate(-5.804885864257812,10.319686889648436)scale(-1,-1)"><g fill="#000">
 <g stroke="none"> <text alignment-baseline="baseline" y="10.319686889648436" x="-5.804885864257812" style="font-family: cmr10;" font-size="10">E</text>
</g> </g>
 </g></g>
 </g>
 <path d=" M 45.52455 4.55238 L 50.07693 4.55238 L 50.07693 0.0  " fill="none"/>
 <g stroke-width="1.6">
 <path d=" M 34.1458 68.29042 C 34.1458 65.27252 35.34529 62.3767 37.47925 60.24274  " fill="none"/>
 </g>
 <g transform="translate(15.46364,58.01514)">
 <g stroke="none" transform="scale(-1.00375,1.00375)translate(-5.804885864257812,10.319686889648436)scale(-1,-1)"><g fill="#000">
 <g stroke="none"> <text alignment-baseline="baseline" y="10.319686889648436" x="-5.804885864257812" style="font-family: cmr10;" font-size="10">30</text>
<text alignment-baseline="baseline" y="6.690765380859373" x="4.195152282714843" style="font-family: cmsy7;" font-size="7">◦</text>
</g> </g>
 </g></g>
 <g stroke-width="1.6">
 <path d=" M -11.38336 0.09932 C -11.38336 3.11722 -12.58286 6.01305 -14.71681 8.147  " fill="none"/>
 </g>
 <g transform="translate(-11.85101,5.66183)">
 <g stroke="none" transform="scale(-1.00375,1.00375)translate(-5.804885864257812,10.319686889648436)scale(-1,-1)"><g fill="#000">
 <g stroke="none"> <text alignment-baseline="baseline" y="10.319686889648436" x="-5.804885864257812" style="font-family: cmr10;" font-size="10">30</text>
<text alignment-baseline="baseline" y="6.690765380859373" x="4.195152282714843" style="font-family: cmsy7;" font-size="7">◦</text>
</g> </g>
 </g></g>
 <g stroke-width="1.6">
 <path d=" M 105.76987 8.04752 C 103.63591 5.91356 102.43642 3.01773 102.43642 -0.00017  " fill="none"/>
 </g>
 <g transform="translate(88.30287,5.66183)">
 <g stroke="none" transform="scale(-1.00375,1.00375)translate(-5.804885864257812,10.319686889648436)scale(-1,-1)"><g fill="#000">
 <g stroke="none"> <text alignment-baseline="baseline" y="10.319686889648436" x="-5.804885864257812" style="font-family: cmr10;" font-size="10">60</text>
<text alignment-baseline="baseline" y="6.690765380859373" x="4.195152282714843" style="font-family: cmsy7;" font-size="7">◦</text>
</g> </g>
 </g></g>
 <path d=" M 45.52455 -11.38113 L 113.4114 -11.38113  " fill="none"/>
 <g transform="translate(113.6114,-11.38113)">
 <g stroke-dasharray="none" stroke-dashoffset="0.0">
 <g stroke-linecap="round">
 <g stroke-linejoin="round">
 <path d=" M -2.07999 2.39998 C -1.69998 0.95998 -0.85318 0.28 0.0 0.0 C -0.85318 -0.28 -1.69998 -0.95998 -2.07999 -2.39998  " fill="none"/>
 </g>
 </g>
 </g>
  </g>
 <g transform="translate(68.83461,-21.35854)">
 <g stroke="none" transform="scale(-1.00375,1.00375)translate(-5.804885864257812,10.319686889648436)scale(-1,-1)"><g fill="#000">
 <g stroke="none"> <text alignment-baseline="baseline" y="10.319686889648436" x="-5.804885864257812" style="font-family: cmr10;" font-size="10">18</text>
<text alignment-baseline="baseline" y="10.319686889648436" x="7.5284805297851545" style="font-family: cmr10;" font-size="10">m</text>
</g> </g>
 </g></g>
 </g>
 </g>
 </g></g></svg>