<svg xmlns="http://www.w3.org/2000/svg" width="131.23317pt" height="157.21748pt" viewBox="-72 -72 131.23317 157.21748" style="position: absolute; top: 0pt; left: 0pt; overflow: visible;">
<g transform="translate(-12.030502319335934,26.787490844726555)">
<g stroke-miterlimit="10" transform="scale(1,-1)"><g stroke="#000" fill="#000">
 <g stroke-width="0.4">
 <g stroke-width="1.6">
 <path d=" M 0.0 0.0 M 42.67911 0.0 C 42.67911 23.57132 23.57132 42.67911 0.0 42.67911 C -23.57132 42.67911 -42.67911 23.57132 -42.67911 0.0 C -42.67911 -23.57132 -23.57132 -42.67911 0.0 -42.67911 C 23.57132 -42.67911 42.67911 -23.57132 42.67911 0.0 Z M 0.0 0.0  " fill="none"/>
 </g>
 <g stroke-width="1.6">
 <path d=" M -42.67911 0.0 L 0.0 42.67911 L 42.03091 -7.41101 L -3.71983 -42.5163 Z  " fill="none"/>
 </g>
 <g stroke-width="1.6">
 <path d=" M 0.0 42.67911 L 56.90549 85.35823  " fill="none"/>
 </g>
 <g stroke-width="1.6">
 <path d=" M 42.03091 -7.41101 L 56.90549 85.35823  " fill="none"/>
 </g>
 <g transform="translate(-53.5732,-3.41666)">
 <g stroke="none" transform="scale(-1.00375,1.00375)translate(-8.697174072265623,26.787490844726555)scale(-1,-1)"><g fill="#000">
 <g stroke="none"> <text alignment-baseline="baseline" y="26.787490844726555" x="-8.697174072265623" style="font-family: cmr10;" font-size="10">R</text>
</g> </g>
 </g></g>
 <g transform="translate(-2.77779,46.21208)">
 <g stroke="none" transform="scale(-1.00375,1.00375)translate(-8.697174072265623,26.787490844726555)scale(-1,-1)"><g fill="#000">
 <g stroke="none"> <text alignment-baseline="baseline" y="26.787490844726555" x="-8.697174072265623" style="font-family: cmr10;" font-size="10">S</text>
</g> </g>
 </g></g>
 <g transform="translate(60.43846,88.8912)">
 <g stroke="none" transform="scale(-1.00375,1.00375)translate(-8.697174072265623,26.787490844726555)scale(-1,-1)"><g fill="#000">
 <g stroke="none"> <text alignment-baseline="baseline" y="26.787490844726555" x="-8.697174072265623" style="font-family: cmr10;" font-size="10">T</text>
</g> </g>
 </g></g>
 <g transform="translate(45.56389,-10.82767)">
 <g stroke="none" transform="scale(-1.00375,1.00375)translate(-8.697174072265623,26.787490844726555)scale(-1,-1)"><g fill="#000">
 <g stroke="none"> <text alignment-baseline="baseline" y="26.787490844726555" x="-8.697174072265623" style="font-family: cmr10;" font-size="10">P</text>
</g> </g>
 </g></g>
 <g transform="translate(-7.60873,-52.88258)">
 <g stroke="none" transform="scale(-1.00375,1.00375)translate(-8.697174072265623,26.787490844726555)scale(-1,-1)"><g fill="#000">
 <g stroke="none"> <text alignment-baseline="baseline" y="26.787490844726555" x="-8.697174072265623" style="font-family: cmr10;" font-size="10">Q</text>
</g> </g>
 </g></g>
 <g transform="translate(-8.46533,0.68753)">
 <g stroke="none" transform="scale(-1.00375,1.00375)translate(-8.697174072265623,26.787490844726555)scale(-1,-1)"><g fill="#000">
 <g stroke="none"> <text alignment-baseline="baseline" y="26.787490844726555" x="-8.697174072265623" style="font-family: cmr10;" font-size="10">O</text>
</g> </g>
 </g></g>
 <g stroke-width="1.6">
 <path d=" M -10.44705 -35.17476 C -7.82443 -32.77173 -4.11777 -31.94995 -0.72519 -33.01956 C 1.22334 -33.63391 2.93698 -34.83394 4.18074 -36.45485  " fill="none"/>
 </g>
 <g transform="translate(-9.53062,-28.95297)">
 <g stroke="none" transform="scale(-1.00375,1.00375)translate(-8.697174072265623,26.787490844726555)scale(-1,-1)"><g fill="#000">
 <g stroke="none"> <text alignment-baseline="baseline" y="26.787490844726555" x="-8.697174072265623" style="font-family: cmr10;" font-size="10">76</text>
<text alignment-baseline="baseline" y="23.158569335937496" x="1.302864074707031" style="font-family: cmsy7;" font-size="7">◦</text>
</g> </g>
 </g></g>
 <g transform="translate(26.53632,36.87915)">
 <g stroke="none" transform="scale(-1.00375,1.00375)translate(-8.697174072265623,26.787490844726555)scale(-1,-1)"><g fill="#000">
 <g stroke="none"> <text alignment-baseline="baseline" y="26.787490844726555" x="-8.697174072265623" style="font-family: cmr10;" font-size="10">34</text>
<text alignment-baseline="baseline" y="23.158569335937496" x="1.302864074707031" style="font-family: cmsy7;" font-size="7">◦</text>
</g> </g>
 </g></g>
 </g>
 </g>
 </g></g></svg>