<svg xmlns="http://www.w3.org/2000/svg" width="101.96649pt" height="70.08284pt" viewBox="-72 -72 101.96649 70.08284" style="position: absolute; top: 0pt; left: 0pt; overflow: visible;">
<g transform="translate(-58.32070922851561,-15.886428833007809)">
<g stroke-miterlimit="10" transform="scale(1,-1)"><g stroke="#000" fill="#000">
 <g stroke-width="0.4">
 <g stroke-width="0.8">
 <path d=" M 0.0 42.68431 L 0.0 0.0 L 73.92902 0.0 Z  " fill="none"/>
 </g>
 <path d=" M 0.0 4.26816 L 4.26816 4.26816 L 4.26816 0.0  " fill="none"/>
 <g transform="translate(-3.75,46.21729)">
 <g stroke="none" transform="scale(-1.00375,1.00375)translate(-54.9873809814453,-15.886428833007809)scale(-1,-1)"><g fill="#000">
 <g stroke="none"> <text alignment-baseline="baseline" y="-15.886428833007809" x="-54.9873809814453" style="font-family: cmr10;" font-size="10">A</text>
</g> </g>
 </g></g>
 <g transform="translate(-10.61632,-10.36629)">
 <g stroke="none" transform="scale(-1.00375,1.00375)translate(-54.9873809814453,-15.886428833007809)scale(-1,-1)"><g fill="#000">
 <g stroke="none"> <text alignment-baseline="baseline" y="-15.886428833007809" x="-54.9873809814453" style="font-family: cmr10;" font-size="10">B</text>
</g> </g>
 </g></g>
 <g transform="translate(77.46199,-10.36629)">
 <g stroke="none" transform="scale(-1.00375,1.00375)translate(-54.9873809814453,-15.886428833007809)scale(-1,-1)"><g fill="#000">
 <g stroke="none"> <text alignment-baseline="baseline" y="-15.886428833007809" x="-54.9873809814453" style="font-family: cmr10;" font-size="10">C</text>
</g> </g>
 </g></g>
 <path d=" M 0.0 34.1434 C 3.04915 34.1434 5.86763 35.77069 7.39214 38.41125  " fill="none"/>
 <path d=" M 65.38428 0.0 C 65.38428 1.49792 65.77893 2.97061 66.52783 4.26784  " fill="none"/>
 </g>
 </g>
 </g></g></svg>