<svg xmlns="http://www.w3.org/2000/svg" width="172.58028pt" height="52.59048pt" viewBox="-72 -72 172.58028 52.59048" style="position: absolute; top: 0pt; left: 0pt; overflow: visible;">
<g transform="translate(15.686798095703121,-45.97476196289062)">
<g stroke-miterlimit="10" transform="scale(1,-1)"><g stroke="#000" fill="#000">
 <g stroke-width="0.4">
 <g transform="translate(-81.2905,-11.38113)">
 <g stroke="none" transform="scale(-1.00375,1.00375)translate(19.020126342773434,-45.97476196289062)scale(-1,-1)"><g transform="translate(53.363342285156236,-68.73703002929686)">
<g stroke="#000" stroke-miterlimit="10" transform="scale(1,-1)"><path d=" M -34.14322 -11.38113 h 68.28644 v 22.76227 h -68.28644 Z  " fill="none"/>
 <g transform="translate(-2.6389,-3.76735)">
 <g stroke="none" transform="scale(-1.00375,1.00375)translate(53.363342285156236,-68.73703002929686)scale(-1,-1)"><g fill="#000">
 <g stroke="none"> <text alignment-baseline="baseline" y="-68.73703002929686" x="53.363342285156236" style="font-family: cmr10;" font-size="10">x</text>
</g> </g>
 </g></g>
 </g></g><g transform="translate(103.15565490722653,-68.73703002929686)">
<g stroke="#000" stroke-miterlimit="10" transform="scale(1,-1)"><path d=" M -15.6491 -11.38113 h 31.29819 v 22.76227 h -31.29819 Z  " fill="none"/>
 <g transform="translate(-2.5,-3.76735)">
 <g stroke="none" transform="scale(-1.00375,1.00375)translate(103.15565490722653,-68.73703002929686)scale(-1,-1)"><g fill="#000">
 <g stroke="none"> <text alignment-baseline="baseline" y="-68.73703002929686" x="103.15565490722653" style="font-family: cmr10;" font-size="10">0</text>
</g> </g>
 </g></g>
 </g></g><g transform="translate(134.4538421630859,-68.73703002929686)">
<g stroke="#000" stroke-miterlimit="10" transform="scale(1,-1)"><path d=" M -15.6491 -11.38113 h 31.29819 v 22.76227 h -31.29819 Z  " fill="none"/>
 <g transform="translate(-2.5,-3.76735)">
 <g stroke="none" transform="scale(-1.00375,1.00375)translate(134.4538421630859,-68.73703002929686)scale(-1,-1)"><g fill="#000">
 <g stroke="none"> <text alignment-baseline="baseline" y="-68.73703002929686" x="134.4538421630859" style="font-family: cmr10;" font-size="10">2</text>
</g> </g>
 </g></g>
 </g></g><g transform="translate(165.75202941894528,-68.73703002929686)">
<g stroke="#000" stroke-miterlimit="10" transform="scale(1,-1)"><path d=" M -15.6491 -11.38113 h 31.29819 v 22.76227 h -31.29819 Z  " fill="none"/>
 <g transform="translate(-2.5,-3.76735)">
 <g stroke="none" transform="scale(-1.00375,1.00375)translate(165.75202941894528,-68.73703002929686)scale(-1,-1)"><g fill="#000">
 <g stroke="none"> <text alignment-baseline="baseline" y="-68.73703002929686" x="165.75202941894528" style="font-family: cmr10;" font-size="10">4</text>
</g> </g>
 </g></g>
 </g></g><g transform="translate(53.363342285156236,-45.97476196289062)">
<g stroke="#000" stroke-miterlimit="10" transform="scale(1,-1)"><path d=" M -34.14322 -11.38113 h 68.28644 v 22.76227 h -68.28644 Z  " fill="none"/>
 <g transform="translate(-2.6389,-3.76735)">
 <g stroke="none" transform="scale(-1.00375,1.00375)translate(53.363342285156236,-45.97476196289062)scale(-1,-1)"><g fill="#000">
 <g stroke="none"> <text alignment-baseline="baseline" y="-45.97476196289062" x="53.363342285156236" style="font-family: cmr10;" font-size="10">y</text>
</g> </g>
 </g></g>
 </g></g><g transform="translate(103.15565490722653,-45.97476196289062)">
<g stroke="#000" stroke-miterlimit="10" transform="scale(1,-1)"><path d=" M -15.6491 -11.38113 h 31.29819 v 22.76227 h -31.29819 Z  " fill="none"/>
 <g transform="translate(-4.16667,-3.76735)">
 <g stroke="none" transform="scale(-1.00375,1.00375)translate(103.15565490722653,-45.97476196289062)scale(-1,-1)"><g fill="#000">
 <g stroke="none"> <text alignment-baseline="baseline" y="-45.97476196289062" x="103.15565490722653" style="font-family: cmr10;" font-size="10">-4</text>
</g> </g>
 </g></g>
 </g></g><g transform="translate(134.4538421630859,-45.97476196289062)">
<g stroke="#000" stroke-miterlimit="10" transform="scale(1,-1)"><path d=" M -15.6491 -11.38113 h 31.29819 v 22.76227 h -31.29819 Z  " fill="none"/>
 <g transform="translate(-2.5,-3.76735)">
 <g stroke="none" transform="scale(-1.00375,1.00375)translate(134.4538421630859,-45.97476196289062)scale(-1,-1)"><g fill="#000">
 <g stroke="none"> <text alignment-baseline="baseline" y="-45.97476196289062" x="134.4538421630859" style="font-family: cmr10;" font-size="10">0</text>
</g> </g>
 </g></g>
 </g></g><g transform="translate(165.75202941894528,-45.97476196289062)">
<g stroke="#000" stroke-miterlimit="10" transform="scale(1,-1)"><path d=" M -15.6491 -11.38113 h 31.29819 v 22.76227 h -31.29819 Z  " fill="none"/>
 <g transform="translate(-2.5,-3.76735)">
 <g stroke="none" transform="scale(-1.00375,1.00375)translate(165.75202941894528,-45.97476196289062)scale(-1,-1)"><g fill="#000">
 <g stroke="none"> <text alignment-baseline="baseline" y="-45.97476196289062" x="165.75202941894528" style="font-family: cmr10;" font-size="10">4</text>
</g> </g>
 </g></g>
 </g></g></g></g>
 </g>
 </g>
 </g></g></svg>