<svg xmlns="http://www.w3.org/2000/svg" width="247.93152pt" height="178.41748pt" viewBox="-72 -72 247.93152 178.41748" style="position: absolute; top: 0pt; left: 0pt; overflow: visible;">
<g transform="translate(22.228195190429684,17.992065429687496)">
<g stroke-miterlimit="10" transform="scale(1,-1)"><g stroke="#000" fill="#000">
 <g stroke-width="0.4">
 <g stroke-width="1.2">
 <path d=" M 0.0 0.0 M 69.62445 32.46649 C 51.69348 70.9195 5.98651 87.55542 -32.46649 69.62445 C -70.9195 51.69348 -87.55542 5.98651 -69.62445 -32.46649 C -51.69348 -70.9195 -5.98651 -87.55542 32.46649 -69.62445 C 70.9195 -51.69348 87.55542 -5.98651 69.62445 32.46649 Z M 0.0 0.0  " fill="none"/>
 </g>
 <g stroke-width="1.2">
 <path d=" M 6.69539 76.535 L -75.6601 13.34052 L -38.4132 -66.53458 L 72.1936 -26.27586 Z  " fill="none"/>
 </g>
 <g stroke-width="1.2">
 <path d=" M 6.69539 76.535 L 72.1936 -26.27586  " fill="none"/>
 </g>
 <g stroke-width="1.2">
 <path d=" M -38.4132 -66.53458 L 138.56743 -2.11984  " fill="none"/>
 </g>
 <path d=" M 0.0 0.0 M 2.44702 1.14107 C 1.81683 2.49252 0.21039 3.07721 -1.14107 2.44702 C -2.49252 1.81683 -3.07721 0.21039 -2.44702 -1.14107 C -1.81683 -2.49252 -0.21039 -3.07721 1.14107 -2.44702 C 2.49252 -1.81683 3.07721 -0.21039 2.44702 1.14107 Z M 0.0 0.0  " stroke="none"/>
 <g transform="translate(2.76486,80.06798)">
 <g stroke="none" transform="scale(-1.00375,1.00375)translate(25.561523437499993,17.992065429687496)scale(-1,-1)"><g fill="#000">
 <g stroke="none"> <text alignment-baseline="baseline" y="17.992065429687496" x="25.561523437499993" style="font-family: cmbx10;" font-size="10">P</text>
</g> </g>
 </g></g>
 <g transform="translate(-87.8319,10.88217)">
 <g stroke="none" transform="scale(-1.00375,1.00375)translate(25.561523437499993,17.992065429687496)scale(-1,-1)"><g fill="#000">
 <g stroke="none"> <text alignment-baseline="baseline" y="17.992065429687496" x="25.561523437499993" style="font-family: cmbx10;" font-size="10">Q</text>
</g> </g>
 </g></g>
 <g transform="translate(-50.5711,-76.92867)">
 <g stroke="none" transform="scale(-1.00375,1.00375)translate(25.561523437499993,17.992065429687496)scale(-1,-1)"><g fill="#000">
 <g stroke="none"> <text alignment-baseline="baseline" y="17.992065429687496" x="25.561523437499993" style="font-family: cmbx10;" font-size="10">R</text>
</g> </g>
 </g></g>
 <g transform="translate(75.72658,-36.66995)">
 <g stroke="none" transform="scale(-1.00375,1.00375)translate(25.561523437499993,17.992065429687496)scale(-1,-1)"><g fill="#000">
 <g stroke="none"> <text alignment-baseline="baseline" y="17.992065429687496" x="25.561523437499993" style="font-family: cmbx10;" font-size="10">S</text>
</g> </g>
 </g></g>
 <g transform="translate(142.1004,-5.5504)">
 <g stroke="none" transform="scale(-1.00375,1.00375)translate(25.561523437499993,17.992065429687496)scale(-1,-1)"><g fill="#000">
 <g stroke="none"> <text alignment-baseline="baseline" y="17.992065429687496" x="25.561523437499993" style="font-family: cmbx10;" font-size="10">T</text>
</g> </g>
 </g></g>
 <g transform="translate(3.53297,3.53297)">
 <g stroke="none" transform="scale(-1.00375,1.00375)translate(25.561523437499993,17.992065429687496)scale(-1,-1)"><g fill="#000">
 <g stroke="none"> <text alignment-baseline="baseline" y="17.992065429687496" x="25.561523437499993" style="font-family: cmbx10;" font-size="10">O</text>
</g> </g>
 </g></g>
 </g>
 </g>
 </g></g></svg>