<svg xmlns="http://www.w3.org/2000/svg" width="197.01794pt" height="120.30072pt" viewBox="-72 -72 197.01794 120.30072" style="position: absolute; top: 0pt; left: 0pt; overflow: visible;">
<g transform="translate(-2.6679382324218746,-12.119644165039059)">
<g stroke-miterlimit="10" transform="scale(1,-1)"><g stroke="#000" fill="#000">
 <g stroke-width="0.4">
 <g stroke-width="1.2">
 <path d=" M 0.0 0.0 M 51.21501 0.0 C 51.21501 28.28563 28.28563 51.21501 0.0 51.21501 C -28.28563 51.21501 -51.21501 28.28563 -51.21501 0.0 C -51.21501 -28.28563 -28.28563 -51.21501 0.0 -51.21501 C 28.28563 -51.21501 51.21501 -28.28563 51.21501 0.0 Z M 0.0 0.0  " fill="none"/>
 </g>
 <g stroke-width="1.2">
 <path d=" M 21.64766 46.4233 L -51.22227 0.0 L 21.64766 -46.4233 L 51.22227 0.0 Z  " fill="none"/>
 </g>
 <g stroke-width="1.2">
 <path d=" M 7.99203 53.38649 L 112.68887 0.0  " fill="none"/>
 </g>
 <g stroke-width="1.2">
 <path d=" M 7.99203 -53.38649 L 112.68887 0.0  " fill="none"/>
 </g>
 <g stroke-width="1.2">
 <path d=" M 0.0 0.0 L 21.64766 46.4233  " fill="none"/>
 </g>
 <g stroke-width="1.2">
 <path d=" M 0.0 0.0 L 21.64766 -46.4233  " fill="none"/>
 </g>
 <path d=" M 0.0 0.0 M 1.8 0.0 C 1.8 0.99413 0.99413 1.8 0.0 1.8 C -0.99413 1.8 -1.8 0.99413 -1.8 0.0 C -1.8 -0.99413 -0.99413 -1.8 0.0 -1.8 C 0.99413 -1.8 1.8 -0.99413 1.8 0.0 Z M 0.0 0.0  " stroke="none"/>
 <g stroke-width="1.2">
 <path d=" M 3.89565 -8.35399 C 7.14207 -6.84021 9.2181 -3.58139 9.2181 0.00066  " fill="none"/>
 </g>
 <g stroke-width="1.2">
 <path d=" M 9.2183 0.0 C 9.2183 3.58205 7.14229 6.84087 3.89586 8.35464  " fill="none"/>
 </g>
 <g transform="translate(17.30046,49.95627)">
 <g stroke="none" transform="scale(-1.00375,1.00375)translate(0.6653900146484374,-12.119644165039059)scale(-1,-1)"><g fill="#000">
 <g stroke="none"> <text alignment-baseline="baseline" y="-12.119644165039059" x="0.6653900146484374" style="font-family: cmbx10;" font-size="10">A</text>
</g> </g>
 </g></g>
 <g transform="translate(-62.93576,-3.43056)">
 <g stroke="none" transform="scale(-1.00375,1.00375)translate(0.6653900146484374,-12.119644165039059)scale(-1,-1)"><g fill="#000">
 <g stroke="none"> <text alignment-baseline="baseline" y="-12.119644165039059" x="0.6653900146484374" style="font-family: cmbx10;" font-size="10">B</text>
</g> </g>
 </g></g>
 <g transform="translate(17.4949,-56.81738)">
 <g stroke="none" transform="scale(-1.00375,1.00375)translate(0.6653900146484374,-12.119644165039059)scale(-1,-1)"><g fill="#000">
 <g stroke="none"> <text alignment-baseline="baseline" y="-12.119644165039059" x="0.6653900146484374" style="font-family: cmbx10;" font-size="10">C</text>
</g> </g>
 </g></g>
 <g transform="translate(52.75525,3.53297)">
 <g stroke="none" transform="scale(-1.00375,1.00375)translate(0.6653900146484374,-12.119644165039059)scale(-1,-1)"><g fill="#000">
 <g stroke="none"> <text alignment-baseline="baseline" y="-12.119644165039059" x="0.6653900146484374" style="font-family: cmbx10;" font-size="10">D</text>
</g> </g>
 </g></g>
 <g transform="translate(116.22185,-3.43056)">
 <g stroke="none" transform="scale(-1.00375,1.00375)translate(0.6653900146484374,-12.119644165039059)scale(-1,-1)"><g fill="#000">
 <g stroke="none"> <text alignment-baseline="baseline" y="-12.119644165039059" x="0.6653900146484374" style="font-family: cmbx10;" font-size="10">P</text>
</g> </g>
 </g></g>
 <g transform="translate(-10.1718,1.53297)">
 <g stroke="none" transform="scale(-1.00375,1.00375)translate(0.6653900146484374,-12.119644165039059)scale(-1,-1)"><g fill="#000">
 <g stroke="none"> <text alignment-baseline="baseline" y="-12.119644165039059" x="0.6653900146484374" style="font-family: cmbx10;" font-size="10">O</text>
</g> </g>
 </g></g>
 <g transform="translate(13.35445,3.92332)">
 <g stroke="none" transform="scale(-1.00375,1.00375)translate(0.6653900146484374,-12.119644165039059)scale(-1,-1)"><g fill="#000">
 <g stroke="none"> <text alignment-baseline="baseline" y="-12.119644165039059" x="0.6653900146484374" style="font-family: cmbx10;" font-size="10">x</text>
</g> </g>
 </g></g>
 </g>
 </g>
 </g></g></svg>