<svg xmlns="http://www.w3.org/2000/svg" width="315.01846pt" height="188.22316pt" viewBox="-72 -72 315.01846 188.22316" style="position: absolute; top: 0pt; left: 0pt; overflow: visible;">
<g transform="translate(-54.5152130126953,97.94801330566403)">
<g stroke-miterlimit="10" transform="scale(1,-1)"><g stroke="#000" fill="#000">
 <g stroke-width="0.4">
 <g stroke-width="1.2">
 <path d=" M 0.0 0.0 L 281.70332 0.0  " fill="none"/>
 </g>
 <g stroke-width="1.2">
 <path d=" M 0.0 0.0 L 93.9011 62.60072  " fill="none"/>
 </g>
 <g stroke-width="1.2">
 <path d=" M 93.9011 0.0 L 93.9011 62.60072  " fill="none"/>
 </g>
 <g stroke-width="1.2">
 <path d=" M 93.9011 62.60072 L 281.70332 62.60072  " fill="none"/>
 </g>
 <g stroke-width="1.2">
 <path d=" M 281.70332 62.60072 L 281.70332 0.0  " fill="none"/>
 </g>
 <g stroke-width="1.2">
 <path d=" M 93.9011 62.60072 C 93.9011 114.45792 135.93846 156.49529 187.79565 156.49529 C 239.65285 156.49529 281.69022 114.45792 281.69022 62.60072  " fill="none"/>
 </g>
 <g stroke-width="1.2">
 <path d=" M 93.9011 0.0 M 93.9011 0.0 L 93.9011 7.82454 L 101.72563 7.82454 L 101.72563 0.0 Z M 101.72563 7.82454  " fill="none"/>
 </g>
 <g stroke-width="1.2">
 <path d=" M 89.19978 31.29819 L 98.58934 31.29819  " fill="none"/>
 </g>
 <g stroke-width="1.2">
 <path d=" M 276.98894 31.29819 L 286.3785 31.29819  " fill="none"/>
 </g>
 <g stroke-width="1.2">
 <path d=" M 184.65936 57.9016 L 184.65936 67.29115  " fill="none"/>
 </g>
 <g stroke-width="1.2">
 <path d=" M 190.91891 57.9016 L 190.91891 67.29115  " fill="none"/>
 </g>
 <g stroke-width="1.2">
 <path d=" M 184.65936 -4.69476 L 184.65936 4.69476  " fill="none"/>
 </g>
 <g stroke-width="1.2">
 <path d=" M 190.91891 -4.69476 L 190.91891 4.69476  " fill="none"/>
 </g>
 <g transform="translate(-11.08849,-10.39409)">
 <g stroke="none" transform="scale(-1.00375,1.00375)translate(-51.181884765624986,97.94801330566403)scale(-1,-1)"><g fill="#000">
 <g stroke="none"> <text alignment-baseline="baseline" y="97.94801330566403" x="-51.181884765624986" style="font-family: cmbx10;" font-size="10">E</text>
</g> </g>
 </g></g>
 <g transform="translate(89.74834,-10.39409)">
 <g stroke="none" transform="scale(-1.00375,1.00375)translate(-51.181884765624986,97.94801330566403)scale(-1,-1)"><g fill="#000">
 <g stroke="none"> <text alignment-baseline="baseline" y="97.94801330566403" x="-51.181884765624986" style="font-family: cmbx10;" font-size="10">C</text>
</g> </g>
 </g></g>
 <g transform="translate(285.2363,-10.39409)">
 <g stroke="none" transform="scale(-1.00375,1.00375)translate(-51.181884765624986,97.94801330566403)scale(-1,-1)"><g fill="#000">
 <g stroke="none"> <text alignment-baseline="baseline" y="97.94801330566403" x="-51.181884765624986" style="font-family: cmbx10;" font-size="10">B</text>
</g> </g>
 </g></g>
 <g transform="translate(81.54872,66.1337)">
 <g stroke="none" transform="scale(-1.00375,1.00375)translate(-51.181884765624986,97.94801330566403)scale(-1,-1)"><g fill="#000">
 <g stroke="none"> <text alignment-baseline="baseline" y="97.94801330566403" x="-51.181884765624986" style="font-family: cmbx10;" font-size="10">D</text>
</g> </g>
 </g></g>
 <g transform="translate(285.2363,59.17017)">
 <g stroke="none" transform="scale(-1.00375,1.00375)translate(-51.181884765624986,97.94801330566403)scale(-1,-1)"><g fill="#000">
 <g stroke="none"> <text alignment-baseline="baseline" y="97.94801330566403" x="-51.181884765624986" style="font-family: cmbx10;" font-size="10">A</text>
</g> </g>
 </g></g>
 <g transform="translate(184.17111,160.02393)">
 <g stroke="none" transform="scale(-1.00375,1.00375)translate(-51.181884765624986,97.94801330566403)scale(-1,-1)"><g fill="#000">
 <g stroke="none"> <text alignment-baseline="baseline" y="97.94801330566403" x="-51.181884765624986" style="font-family: cmbx10;" font-size="10">F</text>
</g> </g>
 </g></g>
 <g transform="translate(31.91437,34.83116)">
 <g stroke="none" transform="scale(-1.00375,1.00375)translate(-51.181884765624986,97.94801330566403)scale(-1,-1)"><g fill="#000">
 <g stroke="none"> <text alignment-baseline="baseline" y="97.94801330566403" x="-51.181884765624986" style="font-family: cmbx10;" font-size="10">10</text>
</g> </g>
 </g></g>
 <g transform="translate(39.28065,-14.67216)">
 <g stroke="none" transform="scale(-1.00375,1.00375)translate(-51.181884765624986,97.94801330566403)scale(-1,-1)"><g fill="#000">
 <g stroke="none"> <text alignment-baseline="baseline" y="97.94801330566403" x="-51.181884765624986" style="font-family: cmbx10;" font-size="10">6m</text>
</g> </g>
 </g></g>
 <g transform="translate(177.24753,-14.67216)">
 <g stroke="none" transform="scale(-1.00375,1.00375)translate(-51.181884765624986,97.94801330566403)scale(-1,-1)"><g fill="#000">
 <g stroke="none"> <text alignment-baseline="baseline" y="97.94801330566403" x="-51.181884765624986" style="font-family: cmbx10;" font-size="10">14m</text>
</g> </g>
 </g></g>
 </g>
 </g>
 </g></g></svg>