<?xml version="1.0" encoding="UTF-8" standalone="no"?>
<!-- Created with Inkscape (http://www.inkscape.org/) -->

<svg
   version="1.1"
   id="svg1"
   width="236.96001"
   height="124.81333"
   viewBox="0 0 236.96001 124.81333"
   sodipodi:docname="upload_uqseycrk5tvmhbxscemh76oobp.pdf"
   xmlns:inkscape="http://www.inkscape.org/namespaces/inkscape"
   xmlns:sodipodi="http://sodipodi.sourceforge.net/DTD/sodipodi-0.dtd"
   xmlns="http://www.w3.org/2000/svg"
   xmlns:svg="http://www.w3.org/2000/svg">
  <defs
     id="defs1" />
  <sodipodi:namedview
     id="namedview1"
     pagecolor="#ffffff"
     bordercolor="#000000"
     borderopacity="0.25"
     inkscape:showpageshadow="2"
     inkscape:pageopacity="0.0"
     inkscape:pagecheckerboard="0"
     inkscape:deskcolor="#d1d1d1">
    <inkscape:page
       x="0"
       y="0"
       inkscape:label="1"
       id="page1"
       width="236.96001"
       height="124.81333"
       margin="0"
       bleed="0" />
  </sodipodi:namedview>
  <g
     id="g1"
     inkscape:groupmode="layer"
     inkscape:label="1">
    <path
       id="path1"
       d="M 0,0 H -62.83165"
       style="fill:none;stroke:#000000;stroke-width:1.19553;stroke-linecap:butt;stroke-linejoin:miter;stroke-miterlimit:10;stroke-dasharray:none;stroke-opacity:1"
       transform="matrix(1.3333333,0,0,-1.3333333,104.77067,105.77067)" />
    <path
       id="path2"
       d="M -1.91284,2.55046 C -1.75343,1.59402 0,0.15938 0.4782,0 0,-0.15938 -1.75343,-1.59402 -1.91284,-2.55046"
       style="fill:none;stroke:#000000;stroke-width:0.9564;stroke-linecap:round;stroke-linejoin:round;stroke-miterlimit:10;stroke-dasharray:none;stroke-opacity:1"
       transform="matrix(-1.3333333,0,0,1.3333333,20.995133,105.77067)" />
    <path
       id="path3"
       d="M 0,0 H 85.0508"
       style="fill:none;stroke:#000000;stroke-width:1.19553;stroke-linecap:butt;stroke-linejoin:miter;stroke-miterlimit:10;stroke-dasharray:none;stroke-opacity:1"
       transform="matrix(1.3333333,0,0,-1.3333333,104.77067,105.77067)" />
    <path
       id="path4"
       d="M 0,0 V 51.03032"
       style="fill:none;stroke:#000000;stroke-width:1.19553;stroke-linecap:butt;stroke-linejoin:miter;stroke-miterlimit:10;stroke-dasharray:none;stroke-opacity:1"
       transform="matrix(1.3333333,0,0,-1.3333333,104.77067,105.77067)" />
    <path
       id="path5"
       d="M 0,51.03032 -24.6834,65.01733"
       style="fill:none;stroke:#000000;stroke-width:1.19553;stroke-linecap:butt;stroke-linejoin:miter;stroke-miterlimit:10;stroke-dasharray:none;stroke-opacity:1"
       transform="matrix(1.3333333,0,0,-1.3333333,104.77067,105.77067)" />
    <path
       id="path6"
       d="M -1.91284,2.55046 C -1.75343,1.59402 0,0.15938 0.4782,0 0,-0.15938 -1.75343,-1.59402 -1.91284,-2.55046"
       style="fill:none;stroke:#000000;stroke-width:0.9564;stroke-linecap:round;stroke-linejoin:round;stroke-miterlimit:10;stroke-dasharray:none;stroke-opacity:1"
       transform="matrix(-1.16,-0.65729333,-0.65729333,1.16,71.859467,19.080907)" />
    <path
       id="path7"
       d="M 0,51.03032 85.0508,0"
       style="fill:none;stroke:#000000;stroke-width:1.19553;stroke-linecap:butt;stroke-linejoin:miter;stroke-miterlimit:10;stroke-dasharray:none;stroke-opacity:1"
       transform="matrix(1.3333333,0,0,-1.3333333,104.77067,105.77067)" />
    <path
       id="path8"
       d="M 0,7.6533 H 7.6533 V 0"
       style="fill:none;stroke:#000000;stroke-width:1.19553;stroke-linecap:butt;stroke-linejoin:miter;stroke-miterlimit:10;stroke-dasharray:none;stroke-opacity:1"
       transform="matrix(1.3333333,0,0,-1.3333333,104.77067,105.77067)" />
    <path
       id="path9"
       d="m 6.2108594,-4.9461719 c 0,-0.984375 -0.984375,-1.8632812 -2.34375,-1.8632812 H 0.35148437 v 0.3164062 h 0.234375 c 0.77343753,0 0.78515623,0.1054688 0.78515623,0.46875 v 5.25000003 c 0,0.3515625 -0.011719,0.46875 -0.78515623,0.46875 h -0.234375 V -8.59375e-4 C 0.70304687,-0.03601562 1.4296094,-0.03601562 1.8163281,-0.03601562 c 0.375,0 1.125,0 1.4765625,0.035156245 V -0.30554687 H 3.0467969 c -0.7617188,0 -0.7851563,-0.1171875 -0.7851563,-0.46875 V -3.1532031 h 1.6875 c 1.1953125,0 2.2617188,-0.796875 2.2617188,-1.7929688 z m -1.0195313,0 c 0,0.4570313 0,1.5351563 -1.5820312,1.5351563 H 2.2264844 v -2.6835938 c 0,-0.328125 0.023437,-0.3984375 0.4921875,-0.3984375 h 0.890625 c 1.5820312,0 1.5820312,1.0546875 1.5820312,1.546875 z m 0,0"
       style="fill:#000000;fill-opacity:1;fill-rule:nonzero;stroke:none"
       aria-label="P"
       transform="matrix(1.3333333,0,0,1.3333333,66.226667,13.493333)" />
    <path
       id="path10"
       d="m 7.1375703,0.00107813 v -0.3046875 H 6.9617891 c -0.5976563,0 -0.7382813,-0.0703125 -0.84375,-0.3984375 l -2.15625,-6.23437503 c -0.046875,-0.1289062 -0.070312,-0.1992187 -0.2226563,-0.1992187 -0.1640625,0 -0.1875,0.058594 -0.2460937,0.1992187 l -2.0625,5.96484378 c -0.1757813,0.50390625 -0.57421879,0.65625 -1.11328129,0.66796875 v 0.3046875 L 1.3367891,-0.03407812 2.4852266,0.00107813 v -0.3046875 c -0.5039063,0 -0.75,-0.2578125 -0.75,-0.515625 0,-0.0234375 0.011719,-0.12890625 0.023437,-0.140625 L 2.2156953,-2.2723594 h 2.4609375 l 0.5273438,1.52343753 c 0.011719,0.046875 0.023437,0.10546875 0.023437,0.140625 0,0.3046875 -0.5507813,0.3046875 -0.8203125,0.3046875 v 0.3046875 c 0.351563,-0.03515625 1.054688,-0.03515625 1.429688,-0.03515625 z M 4.5594453,-2.5770469 H 2.3211641 l 1.1132812,-3.234375 z m 0,0"
       style="fill:#000000;fill-opacity:1;fill-rule:nonzero;stroke:none"
       aria-label="A"
       transform="matrix(1.3333333,0,0,1.3333333,109.72933,32.772)" />
    <path
       id="path11"
       d="m 7.2415234,0.10551563 c 0,-0.105468755 0,-0.2109375 -0.1054687,-0.2109375 -0.09375,0 -0.1054688,0.0703125 -0.1171875,0.17578125 -0.058594,0.5390625 -0.4804688,0.83203125 -0.9023438,0.83203125 -0.46875,0 -0.7148437,-0.33984375 -0.9609375,-0.97265625 1.1835938,-0.52734375 2.0273438,-1.80468748 2.0273438,-3.30468748 0,-2.0390625 -1.5,-3.6445313 -3.3164063,-3.6445313 -1.78125,0 -3.30468746,1.59375 -3.30468746,3.6445313 0,2.015625 1.49999996,3.59765623 3.31640626,3.59765623 0.3046875,0 0.65625,-0.0585938 0.9375,-0.15234375 0.1523437,0.94921872 0.2929687,1.86328122 1.21875,1.86328122 1.0195312,0 1.2070312,-1.32421872 1.2070312,-1.82812497 z M 6.1868359,-3.3749531 c 0,0.7734375 -0.1171875,2.1796875 -1.171875,2.95312498 -0.2226562,-0.55078125 -0.5390625,-1.05468748 -1.125,-1.05468748 -0.515625,0 -0.8203125,0.4335937 -0.8203125,0.84374998 0,0.26953125 0.1289063,0.45703125 0.140625,0.46875 C 2.6712109,-0.36323437 1.5579297,-1.0897969 1.5579297,-3.3749531 c 0,-2.5898438 1.3945312,-3.3984375 2.3085937,-3.3984375 0.9609375,0 2.3203125,0.8554687 2.3203125,3.3984375 z m -1.4414062,3.11718748 c -0.328125,0.1875 -0.65625,0.22265625 -0.8671875,0.22265625 -0.515625,0 -0.5859375,-0.45703125 -0.5859375,-0.59765625 0,-0.29296875 0.1992187,-0.62109378 0.5976562,-0.62109378 0.5273438,0 0.75,0.42187503 0.8554688,0.99609378 z m 0,0"
       style="fill:#000000;fill-opacity:1;fill-rule:nonzero;stroke:none"
       aria-label="Q"
       transform="matrix(1.3333333,0,0,1.3333333,4.4266667,109.164)" />
    <path
       id="path12"
       d="m 7.1827656,-3.3756875 c 0,-2.0390625 -1.5,-3.6445312 -3.3164062,-3.6445312 -1.78125,0 -3.30468752,1.59375 -3.30468752,3.6445312 0,2.0390625 1.53515622,3.59765625 3.30468752,3.59765625 1.8164062,0 3.3164062,-1.58203125 3.3164062,-3.59765625 z m -1.03125,-0.140625 c 0,2.63671875 -1.359375,3.48046875 -2.2734375,3.48046875 -0.9609375,0 -2.296875,-0.87890625 -2.296875,-3.48046875 0,-2.578125 1.453125,-3.2578125 2.2851563,-3.2578125 0.8671875,0 2.2851562,0.703125 2.2851562,3.2578125 z m 0,0"
       style="fill:#000000;fill-opacity:1;fill-rule:nonzero;stroke:none"
       aria-label="O"
       transform="matrix(1.3333333,0,0,1.3333333,99.602667,120.09467)" />
    <path
       id="path13"
       d="m 6.4791484,-1.8266797 c 0,-0.8671875 -0.8085937,-1.6054687 -1.921875,-1.7226562 0.9726563,-0.1992188 1.6523438,-0.8320313 1.6523438,-1.5703125 0,-0.8671875 -0.9140625,-1.6875 -2.203125,-1.6875 H 0.36196094 v 0.3164062 h 0.234375 c 0.76171876,0 0.78515626,0.1054688 0.78515626,0.46875 v 5.25000001 c 0,0.3515625 -0.023437,0.46875 -0.78515626,0.46875 h -0.234375 v 0.3046875 H 4.2643047 c 1.3242187,0 2.2148437,-0.890625 2.2148437,-1.82812501 z M 5.2486797,-5.1196484 c 0,0.6328125 -0.4921875,1.4765625 -1.59375,1.4765625 H 2.2135234 v -2.4492188 c 0,-0.328125 0.011719,-0.3984375 0.4804688,-0.3984375 h 1.2421875 c 0.9609375,0 1.3125,0.84375 1.3125,1.3710938 z m 0.234375,3.2929687 c 0,0.703125 -0.515625,1.52343751 -1.5351563,1.52343751 H 2.6939922 c -0.46875,0 -0.4804688,-0.0703125 -0.4804688,-0.3984375 V -3.4204297 h 1.875 c 0.984375,0 1.3945313,0.9257813 1.3945313,1.59375 z m 0,0"
       style="fill:#000000;fill-opacity:1;fill-rule:nonzero;stroke:none"
       aria-label="B"
       transform="matrix(1.3333333,0,0,1.3333333,223.13067,110.30667)" />
    <path
       id="path14"
       d="M 3.879125,8.5201484 2.1213125,4.6412422 C 2.051,4.4888984 2.004125,4.4888984 1.9689688,4.4888984 c -0.011719,0 -0.058594,0 -0.1640625,0.070312 l -0.9492188,0.726563 c -0.12890625,0.09375 -0.12890625,0.1289063 -0.12890625,0.1523438 0,0.046875 0.0351563,0.1054687 0.10546875,0.1054687 0.0585938,0 0.2226563,-0.1289062 0.328125,-0.2109375 C 1.2306875,5.2857734 1.3713125,5.1685859 1.4885,5.0865547 l 1.9570313,4.3125 c 0.070312,0.1640625 0.1171875,0.1640625 0.2109375,0.1640625 0.1523437,0 0.1757812,-0.058594 0.2460937,-0.1992188 L 8.426,6.171875e-4 C 8.4963125,-0.14000781 8.4963125,-0.17516406 8.4963125,-0.19860156 c 0,-0.10546875 -0.082031,-0.19921875 -0.1992187,-0.19921875 -0.082031,0 -0.1523438,0.046875 -0.2226563,0.2109375 z m 0,0"
       style="fill:#000000;fill-opacity:1;fill-rule:nonzero;stroke:none"
       aria-label="√"
       transform="matrix(1.3333333,0,0,1.3333333,79.265333,65.909333)" />
    <path
       id="path15"
       d="m 14.88,1.109 h 4.981"
       style="fill:none;stroke:#000000;stroke-width:0.3985;stroke-linecap:butt;stroke-linejoin:miter;stroke-miterlimit:10;stroke-dasharray:none;stroke-opacity:1"
       transform="matrix(1.3333333,0,0,-1.3333333,70.494667,67.121333)" />
    <path
       id="path16"
       d="m 2.8954844,-3.5030781 c 0.8085937,-0.2695313 1.3945312,-0.9726563 1.3945312,-1.7578125 0,-0.8203125 -0.8789062,-1.3710938 -1.8398437,-1.3710938 -1.0078125,0 -1.75781253,0.5976563 -1.75781253,1.3476563 0,0.3398437 0.2109375,0.5273437 0.50390623,0.5273437 0.3046875,0 0.5039063,-0.2226562 0.5039063,-0.515625 0,-0.4921875 -0.46875,-0.4921875 -0.609375,-0.4921875 0.3046875,-0.4921875 0.9609375,-0.6210937 1.3242187,-0.6210937 0.4101563,0 0.9492188,0.2226562 0.9492188,1.1132812 0,0.1289063 -0.011719,0.703125 -0.2695313,1.1367188 -0.3046875,0.4804687 -0.6445312,0.515625 -0.890625,0.515625 -0.082031,0.011719 -0.3164062,0.035156 -0.3867187,0.035156 -0.082031,0.011719 -0.1523438,0.023437 -0.1523438,0.1171875 0,0.1171875 0.070312,0.1171875 0.234375,0.1171875 h 0.4453125 c 0.8085938,0 1.1835938,0.6679688 1.1835938,1.6523438 0,1.34765623 -0.6914063,1.64062498 -1.125,1.64062498 -0.4335938,0 -1.171875,-0.17578125 -1.52343753,-0.76171875 0.35156253,0.0585938 0.65625003,-0.1640625 0.65625003,-0.53906253 0,-0.3632812 -0.2695313,-0.5625 -0.56250003,-0.5625 -0.234375,0 -0.55078125,0.140625 -0.55078125,0.5742188 0,0.91406248 0.92578128,1.57031248 2.00390628,1.57031248 1.21875,0 2.1210937,-0.9140625 2.1210937,-1.92187498 0,-0.8203125 -0.6210937,-1.59375 -1.6523437,-1.8046873 z m 0,0"
       style="fill:#000000;fill-opacity:1;fill-rule:nonzero;stroke:none"
       aria-label="3"
       transform="matrix(1.3333333,0,0,1.3333333,90.334667,76.897333)" />
    <path
       id="path17"
       d="m 2.9300859,-6.3752031 c 0,-0.234375 0,-0.2578125 -0.234375,-0.2578125 -0.609375,0.6328125 -1.4882812,0.6328125 -1.80468746,0.6328125 v 0.3164062 c 0.19921876,0 0.78515626,0 1.30078126,-0.2578125 v 5.15625003 c 0,0.3515625 -0.035156,0.48046875 -0.9257813,0.48046875 H 0.94961719 V -2.03125e-4 C 1.3011797,-0.03535937 2.1566484,-0.03535937 2.5550859,-0.03535937 c 0.3984375,0 1.265625,0 1.6171875,0.035156245 V -0.30489062 H 3.8558672 c -0.9023438,0 -0.9257813,-0.1171875 -0.9257813,-0.48046875 z m 0,0"
       style="fill:#000000;fill-opacity:1;fill-rule:nonzero;stroke:none"
       aria-label="1"
       transform="matrix(1.3333333,0,0,1.3333333,158.144,119.28933)" />
  </g>
</svg>
