<svg xmlns="http://www.w3.org/2000/svg" width="210.99834pt" height="203.03783pt" viewBox="-72 -72 210.99834 203.03783" style="position: absolute; top: 0pt; left: 0pt; overflow: visible;">
<g transform="translate(-50.55406188964842,86.73963928222655)">
<g stroke-miterlimit="10" transform="scale(1,-1)"><g stroke="#000" fill="#000">
 <g stroke-width="0.4">
 <g stroke-width="1.6">
 <path d=" M 85.35823 142.26372 L 0.0 0.0 L 170.71646 0.0 Z  " fill="none"/>
 </g>
 <g stroke-width="1.6">
 <path d=" M 34.14276 56.90462 L 136.57367 56.90462  " fill="none"/>
 </g>
 <g transform="translate(79.24156,145.79669)">
 <g stroke="none" transform="scale(-1.00375,1.00375)translate(-47.22073364257812,86.73963928222655)scale(-1,-1)"><g fill="#000">
 <g stroke="none"> <text alignment-baseline="baseline" y="86.73963928222655" x="-47.22073364257812" style="font-family: cmbx12;" font-size="14.399993896484375">A</text>
</g> </g>
 </g></g>
 <g transform="translate(-15.04964,-13.41295)">
 <g stroke="none" transform="scale(-1.00375,1.00375)translate(-47.22073364257812,86.73963928222655)scale(-1,-1)"><g fill="#000">
 <g stroke="none"> <text alignment-baseline="baseline" y="86.73963928222655" x="-47.22073364257812" style="font-family: cmbx12;" font-size="14.399993896484375">B</text>
</g> </g>
 </g></g>
 <g transform="translate(174.24944,-13.41295)">
 <g stroke="none" transform="scale(-1.00375,1.00375)translate(-47.22073364257812,86.73963928222655)scale(-1,-1)"><g fill="#000">
 <g stroke="none"> <text alignment-baseline="baseline" y="86.73963928222655" x="-47.22073364257812" style="font-family: cmbx12;" font-size="14.399993896484375">C</text>
</g> </g>
 </g></g>
 <g transform="translate(18.19313,51.96463)">
 <g stroke="none" transform="scale(-1.00375,1.00375)translate(-47.22073364257812,86.73963928222655)scale(-1,-1)"><g fill="#000">
 <g stroke="none"> <text alignment-baseline="baseline" y="86.73963928222655" x="-47.22073364257812" style="font-family: cmbx12;" font-size="14.399993896484375">D</text>
</g> </g>
 </g></g>
 <g transform="translate(140.10664,51.96463)">
 <g stroke="none" transform="scale(-1.00375,1.00375)translate(-47.22073364257812,86.73963928222655)scale(-1,-1)"><g fill="#000">
 <g stroke="none"> <text alignment-baseline="baseline" y="86.73963928222655" x="-47.22073364257812" style="font-family: cmbx12;" font-size="14.399993896484375">E</text>
</g> </g>
 </g></g>
 <g transform="matrix(0.51505,0.85716,-0.85716,0.51505,42.12668,77.1133)">
 <g stroke="none" transform="scale(-1.00375,1.00375)translate(-47.22073364257812,86.73963928222655)scale(-1,-1)"><g fill="#000">
 <g stroke="none"> <text alignment-baseline="baseline" y="86.73963928222655" x="-47.22073364257812" style="font-family: cmr12;" font-size="12">4</text>
<text alignment-baseline="baseline" y="86.73963928222655" x="-37.42916870117187" style="font-family: cmr12;" font-size="12">cm</text>
</g> </g>
 </g></g>
 <g transform="matrix(0.51505,0.85716,-0.85716,0.51505,-0.55243,5.98145)">
 <g stroke="none" transform="scale(-1.00375,1.00375)translate(-47.22073364257812,86.73963928222655)scale(-1,-1)"><g fill="#000">
 <g stroke="none"> <text alignment-baseline="baseline" y="86.73963928222655" x="-47.22073364257812" style="font-family: cmr12;" font-size="12">3</text>
<text alignment-baseline="baseline" y="86.73963928222655" x="-37.42916870117187" style="font-family: cmr12;" font-size="12">cm</text>
</g> </g>
 </g></g>
 <g transform="translate(52.47691,-37.09523)">
 <g stroke="none" transform="scale(-1.00375,1.00375)translate(-47.22073364257812,86.73963928222655)scale(-1,-1)"><g fill="#000">
 <g stroke="none"> <text alignment-baseline="baseline" y="86.73963928222655" x="-47.22073364257812" style="font-family: cmr12;" font-size="14.399993896484375">[BC</text>
<text alignment-baseline="baseline" y="86.73963928222655" x="-18.43604383882484" style="font-family: cmsy10;" font-size="14.399993896484375">||</text>
<text alignment-baseline="baseline" y="86.73963928222655" x="-5.7360869025287675" style="font-family: cmr12;" font-size="14.399993896484375">DE]</text>
</g> </g>
 </g></g>
 </g>
 </g>
 </g></g></svg>