<?xml version="1.0" encoding="UTF-8" standalone="no"?>
<!-- Created with Inkscape (http://www.inkscape.org/) -->

<svg
   version="1.1"
   id="svg1"
   width="138.49333"
   height="163.64"
   viewBox="0 0 138.49333 163.64"
   sodipodi:docname="upload_vqph7azvtka6m3ztwpamszd3wd.pdf"
   xmlns:inkscape="http://www.inkscape.org/namespaces/inkscape"
   xmlns:sodipodi="http://sodipodi.sourceforge.net/DTD/sodipodi-0.dtd"
   xmlns="http://www.w3.org/2000/svg"
   xmlns:svg="http://www.w3.org/2000/svg">
  <defs
     id="defs1" />
  <sodipodi:namedview
     id="namedview1"
     pagecolor="#ffffff"
     bordercolor="#000000"
     borderopacity="0.25"
     inkscape:showpageshadow="2"
     inkscape:pageopacity="0.0"
     inkscape:pagecheckerboard="0"
     inkscape:deskcolor="#d1d1d1">
    <inkscape:page
       x="0"
       y="0"
       inkscape:label="1"
       id="page1"
       width="138.49333"
       height="163.64"
       margin="0"
       bleed="0" />
  </sodipodi:namedview>
  <g
     id="g1"
     inkscape:groupmode="layer"
     inkscape:label="1">
    <path
       id="path1"
       d="M 42.5202,0 C 42.5202,23.48355 23.48355,42.5202 0,42.5202 -23.48355,42.5202 -42.5202,23.48355 -42.5202,0 c 0,-23.48355 19.03665,-42.5202 42.5202,-42.5202 23.48355,0 42.5202,19.03665 42.5202,42.5202 z"
       style="fill:none;stroke:#000000;stroke-width:1.19553;stroke-linecap:butt;stroke-linejoin:miter;stroke-miterlimit:10;stroke-dasharray:none;stroke-opacity:1"
       transform="matrix(1.3333333,0,0,-1.3333333,69.525333,81.528)" />
    <path
       id="path2"
       d="M -32.57182,-27.33163 0,42.5202 32.57182,-27.33163"
       style="fill:none;stroke:#000000;stroke-width:1.19553;stroke-linecap:butt;stroke-linejoin:miter;stroke-miterlimit:10;stroke-dasharray:none;stroke-opacity:1"
       transform="matrix(1.3333333,0,0,-1.3333333,69.525333,81.528)" />
    <path
       id="path3"
       d="M 0,42.5202 V -17.00824"
       style="fill:none;stroke:#000000;stroke-width:1.19553;stroke-linecap:butt;stroke-linejoin:miter;stroke-miterlimit:10;stroke-dasharray:none;stroke-opacity:1"
       transform="matrix(1.3333333,0,0,-1.3333333,69.525333,81.528)" />
    <path
       id="path4"
       d="M 0,0 -32.57182,-27.33163"
       style="fill:none;stroke:#000000;stroke-width:1.19553;stroke-linecap:butt;stroke-linejoin:miter;stroke-miterlimit:10;stroke-dasharray:none;stroke-opacity:1"
       transform="matrix(1.3333333,0,0,-1.3333333,69.525333,81.528)" />
    <path
       id="path5"
       d="M 0,0 32.57182,-27.33163"
       style="fill:none;stroke:#000000;stroke-width:1.19553;stroke-linecap:butt;stroke-linejoin:miter;stroke-miterlimit:10;stroke-dasharray:none;stroke-opacity:1"
       transform="matrix(1.3333333,0,0,-1.3333333,69.525333,81.528)" />
    <path
       id="path6"
       d="m 0,-42.5202 -32.57182,15.18857"
       style="fill:none;stroke:#000000;stroke-width:1.19553;stroke-linecap:butt;stroke-linejoin:miter;stroke-miterlimit:10;stroke-dasharray:none;stroke-opacity:1"
       transform="matrix(1.3333333,0,0,-1.3333333,69.525333,81.528)" />
    <path
       id="path7"
       d="m 0,-42.5202 32.57182,15.18857"
       style="fill:none;stroke:#000000;stroke-width:1.19553;stroke-linecap:butt;stroke-linejoin:miter;stroke-miterlimit:10;stroke-dasharray:none;stroke-opacity:1"
       transform="matrix(1.3333333,0,0,-1.3333333,69.525333,81.528)" />
    <path
       id="path8"
       d="M -8.68535,-7.28825 0,-17.00824 8.68535,-7.28825"
       style="fill:none;stroke:#000000;stroke-width:1.19553;stroke-linecap:butt;stroke-linejoin:miter;stroke-miterlimit:10;stroke-dasharray:none;stroke-opacity:1"
       transform="matrix(1.3333333,0,0,-1.3333333,69.525333,81.528)" />
    <path
       id="path9"
       d="m 6.2118672,-4.9458438 c 0,-0.984375 -0.984375,-1.8632812 -2.34375,-1.8632812 H 0.35249219 v 0.3164062 h 0.234375 c 0.77343751,0 0.78515621,0.1054688 0.78515621,0.46875 v 5.25000005 c 0,0.3515625 -0.011719,0.46875 -0.78515621,0.46875 h -0.234375 v 0.3046875 C 0.70405469,-0.0356875 1.4306172,-0.0356875 1.8173359,-0.0356875 c 0.375,0 1.125,0 1.4765625,0.03515625 v -0.3046875 H 3.0478047 c -0.7617188,0 -0.7851563,-0.1171875 -0.7851563,-0.46875 V -3.152875 h 1.6875 c 1.1953125,0 2.2617188,-0.796875 2.2617188,-1.7929688 z m -1.0195313,0 c 0,0.4570313 0,1.5351563 -1.5820312,1.5351563 H 2.2274922 v -2.6835938 c 0,-0.328125 0.023437,-0.3984375 0.4921875,-0.3984375 h 0.890625 c 1.5820312,0 1.5820312,1.0546875 1.5820312,1.546875 z m 0,0"
       style="fill:#000000;fill-opacity:1;fill-rule:nonzero;stroke:none"
       aria-label="P"
       transform="matrix(1.3333333,0,0,1.3333333,65.002667,20.141333)" />
    <path
       id="path10"
       d="m 7.2409922,0.10492969 c 0,-0.1054687525 0,-0.2109375 -0.1054688,-0.2109375 -0.09375,0 -0.1054687,0.0703125 -0.1171875,0.17578125 -0.058594,0.5390625 -0.4804687,0.83203125 -0.9023437,0.83203125 -0.46875,0 -0.7148438,-0.33984375 -0.9609375,-0.97265625 1.1835937,-0.52734375 2.0273437,-1.80468754 2.0273437,-3.30468754 0,-2.0390625 -1.5,-3.6445312 -3.3164062,-3.6445312 -1.78125,0 -3.30468751,1.59375 -3.30468751,3.6445312 0,2.015625 1.50000001,3.59765629 3.31640621,3.59765629 0.3046875,0 0.65625,-0.0585938 0.9375,-0.15234375 0.1523438,0.94921876 0.2929688,1.86328126 1.21875,1.86328126 1.0195313,0 1.2070313,-1.32421876 1.2070313,-1.82812501 z M 6.1863047,-3.3755391 c 0,0.7734375 -0.1171875,2.1796875 -1.171875,2.95312504 -0.2226563,-0.55078125 -0.5390625,-1.05468754 -1.125,-1.05468754 -0.515625,0 -0.8203125,0.4335938 -0.8203125,0.84375004 0,0.26953125 0.1289062,0.45703125 0.140625,0.46875 C 2.6706797,-0.36382031 1.5573984,-1.0903828 1.5573984,-3.3755391 c 0,-2.5898437 1.3945313,-3.3984375 2.3085938,-3.3984375 0.9609375,0 2.3203125,0.8554688 2.3203125,3.3984375 z m -1.4414063,3.11718754 c -0.328125,0.1875 -0.65625,0.22265625 -0.8671875,0.22265625 -0.515625,0 -0.5859375,-0.45703125 -0.5859375,-0.59765625 0,-0.29296875 0.1992188,-0.62109374 0.5976563,-0.62109374 0.5273437,0 0.75,0.42187499 0.8554687,0.99609374 z m 0,0"
       style="fill:#000000;fill-opacity:1;fill-rule:nonzero;stroke:none"
       aria-label="Q"
       transform="matrix(1.3333333,0,0,1.3333333,11.068,121.364)" />
    <path
       id="path11"
       d="m 7.2893906,-0.879375 c 0,-0.0585938 0,-0.1640625 -0.1289062,-0.1640625 -0.1054688,0 -0.1054688,0.0820313 -0.1171875,0.15234375 -0.058594,0.71484375 -0.4101563,0.890625 -0.65625,0.890625 -0.4921875,0 -0.5742188,-0.50390625 -0.703125,-1.42968745 l -0.140625,-0.796875 c -0.1757813,-0.6445313 -0.65625,-0.9726563 -1.2070313,-1.1601563 0.9609375,-0.234375 1.7460938,-0.84375 1.7460938,-1.6289062 0,-0.9492188 -1.1367188,-1.7929688 -2.6015625,-1.7929688 H 0.35189062 v 0.3164063 h 0.234375 c 0.77343748,0 0.78515628,0.1054687 0.78515628,0.46875 v 5.24999995 c 0,0.3515625 -0.011719,0.46875 -0.78515628,0.46875 h -0.234375 v 0.3046875 C 0.70345312,-0.035625 1.4182969,-0.035625 1.8050156,-0.035625 c 0.3867188,0 1.0898438,0 1.453125,0.03515625 v -0.3046875 h -0.234375 c -0.7734375,0 -0.796875,-0.1171875 -0.796875,-0.46875 V -3.2934375 h 1.1484375 c 0.1640625,0 0.5742188,0 0.9257813,0.3398438 0.3867187,0.3515625 0.3867187,0.65625 0.3867187,1.3242187 0,0.65625 0,1.0546875 0.3984375,1.4296875 0.4101563,0.36328125 0.9609375,0.421875 1.2539063,0.421875 0.7851562,0 0.9492187,-0.8203125 0.9492187,-1.1015625 z M 5.0511094,-5.0160937 c 0,0.6914062 -0.234375,1.5 -1.7109375,1.5 H 2.2268906 v -2.578125 c 0,-0.234375 0,-0.3515625 0.2226563,-0.3867188 0.1054687,-0.011719 0.3867187,-0.011719 0.5859375,-0.011719 0.9023437,0 2.015625,0.035156 2.015625,1.4765628 z m 0,0"
       style="fill:#000000;fill-opacity:1;fill-rule:nonzero;stroke:none"
       aria-label="R"
       transform="matrix(1.3333333,0,0,1.3333333,117.648,122.36)" />
    <path
       id="path12"
       d="m 4.9687734,-1.850625 c 0,-0.9960938 -0.65625,-1.8164063 -1.4882812,-2.015625 L 2.2031484,-4.1709375 c -0.6210937,-0.1523438 -1.0078125,-0.6914063 -1.0078125,-1.265625 0,-0.703125 0.5390625,-1.3007813 1.3125,-1.3007813 1.6640625,0 1.8867188,1.6289063 1.9453125,2.0742188 0.011719,0.058594 0.011719,0.1171875 0.1171875,0.1171875 0.1289063,0 0.1289063,-0.046875 0.1289063,-0.234375 v -2.0039063 c 0,-0.1640625 0,-0.234375 -0.1054688,-0.234375 -0.070312,0 -0.082031,0.011719 -0.1523437,0.1289063 l -0.3515625,0.5625 c -0.2929688,-0.28125 -0.703125,-0.6914063 -1.59375,-0.6914063 -1.1015625,0 -1.93359376,0.8789063 -1.93359376,1.9335938 0,0.8203125 0.52734376,1.546875 1.30078126,1.8164062 0.1054687,0.046875 0.6210937,0.1640625 1.3125,0.328125 0.2695312,0.070312 0.5742187,0.140625 0.84375,0.515625 0.2109375,0.2578125 0.3164062,0.5859375 0.3164062,0.9140625 0,0.70312505 -0.5039062,1.4179688 -1.3359375,1.4179688 -0.2929687,0 -1.0429687,-0.046875 -1.5703125,-0.5390625 -0.58593746,-0.5273438 -0.60937496,-1.171875 -0.62109371,-1.5234375 -0.0117188,-0.1054688 -0.09375,-0.1054688 -0.1171875,-0.1054688 -0.12890625,0 -0.12890625,0.070312 -0.12890625,0.2460938 V -0.0225 c 0,0.17578125 0,0.24609375 0.10546875,0.24609375 0.0703125,0 0.0820313,-0.0234375 0.15234375,-0.12890625 0,0 0.0234375,-0.046875 0.35156246,-0.57421875 0.3164063,0.33984375 0.9492188,0.703125 1.8398438,0.703125 1.1601562,0 1.9570312,-0.984375 1.9570312,-2.07421875 z m 0,0"
       style="fill:#000000;fill-opacity:1;fill-rule:nonzero;stroke:none"
       aria-label="S"
       transform="matrix(1.3333333,0,0,1.3333333,65.832,152.28)" />
    <path
       id="path13"
       d="m 6.6446562,-3.0343047 c 0,-1.828125 -1.3945312,-3.28125 -3.0703125,-3.28125 -1.6757812,0 -3.0585937,1.453125 -3.0585937,3.28125 0,1.8164063 1.3945312,3.23437501 3.0585937,3.23437501 1.6757813,0 3.0703125,-1.41796871 3.0703125,-3.23437501 z m -0.9140625,-0.140625 c 0,2.32031251 -1.2539062,3.10546876 -2.15625,3.10546876 -0.9023437,0 -2.1445312,-0.78515625 -2.1445312,-3.10546876 0,-2.1796875 1.2773437,-2.8945312 2.1445312,-2.8945312 0.8671875,0 2.15625,0.7148437 2.15625,2.8945312 z m 0,0"
       style="fill:#000000;fill-opacity:1;fill-rule:nonzero;stroke:none"
       aria-label="O"
       transform="matrix(1.3333333,0,0,1.3333333,57.937333,79.229333)" />
    <path
       id="path14"
       d="m 6.3167891,-4.0545469 -0.1875,-2.015625 H 0.51600781 l -0.1875,2.015625 h 0.2578125 c 0.1171875,-1.4765625 0.3046875,-1.734375 1.64062499,-1.734375 0.1757813,0 0.4335938,0 0.5273438,0.011719 0.1640625,0.035156 0.1640625,0.1289062 0.1640625,0.3515625 v 4.71093748 c 0,0.3046875 0,0.43359375 -0.9375,0.43359375 H 1.6292891 V 1.40625e-4 c 0.328125,-0.023437495 1.3125,-0.023437495 1.6992187,-0.023437495 0.3867188,0 1.3710938,0 1.6875,0.023437495 V -0.28110937 H 4.6761641 c -0.9492188,0 -0.9492188,-0.12890625 -0.9492188,-0.43359375 V -5.4256406 c 0,-0.234375 0.011719,-0.3164063 0.1875,-0.3515625 0.09375,-0.011719 0.3398438,-0.011719 0.4921875,-0.011719 1.3476563,0 1.5234375,0.2578125 1.6523438,1.734375 z m 0,0"
       style="fill:#000000;fill-opacity:1;fill-rule:nonzero;stroke:none"
       aria-label="T"
       transform="matrix(1.3333333,0,0,1.3333333,65.089333,116.992)" />
    <path
       id="path15"
       d="m 4.2175547,-1.5119062 c 0,-0.8671875 -0.6679688,-1.2890625 -0.890625,-1.4414063 -0.1054688,-0.070312 -0.3632813,-0.234375 -0.46875,-0.2929687 0.4453125,-0.2109375 1.1015625,-0.6679688 1.1015625,-1.3945313 0,-0.8320312 -0.84375,-1.3242187 -1.6523438,-1.3242187 -0.9375,0 -1.67578121,0.6679687 -1.67578121,1.4882812 0,0.3398438 0.12890625,0.6679688 0.33984375,0.9257813 0.15234376,0.1757812 0.21093746,0.2109375 0.72656246,0.5390625 -0.78515621,0.375 -1.31249996,0.9257812 -1.31249996,1.6523437 0,0.9609375 0.93749996,1.55859375 1.91015626,1.55859375 1.0429687,0 1.921875,-0.73828125 1.921875,-1.71093745 z M 3.5261484,-4.6408125 c 0,0.6328125 -0.5273437,1.0429688 -0.890625,1.2539063 L 1.5456797,-4.0665937 c -0.2695313,-0.1757813 -0.4804688,-0.4101563 -0.4804688,-0.75 0,-0.5859375 0.6328125,-0.9257813 1.21875,-0.9257813 0.6914063,0 1.2421875,0.4804688 1.2421875,1.1015625 z M 3.7253672,-1.1955 c 0,0.71484375 -0.7148438,1.13671875 -1.4179688,1.13671875 -0.7851562,0 -1.44140621,-0.55078125 -1.44140621,-1.30078125 0,-0.6445312 0.44531251,-1.171875 1.07812501,-1.5 l 1.125,0.703125 c 0.2109375,0.1289063 0.65625,0.421875 0.65625,0.9609375 z m 5.1269531,-1.6757812 c 0,-0.5976563 -0.023437,-1.3710938 -0.3398437,-2.0390625 -0.3984375,-0.84375 -1.078125,-1.0546875 -1.59375,-1.0546875 -0.5390625,0 -1.21875,0.2109375 -1.6171875,1.0664062 -0.2929688,0.6210938 -0.328125,1.3476563 -0.328125,2.0273438 0,0.5859375 0.011719,1.453125 0.3984375,2.1679687 0.421875,0.76171875 1.125,0.90234375 1.5351562,0.90234375 0.5859375,0 1.2421875,-0.2578125 1.6171875,-1.078125 C 8.7937266,-1.47675 8.8523203,-2.1564375 8.8523203,-2.8712812 Z M 8.0788828,-2.97675 c 0,0.5507813 0,1.3125 -0.09375,1.8398438 -0.1875,1.0195312 -0.84375,1.1132812 -1.0664062,1.1132812 -0.2695313,0 -0.9140625,-0.12890625 -1.0898438,-1.1367187 -0.09375,-0.5390625 -0.09375,-1.3007813 -0.09375,-1.8164063 0,-0.609375 0,-1.3125 0.1171875,-1.8164062 0.1757813,-0.796875 0.75,-0.9492188 1.0546875,-0.9492188 0.3398438,0 0.9023438,0.1757813 1.078125,1.0078125 0.09375,0.4921875 0.09375,1.1953125 0.09375,1.7578125 z m 4.1396482,-1.875 c 0,-0.703125 -0.5625,-1.265625 -1.265625,-1.265625 -0.714844,0 -1.2890623,0.5625 -1.2890623,1.265625 0,0.7148438 0.5742183,1.2890625 1.2890623,1.2890625 0.703125,0 1.265625,-0.5742187 1.265625,-1.2890625 z m -0.375,0 c 0,0.5039063 -0.398437,0.9023438 -0.890625,0.9023438 -0.503906,0 -0.914062,-0.3984375 -0.914062,-0.9023438 0,-0.4921875 0.410156,-0.890625 0.914062,-0.890625 0.492188,0 0.890625,0.3984375 0.890625,0.890625 z m 0,0"
       style="fill:#000000;fill-opacity:1;fill-rule:nonzero;stroke:none"
       aria-label="80°"
       transform="matrix(1.3333333,0,0,1.3333333,41.568,113.344)" />
    <path
       id="path16"
       d="m -8.90517,-14.21756 4.48731,5.23251"
       style="fill:none;stroke:#000000;stroke-width:0.3985;stroke-linecap:butt;stroke-linejoin:miter;stroke-miterlimit:10;stroke-dasharray:none;stroke-opacity:1"
       transform="matrix(1.3333333,0,0,-1.3333333,69.525333,81.528)" />
    <path
       id="path17"
       d="M 4.21463,0 0.64343,1.34572 1.8178,0 0.64343,-1.34572 Z"
       style="fill:#000000;fill-opacity:1;fill-rule:nonzero;stroke:#000000;stroke-width:0.3985;stroke-linecap:butt;stroke-linejoin:miter;stroke-miterlimit:10;stroke-dasharray:none;stroke-opacity:1"
       transform="matrix(0.86789333,-1.01208,-1.01208,-0.86789333,62.143613,95.247013)" />
  </g>
</svg>
