<svg xmlns="http://www.w3.org/2000/svg" width="114.22905pt" height="83.91513pt" viewBox="-72 -72 114.22905 83.91513" style="position: absolute; top: 0pt; left: 0pt; overflow: visible;">
<g transform="translate(-57.62625122070311,-1.6652526855468746)">
<g stroke-miterlimit="10" transform="scale(1,-1)"><g stroke="#000" fill="#000">
 <g stroke-width="0.4">
 <g stroke-width="1.2">
 <path d=" M 0.0 56.90549 L 0.0 0.0 L 85.35823 0.0 Z  " fill="none"/>
 </g>
 <g stroke-width="1.2">
 <path d=" M 0.0 11.38092 L 11.38092 11.38092 L 11.38092 0.0  " fill="none"/>
 </g>
 <g transform="translate(-3.40279,60.43846)">
 <g stroke="none" transform="scale(-1.00375,1.00375)translate(-54.2929229736328,-1.6652526855468746)scale(-1,-1)"><g fill="#000">
 <g stroke="none"> <text alignment-baseline="baseline" y="-1.6652526855468746" x="-54.2929229736328" style="font-family: cmr10;" font-size="10">P</text>
</g> </g>
 </g></g>
 <g transform="translate(-11.31078,-2.44444)">
 <g stroke="none" transform="scale(-1.00375,1.00375)translate(-54.2929229736328,-1.6652526855468746)scale(-1,-1)"><g fill="#000">
 <g stroke="none"> <text alignment-baseline="baseline" y="-1.6652526855468746" x="-54.2929229736328" style="font-family: cmr10;" font-size="10">Q</text>
</g> </g>
 </g></g>
 <g transform="translate(88.8912,-3.41666)">
 <g stroke="none" transform="scale(-1.00375,1.00375)translate(-54.2929229736328,-1.6652526855468746)scale(-1,-1)"><g fill="#000">
 <g stroke="none"> <text alignment-baseline="baseline" y="-1.6652526855468746" x="-54.2929229736328" style="font-family: cmr10;" font-size="10">R</text>
</g> </g>
 </g></g>
 <g transform="translate(40.17911,-9.9774)">
 <g stroke="none" transform="scale(-1.00375,1.00375)translate(-54.2929229736328,-1.6652526855468746)scale(-1,-1)"><g fill="#000">
 <g stroke="none"> <text alignment-baseline="baseline" y="-1.6652526855468746" x="-54.2929229736328" style="font-family: cmr10;" font-size="10">3</text>
</g> </g>
 </g></g>
 <g transform="translate(46.21208,31.98572)">
 <g stroke="none" transform="scale(-1.00375,1.00375)translate(-54.2929229736328,-1.6652526855468746)scale(-1,-1)"><g fill="#000">
 <g stroke="none"> <text alignment-baseline="baseline" y="-1.6652526855468746" x="-54.2929229736328" style="font-family: cmr10;" font-size="10">5</text>
</g> </g>
 </g></g>
 </g>
 </g>
 </g></g></svg>