<svg xmlns="http://www.w3.org/2000/svg" width="171.51645pt" height="171.51645pt" viewBox="-72 -72 171.51645 171.51645" style="position: absolute; top: 0pt; left: 0pt; overflow: visible;">
<g transform="translate(13.488220214843746,13.488220214843746)">
<g stroke-miterlimit="10" transform="scale(1,-1)"><g stroke="#000" fill="#000">
 <g stroke-width="0.4">
 <g stroke="#000" fill="#000">
 <path d=" M -85.35823 -85.35823 M -85.35823 -85.35823 L -85.35823 85.35823 L 85.35823 85.35823 L 85.35823 -85.35823 Z M 85.35823 85.35823  " stroke="none"/>
 </g>
 <g stroke="#fff" fill="#fff">
 <path d=" M 0.0 0.0 M 85.35823 0.0 C 85.35823 47.14265 47.14265 85.35823 0.0 85.35823 C -47.14265 85.35823 -85.35823 47.14265 -85.35823 0.0 C -85.35823 -47.14265 -47.14265 -85.35823 0.0 -85.35823 C 47.14265 -85.35823 85.35823 -47.14265 85.35823 0.0 Z M 0.0 0.0  " stroke="none"/>
 </g>
 <g stroke="#000" fill="#000">
 <g stroke-width="0.8">
 <path d=" M 0.0 0.0 M 85.35823 0.0 C 85.35823 47.14265 47.14265 85.35823 0.0 85.35823 C -47.14265 85.35823 -85.35823 47.14265 -85.35823 0.0 C -85.35823 -47.14265 -47.14265 -85.35823 0.0 -85.35823 C 47.14265 -85.35823 85.35823 -47.14265 85.35823 0.0 Z M 0.0 0.0  " fill="none"/>
 </g>
 </g>
 <g transform="translate(-24.12065,-8.01897)">
 <g stroke="none" transform="scale(-1.00375,1.00375)translate(16.82154846191406,13.488220214843746)scale(-1,-1)"><g fill="#000">
 <g stroke="none"> <text alignment-baseline="baseline" y="13.488220214843746" x="16.82154846191406" style="font-family: cmr17;" font-size="24.8800048828125">2</text>
<text alignment-baseline="baseline" y="13.488220214843746" x="35.742926433682435" style="font-family: cmr17;" font-size="24.8800048828125">cm</text>
</g> </g>
 </g></g>
 </g>
 </g>
 </g></g></svg>