<?xml version="1.0" encoding="UTF-8" standalone="no"?>
<!-- Created with Inkscape (http://www.inkscape.org/) -->

<svg
   version="1.1"
   id="svg1"
   width="307.97333"
   height="69.853333"
   viewBox="0 0 307.97333 69.853333"
   sodipodi:docname="upload_xg5jdc46phyr6c2d5ypjxh24vx.pdf"
   xmlns:inkscape="http://www.inkscape.org/namespaces/inkscape"
   xmlns:sodipodi="http://sodipodi.sourceforge.net/DTD/sodipodi-0.dtd"
   xmlns="http://www.w3.org/2000/svg"
   xmlns:svg="http://www.w3.org/2000/svg">
  <defs
     id="defs1" />
  <sodipodi:namedview
     id="namedview1"
     pagecolor="#ffffff"
     bordercolor="#000000"
     borderopacity="0.25"
     inkscape:showpageshadow="2"
     inkscape:pageopacity="0.0"
     inkscape:pagecheckerboard="0"
     inkscape:deskcolor="#d1d1d1">
    <inkscape:page
       x="0"
       y="0"
       inkscape:label="1"
       id="page1"
       width="307.97333"
       height="69.853333"
       margin="0"
       bleed="0" />
  </sodipodi:namedview>
  <g
     id="g1"
     inkscape:groupmode="layer"
     inkscape:label="1">
    <path
       id="path1"
       d="M -34.0161,-11.33876 H 34.0161 V 11.33876 H -34.0161 Z"
       style="fill:none;stroke:#000000;stroke-width:0.3985;stroke-linecap:butt;stroke-linejoin:miter;stroke-miterlimit:10;stroke-dasharray:none;stroke-opacity:1"
       transform="matrix(1.3333333,0,0,-1.3333333,50.045333,19.806667)" />
    <path
       id="path2"
       d="M 5.0632578,-6.1989141 C 5.0544687,-6.471375 4.9870859,-6.6676641 4.8640391,-6.7848516 4.7468516,-6.9020391 4.5476328,-6.9606328 4.2663828,-6.9606328 H 2.8718516 c -0.4306641,0 -0.7675782,-0.026367 -1.0078125,-0.082031 -0.234375,-0.061523 -0.4335938,-0.1582031 -0.5976563,-0.2929687 -0.36035155,-0.2636719 -0.53906249,-0.6708984 -0.53906249,-1.21875 0,-0.084961 0.00293,-0.1699219 0.0117188,-0.2578125 0.0146484,-0.084961 0.0263672,-0.1757813 0.0351563,-0.2695313 l 0.73828129,0.046875 c -0.00879,0.079102 -0.017578,0.1494141 -0.023437,0.2109375 -0.00879,0.064453 -0.011719,0.1171875 -0.011719,0.1640625 0,0.1494141 0.011719,0.28125 0.035156,0.3984375 0.029297,0.1113282 0.082031,0.1992188 0.1523437,0.2695313 0.09375,0.1113281 0.2255859,0.1933594 0.3984375,0.2460937 0.1699219,0.046875 0.4248047,0.070312 0.7617188,0.070312 h 1.2304687 c 0.3515625,0 0.6269531,0.029297 0.8320313,0.082031 0.2109375,0.046875 0.3867187,0.140625 0.5273437,0.28125 0.2167969,0.2109375 0.3398438,0.5830078 0.3632813,1.1132812 h 1.4179687 v 0.7148438 H 3.5515391 v 1.78125 c 0,0.3691406 0.1201171,0.5507812 0.3632812,0.5507812 0.1933594,0 0.3984375,-0.087891 0.609375,-0.2695312 0.2109375,-0.1787109 0.4599609,-0.4746094 0.75,-0.890625 l 0.5976563,-0.09375 c 0.2109375,0.3134766 0.375,0.6386719 0.4921875,0.9726562 0.1171875,0.328125 0.1757812,0.6621094 0.1757812,0.9960938 0,0.4160156 -0.09375,0.7910156 -0.28125,1.125 -0.1816406,0.32812499 -0.4511719,0.59179686 -0.8085937,0.78515624 -0.3515625,0.19628906 -0.7851563,0.29296875 -1.3007813,0.29296875 -0.5800781,0 -1.1103516,-0.140625 -1.59375,-0.421875 C 2.0779062,-0.93719531 1.6531016,-1.3971562 1.2781016,-2.0387578 0.90310156,-2.6862187 0.57497656,-3.5504766 0.29372656,-4.6286016 L 1.0437266,-4.8278203 c 0.2402343,0.9228516 0.5068359,1.6640625 0.796875,2.2265625 0.2871093,0.5625 0.6152343,0.9726562 0.984375,1.2304687 0.375,0.2519532 0.8027343,0.37500004 1.2890625,0.37500004 0.5302734,0 0.9404296,-0.13183594 1.2304687,-0.39843754 0.2871094,-0.2636718 0.4335938,-0.609375 0.4335938,-1.03125 0,-0.2167968 -0.023437,-0.4160156 -0.070312,-0.5976562 -0.046875,-0.1787109 -0.1142579,-0.3310547 -0.1992188,-0.4570313 -0.2578125,0.3603516 -0.5244141,0.6298829 -0.796875,0.8085938 -0.2666016,0.1728516 -0.5273437,0.2578125 -0.7851562,0.2578125 -0.3222657,0 -0.5800782,-0.084961 -0.7734375,-0.2578125 C 3.0505625,-2.7653203 2.9597422,-2.8942266 2.8835703,-3.0582891 2.8132578,-3.2282109 2.7781016,-3.5153203 2.7781016,-3.9137578 v -1.5703125 h -2.88281254 v -0.7148438 z m 10.7138672,0 v 0.7148438 h -4.03125 v 0.1875 c 0.131836,0.234375 0.275391,0.4335937 0.433594,0.5976562 0.155273,0.1582032 0.345703,0.2783204 0.574218,0.3632813 0.234375,0.079102 0.527344,0.1171875 0.878907,0.1171875 h 0.152343 c 0.257813,0 0.451172,0.020508 0.585938,0.058594 0.131836,0.032227 0.251953,0.079102 0.363281,0.140625 0.295899,0.1875 0.445313,0.5126954 0.445313,0.9726563 0,0.4072266 -0.09961,0.796875 -0.292969,1.171875 -0.1875,0.3691406 -0.427734,0.6767578 -0.714844,0.92578124 -0.257812,0.21972656 -0.533203,0.39550781 -0.820312,0.52734375 -0.28125,0.12597656 -0.597657,0.1875 -0.949219,0.1875 -0.243164,0 -0.454102,-0.0351563 -0.632813,-0.10546875 -0.172851,-0.0761719 -0.313476,-0.17578125 -0.421875,-0.29296875 -0.111328,-0.12304688 -0.199218,-0.27539063 -0.269531,-0.45703129 -0.06445,-0.1787109 -0.09375,-0.4482421 -0.09375,-0.8085937 v -0.070312 c -0.05566,0.046875 -0.111328,0.09375 -0.164062,0.140625 -0.219727,0.1875 -0.462891,0.3339844 -0.726563,0.4335937 -0.2578123,0.1025391 -0.5478513,0.1523438 -0.8671873,0.1523438 -0.2285156,0 -0.4189453,-0.026367 -0.5742187,-0.082031 C 8.4939219,-1.3854375 8.3620859,-1.4645391 8.2536875,-1.5582891 8.1657969,-1.6520391 8.089625,-1.7721562 8.0193125,-1.9215703 7.949,-2.0768437 7.9138437,-2.3346562 7.9138437,-2.6950078 V -5.4840703 H 6.9880625 V -6.1989141 Z M 10.3865,-4.6286016 c 0.131836,0 0.246094,0.00586 0.339844,0.011719 0.09961,0.00879 0.1875,0.023437 0.257812,0.046875 V -5.4840703 H 8.6755625 v 0.1875 c 0.1787109,0.2197266 0.3779297,0.3867187 0.5976562,0.5039062 0.225586,0.1113282 0.5419922,0.1640625 0.9492183,0.1640625 z m -1.7109375,1.8984375 c 0,0.3046875 0.041016,0.515625 0.1289062,0.6328125 0.084961,0.1113282 0.2460938,0.1640625 0.4804688,0.1640625 0.234375,0 0.4511719,-0.046875 0.65625,-0.140625 0.2021485,-0.09375 0.3779295,-0.2109375 0.5273435,-0.3515625 0.155274,-0.140625 0.28125,-0.3046875 0.375,-0.4921875 0.09375,-0.1875 0.140625,-0.375 0.140625,-0.5625 0,-0.1787109 -0.05566,-0.2958984 -0.164062,-0.3515625 -0.102539,-0.061523 -0.246094,-0.09375 -0.433594,-0.09375 h -0.07031 c -0.28125,0 -0.4980464,-0.014648 -0.6445308,-0.046875 -0.149414,-0.029297 -0.3017578,-0.082031 -0.4570312,-0.1523437 -0.2109375,-0.099609 -0.3984375,-0.2285156 -0.5625,-0.3867188 0.00586,0.070312 0.011719,0.1494141 0.011719,0.234375 0.00586,0.087891 0.011719,0.1757813 0.011719,0.2695313 z m 3.2343745,1.5703125 c 0.123047,0.1347657 0.307618,0.19921879 0.550782,0.19921879 0.263672,0 0.509765,-0.0615234 0.738281,-0.18749999 0.225586,-0.1230469 0.427734,-0.28125 0.609375,-0.46875 0.1875,-0.1933594 0.331055,-0.4013672 0.433594,-0.6210938 0.09961,-0.2255859 0.152343,-0.4628906 0.152343,-0.7148437 0,-0.2167969 -0.06445,-0.3574219 -0.1875,-0.421875 -0.117187,-0.070312 -0.287109,-0.1054688 -0.503906,-0.1054688 h -0.05859 c -0.304687,0 -0.550781,-0.023437 -0.738281,-0.070312 -0.18164,-0.046875 -0.357422,-0.1113281 -0.527344,-0.1992187 -0.134765,-0.076172 -0.257812,-0.1640625 -0.375,-0.2578125 -0.111328,-0.09375 -0.205078,-0.1933594 -0.28125,-0.3046875 0.0059,0.087891 0.01172,0.1816406 0.01172,0.28125 0.0059,0.09375 0.01172,0.1845703 0.01172,0.2695312 v 1.7226563 c 0,0.2900391 0.01465,0.4980469 0.04687,0.6210937 0.0293,0.1171875 0.07031,0.2050782 0.117187,0.2578125 z m 10.907227,-5.0390625 v 0.7148438 h -7.242187 v -0.7148438 z m -3.082031,5.69531254 c -0.547852,0 -1.054688,-0.13183594 -1.523438,-0.3984375 -0.46875,-0.26367184 -0.890625,-0.69726564 -1.265625,-1.30078124 -0.375,-0.609375 -0.700195,-1.4208984 -0.972656,-2.4375 l 0.75,-0.1992188 c 0.234375,0.8203125 0.486328,1.4970704 0.761719,2.0273438 0.28125,0.5332031 0.600586,0.9257812 0.960937,1.1835937 0.357422,0.2519532 0.779297,0.375 1.265625,0.375 0.413086,0 0.741211,-0.064453 0.984375,-0.1992187 0.249024,-0.140625 0.424805,-0.3222656 0.527344,-0.5507813 0.108398,-0.234375 0.164063,-0.4863281 0.164063,-0.7617187 0,-0.28125 -0.05567,-0.5332031 -0.164063,-0.7617188 -0.102539,-0.234375 -0.251953,-0.4160156 -0.445312,-0.5507812 -0.1875,-0.1318359 -0.416016,-0.1992188 -0.679688,-0.1992188 -0.266602,0 -0.457031,0.058594 -0.574219,0.1757813 -0.111328,0.1113281 -0.164062,0.2578125 -0.164062,0.4453125 0,0.070312 0.0029,0.140625 0.01172,0.2109375 0.01465,0.070312 0.03808,0.1523437 0.07031,0.2460937 l -0.761719,0.1523438 c -0.04101,-0.1230469 -0.07031,-0.2460938 -0.09375,-0.3632813 -0.02344,-0.1230468 -0.03516,-0.2490234 -0.03516,-0.375 0,-0.3808593 0.140625,-0.6738281 0.421875,-0.8789062 0.28125,-0.2109375 0.644531,-0.3164063 1.089844,-0.3164063 0.413086,0 0.776367,0.09375 1.089844,0.28125 0.310546,0.1875 0.55664,0.4541016 0.738281,0.796875 0.178711,0.3369141 0.269531,0.7265625 0.269531,1.171875 0,0.421875 -0.09082,0.8027344 -0.269531,1.1367188 -0.181641,0.328125 -0.451172,0.59472655 -0.808594,0.79687499 -0.351562,0.19628906 -0.802734,0.29296875 -1.347656,0.29296875 z M 25.47732,-6.1989141 v 0.7148438 H 24.422633 V 3.046875e-4 H 23.660914 V -4.6754766 c -0.0791,-0.2255859 -0.196289,-0.4160156 -0.351562,-0.5742187 -0.158204,-0.1552734 -0.360352,-0.234375 -0.609375,-0.234375 h -0.08203 v -0.7148438 h 0.152344 c 0.164063,0 0.331055,0.055664 0.503906,0.1640625 0.169922,0.1025391 0.307617,0.2578125 0.410157,0.46875 0,-0.029297 -0.0059,-0.1054687 -0.01172,-0.2226562 -0.0088,-0.1230469 -0.01172,-0.2285156 -0.01172,-0.3164063 v -0.75 h 0.539063 l 0.222656,0.65625 z m 0,0"
       style="fill:#000000;fill-opacity:1;fill-rule:nonzero;stroke:none"
       aria-label="উতা"
       transform="matrix(1.3333333,0,0,1.3333333,31.401333,24.816)" />
    <path
       id="path3"
       d="M -15.59082,-11.33876 H 15.59084 V 11.33876 H -15.59082 Z"
       style="fill:none;stroke:#000000;stroke-width:0.3985;stroke-linecap:butt;stroke-linejoin:miter;stroke-miterlimit:10;stroke-dasharray:none;stroke-opacity:1"
       transform="matrix(1.3333333,0,0,-1.3333333,116.188,19.806667)" />
    <path
       id="path4"
       d="M 4.1727969,3.046875e-4 V -0.30438281 H 3.8563906 c -0.9023437,0 -0.9257812,-0.1171875 -0.9257812,-0.48046875 V -6.3746953 c 0,-0.234375 0,-0.2578125 -0.234375,-0.2578125 -0.609375,0.6328125 -1.4882813,0.6328125 -1.80468753,0.6328125 v 0.3164062 c 0.19921873,0 0.78515623,0 1.30078123,-0.2578125 v 5.15625004 c 0,0.3515625 -0.035156,0.48046875 -0.9257812,0.48046875 H 0.95014062 V 3.046875e-4 C 1.3017031,-0.03485156 2.1571719,-0.03485156 2.5556094,-0.03485156 c 0.3984375,0 1.265625,0 1.6171875,0.0351562475 z M 9.4579531,-1.7340703 H 9.2001406 c -0.046875,0.3046875 -0.1171875,0.73828124 -0.2109375,0.89062499 -0.070312,0.0820313 -0.7265625,0.0820313 -0.9492187,0.0820313 H 6.2470156 L 7.3017031,-1.7926641 c 1.5585938,-1.3710937 2.15625,-1.9101562 2.15625,-2.90625 0,-1.1367187 -0.9023437,-1.9335937 -2.1210937,-1.9335937 -1.125,0 -1.8515625,0.9140625 -1.8515625,1.8046875 0,0.5507812 0.4921875,0.5507812 0.5273437,0.5507812 0.1640625,0 0.515625,-0.1171875 0.515625,-0.5273437 0,-0.2578125 -0.1875,-0.515625 -0.5273437,-0.515625 -0.082031,0 -0.1054688,0 -0.1289063,0.011719 C 6.0946719,-5.95282 6.6337344,-6.32782 7.2079531,-6.32782 c 0.9140625,0 1.3359375,0.8085937 1.3359375,1.6289062 0,0.796875 -0.4921875,1.5820313 -1.0429687,2.203125 L 5.5907656,-0.36297656 C 5.4852969,-0.25750781 5.4852969,-0.23407031 5.4852969,3.046875e-4 h 3.6914062 z m 5.0859379,-1.453125 c 0,-0.796875 -0.04687,-1.59375 -0.398438,-2.3320313 -0.457031,-0.9609375 -1.277344,-1.1132812 -1.6875,-1.1132812 -0.597656,0 -1.335937,0.2578125 -1.734375,1.1835937 -0.328125,0.6914063 -0.375,1.4648438 -0.375,2.2617188 0,0.75 0.04687,1.640625 0.445313,2.40234374 0.433593,0.80859375 1.160156,1.0078125 1.652343,1.0078125 0.539063,0 1.289063,-0.2109375 1.734375,-1.16015625 0.316407,-0.69140629 0.363282,-1.46484379 0.363282,-2.24999999 z m -0.832032,-0.1171875 c 0,0.75 0,1.4179687 -0.105468,2.0625 -0.152344,0.93749999 -0.714844,1.2421874875 -1.160157,1.2421874875 -0.386718,0 -0.984375,-0.2460937475 -1.160156,-1.2070312875 -0.105469,-0.5976562 -0.105469,-1.5117187 -0.105469,-2.0976562 0,-0.6445313 0,-1.3007813 0.08203,-1.8398438 0.1875,-1.1835937 0.925781,-1.265625 1.183593,-1.265625 0.328125,0 0.984375,0.1757813 1.171875,1.1601563 0.09375,0.5625 0.09375,1.3125 0.09375,1.9453125 z m 0,0"
       style="fill:#000000;fill-opacity:1;fill-rule:nonzero;stroke:none"
       aria-label="120"
       transform="matrix(1.3333333,0,0,1.3333333,106.22533,24.816)" />
    <path
       id="path5"
       d="M -15.59082,-11.33876 H 15.59084 V 11.33876 H -15.59082 Z"
       style="fill:none;stroke:#000000;stroke-width:0.3985;stroke-linecap:butt;stroke-linejoin:miter;stroke-miterlimit:10;stroke-dasharray:none;stroke-opacity:1"
       transform="matrix(1.3333333,0,0,-1.3333333,157.76267,19.806667)" />
    <path
       id="path6"
       d="M 4.1724609,3.046875e-4 V -0.30438281 H 3.8560547 c -0.9023438,0 -0.9257813,-0.1171875 -0.9257813,-0.48046875 V -6.3746953 c 0,-0.234375 0,-0.2578125 -0.234375,-0.2578125 -0.609375,0.6328125 -1.4882812,0.6328125 -1.80468746,0.6328125 v 0.3164062 c 0.19921876,0 0.78515626,0 1.30078126,-0.2578125 v 5.15625004 c 0,0.3515625 -0.035156,0.48046875 -0.9257813,0.48046875 H 0.94980469 V 3.046875e-4 C 1.3013672,-0.03485156 2.1568359,-0.03485156 2.5552734,-0.03485156 c 0.3984375,0 1.265625,0 1.6171875,0.0351562475 z M 9.4576172,-1.7340703 H 9.1998047 c -0.046875,0.3046875 -0.1171875,0.73828124 -0.2109375,0.89062499 -0.070312,0.0820313 -0.7265625,0.0820313 -0.9492188,0.0820313 H 6.2466797 L 7.3013672,-1.7926641 c 1.5585937,-1.3710937 2.15625,-1.9101562 2.15625,-2.90625 0,-1.1367187 -0.9023438,-1.9335937 -2.1210938,-1.9335937 -1.125,0 -1.8515625,0.9140625 -1.8515625,1.8046875 0,0.5507812 0.4921875,0.5507812 0.5273438,0.5507812 0.1640625,0 0.515625,-0.1171875 0.515625,-0.5273437 0,-0.2578125 -0.1875,-0.515625 -0.5273438,-0.515625 -0.082031,0 -0.1054687,0 -0.1289062,0.011719 C 6.0943359,-5.95282 6.6333984,-6.32782 7.2076172,-6.32782 c 0.9140625,0 1.3359375,0.8085937 1.3359375,1.6289062 0,0.796875 -0.4921875,1.5820313 -1.0429688,2.203125 L 5.5904297,-0.36297656 C 5.4849609,-0.25750781 5.4849609,-0.23407031 5.4849609,3.046875e-4 h 3.6914063 z m 4.9804688,-0.2695313 c 0,-1.1835937 -0.820313,-2.1796875 -1.898438,-2.1796875 -0.480468,0 -0.902343,0.1640625 -1.265625,0.5039063 v -1.9335938 c 0.199219,0.058594 0.527344,0.1289063 0.84375,0.1289063 1.230469,0 1.933594,-0.9140625 1.933594,-1.0429688 0,-0.058594 -0.03516,-0.1054687 -0.105469,-0.1054687 0,0 -0.03516,0 -0.08203,0.023437 -0.199219,0.09375 -0.679687,0.2929687 -1.347656,0.2929687 -0.398438,0 -0.855469,-0.070312 -1.324219,-0.28125 -0.08203,-0.023437 -0.128906,-0.023437 -0.128906,-0.023437 -0.09375,0 -0.09375,0.082031 -0.09375,0.234375 v 2.953125 c 0,0.1757813 0,0.2578125 0.140625,0.2578125 0.07031,0 0.08203,-0.035156 0.128906,-0.09375 0.105469,-0.1523437 0.480469,-0.6914062 1.277344,-0.6914062 0.527344,0 0.773437,0.4570312 0.855469,0.6328125 0.152343,0.375 0.175781,0.7617187 0.175781,1.2539062 0,0.3515625 0,0.9492188 -0.234375,1.37109379 -0.246094,0.38671875 -0.609375,0.64453125 -1.066406,0.64453125 -0.726563,0 -1.300782,-0.52734375 -1.464844,-1.11328124 0.02344,0.011719 0.05859,0.011719 0.164062,0.011719 0.328125,0 0.503907,-0.2460937 0.503907,-0.4804687 0,-0.2460938 -0.175782,-0.4921875 -0.503907,-0.4921875 -0.140625,0 -0.480468,0.070312 -0.480468,0.5273437 0,0.85546879 0.679687,1.82812504 1.792968,1.82812504 1.160157,0 2.179688,-0.9609375 2.179688,-2.22656254 z m 0,0"
       style="fill:#000000;fill-opacity:1;fill-rule:nonzero;stroke:none"
       aria-label="125"
       transform="matrix(1.3333333,0,0,1.3333333,147.8,24.816)" />
    <path
       id="path7"
       d="M -15.59082,-11.33876 H 15.59084 V 11.33876 H -15.59082 Z"
       style="fill:none;stroke:#000000;stroke-width:0.3985;stroke-linecap:butt;stroke-linejoin:miter;stroke-miterlimit:10;stroke-dasharray:none;stroke-opacity:1"
       transform="matrix(1.3333333,0,0,-1.3333333,199.33733,19.806667)" />
    <path
       id="path8"
       d="M 4.172125,3.046875e-4 V -0.30438281 H 3.8557187 c -0.9023437,0 -0.9257812,-0.1171875 -0.9257812,-0.48046875 V -6.3746953 c 0,-0.234375 0,-0.2578125 -0.234375,-0.2578125 -0.609375,0.6328125 -1.4882813,0.6328125 -1.8046875,0.6328125 v 0.3164062 c 0.1992187,0 0.7851562,0 1.3007812,-0.2578125 v 5.15625004 c 0,0.3515625 -0.035156,0.48046875 -0.9257812,0.48046875 H 0.94946875 V 3.046875e-4 C 1.3010312,-0.03485156 2.1565,-0.03485156 2.5549375,-0.03485156 c 0.3984375,0 1.265625,0 1.6171875,0.0351562475 z M 9.5275937,-1.6989141 c 0,-0.8203125 -0.6210937,-1.59375 -1.6523437,-1.8046875 0.8085937,-0.2695312 1.3945312,-0.9726562 1.3945312,-1.7578125 0,-0.8203125 -0.8789062,-1.3710937 -1.8398437,-1.3710937 -1.0078125,0 -1.7578125,0.5976562 -1.7578125,1.3476562 0,0.3398438 0.2109375,0.5273438 0.5039062,0.5273438 0.3046875,0 0.5039063,-0.2226563 0.5039063,-0.515625 0,-0.4921875 -0.46875,-0.4921875 -0.609375,-0.4921875 C 6.37525,-6.2575078 7.0315,-6.3864141 7.3947812,-6.3864141 c 0.4101563,0 0.9492188,0.2226563 0.9492188,1.1132813 0,0.1289062 -0.011719,0.703125 -0.2695313,1.1367187 -0.3046875,0.4804688 -0.6445312,0.515625 -0.890625,0.515625 -0.082031,0.011719 -0.3164062,0.035156 -0.3867187,0.035156 -0.082031,0.011719 -0.1523438,0.023437 -0.1523438,0.1171875 0,0.1171875 0.070312,0.1171875 0.234375,0.1171875 h 0.4453125 c 0.8085938,0 1.1835938,0.6679687 1.1835938,1.6523437 0,1.34765629 -0.6914063,1.64062504 -1.125,1.64062504 -0.4335938,0 -1.171875,-0.17578125 -1.5234375,-0.76171875 0.3515625,0.0585938 0.65625,-0.1640625 0.65625,-0.53906249 0,-0.3632813 -0.2695313,-0.5625 -0.5625,-0.5625 -0.234375,0 -0.5507813,0.140625 -0.5507813,0.5742187 0,0.91406254 0.9257813,1.57031254 2.0039063,1.57031254 1.21875,0 2.1210937,-0.9140625 2.1210937,-1.92187474 z m 5.0156253,-1.4882812 c 0,-0.796875 -0.04687,-1.59375 -0.398438,-2.3320313 -0.457031,-0.9609375 -1.277344,-1.1132812 -1.6875,-1.1132812 -0.597656,0 -1.335937,0.2578125 -1.734375,1.1835937 -0.328125,0.6914063 -0.375,1.4648438 -0.375,2.2617188 0,0.75 0.04687,1.640625 0.445313,2.40234374 0.433593,0.80859375 1.160156,1.0078125 1.652343,1.0078125 0.539063,0 1.289063,-0.2109375 1.734375,-1.16015625 0.316407,-0.69140629 0.363282,-1.46484379 0.363282,-2.24999999 z m -0.832032,-0.1171875 c 0,0.75 0,1.4179687 -0.105468,2.0625 -0.152344,0.93749999 -0.714844,1.2421874875 -1.160157,1.2421874875 -0.386718,0 -0.984375,-0.2460937475 -1.160156,-1.2070312875 -0.105469,-0.5976562 -0.105469,-1.5117187 -0.105469,-2.0976562 0,-0.6445313 0,-1.3007813 0.08203,-1.8398438 0.1875,-1.1835937 0.925781,-1.265625 1.183593,-1.265625 0.328125,0 0.984375,0.1757813 1.171875,1.1601563 0.09375,0.5625 0.09375,1.3125 0.09375,1.9453125 z m 0,0"
       style="fill:#000000;fill-opacity:1;fill-rule:nonzero;stroke:none"
       aria-label="130"
       transform="matrix(1.3333333,0,0,1.3333333,189.37467,24.816)" />
    <path
       id="path9"
       d="M -15.59082,-11.33876 H 15.59084 V 11.33876 H -15.59082 Z"
       style="fill:none;stroke:#000000;stroke-width:0.3985;stroke-linecap:butt;stroke-linejoin:miter;stroke-miterlimit:10;stroke-dasharray:none;stroke-opacity:1"
       transform="matrix(1.3333333,0,0,-1.3333333,240.91333,19.806667)" />
    <path
       id="path10"
       d="M 4.1707891,3.046875e-4 V -0.30438281 H 3.8543828 c -0.9023437,0 -0.9257812,-0.1171875 -0.9257812,-0.48046875 V -6.3746953 c 0,-0.234375 0,-0.2578125 -0.234375,-0.2578125 -0.609375,0.6328125 -1.4882813,0.6328125 -1.80468754,0.6328125 v 0.3164062 c 0.19921874,0 0.78515624,0 1.30078124,-0.2578125 v 5.15625004 c 0,0.3515625 -0.035156,0.48046875 -0.9257812,0.48046875 H 0.94813281 V 3.046875e-4 C 1.2996953,-0.03485156 2.1551641,-0.03485156 2.5536016,-0.03485156 c 0.3984375,0 1.265625,0 1.6171875,0.0351562475 z M 9.5291875,-1.6989141 c 0,-0.8203125 -0.6210938,-1.59375 -1.6523438,-1.8046875 0.8085938,-0.2695312 1.3945313,-0.9726562 1.3945313,-1.7578125 0,-0.8203125 -0.8789063,-1.3710937 -1.8398438,-1.3710937 -1.0078125,0 -1.7578125,0.5976562 -1.7578125,1.3476562 0,0.3398438 0.2109375,0.5273438 0.5039063,0.5273438 0.3046875,0 0.5039062,-0.2226563 0.5039062,-0.515625 0,-0.4921875 -0.46875,-0.4921875 -0.609375,-0.4921875 0.3046875,-0.4921875 0.9609375,-0.6210938 1.3242188,-0.6210938 0.4101562,0 0.9492187,0.2226563 0.9492187,1.1132813 0,0.1289062 -0.011719,0.703125 -0.2695312,1.1367187 -0.3046875,0.4804688 -0.6445313,0.515625 -0.890625,0.515625 -0.082031,0.011719 -0.3164063,0.035156 -0.3867188,0.035156 -0.082031,0.011719 -0.1523437,0.023437 -0.1523437,0.1171875 0,0.1171875 0.070312,0.1171875 0.234375,0.1171875 h 0.4453125 c 0.8085937,0 1.1835937,0.6679687 1.1835937,1.6523437 0,1.34765629 -0.6914062,1.64062504 -1.125,1.64062504 -0.4335937,0 -1.171875,-0.17578125 -1.5234375,-0.76171875 0.3515625,0.0585938 0.65625,-0.1640625 0.65625,-0.53906249 0,-0.3632813 -0.2695312,-0.5625 -0.5625,-0.5625 -0.234375,0 -0.5507812,0.140625 -0.5507812,0.5742187 0,0.91406254 0.9257812,1.57031254 2.0039062,1.57031254 1.21875,0 2.1210938,-0.9140625 2.1210938,-1.92187474 z m 4.9101565,-0.3046875 c 0,-1.1835937 -0.820313,-2.1796875 -1.898438,-2.1796875 -0.480469,0 -0.902344,0.1640625 -1.265625,0.5039063 v -1.9335938 c 0.199219,0.058594 0.527344,0.1289063 0.84375,0.1289063 1.230469,0 1.933594,-0.9140625 1.933594,-1.0429688 0,-0.058594 -0.03516,-0.1054687 -0.105469,-0.1054687 0,0 -0.03516,0 -0.08203,0.023437 -0.199219,0.09375 -0.679688,0.2929687 -1.347656,0.2929687 -0.398438,0 -0.855469,-0.070312 -1.324219,-0.28125 -0.08203,-0.023437 -0.128906,-0.023437 -0.128906,-0.023437 -0.09375,0 -0.09375,0.082031 -0.09375,0.234375 v 2.953125 c 0,0.1757813 0,0.2578125 0.140625,0.2578125 0.07031,0 0.08203,-0.035156 0.128906,-0.09375 0.105469,-0.1523437 0.480469,-0.6914062 1.277344,-0.6914062 0.527343,0 0.773437,0.4570312 0.855468,0.6328125 0.152344,0.375 0.175782,0.7617187 0.175782,1.2539062 0,0.3515625 0,0.9492188 -0.234375,1.37109379 -0.246094,0.38671875 -0.609375,0.64453125 -1.066407,0.64453125 -0.726562,0 -1.300781,-0.52734375 -1.464843,-1.11328124 0.02344,0.011719 0.05859,0.011719 0.164062,0.011719 0.328125,0 0.503906,-0.2460937 0.503906,-0.4804687 0,-0.2460938 -0.175781,-0.4921875 -0.503906,-0.4921875 -0.140625,0 -0.480469,0.070312 -0.480469,0.5273437 0,0.85546879 0.679688,1.82812504 1.792969,1.82812504 1.160156,0 2.179688,-0.9609375 2.179688,-2.22656254 z m 0,0"
       style="fill:#000000;fill-opacity:1;fill-rule:nonzero;stroke:none"
       aria-label="135"
       transform="matrix(1.3333333,0,0,1.3333333,230.95067,24.816)" />
    <path
       id="path11"
       d="M -15.59082,-11.33876 H 15.59084 V 11.33876 H -15.59082 Z"
       style="fill:none;stroke:#000000;stroke-width:0.3985;stroke-linecap:butt;stroke-linejoin:miter;stroke-miterlimit:10;stroke-dasharray:none;stroke-opacity:1"
       transform="matrix(1.3333333,0,0,-1.3333333,282.488,19.806667)" />
    <path
       id="path12"
       d="M 4.1704531,3.046875e-4 V -0.30438281 H 3.8540469 c -0.9023438,0 -0.9257813,-0.1171875 -0.9257813,-0.48046875 V -6.3746953 c 0,-0.234375 0,-0.2578125 -0.234375,-0.2578125 -0.609375,0.6328125 -1.4882812,0.6328125 -1.80468747,0.6328125 v 0.3164062 c 0.19921877,0 0.78515627,0 1.30078127,-0.2578125 v 5.15625004 c 0,0.3515625 -0.035156,0.48046875 -0.9257813,0.48046875 H 0.94779688 V 3.046875e-4 C 1.2993594,-0.03485156 2.1548281,-0.03485156 2.5532656,-0.03485156 c 0.3984375,0 1.265625,0 1.6171875,0.0351562475 z M 9.6694766,-1.6403203 V -1.9567266 H 8.6733828 v -4.5234375 c 0,-0.1992187 0,-0.2578125 -0.1523437,-0.2578125 -0.09375,0 -0.1171875,0 -0.1992188,0.1171875 l -3.0585937,4.6640625 v 0.3164063 h 2.6484375 v 0.86718749 c 0,0.3515625 -0.023437,0.46875 -0.7617188,0.46875 H 6.9390078 V 3.046875e-4 C 7.3491641,-0.03485156 7.8765078,-0.03485156 8.2866641,-0.03485156 c 0.421875,0 0.9492187,0 1.359375,0.0351562475 V -0.30438281 H 9.4351016 c -0.7382813,0 -0.7617188,-0.1171875 -0.7617188,-0.46875 V -1.6403203 Z M 7.9702578,-1.9567266 H 5.5444766 l 2.4257812,-3.7148437 z m 6.5742192,-1.2304687 c 0,-0.796875 -0.04687,-1.59375 -0.398438,-2.3320313 -0.457031,-0.9609375 -1.277344,-1.1132812 -1.6875,-1.1132812 -0.597656,0 -1.335937,0.2578125 -1.734375,1.1835937 -0.328125,0.6914063 -0.375,1.4648438 -0.375,2.2617188 0,0.75 0.04687,1.640625 0.445313,2.40234374 0.433593,0.80859375 1.160156,1.0078125 1.652343,1.0078125 0.539063,0 1.289063,-0.2109375 1.734375,-1.16015625 0.316407,-0.69140629 0.363282,-1.46484379 0.363282,-2.24999999 z m -0.832032,-0.1171875 c 0,0.75 0,1.4179687 -0.105468,2.0625 -0.152344,0.93749999 -0.714844,1.2421874875 -1.160157,1.2421874875 -0.386718,0 -0.984375,-0.2460937475 -1.160156,-1.2070312875 -0.105469,-0.5976562 -0.105469,-1.5117187 -0.105469,-2.0976562 0,-0.6445313 0,-1.3007813 0.08203,-1.8398438 0.1875,-1.1835937 0.925781,-1.265625 1.183593,-1.265625 0.328125,0 0.984375,0.1757813 1.171875,1.1601563 0.09375,0.5625 0.09375,1.3125 0.09375,1.9453125 z m 0,0"
       style="fill:#000000;fill-opacity:1;fill-rule:nonzero;stroke:none"
       aria-label="140"
       transform="matrix(1.3333333,0,0,1.3333333,272.52533,24.816)" />
    <path
       id="path13"
       d="M -34.0161,-11.33876 H 34.0161 V 11.33876 H -34.0161 Z"
       style="fill:none;stroke:#000000;stroke-width:0.3985;stroke-linecap:butt;stroke-linejoin:miter;stroke-miterlimit:10;stroke-dasharray:none;stroke-opacity:1"
       transform="matrix(1.3333333,0,0,-1.3333333,50.045333,50.042667)" />
    <path
       id="path14"
       d="M 4.8176562,-9.140625e-4 V -3.8915391 C 4.4192187,-4.4598984 4.0500781,-4.8788438 3.7160937,-5.1454453 3.3791797,-5.4091172 3.0158984,-5.5438828 2.62625,-5.5438828 c -0.3515625,0 -0.6386719,0.09082 -0.8554688,0.2695312 -0.2197265,0.1816407 -0.4042968,0.3837891 -0.5507812,0.609375 0.099609,-0.052734 0.234375,-0.09668 0.3984375,-0.1289062 0.1640625,-0.038086 0.3427734,-0.058594 0.5390625,-0.058594 0.3046875,0 0.5507812,0.064453 0.7382812,0.1875 0.1875,0.1171875 0.3222657,0.2666016 0.4101563,0.4453125 0.09375,0.1816407 0.140625,0.3603516 0.140625,0.5390625 0,0.3925782 -0.1347656,0.7441407 -0.3984375,1.0546875 -0.2666016,0.3134766 -0.6767578,0.6181641 -1.2304688,0.9140625 l -0.515625,-0.7265625 c 0.366211,-0.1552734 0.6826172,-0.328125 0.9492188,-0.515625 0.2636719,-0.1875 0.3984375,-0.4130859 0.3984375,-0.6796875 0,-0.1464843 -0.058594,-0.2695312 -0.1757813,-0.3632812 -0.1113281,-0.099609 -0.2695312,-0.1523438 -0.4804687,-0.1523438 -0.1728516,0 -0.3339844,0.020508 -0.4804688,0.058594 -0.149414,0.041016 -0.3105468,0.102539 -0.4804687,0.1875 l -0.80859375,-0.65625 c 0.3046875,-0.5214844 0.64453125,-0.9375 1.01953125,-1.2421875 0.375,-0.3105469 0.8085937,-0.46875 1.3007812,-0.46875 0.4511719,0 0.8583985,0.1142578 1.21875,0.3398437 0.3574219,0.2197266 0.7207032,0.5478516 1.0898438,0.984375 -0.00879,-0.1083984 -0.017578,-0.2402343 -0.023437,-0.3984375 -0.00879,-0.1640625 -0.011719,-0.3222656 -0.011719,-0.4804687 v -1.03125 H 5.345 l 0.234375,0.65625 h 1.0546875 v 0.7148437 H 5.5910937 V -9.140625e-4 Z M 12.815703,-6.2001328 v 0.7148437 H 11.761016 V -9.140625e-4 H 10.999297 V -3.8915391 C 10.583281,-4.4598984 10.196562,-4.8788438 9.8391406,-5.1454453 9.4787891,-5.4091172 9.1155078,-5.5438828 8.7492969,-5.5438828 c -0.3134766,0 -0.5595703,0.09082 -0.7382813,0.2695312 -0.1728515,0.1728516 -0.2578125,0.3925782 -0.2578125,0.65625 0,0.328125 0.1171875,0.5800782 0.3515625,0.75 0.234375,0.1640625 0.6240235,0.2753907 1.171875,0.328125 l -0.058594,0.8320313 C 8.7785934,-2.7460313 8.388945,-2.8397813 8.0461716,-2.9891953 7.7004684,-3.1444688 7.4280075,-3.3554063 7.2258591,-3.6220078 7.02957,-3.8856797 6.9328903,-4.2138047 6.9328903,-4.6063828 c 0,-0.3574219 0.076172,-0.6591797 0.234375,-0.9023438 0.1640625,-0.2490234 0.375,-0.4365234 0.6328125,-0.5625 0.2578125,-0.1318359 0.5332031,-0.1992187 0.8320313,-0.1992187 0.4833984,0 0.9082031,0.1171875 1.2773437,0.3515625 0.3662112,0.2285156 0.7412112,0.5595703 1.1250002,0.9960937 -0.0088,-0.1171875 -0.01758,-0.2490234 -0.02344,-0.3984375 -0.0088,-0.1464843 -0.01172,-0.2871093 -0.01172,-0.421875 v -1.1132812 h 0.527344 l 0.222656,0.65625 z m 6.788086,0 v 0.7148437 H 18.56082 V -9.140625e-4 H 17.799102 V -3.1766953 c -0.149415,-0.178711 -0.28125,-0.3164063 -0.398438,-0.4101563 -0.117187,-0.099609 -0.231445,-0.1523437 -0.339844,-0.1523437 -0.09375,0 -0.18457,0.029297 -0.269531,0.082031 -0.0791,0.055664 -0.169922,0.1582032 -0.269531,0.3046875 -0.09375,0.1494141 -0.222656,0.375 -0.386719,0.6796875 -0.181641,0.328125 -0.345703,0.5976563 -0.492187,0.8085938 -0.149415,0.2050781 -0.304688,0.3574219 -0.46875,0.4570312 -0.158204,0.09375 -0.351563,0.140625 -0.585938,0.140625 -0.266602,0 -0.521484,-0.082031 -0.761719,-0.2460937 -0.234375,-0.1699219 -0.489258,-0.4746094 -0.761718,-0.9140625 l 0.609375,-0.375 c 0.17871,0.3222656 0.328125,0.5332031 0.445312,0.6328125 0.117188,0.09375 0.246094,0.140625 0.386719,0.140625 0.140625,0 0.27539,-0.052734 0.410156,-0.1640625 0.131836,-0.1171875 0.292969,-0.3310547 0.480469,-0.6445313 -0.06445,-0.4130859 -0.134766,-0.7412109 -0.210938,-0.984375 -0.07031,-0.2402343 -0.18457,-0.4335937 -0.339843,-0.5742187 -0.164063,-0.1464844 -0.392579,-0.2607422 -0.679688,-0.3398438 -0.28125,-0.076172 -0.641602,-0.1435547 -1.078125,-0.1992187 l 0.117188,-0.5507813 H 12.607695 V -6.200133 Z m -5.824219,0.7148437 c 0.506836,0.070312 0.905274,0.1816407 1.195313,0.328125 0.287109,0.140625 0.498047,0.3398438 0.632812,0.5976563 0.131836,0.2519531 0.213867,0.5800781 0.246094,0.984375 0.164063,-0.3427735 0.322266,-0.5771485 0.480469,-0.703125 0.155273,-0.131836 0.328125,-0.1992188 0.515625,-0.1992188 0.178711,0 0.342773,0.043945 0.492187,0.1289063 0.146485,0.087891 0.307617,0.2167969 0.480469,0.3867187 -0.01758,-0.099609 -0.02344,-0.2021484 -0.02344,-0.3046875 0,-0.099609 0,-0.1992187 0,-0.2929687 v -0.9257813 z m 6.500977,0.6445313 c 0,-0.413086 0.131836,-0.741211 0.398437,-0.984375 0.272461,-0.2490235 0.609375,-0.375 1.007813,-0.375 0.398437,0 0.729492,0.1259765 0.996094,0.375 0.272461,0.243164 0.410156,0.571289 0.410156,0.984375 0,0.4160156 -0.137695,0.7470703 -0.410156,0.9960937 -0.266602,0.2431641 -0.597657,0.3632813 -0.996094,0.3632813 -0.398438,0 -0.735352,-0.1201172 -1.007813,-0.3632813 -0.266601,-0.2490234 -0.398437,-0.5800781 -0.398437,-0.9960937 z m 0.691406,0 c 0,0.2285156 0.06445,0.4042969 0.199219,0.5273437 0.140625,0.1259766 0.310547,0.1875 0.515625,0.1875 0.210937,0 0.380859,-0.061523 0.515625,-0.1875 0.131836,-0.1318359 0.199219,-0.3076172 0.199219,-0.5273437 0,-0.225586 -0.06738,-0.3984375 -0.199219,-0.515625 -0.134766,-0.1230469 -0.304688,-0.1875 -0.515625,-0.1875 -0.205078,0 -0.375,0.067383 -0.515625,0.1992187 -0.134766,0.1259766 -0.199219,0.2929688 -0.199219,0.5039063 z m -0.234375,1.7109375 c 0.413086,0.2519531 0.808594,0.5507812 1.183594,0.9023437 0.375,0.3515625 0.714844,0.7265625 1.019531,1.125 0.310547,0.39843754 0.574219,0.79394535 0.785156,1.18359379 l -0.644531,0.328125 C 22.805937,-0.00970313 22.533477,-0.3905625 22.261016,-0.72747656 21.994414,-1.0614609 21.701445,-1.3720078 21.382109,-1.6532578 c -0.322265,-0.2871094 -0.703125,-0.5683594 -1.148437,-0.84375 z m 4.470703,-1.1601563 c -0.407226,0 -0.732422,-0.099609 -0.972656,-0.3046875 -0.234375,-0.2109375 -0.351563,-0.4980468 -0.351563,-0.8671875 0,-0.1464843 0.01758,-0.2929687 0.05859,-0.4335937 0.04687,-0.140625 0.09668,-0.2607422 0.152344,-0.3632813 l 0.761719,0.2109375 c -0.04687,0.070312 -0.08789,0.1523438 -0.117188,0.2460938 -0.03223,0.09375 -0.04687,0.196289 -0.04687,0.3046875 0,0.1728515 0.04687,0.3017578 0.140625,0.3867187 0.09375,0.079102 0.216797,0.1171875 0.375,0.1171875 0.131836,0 0.269531,-0.023437 0.410156,-0.070312 0.146485,-0.052734 0.298829,-0.1582031 0.457032,-0.3164062 0.155273,-0.1640625 0.310547,-0.4013672 0.46875,-0.7148438 l 0.539062,-0.1289062 c 0.225586,0.2050781 0.413086,0.4394531 0.5625,0.703125 0.155274,0.2578125 0.234375,0.5361328 0.234375,0.8320312 0,0.5332032 -0.1875,0.9492188 -0.5625,1.2539063 -0.375,0.2988281 -0.852539,0.5009765 -1.429687,0.609375 0.483398,0.1347656 0.902343,0.3046875 1.253906,0.515625 0.351562,0.2050781 0.647461,0.421875 0.890625,0.65625 0.240234,0.234375 0.439453,0.4658203 0.597656,0.69140624 -0.0088,-0.15527344 -0.01758,-0.30761724 -0.02344,-0.45703124 0,-0.1552735 0,-0.3222656 0,-0.5039063 v -4.9335937 h 0.527343 l 0.234375,0.65625 h 1.054688 v 0.7148437 H 29.380156 V -9.140625e-4 H 28.606719 C 28.354766,-0.367125 28.058867,-0.70989844 27.716094,-1.0321641 27.37918,-1.3515 26.989531,-1.6298203 26.544219,-1.8641953 c -0.439453,-0.2402344 -0.9375,-0.4101563 -1.5,-0.5039063 l -0.234375,-0.9257812 c 0.802734,-0.061523 1.388672,-0.2109375 1.757812,-0.4453125 0.375,-0.234375 0.5625,-0.5332031 0.5625,-0.9023438 0,-0.2578125 -0.0791,-0.4863281 -0.234375,-0.6914062 -0.196289,0.3222656 -0.439453,0.5742187 -0.726562,0.7617187 -0.28125,0.1875 -0.603516,0.28125 -0.960938,0.28125 z m 7.754883,-1.9101562 v 0.7148437 h -0.351562 c -0.205079,0.1816407 -0.357422,0.3486328 -0.457032,0.5039063 -0.102539,0.149414 -0.172851,0.3046875 -0.210937,0.46875 -0.03223,0.1640625 -0.04687,0.3574219 -0.04687,0.5742187 0,0.2197266 0.02637,0.4541016 0.08203,0.703125 0.05273,0.2431641 0.108398,0.4980469 0.164063,0.7617188 0.05273,0.2578125 0.08203,0.5332031 0.08203,0.8203125 0,0.3222656 -0.05273,0.6269531 -0.152344,0.91406249 -0.102539,0.28125 -0.298828,0.53320312 -0.585937,0.75 -0.28125,0.21679687 -0.703125,0.38671875 -1.265625,0.50390625 l -0.199219,-0.6796875 c 0.418945,-0.0996094 0.732422,-0.22558594 0.9375,-0.375 0.202148,-0.14648438 0.333984,-0.31933594 0.398437,-0.51562504 0.06152,-0.1933593 0.09375,-0.4013672 0.09375,-0.6210937 0,-0.2636719 -0.0293,-0.5214844 -0.08203,-0.7734375 -0.05566,-0.2490235 -0.111328,-0.4951172 -0.164062,-0.7382813 -0.05567,-0.2490234 -0.08203,-0.4921875 -0.08203,-0.7265625 0,-0.3339843 0.03809,-0.6152343 0.117188,-0.84375 0.08496,-0.234375 0.237304,-0.4746093 0.457031,-0.7265625 h -1.476562 v -0.7148437 z m 2.657227,0 v 0.7148437 H 34.565703 V -9.140625e-4 H 33.803984 V -4.6766953 c -0.0791,-0.225586 -0.196289,-0.4160156 -0.351562,-0.5742188 -0.158203,-0.1552734 -0.360352,-0.234375 -0.609375,-0.234375 h -0.08203 v -0.7148437 h 0.152343 c 0.164063,0 0.331055,0.055664 0.503907,0.1640625 0.169921,0.102539 0.307617,0.2578125 0.410156,0.46875 0,-0.029297 -0.0059,-0.1054688 -0.01172,-0.2226563 -0.0088,-0.1230468 -0.01172,-0.2285156 -0.01172,-0.3164062 v -0.75 h 0.539063 l 0.222656,0.65625 z m 0,0"
       style="fill:#000000;fill-opacity:1;fill-rule:nonzero;stroke:none"
       aria-label="গণসংখযা"
       transform="matrix(1.3333333,0,0,1.3333333,26.373333,55.052)" />
    <path
       id="path15"
       d="M -15.59082,-11.33876 H 15.59084 V 11.33876 H -15.59082 Z"
       style="fill:none;stroke:#000000;stroke-width:0.3985;stroke-linecap:butt;stroke-linejoin:miter;stroke-miterlimit:10;stroke-dasharray:none;stroke-opacity:1"
       transform="matrix(1.3333333,0,0,-1.3333333,116.188,50.042667)" />
    <path
       id="path16"
       d="m 4.4769531,-2.0048203 c 0,-1.1835938 -0.8203125,-2.1796875 -1.8984375,-2.1796875 -0.4804687,0 -0.9023437,0.1640625 -1.265625,0.5039062 v -1.9335937 c 0.1992188,0.058594 0.5273438,0.1289062 0.84375,0.1289062 1.2304688,0 1.9335938,-0.9140625 1.9335938,-1.0429687 0,-0.058594 -0.035156,-0.1054688 -0.1054688,-0.1054688 0,0 -0.035156,0 -0.082031,0.023437 -0.1992188,0.09375 -0.6796875,0.2929688 -1.3476563,0.2929688 -0.3984375,0 -0.8554687,-0.070312 -1.3242187,-0.28125 -0.082031,-0.023437 -0.1289063,-0.023437 -0.1289063,-0.023437 -0.09375,0 -0.09375,0.082031 -0.09375,0.234375 v 2.953125 c 0,0.1757812 0,0.2578125 0.140625,0.2578125 0.070312,0 0.082031,-0.035156 0.1289063,-0.09375 0.1054687,-0.1523438 0.4804687,-0.6914063 1.2773437,-0.6914063 0.5273438,0 0.7734375,0.4570313 0.8554688,0.6328125 0.1523437,0.375 0.1757812,0.7617188 0.1757812,1.2539063 0,0.3515625 0,0.9492187 -0.234375,1.37109374 -0.2460937,0.38671875 -0.609375,0.64453125 -1.0664062,0.64453125 -0.7265625,0 -1.30078128,-0.52734375 -1.46484378,-1.11328129 0.0234375,0.011719 0.0585938,0.011719 0.1640625,0.011719 0.32812498,0 0.50390628,-0.2460938 0.50390628,-0.4804688 0,-0.2460937 -0.1757813,-0.4921875 -0.50390628,-0.4921875 -0.140625,0 -0.48046875,0.070312 -0.48046875,0.5273438 0,0.85546874 0.67968753,1.82812499 1.79296873,1.82812499 1.1601563,0 2.1796875,-0.9609375 2.1796873,-2.22656269 z m 0,0"
       style="fill:#000000;fill-opacity:1;fill-rule:nonzero;stroke:none"
       aria-label="5"
       transform="matrix(1.3333333,0,0,1.3333333,112.86667,55.052)" />
    <path
       id="path17"
       d="M -15.59082,-11.33876 H 15.59084 V 11.33876 H -15.59082 Z"
       style="fill:none;stroke:#000000;stroke-width:0.3985;stroke-linecap:butt;stroke-linejoin:miter;stroke-miterlimit:10;stroke-dasharray:none;stroke-opacity:1"
       transform="matrix(1.3333333,0,0,-1.3333333,157.76267,50.042667)" />
    <path
       id="path18"
       d="m 4.5469297,-1.6766953 c 0,-0.3515625 -0.1054688,-0.8085938 -0.4804688,-1.21875 -0.1875,-0.2109375 -0.3515625,-0.3164063 -0.984375,-0.7148438 0.7148438,-0.3632812 1.2070313,-0.8789062 1.2070313,-1.5351562 0,-0.9257813 -0.890625,-1.4882813 -1.7929688,-1.4882813 -0.9960937,0 -1.80468746,0.7382813 -1.80468746,1.6640625 0,0.1757813 0.0117188,0.6210938 0.43359376,1.0898438 0.1054687,0.1289062 0.4804687,0.375 0.7265625,0.5390625 -0.5742188,0.2929687 -1.42968751,0.84375 -1.42968751,1.8398437 0,1.05468754 1.00781251,1.72265629 2.06250001,1.72265629 1.125,0 2.0625,-0.83203125 2.0625,-1.89843749 z m -0.703125,-3.46875 c 0,0.5625 -0.3867188,1.0429687 -0.984375,1.3945312 l -1.2304688,-0.796875 c -0.46875,-0.3046875 -0.5039062,-0.6445312 -0.5039062,-0.8085937 0,-0.609375 0.6445312,-1.03125 1.359375,-1.03125 0.7265625,0 1.359375,0.515625 1.359375,1.2421875 z m 0.2109375,3.8320312 c 0,0.73828129 -0.75,1.25390629 -1.5585938,1.25390629 -0.8671875,0 -1.58203121,-0.62109375 -1.58203121,-1.44140629 0,-0.5859375 0.31640621,-1.21875 1.17187501,-1.6875 l 1.21875,0.7734375 c 0.28125,0.1875 0.75,0.4921875 0.75,1.1015625 z m 0,0"
       style="fill:#000000;fill-opacity:1;fill-rule:nonzero;stroke:none"
       aria-label="8"
       transform="matrix(1.3333333,0,0,1.3333333,154.44133,55.052)" />
    <path
       id="path19"
       d="M -15.59082,-11.33876 H 15.59084 V 11.33876 H -15.59082 Z"
       style="fill:none;stroke:#000000;stroke-width:0.3985;stroke-linecap:butt;stroke-linejoin:miter;stroke-miterlimit:10;stroke-dasharray:none;stroke-opacity:1"
       transform="matrix(1.3333333,0,0,-1.3333333,199.33733,50.042667)" />
    <path
       id="path20"
       d="M 4.8278437,-6.4110703 H 2.4137812 c -1.21875,0 -1.2421875,-0.1289063 -1.2773437,-0.328125 H 0.89034375 l -0.328125,2.0507812 H 0.8083125 C 0.83175,-4.8407578 0.9255,-5.4735703 1.0544062,-5.5907578 c 0.070312,-0.058594 0.84375,-0.058594 0.9726563,-0.058594 h 2.0625 l -1.1132813,1.5703125 c -0.890625,1.3476563 -1.21875,2.7304688 -1.21875,3.75000004 0,0.09375 0,0.55078125 0.4570313,0.55078125 0.4570312,0 0.4570312,-0.45703125 0.4570312,-0.55078125 v -0.50390625 c 0,-0.55078129 0.023437,-1.10156249 0.1054688,-1.64062499 0.046875,-0.2226563 0.1757812,-1.078125 0.6210937,-1.6992188 l 1.3476563,-1.8984375 c 0.082031,-0.1171875 0.082031,-0.140625 0.082031,-0.3398435 z m 0,0"
       style="fill:#000000;fill-opacity:1;fill-rule:nonzero;stroke:none"
       aria-label="7"
       transform="matrix(1.3333333,0,0,1.3333333,196.016,55.052)" />
    <path
       id="path21"
       d="M -15.59082,-11.33876 H 15.59084 V 11.33876 H -15.59082 Z"
       style="fill:none;stroke:#000000;stroke-width:0.3985;stroke-linecap:butt;stroke-linejoin:miter;stroke-miterlimit:10;stroke-dasharray:none;stroke-opacity:1"
       transform="matrix(1.3333333,0,0,-1.3333333,240.91333,50.042667)" />
    <path
       id="path22"
       d="m 4.5481875,-2.0282578 c 0,-1.265625 -0.8789062,-2.2265625 -1.9921875,-2.2265625 -0.6679687,0 -1.0429687,0.5039062 -1.2421875,0.984375 v -0.234375 c 0,-2.5195313 1.2421875,-2.8828125 1.7460938,-2.8828125 0.234375,0 0.65625,0.058594 0.8789062,0.3984375 -0.1523437,0 -0.5507812,0 -0.5507812,0.4453125 0,0.3164062 0.234375,0.4570312 0.4570312,0.4570312 0.1640625,0 0.4570313,-0.082031 0.4570313,-0.46875 0,-0.5976562 -0.4335938,-1.078125 -1.265625,-1.078125 -1.2773438,0 -2.6132813,1.2890625 -2.6132813,3.4804688 0,2.66015624 1.1484375,3.37499999 2.0742188,3.37499999 1.1132812,0 2.0507812,-0.9375 2.0507812,-2.24999999 z m -0.890625,-0.011719 c 0,0.4804688 0,0.9726563 -0.1640625,1.33593754 -0.3046875,0.59765625 -0.7617187,0.64453125 -0.9960937,0.64453125 -0.6210938,0 -0.9257813,-0.59765625 -0.984375,-0.75 C 1.33725,-1.2782578 1.33725,-2.0751328 1.33725,-2.2509141 c 0,-0.7734375 0.3164063,-1.7695312 1.21875,-1.7695312 0.1523438,0 0.609375,0 0.9257813,0.609375 0.1757812,0.375 0.1757812,0.8789062 0.1757812,1.3710935 z m 0,0"
       style="fill:#000000;fill-opacity:1;fill-rule:nonzero;stroke:none"
       aria-label="6"
       transform="matrix(1.3333333,0,0,1.3333333,237.592,55.052)" />
    <path
       id="path23"
       d="M -15.59082,-11.33876 H 15.59084 V 11.33876 H -15.59082 Z"
       style="fill:none;stroke:#000000;stroke-width:0.3985;stroke-linecap:butt;stroke-linejoin:miter;stroke-miterlimit:10;stroke-dasharray:none;stroke-opacity:1"
       transform="matrix(1.3333333,0,0,-1.3333333,282.488,50.042667)" />
    <path
       id="path24"
       d="m 4.5478516,-1.7001328 c 0,-0.8203125 -0.6210938,-1.59375 -1.6523438,-1.8046875 0.8085938,-0.2695313 1.3945313,-0.9726563 1.3945313,-1.7578125 0,-0.8203125 -0.8789063,-1.3710938 -1.8398438,-1.3710938 -1.0078125,0 -1.75781249,0.5976563 -1.75781249,1.3476563 0,0.3398437 0.2109375,0.5273437 0.50390629,0.5273437 0.3046875,0 0.5039062,-0.2226562 0.5039062,-0.515625 0,-0.4921875 -0.46875,-0.4921875 -0.609375,-0.4921875 0.3046875,-0.4921875 0.9609375,-0.6210937 1.3242188,-0.6210937 0.4101562,0 0.9492187,0.2226562 0.9492187,1.1132812 0,0.1289063 -0.011719,0.703125 -0.2695312,1.1367188 -0.3046875,0.4804687 -0.6445313,0.515625 -0.890625,0.515625 -0.082031,0.011719 -0.3164063,0.035156 -0.3867188,0.035156 -0.082031,0.011719 -0.1523437,0.023437 -0.1523437,0.1171875 0,0.1171875 0.070312,0.1171875 0.234375,0.1171875 h 0.4453125 c 0.8085937,0 1.1835937,0.6679688 1.1835937,1.6523438 0,1.34765624 -0.6914062,1.64062499 -1.125,1.64062499 -0.4335937,0 -1.171875,-0.17578125 -1.52343749,-0.76171875 0.35156249,0.0585938 0.65624999,-0.1640625 0.65624999,-0.53906254 0,-0.3632812 -0.2695312,-0.5625 -0.56249999,-0.5625 -0.234375,0 -0.55078125,0.140625 -0.55078125,0.5742188 0,0.91406249 0.92578124,1.57031249 2.00390624,1.57031249 1.21875,0 2.1210938,-0.9140625 2.1210938,-1.92187479 z m 0,0"
       style="fill:#000000;fill-opacity:1;fill-rule:nonzero;stroke:none"
       aria-label="3"
       transform="matrix(1.3333333,0,0,1.3333333,279.16667,55.052)" />
  </g>
</svg>
