<svg xmlns="http://www.w3.org/2000/svg" width="114.23946pt" height="91.42499pt" viewBox="-72 -72 114.23946 91.42499" style="position: absolute; top: 0pt; left: 0pt; overflow: visible;">
<g transform="translate(-57.62625122070311,5.455718994140624)">
<g stroke-miterlimit="10" transform="scale(1,-1)"><g stroke="#000" fill="#000">
 <g stroke-width="0.4">
 <path d=" M 42.68431 64.02646 L 0.0 0.0 L 85.36864 0.0 Z  " fill="none"/>
 <path d=" M 21.34213 32.01321 L 64.02646 32.01321  " fill="none"/>
 <path d=" M 42.68431 64.02646 L 42.68431 0.0  " fill="none"/>
 <g transform="translate(39.28152,67.55943)">
 <g stroke="none" transform="scale(-1.00375,1.00375)translate(-54.2929229736328,5.455718994140624)scale(-1,-1)"><g fill="#000">
 <g stroke="none"> <text alignment-baseline="baseline" y="5.455718994140624" x="-54.2929229736328" style="font-family: cmr10;" font-size="10">P</text>
</g> </g>
 </g></g>
 <g transform="translate(-11.31078,-2.44444)">
 <g stroke="none" transform="scale(-1.00375,1.00375)translate(-54.2929229736328,5.455718994140624)scale(-1,-1)"><g fill="#000">
 <g stroke="none"> <text alignment-baseline="baseline" y="5.455718994140624" x="-54.2929229736328" style="font-family: cmr10;" font-size="10">Q</text>
</g> </g>
 </g></g>
 <g transform="translate(88.90161,-3.41666)">
 <g stroke="none" transform="scale(-1.00375,1.00375)translate(-54.2929229736328,5.455718994140624)scale(-1,-1)"><g fill="#000">
 <g stroke="none"> <text alignment-baseline="baseline" y="5.455718994140624" x="-54.2929229736328" style="font-family: cmr10;" font-size="10">R</text>
</g> </g>
 </g></g>
 <g transform="translate(11.00359,28.59656)">
 <g stroke="none" transform="scale(-1.00375,1.00375)translate(-54.2929229736328,5.455718994140624)scale(-1,-1)"><g fill="#000">
 <g stroke="none"> <text alignment-baseline="baseline" y="5.455718994140624" x="-54.2929229736328" style="font-family: cmr10;" font-size="10">E</text>
</g> </g>
 </g></g>
 <g transform="translate(67.55943,28.59656)">
 <g stroke="none" transform="scale(-1.00375,1.00375)translate(-54.2929229736328,5.455718994140624)scale(-1,-1)"><g fill="#000">
 <g stroke="none"> <text alignment-baseline="baseline" y="5.455718994140624" x="-54.2929229736328" style="font-family: cmr10;" font-size="10">F</text>
</g> </g>
 </g></g>
 <g transform="translate(38.86487,-10.36629)">
 <g stroke="none" transform="scale(-1.00375,1.00375)translate(-54.2929229736328,5.455718994140624)scale(-1,-1)"><g fill="#000">
 <g stroke="none"> <text alignment-baseline="baseline" y="5.455718994140624" x="-54.2929229736328" style="font-family: cmr10;" font-size="10">D</text>
</g> </g>
 </g></g>
 </g>
 </g>
 </g></g></svg>