<svg xmlns="http://www.w3.org/2000/svg" width="57.30548pt" height="57.30548pt" viewBox="-72 -72 57.30548 57.30548" style="position: absolute; top: 0pt; left: 0pt; overflow: visible;">
<g transform="translate(-72.07000732421874,-15.164520263671871)">
<g stroke-miterlimit="10" transform="scale(1,-1)"><g stroke="#000" fill="#000">
 <g stroke-width="0.4">
 <path d=" M 0.0 0.0 M 0.0 0.0 L 0.0 56.90549 L 56.90549 56.90549 L 56.90549 0.0 Z M 56.90549 56.90549  " fill="none"/>
 <path d=" M 28.45274 28.45274 M 56.90549 28.45274 C 56.90549 44.16696 44.16696 56.90549 28.45274 56.90549 C 12.73853 56.90549 0.0 44.16696 0.0 28.45274 C 0.0 12.73853 12.73853 0.0 28.45274 0.0 C 44.16696 0.0 56.90549 12.73853 56.90549 28.45274 Z M 28.45274 28.45274  " fill="none"/>
 <path d=" M 28.45274 28.45274 L 56.90549 28.45274  " fill="none"/>
 <g transform="translate(32.12354,30.92099)">
 <g stroke="none" transform="scale(-1.00375,1.00375)translate(-68.73667907714842,-15.164520263671871)scale(-1,-1)"><g fill="#000">
 <g stroke="none"> <text alignment-baseline="baseline" y="-15.164520263671871" x="-68.73667907714842" style="font-family: cmr10;" font-size="10">3</text>
<text alignment-baseline="baseline" y="-15.164520263671871" x="-60.40333175659178" style="font-family: cmr10;" font-size="10">cm</text>
</g> </g>
 </g></g>
 <path d=" M 28.45274 28.45274 M 29.45274 28.45274 C 29.45274 29.00504 29.00504 29.45274 28.45274 29.45274 C 27.90045 29.45274 27.45274 29.00504 27.45274 28.45274 C 27.45274 27.90045 27.90045 27.45274 28.45274 27.45274 C 29.00504 27.45274 29.45274 27.90045 29.45274 28.45274 Z M 28.45274 28.45274  "/>
 </g>
 </g>
 </g></g></svg>