<svg xmlns="http://www.w3.org/2000/svg" width="85.77628pt" height="77.35439pt" viewBox="-72 -72 85.77628 77.35439" style="position: absolute; top: 0pt; left: 0pt; overflow: visible;">
<g transform="translate(-57.904052734374986,-8.61488342285156)">
<g stroke-miterlimit="10" transform="scale(1,-1)"><g stroke="#000" fill="#000">
 <g stroke-width="0.4">
 <path d=" M 0.0 56.90549 L 0.0 0.0 L 56.90549 0.0 Z  " fill="none"/>
 <path d=" M 0.0 56.90549 L 56.90549 56.90549  " fill="none"/>
 <g transform="translate(-9.08855,24.98053)">
 <g stroke="none" transform="scale(-1.00375,1.00375)translate(-54.57072448730467,-8.61488342285156)scale(-1,-1)"><g fill="#000">
 <g stroke="none"> <text alignment-baseline="baseline" y="-8.61488342285156" x="-54.57072448730467" style="font-family: cmr10;" font-size="10">h</text>
</g> </g>
 </g></g>
 <g transform="translate(15.39717,-9.9774)">
 <g stroke="none" transform="scale(-1.00375,1.00375)translate(-54.57072448730467,-8.61488342285156)scale(-1,-1)"><g fill="#000">
 <g stroke="none"> <text alignment-baseline="baseline" y="-8.61488342285156" x="-54.57072448730467" style="font-family: cmr10;" font-size="10">25</text>
<text alignment-baseline="baseline" y="-8.61488342285156" x="-41.23735809326171" style="font-family: cmr10;" font-size="10">cm</text>
</g> </g>
 </g></g>
 <g transform="translate(-11.03297,53.48883)">
 <g stroke="none" transform="scale(-1.00375,1.00375)translate(-54.57072448730467,-8.61488342285156)scale(-1,-1)"><g fill="#000">
 <g stroke="none"> <text alignment-baseline="baseline" y="-8.61488342285156" x="-54.57072448730467" style="font-family: cmr10;" font-size="10">A</text>
</g> </g>
 </g></g>
 <g transform="translate(-3.54167,-10.36629)">
 <g stroke="none" transform="scale(-1.00375,1.00375)translate(-54.57072448730467,-8.61488342285156)scale(-1,-1)"><g fill="#000">
 <g stroke="none"> <text alignment-baseline="baseline" y="-8.61488342285156" x="-54.57072448730467" style="font-family: cmr10;" font-size="10">B</text>
</g> </g>
 </g></g>
 <g transform="translate(60.43846,-3.41666)">
 <g stroke="none" transform="scale(-1.00375,1.00375)translate(-54.57072448730467,-8.61488342285156)scale(-1,-1)"><g fill="#000">
 <g stroke="none"> <text alignment-baseline="baseline" y="-8.61488342285156" x="-54.57072448730467" style="font-family: cmr10;" font-size="10">C</text>
</g> </g>
 </g></g>
 <g transform="translate(60.43846,53.48883)">
 <g stroke="none" transform="scale(-1.00375,1.00375)translate(-54.57072448730467,-8.61488342285156)scale(-1,-1)"><g fill="#000">
 <g stroke="none"> <text alignment-baseline="baseline" y="-8.61488342285156" x="-54.57072448730467" style="font-family: cmr10;" font-size="10">D</text>
</g> </g>
 </g></g>
 <path d=" M 8.5359 56.90549 C 8.5359 53.13313 7.03653 49.51337 4.3691 46.84593  " fill="none"/>
 <g transform="translate(9.77318,47.77208)">
 <g stroke="none" transform="scale(-1.00375,1.00375)translate(-54.57072448730467,-8.61488342285156)scale(-1,-1)"><g fill="#000">
 <g stroke="none"> <text alignment-baseline="baseline" y="-8.61488342285156" x="-54.57072448730467" style="font-family: cmr10;" font-size="10">60</text>
<text alignment-baseline="baseline" y="-12.243804931640621" x="-44.570686340332024" style="font-family: cmsy7;" font-size="7">◦</text>
</g> </g>
 </g></g>
 </g>
 </g>
 </g></g></svg>