<?xml version="1.0" encoding="UTF-8" standalone="no"?>
<!-- Created with Inkscape (http://www.inkscape.org/) -->

<svg
   version="1.1"
   id="svg1"
   width="206.56"
   height="130.32001"
   viewBox="0 0 206.56 130.32001"
   sodipodi:docname="upload_mxlpi5hoa36qeywpy7kgxyec7m.pdf"
   xmlns:inkscape="http://www.inkscape.org/namespaces/inkscape"
   xmlns:sodipodi="http://sodipodi.sourceforge.net/DTD/sodipodi-0.dtd"
   xmlns="http://www.w3.org/2000/svg"
   xmlns:svg="http://www.w3.org/2000/svg">
  <defs
     id="defs1" />
  <sodipodi:namedview
     id="namedview1"
     pagecolor="#ffffff"
     bordercolor="#000000"
     borderopacity="0.25"
     inkscape:showpageshadow="2"
     inkscape:pageopacity="0.0"
     inkscape:pagecheckerboard="0"
     inkscape:deskcolor="#d1d1d1">
    <inkscape:page
       x="0"
       y="0"
       inkscape:label="1"
       id="page1"
       width="206.56"
       height="130.32001"
       margin="0"
       bleed="0" />
  </sodipodi:namedview>
  <g
     id="g1"
     inkscape:groupmode="layer"
     inkscape:label="1">
    <path
       id="path1"
       d="M 0,56.69362 H 56.69362 L 99.21382,0 H 0 Z"
       style="fill:none;stroke:#000000;stroke-width:0.69739;stroke-linecap:butt;stroke-linejoin:miter;stroke-miterlimit:10;stroke-dasharray:none;stroke-opacity:1"
       transform="matrix(1.3333333,0,0,-1.3333333,42.08,98.06)" />
    <path
       id="path2"
       d="M 56.69362,56.69362 V 0"
       style="fill:none;stroke:#000000;stroke-width:0.69739;stroke-linecap:butt;stroke-linejoin:miter;stroke-miterlimit:10;stroke-dasharray:none;stroke-opacity:1"
       transform="matrix(1.3333333,0,0,-1.3333333,42.08,98.06)" />
    <path
       id="path3"
       d="m 56.69362,5.66927 h 5.66926 V 0"
       style="fill:none;stroke:#000000;stroke-width:0.69739;stroke-linecap:butt;stroke-linejoin:miter;stroke-miterlimit:10;stroke-dasharray:none;stroke-opacity:1"
       transform="matrix(1.3333333,0,0,-1.3333333,42.08,98.06)" />
    <path
       id="path4"
       d="M -2.83484,29.76422 H 2.83484"
       style="fill:none;stroke:#000000;stroke-width:0.69739;stroke-linecap:butt;stroke-linejoin:miter;stroke-miterlimit:10;stroke-dasharray:none;stroke-opacity:1"
       transform="matrix(1.3333333,0,0,-1.3333333,42.08,98.06)" />
    <path
       id="path5"
       d="M -2.83484,26.92937 H 2.83484"
       style="fill:none;stroke:#000000;stroke-width:0.69739;stroke-linecap:butt;stroke-linejoin:miter;stroke-miterlimit:10;stroke-dasharray:none;stroke-opacity:1"
       transform="matrix(1.3333333,0,0,-1.3333333,42.08,98.06)" />
    <path
       id="path6"
       d="M 26.92937,59.52846 V 53.85875"
       style="fill:none;stroke:#000000;stroke-width:0.69739;stroke-linecap:butt;stroke-linejoin:miter;stroke-miterlimit:10;stroke-dasharray:none;stroke-opacity:1"
       transform="matrix(1.3333333,0,0,-1.3333333,42.08,98.06)" />
    <path
       id="path7"
       d="M 29.76422,59.52846 V 53.85875"
       style="fill:none;stroke:#000000;stroke-width:0.69739;stroke-linecap:butt;stroke-linejoin:miter;stroke-miterlimit:10;stroke-dasharray:none;stroke-opacity:1"
       transform="matrix(1.3333333,0,0,-1.3333333,42.08,98.06)" />
    <path
       id="path8"
       d="M 26.92937,2.83484 V -2.83484"
       style="fill:none;stroke:#000000;stroke-width:0.69739;stroke-linecap:butt;stroke-linejoin:miter;stroke-miterlimit:10;stroke-dasharray:none;stroke-opacity:1"
       transform="matrix(1.3333333,0,0,-1.3333333,42.08,98.06)" />
    <path
       id="path9"
       d="M 29.76422,2.83484 V -2.83484"
       style="fill:none;stroke:#000000;stroke-width:0.69739;stroke-linecap:butt;stroke-linejoin:miter;stroke-miterlimit:10;stroke-dasharray:none;stroke-opacity:1"
       transform="matrix(1.3333333,0,0,-1.3333333,42.08,98.06)" />
    <path
       id="path10"
       d="m 53.85875,29.76422 h 5.66971"
       style="fill:none;stroke:#000000;stroke-width:0.69739;stroke-linecap:butt;stroke-linejoin:miter;stroke-miterlimit:10;stroke-dasharray:none;stroke-opacity:1"
       transform="matrix(1.3333333,0,0,-1.3333333,42.08,98.06)" />
    <path
       id="path11"
       d="m 53.85875,26.92937 h 5.66971"
       style="fill:none;stroke:#000000;stroke-width:0.69739;stroke-linecap:butt;stroke-linejoin:miter;stroke-miterlimit:10;stroke-dasharray:none;stroke-opacity:1"
       transform="matrix(1.3333333,0,0,-1.3333333,42.08,98.06)" />
    <path
       id="path12"
       d="m 7.1376406,-0.00100781 v -0.3046875 H 6.9618594 c -0.5976563,0 -0.7382813,-0.0703125 -0.84375,-0.3984375 l -2.15625,-6.23437499 c -0.046875,-0.1289063 -0.070312,-0.1992188 -0.2226563,-0.1992188 -0.1640625,0 -0.1875,0.058594 -0.2460937,0.1992188 l -2.0625,5.96484374 c -0.1757813,0.50390625 -0.57421878,0.65625 -1.11328128,0.66796875 v 0.3046875 l 1.01953128,-0.03515625 1.1484375,0.03515625 v -0.3046875 c -0.5039063,0 -0.75,-0.2578125 -0.75,-0.515625 0,-0.0234375 0.011719,-0.12890625 0.023437,-0.140625 L 2.2157656,-2.2744453 h 2.4609375 l 0.5273438,1.52343749 c 0.011719,0.046875 0.023437,0.10546875 0.023437,0.140625 0,0.3046875 -0.5507813,0.3046875 -0.8203125,0.3046875 v 0.3046875 c 0.351563,-0.03515625 1.054688,-0.03515625 1.429688,-0.03515625 z M 4.5595156,-2.5791328 H 2.3212344 l 1.1132812,-3.234375 z m 0,0"
       style="fill:#000000;fill-opacity:1;fill-rule:nonzero;stroke:none"
       aria-label="A"
       transform="matrix(1.3333333,0,0,1.3333333,27.225333,27.224)" />
    <path
       id="path13"
       d="m 6.4794062,-1.8295469 c 0,-0.8671875 -0.8085937,-1.6054687 -1.921875,-1.7226562 0.9726563,-0.1992188 1.6523438,-0.8320313 1.6523438,-1.5703125 0,-0.8671875 -0.9140625,-1.6875 -2.203125,-1.6875 H 0.36221875 v 0.3164062 h 0.234375 c 0.76171875,0 0.78515625,0.1054688 0.78515625,0.46875 v 5.25000002 c 0,0.3515625 -0.023437,0.46875 -0.78515625,0.46875 h -0.234375 v 0.3046875 H 4.2645625 c 1.3242187,0 2.2148437,-0.890625 2.2148437,-1.82812502 z M 5.2489375,-5.1225156 c 0,0.6328125 -0.4921875,1.4765625 -1.59375,1.4765625 H 2.2137812 v -2.4492188 c 0,-0.328125 0.011719,-0.3984375 0.4804688,-0.3984375 h 1.2421875 c 0.9609375,0 1.3125,0.84375 1.3125,1.3710938 z m 0.234375,3.2929687 c 0,0.703125 -0.515625,1.52343752 -1.5351563,1.52343752 H 2.69425 c -0.46875,0 -0.4804688,-0.0703125 -0.4804688,-0.3984375 V -3.4232969 h 1.875 c 0.984375,0 1.3945313,0.9257813 1.3945313,1.59375 z m 0,0"
       style="fill:#000000;fill-opacity:1;fill-rule:nonzero;stroke:none"
       aria-label="B"
       transform="matrix(1.3333333,0,0,1.3333333,27.782667,112.02533)" />
    <path
       id="path14"
       d="M 6.4925156,-2.567125 H 6.2464219 C 6.0003281,-1.0319688 5.7659531,-0.30540625 4.0550156,-0.30540625 H 2.7307969 c -0.46875,0 -0.4921875,-0.0703125 -0.4921875,-0.3984375 V -3.364 h 0.9023437 c 0.9609375,0 1.078125,0.3164062 1.078125,1.1601562 H 4.4651719 V -4.8405625 H 4.2190781 c 0,0.8554687 -0.1171875,1.1601562 -1.078125,1.1601562 H 2.2386094 v -2.390625 c 0,-0.328125 0.023437,-0.3984375 0.4921875,-0.3984375 h 1.2890625 c 1.5234375,0 1.7929687,0.5507813 1.9453125,1.9335938 H 6.2112656 L 5.9417344,-6.7741563 H 0.32845313 v 0.3046875 h 0.234375 c 0.77343747,0 0.79687497,0.1171875 0.79687497,0.46875 v 5.22656255 c 0,0.3515625 -0.023437,0.46875 -0.79687497,0.46875 h -0.234375 v 0.3046875 H 6.0823594 Z m 0,0"
       style="fill:#000000;fill-opacity:1;fill-rule:nonzero;stroke:none"
       aria-label="E"
       transform="matrix(1.3333333,0,0,1.3333333,113.148,111.98533)" />
    <path
       id="path15"
       d="m 6.6214531,-2.3210078 c 0,-0.1054688 0,-0.1757813 -0.1289062,-0.1757813 -0.1054688,0 -0.1054688,0.070312 -0.1171875,0.1640625 -0.082031,1.42968754 -1.1484375,2.23828129 -2.2265625,2.23828129 -0.609375,0 -2.5664063,-0.33984375 -2.5664063,-3.30468749 0,-2.9765625 1.9453125,-3.3164063 2.5546875,-3.3164063 1.078125,0 1.96875,0.9023438 2.1679688,2.3671875 0.023437,0.1289063 0.023437,0.1640625 0.1640625,0.1640625 0.1523437,0 0.1523437,-0.035156 0.1523437,-0.234375 v -2.3671875 c 0,-0.1640625 0,-0.234375 -0.1054687,-0.234375 -0.035156,0 -0.082031,0 -0.1640625,0.1171875 l -0.4921875,0.7382813 c -0.375,-0.3632813 -0.8789063,-0.8554688 -1.8398438,-0.8554688 -1.8632812,0 -3.45703122,1.5820313 -3.45703122,3.609375 0,2.0625 1.60546872,3.63281254 3.45703122,3.63281254 1.6289063,0 2.6015625,-1.38281254 2.6015625,-2.54296874 z m 0,0"
       style="fill:#000000;fill-opacity:1;fill-rule:nonzero;stroke:none"
       aria-label="C"
       transform="matrix(1.3333333,0,0,1.3333333,179.25733,112.31733)" />
    <path
       id="path16"
       d="m 7.0418437,-3.3526328 c 0,-1.8867188 -1.3476562,-3.4570313 -3.046875,-3.4570313 H 0.3504375 v 0.3164063 h 0.234375 c 0.7734375,0 0.7851562,0.1054687 0.7851562,0.46875 v 5.24999999 c 0,0.3515625 -0.011719,0.46875 -0.7851562,0.46875 h -0.234375 v 0.3046875 h 3.6445312 c 1.6757813,0 3.046875,-1.47656249 3.046875,-3.35156249 z m -0.9960937,0 c 0,1.1132812 -0.1875,1.7109375 -0.5507813,2.1914062 C 5.29575,-0.89169531 4.73325,-0.30575781 3.7254375,-0.30575781 H 2.717625 c -0.46875,0 -0.4921875,-0.0703125 -0.4921875,-0.3984375 V -6.0948203 c 0,-0.328125 0.023437,-0.3984375 0.4921875,-0.3984375 h 0.9960937 c 0.6210938,0 1.3007813,0.2109375 1.8164063,0.9257812 0.421875,0.5859375 0.515625,1.4414063 0.515625,2.2148438 z m 0,0"
       style="fill:#000000;fill-opacity:1;fill-rule:nonzero;stroke:none"
       aria-label="D"
       transform="matrix(1.3333333,0,0,1.3333333,122.564,27.005333)" />
    <path
       id="path17"
       d="m 3.8667344,0.00120312 v -0.28125 h -0.28125 c -0.8320313,0 -0.8554688,-0.10546875 -0.8554688,-0.43359375 V -5.7292656 c 0,-0.2226563 -0.011719,-0.234375 -0.234375,-0.234375 -0.5625,0.5625 -1.3828125,0.5625 -1.66406247,0.5625 v 0.28125 c 0.17578127,0 0.71484377,0 1.20703127,-0.234375 v 4.64062497 c 0,0.328125 -0.035156,0.43359375 -0.8671875,0.43359375 H 0.89017188 v 0.28125 c 0.31640622,-0.0234375 1.11328122,-0.0234375 1.48828122,-0.0234375 0.3632813,0 1.171875,0 1.4882813,0.0234375 z M 8.7446641,-1.5808281 H 8.4985703 c -0.023437,0.1171875 -0.09375,0.64453122 -0.2109375,0.78515622 -0.046875,0.0820313 -0.6679687,0.0820313 -0.84375,0.0820313 h -1.59375 L 6.7290391,-1.5573906 c 1.4765625,-1.2773438 2.015625,-1.7460938 2.015625,-2.6601563 0,-1.03125 -0.84375,-1.7460937 -1.9453125,-1.7460937 -1.03125,0 -1.734375,0.8085937 -1.734375,1.6289062 0,0.4453125 0.3867187,0.4921875 0.46875,0.4921875 0.1992187,0 0.46875,-0.140625 0.46875,-0.46875 0,-0.2695312 -0.1875,-0.46875 -0.46875,-0.46875 -0.046875,0 -0.070312,0 -0.1054688,0.011719 0.2109375,-0.6328125 0.7851563,-0.9257813 1.265625,-0.9257813 0.9140625,0 1.2304688,0.8554688 1.2304688,1.4765625 0,0.9140625 -0.6914063,1.6523438 -1.125,2.1210938 l -1.640625,1.76953122 c -0.09375,0.10546875 -0.09375,0.1171875 -0.09375,0.328125 H 8.4985703 Z M 2.5542344,10.887922 c 0,-0.105469 -0.1054688,-0.105469 -0.1289063,-0.105469 -0.09375,0 -0.09375,0.01172 -0.1523437,0.164063 -0.2109375,0.621093 -0.703125,0.855468 -1.171875,0.855468 -0.56250002,0 -1.30078127,-0.46875 -1.30078127,-1.792968 0,-1.3945316 0.71484375,-1.8164066 1.25390627,-1.8164066 0.1171875,0 0.5976562,0.011719 0.9257812,0.234375 -0.1875,0.035156 -0.3632812,0.1640625 -0.3632812,0.421875 0,0.234375 0.1757812,0.421875 0.4101562,0.421875 0.234375,0 0.421875,-0.1640625 0.421875,-0.4335938 0,-0.5625 -0.6210937,-0.9023437 -1.4179687,-0.9023437 -1.14843752,0 -2.00390627,0.9609375 -2.00390627,2.0859371 0,1.148438 0.9375,2.027344 1.99218747,2.027344 1.2421875,0 1.5351563,-1.078125 1.5351563,-1.160156 z m 7.7314456,1.066406 v -0.28125 c -0.4570316,0 -0.6796878,0 -0.6914066,-0.269531 V 9.6808906 c 0,-0.7851562 0,-1.03125 -0.2929687,-1.3710937 -0.1875,-0.2109375 -0.5507813,-0.3164063 -0.9609375,-0.3164063 -0.6445313,0 -1.078125,0.375 -1.3359375,0.8554688 -0.1054688,-0.5390625 -0.46875,-0.8554688 -1.21875,-0.8554688 -0.7148438,0 -1.1484375,0.46875 -1.3476563,0.8789063 V 7.9933906 l -1.3007812,0.09375 v 0.28125 c 0.609375,0 0.6914062,0.058594 0.6914062,0.5039063 v 2.3906251 c 0,0.410156 -0.1054687,0.410156 -0.6914062,0.410156 v 0.28125 c 0.421875,-0.02344 0.5859375,-0.02344 1.0195312,-0.02344 0.4335938,0 0.5507813,0 1.0195313,0.02344 v -0.28125 c -0.5859375,0 -0.6914063,0 -0.6914063,-0.410156 V 9.6340156 c 0,-0.9726562 0.703125,-1.4179687 1.2421875,-1.4179687 0.4921875,0 0.65625,0.3515625 0.65625,0.9726562 v 2.0742189 c 0,0.410156 -0.1054687,0.410156 -0.6914062,0.410156 v 0.28125 c 0.421875,-0.02344 0.5859375,-0.02344 1.0195312,-0.02344 0.4335938,0 0.5507813,0 1.0195313,0.02344 v -0.28125 c -0.5859375,0 -0.6914063,0 -0.6914063,-0.410156 V 9.6340156 c 0,-0.9726562 0.703125,-1.4179687 1.2421875,-1.4179687 0.4921875,0 0.65625,0.3515625 0.65625,0.9726562 v 2.0742189 c 0,0.410156 -0.1054687,0.410156 -0.6914062,0.410156 v 0.28125 c 0.421875,-0.02344 0.5859375,-0.02344 1.0195312,-0.02344 0.4335938,0 0.5507813,0 1.0195316,0.02344 z m 0,0"
       style="fill:#000000;fill-opacity:1;fill-rule:nonzero;stroke:none"
       aria-label="12&#10;cm"
       transform="matrix(1.3333333,0,0,1.3333333,19.414667,56.209333)" />
    <path
       id="path18"
       d="m 4.136875,-1.7934219 c 0,-1.0898437 -0.7617187,-1.96875 -1.7460937,-1.96875 -0.421875,0 -0.8671875,0.140625 -1.1835938,0.4570313 v -1.7578125 c 0.2695313,0.082031 0.5507813,0.1171875 0.8320313,0.1171875 1.1015625,0 1.7460937,-0.796875 1.7460937,-0.9140625 0,-0.070312 -0.058594,-0.1054688 -0.1054687,-0.1054688 0,0 -0.035156,0 -0.1171875,0.035156 -0.4101563,0.1757815 -0.8320313,0.246094 -1.2070313,0.246094 -0.3867187,0 -0.7851562,-0.070312 -1.1953125,-0.2460937 -0.09375,-0.035156 -0.1171875,-0.035156 -0.1171875,-0.035156 -0.10546875,0 -0.10546875,0.082031 -0.10546875,0.234375 v 2.6367188 c 0,0.1640625 0,0.2578125 0.11718755,0.2578125 0.070312,0 0.1054687,-0.035156 0.1523437,-0.1171875 0.2695313,-0.375 0.703125,-0.5859375 1.171875,-0.5859375 0.9609375,0 0.9609375,1.3828125 0.9609375,1.6992187 0,0.28125 0,0.8320313 -0.2578125,1.24218753 -0.234375,0.375 -0.6210937,0.5390625 -0.9609375,0.5390625 -0.5390625,0 -1.13671875,-0.328125 -1.34765625,-0.99609373 0,0 0.0585938,0.023437 0.1171875,0.023437 0.18750005,0 0.44531255,-0.1171875 0.44531255,-0.4335938 0,-0.28125 -0.1992188,-0.4453125 -0.44531255,-0.4453125 -0.1875,0 -0.43359375,0.1054688 -0.43359375,0.46875 0,0.80859378 0.6796875,1.64062503 1.6757813,1.64062503 1.0898437,0 2.0039062,-0.87890625 2.0039062,-1.99218733 z m 7.379883,0.7265625 c 0,-0.1054687 -0.105469,-0.1054687 -0.128906,-0.1054687 -0.09375,0 -0.09375,0.011719 -0.152344,0.1640625 -0.210938,0.62109373 -0.703125,0.85546873 -1.171875,0.85546873 -0.5625002,0 -1.3007814,-0.46875 -1.3007814,-1.79296873 0,-1.3945313 0.7148437,-1.8164063 1.2539064,-1.8164063 0.117187,0 0.597656,0.011719 0.925781,0.234375 -0.1875,0.035156 -0.363281,0.1640625 -0.363281,0.421875 0,0.234375 0.175781,0.421875 0.410156,0.421875 0.234375,0 0.421875,-0.1640625 0.421875,-0.4335937 0,-0.5625 -0.621094,-0.9023438 -1.4179687,-0.9023438 -1.1484375,0 -2.0039062,0.9609375 -2.0039062,2.0859375 0,1.14843753 0.9375,2.02734378 1.9921875,2.02734378 1.2421874,0 1.5351564,-1.078125 1.5351564,-1.16015628 z m 7.728515,1.066406275 V -0.28170312 c -0.457031,0 -0.679687,0 -0.691406,-0.26953125 V -2.2738906 c 0,-0.7851563 0,-1.03125 -0.292969,-1.3710938 -0.1875,-0.2109375 -0.550781,-0.3164062 -0.960937,-0.3164062 -0.644531,0 -1.078125,0.375 -1.335938,0.8554687 -0.105468,-0.5390625 -0.46875,-0.8554687 -1.21875,-0.8554687 -0.714843,0 -1.148437,0.46875 -1.347656,0.8789062 v -0.8789062 l -1.300781,0.09375 v 0.28125 c 0.609375,0 0.691406,0.058594 0.691406,0.5039062 v 2.39062503 c 0,0.41015625 -0.105469,0.41015625 -0.691406,0.41015625 v 0.281249995 c 0.421875,-0.023437495 0.585937,-0.023437495 1.019531,-0.023437495 0.433594,0 0.550781,0 1.019531,0.023437495 V -0.28170312 c -0.585937,0 -0.691406,0 -0.691406,-0.41015625 V -2.3207656 c 0,-0.9726563 0.703125,-1.4179688 1.242188,-1.4179688 0.492187,0 0.65625,0.3515625 0.65625,0.9726563 v 2.07421873 c 0,0.41015625 -0.105469,0.41015625 -0.691407,0.41015625 v 0.281249995 c 0.421875,-0.023437495 0.585938,-0.023437495 1.019532,-0.023437495 0.433593,0 0.550781,0 1.019531,0.023437495 V -0.28170312 c -0.585938,0 -0.691406,0 -0.691406,-0.41015625 V -2.3207656 c 0,-0.9726563 0.703125,-1.4179688 1.242187,-1.4179688 0.492188,0 0.65625,0.3515625 0.65625,0.9726563 v 2.07421873 c 0,0.41015625 -0.105469,0.41015625 -0.691406,0.41015625 v 0.281249995 c 0.421875,-0.023437495 0.585937,-0.023437495 1.019531,-0.023437495 0.433594,0 0.550781,0 1.019531,0.023437495 z m 0,0"
       style="fill:#000000;fill-opacity:1;fill-rule:nonzero;stroke:none"
       aria-label="5cm"
       transform="matrix(1.3333333,0,0,1.3333333,133.04667,110.91467)" />
  </g>
</svg>
