<svg xmlns="http://www.w3.org/2000/svg" width="114.22905pt" height="143.15393pt" viewBox="-72 -72 114.22905 143.15393" style="position: absolute; top: 0pt; left: 0pt; overflow: visible;">
<g transform="translate(-58.04293823242186,55.240234374999986)">
<g stroke-miterlimit="10" transform="scale(1,-1)"><g stroke="#000" fill="#000">
 <g stroke-width="0.4">
 <g stroke-width="1.2">
 <path d=" M 0.0 0.0 L 85.35823 0.0 L 85.35823 113.81097 Z  " fill="none"/>
 </g>
 <g stroke-width="1.2">
 <path d=" M 85.35823 0.0 M 76.82233 0.0 L 76.82233 8.5359 L 85.35823 8.5359  " fill="none"/>
 </g>
 <g stroke-width="1.2">
 <path d=" M 19.91682 0.0 C 19.91682 6.25136 16.97894 12.14441 11.98637 15.90646  " fill="none"/>
 </g>
 <g transform="translate(23.99956,3.67024)">
 <g stroke="none" transform="scale(-1.00375,1.00375)translate(-54.70960998535155,55.240234374999986)scale(-1,-1)"><g fill="#000">
 <g stroke="none"> <text alignment-baseline="baseline" y="55.240234374999986" x="-54.70960998535155" style="font-family: cmr10;" font-size="10">60</text>
<text alignment-baseline="baseline" y="51.61131286621092" x="-44.7095718383789" style="font-family: cmsy7;" font-size="7">◦</text>
</g> </g>
 </g></g>
 <g transform="translate(-10.89409,-10.36629)">
 <g stroke="none" transform="scale(-1.00375,1.00375)translate(-54.70960998535155,55.240234374999986)scale(-1,-1)"><g fill="#000">
 <g stroke="none"> <text alignment-baseline="baseline" y="55.240234374999986" x="-54.70960998535155" style="font-family: cmr10;" font-size="10">R</text>
</g> </g>
 </g></g>
 <g transform="translate(88.8912,-10.36629)">
 <g stroke="none" transform="scale(-1.00375,1.00375)translate(-54.70960998535155,55.240234374999986)scale(-1,-1)"><g fill="#000">
 <g stroke="none"> <text alignment-baseline="baseline" y="55.240234374999986" x="-54.70960998535155" style="font-family: cmr10;" font-size="10">Q</text>
</g> </g>
 </g></g>
 <g transform="translate(88.8912,117.34395)">
 <g stroke="none" transform="scale(-1.00375,1.00375)translate(-54.70960998535155,55.240234374999986)scale(-1,-1)"><g fill="#000">
 <g stroke="none"> <text alignment-baseline="baseline" y="55.240234374999986" x="-54.70960998535155" style="font-family: cmr10;" font-size="10">P</text>
</g> </g>
 </g></g>
 <g transform="matrix(0.60182,0.79865,-0.79865,0.60182,13.48116,23.97565)">
 <g stroke="none" transform="scale(-1.00375,1.00375)translate(-54.70960998535155,55.240234374999986)scale(-1,-1)"><g fill="#000">
 <g stroke="none"> <text alignment-baseline="baseline" y="55.240234374999986" x="-54.70960998535155" style="font-family: cmr10;" font-size="10">16</text>
<text alignment-baseline="baseline" y="55.240234374999986" x="-41.37624359130859" style="font-family: cmr10;" font-size="10">cm</text>
</g> </g>
 </g></g>
 </g>
 </g>
 </g></g></svg>