<svg xmlns="http://www.w3.org/2000/svg" width="216.1475pt" height="129.84787pt" viewBox="-72 -72 216.1475 129.84787" style="position: absolute; top: 0pt; left: 0pt; overflow: visible;">
<g transform="translate(-40.95957946777343,43.87860107421874)">
<g stroke-miterlimit="10" transform="scale(1,-1)"><g stroke="#000" fill="#000">
 <g stroke-width="0.4">
 <g stroke-width="1.2">
 <path d=" M 0.0 102.44934 L 0.0 0.0 L 170.7489 0.0 Z  " fill="none"/>
 </g>
 <g stroke-width="1.2">
 <path d=" M 0.0 0.0 M 11.95032 0.0 L 11.95032 11.95032 L 0.0 11.95032  " fill="none"/>
 </g>
 <g stroke-width="1.2">
 <path d=" M 0.0 81.96323 C 7.31812 81.96323 14.08264 85.86877 17.74153 92.20628  " fill="none"/>
 </g>
 <g transform="translate(6.59268,73.61974)">
 <g stroke="none" transform="scale(-1.00375,1.00375)translate(-37.62625122070312,43.87860107421874)scale(-1,-1)"><g fill="#000">
 <g stroke="none"> <text alignment-baseline="baseline" y="43.87860107421874" x="-37.62625122070312" style="font-family: cmr10;" font-size="10">2</text>
<text alignment-baseline="baseline" y="43.87860107421874" x="-32.62623214721679" style="font-family: cmmi10;" font-size="10">x</text>
</g> </g>
 </g></g>
 <g stroke-width="1.2">
 <path d=" M 146.84877 0.0 C 146.84877 4.33575 148.02963 8.59348 150.2626 12.30963  " fill="none"/>
 </g>
 <g transform="translate(137.16261,9.79755)">
 <g stroke="none" transform="scale(-1.00375,1.00375)translate(-37.62625122070312,43.87860107421874)scale(-1,-1)"><g fill="#000">
 <g stroke="none"> <text alignment-baseline="baseline" y="43.87860107421874" x="-37.62625122070312" style="font-family: cmmi10;" font-size="10">x</text>
</g> </g>
 </g></g>
 <g transform="translate(-11.03297,105.98232)">
 <g stroke="none" transform="scale(-1.00375,1.00375)translate(-37.62625122070312,43.87860107421874)scale(-1,-1)"><g fill="#000">
 <g stroke="none"> <text alignment-baseline="baseline" y="43.87860107421874" x="-37.62625122070312" style="font-family: cmr10;" font-size="10">A</text>
</g> </g>
 </g></g>
 <g transform="translate(-10.61632,-10.36629)">
 <g stroke="none" transform="scale(-1.00375,1.00375)translate(-37.62625122070312,43.87860107421874)scale(-1,-1)"><g fill="#000">
 <g stroke="none"> <text alignment-baseline="baseline" y="43.87860107421874" x="-37.62625122070312" style="font-family: cmr10;" font-size="10">B</text>
</g> </g>
 </g></g>
 <g transform="translate(174.28188,-10.36629)">
 <g stroke="none" transform="scale(-1.00375,1.00375)translate(-37.62625122070312,43.87860107421874)scale(-1,-1)"><g fill="#000">
 <g stroke="none"> <text alignment-baseline="baseline" y="43.87860107421874" x="-37.62625122070312" style="font-family: cmr10;" font-size="10">C</text>
</g> </g>
 </g></g>
 <g transform="translate(-24.64412,48.00244)">
 <g stroke="none" transform="scale(-1.00375,1.00375)translate(-37.62625122070312,43.87860107421874)scale(-1,-1)"><g fill="#000">
 <g stroke="none"> <text alignment-baseline="baseline" y="43.87860107421874" x="-37.62625122070312" style="font-family: cmr10;" font-size="10">4</text>
<text alignment-baseline="baseline" y="43.87860107421874" x="-29.292903900146477" style="font-family: cmr10;" font-size="10">cm</text>
</g> </g>
 </g></g>
 </g>
 </g>
 </g></g></svg>