<?xml version="1.0" encoding="UTF-8" standalone="no"?>
<!-- Created with Inkscape (http://www.inkscape.org/) -->

<svg
   version="1.1"
   id="svg1"
   width="246.24001"
   height="192.32001"
   viewBox="0 0 246.24001 192.32001"
   sodipodi:docname="upload_7gbu7tg3lbrl66z5acaxysgrem.pdf"
   xmlns:inkscape="http://www.inkscape.org/namespaces/inkscape"
   xmlns:sodipodi="http://sodipodi.sourceforge.net/DTD/sodipodi-0.dtd"
   xmlns="http://www.w3.org/2000/svg"
   xmlns:svg="http://www.w3.org/2000/svg">
  <defs
     id="defs1" />
  <sodipodi:namedview
     id="namedview1"
     pagecolor="#ffffff"
     bordercolor="#000000"
     borderopacity="0.25"
     inkscape:showpageshadow="2"
     inkscape:pageopacity="0.0"
     inkscape:pagecheckerboard="0"
     inkscape:deskcolor="#d1d1d1">
    <inkscape:page
       x="0"
       y="0"
       inkscape:label="1"
       id="page1"
       width="246.24001"
       height="192.32001"
       margin="0"
       bleed="0" />
  </sodipodi:namedview>
  <g
     id="g1"
     inkscape:groupmode="layer"
     inkscape:label="1">
    <path
       id="path1"
       d="M 0,85.0508 V 0 h 127.57619 z"
       style="fill:none;stroke:#000000;stroke-width:1.19553;stroke-linecap:butt;stroke-linejoin:miter;stroke-miterlimit:10;stroke-dasharray:none;stroke-opacity:1"
       transform="matrix(1.3333333,0,0,-1.3333333,38.352,150.488)" />
    <path
       id="path2"
       d="M 12.75616,0 V 12.75616 H 0"
       style="fill:none;stroke:#000000;stroke-width:1.19553;stroke-linecap:butt;stroke-linejoin:miter;stroke-miterlimit:10;stroke-dasharray:none;stroke-opacity:1"
       transform="matrix(1.3333333,0,0,-1.3333333,38.352,150.488)" />
    <path
       id="path3"
       d="m 0,65.91685 c 6.12387,0 11.88046,2.93305 15.47974,7.88733"
       style="fill:none;stroke:#000000;stroke-width:1.19553;stroke-linecap:butt;stroke-linejoin:miter;stroke-miterlimit:10;stroke-dasharray:none;stroke-opacity:1"
       transform="matrix(1.3333333,0,0,-1.3333333,38.352,150.488)" />
    <path
       id="path4"
       d="m 106.31609,0 c 0,4.23572 1.26617,8.37706 3.63462,11.8884"
       style="fill:none;stroke:#000000;stroke-width:1.19553;stroke-linecap:butt;stroke-linejoin:miter;stroke-miterlimit:10;stroke-dasharray:none;stroke-opacity:1"
       transform="matrix(1.3333333,0,0,-1.3333333,38.352,150.488)" />
    <path
       id="path5"
       d="m 4.5357422,-4.9791562 c 0,-0.65625 -0.1875,-2.0390625 -1.1953125,-2.0390625 -1.3828125,0 -2.91796876,2.8007812 -2.91796876,5.0859375 0,0.93749995 0.28125,2.03906245 1.19531246,2.03906245 1.40625,0 2.9179688,-2.85937495 2.9179688,-5.08593745 z m -3.0585938,1.359375 c 0.1640625,-0.6328125 0.3632813,-1.4296875 0.7617188,-2.1328125 0.2695312,-0.4921875 0.6445312,-1.0546875 1.0898437,-1.0546875 0.4921875,0 0.5507813,0.6445312 0.5507813,1.2070312 0,0.4921875 -0.082031,0.9960938 -0.328125,1.9804688 z m 1.9921875,0.328125 c -0.1171875,0.4570312 -0.3164062,1.3007812 -0.703125,2.015625 -0.3398437,0.67968745 -0.7265625,1.17187495 -1.1484375,1.17187495 -0.328125,0 -0.5390625,-0.29296875 -0.5390625,-1.21874995 0,-0.421875 0.058594,-0.9960938 0.3164063,-1.96875 z m 0,0"
       style="fill:#000000;fill-opacity:1;fill-rule:nonzero;stroke:none"
       aria-label="θ"
       transform="matrix(1.3333333,0,0,1.3333333,168.3,138.092)" />
    <path
       id="path6"
       d="m 6.2100312,-4.9444141 c 0,-0.984375 -0.984375,-1.8632812 -2.3437499,-1.8632812 H 0.35065625 v 0.3164062 h 0.234375 c 0.77343755,0 0.78515625,0.1054688 0.78515625,0.46875 v 5.25000004 c 0,0.3515625 -0.011719,0.46875 -0.78515625,0.46875 h -0.234375 V 8.984375e-4 C 0.70221875,-0.03425781 1.4287812,-0.03425781 1.8155,-0.03425781 c 0.375,0 1.125,0 1.4765625,0.0351562475 V -0.30378906 H 3.0459688 c -0.7617188,0 -0.7851563,-0.1171875 -0.7851563,-0.46875 V -3.1514453 h 1.6875 c 1.1953125,0 2.2617187,-0.796875 2.2617187,-1.7929688 z m -1.0195312,0 c 0,0.4570313 0,1.5351563 -1.5820312,1.5351563 H 2.2256563 v -2.6835938 c 0,-0.328125 0.023437,-0.3984375 0.4921875,-0.3984375 h 0.890625 c 1.5820312,0 1.5820312,1.0546875 1.5820312,1.546875 z m 0,0"
       style="fill:#000000;fill-opacity:1;fill-rule:nonzero;stroke:none"
       aria-label="P"
       transform="matrix(1.3333333,0,0,1.3333333,33.829333,32.393333)" />
    <path
       id="path7"
       d="m 7.2423516,0.105625 c 0,-0.10546875 0,-0.2109375 -0.1054688,-0.2109375 -0.09375,0 -0.1054687,0.0703125 -0.1171875,0.17578125 C 6.9611016,0.60953125 6.5392266,0.9025 6.1173516,0.9025 5.6486016,0.9025 5.4025078,0.56265625 5.1564141,-0.07015625 6.3400078,-0.5975 7.1837578,-1.8748437 7.1837578,-3.3748437 c 0,-2.0390625 -1.5,-3.6445313 -3.3164062,-3.6445313 -1.78125,0 -3.30468754,1.59375 -3.30468754,3.6445313 0,2.015625 1.50000004,3.5976562 3.31640624,3.5976562 0.3046875,0 0.65625,-0.0585938 0.9375,-0.15234375 C 4.9689141,1.0196875 5.1095391,1.93375 6.0353203,1.93375 c 1.0195313,0 1.2070313,-1.32421875 1.2070313,-1.828125 z M 6.1876641,-3.3748437 c 0,0.7734375 -0.1171875,2.1796875 -1.171875,2.95312495 C 4.7931328,-0.9725 4.4767266,-1.4764062 3.8907891,-1.4764062 c -0.515625,0 -0.8203125,0.4335937 -0.8203125,0.84374995 0,0.26953125 0.1289062,0.45703125 0.140625,0.46875 C 2.6720391,-0.363125 1.5587578,-1.0896875 1.5587578,-3.3748437 c 0,-2.5898438 1.3945313,-3.3984375 2.3085938,-3.3984375 0.9609375,0 2.3203125,0.8554687 2.3203125,3.3984375 z M 4.7462578,-0.25765625 C 4.4181328,-0.07015625 4.0900078,-0.035 3.8790703,-0.035 c -0.515625,0 -0.5859375,-0.45703125 -0.5859375,-0.59765625 0,-0.29296875 0.1992188,-0.62109375 0.5976563,-0.62109375 0.5273437,0 0.75,0.421875 0.8554687,0.99609375 z m 0,0"
       style="fill:#000000;fill-opacity:1;fill-rule:nonzero;stroke:none"
       aria-label="Q"
       transform="matrix(1.3333333,0,0,1.3333333,23.324,164.54667)" />
    <path
       id="path8"
       d="m 7.2903906,-0.87847656 c 0,-0.0585938 0,-0.16406254 -0.1289062,-0.16406254 -0.1054688,0 -0.1054688,0.0820313 -0.1171875,0.15234379 -0.058594,0.71484375 -0.4101563,0.8906249975 -0.65625,0.8906249975 -0.4921875,0 -0.5742188,-0.5039062475 -0.703125,-1.4296874875 l -0.140625,-0.796875 c -0.1757813,-0.6445313 -0.65625,-0.9726563 -1.2070313,-1.1601563 0.9609375,-0.234375 1.7460938,-0.84375 1.7460938,-1.6289062 0,-0.9492188 -1.1367188,-1.7929688 -2.6015625,-1.7929688 H 0.35289062 v 0.3164063 h 0.234375 c 0.77343748,0 0.78515628,0.1054687 0.78515628,0.46875 v 5.24999999 c 0,0.3515625 -0.011719,0.46875 -0.78515628,0.46875 h -0.234375 V 4.296875e-4 C 0.70445312,-0.03472656 1.4192969,-0.03472656 1.8060156,-0.03472656 c 0.3867188,0 1.0898438,0 1.453125,0.0351562475 V -0.30425781 h -0.234375 c -0.7734375,0 -0.796875,-0.1171875 -0.796875,-0.46875 V -3.2925391 h 1.1484375 c 0.1640625,0 0.5742188,0 0.9257813,0.3398438 0.3867187,0.3515625 0.3867187,0.65625 0.3867187,1.3242187 0,0.65625004 0,1.05468754 0.3984375,1.42968754 0.4101563,0.36328125 0.9609375,0.421875 1.2539063,0.421875 0.7851562,0 0.9492187,-0.8203125 0.9492187,-1.1015625 z M 5.0521094,-5.0151953 c 0,0.6914062 -0.234375,1.5 -1.7109375,1.5 H 2.2278906 v -2.578125 c 0,-0.234375 0,-0.3515625 0.2226563,-0.3867188 0.1054687,-0.011719 0.3867187,-0.011719 0.5859375,-0.011719 0.9023437,0 2.015625,0.035156 2.015625,1.4765628 z m 0,0"
       style="fill:#000000;fill-opacity:1;fill-rule:nonzero;stroke:none"
       aria-label="R"
       transform="matrix(1.3333333,0,0,1.3333333,213.14667,164.25333)" />
    <path
       id="path9"
       d="M 4.4752813,-1.7341719 H 4.2174688 c -0.046875,0.3046875 -0.1171875,0.73828128 -0.2109375,0.89062503 -0.070312,0.0820313 -0.7265625,0.0820313 -0.9492188,0.0820313 H 1.2643438 L 2.3190313,-1.7927656 c 1.5585937,-1.3710938 2.15625,-1.9101563 2.15625,-2.90625 0,-1.1367188 -0.9023438,-1.9335938 -2.1210938,-1.9335938 -1.125,0 -1.8515625,0.9140625 -1.8515625,1.8046875 0,0.5507813 0.4921875,0.5507813 0.5273438,0.5507813 0.1640625,0 0.515625,-0.1171875 0.515625,-0.5273438 0,-0.2578125 -0.1875,-0.515625 -0.5273438,-0.515625 -0.0820313,0 -0.10546875,0 -0.12890625,0.011719 C 1.112,-5.9529219 1.6510625,-6.3279219 2.2252813,-6.3279219 c 0.9140625,0 1.3359375,0.8085938 1.3359375,1.6289063 0,0.796875 -0.4921875,1.5820312 -1.0429688,2.203125 L 0.60809375,-0.36307812 C 0.502625,-0.25760937 0.502625,-0.23417187 0.502625,2.03125e-4 h 3.6914063 z m 0,0"
       style="fill:#000000;fill-opacity:1;fill-rule:nonzero;stroke:none"
       aria-label="2"
       transform="matrix(1.3333333,0,0,1.3333333,27.017333,98.210667)" />
    <g
       id="g9"
       aria-label="2&#10;√"
       transform="matrix(1.3333333,0,0,1.3333333,111.22667,167.232)">
      <path
         id="path10"
         d="M 1.2655469,-0.76286719 2.3202344,-1.7941172 c 1.5585937,-1.3710937 2.15625,-1.9101562 2.15625,-2.90625 0,-1.1367187 -0.9023438,-1.9335937 -2.1210938,-1.9335937 -1.125,0 -1.85156247,0.9140625 -1.85156247,1.8046875 0,0.5507812 0.4921875,0.5507812 0.52734377,0.5507812 0.1640625,0 0.515625,-0.1171875 0.515625,-0.5273437 0,-0.2578125 -0.1875,-0.515625 -0.5273438,-0.515625 -0.0820312,0 -0.10546872,0 -0.12890622,0.011719 0.22265622,-0.6445312 0.76171872,-1.0195312 1.33593752,-1.0195312 0.9140625,0 1.3359375,0.8085937 1.3359375,1.6289062 0,0.796875 -0.4921875,1.5820313 -1.0429688,2.203125 L 0.60929688,-0.36442969 C 0.50382813,-0.25896094 0.50382813,-0.23552344 0.50382813,-0.00114844 H 4.1952344 l 0.28125,-1.73437496 H 4.2186719 c -0.046875,0.3046875 -0.1171875,0.73828121 -0.2109375,0.89062496 -0.070313,0.0820313 -0.7265625,0.0820313 -0.9492188,0.0820313 z m 0,0"
         style="fill:#000000;fill-opacity:1;fill-rule:nonzero;stroke:none" />
      <path
         id="path11"
         d="M 8.8622266,0.27717188 7.1044141,-3.6017344 c -0.070312,-0.1523437 -0.1171875,-0.1523437 -0.1523438,-0.1523437 -0.011719,0 -0.058594,0 -0.1640625,0.070312 l -0.9492187,0.7265625 c -0.1289063,0.09375 -0.1289063,0.1289062 -0.1289063,0.1523437 0,0.046875 0.035156,0.1054688 0.1054688,0.1054688 0.058594,0 0.2226562,-0.1289063 0.328125,-0.2109375 0.070312,-0.046875 0.2109375,-0.1640625 0.328125,-0.2460938 l 1.9570312,4.3125 c 0.070312,0.1640625 0.1171875,0.1640625 0.2109375,0.1640625 0.1523438,0 0.1757813,-0.058594 0.2460938,-0.1992187 l 4.5234379,-9.3632813 c 0.07031,-0.140625 0.07031,-0.1757812 0.07031,-0.1992187 0,-0.1054688 -0.08203,-0.1992188 -0.199219,-0.1992188 -0.08203,0 -0.152343,0.046875 -0.222656,0.2109375 z m 0,0"
         style="fill:#000000;fill-opacity:1;fill-rule:nonzero;stroke:none" />
    </g>
    <path
       id="path12"
       d="m -29.952,-32.427 h 4.981"
       style="fill:none;stroke:#000000;stroke-width:0.3985;stroke-linecap:butt;stroke-linejoin:miter;stroke-miterlimit:10;stroke-dasharray:none;stroke-opacity:1"
       transform="matrix(1.3333333,0,0,-1.3333333,168.87467,112.74133)" />
    <path
       id="path13"
       d="M 1.26475,-0.76286719 2.3194375,-1.7941172 c 1.5585937,-1.3710937 2.15625,-1.9101562 2.15625,-2.90625 0,-1.1367187 -0.9023438,-1.9335937 -2.1210938,-1.9335937 -1.125,0 -1.85156245,0.9140625 -1.85156245,1.8046875 0,0.5507812 0.4921875,0.5507812 0.52734375,0.5507812 0.1640625,0 0.515625,-0.1171875 0.515625,-0.5273437 0,-0.2578125 -0.1875,-0.515625 -0.5273438,-0.515625 -0.0820312,0 -0.1054687,0 -0.1289062,0.011719 0.2226562,-0.6445312 0.7617187,-1.0195312 1.3359375,-1.0195312 0.9140625,0 1.3359375,0.8085937 1.3359375,1.6289062 0,0.796875 -0.4921875,1.5820313 -1.0429688,2.203125 L 0.6085,-0.36442969 C 0.50303125,-0.25896094 0.50303125,-0.23552344 0.50303125,-0.00114844 H 4.1944375 l 0.28125,-1.73437496 H 4.217875 C 4.171,-1.4308359 4.1006875,-0.99724219 4.0069375,-0.84489844 c -0.070313,0.0820313 -0.7265625,0.0820313 -0.9492188,0.0820313 z m 0,0"
       style="fill:#000000;fill-opacity:1;fill-rule:nonzero;stroke:none"
       aria-label="2"
       transform="matrix(1.3333333,0,0,1.3333333,128.93867,167.232)" />
  </g>
</svg>
