<svg xmlns="http://www.w3.org/2000/svg" width="152.59718pt" height="162.25385pt" viewBox="-72 -72 152.59718 162.25385" style="position: absolute; top: 0pt; left: 0pt; overflow: visible;">
<g transform="translate(5.640609741210937,15.406555175781246)">
<g stroke-miterlimit="10" transform="scale(1,-1)"><g stroke="#000" fill="#000">
 <g stroke-width="0.4">
 <g stroke-width="1.2">
 <path d=" M 0.0 0.0 M 73.9773 0.0 C 73.9773 40.85706 40.85706 73.9773 0.0 73.9773 C -40.85706 73.9773 -73.9773 40.85706 -73.9773 0.0 C -73.9773 -40.85706 -40.85706 -73.9773 0.0 -73.9773 C 40.85706 -73.9773 73.9773 -40.85706 73.9773 0.0 Z M 0.0 0.0  " fill="none"/>
 </g>
 <g stroke-width="1.2">
 <path d=" M 0.0 73.9773 L -60.59839 -42.43164  " fill="none"/>
 </g>
 <g stroke-width="1.2">
 <path d=" M 0.0 73.9773 L 60.59839 -42.43164  " fill="none"/>
 </g>
 <g stroke-width="1.2">
 <path d=" M 0.0 0.0 L -60.59839 -42.43164  " fill="none"/>
 </g>
 <g stroke-width="1.2">
 <path d=" M 0.0 0.0 L 60.59839 -42.43164  " fill="none"/>
 </g>
 <g stroke-width="1.2">
 <path d=" M -9.19452 56.31155 C -3.43263 53.31255 3.43398 53.31255 9.19586 56.31155  " fill="none"/>
 </g>
 <g transform="translate(-10.84369,40.19577)">
 <g stroke="none" transform="scale(-1.00375,1.00375)translate(8.973937988281248,15.406555175781246)scale(-1,-1)"><g fill="#000">
 <g stroke="none"> <text alignment-baseline="baseline" y="15.406555175781246" x="8.973937988281248" style="font-family: cmmi9;" font-size="9">x</text>
<text alignment-baseline="baseline" y="15.406555175781246" x="14.216982841491696" style="font-family: cmr9;" font-size="9">+</text>
<text alignment-baseline="baseline" y="15.406555175781246" x="21.411379814147946" style="font-family: cmr9;" font-size="9">10</text>
</g> </g>
 </g></g>
 <g stroke-width="1.2">
 <path d=" M -13.9841 -9.7919 C -10.48618 -14.78741 -4.58675 -17.53798 1.48825 -17.00658 C 6.51476 -16.56686 11.09062 -13.92491 13.98471 -9.7919  " fill="none"/>
 </g>
 <g transform="translate(-12.89923,-30.93607)">
 <g stroke="none" transform="scale(-1.00375,1.00375)translate(8.973937988281248,15.406555175781246)scale(-1,-1)"><g fill="#000">
 <g stroke="none"> <text alignment-baseline="baseline" y="15.406555175781246" x="8.973937988281248" style="font-family: cmmi9;" font-size="9">x</text>
<text alignment-baseline="baseline" y="15.406555175781246" x="16.272524833679196" style="font-family: cmr9;" font-size="9">+</text>
<text alignment-baseline="baseline" y="15.406555175781246" x="25.522463798522942" style="font-family: cmr9;" font-size="9">80</text>
</g> </g>
 </g></g>
 <g transform="translate(-3.75,77.51027)">
 <g stroke="none" transform="scale(-1.00375,1.00375)translate(8.973937988281248,15.406555175781246)scale(-1,-1)"><g fill="#000">
 <g stroke="none"> <text alignment-baseline="baseline" y="15.406555175781246" x="8.973937988281248" style="font-family: cmr10;" font-size="10">A</text>
</g> </g>
 </g></g>
 <g transform="translate(-71.2147,-45.8483)">
 <g stroke="none" transform="scale(-1.00375,1.00375)translate(8.973937988281248,15.406555175781246)scale(-1,-1)"><g fill="#000">
 <g stroke="none"> <text alignment-baseline="baseline" y="15.406555175781246" x="8.973937988281248" style="font-family: cmr10;" font-size="10">B</text>
</g> </g>
 </g></g>
 <g transform="translate(64.13136,-45.8483)">
 <g stroke="none" transform="scale(-1.00375,1.00375)translate(8.973937988281248,15.406555175781246)scale(-1,-1)"><g fill="#000">
 <g stroke="none"> <text alignment-baseline="baseline" y="15.406555175781246" x="8.973937988281248" style="font-family: cmr10;" font-size="10">C</text>
</g> </g>
 </g></g>
 <g transform="translate(-3.5972,3.53297)">
 <g stroke="none" transform="scale(-1.00375,1.00375)translate(8.973937988281248,15.406555175781246)scale(-1,-1)"><g fill="#000">
 <g stroke="none"> <text alignment-baseline="baseline" y="15.406555175781246" x="8.973937988281248" style="font-family: cmr9;" font-size="9">O</text>
</g> </g>
 </g></g>
 </g>
 </g>
 </g></g></svg>