<?xml version="1.0" encoding="UTF-8" standalone="no"?>
<!-- Created with Inkscape (http://www.inkscape.org/) -->

<svg
   version="1.1"
   id="svg1"
   width="301.05334"
   height="72.800003"
   viewBox="0 0 301.05334 72.800003"
   sodipodi:docname="upload_ollk7t4hzekeqsp6mjicawoiht.pdf"
   xmlns:inkscape="http://www.inkscape.org/namespaces/inkscape"
   xmlns:sodipodi="http://sodipodi.sourceforge.net/DTD/sodipodi-0.dtd"
   xmlns="http://www.w3.org/2000/svg"
   xmlns:svg="http://www.w3.org/2000/svg">
  <defs
     id="defs1" />
  <sodipodi:namedview
     id="namedview1"
     pagecolor="#ffffff"
     bordercolor="#000000"
     borderopacity="0.25"
     inkscape:showpageshadow="2"
     inkscape:pageopacity="0.0"
     inkscape:pagecheckerboard="0"
     inkscape:deskcolor="#d1d1d1">
    <inkscape:page
       x="0"
       y="0"
       inkscape:label="1"
       id="page1"
       width="301.05334"
       height="72.800003"
       margin="0"
       bleed="0" />
  </sodipodi:namedview>
  <g
     id="g1"
     inkscape:groupmode="layer"
     inkscape:label="1">
    <path
       id="path1"
       d="M -58.72,61.838 H 143.831"
       style="fill:none;stroke:#000000;stroke-width:0.3985;stroke-linecap:butt;stroke-linejoin:miter;stroke-miterlimit:10;stroke-dasharray:none;stroke-opacity:1"
       transform="matrix(1.3333333,0,0,-1.3333333,96,96.006667)" />
    <path
       id="path2"
       d="M -58.521,44.902 V 61.639"
       style="fill:none;stroke:#000000;stroke-width:0.3985;stroke-linecap:butt;stroke-linejoin:miter;stroke-miterlimit:10;stroke-dasharray:none;stroke-opacity:1"
       transform="matrix(1.3333333,0,0,-1.3333333,96,96.006667)" />
    <path
       id="path3"
       d="m 2.7531797,0.13967969 c -0.3691406,0 -0.7148438,-0.12304688 -1.0429688,-0.36328125 C 1.3879453,-0.46383594 1.1272031,-0.82125781 0.92505469,-1.2900078 0.72876562,-1.7646172 0.63208594,-2.3388359 0.63208594,-3.0126641 c 0,-0.3984375 0.0527344,-0.7851562 0.1640625,-1.1601562 0.1171875,-0.3808594 0.28417966,-0.7265625 0.50390626,-1.03125 0.2255859,-0.3046875 0.4980469,-0.5449219 0.8203125,-0.7265625 0.328125,-0.178711 0.6943359,-0.2695313 1.1015625,-0.2695313 h 0.5976562 l 0.3398438,0.515625 h -0.46875 c -0.3369141,0 -0.6533203,0.082031 -0.9492188,0.2460938 -0.290039,0.1582031 -0.5449218,0.3808594 -0.7617187,0.6679687 -0.2197266,0.28125 -0.3925781,0.6064453 -0.515625,0.9726563 -0.1259766,0.3691406 -0.1875,0.758789 -0.1875,1.171875 0,0.4628906 0.073242,0.890625 0.2226562,1.2890625 0.1464844,0.39843749 0.4013672,0.70312499 0.7617188,0.91406249 -0.070312,-0.12304688 -0.1054688,-0.26367188 -0.1054688,-0.421875 0,-0.20214849 0.064453,-0.36328129 0.1992188,-0.48046879 0.140625,-0.1171875 0.3105469,-0.1757812 0.515625,-0.1757812 0.2490234,0 0.4394531,0.079101 0.5742187,0.234375 0.131836,0.1582031 0.1992188,0.34570311 0.1992188,0.56249999 0,0.2578125 -0.079102,0.46582031 -0.234375,0.62109375 -0.1494141,0.14648437 -0.3691406,0.22265625 -0.65625,0.22265625 z M 10.25025,0.17483594 9.7815,-0.18844531 C 9.6174375,-0.43746875 9.4123594,-0.60446094 9.172125,-0.69235156 8.9289609,-0.7773125 8.6857969,-0.82125781 8.4455625,-0.82125781 c -0.3603516,0 -0.7001953,0.0234375 -1.0195313,0.0703125 -0.3134765,0.046875 -0.6445312,0.0703125 -0.9960937,0.0703125 -0.3691406,0 -0.6914063,-0.0498047 -0.9726563,-0.15234375 C 5.1760312,-0.941375 4.953375,-1.128875 4.7893125,-1.3954766 4.62525,-1.6679375 4.5432187,-2.0400078 4.5432187,-2.5087578 c 0,-0.2021485 0.014648,-0.4042969 0.046875,-0.609375 0.029297,-0.2021485 0.061523,-0.375 0.09375,-0.515625 l 0.4335938,0.09375 c -0.070312,0.3046875 -0.1054688,0.5800781 -0.1054688,0.8203125 0,0.4160156 0.1289063,0.7089844 0.3867188,0.8789062 0.2578125,0.1728516 0.6152344,0.2578125 1.078125,0.2578125 0.3574219,0 0.6708984,-0.014648 0.9375,-0.046875 0.2724609,-0.038086 0.5332031,-0.058594 0.7851562,-0.058594 0.3105469,0 0.609375,0.070312 0.890625,0.2109375 0.28125,0.1347656 0.5185547,0.3720703 0.7148438,0.71484374 -0.017578,-0.16992188 -0.029297,-0.34277344 -0.035156,-0.51562504 -0.00879,-0.1699218 -0.011719,-0.3427734 -0.011719,-0.515625 V -4.1962578 C 9.4914609,-4.6650078 9.2717344,-5.0048516 9.1018125,-5.2157891 8.93775,-5.4267266 8.7414609,-5.5321953 8.515875,-5.5321953 c -0.1347656,0 -0.2519531,0.052734 -0.3515625,0.1523437 -0.1025391,0.09375 -0.2109375,0.2226563 -0.328125,0.3867188 0.375,0.2050781 0.6503906,0.430664 0.8320312,0.6796875 0.178711,0.2519531 0.2695313,0.5039062 0.2695313,0.7617187 0,0.2666016 -0.070312,0.4628907 -0.2109375,0.5859375 -0.140625,0.1171875 -0.3222656,0.1757813 -0.5390625,0.1757813 -0.2109375,0 -0.4042969,-0.064453 -0.5742188,-0.1992188 -0.1640625,-0.140625 -0.2783203,-0.3515625 -0.3398437,-0.6328125 -0.064453,0.2578125 -0.1757813,0.4628907 -0.3398438,0.609375 -0.1582031,0.1494141 -0.3515625,0.2226563 -0.5859375,0.2226563 -0.1640625,0 -0.328125,-0.052734 -0.4921875,-0.1640625 -0.1582031,-0.1171875 -0.234375,-0.3164063 -0.234375,-0.5976563 0,-0.2402343 0.087891,-0.5097656 0.2695313,-0.8085937 0.1787109,-0.2958985 0.5097656,-0.553711 0.9960937,-0.7734375 -0.1728515,-0.1875 -0.3398437,-0.3222656 -0.5039062,-0.4101563 -0.1582031,-0.09375 -0.3603516,-0.140625 -0.609375,-0.140625 H 3.922125 l -0.3398438,-0.515625 h 2.1796875 c 0.2021485,0 0.375,0.029297 0.515625,0.082031 0.140625,0.055664 0.2753907,0.140625 0.4101563,0.2578125 0.1318359,0.1171875 0.2753906,0.2666015 0.4335937,0.4453125 0.234375,-0.3105469 0.4482422,-0.5302735 0.6445313,-0.65625 0.1933594,-0.131836 0.3925781,-0.1992188 0.5976562,-0.1992188 0.3046875,0 0.5566407,0.1289063 0.7617188,0.3867188 0.2109375,0.2519531 0.4248047,0.5742187 0.6445312,0.9726562 -0.00879,-0.1552734 -0.011719,-0.3544922 -0.011719,-0.5976562 0,-0.2490235 0,-0.4570313 0,-0.6210938 v -0.8085937 l 0.046875,-0.011719 0.4570318,0.328125 0.03516,0.421875 h 0.738281 l 0.351563,0.515625 h -1.089844 v 5.84765629 z m 2.147461,0.0703125 -0.503906,-0.28125 V -5.6845391 h -0.761719 l -0.328125,-0.515625 h 1.019531 C 11.674078,-6.332 11.530523,-6.4696953 11.389898,-6.6103203 11.255133,-6.7509453 11.123297,-6.8945 10.991461,-7.0439141 c 0.263672,-0.6708984 0.632812,-1.1894531 1.101562,-1.5585937 0.46875,-0.375 0.990235,-0.5625 1.570313,-0.5625 0.427734,0 0.858398,0.099609 1.289062,0.2929687 0.427735,0.1875 0.84668,0.4453125 1.253907,0.7734375 0.404297,0.328125 0.779297,0.6914063 1.125,1.0898438 l -0.234375,0.2226562 c -0.439453,-0.4277343 -0.84375,-0.7617187 -1.21875,-0.9960937 -0.375,-0.2402344 -0.726563,-0.413086 -1.054688,-0.515625 -0.328125,-0.099609 -0.641601,-0.1523438 -0.9375,-0.1523438 -0.328125,0 -0.638672,0.079102 -0.925781,0.234375 -0.290039,0.1582032 -0.533203,0.3574219 -0.726563,0.5976563 -0.1875,0.243164 -0.313476,0.4921875 -0.375,0.75 0.08496,0.1259765 0.158204,0.2460937 0.222657,0.3632812 0.07031,0.1113282 0.146484,0.2109375 0.234375,0.3046875 h 0.855468 l 0.351563,0.515625 h -1.089844 v 5.91796879 z m 5.613281,0 -0.503906,-0.28125 V -3.5282891 c -0.290039,-0.4833984 -0.550781,-0.8554687 -0.785156,-1.1132812 -0.228516,-0.2578125 -0.451172,-0.4365235 -0.667969,-0.5390625 -0.219727,-0.099609 -0.462891,-0.1523438 -0.726563,-0.1523438 -0.322265,0 -0.594726,0.09082 -0.820312,0.2695313 -0.228516,0.1728515 -0.339844,0.4277344 -0.339844,0.7617187 0,0.4160157 0.143555,0.6738282 0.433594,0.7734375 -0.0088,-0.038086 -0.01172,-0.076172 -0.01172,-0.1171875 0,-0.2109375 0.06445,-0.3808593 0.199219,-0.515625 0.140625,-0.1318359 0.316406,-0.1992187 0.527344,-0.1992187 0.240234,0 0.433593,0.076172 0.574218,0.2226562 0.140625,0.140625 0.210938,0.328125 0.210938,0.5625 0,0.2431641 -0.08203,0.4423828 -0.246094,0.5976563 -0.158203,0.149414 -0.380859,0.2226562 -0.667969,0.2226562 -0.28125,0 -0.539062,-0.064453 -0.773437,-0.1992187 -0.234375,-0.131836 -0.427734,-0.3310547 -0.574219,-0.5976563 -0.140625,-0.2636718 -0.210937,-0.5888672 -0.210937,-0.9726562 0,-0.3339844 0.06445,-0.6328125 0.199218,-0.890625 0.131836,-0.2636719 0.316407,-0.46875 0.550782,-0.609375 0.234375,-0.1464844 0.503906,-0.2226563 0.808593,-0.2226563 0.272461,0 0.530274,0.064453 0.773438,0.1875 0.240234,0.1171875 0.486328,0.3251953 0.738281,0.6210938 0.249024,0.290039 0.530274,0.703125 0.84375,1.2421875 -0.0088,-0.1640625 -0.01758,-0.3515625 -0.02344,-0.5625 -0.0088,-0.2167969 -0.01172,-0.4248047 -0.01172,-0.6210938 v -1.5585937 l 0.03516,-0.011719 0.457031,0.328125 0.04687,0.421875 h 0.726563 l 0.351562,0.515625 h -1.078125 v 5.91796879 z m 7.640625,-0.1171875 -0.46875,-0.36328125 C 24.822516,-0.83590625 24.385992,-1.316375 23.870367,-1.6767266 23.354742,-2.0341484 22.751227,-2.2568047 22.06568,-2.3446953 l -0.410157,-1.125 c 0.591797,-0.3808594 1.163086,-0.7060547 1.710938,-0.9726563 0.544922,-0.2724609 1.142578,-0.5273437 1.792969,-0.7617187 v -0.4804688 h -3.703125 l -0.339844,-0.515625 h 5.332031 l 0.339844,0.515625 H 25.698492 V 0.11624219 Z M 22.663336,-3.0361016 c 0.427734,0.140625 0.867187,0.3691407 1.3125,0.6796875 0.445312,0.3134766 0.837891,0.7675782 1.183594,1.35937504 V -4.2900078 c -0.430664,0.1640625 -0.861328,0.3515625 -1.289063,0.5625 -0.430664,0.2050781 -0.832031,0.4335937 -1.207031,0.6914062 z m 4.669922,3.45703129 -0.257813,-0.33984375 c 0.295899,-0.1875 0.509766,-0.40429688 0.644532,-0.65625 0.131835,-0.24902344 0.199218,-0.51855474 0.199218,-0.80859374 0,-0.2167969 -0.04394,-0.4335938 -0.128906,-0.6445313 -0.0791,-0.2167968 -0.172852,-0.4335937 -0.28125,-0.6445312 -0.111328,-0.2167969 -0.205078,-0.4394531 -0.28125,-0.6679688 -0.0791,-0.2255859 -0.117187,-0.4570312 -0.117187,-0.6914062 0,-0.3574219 0.09375,-0.6738281 0.28125,-0.9492188 0.1875,-0.2724609 0.401367,-0.5068359 0.644531,-0.703125 h -1.488281 l -0.339844,-0.515625 h 3.082031 l 0.339844,0.515625 h -0.972656 c -0.172852,0.140625 -0.345704,0.3398438 -0.515625,0.5976563 -0.164063,0.2578125 -0.246094,0.5566406 -0.246094,0.890625 0,0.234375 0.03809,0.4541015 0.117187,0.65625 0.07617,0.2050781 0.169922,0.4072265 0.28125,0.609375 0.108399,0.196289 0.202149,0.4042969 0.28125,0.6210937 0.07617,0.2197266 0.117188,0.4570313 0.117188,0.7148438 0,0.421875 -0.128906,0.81445311 -0.386719,1.17187499 -0.257812,0.3515625 -0.583008,0.6328125 -0.972656,0.84375 z m 3.307617,-0.17578125 -0.503906,-0.28125 V -4.7001641 c -0.05566,-0.2724609 -0.137696,-0.5039062 -0.246094,-0.6914062 -0.102539,-0.1933594 -0.251953,-0.2929688 -0.445313,-0.2929688 h -0.07031 l -0.328125,-0.515625 h 0.386719 c 0.131836,0 0.263672,0.058594 0.398437,0.1757813 0.140625,0.1113281 0.251953,0.290039 0.339844,0.5390625 -0.0088,-0.140625 -0.01758,-0.272461 -0.02344,-0.3984375 -0.0088,-0.1230469 -0.01172,-0.2138672 -0.01172,-0.2695313 v -0.7851562 l 0.03516,-0.011719 0.46875,0.328125 0.03516,0.421875 h 0.738281 l 0.351563,0.515625 h -1.089844 v 5.91796879 z m 2.132812,0 -0.503906,-0.28125 V -5.6845391 h -0.761719 l -0.328125,-0.515625 h 1.019532 C 32.050055,-6.332 31.9065,-6.4696953 31.765875,-6.6103203 31.631109,-6.7509453 31.499273,-6.8945 31.367437,-7.0439141 c 0.342774,-0.65625 0.764649,-1.1660156 1.265625,-1.5351562 0.498047,-0.366211 1.081055,-0.5507813 1.746094,-0.5507813 0.703125,0 1.400391,0.1699219 2.097656,0.5039063 0.694336,0.328125 1.365235,0.7851562 2.015625,1.3710937 l -0.246093,0.328125 c -0.5625,-0.4599609 -1.142578,-0.8320312 -1.734375,-1.1132812 -0.594727,-0.2871094 -1.239258,-0.4335938 -1.933594,-0.4335938 -0.398438,0 -0.755859,0.087891 -1.066406,0.2578125 -0.313477,0.1640625 -0.580078,0.3720703 -0.796875,0.6210938 -0.210938,0.2519531 -0.372071,0.4921875 -0.480469,0.7265625 0.08496,0.1259765 0.158203,0.2460937 0.222656,0.3632812 0.07031,0.1113282 0.146485,0.2109375 0.234375,0.3046875 h 0.855469 l 0.351562,0.515625 h -1.089843 v 5.91796879 z m 3.864258,-2.42578124 -0.644531,-0.5976563 c 0.155273,-0.1083984 0.287109,-0.2285156 0.398438,-0.3632812 0.108398,-0.140625 0.164062,-0.3164063 0.164062,-0.5273438 0,-0.1699218 -0.05273,-0.2958984 -0.152344,-0.375 -0.102539,-0.076172 -0.216797,-0.1171875 -0.339843,-0.1171875 -0.149415,0 -0.269532,0.023437 -0.363282,0.070312 -0.08789,0.041016 -0.175781,0.09082 -0.269531,0.1523438 l -0.65625,-0.6796875 c 0.319336,-0.5302735 0.670898,-0.9375 1.054688,-1.21875 0.380859,-0.2871094 0.776367,-0.4335938 1.183593,-0.4335938 0.459961,0 0.881836,0.1757813 1.265625,0.5273438 0.389649,0.3457031 0.703125,0.899414 0.9375,1.6640625 -0.01758,-0.2871094 -0.0293,-0.5097656 -0.03516,-0.6679688 -0.0088,-0.1640625 -0.01172,-0.3105468 -0.01172,-0.4453125 v -1.7460937 l 0.04687,-0.011719 0.457032,0.328125 0.03516,0.421875 h 0.984375 l 0.351562,0.515625 h -1.335937 v 3.0234375 c 0.333984,0.1113282 0.580078,0.3017578 0.738281,0.5742188 0.164063,0.2753906 0.246094,0.5917969 0.246094,0.9492187 0,0.53906254 -0.161133,0.95507816 -0.480469,1.24218754 -0.322266,0.29589843 -0.785156,0.4453125 -1.394531,0.4453125 -0.75,0 -1.450196,-0.23144532 -2.097656,-0.69140625 -0.641602,-0.45996094 -1.215821,-1.10742189 -1.722657,-1.94531249 -0.509765,-0.84375 -0.9375,-1.8222656 -1.289062,-2.9414063 l 0.398437,-0.1171875 c 0.351563,1.0078125 0.767578,1.875 1.253907,2.6015625 0.492187,0.7207032 1.03125,1.2744141 1.617187,1.66406254 0.585938,0.38378906 1.198242,0.57421875 1.839844,0.57421875 0.451172,0 0.796875,-0.0820313 1.03125,-0.24609375 0.240234,-0.1640625 0.363281,-0.40429688 0.363281,-0.72656254 0,-0.28125 -0.07031,-0.4863281 -0.210937,-0.6210937 -0.134766,-0.131836 -0.292969,-0.2050781 -0.480469,-0.2226563 0.01465,0.070312 0.02344,0.1464844 0.02344,0.2226563 0,0.196289 -0.06445,0.3691406 -0.1875,0.515625 -0.125976,0.149414 -0.313476,0.2226562 -0.5625,0.2226562 -0.257812,0 -0.46289,-0.070312 -0.609375,-0.2109375 -0.140625,-0.1464843 -0.210937,-0.3339843 -0.210937,-0.5625 0,-0.2636718 0.105469,-0.46875 0.316406,-0.609375 0.210938,-0.140625 0.459961,-0.2109375 0.75,-0.2109375 0.0293,0 0.06152,0 0.09375,0 -0.05566,-0.3105468 -0.123047,-0.5888672 -0.199219,-0.8320312 -0.0791,-0.2402344 -0.164062,-0.4628906 -0.257812,-0.6679688 z m 0.292969,-1.5703125 c 0,0.046875 -0.0059,0.09375 -0.01172,0.140625 l 1.289063,-1.3476563 c -0.164063,-0.1875 -0.328125,-0.3193359 -0.492188,-0.3984375 -0.164062,-0.084961 -0.313476,-0.1289062 -0.445312,-0.1289062 -0.219727,0 -0.421875,0.064453 -0.609375,0.1875 -0.1875,0.1171875 -0.375,0.3134765 -0.5625,0.5859375 0.257812,0 0.459961,0.09082 0.609375,0.2695312 0.146484,0.1816407 0.222656,0.4101563 0.222657,0.6914063 z m 0,0"
       style="fill:#000000;fill-opacity:1;fill-rule:nonzero;stroke:none"
       aria-label="েশিণবযািপ"
       transform="matrix(1.3333333,0,0,1.3333333,26.208,29.442667)" />
    <path
       id="path4"
       d="M -5.41,44.902 V 61.639"
       style="fill:none;stroke:#000000;stroke-width:0.3985;stroke-linecap:butt;stroke-linejoin:miter;stroke-miterlimit:10;stroke-dasharray:none;stroke-opacity:1"
       transform="matrix(1.3333333,0,0,-1.3333333,96,96.006667)" />
    <path
       id="path5"
       d="m 4.5474531,-1.7001641 c 0,-0.8203125 -0.6210937,-1.59375 -1.6523437,-1.8046875 0.8085937,-0.2695312 1.3945312,-0.9726562 1.3945312,-1.7578125 0,-0.8203125 -0.8789062,-1.3710937 -1.8398437,-1.3710937 -1.0078125,0 -1.75781252,0.5976562 -1.75781252,1.3476562 0,0.3398438 0.2109375,0.5273438 0.50390622,0.5273438 0.3046875,0 0.5039063,-0.2226563 0.5039063,-0.515625 0,-0.4921875 -0.46875,-0.4921875 -0.609375,-0.4921875 0.3046875,-0.4921875 0.9609375,-0.6210938 1.3242187,-0.6210938 0.4101563,0 0.9492188,0.2226563 0.9492188,1.1132813 0,0.1289062 -0.011719,0.703125 -0.2695313,1.1367187 -0.3046875,0.4804688 -0.6445312,0.515625 -0.890625,0.515625 -0.082031,0.011719 -0.3164062,0.035156 -0.3867187,0.035156 -0.082031,0.011719 -0.1523438,0.023437 -0.1523438,0.1171875 0,0.1171875 0.070312,0.1171875 0.234375,0.1171875 h 0.4453125 c 0.8085938,0 1.1835938,0.6679687 1.1835938,1.6523437 0,1.34765629 -0.6914063,1.64062504 -1.125,1.64062504 -0.4335938,0 -1.171875,-0.17578125 -1.52343752,-0.76171875 0.35156252,0.0585938 0.65625002,-0.1640625 0.65625002,-0.53906249 0,-0.3632813 -0.2695313,-0.5625 -0.56250002,-0.5625 -0.234375,0 -0.55078125,0.140625 -0.55078125,0.5742187 0,0.91406254 0.92578127,1.57031254 2.00390627,1.57031254 1.21875,0 2.1210937,-0.9140625 2.1210937,-1.92187474 z M 9.1529219,-9.453125e-4 V -0.30563281 H 8.8365156 c -0.9023437,0 -0.9257812,-0.1171875 -0.9257812,-0.48046875 V -6.3759453 c 0,-0.234375 0,-0.2578125 -0.234375,-0.2578125 -0.609375,0.6328125 -1.4882813,0.6328125 -1.8046875,0.6328125 v 0.3164062 c 0.1992187,0 0.7851562,0 1.3007812,-0.2578125 v 5.15625004 c 0,0.3515625 -0.035156,0.48046875 -0.9257812,0.48046875 H 5.9302656 V -9.453125e-4 C 6.2818281,-0.03610156 7.1372969,-0.03610156 7.5357344,-0.03610156 c 0.3984375,0 1.265625,0 1.6171875,0.0351562475 z M 14.930266,-2.5439141 V -2.7548516 H 9.9615156 v 0.2109375 z m 4.702148,0.9023438 V -1.9579766 H 18.63632 v -4.5234375 c 0,-0.1992187 0,-0.2578125 -0.152343,-0.2578125 -0.09375,0 -0.117188,0 -0.199219,0.1171875 l -3.058594,4.6640625 v 0.3164063 h 2.648438 v 0.86718749 c 0,0.3515625 -0.02344,0.46875 -0.761719,0.46875 h -0.210938 v 0.3046874975 c 0.410157,-0.0351562475 0.9375,-0.0351562475 1.347657,-0.0351562475 0.421875,0 0.949218,0 1.359375,0.0351562475 V -0.30563281 h -0.210938 c -0.738281,0 -0.761719,-0.1171875 -0.761719,-0.46875 V -1.6415703 Z m -1.699219,-0.3164063 h -2.425781 l 2.425781,-3.7148437 z m 6.574219,-1.2304687 c 0,-0.796875 -0.04687,-1.59375 -0.398437,-2.3320313 -0.457032,-0.9609375 -1.277344,-1.1132812 -1.6875,-1.1132812 -0.597657,0 -1.335938,0.2578125 -1.734375,1.1835937 -0.328125,0.6914063 -0.375,1.4648438 -0.375,2.2617188 0,0.75 0.04687,1.640625 0.445312,2.40234374 0.433594,0.80859375 1.160156,1.0078125 1.652344,1.0078125 0.539062,0 1.289062,-0.2109375 1.734375,-1.16015625 0.316406,-0.69140629 0.363281,-1.46484379 0.363281,-2.24999999 z m -0.832031,-0.1171875 c 0,0.75 0,1.4179687 -0.105469,2.0625 -0.152344,0.93749999 -0.714844,1.2421874875 -1.160156,1.2421874875 -0.386719,0 -0.984375,-0.2460937475 -1.160156,-1.2070312875 -0.105469,-0.5976562 -0.105469,-1.5117187 -0.105469,-2.0976562 0,-0.6445313 0,-1.3007813 0.08203,-1.8398438 0.1875,-1.1835937 0.925781,-1.265625 1.183594,-1.265625 0.328125,0 0.984375,0.1757813 1.171875,1.1601563 0.09375,0.5625 0.09375,1.3125 0.09375,1.9453125 z m 0,0"
       style="fill:#000000;fill-opacity:1;fill-rule:nonzero;stroke:none"
       aria-label="31–40"
       transform="matrix(1.3333333,0,0,1.3333333,97.022667,29.442667)" />
    <path
       id="path6"
       d="M 31.851,44.902 V 61.639"
       style="fill:none;stroke:#000000;stroke-width:0.3985;stroke-linecap:butt;stroke-linejoin:miter;stroke-miterlimit:10;stroke-dasharray:none;stroke-opacity:1"
       transform="matrix(1.3333333,0,0,-1.3333333,96,96.006667)" />
    <path
       id="path7"
       d="M 4.6878438,-1.6415703 V -1.9579766 H 3.69175 v -4.5234375 c 0,-0.1992187 0,-0.2578125 -0.1523437,-0.2578125 -0.09375,0 -0.1171875,0 -0.1992188,0.1171875 l -3.05859375,4.6640625 v 0.3164063 H 2.9300313 v 0.86718749 c 0,0.3515625 -0.023437,0.46875 -0.7617188,0.46875 H 1.957375 V -9.453125e-4 C 2.3675313,-0.03610156 2.894875,-0.03610156 3.3050313,-0.03610156 c 0.421875,0 0.9492187,0 1.359375,0.0351562475 V -0.30563281 H 4.4534688 c -0.7382813,0 -0.7617188,-0.1171875 -0.7617188,-0.46875 V -1.6415703 Z M 2.988625,-1.9579766 H 0.56284375 L 2.988625,-5.6728203 Z M 9.1526875,-9.453125e-4 V -0.30563281 H 8.8362813 c -0.9023438,0 -0.9257813,-0.1171875 -0.9257813,-0.48046875 V -6.3759453 c 0,-0.234375 0,-0.2578125 -0.234375,-0.2578125 -0.609375,0.6328125 -1.4882812,0.6328125 -1.8046875,0.6328125 v 0.3164062 c 0.1992188,0 0.7851563,0 1.3007813,-0.2578125 v 5.15625004 c 0,0.3515625 -0.035156,0.48046875 -0.9257813,0.48046875 H 5.9300313 V -9.453125e-4 C 6.2815938,-0.03610156 7.1370625,-0.03610156 7.5355,-0.03610156 c 0.3984375,0 1.265625,0 1.6171875,0.0351562475 z M 14.930031,-2.5439141 V -2.7548516 H 9.9612813 v 0.2109375 z m 4.491211,0.5390625 c 0,-1.1835937 -0.820312,-2.1796875 -1.898437,-2.1796875 -0.480469,0 -0.902344,0.1640625 -1.265625,0.5039063 v -1.9335938 c 0.199218,0.058594 0.527343,0.1289063 0.84375,0.1289063 1.230468,0 1.933593,-0.9140625 1.933593,-1.0429688 0,-0.058594 -0.03516,-0.1054687 -0.105468,-0.1054687 0,0 -0.03516,0 -0.08203,0.023437 -0.199218,0.09375 -0.679687,0.2929687 -1.347656,0.2929687 -0.398437,0 -0.855469,-0.070312 -1.324219,-0.28125 -0.08203,-0.023437 -0.128906,-0.023437 -0.128906,-0.023437 -0.09375,0 -0.09375,0.082031 -0.09375,0.234375 v 2.953125 c 0,0.1757813 0,0.2578125 0.140625,0.2578125 0.07031,0 0.08203,-0.035156 0.128906,-0.09375 0.105469,-0.1523437 0.480469,-0.6914062 1.277344,-0.6914062 0.527344,0 0.773438,0.4570312 0.855469,0.6328125 0.152344,0.375 0.175781,0.7617187 0.175781,1.2539062 0,0.3515625 0,0.9492188 -0.234375,1.37109379 -0.246094,0.38671875 -0.609375,0.64453125 -1.066406,0.64453125 -0.726563,0 -1.300781,-0.52734375 -1.464844,-1.11328124 0.02344,0.011719 0.05859,0.011719 0.164063,0.011719 0.328125,0 0.503906,-0.2460937 0.503906,-0.4804687 0,-0.2460938 -0.175781,-0.4921875 -0.503906,-0.4921875 -0.140625,0 -0.480469,0.070312 -0.480469,0.5273437 0,0.85546879 0.679687,1.82812504 1.792969,1.82812504 1.160156,0 2.179687,-0.9609375 2.179687,-2.22656254 z m 5.085938,-1.1835937 c 0,-0.796875 -0.04687,-1.59375 -0.398438,-2.3320313 -0.457031,-0.9609375 -1.277344,-1.1132812 -1.6875,-1.1132812 -0.597656,0 -1.335937,0.2578125 -1.734375,1.1835937 -0.328125,0.6914063 -0.375,1.4648438 -0.375,2.2617188 0,0.75 0.04687,1.640625 0.445313,2.40234374 0.433593,0.80859375 1.160156,1.0078125 1.652343,1.0078125 0.539063,0 1.289063,-0.2109375 1.734375,-1.16015625 0.316407,-0.69140629 0.363282,-1.46484379 0.363282,-2.24999999 z m -0.832032,-0.1171875 c 0,0.75 0,1.4179687 -0.105468,2.0625 -0.152344,0.93749999 -0.714844,1.2421874875 -1.160157,1.2421874875 -0.386718,0 -0.984375,-0.2460937475 -1.160156,-1.2070312875 -0.105469,-0.5976562 -0.105469,-1.5117187 -0.105469,-2.0976562 0,-0.6445313 0,-1.3007813 0.08203,-1.8398438 0.1875,-1.1835937 0.925781,-1.265625 1.183593,-1.265625 0.328125,0 0.984375,0.1757813 1.171875,1.1601563 0.09375,0.5625 0.09375,1.3125 0.09375,1.9453125 z m 0,0"
       style="fill:#000000;fill-opacity:1;fill-rule:nonzero;stroke:none"
       aria-label="41–50"
       transform="matrix(1.3333333,0,0,1.3333333,146.70267,29.442667)" />
    <path
       id="path8"
       d="M 69.111,44.902 V 61.639"
       style="fill:none;stroke:#000000;stroke-width:0.3985;stroke-linecap:butt;stroke-linejoin:miter;stroke-miterlimit:10;stroke-dasharray:none;stroke-opacity:1"
       transform="matrix(1.3333333,0,0,-1.3333333,96,96.006667)" />
    <path
       id="path9"
       d="m 4.4756719,-2.0048516 c 0,-1.1835937 -0.8203125,-2.1796875 -1.8984375,-2.1796875 -0.4804688,0 -0.9023438,0.1640625 -1.265625,0.5039063 v -1.9335938 c 0.1992187,0.058594 0.5273437,0.1289063 0.84375,0.1289063 1.2304687,0 1.9335937,-0.9140625 1.9335937,-1.0429688 0,-0.058594 -0.035156,-0.1054687 -0.1054687,-0.1054687 0,0 -0.035156,0 -0.082031,0.023437 -0.1992187,0.09375 -0.6796875,0.2929687 -1.3476562,0.2929687 -0.3984375,0 -0.8554688,-0.070312 -1.3242188,-0.28125 -0.082031,-0.023437 -0.1289062,-0.023437 -0.1289062,-0.023437 -0.09375,0 -0.09375,0.082031 -0.09375,0.234375 v 2.953125 c 0,0.1757813 0,0.2578125 0.140625,0.2578125 0.070312,0 0.082031,-0.035156 0.1289062,-0.09375 0.1054688,-0.1523437 0.4804688,-0.6914062 1.2773438,-0.6914062 0.5273437,0 0.7734375,0.4570312 0.8554687,0.6328125 0.1523438,0.375 0.1757813,0.7617187 0.1757813,1.2539062 0,0.3515625 0,0.9492188 -0.234375,1.37109379 -0.2460938,0.38671875 -0.609375,0.64453125 -1.0664063,0.64453125 -0.7265625,0 -1.30078122,-0.52734375 -1.46484372,-1.11328124 0.0234375,0.011719 0.0585938,0.011719 0.1640625,0.011719 0.32812502,0 0.50390622,-0.2460937 0.50390622,-0.4804687 0,-0.2460938 -0.1757812,-0.4921875 -0.50390622,-0.4921875 -0.140625,0 -0.48046875,0.070312 -0.48046875,0.5273437 0,0.85546879 0.67968747,1.82812504 1.79296877,1.82812504 1.1601562,0 2.1796875,-0.9609375 2.1796872,-2.22656284 z M 9.1543828,-9.453125e-4 V -0.30563281 H 8.8379766 c -0.9023438,0 -0.9257813,-0.1171875 -0.9257813,-0.48046875 V -6.3759453 c 0,-0.234375 0,-0.2578125 -0.234375,-0.2578125 -0.609375,0.6328125 -1.4882812,0.6328125 -1.8046875,0.6328125 v 0.3164062 c 0.1992188,0 0.7851563,0 1.3007813,-0.2578125 v 5.15625004 c 0,0.3515625 -0.035156,0.48046875 -0.9257813,0.48046875 H 5.9317266 V -9.453125e-4 C 6.2832891,-0.03610156 7.1387578,-0.03610156 7.5371953,-0.03610156 c 0.3984375,0 1.265625,0 1.6171875,0.0351562475 z M 14.931727,-2.5439141 V -2.7548516 H 9.9629766 v 0.2109375 z m 4.558593,0.515625 c 0,-1.265625 -0.878906,-2.2265625 -1.992187,-2.2265625 -0.667969,0 -1.042969,0.5039063 -1.242188,0.984375 v -0.234375 c 0,-2.5195312 1.242188,-2.8828125 1.746094,-2.8828125 0.234375,0 0.65625,0.058594 0.878906,0.3984375 -0.152343,0 -0.550781,0 -0.550781,0.4453125 0,0.3164063 0.234375,0.4570313 0.457031,0.4570313 0.164063,0 0.457032,-0.082031 0.457032,-0.46875 0,-0.5976563 -0.433594,-1.078125 -1.265625,-1.078125 -1.277344,0 -2.613282,1.2890625 -2.613282,3.4804687 0,2.66015629 1.148438,3.37500004 2.074219,3.37500004 1.113281,0 2.050781,-0.9375 2.050781,-2.25000004 z m -0.890625,-0.011719 c 0,0.4804687 0,0.9726562 -0.164062,1.33593749 -0.304688,0.59765625 -0.761719,0.64453125 -0.996094,0.64453125 -0.621094,0 -0.925781,-0.59765625 -0.984375,-0.75 -0.175781,-0.46875004 -0.175781,-1.26562504 -0.175781,-1.44140624 0,-0.7734375 0.316406,-1.7695313 1.21875,-1.7695313 0.152344,0 0.609375,0 0.925781,0.609375 0.175781,0.375 0.175781,0.8789063 0.175781,1.3710938 z m 5.90625,-1.1484375 c 0,-0.796875 -0.04687,-1.59375 -0.398437,-2.3320313 -0.457031,-0.9609375 -1.277344,-1.1132812 -1.6875,-1.1132812 -0.597656,0 -1.335938,0.2578125 -1.734375,1.1835937 -0.328125,0.6914063 -0.375,1.4648438 -0.375,2.2617188 0,0.75 0.04687,1.640625 0.445312,2.40234374 0.433594,0.80859375 1.160157,1.0078125 1.652344,1.0078125 0.539063,0 1.289063,-0.2109375 1.734375,-1.16015625 0.316406,-0.69140629 0.363281,-1.46484379 0.363281,-2.24999999 z m -0.832031,-0.1171875 c 0,0.75 0,1.4179687 -0.105469,2.0625 -0.152343,0.93749999 -0.714843,1.2421874875 -1.160156,1.2421874875 -0.386719,0 -0.984375,-0.2460937475 -1.160156,-1.2070312875 -0.105469,-0.5976562 -0.105469,-1.5117187 -0.105469,-2.0976562 0,-0.6445313 0,-1.3007813 0.08203,-1.8398438 0.1875,-1.1835937 0.925782,-1.265625 1.183594,-1.265625 0.328125,0 0.984375,0.1757813 1.171875,1.1601563 0.09375,0.5625 0.09375,1.3125 0.09375,1.9453125 z m 0,0"
       style="fill:#000000;fill-opacity:1;fill-rule:nonzero;stroke:none"
       aria-label="51–60"
       transform="matrix(1.3333333,0,0,1.3333333,196.384,29.442667)" />
    <path
       id="path10"
       d="M 106.371,44.902 V 61.639"
       style="fill:none;stroke:#000000;stroke-width:0.3985;stroke-linecap:butt;stroke-linejoin:miter;stroke-miterlimit:10;stroke-dasharray:none;stroke-opacity:1"
       transform="matrix(1.3333333,0,0,-1.3333333,96,96.006667)" />
    <path
       id="path11"
       d="m 4.54575,-2.0282891 c 0,-1.265625 -0.8789063,-2.2265625 -1.9921875,-2.2265625 -0.6679688,0 -1.0429688,0.5039063 -1.2421875,0.984375 v -0.234375 c 0,-2.5195312 1.2421875,-2.8828125 1.7460937,-2.8828125 0.234375,0 0.65625,0.058594 0.8789063,0.3984375 -0.1523438,0 -0.5507813,0 -0.5507813,0.4453125 0,0.3164063 0.234375,0.4570313 0.4570313,0.4570313 0.1640625,0 0.4570312,-0.082031 0.4570312,-0.46875 0,-0.5976563 -0.4335937,-1.078125 -1.265625,-1.078125 -1.2773437,0 -2.6132812,1.2890625 -2.6132812,3.4804687 0,2.66015629 1.1484375,3.37500004 2.0742187,3.37500004 1.1132813,0 2.0507813,-0.9375 2.0507813,-2.25000004 z m -0.890625,-0.011719 c 0,0.4804687 0,0.9726562 -0.1640625,1.33593749 -0.3046875,0.59765625 -0.7617188,0.64453125 -0.9960938,0.64453125 -0.6210937,0 -0.9257812,-0.59765625 -0.984375,-0.75 C 1.3348125,-1.2782891 1.3348125,-2.0751641 1.3348125,-2.2509453 c 0,-0.7734375 0.3164062,-1.7695313 1.21875,-1.7695313 0.1523437,0 0.609375,0 0.9257812,0.609375 0.1757813,0.375 0.1757813,0.8789063 0.1757813,1.3710935 z M 9.1541484,-9.453125e-4 V -0.30563281 H 8.8377422 c -0.9023438,0 -0.9257813,-0.1171875 -0.9257813,-0.48046875 V -6.3759453 c 0,-0.234375 0,-0.2578125 -0.234375,-0.2578125 -0.609375,0.6328125 -1.4882812,0.6328125 -1.8046875,0.6328125 v 0.3164062 c 0.1992188,0 0.7851563,0 1.3007813,-0.2578125 v 5.15625004 c 0,0.3515625 -0.035156,0.48046875 -0.9257813,0.48046875 H 5.9314922 V -9.453125e-4 C 6.2830547,-0.03610156 7.1385234,-0.03610156 7.5369609,-0.03610156 c 0.3984375,0 1.265625,0 1.6171875,0.0351562475 z M 14.931492,-2.5439141 V -2.7548516 H 9.9627422 v 0.2109375 z m 4.839844,-3.8671875 h -2.414063 c -1.21875,0 -1.242187,-0.1289062 -1.277343,-0.328125 h -0.246094 l -0.328125,2.0507813 h 0.246094 c 0.02344,-0.1523438 0.117187,-0.7851563 0.246093,-0.9023438 0.07031,-0.058594 0.84375,-0.058594 0.972657,-0.058594 h 2.0625 l -1.113282,1.5703125 c -0.890625,1.3476562 -1.21875,2.7304687 -1.21875,3.74999999 0,0.09375 0,0.55078125 0.457032,0.55078125 0.457031,0 0.457031,-0.45703125 0.457031,-0.55078125 v -0.50390625 c 0,-0.55078124 0.02344,-1.10156254 0.105469,-1.64062504 0.04687,-0.2226562 0.175781,-1.078125 0.621093,-1.6992187 l 1.347657,-1.8984375 c 0.08203,-0.1171875 0.08203,-0.140625 0.08203,-0.3398438 z m 4.737305,3.2226563 c 0,-0.796875 -0.04687,-1.59375 -0.398438,-2.3320313 -0.457031,-0.9609375 -1.277344,-1.1132812 -1.6875,-1.1132812 -0.597656,0 -1.335937,0.2578125 -1.734375,1.1835937 -0.328125,0.6914063 -0.375,1.4648438 -0.375,2.2617188 0,0.75 0.04687,1.640625 0.445313,2.40234374 0.433593,0.80859375 1.160156,1.0078125 1.652343,1.0078125 0.539063,0 1.289063,-0.2109375 1.734375,-1.16015625 0.316407,-0.69140629 0.363282,-1.46484379 0.363282,-2.24999999 z m -0.832032,-0.1171875 c 0,0.75 0,1.4179687 -0.105468,2.0625 -0.152344,0.93749999 -0.714844,1.2421874875 -1.160157,1.2421874875 -0.386718,0 -0.984375,-0.2460937475 -1.160156,-1.2070312875 -0.105469,-0.5976562 -0.105469,-1.5117187 -0.105469,-2.0976562 0,-0.6445313 0,-1.3007813 0.08203,-1.8398438 0.1875,-1.1835937 0.925781,-1.265625 1.183593,-1.265625 0.328125,0 0.984375,0.1757813 1.171875,1.1601563 0.09375,0.5625 0.09375,1.3125 0.09375,1.9453125 z m 0,0"
       style="fill:#000000;fill-opacity:1;fill-rule:nonzero;stroke:none"
       aria-label="61–70"
       transform="matrix(1.3333333,0,0,1.3333333,246.064,29.442667)" />
    <path
       id="path12"
       d="M 143.631,44.902 V 61.639"
       style="fill:none;stroke:#000000;stroke-width:0.3985;stroke-linecap:butt;stroke-linejoin:miter;stroke-miterlimit:10;stroke-dasharray:none;stroke-opacity:1"
       transform="matrix(1.3333333,0,0,-1.3333333,96,96.006667)" />
    <path
       id="path13"
       d="M -58.72,44.702 H 143.831"
       style="fill:none;stroke:#000000;stroke-width:0.3985;stroke-linecap:butt;stroke-linejoin:miter;stroke-miterlimit:10;stroke-dasharray:none;stroke-opacity:1"
       transform="matrix(1.3333333,0,0,-1.3333333,96,96.006667)" />
    <path
       id="path14"
       d="M -58.521,27.766 V 44.503"
       style="fill:none;stroke:#000000;stroke-width:0.3985;stroke-linecap:butt;stroke-linejoin:miter;stroke-miterlimit:10;stroke-dasharray:none;stroke-opacity:1"
       transform="matrix(1.3333333,0,0,-1.3333333,96,96.006667)" />
    <path
       id="path15"
       d="M 5.0989062,0.24489062 4.595,-0.03635938 V -3.8683906 C 4.3430469,-4.296125 4.1057422,-4.6301094 3.8801562,-4.8644844 3.6516406,-5.0988594 3.4289844,-5.2570625 3.2121875,-5.3449531 2.9924609,-5.4387031 2.766875,-5.4855781 2.5325,-5.4855781 c -0.1728516,0 -0.3574219,0.043945 -0.5507813,0.1289062 -0.1875,0.087891 -0.3720703,0.28125 -0.5507812,0.5859375 0.084961,-0.029297 0.1816406,-0.058594 0.2929687,-0.082031 0.1171875,-0.023437 0.2402344,-0.035156 0.375,-0.035156 0.366211,0 0.6503907,0.1230469 0.8554688,0.3632813 0.2109375,0.234375 0.3164062,0.5214843 0.3164062,0.8554687 0,0.3837891 -0.1113281,0.7265625 -0.328125,1.03125 -0.2109375,0.3046875 -0.571289,0.6152344 -1.078125,0.9257813 L 1.266875,-2.6262031 c 0.4277344,-0.1640625 0.7675781,-0.3427735 1.0195312,-0.5390625 0.2578125,-0.2021485 0.3867188,-0.421875 0.3867188,-0.65625 0,-0.1552735 -0.052734,-0.2841797 -0.1523438,-0.3867188 -0.09375,-0.099609 -0.243164,-0.1523437 -0.4453125,-0.1523437 -0.2109375,0 -0.4189453,0.041016 -0.6210937,0.1171875 -0.2050781,0.079101 -0.4160156,0.2050781 -0.6328125,0.375 L 0.15359375,-4.5363594 C 0.48757812,-5.1750313 0.85085937,-5.6262031 1.2434375,-5.8840156 1.6330859,-6.1418281 2.016875,-6.2707344 2.391875,-6.2707344 c 0.4130859,0 0.7998047,0.1347656 1.1601562,0.3984375 0.366211,0.2666016 0.7294922,0.703125 1.0898438,1.3125 C 4.6242969,-4.7062813 4.6125781,-4.8762031 4.6067187,-5.0637031 4.5979297,-5.2570625 4.595,-5.4299141 4.595,-5.5793281 v -1.359375 l 0.035156,-0.011719 0.4570313,0.328125 0.046875,0.421875 h 0.7382812 l 0.3398438,0.515625 h -1.078125 v 5.91796877 z m 5.6103518,0 -0.503906,-0.28125 V -3.5285469 C 9.9153125,-4.0119453 9.6545703,-4.3840156 9.4201953,-4.6418281 9.1916797,-4.8996406 8.9690234,-5.0783516 8.7522266,-5.1808906 8.5325,-5.2805 8.2893359,-5.3332344 8.0256641,-5.3332344 c -0.3222657,0 -0.5947266,0.09082 -0.8203125,0.2695313 -0.2285157,0.1728515 -0.3398438,0.4277343 -0.3398438,0.7617187 0,0.4160156 0.1435547,0.6738281 0.4335938,0.7734375 -0.00879,-0.038086 -0.011719,-0.076172 -0.011719,-0.1171875 0,-0.2109375 0.064453,-0.3808594 0.1992188,-0.515625 0.140625,-0.1318359 0.3164062,-0.1992187 0.5273437,-0.1992187 0.2402344,0 0.4335938,0.076172 0.5742188,0.2226562 0.140625,0.140625 0.2109375,0.328125 0.2109375,0.5625 0,0.2431641 -0.082031,0.4423828 -0.2460938,0.5976563 -0.1582031,0.149414 -0.3808594,0.2226562 -0.6679687,0.2226562 -0.28125,0 -0.5390625,-0.064453 -0.7734375,-0.1992187 -0.234375,-0.131836 -0.4277344,-0.3310547 -0.5742188,-0.5976563 -0.140625,-0.2636719 -0.2109375,-0.5888672 -0.2109375,-0.9726562 0,-0.3339844 0.064453,-0.6328125 0.1992188,-0.890625 0.1318359,-0.2636719 0.3164062,-0.46875 0.5507812,-0.609375 0.234375,-0.1464844 0.5039063,-0.2226563 0.8085938,-0.2226563 0.2724609,0 0.5302734,0.064453 0.7734375,0.1875 0.2402343,0.1171875 0.4863281,0.3251953 0.7382812,0.6210938 0.2490234,0.290039 0.5302734,0.703125 0.8437504,1.2421875 -0.0088,-0.1640625 -0.01758,-0.3515625 -0.02344,-0.5625 -0.0088,-0.2167969 -0.01172,-0.4248047 -0.01172,-0.6210938 v -1.5585937 l 0.03516,-0.011719 0.457031,0.328125 0.04687,0.421875 h 0.726563 l 0.351562,0.515625 h -1.078125 v 5.91796877 z m 6.041015,0 -0.503906,-0.28125 V -3.0363594 c -0.149414,-0.234375 -0.28125,-0.3925781 -0.398437,-0.4804687 -0.111328,-0.09375 -0.208008,-0.140625 -0.292969,-0.140625 -0.0791,0 -0.158203,0.029297 -0.234375,0.082031 -0.07031,0.046875 -0.152344,0.1494141 -0.246094,0.3046875 -0.08789,0.1494141 -0.196289,0.375 -0.328125,0.6796875 -0.210937,0.4863281 -0.416015,0.8320313 -0.609375,1.0429688 -0.1875,0.2050781 -0.427734,0.3046875 -0.714844,0.3046875 -0.251953,0 -0.489257,-0.099609 -0.714843,-0.3046875 -0.228516,-0.2021485 -0.451172,-0.5625 -0.667969,-1.078125 l 0.351562,-0.1757813 c 0.164063,0.3046875 0.307618,0.5009766 0.433594,0.5859375 0.123047,0.079102 0.249024,0.1171875 0.375,0.1171875 0.169922,0 0.331055,-0.082031 0.480469,-0.2460937 0.146484,-0.1640625 0.307617,-0.4482422 0.480469,-0.8554688 -0.03223,-0.6328125 -0.196289,-1.0927734 -0.492188,-1.3828125 -0.290039,-0.2871094 -0.676758,-0.4335937 -1.160156,-0.4335937 -0.09375,0 -0.18457,0.00586 -0.269531,0.011719 -0.0791,0 -0.149414,0.00879 -0.210938,0.023437 l -0.785156,-1.21875 h 6.28125 l 0.351562,0.515625 H 16.78543 V 0.23317187 Z M 15.261992,-4.5129219 c 0.19336,0 0.375,0.082031 0.539063,0.2460938 0.169922,0.1640625 0.333984,0.3955078 0.492187,0.6914062 -0.01758,-0.1787109 -0.0293,-0.3896484 -0.03516,-0.6328125 -0.0088,-0.2490234 -0.01172,-0.4453125 -0.01172,-0.5859375 v -0.890625 H 13.03543 c 0.389648,0.1347656 0.714843,0.3457031 0.972656,0.6328125 0.257812,0.2900391 0.404297,0.6796875 0.445312,1.171875 0.09961,-0.1933594 0.199219,-0.3339844 0.292969,-0.421875 0.09961,-0.09375 0.19336,-0.1523437 0.28125,-0.1757812 0.08496,-0.023437 0.164063,-0.035156 0.234375,-0.035156 z m 4.174805,0.8789063 c -0.383789,0 -0.685547,-0.1230469 -0.902344,-0.375 -0.210937,-0.2578125 -0.316406,-0.553711 -0.316406,-0.890625 0,-0.3808594 0.120117,-0.694336 0.363281,-0.9375 0.240234,-0.2490235 0.556641,-0.375 0.949219,-0.375 0.380859,0 0.682617,0.1230468 0.902344,0.3632812 0.225586,0.2431641 0.339843,0.5449219 0.339843,0.9023438 0,0.383789 -0.125976,0.7001953 -0.375,0.9492187 -0.251953,0.2431641 -0.571289,0.3632813 -0.960937,0.3632813 z m -0.292969,-0.4921875 c 0.178711,0 0.354492,-0.058594 0.527344,-0.1757813 0.178711,-0.1230469 0.322265,-0.2753906 0.433594,-0.4570312 0.108398,-0.1875 0.164062,-0.3632813 0.164062,-0.5273438 0,-0.099609 -0.03516,-0.1904297 -0.105469,-0.2695312 -0.06445,-0.076172 -0.158203,-0.1171875 -0.28125,-0.1171875 -0.196289,0 -0.380859,0.058594 -0.550781,0.1757812 -0.172851,0.1113281 -0.313476,0.2548828 -0.421875,0.4335938 -0.111328,0.1728515 -0.164062,0.3603515 -0.164062,0.5625 0,0.102539 0.03809,0.1933593 0.117187,0.2695312 0.07617,0.070312 0.169922,0.1054688 0.28125,0.1054688 z m 1.78125,4.49999997 c -0.322266,-0.45996093 -0.629883,-0.84960937 -0.925781,-1.171875 -0.290039,-0.32812497 -0.583008,-0.60937497 -0.878906,-0.84374997 -0.290039,-0.2402344 -0.603516,-0.46875 -0.9375,-0.6796875 l 0.632812,-0.8671875 c 0.328125,0.2666015 0.635742,0.5917968 0.925781,0.9726562 0.295899,0.3837891 0.56543,0.7910156 0.808594,1.21875002 0.249024,0.421875 0.462891,0.83496094 0.644531,1.23046875 z m 5.709961,-0.24609375 -0.46875,-0.36328125 C 25.814727,-0.83616406 25.392852,-1.3137031 24.900664,-1.6652656 24.414336,-2.0226875 23.804961,-2.2453438 23.072539,-2.3332344 l -0.398437,-1.0546875 c 0.257812,0 0.515625,-0.023437 0.773437,-0.070312 0.263672,-0.046875 0.506836,-0.1171875 0.726563,-0.2109375 0.225585,-0.099609 0.404296,-0.2285156 0.539062,-0.3867187 0.131836,-0.1640625 0.199219,-0.3544922 0.199219,-0.5742188 0,-0.2255859 -0.05273,-0.421875 -0.152344,-0.5859375 -0.275391,0.3222656 -0.574219,0.5800781 -0.902344,0.7734375 -0.328125,0.1962891 -0.667968,0.2929688 -1.019531,0.2929688 -0.172852,0 -0.339844,-0.035156 -0.503906,-0.1054688 -0.164063,-0.070312 -0.301758,-0.1787109 -0.410156,-0.328125 -0.10254,-0.1552734 -0.152344,-0.3515625 -0.152344,-0.5859375 0,-0.234375 0.05859,-0.4130859 0.175781,-0.5390625 0.117188,-0.1230469 0.28418,-0.1875 0.503906,-0.1875 0.202149,0 0.357422,0.058594 0.46875,0.1757813 0.117188,0.1113281 0.175782,0.2519531 0.175782,0.421875 0,0.140625 -0.02051,0.2519531 -0.05859,0.328125 0.1875,-0.029297 0.413086,-0.1435547 0.679687,-0.3398438 0.272461,-0.2021484 0.553711,-0.5068359 0.84375,-0.9140625 0.140625,0.1259766 0.275391,0.2753906 0.410157,0.4453125 0.131835,0.1640625 0.240234,0.3574219 0.328125,0.5742188 0.09375,0.2109375 0.140625,0.4511718 0.140625,0.7148437 0,0.4541016 -0.111329,0.8144531 -0.328125,1.078125 -0.219727,0.2666016 -0.536133,0.4628906 -0.949219,0.5859375 0.404297,0.1962891 0.773437,0.4423828 1.101562,0.7382813 0.333985,0.2988281 0.632813,0.665039 0.890625,1.10156247 V -6.9387031 l 0.03516,-0.011719 0.457031,0.328125 0.04687,0.421875 h 0.738281 l 0.339844,0.515625 h -1.078125 v 5.80078127 z m 1.68457,0.29296875 -0.257812,-0.33984375 c 0.295898,-0.1875 0.509765,-0.40429687 0.644531,-0.65625 0.131836,-0.24902343 0.199219,-0.51855472 0.199219,-0.80859372 0,-0.2167969 -0.04394,-0.4335938 -0.128906,-0.6445313 -0.0791,-0.2167969 -0.172852,-0.4335937 -0.28125,-0.6445312 -0.111329,-0.2167969 -0.205079,-0.4394532 -0.28125,-0.6679688 -0.0791,-0.2255859 -0.117188,-0.4570312 -0.117188,-0.6914062 0,-0.3574219 0.09375,-0.6738282 0.28125,-0.9492188 0.1875,-0.2724609 0.401367,-0.5068359 0.644531,-0.703125 h -1.488281 l -0.339844,-0.515625 h 3.082032 l 0.339843,0.515625 h -0.972656 c -0.172851,0.140625 -0.345703,0.3398438 -0.515625,0.5976563 -0.164062,0.2578125 -0.246094,0.5566406 -0.246094,0.890625 0,0.234375 0.03809,0.4541015 0.117188,0.65625 0.07617,0.2050781 0.169922,0.4072265 0.28125,0.609375 0.108398,0.196289 0.202148,0.4042968 0.28125,0.6210937 0.07617,0.2197266 0.117187,0.4570313 0.117187,0.7148438 0,0.421875 -0.128906,0.8144531 -0.386718,1.17187497 -0.257813,0.3515625 -0.583008,0.6328125 -0.972657,0.84375 z m 3.307618,-0.17578125 -0.503907,-0.28125 V -4.7004219 c -0.05566,-0.2724609 -0.137695,-0.5039062 -0.246093,-0.6914062 -0.10254,-0.1933594 -0.251954,-0.2929688 -0.445313,-0.2929688 h -0.07031 l -0.328125,-0.515625 h 0.386718 c 0.131836,0 0.263672,0.058594 0.398438,0.1757813 0.140625,0.1113281 0.251953,0.290039 0.339844,0.5390625 -0.0088,-0.140625 -0.01758,-0.272461 -0.02344,-0.3984375 -0.0088,-0.1230469 -0.01172,-0.2138672 -0.01172,-0.2695313 v -0.7851562 l 0.03516,-0.011719 0.503906,0.328125 v 6.85546877 z m 0,0"
       style="fill:#000000;fill-opacity:1;fill-rule:nonzero;stroke:none"
       aria-label="গণসংখযা"
       transform="matrix(1.3333333,0,0,1.3333333,31.873333,52.290667)" />
    <path
       id="path16"
       d="M -5.41,27.766 V 44.503"
       style="fill:none;stroke:#000000;stroke-width:0.3985;stroke-linecap:butt;stroke-linejoin:miter;stroke-miterlimit:10;stroke-dasharray:none;stroke-opacity:1"
       transform="matrix(1.3333333,0,0,-1.3333333,96,96.006667)" />
    <path
       id="path17"
       d="M 4.6889453,-1.6418281 V -1.9582344 H 3.6928516 v -4.5234375 c 0,-0.1992187 0,-0.2578125 -0.1523438,-0.2578125 -0.09375,0 -0.1171875,0 -0.1992187,0.1171875 l -3.05859379,4.6640625 v 0.3164063 H 2.9311328 v 0.86718747 c 0,0.3515625 -0.023437,0.46875 -0.7617187,0.46875 H 1.9584766 v 0.3046875 c 0.4101562,-0.03515625 0.9375,-0.03515625 1.3476562,-0.03515625 0.421875,0 0.9492188,0 1.359375,0.03515625 v -0.3046875 H 4.4545703 c -0.7382812,0 -0.7617187,-0.1171875 -0.7617187,-0.46875 V -1.6418281 Z M 2.9897266,-1.9582344 H 0.56394531 L 2.9897266,-5.6730781 Z m 0,0"
       style="fill:#000000;fill-opacity:1;fill-rule:nonzero;stroke:none"
       aria-label="4"
       transform="matrix(1.3333333,0,0,1.3333333,110.30667,52.290667)" />
    <path
       id="path18"
       d="M 31.851,27.766 V 44.503"
       style="fill:none;stroke:#000000;stroke-width:0.3985;stroke-linecap:butt;stroke-linejoin:miter;stroke-miterlimit:10;stroke-dasharray:none;stroke-opacity:1"
       transform="matrix(1.3333333,0,0,-1.3333333,96,96.006667)" />
    <path
       id="path19"
       d="m 4.1709219,-0.00120313 v -0.3046875 H 3.8545156 c -0.9023437,0 -0.9257812,-0.1171875 -0.9257812,-0.48046875 V -6.3762031 c 0,-0.234375 0,-0.2578125 -0.234375,-0.2578125 -0.609375,0.6328125 -1.4882813,0.6328125 -1.80468752,0.6328125 v 0.3164062 c 0.19921872,0 0.78515622,0 1.30078122,-0.2578125 v 5.15625002 c 0,0.3515625 -0.035156,0.48046875 -0.9257812,0.48046875 H 0.94826563 v 0.3046875 C 1.2998281,-0.03635938 2.1552969,-0.03635938 2.5537344,-0.03635938 c 0.3984375,0 1.265625,0 1.6171875,0.03515625 z M 9.5293203,-1.6769844 c 0,-0.3515625 -0.1054687,-0.8085937 -0.4804687,-1.21875 -0.1875,-0.2109375 -0.3515625,-0.3164062 -0.984375,-0.7148437 0.7148437,-0.3632813 1.2070312,-0.8789063 1.2070312,-1.5351563 0,-0.9257812 -0.890625,-1.4882812 -1.7929687,-1.4882812 -0.9960938,0 -1.8046875,0.7382812 -1.8046875,1.6640625 0,0.1757812 0.011719,0.6210937 0.4335937,1.0898437 0.1054688,0.1289063 0.4804688,0.375 0.7265625,0.5390625 -0.5742187,0.2929688 -1.4296875,0.84375 -1.4296875,1.8398438 0,1.05468747 1.0078125,1.72265622 2.0625,1.72265622 1.125,0 2.0625,-0.83203125 2.0625,-1.89843752 z m -0.703125,-3.46875 c 0,0.5625 -0.3867187,1.0429688 -0.984375,1.3945313 l -1.2304687,-0.796875 c -0.46875,-0.3046875 -0.5039063,-0.6445313 -0.5039063,-0.8085938 0,-0.609375 0.6445313,-1.03125 1.359375,-1.03125 0.7265625,0 1.359375,0.515625 1.359375,1.2421875 z m 0.2109375,3.8320313 c 0,0.73828122 -0.75,1.25390622 -1.5585937,1.25390622 -0.8671875,0 -1.5820313,-0.62109375 -1.5820313,-1.44140622 0,-0.5859375 0.3164063,-1.21875 1.171875,-1.6875 l 1.21875,0.7734375 c 0.28125,0.1875 0.75,0.4921875 0.75,1.1015625 z m 0,0"
       style="fill:#000000;fill-opacity:1;fill-rule:nonzero;stroke:none"
       aria-label="18"
       transform="matrix(1.3333333,0,0,1.3333333,156.66533,52.290667)" />
    <path
       id="path20"
       d="M 69.111,27.766 V 44.503"
       style="fill:none;stroke:#000000;stroke-width:0.3985;stroke-linecap:butt;stroke-linejoin:miter;stroke-miterlimit:10;stroke-dasharray:none;stroke-opacity:1"
       transform="matrix(1.3333333,0,0,-1.3333333,96,96.006667)" />
    <path
       id="path21"
       d="M 4.4773047,-1.7355781 H 4.2194922 c -0.046875,0.3046875 -0.1171875,0.73828122 -0.2109375,0.89062497 -0.070313,0.0820313 -0.7265625,0.0820313 -0.9492188,0.0820313 H 1.2663672 L 2.3210547,-1.7941719 c 1.5585937,-1.3710937 2.15625,-1.9101562 2.15625,-2.90625 0,-1.1367187 -0.9023438,-1.9335937 -2.1210938,-1.9335937 -1.125,0 -1.85156246,0.9140625 -1.85156246,1.8046875 0,0.5507812 0.4921875,0.5507812 0.52734376,0.5507812 0.1640625,0 0.515625,-0.1171875 0.515625,-0.5273437 0,-0.2578125 -0.1875,-0.515625 -0.5273438,-0.515625 -0.0820312,0 -0.10546871,0 -0.12890621,0.011719 0.22265621,-0.6445312 0.76171871,-1.0195312 1.33593751,-1.0195312 0.9140625,0 1.3359375,0.8085937 1.3359375,1.6289062 0,0.796875 -0.4921875,1.5820313 -1.0429688,2.203125 L 0.61011719,-0.36448438 C 0.50464844,-0.25901563 0.50464844,-0.23557813 0.50464844,-0.00120313 H 4.1960547 Z m 4.9804687,0 H 9.1999609 c -0.046875,0.3046875 -0.1171875,0.73828122 -0.2109375,0.89062497 -0.070312,0.0820313 -0.7265625,0.0820313 -0.9492187,0.0820313 H 6.2468359 L 7.3015234,-1.7941719 c 1.5585938,-1.3710937 2.15625,-1.9101562 2.15625,-2.90625 0,-1.1367187 -0.9023437,-1.9335937 -2.1210937,-1.9335937 -1.125,0 -1.8515625,0.9140625 -1.8515625,1.8046875 0,0.5507812 0.4921875,0.5507812 0.5273437,0.5507812 0.1640625,0 0.515625,-0.1171875 0.515625,-0.5273437 0,-0.2578125 -0.1875,-0.515625 -0.5273437,-0.515625 -0.082031,0 -0.1054688,0 -0.1289063,0.011719 0.2226563,-0.6445312 0.7617188,-1.0195312 1.3359375,-1.0195312 0.9140625,0 1.3359375,0.8085937 1.3359375,1.6289062 0,0.796875 -0.4921875,1.5820313 -1.0429687,2.203125 l -1.9101563,2.13281252 c -0.1054687,0.10546875 -0.1054687,0.12890625 -0.1054687,0.36328125 h 3.6914062 z m 0,0"
       style="fill:#000000;fill-opacity:1;fill-rule:nonzero;stroke:none"
       aria-label="22"
       transform="matrix(1.3333333,0,0,1.3333333,206.34667,52.290667)" />
    <path
       id="path22"
       d="M 106.371,27.766 V 44.503"
       style="fill:none;stroke:#000000;stroke-width:0.3985;stroke-linecap:butt;stroke-linejoin:miter;stroke-miterlimit:10;stroke-dasharray:none;stroke-opacity:1"
       transform="matrix(1.3333333,0,0,-1.3333333,96,96.006667)" />
    <path
       id="path23"
       d="m 4.1723828,-0.00120313 v -0.3046875 H 3.8559766 c -0.9023438,0 -0.9257813,-0.1171875 -0.9257813,-0.48046875 V -6.3762031 c 0,-0.234375 0,-0.2578125 -0.234375,-0.2578125 -0.609375,0.6328125 -1.4882812,0.6328125 -1.80468749,0.6328125 v 0.3164062 c 0.19921879,0 0.78515629,0 1.30078129,-0.2578125 v 5.15625002 c 0,0.3515625 -0.035156,0.48046875 -0.9257813,0.48046875 H 0.94972656 v 0.3046875 C 1.3012891,-0.03635938 2.1567578,-0.03635938 2.5551953,-0.03635938 c 0.3984375,0 1.265625,0 1.6171875,0.03515625 z M 9.5278516,-1.6769844 c 0,-0.3515625 -0.1054688,-0.8085937 -0.4804688,-1.21875 -0.1875,-0.2109375 -0.3515625,-0.3164062 -0.984375,-0.7148437 0.7148438,-0.3632813 1.2070313,-0.8789063 1.2070313,-1.5351563 0,-0.9257812 -0.890625,-1.4882812 -1.7929688,-1.4882812 -0.9960937,0 -1.8046875,0.7382812 -1.8046875,1.6640625 0,0.1757812 0.011719,0.6210937 0.4335938,1.0898437 0.1054687,0.1289063 0.4804687,0.375 0.7265625,0.5390625 -0.5742188,0.2929688 -1.4296875,0.84375 -1.4296875,1.8398438 0,1.05468747 1.0078125,1.72265622 2.0625,1.72265622 1.125,0 2.0625,-0.83203125 2.0625,-1.89843752 z m -0.703125,-3.46875 c 0,0.5625 -0.3867188,1.0429688 -0.984375,1.3945313 l -1.2304688,-0.796875 c -0.46875,-0.3046875 -0.5039062,-0.6445313 -0.5039062,-0.8085938 0,-0.609375 0.6445312,-1.03125 1.359375,-1.03125 0.7265625,0 1.359375,0.515625 1.359375,1.2421875 z m 0.2109375,3.8320313 c 0,0.73828122 -0.75,1.25390622 -1.5585938,1.25390622 -0.8671875,0 -1.5820312,-0.62109375 -1.5820312,-1.44140622 0,-0.5859375 0.3164062,-1.21875 1.171875,-1.6875 l 1.21875,0.7734375 c 0.28125,0.1875 0.75,0.4921875 0.75,1.1015625 z m 0,0"
       style="fill:#000000;fill-opacity:1;fill-rule:nonzero;stroke:none"
       aria-label="18"
       transform="matrix(1.3333333,0,0,1.3333333,256.02667,52.290667)" />
    <path
       id="path24"
       d="M 143.631,27.766 V 44.503"
       style="fill:none;stroke:#000000;stroke-width:0.3985;stroke-linecap:butt;stroke-linejoin:miter;stroke-miterlimit:10;stroke-dasharray:none;stroke-opacity:1"
       transform="matrix(1.3333333,0,0,-1.3333333,96,96.006667)" />
    <path
       id="path25"
       d="M -58.72,27.567 H 143.831"
       style="fill:none;stroke:#000000;stroke-width:0.3985;stroke-linecap:butt;stroke-linejoin:miter;stroke-miterlimit:10;stroke-dasharray:none;stroke-opacity:1"
       transform="matrix(1.3333333,0,0,-1.3333333,96,96.006667)" />
  </g>
</svg>
