<svg xmlns="http://www.w3.org/2000/svg" width="99.42976pt" height="101.32114pt" viewBox="-72 -72 99.42976 101.32114" style="position: absolute; top: 0pt; left: 0pt; overflow: visible;">
<g transform="translate(-29.190887451171868,-21.609436035156246)">
<g stroke-miterlimit="10" transform="scale(1,-1)"><g stroke="#000" fill="#000">
 <g stroke-width="0.4">
 <g stroke-width="0.8">
 <path d=" M 0.0 0.0 M 42.67912 0.0 C 42.67912 23.57132 23.57132 42.67912 0.0 42.67912 C -23.57132 42.67912 -42.67912 23.57132 -42.67912 0.0 C -42.67912 -23.57132 -23.57132 -42.67912 0.0 -42.67912 C 23.57132 -42.67912 42.67912 -23.57132 42.67912 0.0 Z M 0.0 0.0  " fill="none"/>
 </g>
 <g stroke-width="0.8">
 <path d=" M -21.33955 -36.9613 L 21.33955 36.9613  " fill="none"/>
 </g>
 <g stroke-width="0.8">
 <path d=" M 0.0 0.0 L 42.67912 0.0  " fill="none"/>
 </g>
 <g stroke-width="0.4">
 <path d=" M 14.22636 0.0 C 14.22636 5.08199 11.51419 9.77954 7.11317 12.32042  " fill="none"/>
 </g>
 <g transform="translate(12.41371,7.93799)">
 <g stroke="none" transform="scale(-1.00375,1.00375)translate(-25.857559204101555,-21.609436035156246)scale(-1,-1)"><g fill="#000">
 <g stroke="none"> <text alignment-baseline="baseline" y="-21.609436035156246" x="-25.857559204101555" style="font-family: cmr10;" font-size="10">60</text>
<text alignment-baseline="baseline" y="-25.238357543945305" x="-15.857521057128903" style="font-family: cmsy7;" font-size="7">◦</text>
</g> </g>
 </g></g>
 <g transform="translate(-11.31078,-3.41666)">
 <g stroke="none" transform="scale(-1.00375,1.00375)translate(-25.857559204101555,-21.609436035156246)scale(-1,-1)"><g fill="#000">
 <g stroke="none"> <text alignment-baseline="baseline" y="-21.609436035156246" x="-25.857559204101555" style="font-family: cmr10;" font-size="10">O</text>
</g> </g>
 </g></g>
 <g transform="translate(24.87253,40.49428)">
 <g stroke="none" transform="scale(-1.00375,1.00375)translate(-25.857559204101555,-21.609436035156246)scale(-1,-1)"><g fill="#000">
 <g stroke="none"> <text alignment-baseline="baseline" y="-21.609436035156246" x="-25.857559204101555" style="font-family: cmr10;" font-size="10">N</text>
</g> </g>
 </g></g>
 <g transform="translate(46.2121,-3.41666)">
 <g stroke="none" transform="scale(-1.00375,1.00375)translate(-25.857559204101555,-21.609436035156246)scale(-1,-1)"><g fill="#000">
 <g stroke="none"> <text alignment-baseline="baseline" y="-21.609436035156246" x="-25.857559204101555" style="font-family: cmr10;" font-size="10">P</text>
</g> </g>
 </g></g>
 <g transform="translate(-34.03922,-47.32759)">
 <g stroke="none" transform="scale(-1.00375,1.00375)translate(-25.857559204101555,-21.609436035156246)scale(-1,-1)"><g fill="#000">
 <g stroke="none"> <text alignment-baseline="baseline" y="-21.609436035156246" x="-25.857559204101555" style="font-family: cmr10;" font-size="10">M</text>
</g> </g>
 </g></g>
 </g>
 </g>
 </g></g></svg>