<svg xmlns="http://www.w3.org/2000/svg" width="203.39317pt" height="124.94347pt" viewBox="-72 -72 203.39317 124.94347" style="position: absolute; top: 0pt; left: 0pt; overflow: visible;">
<g transform="translate(-53.26249694824217,45.240493774414055)">
<g stroke-miterlimit="10" transform="scale(1,-1)"><g stroke="#000" fill="#000">
 <g stroke-width="0.4">
 <g stroke-width="1.2">
 <path d=" M 0.0 0.0 L 51.22227 102.44456 L 169.03369 102.44456 L 117.8114 0.0 Z  " fill="none"/>
 </g>
 <g stroke-width="1.2">
 <path d=" M 0.0 0.0 L 169.03369 102.44456  " fill="none"/>
 </g>
 <g stroke-width="1.2">
 <path d=" M 51.22227 102.44456 L 117.8114 0.0  " fill="none"/>
 </g>
 <g stroke-width="1.2">
 <path d=" M 20.1186 53.97717 L 31.11089 48.48186  " fill="none"/>
 </g>
 <g stroke-width="1.2">
 <path d=" M 21.95038 57.64151 L 32.94266 52.1462  " fill="none"/>
 </g>
 <g stroke-width="1.2">
 <path d=" M 110.14359 108.60461 L 110.14359 96.31354  " fill="none"/>
 </g>
 <g stroke-width="1.2">
 <path d=" M 114.24086 108.60461 L 114.24086 96.31354  " fill="none"/>
 </g>
 <g stroke-width="1.2">
 <path d=" M 148.93901 48.48186 L 137.94673 53.97717  " fill="none"/>
 </g>
 <g stroke-width="1.2">
 <path d=" M 147.10722 44.81754 L 136.11494 50.31285  " fill="none"/>
 </g>
 <g stroke-width="1.2">
 <path d=" M 58.91403 6.14554 L 58.91403 -6.14554  " fill="none"/>
 </g>
 <g stroke-width="1.2">
 <path d=" M 54.81676 6.14554 L 54.81676 -6.14554  " fill="none"/>
 </g>
 <g transform="translate(-12.3412,-4.09999)">
 <g stroke="none" transform="scale(-1.00375,1.00375)translate(-49.92916870117186,45.240493774414055)scale(-1,-1)"><g fill="#000">
 <g stroke="none"> <text alignment-baseline="baseline" y="45.240493774414055" x="-49.92916870117186" style="font-family: cmr12;" font-size="12">A</text>
</g> </g>
 </g></g>
 <g transform="translate(38.71579,105.97754)">
 <g stroke="none" transform="scale(-1.00375,1.00375)translate(-49.92916870117186,45.240493774414055)scale(-1,-1)"><g fill="#000">
 <g stroke="none"> <text alignment-baseline="baseline" y="45.240493774414055" x="-49.92916870117186" style="font-family: cmr12;" font-size="12">D</text>
</g> </g>
 </g></g>
 <g transform="translate(172.56667,105.97754)">
 <g stroke="none" transform="scale(-1.00375,1.00375)translate(-49.92916870117186,45.240493774414055)scale(-1,-1)"><g fill="#000">
 <g stroke="none"> <text alignment-baseline="baseline" y="45.240493774414055" x="-49.92916870117186" style="font-family: cmr12;" font-size="12">C</text>
</g> </g>
 </g></g>
 <g transform="translate(121.34438,-4.09999)">
 <g stroke="none" transform="scale(-1.00375,1.00375)translate(-49.92916870117186,45.240493774414055)scale(-1,-1)"><g fill="#000">
 <g stroke="none"> <text alignment-baseline="baseline" y="45.240493774414055" x="-49.92916870117186" style="font-family: cmr12;" font-size="12">B</text>
</g> </g>
 </g></g>
 <g transform="translate(71.85704,47.12953)">
 <g stroke="none" transform="scale(-1.00375,1.00375)translate(-49.92916870117186,45.240493774414055)scale(-1,-1)"><g fill="#000">
 <g stroke="none"> <text alignment-baseline="baseline" y="45.240493774414055" x="-49.92916870117186" style="font-family: cmr12;" font-size="12">O</text>
</g> </g>
 </g></g>
 </g>
 </g>
 </g></g></svg>