<svg xmlns="http://www.w3.org/2000/svg" width="171.51645pt" height="184.82613pt" viewBox="-72 -72 171.51645 184.82613" style="position: absolute; top: 0pt; left: 0pt; overflow: visible;">
<g transform="translate(13.488220214843746,26.79789733886718)">
<g stroke-miterlimit="10" transform="scale(1,-1)"><g stroke="#000" fill="#000">
 <g stroke-width="0.4">
 <g stroke-width="0.8">
 <path d=" M 0.0 0.0 M 85.35823 0.0 C 85.35823 47.14265 47.14265 85.35823 0.0 85.35823 C -47.14265 85.35823 -85.35823 47.14265 -85.35823 0.0 C -85.35823 -47.14265 -47.14265 -85.35823 0.0 -85.35823 C 47.14265 -85.35823 85.35823 -47.14265 85.35823 0.0 Z M 0.0 0.0  " fill="none"/>
 </g>
 <g stroke-width="0.8">
 <path d=" M 0.0 85.36864 L -65.39552 -54.87424  " fill="none"/>
 </g>
 <g stroke-width="0.8">
 <path d=" M 0.0 85.36864 L 65.39552 -54.87424  " fill="none"/>
 </g>
 <g stroke-width="0.8">
 <path d=" M -65.39552 -54.87424 L 65.39552 -54.87424  " fill="none"/>
 </g>
 <g stroke-width="0.8">
 <path d=" M 0.0 0.0 L -65.39552 -54.87424  " fill="none"/>
 </g>
 <g stroke-width="0.8">
 <path d=" M 0.0 0.0 L 65.39552 -54.87424  " fill="none"/>
 </g>
 <g stroke-width="0.8">
 <path d=" M 0.0 0.0 L 0.0 -54.84949  " fill="none"/>
 </g>
 <g stroke-width="0.8">
 <path d=" M 0.0 -46.30711 L 8.53569 -46.30711 L 8.53569 -54.8428  " fill="none"/>
 </g>
 <g stroke-width="0.8">
 <path d=" M 0.0 85.36864 M -9.3546 66.18892 C -3.4514 63.30972 3.4514 63.30972 9.3546 66.18892  " fill="none"/>
 </g>
 <g transform="translate(-2.6308,71.3738)">
 <g stroke="none" transform="scale(-1.00375,1.00375)translate(16.82154846191406,26.79789733886718)scale(-1,-1)"><g fill="#000">
 <g stroke="none"> <text alignment-baseline="baseline" y="26.79789733886718" x="16.82154846191406" style="font-family: cmmi10;" font-size="10">y</text>
</g> </g>
 </g></g>
 <g stroke-width="0.8">
 <path d=" M 0.0 0.0 M 13.0773 -10.97333 C 19.13777 -3.75085 18.1958 7.01683 10.97333 13.0773 C 3.75085 19.13777 -7.01683 18.1958 -13.0773 10.97333 C -18.40202 4.62766 -18.40202 -4.62766 -13.0773 -10.97333  " fill="none"/>
 </g>
 <g transform="translate(-5.1308,8.41975)">
 <g stroke="none" transform="scale(-1.00375,1.00375)translate(16.82154846191406,26.79789733886718)scale(-1,-1)"><g fill="#000">
 <g stroke="none"> <text alignment-baseline="baseline" y="26.79789733886718" x="16.82154846191406" style="font-family: cmr10;" font-size="10">4</text>
<text alignment-baseline="baseline" y="26.79789733886718" x="21.821567535400387" style="font-family: cmmi10;" font-size="10">y</text>
</g> </g>
 </g></g>
 <g transform="translate(-3.75,88.90161)">
 <g stroke="none" transform="scale(-1.00375,1.00375)translate(16.82154846191406,26.79789733886718)scale(-1,-1)"><g fill="#000">
 <g stroke="none"> <text alignment-baseline="baseline" y="26.79789733886718" x="16.82154846191406" style="font-family: cmr10;" font-size="10">A</text>
</g> </g>
 </g></g>
 <g transform="translate(-76.01184,-58.2909)">
 <g stroke="none" transform="scale(-1.00375,1.00375)translate(16.82154846191406,26.79789733886718)scale(-1,-1)"><g fill="#000">
 <g stroke="none"> <text alignment-baseline="baseline" y="26.79789733886718" x="16.82154846191406" style="font-family: cmr10;" font-size="10">B</text>
</g> </g>
 </g></g>
 <g transform="translate(68.9285,-58.2909)">
 <g stroke="none" transform="scale(-1.00375,1.00375)translate(16.82154846191406,26.79789733886718)scale(-1,-1)"><g fill="#000">
 <g stroke="none"> <text alignment-baseline="baseline" y="26.79789733886718" x="16.82154846191406" style="font-family: cmr10;" font-size="10">D</text>
</g> </g>
 </g></g>
 <g transform="translate(-3.40279,-65.21577)">
 <g stroke="none" transform="scale(-1.00375,1.00375)translate(16.82154846191406,26.79789733886718)scale(-1,-1)"><g fill="#000">
 <g stroke="none"> <text alignment-baseline="baseline" y="26.79789733886718" x="16.82154846191406" style="font-family: cmr10;" font-size="10">P</text>
</g> </g>
 </g></g>
 <g transform="translate(1.53297,-11.36629)">
 <g stroke="none" transform="scale(-1.00375,1.00375)translate(16.82154846191406,26.79789733886718)scale(-1,-1)"><g fill="#000">
 <g stroke="none"> <text alignment-baseline="baseline" y="26.79789733886718" x="16.82154846191406" style="font-family: cmr10;" font-size="10">O</text>
</g> </g>
 </g></g>
 </g>
 </g>
 </g></g></svg>