<svg xmlns="http://www.w3.org/2000/svg" width="176.26945pt" height="106.77934pt" viewBox="-72 -72 176.26945 106.77934" style="position: absolute; top: 0pt; left: 0pt; overflow: visible;">
<g transform="translate(-58.59848022460936,26.787490844726555)">
<g stroke-miterlimit="10" transform="scale(1,-1)"><g stroke="#000" fill="#000">
 <g stroke-width="0.4">
 <g stroke-width="0.8">
 <path d=" M 0.0 0.0 L 147.95418 0.0 L 0.0 85.35823 Z  " fill="none"/>
 </g>
 <g transform="translate(-10.33855,-3.41666)">
 <g stroke="none" transform="scale(-1.00375,1.00375)translate(-55.26515197753905,26.787490844726555)scale(-1,-1)"><g fill="#000">
 <g stroke="none"> <text alignment-baseline="baseline" y="26.787490844726555" x="-55.26515197753905" style="font-family: cmr10;" font-size="10">P</text>
</g> </g>
 </g></g>
 <g transform="translate(151.48715,-2.44444)">
 <g stroke="none" transform="scale(-1.00375,1.00375)translate(-55.26515197753905,26.787490844726555)scale(-1,-1)"><g fill="#000">
 <g stroke="none"> <text alignment-baseline="baseline" y="26.787490844726555" x="-55.26515197753905" style="font-family: cmr10;" font-size="10">Q</text>
</g> </g>
 </g></g>
 <g transform="translate(-3.68056,88.8912)">
 <g stroke="none" transform="scale(-1.00375,1.00375)translate(-55.26515197753905,26.787490844726555)scale(-1,-1)"><g fill="#000">
 <g stroke="none"> <text alignment-baseline="baseline" y="26.787490844726555" x="-55.26515197753905" style="font-family: cmr10;" font-size="10">R</text>
</g> </g>
 </g></g>
 <g transform="translate(-8.53297,39.4569)">
 <g stroke="none" transform="scale(-1.00375,1.00375)translate(-55.26515197753905,26.787490844726555)scale(-1,-1)"><g fill="#000">
 <g stroke="none"> <text alignment-baseline="baseline" y="26.787490844726555" x="-55.26515197753905" style="font-family: cmr10;" font-size="10">1</text>
</g> </g>
 </g></g>
 <g transform="translate(77.51027,46.21208)">
 <g stroke="none" transform="scale(-1.00375,1.00375)translate(-55.26515197753905,26.787490844726555)scale(-1,-1)"><g fill="#000">
 <g stroke="none"> <text alignment-baseline="baseline" y="26.787490844726555" x="-55.26515197753905" style="font-family: cmr10;" font-size="10">2</text>
</g> </g>
 </g></g>
 <g stroke-width="0.8">
 <path d=" M 0.0 11.38092 L 11.38092 11.38092 L 11.38092 0.0  " fill="none"/>
 </g>
 <g stroke-width="0.8">
 <path d=" M 0.0 62.59595 C 8.13121 62.59595 15.64732 66.93542 19.71275 73.97708  " fill="none"/>
 </g>
 <g transform="translate(5.9051,69.9513)">
 <g stroke="none" transform="scale(-1.00375,1.00375)translate(-55.26515197753905,26.787490844726555)scale(-1,-1)"><g fill="#000">
 <g stroke="none"> <text alignment-baseline="baseline" y="26.787490844726555" x="-55.26515197753905" style="font-family: cmmi10;" font-size="10">y</text>
</g> </g>
 </g></g>
 <g stroke-width="0.8">
 <path d=" M 119.50143 0.0 C 119.50143 4.99321 120.81694 9.90219 123.31332 14.22636  " fill="none"/>
 </g>
 <g transform="translate(110.95334,6.38313)">
 <g stroke="none" transform="scale(-1.00375,1.00375)translate(-55.26515197753905,26.787490844726555)scale(-1,-1)"><g fill="#000">
 <g stroke="none"> <text alignment-baseline="baseline" y="26.787490844726555" x="-55.26515197753905" style="font-family: cmmi10;" font-size="10">x</text>
</g> </g>
 </g></g>
 </g>
 </g>
 </g></g></svg>