<svg xmlns="http://www.w3.org/2000/svg" width="227.34555pt" height="141.2095pt" viewBox="-72 -72 227.34555 141.2095" style="position: absolute; top: 0pt; left: 0pt; overflow: visible;">
<g transform="translate(-15.919372558593746,26.787490844726555)">
<g stroke-miterlimit="10" transform="scale(1,-1)"><g stroke="#000" fill="#000">
 <g stroke-width="0.4">
 <g stroke-width="0.8">
 <path d=" M -42.67911 0.0 L 142.26372 0.0  " fill="none"/>
 </g>
 <g stroke-width="0.8">
 <path d=" M 0.0 0.0 L 99.5846 85.35823  " fill="none"/>
 </g>
 <g stroke-width="0.8">
 <path d=" M 99.5846 85.35823 L 142.26372 0.0  " fill="none"/>
 </g>
 <g stroke-width="0.8">
 <path d=" M 0.0 0.0 L -33.28966 -28.45274  " fill="none"/>
 </g>
 <g stroke-width="0.8">
 <path d=" M 142.26372 0.0 L 156.49008 -28.45274  " fill="none"/>
 </g>
 <path d=" M 0.0 0.0 M -17.07181 0.0 C -17.07181 -4.0744 -15.61249 -8.01622 -12.96118 -11.10933  " fill="none"/>
 <path d=" M 142.26372 0.0 M 128.03735 0.0 C 128.03735 -5.08199 130.74953 -9.77954 135.15054 -12.32042 C 139.16928 -14.64075 144.07024 -14.85457 148.2761 -12.89351  " fill="none"/>
 <path d=" M 99.5846 85.35823 M 89.62596 76.82233 C 93.61948 72.06317 100.45538 70.85774 105.83582 73.96408  " fill="none"/>
 <g transform="translate(95.8346,88.8912)">
 <g stroke="none" transform="scale(-1.00375,1.00375)translate(-12.586044311523434,26.787490844726555)scale(-1,-1)"><g fill="#000">
 <g stroke="none"> <text alignment-baseline="baseline" y="26.787490844726555" x="-12.586044311523434" style="font-family: cmr10;" font-size="10">A</text>
</g> </g>
 </g></g>
 <g transform="translate(145.79669,3.53297)">
 <g stroke="none" transform="scale(-1.00375,1.00375)translate(-12.586044311523434,26.787490844726555)scale(-1,-1)"><g fill="#000">
 <g stroke="none"> <text alignment-baseline="baseline" y="26.787490844726555" x="-12.586044311523434" style="font-family: cmr10;" font-size="10">B</text>
</g> </g>
 </g></g>
 <g transform="translate(3.53297,-10.36629)">
 <g stroke="none" transform="scale(-1.00375,1.00375)translate(-12.586044311523434,26.787490844726555)scale(-1,-1)"><g fill="#000">
 <g stroke="none"> <text alignment-baseline="baseline" y="26.787490844726555" x="-12.586044311523434" style="font-family: cmr10;" font-size="10">C</text>
</g> </g>
 </g></g>
 <g transform="translate(-53.01765,3.53297)">
 <g stroke="none" transform="scale(-1.00375,1.00375)translate(-12.586044311523434,26.787490844726555)scale(-1,-1)"><g fill="#000">
 <g stroke="none"> <text alignment-baseline="baseline" y="26.787490844726555" x="-12.586044311523434" style="font-family: cmr10;" font-size="10">E</text>
</g> </g>
 </g></g>
 <g transform="translate(-36.55356,-38.81903)">
 <g stroke="none" transform="scale(-1.00375,1.00375)translate(-12.586044311523434,26.787490844726555)scale(-1,-1)"><g fill="#000">
 <g stroke="none"> <text alignment-baseline="baseline" y="26.787490844726555" x="-12.586044311523434" style="font-family: cmr10;" font-size="10">F</text>
</g> </g>
 </g></g>
 <g transform="translate(160.02306,-38.81903)">
 <g stroke="none" transform="scale(-1.00375,1.00375)translate(-12.586044311523434,26.787490844726555)scale(-1,-1)"><g fill="#000">
 <g stroke="none"> <text alignment-baseline="baseline" y="26.787490844726555" x="-12.586044311523434" style="font-family: cmr10;" font-size="10">D</text>
</g> </g>
 </g></g>
 <g transform="translate(95.90404,60.76556)">
 <g stroke="none" transform="scale(-1.00375,1.00375)translate(-12.586044311523434,26.787490844726555)scale(-1,-1)"><g fill="#000">
 <g stroke="none"> <text alignment-baseline="baseline" y="26.787490844726555" x="-12.586044311523434" style="font-family: cmr10;" font-size="10">R</text>
</g> </g>
 </g></g>
 <g transform="translate(-28.94241,-13.26428)">
 <g stroke="none" transform="scale(-1.00375,1.00375)translate(-12.586044311523434,26.787490844726555)scale(-1,-1)"><g fill="#000">
 <g stroke="none"> <text alignment-baseline="baseline" y="26.787490844726555" x="-12.586044311523434" style="font-family: cmr10;" font-size="10">30</text>
<text alignment-baseline="baseline" y="23.158569335937496" x="-2.586006164550781" style="font-family: cmsy7;" font-size="7">◦</text>
</g> </g>
 </g></g>
 <g transform="translate(113.44301,-23.22247)">
 <g stroke="none" transform="scale(-1.00375,1.00375)translate(-12.586044311523434,26.787490844726555)scale(-1,-1)"><g fill="#000">
 <g stroke="none"> <text alignment-baseline="baseline" y="26.787490844726555" x="-12.586044311523434" style="font-family: cmr10;" font-size="10">105</text>
<text alignment-baseline="baseline" y="23.158569335937496" x="2.4140129089355464" style="font-family: cmsy7;" font-size="7">◦</text>
</g> </g>
 </g></g>
 </g>
 </g>
 </g></g></svg>